<svg viewBox="0 0 377 282" fill="none" xmlns="http://www.w3.org/2000/svg">
<path d="M166.65 225.319C164.841 222.428 163.501 219.303 162.679 216.013C162.279 214.391 161.88 212.676 161.856 211.007C161.856 210.185 161.95 209.127 162.679 208.587C163.313 208.14 164.7 208.164 164.77 209.198C165.005 209.198 165.24 209.198 165.475 209.198C165.405 208.587 164.982 202.665 165.898 202.994C166.18 203.088 166.368 202.806 166.321 202.571C165.64 198.059 165.569 193.453 166.133 188.917C166.415 186.661 166.862 184.429 167.449 182.243C167.849 180.739 168.648 176.556 170.951 177.191C172.901 177.708 172.784 181.28 172.948 182.784C173.207 185.181 173.442 187.578 173.653 189.951C174.076 194.675 174.405 199.375 174.664 204.098C174.969 209.527 175.157 214.955 175.251 220.384C175.251 220.83 175.956 220.83 175.956 220.384C175.745 209.221 175.134 198.059 174.053 186.943C173.818 184.476 173.747 181.914 173.23 179.494C172.972 178.248 172.361 176.697 170.951 176.439C169.329 176.11 168.272 177.637 167.731 178.93C166.791 181.162 166.274 183.677 165.828 186.05C164.817 191.573 164.747 197.213 165.593 202.759C165.734 202.618 165.875 202.477 166.016 202.336C163.619 201.513 164.606 208.281 164.7 209.221C164.747 209.668 165.428 209.691 165.405 209.221C165.334 207.999 164.065 207.412 162.937 207.694C161.175 208.117 160.987 210.255 161.128 211.736C161.574 216.671 163.337 221.512 165.969 225.695C166.298 226.047 166.909 225.695 166.65 225.319Z" fill="#E8E8E8"/>
<path d="M175.369 201.396C175.486 200.55 175.651 199.727 175.862 198.881C175.98 198.482 176.097 198.059 176.238 197.659C176.309 197.471 176.943 195.732 177.413 196.602C177.578 196.931 178.048 196.766 178.071 196.414C178.236 193.1 179.082 189.881 180.656 186.943C180.985 186.309 181.878 184.382 182.677 185.627C183.053 186.238 183.03 187.037 183.053 187.719C183.1 189.481 183.124 191.244 183.124 193.006C183.124 200.08 182.771 207.13 182.043 214.156C181.996 214.556 182.63 214.626 182.724 214.25C182.889 213.71 184.604 210.161 185.474 211.994C185.826 212.746 185.45 214.25 185.38 215.049C185.192 217.399 184.933 219.749 184.581 222.099C184.51 222.546 185.192 222.734 185.262 222.287C185.544 220.478 185.756 218.668 185.944 216.835C186.038 215.801 186.132 214.744 186.202 213.686C186.249 213.028 186.343 212.3 186.132 211.665C185.85 210.819 185.074 210.49 184.275 210.913C183.124 211.524 182.419 212.864 182.066 214.039C182.301 214.062 182.536 214.109 182.748 214.133C183.641 205.344 183.97 196.508 183.758 187.695C183.735 186.708 183.711 185.157 182.677 184.593C181.643 184.029 180.891 185.063 180.445 185.839C178.565 189.035 177.578 192.677 177.39 196.367C177.601 196.296 177.836 196.249 178.048 196.179C177.648 195.427 176.708 195.474 176.191 196.085C175.721 196.649 175.533 197.518 175.345 198.2C175.063 199.163 174.875 200.127 174.734 201.114C174.617 201.654 175.298 201.842 175.369 201.396Z" fill="#E8E8E8"/>
<path d="M62.4042 274.528C59.0672 271.849 56.1532 268.653 53.8267 265.057C52.6987 263.318 51.7352 261.509 50.8892 259.629C50.1372 257.937 48.6332 254.999 50.3722 253.448C50.4897 253.331 50.4897 253.143 50.4192 253.025C49.9492 252.132 46.0482 244.777 47.7167 244.424C47.9517 244.377 48.0222 244.095 47.9282 243.907C45.7897 239.748 43.6277 235.471 42.7112 230.818C42.2647 228.609 41.9592 225.977 42.5467 223.768C42.7112 223.086 42.6877 223.18 43.4397 222.945C44.1917 222.71 44.1917 222.71 44.7557 223.251C45.2022 223.697 45.5547 224.261 45.8837 224.802C46.5417 225.836 47.1527 226.893 47.7402 227.974C50.0432 232.228 52.0172 236.646 54.0852 240.993C56.2707 245.576 58.4797 250.135 60.6652 254.717C63.1327 259.864 65.6002 264.987 68.0677 270.133C68.2557 270.533 68.8667 270.18 68.6787 269.781C63.6732 259.37 58.6912 248.936 53.6857 238.526C51.3357 233.614 49.1972 228.444 46.1187 223.909C45.3667 222.804 43.7687 220.995 42.4057 222.405C41.9122 222.922 41.7947 223.65 41.7007 224.332C41.5362 225.648 41.5127 226.964 41.6067 228.28C42.0532 233.99 44.7087 239.254 47.2937 244.283C47.3642 244.119 47.4347 243.931 47.5052 243.766C46.0717 244.072 46.5417 245.881 46.8707 246.845C47.6697 249.101 48.6332 251.286 49.7847 253.401C49.8082 253.26 49.8317 253.119 49.8317 252.978C48.4687 254.2 48.7507 256.127 49.2677 257.678C50.0432 259.911 51.1477 262.096 52.3462 264.117C54.8372 268.3 58.0567 271.99 61.8402 275.045C62.2632 275.303 62.7567 274.81 62.4042 274.528Z" fill="#E8E8E8"/>
<path d="M59.5608 250.041C58.7618 248.748 58.1743 247.385 57.8218 245.905C57.6573 245.153 57.5633 244.401 57.5163 243.625C57.4928 243.296 57.4928 242.967 57.5163 242.615C57.5163 242.474 57.5398 242.356 57.5398 242.215C57.4693 241.651 57.7278 241.393 58.3388 241.416C58.5503 241.816 59.1378 241.463 58.9498 241.064C56.9993 236.928 55.8478 232.439 55.6128 227.88C55.5188 226.071 55.1428 223.063 56.4823 221.606C58.0803 219.843 60.1953 225.577 60.5948 226.588C63.9083 235.001 66.8928 243.555 69.5248 252.226C71.0288 257.161 72.4153 262.143 73.6843 267.149C73.8018 267.595 74.4833 267.407 74.3658 266.961C71.7573 256.738 68.6788 246.633 65.1538 236.693C64.2843 234.225 63.3678 231.781 62.4278 229.337C61.5818 227.128 60.8533 224.802 59.6313 222.757C59.0438 221.77 57.8218 219.679 56.4353 220.642C54.9783 221.653 54.8843 223.956 54.8608 225.53C54.7668 231.029 56.0123 236.458 58.3388 241.44C58.5503 241.322 58.7383 241.205 58.9498 241.087C58.6678 240.547 58.0803 240.382 57.5398 240.688C56.7643 241.134 56.8113 242.286 56.7878 243.038C56.7643 245.646 57.5398 248.208 58.9263 250.417C59.1848 250.793 59.7958 250.44 59.5608 250.041Z" fill="#E8E8E8"/>
<path d="M314.019 242.614C312.162 239.747 310.658 236.669 309.577 233.449C309.06 231.898 308.614 230.3 308.285 228.679C307.932 226.963 307.744 225.201 308.614 223.603C308.426 223.626 308.238 223.65 308.05 223.673C309.624 225.06 310.729 226.728 311.363 228.726C311.504 229.149 312.162 228.984 312.045 228.538C309.53 219.185 308.308 209.315 310.705 199.797C310.47 199.797 310.259 199.797 310.024 199.797C311.011 203.134 311.763 206.542 312.28 209.996C312.515 209.926 312.726 209.879 312.961 209.808C312.209 205.79 312.045 201.701 312.491 197.635C312.891 194.11 313.455 189.739 316.275 187.248C316.11 187.248 315.946 187.248 315.781 187.248C316.557 188.235 316.51 189.504 316.533 190.703C316.557 191.76 316.557 192.818 316.533 193.899C316.51 196.178 316.463 198.458 316.416 200.737C316.298 205.226 316.11 209.714 316.04 214.179C315.875 223.039 316.134 231.945 317.92 240.664C318.014 241.11 318.695 240.922 318.601 240.476C316.721 231.217 316.58 221.746 316.792 212.346C316.886 207.717 317.074 203.064 317.191 198.434C317.238 196.155 317.262 193.875 317.262 191.596C317.262 189.927 317.403 188.141 316.298 186.755C316.181 186.59 315.922 186.637 315.805 186.755C313.032 189.199 312.374 193.288 311.927 196.766C311.34 201.16 311.504 205.625 312.303 209.996C312.397 210.443 313.055 210.255 312.985 209.808C312.468 206.354 311.716 202.946 310.729 199.609C310.635 199.28 310.141 199.257 310.047 199.609C307.627 209.244 308.849 219.255 311.387 228.726C311.622 228.655 311.833 228.608 312.068 228.538C311.41 226.446 310.235 224.637 308.59 223.18C308.426 223.039 308.144 223.039 308.026 223.25C306.428 226.141 307.744 229.948 308.661 232.862C309.789 236.434 311.387 239.841 313.431 242.99C313.643 243.343 314.254 242.99 314.019 242.614Z" fill="#E8E8E8"/>
<path d="M317.003 226.305C316.862 222.334 317.426 218.433 318.719 214.696C318.578 214.767 318.437 214.861 318.296 214.931C318.531 215.213 318.766 215.495 319.001 215.777C319.071 216.177 319.682 216.059 319.682 215.683C319.87 211.594 320.622 207.552 321.938 203.675C322.596 201.724 323.395 199.821 324.335 197.964C325.228 196.202 326.192 194.369 327.931 193.288C327.766 193.147 327.578 193.029 327.414 192.888C324.97 206.495 323.09 220.172 321.774 233.943C322.009 233.943 322.244 233.943 322.479 233.943C322.479 231.17 323.372 228.561 325.111 226.399C324.899 226.305 324.711 226.235 324.5 226.141C324.476 229.196 324.194 232.251 323.63 235.259C323.536 235.705 324.147 235.87 324.312 235.447C324.876 233.943 326.027 232.815 327.531 232.274C327.39 232.133 327.249 231.992 327.108 231.851C326.521 234.789 325.933 237.75 325.322 240.687C325.228 241.134 325.91 241.322 326.004 240.875C326.591 237.938 327.179 234.977 327.79 232.039C327.837 231.804 327.625 231.499 327.367 231.616C325.604 232.274 324.312 233.543 323.654 235.282C323.889 235.353 324.1 235.4 324.335 235.47C324.923 232.392 325.228 229.29 325.252 226.164C325.252 225.882 324.852 225.671 324.641 225.906C322.784 228.209 321.774 230.982 321.797 233.943C321.797 234.413 322.455 234.389 322.502 233.943C323.795 220.242 325.675 206.612 328.119 193.076C328.166 192.794 327.884 192.512 327.602 192.677C326.074 193.64 325.087 195.121 324.241 196.695C323.207 198.622 322.314 200.643 321.586 202.711C320.082 206.894 319.259 211.265 319.048 215.707C319.283 215.683 319.518 215.636 319.729 215.613C319.588 214.908 319.212 214.508 318.531 214.273C318.343 214.203 318.155 214.344 318.108 214.508C316.815 218.315 316.228 222.287 316.369 226.305C316.298 226.752 317.003 226.752 317.003 226.305Z" fill="#E8E8E8"/>
<path d="M275.338 118.746C275.62 115.809 279.356 117.101 280.884 117.971C282.223 118.723 283.61 119.616 285.208 119.545C288.028 119.451 289.767 116.772 292.399 116.185C295.43 115.503 297.31 119.122 300.318 118.793C301.681 118.629 302.809 117.736 303.984 117.078C305.77 116.067 307.18 116.255 308.849 117.407C310.071 118.229 311.199 119.075 312.75 119.005C313.854 118.934 314.818 118.417 315.076 117.313C315.194 116.866 314.512 116.678 314.395 117.125C313.925 119.028 311.34 118.253 310.235 117.524C309.037 116.749 307.838 115.691 306.334 115.644C303.162 115.55 301.376 119.31 298.015 117.595C296.746 116.937 295.665 115.95 294.279 115.55C293.127 115.245 291.976 115.48 290.918 115.997C289.649 116.608 288.568 117.524 287.346 118.182C285.419 119.193 283.751 118.793 281.918 117.759C280.461 116.937 278.816 115.856 277.03 116.232C275.737 116.49 274.75 117.43 274.609 118.746C274.586 119.193 275.291 119.193 275.338 118.746Z" fill="#E8E8E8"/>
<path d="M298.744 127.887C299.731 126.101 302.104 125.255 303.914 126.289C305.159 126.994 306.17 128.498 307.744 128.498C309.577 128.498 310.447 126.477 312.045 125.913C314.348 125.114 315.711 126.571 317.45 127.723C318.578 128.475 319.8 128.592 320.951 127.817C322.291 126.924 323.184 125.067 324.97 124.973C327.672 124.832 331.573 129.485 334.064 126.266C334.346 125.913 333.853 125.42 333.571 125.772C331.479 128.475 327.578 124.315 325.158 124.268C324.03 124.245 323.137 124.809 322.338 125.561C321.421 126.43 320.481 127.817 319.048 127.652C317.614 127.488 316.674 126.031 315.405 125.443C314.301 124.926 312.985 124.856 311.833 125.255C310.447 125.725 309.765 127.041 308.496 127.605C306.922 128.334 305.7 126.642 304.501 125.866C302.339 124.433 299.308 125.302 298.086 127.558C297.921 127.934 298.532 128.287 298.744 127.887Z" fill="#E8E8E8"/>
<path d="M21.9843 122.789C22.0078 121.472 23.4883 121.566 24.2403 121.966C24.7103 122.224 25.1098 122.601 25.5093 122.953C26.0498 123.423 26.5903 123.917 27.2483 124.175C28.3528 124.598 29.3868 124.293 30.3033 123.611C31.3843 122.812 32.2538 121.496 33.5933 121.12C35.2383 120.65 36.6013 122.107 37.8703 122.883C38.9043 123.517 40.0088 123.917 41.2073 123.447C42.8288 122.812 43.5808 120.979 45.2258 120.368C46.1188 120.039 46.7298 120.18 47.3408 120.955C47.5758 121.237 47.7168 121.543 47.9988 121.801C48.3748 122.154 48.8683 122.342 49.3853 122.413C50.5133 122.554 51.6178 122.036 52.1818 121.049C52.4168 120.65 51.8058 120.297 51.5708 120.697C51.0538 121.613 49.8318 122.013 48.8683 121.543C48.0928 121.143 47.8813 120.18 47.1293 119.757C45.9778 119.099 44.5678 119.757 43.6513 120.532C42.0768 121.849 40.9018 123.776 38.5988 122.53C37.4003 121.872 36.3898 120.791 35.0503 120.462C33.8988 120.18 32.8413 120.603 31.9483 121.308C30.8203 122.178 29.7158 123.87 28.1178 123.705C26.2848 123.517 25.4388 121.261 23.5823 121.026C22.4308 120.861 21.3028 121.613 21.2793 122.812C21.2558 123.235 21.9608 123.235 21.9843 122.789Z" fill="#E8E8E8"/>
<path d="M40.2437 117.383C40.6432 116.067 41.7477 115.174 43.0872 114.916C43.7452 114.775 44.4502 114.798 45.0847 115.033C45.8367 115.315 46.2362 115.879 46.8237 116.373C48.4687 117.783 50.1137 116.584 51.5942 115.55C52.5577 114.869 53.7327 114.023 54.8372 114.963C55.5187 115.55 55.8712 116.561 56.7877 116.866C57.7982 117.172 58.4092 116.373 59.0202 115.738C60.5477 114.117 62.5452 115.221 64.0727 116.255C64.4487 116.514 64.8012 115.903 64.4252 115.644C63.2737 114.869 61.8402 113.999 60.3832 114.164C59.8427 114.234 59.3727 114.422 58.9732 114.775C58.2917 115.339 57.6572 116.749 56.5762 115.879C55.7067 115.198 55.4012 114.046 54.1792 113.835C53.1922 113.67 52.2757 114.258 51.4767 114.775C50.5602 115.386 49.3147 116.584 48.0927 116.279C47.2937 116.067 46.8472 115.221 46.1892 114.775C45.7427 114.469 45.2257 114.258 44.6617 114.164C42.4997 113.788 40.1967 115.033 39.5857 117.172C39.4212 117.618 40.1027 117.806 40.2437 117.383Z" fill="#E8E8E8"/>
<path d="M178.236 28.1064C178.001 27.0019 179.293 26.5554 180.069 26.7434C180.633 26.8609 181.15 27.2839 181.573 27.6364C182.231 28.2004 182.842 28.8584 183.594 29.3049C184.91 30.0804 186.155 29.8219 187.354 28.9994C188.012 28.5529 188.646 27.9654 189.398 27.7069C190.385 27.3544 191.278 27.6834 192.148 28.1769C193.299 28.8349 194.357 29.7984 195.72 30.0099C197.106 30.2214 198.211 29.4459 199.198 28.5529C200.631 27.2604 201.877 26.2734 203.898 26.9549C206.483 27.8244 208.95 30.1744 211.676 28.2944C212.428 27.7774 213.063 27.0019 213.932 26.6964C215.225 26.2499 215.671 27.4954 216.564 28.1064C217.88 29.0464 219.619 28.8584 220.865 27.8949C221.217 27.6129 220.724 27.1194 220.371 27.4014C219.314 28.2239 217.786 28.2474 216.752 27.3544C216.188 26.8609 215.836 26.2264 215.107 25.9679C213.721 25.4979 212.569 26.7669 211.582 27.5189C208.386 29.8924 205.684 25.8739 202.394 25.9679C200.866 26.0149 199.809 27.0724 198.751 28.0359C198.07 28.6469 197.294 29.3049 196.307 29.3284C195.367 29.3284 194.545 28.8114 193.793 28.3414C192.618 27.5894 191.372 26.6494 189.915 26.8609C188.294 27.0724 187.354 28.6469 185.803 29.0464C183.429 29.6574 182.184 26.2734 179.951 26.0149C178.612 25.8504 177.296 26.9314 177.601 28.3179C177.648 28.7409 178.33 28.5529 178.236 28.1064Z" fill="#E8E8E8"/>
<path d="M203.827 34.5221C204.744 32.6891 206.906 32.4306 208.692 33.0416C210.102 33.5116 211.418 34.8511 212.922 34.9921C214.191 35.0861 214.966 34.1461 215.859 33.4176C217.528 32.0546 219.361 32.3131 221.147 33.2531C222.157 33.7936 223.309 34.4986 224.507 34.3341C225.8 34.1461 226.317 33.0416 227.327 32.4071C228.573 31.6316 229.936 33.1121 231.275 33.1826C232.497 33.2531 233.649 32.7361 234.471 31.8666C234.777 31.5376 234.283 31.0441 233.978 31.3731C233.296 32.0781 232.427 32.5011 231.44 32.5011C230.453 32.4776 229.865 31.9371 228.996 31.5846C228.126 31.2321 227.374 31.4436 226.669 32.0311C226.082 32.5011 225.612 33.1826 224.907 33.4881C223.896 33.9111 222.909 33.3941 222.016 32.9241C220.841 32.3131 219.69 31.6786 218.303 31.7491C217.058 31.8196 216.024 32.3601 215.107 33.1591C214.144 34.0051 213.298 34.6161 211.982 33.9581C211.206 33.5821 210.501 33.0651 209.702 32.7126C207.47 31.7256 204.462 31.7256 203.24 34.1931C203.028 34.5691 203.616 34.9216 203.827 34.5221Z" fill="#E8E8E8"/>
<path d="M43.0403 170.658C44.1213 169.788 45.6723 168.684 47.0118 169.741C47.5758 170.188 47.9283 170.869 48.5393 171.269C49.4088 171.856 50.3488 171.715 51.1243 171.057C52.1348 170.211 53.0043 168.19 54.6023 168.731C55.8478 169.13 56.5763 170.517 57.7043 171.128C60.2893 172.538 61.4173 169.412 63.1563 168.261C64.9423 167.086 65.7883 169.577 66.9633 170.399C67.8563 171.01 69.0783 171.175 69.7363 170.211C69.9948 169.835 69.3838 169.483 69.1253 169.859C67.9973 171.504 65.7883 167.744 64.7778 167.368C63.8143 167.015 62.8978 167.485 62.1928 168.143C61.3233 168.966 60.5948 170.399 59.3493 170.728C57.8688 171.104 56.7643 169.389 55.7303 168.613C54.9548 168.026 54.0383 167.744 53.1218 168.143C52.0173 168.637 51.5003 169.835 50.5838 170.564C48.9858 171.833 48.0928 169.412 46.8238 168.801C45.2728 168.073 43.6513 169.201 42.4998 170.141C42.1943 170.446 42.6878 170.94 43.0403 170.658Z" fill="#E8E8E8"/>
<path d="M197.529 160.811C197.694 159.401 199.433 159.589 200.302 160.059C200.937 160.388 201.454 160.882 202.041 161.281C203.005 161.939 204.156 162.433 205.331 162.01C206.694 161.493 207.493 160.224 208.95 159.824C210.783 159.307 212.264 159.942 213.909 160.67C214.872 161.093 215.953 161.469 216.987 161.023C218.115 160.553 218.797 159.049 220.183 159.425C221.993 159.918 223.003 162.08 225.071 161.798C225.518 161.751 225.518 161.046 225.071 161.093C222.839 161.375 221.664 158.297 219.384 158.673C217.974 158.884 217.363 160.576 215.859 160.529C214.238 160.482 212.851 159.19 211.23 158.955C209.82 158.767 208.363 159.072 207.164 159.848C206.53 160.247 206.036 160.858 205.378 161.187C204.086 161.869 202.934 161.07 201.924 160.318C200.913 159.589 199.809 158.72 198.469 159.025C197.553 159.237 196.918 159.871 196.801 160.811C196.777 161.258 197.482 161.258 197.529 160.811Z" fill="#E8E8E8"/>
<path d="M295.595 54.0266C295.642 53.0161 296.887 52.7811 297.71 52.8986C298.556 53.0161 299.308 53.5566 300.083 53.8856C301.258 54.4026 302.292 54.4026 303.444 53.8386C304.29 53.4391 305.042 52.9456 305.982 52.8046C307.039 52.6636 308.026 52.8986 308.966 53.4391C310.094 54.0971 311.081 54.9196 312.444 54.9901C314.818 55.1311 316.839 53.3216 318.86 52.3111C320.434 51.5121 321.891 51.3006 323.466 52.1936C324.664 52.8516 325.839 53.8151 327.296 53.6506C328.941 53.4626 329.388 51.6296 330.939 51.1831C332.748 50.6661 334.769 51.4886 336.391 52.2171C336.79 52.4051 337.166 51.7941 336.743 51.6061C334.44 50.5721 331.103 49.3736 329.035 51.5121C328.213 52.3581 327.649 53.2041 326.286 52.8516C325.181 52.5696 324.312 51.7706 323.301 51.3006C322.15 50.7601 320.951 50.7601 319.753 51.1596C317.238 52.0056 314.7 54.8726 311.857 54.1911C310.141 53.7681 308.99 52.2876 307.133 52.0761C306.452 52.0056 305.747 52.0526 305.089 52.2641C304.172 52.5461 303.42 53.1806 302.527 53.4391C300.553 54.0031 299.12 52.0526 297.193 52.1231C296.041 52.1701 294.937 52.7576 294.866 53.9796C294.866 54.4966 295.571 54.4966 295.595 54.0266Z" fill="#E8E8E8"/>
<path d="M57.8687 150.871C59.3483 150.871 60.5477 149.671 60.5477 148.192C60.5477 146.712 59.3483 145.513 57.8687 145.513C56.3891 145.513 55.1897 146.712 55.1897 148.192C55.1897 149.671 56.3891 150.871 57.8687 150.871Z" fill="#2CA58D"/>
<path d="M202.37 63.0745C204.122 63.0745 205.543 61.6541 205.543 59.902C205.543 58.1499 204.122 56.7295 202.37 56.7295C200.618 56.7295 199.198 58.1499 199.198 59.902C199.198 61.6541 200.618 63.0745 202.37 63.0745Z" fill="#ED6A5A"/>
<path d="M301.47 154.184C302.378 154.184 303.115 153.447 303.115 152.539C303.115 151.63 302.378 150.894 301.47 150.894C300.561 150.894 299.825 151.63 299.825 152.539C299.825 153.447 300.561 154.184 301.47 154.184Z" fill="#ED6A5A"/>
<path d="M325.111 32.1017C326.746 32.1017 328.072 30.776 328.072 29.1407C328.072 27.5054 326.746 26.1797 325.111 26.1797C323.475 26.1797 322.15 27.5054 322.15 29.1407C322.15 30.776 323.475 32.1017 325.111 32.1017Z" fill="#2CA58D"/>
<path d="M46.6828 44.0156C47.9936 44.0156 49.0562 42.9529 49.0562 41.6421C49.0562 40.3312 47.9936 39.2686 46.6828 39.2686C45.3719 39.2686 44.3093 40.3312 44.3093 41.6421C44.3093 42.9529 45.3719 44.0156 46.6828 44.0156Z" fill="#ED6A5A"/>
<path d="M53.8502 53.8153C54.9534 53.8153 55.8477 52.921 55.8477 51.8178C55.8477 50.7146 54.9534 49.8203 53.8502 49.8203C52.747 49.8203 51.8527 50.7146 51.8527 51.8178C51.8527 52.921 52.747 53.8153 53.8502 53.8153Z" fill="#FFBD00"/>
<path d="M51.4533 158.978C52.7772 158.978 53.8503 157.904 53.8503 156.581C53.8503 155.257 52.7772 154.184 51.4533 154.184C50.1295 154.184 49.0563 155.257 49.0563 156.581C49.0563 157.904 50.1295 158.978 51.4533 158.978Z" fill="#FFBD00"/>
<path d="M311.222 38.0472C312.17 38.0472 312.938 37.2792 312.938 36.3317C312.938 35.3843 312.17 34.6162 311.222 34.6162C310.275 34.6162 309.507 35.3843 309.507 36.3317C309.507 37.2792 310.275 38.0472 311.222 38.0472Z" fill="#ED6A5A"/>
<path d="M193.064 144.573C194.245 144.573 195.203 143.615 195.203 142.434C195.203 141.253 194.245 140.296 193.064 140.296C191.883 140.296 190.926 141.253 190.926 142.434C190.926 143.615 191.883 144.573 193.064 144.573Z" fill="#2CA58D"/>
<path d="M294.913 164.242C295.977 164.242 296.84 163.379 296.84 162.315C296.84 161.25 295.977 160.388 294.913 160.388C293.849 160.388 292.986 161.25 292.986 162.315C292.986 163.379 293.849 164.242 294.913 164.242Z" fill="#FFBD00"/>
<path d="M290.707 100.698C291.459 99.9691 292.305 99.1935 293.339 98.9115C294.631 98.559 295.148 99.4051 296.182 99.8986C297.122 100.345 298.015 100.016 298.861 99.5461C299.425 99.217 299.989 98.794 300.624 98.6295C301.634 98.371 302.104 99.0995 302.762 99.6636C303.561 100.345 304.454 100.439 305.465 100.11C306.64 99.7341 307.979 98.5825 309.272 98.982C310.494 99.3581 310.917 100.886 312.35 100.956C313.572 101.003 314.559 100.04 315.499 99.4286C317.544 98.1125 319.447 99.123 321.28 100.322C321.656 100.58 322.009 99.9691 321.633 99.7105C320.317 98.8175 318.766 97.854 317.097 98.042C315.57 98.2065 314.606 99.4286 313.267 100.016C311.41 100.839 310.776 98.4415 309.131 98.2065C307.885 98.042 306.734 98.841 305.629 99.2875C304.642 99.6871 303.89 99.6871 303.068 98.9585C302.645 98.5825 302.316 98.1595 301.752 97.948C300.624 97.5485 299.59 98.324 298.65 98.8645C297.663 99.4286 297.005 99.5931 295.994 98.935C295.43 98.559 295.007 98.2065 294.302 98.136C292.704 97.9715 291.318 99.1935 290.26 100.228C289.884 100.51 290.378 101.027 290.707 100.698Z" fill="#5B399B"/>
<path d="M31.1492 205.109C32.0422 204.028 33.1702 204.098 34.2512 204.78C34.8387 205.132 35.3087 205.438 36.0137 205.391C37.2592 205.297 38.1992 204.286 39.2332 203.722C40.3377 203.111 41.0662 203.346 41.9827 204.192C42.4762 204.662 42.9462 205.132 43.6277 205.297C44.8027 205.555 45.8132 204.78 46.7062 204.122C47.3407 203.652 47.9987 203.088 48.7742 202.923C49.7142 202.712 50.5132 203.205 51.2887 203.628C52.5342 204.286 53.7092 204.686 55.0017 203.887C55.6127 203.511 56.1062 202.97 56.6937 202.571C57.6572 201.936 58.5267 202.077 59.5607 202.383C60.7827 202.735 62.0047 203.182 63.0622 202.265C63.4147 201.96 62.8977 201.466 62.5687 201.772C61.2762 202.853 59.1142 201.184 57.5867 201.443C56.0827 201.701 55.3307 203.252 53.9207 203.628C52.2287 204.051 50.8892 202.148 49.1972 202.195C47.8812 202.218 46.8707 203.182 45.8837 203.887C45.1552 204.404 44.2857 204.968 43.3692 204.498C42.7112 204.145 42.3117 203.464 41.7007 203.064C40.5727 202.336 39.4447 202.782 38.4107 203.44C37.8702 203.793 37.3767 204.192 36.7892 204.474C35.6377 205.015 35.0502 204.333 34.0632 203.863C32.8647 203.276 31.4782 203.652 30.6557 204.662C30.3737 204.968 30.8672 205.461 31.1492 205.109Z" fill="#2CA58D"/>
<path d="M178.165 16.9909C178.87 18.1189 180.045 18.8239 181.361 18.9179C183.1 19.0354 183.829 17.9544 185.262 17.2729C187.001 16.4504 188.341 18.5654 190.15 18.3069C191.466 18.1189 192.477 17.1084 193.558 16.4034C194.333 15.8864 195.179 15.5104 196.119 15.7689C196.895 15.9569 197.553 16.4504 198.234 16.8264C199.362 17.4609 200.537 17.7899 201.665 16.9909C202.417 16.4739 202.911 15.5339 203.851 15.2989C205.19 14.9464 206.436 16.0274 207.517 16.6384C208.762 17.3669 210.29 17.8839 211.582 16.9909C211.958 16.7324 211.606 16.1214 211.23 16.3799C209.42 17.6489 207.423 15.5339 205.801 14.8759C204.532 14.3589 203.381 14.4764 202.37 15.3929C201.595 16.0744 201.031 16.9439 199.856 16.7559C199.104 16.6384 198.422 16.1214 197.788 15.7454C196.754 15.1579 195.673 14.7584 194.498 15.1344C193.299 15.5339 192.406 16.4504 191.349 17.0849C190.644 17.5079 189.892 17.7899 189.093 17.5314C188.364 17.3199 187.8 16.7794 187.095 16.5209C185.591 15.9804 184.698 16.9204 183.5 17.6724C181.902 18.6594 179.834 18.2364 178.8 16.6384C178.518 16.2389 177.907 16.5914 178.165 16.9909Z" fill="#ED6A5A"/>
<path d="M75.2823 41.0777C74.9533 42.3702 75.2823 271.002 75.2823 271.002L158.566 227.268V21.7842L75.2823 41.0777Z" fill="white" stroke="#212121" stroke-width="2" stroke-miterlimit="10"/>
<path d="M136.288 207.528C143.691 209.502 151.046 211.711 158.331 214.108C158.754 214.249 158.942 213.568 158.519 213.427C151.234 211.03 143.879 208.821 136.476 206.847C136.03 206.729 135.842 207.411 136.288 207.528Z" fill="#212121"/>
<path d="M120.426 228.115C118.029 228.984 114.574 229.948 110.297 230.136C105.574 230.371 101.696 229.595 99.1348 228.867C98.7353 228.89 96.5263 228.914 94.7168 227.222C93.5653 226.141 92.8133 224.637 92.7428 222.921L90.8863 171.621C90.7688 168.213 93.4243 165.346 96.8318 165.229C99.4873 164.312 103.388 163.302 108.229 163.231C112.295 163.184 115.679 163.795 118.146 164.453C118.546 164.43 120.755 164.406 122.564 166.098C123.716 167.179 124.468 168.683 124.538 170.399L126.395 221.699C126.489 225.13 123.833 227.997 120.426 228.115Z" fill="white" stroke="#212121" stroke-width="2" stroke-miterlimit="10"/>
<path d="M90.9803 170.656C101.085 176.085 114.151 173.852 123.974 168.941C124.374 168.729 124.021 168.118 123.622 168.33C114.01 173.124 101.203 175.356 91.3328 170.045C90.9333 169.834 90.5573 170.445 90.9803 170.656Z" fill="#212121"/>
<path d="M91.0509 177.189C101.203 184.568 115.303 183.769 124.585 175.356C124.914 175.051 124.421 174.557 124.092 174.863C115.021 183.088 101.297 183.769 91.4034 176.578C91.0509 176.32 90.6984 176.931 91.0509 177.189Z" fill="#212121"/>
<path d="M91.2154 185.063C92.7194 187.436 95.9154 188.588 98.4534 189.457C101.579 190.515 104.869 191.008 108.159 190.891C114.316 190.703 120.261 188.4 125.032 184.499C125.384 184.217 124.891 183.723 124.538 184.005C120.026 187.695 114.41 189.904 108.582 190.186C105.644 190.327 102.683 189.974 99.8399 189.152C98.4064 188.752 96.9964 188.212 95.6569 187.577C94.2234 186.872 92.7194 186.12 91.8264 184.734C91.5914 184.311 90.9804 184.663 91.2154 185.063Z" fill="#212121"/>
<path d="M91.4032 193.687C93.3302 195.943 96.1267 197.259 98.8997 198.175C102.002 199.209 105.315 199.679 108.582 199.538C114.786 199.28 120.731 196.812 125.384 192.7C125.737 192.394 125.22 191.901 124.891 192.206C120.379 196.178 114.598 198.575 108.582 198.833C105.574 198.951 102.566 198.575 99.6752 197.682C96.8082 196.812 93.8707 195.496 91.8967 193.193C91.6147 192.841 91.1212 193.334 91.4032 193.687Z" fill="#212121"/>
<path d="M91.9204 202.805C96.3384 207.011 102.425 209.197 108.511 209.009C114.88 208.797 120.919 206.095 125.69 201.935C126.042 201.63 125.525 201.136 125.196 201.442C120.567 205.46 114.692 208.092 108.511 208.304C102.613 208.492 96.7144 206.4 92.4139 202.311C92.0849 202.006 91.5914 202.499 91.9204 202.805Z" fill="#212121"/>
<path d="M92.0613 213.051C96.9258 217.351 103.435 219.537 109.921 218.949C115.867 218.409 122.306 216.223 125.854 211.147C126.113 210.771 125.502 210.419 125.243 210.795C121.789 215.753 115.279 217.845 109.475 218.291C103.318 218.761 97.1608 216.646 92.5313 212.557C92.2258 212.252 91.7323 212.769 92.0613 213.051Z" fill="#212121"/>
<path d="M92.6723 220.735C97.6543 224.025 103.623 225.693 109.592 225.505C115.491 225.317 121.742 223.414 126.066 219.254C126.395 218.949 125.901 218.432 125.572 218.761C121.295 222.873 115.068 224.706 109.216 224.824C103.482 224.918 97.7953 223.296 93.0248 220.147C92.6488 219.889 92.2963 220.476 92.6723 220.735Z" fill="#212121"/>
<path d="M97.6073 168.166C99.4403 168.143 101.25 168.119 103.083 168.096C103.529 168.096 103.529 167.391 103.083 167.391C101.25 167.414 99.4403 167.438 97.6073 167.461C97.1608 167.485 97.1608 168.19 97.6073 168.166Z" fill="#212121"/>
<path d="M103.694 164.993C103.247 166.215 102.777 167.625 103.435 168.87C103.858 169.693 104.704 170.186 105.621 169.998C106.702 169.787 106.913 168.941 106.96 167.977C107.007 167.014 107.266 165.698 108.488 165.58C110.039 165.439 109.827 168.095 109.898 168.941C109.945 169.387 110.65 169.387 110.603 168.941C110.509 167.907 110.65 166.309 109.968 165.416C109.357 164.64 108.276 164.758 107.501 165.251C106.584 165.839 106.255 166.755 106.255 167.789C106.232 169.575 104.422 169.857 103.905 168.118C103.623 167.131 104.046 166.074 104.375 165.157C104.516 164.758 103.835 164.57 103.694 164.993Z" fill="#212121"/>
<path d="M110.438 167.461C111.825 167.484 113.211 167.531 114.574 167.555C115.021 167.555 115.021 166.85 114.574 166.85C113.188 166.826 111.801 166.779 110.438 166.756C109.968 166.756 109.968 167.461 110.438 167.461Z" fill="#212121"/>
<path d="M75.2589 253.658L158.566 213.591V227.268L75.2824 271.001L75.2589 253.658Z" fill="#212121" stroke="#212121" stroke-width="3" stroke-miterlimit="10"/>
<path d="M120.308 242.543C122.177 242.543 123.692 241.028 123.692 239.159C123.692 237.29 122.177 235.775 120.308 235.775C118.439 235.775 116.924 237.29 116.924 239.159C116.924 241.028 118.439 242.543 120.308 242.543Z" fill="white" stroke="#212121" stroke-width="3" stroke-miterlimit="10"/>
<path d="M241.428 76.7982C240.159 76.7277 239.101 77.3857 236.023 80.4642C232.921 83.5662 231.44 85.4462 229.137 88.0312C228.315 88.9712 228.949 88.2192 220.513 96.4912C219.761 97.2432 218.398 98.5592 216.236 99.4757C215.554 99.7577 213.98 100.392 212.076 100.369C210.901 100.345 208.904 100.063 205.496 97.5957C204.509 96.8672 202.3 95.1752 197.342 88.9007C196.355 87.6552 194.451 85.2112 192.289 82.2972C190.808 80.2762 188.811 78.6077 187.566 76.4222C187.072 75.5762 186.25 73.9782 184.863 73.7432C184.722 73.7197 183.97 73.6257 183.57 74.0487C183.053 74.6127 183.336 75.8582 183.853 76.6337C184.37 77.4327 184.933 77.4797 185.239 78.3022C185.427 78.7722 185.403 79.2187 185.356 79.5007C183.194 78.2552 181.314 77.3387 179.928 76.6807C177.319 75.4587 175.862 74.9887 174.499 74.6597C171.068 73.8372 169.823 74.3542 169.188 74.8007C169.024 74.9182 168.084 75.5527 168.178 76.2107C168.295 77.0332 169.964 77.4092 171.233 77.7147C173.301 78.2082 174.664 78.0907 174.687 78.3022C174.711 78.5607 172.478 78.7722 169.517 80.0177C168.319 80.5347 167.12 81.1457 166.251 82.3912C166.133 82.5792 165.264 83.7777 165.616 84.2007C165.875 84.5297 166.815 84.3417 167.919 83.7542C167.825 83.8952 167.285 84.7647 167.637 85.3522C168.013 86.0102 169.235 85.8692 169.893 85.7987C171.092 85.6577 171.797 85.2582 172.478 84.9762C173.395 84.6002 174.828 84.2477 176.92 84.5297C175.087 85.2817 173.7 86.1042 172.737 86.7387C170.669 88.1017 170.387 88.7362 170.387 89.2532C170.387 89.7702 170.669 90.4752 171.209 90.6632C172.337 91.0627 173.207 88.8067 175.369 88.6422C176.027 88.5952 176.685 88.8302 177.954 89.3002C179.575 89.9112 180.515 90.5222 181.173 90.8747C182.372 91.5092 184.252 92.0967 187.213 91.7442C190.503 95.5512 193.511 98.4652 195.697 100.486C200.843 105.186 203.499 107.56 207.87 109.017C211.489 110.215 214.497 110.192 216.33 110.168C223.192 110.074 228.174 107.536 230.477 106.314C233.203 104.881 238.185 102.272 241.898 96.6322C243.496 94.2117 244.318 91.6502 245.963 86.5272C246.433 85.0467 246.762 83.8717 246.527 82.4147C246.057 79.7827 243.895 76.9392 241.428 76.7982Z" fill="white"/>
<path opacity="0.15" d="M170.598 90.0991C170.363 89.5821 171.515 88.5716 171.703 88.4306C173.348 86.9971 175.416 86.7386 176.356 86.6446C178.753 86.4096 181.855 86.1041 185.239 87.2086C191.889 89.3471 191.913 94.3056 199.221 99.9691C201.524 101.755 207.822 106.643 215.977 106.408C221.523 106.244 225.447 103.8 229.63 101.191C233.578 98.7236 240.205 93.8121 245.939 84.7646C245.939 85.7516 245.892 87.1381 245.54 88.7596C244.623 93.2011 242.367 96.1386 240.957 97.9246C236.093 104.082 229.936 106.667 227.515 107.654C224.883 108.735 221.241 110.192 216.306 110.168C208.01 110.121 202.041 105.891 200.396 104.693C198.54 103.33 196.002 100.698 190.879 95.4336C189.116 93.6241 187.706 92.1201 186.766 91.1096C186.32 91.3916 185.591 91.7911 184.675 91.8616C182.865 92.0026 182.066 90.8041 179.105 89.6761C177.225 88.9711 176.309 88.6186 175.322 88.9006C174.1 89.2766 173.63 90.2401 172.008 90.4046C171.797 90.4046 170.81 90.4986 170.598 90.0991Z" fill="#7A7A7A"/>
<path d="M241.239 76.493C236.492 78.7255 233.085 82.791 229.771 86.7155C226.035 91.1335 221.828 95.763 216.799 98.7475C210.572 102.437 205.026 97.126 201.054 92.7315C196.895 88.1255 193.464 82.979 189.539 78.2085C188.482 76.8925 187.354 75.6235 186.179 74.425C185.544 73.7905 184.698 72.921 183.711 73.4615C183.03 73.8375 182.748 74.7775 182.889 75.506C183.194 77.0805 185.239 78.0205 184.957 79.736C184.886 80.1825 185.568 80.3705 185.638 79.924C185.803 78.937 185.45 78.1615 184.863 77.3625C184.51 76.8925 184.064 76.4695 183.805 75.929C183.476 75.224 183.265 73.5085 185.121 74.3545C185.427 74.4955 185.756 74.989 185.991 75.224C188.106 77.433 190.009 79.8535 191.866 82.2975C195.344 86.927 198.798 91.58 202.887 95.6925C206.389 99.241 211.324 102.249 216.306 99.8285C218.632 98.7005 220.724 96.844 222.651 95.152C224.86 93.225 226.904 91.1335 228.831 88.9245C232.638 84.53 236.21 79.642 241.615 77.104C242.015 76.916 241.662 76.305 241.239 76.493Z" fill="#212121"/>
<path d="M177.719 79.5949C176.238 78.4434 174.57 77.7149 172.69 77.5034C171.679 77.3859 170.575 77.4564 169.611 77.0334C169 76.7514 168.883 76.7044 168.859 75.9759C168.836 75.2474 168.883 75.2944 169.494 75.0829C170.175 74.8479 170.88 74.7539 171.585 74.7304C174.006 74.6364 176.403 75.4589 178.588 76.4459C180.868 77.4564 183.03 78.7019 185.098 80.0649C185.474 80.3234 185.826 79.7124 185.45 79.4539C182.889 77.7619 180.186 76.2579 177.319 75.1534C174.805 74.1899 171.938 73.5789 169.306 74.4014C168.671 74.6129 167.919 74.9184 167.802 75.6704C167.637 76.6104 168.554 77.3389 169.306 77.6679C170.316 78.1144 171.444 78.0674 172.525 78.1849C174.264 78.3494 175.862 79.0074 177.225 80.0649C177.578 80.3704 178.071 79.8769 177.719 79.5949Z" fill="#212121"/>
<path d="M174.593 77.9973C172.525 78.3263 170.528 79.0078 168.718 80.0888C167.449 80.8408 165.123 82.1803 165.217 83.9193C165.311 86.0343 167.473 84.5538 168.413 84.1073C170.763 82.9558 173.324 82.2978 175.933 82.1098C176.379 82.0863 176.379 81.3813 175.933 81.4048C174.405 81.5223 172.878 81.7573 171.397 82.2038C170.598 82.4388 169.846 82.7208 169.071 83.0498C168.413 83.3318 167.637 83.9663 166.956 84.1073C166.486 84.4598 166.251 84.1073 166.227 83.0498C166.392 82.8148 166.603 82.5798 166.815 82.3918C167.167 82.0628 167.567 81.7573 167.943 81.4753C168.577 81.0288 169.235 80.6293 169.917 80.2768C171.444 79.5013 173.089 78.9843 174.781 78.7258C175.228 78.6083 175.04 77.9268 174.593 77.9973Z" fill="#212121"/>
<path d="M168.554 83.1667C167.755 83.9187 166.251 86.5507 168.366 86.6447C168.859 86.6682 169.353 86.3862 169.799 86.1982C170.434 85.9397 171.092 85.7047 171.75 85.5167C172.478 85.3052 173.23 85.1407 173.982 84.9997C174.64 84.8822 176.144 84.4827 176.755 84.9057C177.131 85.1642 177.484 84.5532 177.108 84.2947C176.05 83.5427 173.7 84.2947 172.572 84.5532C171.632 84.7647 170.716 85.0702 169.799 85.4227C169.4 85.5872 168.06 86.3862 168.06 85.0937C168.06 84.6002 168.718 83.9422 169.047 83.6367C169.4 83.3547 168.906 82.8612 168.554 83.1667Z" fill="#212121"/>
<path d="M176.943 84.4126C174.875 85.1647 172.643 85.9871 171.115 87.6322C170.387 88.4077 168.789 91.0632 170.998 91.0397C172.102 91.0162 173.16 90.1467 174.123 89.6767C175.839 88.8777 177.507 89.3712 179.105 90.1702C181.596 91.4157 183.711 92.4262 186.578 91.9797C187.025 91.9092 186.837 91.2277 186.39 91.2982C183.664 91.7212 181.643 90.6167 179.27 89.4652C177.742 88.7132 176.05 88.1962 174.358 88.8072C173.559 89.1127 172.854 89.6062 172.079 89.9587C171.773 90.1232 171.444 90.2172 171.115 90.3112C170.622 89.9117 170.528 89.5122 170.857 89.1127C170.998 88.6662 171.515 88.2197 171.844 87.8907C173.301 86.4806 175.275 85.7521 177.131 85.0941C177.554 84.9531 177.366 84.2716 176.943 84.4126Z" fill="#212121"/>
<path d="M186.673 91.6737C190.55 96.0212 194.639 100.228 199.034 104.011C202.864 107.325 207.094 109.698 212.17 110.333C221.97 111.531 232.78 107.184 239.501 100.087C243.308 96.0682 245.869 90.9687 246.504 85.4462C246.551 84.9997 245.846 84.9997 245.799 85.4462C244.671 95.3867 237.198 103.071 228.315 106.949C223.756 108.946 218.75 110.098 213.745 109.792C208.41 109.463 203.875 107.231 199.833 103.8C195.297 99.9457 191.114 95.6217 187.143 91.1802C186.884 90.8277 186.367 91.3447 186.673 91.6737Z" fill="#212121"/>
<path d="M108.558 95.7861C107.571 96.3266 106.232 97.2196 104.916 98.5826C99.2524 104.528 100.521 113.223 100.733 114.657C101.109 117.242 102.213 124.785 108.77 128.475C112.929 130.825 117.206 130.425 118.969 130.167C118.616 127.699 118.17 125.161 117.629 122.529C115.444 112.189 112.107 103.236 108.558 95.7861Z" fill="#212121" stroke="#212121" stroke-width="2" stroke-miterlimit="10"/>
<path d="M191.513 117.641C199.56 117.641 206.083 111.118 206.083 103.071C206.083 95.0242 199.56 88.501 191.513 88.501C183.467 88.501 176.943 95.0242 176.943 103.071C176.943 111.118 183.467 117.641 191.513 117.641Z" fill="white" stroke="#212121" stroke-width="2" stroke-miterlimit="10"/>
<path d="M190.573 92.7548C190.573 94.0238 190.573 95.2928 190.573 96.5618C190.573 97.0083 191.278 97.0083 191.278 96.5618C191.278 95.2928 191.278 94.0238 191.278 92.7548C191.278 92.3083 190.573 92.3083 190.573 92.7548Z" fill="#212121"/>
<path d="M193.605 96.8197C191.936 95.9502 189.915 96.0912 188.529 97.4543C187.471 98.4648 186.696 100.556 188.106 101.637C188.787 102.154 189.727 102.154 190.55 102.06C192.195 101.849 194.051 101.919 194.686 103.799C195.203 105.303 194.38 107.724 192.923 108.499C191.349 109.345 189.586 108.311 188.294 107.442C187.918 107.183 187.565 107.794 187.941 108.053C189.563 109.157 191.795 110.215 193.605 108.899C195.179 107.747 196.002 105.092 195.226 103.306C194.427 101.496 192.618 101.073 190.832 101.308C189.845 101.449 188.599 101.59 188.106 100.439C187.777 99.6867 188.411 98.6057 188.905 98.0652C190.056 96.8667 191.772 96.6787 193.229 97.4307C193.652 97.6422 194.004 97.0312 193.605 96.8197Z" fill="#212121"/>
<path d="M191.349 109.134C191.349 110.191 191.349 111.225 191.349 112.283C191.349 112.729 192.054 112.729 192.054 112.283C192.054 111.225 192.054 110.191 192.054 109.134C192.054 108.687 191.349 108.687 191.349 109.134Z" fill="#212121"/>
<path d="M149.683 79.5239C156.757 79.5239 162.491 73.3163 162.491 65.6589C162.491 58.0015 156.757 51.7939 149.683 51.7939C142.61 51.7939 136.876 58.0015 136.876 65.6589C136.876 73.3163 142.61 79.5239 149.683 79.5239Z" fill="white" stroke="#212121" stroke-width="2" stroke-miterlimit="10"/>
<path d="M118.961 130.176C125.031 128.773 128.123 119.732 125.869 109.982C123.615 100.233 116.866 93.4672 110.797 94.8707C104.727 96.2743 101.634 105.316 103.889 115.065C106.143 124.814 112.891 131.58 118.961 130.176Z" fill="white" stroke="#212121" stroke-width="2" stroke-miterlimit="10"/>
<path d="M148.579 55.5068C148.579 56.7523 148.579 58.0213 148.579 59.2668C148.579 59.7133 149.284 59.7133 149.284 59.2668C149.284 58.0213 149.284 56.7523 149.284 55.5068C149.284 55.0602 148.579 55.0602 148.579 55.5068Z" fill="#212121"/>
<path d="M150.976 58.8206C149.354 58.5386 147.733 59.0556 146.605 60.2306C145.806 61.0531 144.654 63.0741 145.9 64.0141C146.511 64.4841 147.615 64.4136 148.32 64.4606C149.754 64.5781 151.587 64.8366 152.339 66.2466C154.054 69.5131 147.897 72.1921 146.981 69.0901C146.863 68.6671 146.182 68.8316 146.299 69.2781C146.816 71.0406 148.908 71.3931 150.459 70.9231C152.221 70.3826 153.584 68.6906 153.232 66.7871C152.809 64.5546 150.435 63.9671 148.508 63.7791C148.179 63.7556 147.85 63.7321 147.521 63.7086C146.863 63.6381 146.182 63.3796 146.111 62.5806C146.064 62.0636 146.675 61.2176 147.004 60.8651C147.968 59.8076 149.401 59.2671 150.811 59.5256C151.234 59.5726 151.422 58.8911 150.976 58.8206Z" fill="#212121"/>
<path d="M149.166 70.9462C149.166 71.6042 149.166 72.2622 149.166 72.9202C149.166 73.3667 149.871 73.3667 149.871 72.9202C149.871 72.2622 149.871 71.6042 149.871 70.9462C149.871 70.4997 149.166 70.4997 149.166 70.9462Z" fill="#212121"/>
<path d="M111.966 100.932C112.412 102.178 112.882 103.447 113.329 104.692C113.493 105.115 114.175 104.927 114.01 104.504C113.564 103.259 113.094 101.99 112.647 100.744C112.506 100.321 111.825 100.509 111.966 100.932Z" fill="#212121"/>
<path d="M116.454 104.011C114.386 104.105 112.459 105.28 111.449 107.113C110.579 108.711 110.344 111.155 111.895 112.424C114.104 114.234 116.877 110.873 119.345 112.072C121.248 112.988 120.661 115.362 119.791 116.819C119.392 117.5 118.875 118.135 118.24 118.581C117.794 118.91 116.172 119.756 115.702 119.075C115.444 118.699 114.833 119.051 115.091 119.427C116.29 121.143 119.11 118.934 119.909 117.876C121.154 116.231 122.188 113.294 120.214 111.766C119.298 111.038 118.052 110.967 116.948 111.179C115.35 111.508 112.929 113.247 111.801 111.226C110.133 108.218 113.517 104.834 116.407 104.693C116.901 104.693 116.901 103.988 116.454 104.011Z" fill="#212121"/>
<path d="M118.311 118.957C118.851 120.273 119.392 121.589 119.909 122.905C120.073 123.328 120.755 123.14 120.59 122.717C120.05 121.401 119.509 120.085 118.992 118.769C118.804 118.346 118.123 118.534 118.311 118.957Z" fill="#212121"/>
<path d="M244.271 245.598C244.365 248.583 244.482 251.591 244.576 254.575C242.25 255.116 239.383 255.985 236.257 257.489C232.944 259.064 230.194 259.487 229.583 261.531C229.442 262.025 229.442 262.448 229.466 262.73C230.594 262.706 232.262 262.636 234.26 262.354C237.55 261.884 239.853 261.108 241.592 260.568C244.083 259.792 247.631 258.805 252.237 257.959C252.143 257.09 252.049 256.22 251.979 255.351C251.65 251.614 251.509 248.042 251.485 244.611C249.088 244.964 246.668 245.269 244.271 245.598Z" fill="black"/>
<path d="M231.064 136.3C231.017 137.31 230.97 138.767 230.899 140.53C230.782 143.679 230.382 155.382 230.57 169.153C230.993 200.455 234.26 226.892 235.129 233.684C235.717 238.337 236.281 242.144 236.633 244.564C237.597 245.058 238.678 245.481 239.876 245.763C247.114 247.572 253.6 243.577 255.692 242.167C255.151 238.736 254.376 233.707 253.6 227.621C251.908 214.531 249.746 197.329 249.864 176.25C249.911 167.32 250.381 155.217 252.167 140.859C252.778 139.237 255.527 131.576 252.519 128.709C249.394 125.748 240.487 128.145 231.064 136.3Z" fill="white"/>
<path opacity="0.17" d="M245.728 145.535C245.446 148.214 245.023 152.75 244.694 158.366C244.177 166.967 242.884 194.274 248.337 230.911C248.877 234.577 249.629 239.3 250.663 244.823C252.332 243.93 254.024 243.037 255.692 242.167C252.825 225.6 251.462 211.547 250.757 200.901C250.146 191.713 250.005 184.357 249.935 180.245C249.676 167.061 250.005 155.852 250.405 147.274C248.854 146.71 247.302 146.123 245.728 145.535Z" fill="#7A7A7A"/>
<path d="M230.712 136.3C229.49 164.617 230.336 193.005 233.32 221.182C234.143 229.031 235.153 236.856 236.305 244.658C236.375 245.105 237.057 244.917 236.986 244.47C232.874 216.552 230.829 188.329 230.876 160.082C230.9 152.162 231.088 144.219 231.417 136.3C231.44 135.853 230.735 135.853 230.712 136.3Z" fill="#212121"/>
<path d="M236.563 245.01C242.955 247.76 250.522 246.749 255.95 242.402C256.303 242.12 255.809 241.626 255.457 241.908C250.287 246.044 243.002 247.031 236.915 244.399C236.492 244.235 236.14 244.846 236.563 245.01Z" fill="#212121"/>
<path d="M249.911 148.989C248.83 173.288 249.676 197.658 252.519 221.816C253.318 228.584 254.258 235.305 255.363 242.026C255.433 242.472 256.115 242.284 256.044 241.838C252.12 217.868 250.146 193.592 250.146 169.293C250.146 162.525 250.31 155.757 250.616 148.989C250.639 148.519 249.934 148.519 249.911 148.989Z" fill="#212121"/>
<path d="M243.848 246.515C243.965 249.194 244.083 251.896 244.224 254.575C244.318 254.458 244.388 254.34 244.482 254.246C240.887 255.092 237.432 256.385 234.189 258.147C233.32 258.617 227.186 261.625 229.207 262.965C230.429 263.787 232.262 263.2 233.531 262.894C235.623 262.377 237.714 261.884 239.806 261.367C243.989 260.356 248.148 259.322 252.331 258.312C252.472 258.288 252.613 258.124 252.59 257.983C252.12 253.541 251.861 249.1 251.838 244.635C251.838 244.188 251.133 244.188 251.133 244.635C251.156 249.1 251.391 253.565 251.885 257.983C251.979 257.865 252.049 257.748 252.143 257.654C248.783 258.476 245.422 259.299 242.085 260.121C238.772 260.92 235.458 261.884 232.121 262.542C231.698 262.636 231.252 262.683 230.829 262.683C230.523 262.683 230.241 262.659 229.959 262.565C229.536 262.236 229.489 262.001 229.889 261.813C230.218 261.296 231.275 260.803 231.792 260.474C233.038 259.651 234.33 258.899 235.646 258.241C238.513 256.784 241.568 255.703 244.694 254.975C244.835 254.951 244.952 254.787 244.952 254.646C244.835 251.967 244.717 249.264 244.576 246.585C244.529 246.068 243.824 246.068 243.848 246.515Z" fill="#212121"/>
<path d="M290.448 242.543C291.412 243.953 292.375 245.387 293.339 246.797C292.822 247.854 291.952 249.523 290.754 251.497C288.733 254.763 287.558 255.915 285.819 258.758C285.02 260.074 283.915 262.072 282.858 264.727C283.586 264.492 284.667 264.069 285.866 263.364C288.239 261.954 289.179 260.497 291.271 258.335C294.138 255.351 294.514 255.868 297.028 253.259C298.274 251.967 300.036 249.899 301.799 246.938C301.47 246.021 301.094 245.081 300.694 244.141C299.707 241.862 298.65 239.794 297.592 237.984C295.219 239.488 292.845 241.016 290.448 242.543Z" fill="black"/>
<path d="M241.286 136.347C240.229 137.616 238.302 139.942 238.889 142.457C239.242 143.984 240.37 144.971 241.098 145.512C241.897 145.794 243.049 146.311 244.083 147.321C244.999 148.238 245.61 149.319 246.95 153.572C247.796 156.275 248.172 157.661 248.36 158.554C249.699 164.735 257.196 187.765 260.157 195.919C266.455 213.333 276.489 230.605 284.973 243.601C286.524 243.507 288.404 243.225 290.448 242.52C296.041 240.569 299.284 236.598 300.671 234.671C299.496 232.18 297.804 228.561 295.83 224.166C286.947 204.215 281.612 188.517 277.688 176.884C270.121 154.489 266.267 139.801 265.421 136.464C264.434 132.634 263.682 129.438 263.141 127.182C260.697 127.605 246.527 130.049 241.286 136.347Z" fill="white"/>
<path opacity="0.15" d="M258.512 131.553C259.381 135.125 260.697 140.436 262.436 146.828C264.692 155.124 270.896 177.308 281.824 205.79C285.255 214.696 289.908 226.258 295.9 239.583C297.498 238.032 299.12 236.481 300.718 234.93C299.167 231.358 296.958 226.164 294.349 219.89C288.404 205.531 283.704 194.204 278.651 179.728C273.669 165.44 270.309 153.761 266.243 139.59C264.363 133.057 262.883 127.605 261.825 123.704C260.744 126.336 259.64 128.945 258.512 131.553Z" fill="#7A7A7A"/>
<path d="M263.635 131.083C270.591 157.943 279.262 184.357 289.602 210.09C292.493 217.304 295.548 224.495 298.697 231.616C298.885 232.039 299.496 231.663 299.308 231.263C288.075 205.93 278.463 179.892 270.544 153.314C268.335 145.888 266.243 138.415 264.316 130.895C264.199 130.472 263.517 130.66 263.635 131.083Z" fill="#212121"/>
<path d="M241.004 145.841C244.012 146.428 245.281 149.648 246.104 152.256C247.208 155.758 248.219 159.283 249.276 162.784C251.462 170.046 253.624 177.307 255.856 184.569C260.016 198.034 265.938 210.748 272.706 223.062C276.536 230.065 280.602 236.927 284.667 243.789C284.902 244.188 285.513 243.836 285.278 243.436C277.899 230.958 270.497 218.456 264.481 205.272C258.159 191.407 254.211 176.696 249.817 162.15C248.642 158.296 247.678 154.301 246.245 150.541C245.328 148.167 243.895 145.676 241.192 145.159C240.746 145.089 240.558 145.77 241.004 145.841Z" fill="#212121"/>
<path d="M285.231 244.141C291.435 243.342 297.122 240.146 300.976 235.211C301.258 234.859 300.765 234.365 300.483 234.718C296.77 239.512 291.271 242.684 285.231 243.46C284.785 243.483 284.785 244.188 285.231 244.141Z" fill="#212121"/>
<path d="M298.65 231.616C299.308 232.65 299.872 233.754 300.365 234.882C300.553 235.305 301.164 234.929 300.976 234.53C300.483 233.402 299.919 232.321 299.261 231.263C299.026 230.887 298.415 231.24 298.65 231.616Z" fill="#212121"/>
<path d="M290.143 242.708C290.848 243.648 291.553 244.565 292.258 245.505C292.822 246.233 293.127 246.492 292.728 247.596C292.563 248.066 292.211 248.513 291.952 248.959C290.895 250.745 289.696 252.461 288.498 254.153C286.195 257.466 283.892 260.803 282.505 264.634C282.411 264.869 282.646 265.057 282.834 265.08C284.714 265.221 286.124 263.6 287.393 262.448C289.109 260.874 290.801 259.299 292.446 257.654C295.759 254.388 298.932 251.004 301.963 247.502C302.269 247.15 301.752 246.656 301.47 247.009C298.72 250.181 295.853 253.283 292.869 256.244C291.435 257.678 289.978 259.088 288.498 260.474C287.746 261.156 287.017 261.861 286.242 262.542C285.255 263.435 284.244 264.516 282.834 264.399C282.952 264.54 283.069 264.704 283.163 264.845C284.738 260.451 287.581 256.738 290.19 252.931C291.318 251.286 292.775 249.476 293.48 247.573C293.785 246.75 293.574 246.21 293.08 245.505C292.328 244.447 291.506 243.413 290.707 242.356C290.495 242.003 289.884 242.356 290.143 242.708Z" fill="#212121"/>
<path d="M297.287 238.15C298.932 240.993 300.342 243.954 301.47 247.033C301.634 247.456 302.316 247.268 302.151 246.845C301 243.696 299.59 240.688 297.898 237.797C297.663 237.398 297.052 237.774 297.287 238.15Z" fill="#212121"/>
<path d="M241.286 75.7644C237.338 78.6549 235.74 82.3209 234.095 86.0339C231.581 91.6974 231.228 96.3974 230.641 104.951C230.523 106.784 230.335 109.557 230.382 122.835C230.406 128.357 230.429 132.94 230.453 136.112C232.497 136.864 234.8 137.522 237.362 137.898C249.934 139.755 260.251 133.997 264.575 131.201C263.917 127.464 263.259 123.704 262.601 119.968C262.812 114.116 263.541 109.463 264.152 106.338C265.256 100.792 266.361 98.1599 267.536 91.1569C268.899 82.9084 268.311 80.8169 267.536 79.3129C265.562 75.4354 261.567 73.9314 259.64 73.2029C253.671 70.9234 246.503 71.9339 241.286 75.7644Z" fill="#ED6A5A"/>
<path d="M267.207 80.5346C265.679 81.0751 264.739 82.2031 263.87 83.5191C261.708 86.7856 260.862 89.8876 260.533 91.1096C258.888 97.0551 258.089 100.04 256.702 102.86C255.574 105.186 253.859 108.641 250.24 111.461C248.125 113.129 246.268 113.834 242.555 115.268C239.618 116.396 236.586 117.547 232.474 117.853C229.607 118.064 227.21 117.806 225.565 117.524C222.063 116.678 219.69 115.385 218.092 114.281C216.823 113.388 215.154 112.001 213.439 112.448C213.204 112.518 212.358 112.753 212.193 113.341C211.982 114.14 213.063 115.103 214.191 116.114C214.778 116.631 215.295 117.03 215.648 117.265C213.439 118.276 211.606 119.239 210.243 119.968C205.637 122.459 203.78 123.986 203.075 124.597C202.582 124.997 201.266 125.42 201.054 126.477C200.96 126.947 201.078 127.582 201.454 127.793C201.853 128.028 202.347 127.676 203.71 127.018C204.485 126.642 205.143 126.383 205.59 126.195C206.342 126.548 207.211 126.9 208.175 127.182C210.478 127.84 212.522 127.911 214.026 127.84C213.133 128.569 212.358 129.133 211.841 129.509C210.384 130.566 209.679 130.919 209.608 131.624C209.561 132.07 209.749 132.587 210.125 132.822C210.83 133.269 212.005 132.587 212.687 132.188C214.543 131.13 216.658 130.566 218.562 129.556C220.136 128.71 222.416 127.511 225.353 126.125C230.523 125.396 234.401 124.856 236.375 124.574C238.96 124.221 244.764 123.399 251.861 121.824C254.564 121.213 256.749 120.673 259.217 119.169C259.757 118.84 262.037 117.43 264.293 114.774C266.455 112.236 267.465 109.91 268.687 107.019C270.05 103.847 270.685 101.332 271.319 98.9586C272.33 95.1046 272.659 92.4961 272.753 91.6971C272.988 89.8171 273.199 87.2086 272.612 84.1301C272.189 81.8976 271.672 81.1456 270.99 80.6991C269.51 79.6886 267.559 80.3936 267.207 80.5346Z" fill="white"/>
<path opacity="0.14" d="M270.99 80.6992C270.732 83.1667 270.262 86.6212 269.369 90.6867C268.1 96.5147 267.042 101.238 264.716 105.398C259.663 114.328 250.099 117.853 246.456 119.192C242.344 120.72 236.304 121.801 224.249 123.963C224.249 123.963 223.262 124.151 214.026 127.84C213.533 128.028 211.559 128.851 210.337 130.801C210.149 131.107 209.42 132.235 209.796 132.681C210.219 133.198 211.864 132.564 212.71 132.211C216.47 130.66 221.664 128.075 225.377 126.148C229.466 125.561 232.803 125.114 235.059 124.809C247.396 123.187 250.968 122.999 256.044 120.673C258.206 119.686 260.627 118.558 263.094 116.161C266.102 113.27 267.324 110.309 269.134 105.962C271.085 101.262 271.695 97.8307 272.588 92.8487C273.129 89.7702 273.34 87.6082 272.729 85.0467C272.306 83.1197 271.578 81.6627 270.99 80.6992Z" fill="#7A7A7A"/>
<path d="M216.024 116.842C215.413 116.489 214.825 116.137 214.261 115.714C213.956 115.479 213.65 115.244 213.368 114.985C212.804 114.468 212.828 114.609 212.922 113.74C212.945 113.481 212.969 113.223 213.016 112.988C213.486 112.753 213.979 112.729 214.473 112.894C214.802 112.988 215.131 113.152 215.46 113.293C216.141 113.622 216.799 113.975 217.457 114.327C219.69 115.526 221.922 116.818 224.366 117.57C229.513 119.121 234.965 118.111 239.97 116.536C244.623 115.056 249.417 113.293 252.801 109.627C255.833 106.361 257.595 102.154 258.935 97.9479C260.345 93.5534 261.026 88.7124 263.47 84.7409C264.692 82.7199 267.536 79.3594 270.262 80.6754C272.729 81.8739 272.635 86.2449 272.612 88.5244C272.565 93.9764 271.037 99.4754 269.251 104.598C267.7 109.016 265.585 113.434 262.107 116.63C257.619 120.766 251.462 121.612 245.704 122.646C238.96 123.845 232.215 124.996 225.4 125.772C224.954 125.819 224.954 126.524 225.4 126.477C231.816 125.725 238.184 124.667 244.529 123.563C250.099 122.576 256.209 121.941 260.909 118.51C264.833 115.667 267.324 111.39 269.11 106.972C271.225 101.708 272.87 95.9504 273.27 90.2634C273.505 86.8089 273.411 77.7144 267.512 80.0409C262.953 81.8269 261.167 87.6079 259.969 91.8849C258.606 96.8434 257.29 101.919 254.493 106.29C252.989 108.617 251.086 110.638 248.712 112.095C246.104 113.716 243.119 114.774 240.205 115.714C236.821 116.818 233.296 117.664 229.701 117.641C226.011 117.617 222.815 116.395 219.596 114.68C218.209 113.928 216.846 113.105 215.389 112.494C214.402 112.071 213.204 111.789 212.311 112.588C210.219 114.468 214.355 116.748 215.624 117.453C216.047 117.688 216.4 117.077 216.024 116.842Z" fill="#212121"/>
<path d="M215.46 116.959C212.593 118.252 209.82 119.709 207.164 121.377C205.825 122.2 204.532 123.093 203.263 124.009C202.441 124.597 201.172 125.278 200.749 126.265C200.514 126.806 200.584 127.534 201.078 127.934C201.9 128.568 202.981 127.769 203.71 127.393C206.6 125.866 209.538 124.432 212.522 123.14C212.945 122.952 212.569 122.341 212.17 122.529C209.937 123.516 207.705 124.55 205.519 125.654C204.509 126.171 203.381 127.064 202.276 127.323C201.736 127.464 201.36 127.323 201.407 126.735C201.43 126.336 201.642 126.124 201.947 125.866C202.464 125.396 203.052 125.02 203.616 124.597C207.423 121.824 211.512 119.474 215.812 117.547C216.235 117.382 215.883 116.771 215.46 116.959Z" fill="#212121"/>
<path d="M205.496 126.524C208.386 127.088 211.277 126.736 213.932 125.467C214.332 125.279 213.979 124.668 213.58 124.856C211.089 126.031 208.386 126.36 205.684 125.843C205.237 125.772 205.049 126.43 205.496 126.524Z" fill="#212121"/>
<path d="M207.07 126.9C209.068 128.24 211.441 128.639 213.791 128.075C214.238 127.958 214.05 127.276 213.603 127.394C211.441 127.934 209.279 127.535 207.423 126.289C207.047 126.054 206.694 126.665 207.07 126.9Z" fill="#212121"/>
<path d="M213.862 127.511C212.898 128.192 211.982 128.921 211.065 129.673C210.431 130.213 209.467 130.801 209.232 131.647C209.091 132.187 209.232 132.728 209.726 133.01C210.407 133.409 211.418 132.963 212.076 132.751C216.87 131.2 221.311 128.498 225.776 126.171C226.176 125.96 225.823 125.349 225.424 125.56C222.204 127.252 219.008 129.015 215.718 130.542C214.849 130.942 213.979 131.318 213.086 131.647C212.452 131.882 211.3 132.469 210.619 132.422C208.95 132.281 211.371 130.307 211.723 130.025C212.522 129.367 213.368 128.733 214.214 128.098C214.567 127.863 214.214 127.252 213.862 127.511Z" fill="#212121"/>
<path d="M245.563 39.9975C243.66 40.8905 242.344 42.5355 241.145 44.016C240.534 44.768 238.819 47.0005 237.714 50.408C237.385 51.442 235.693 56.847 237.526 63.0745C238.466 66.247 239.829 67.9155 240.135 68.2915C241.38 69.7955 242.743 70.6885 243.66 71.2055C244.224 71.2525 244.882 71.2525 245.563 71.2055C246.832 71.1115 247.913 70.8765 248.783 70.618C249.112 71.417 249.558 72.31 250.146 73.2735C250.968 74.613 251.838 75.647 252.613 76.446C253.788 75.835 255.339 74.895 257.008 73.485C258.347 72.3335 261.214 69.8425 263.141 65.5185C263.799 64.038 265.444 59.8315 264.786 54.3795C264.598 52.899 264.316 50.549 262.953 48.058C259.522 41.854 250.968 37.483 245.563 39.9975Z" fill="white"/>
<path opacity="0.12" d="M252.59 46.2253C253.201 47.5648 254 49.7973 254.117 52.6643C254.235 55.8603 253.436 58.2338 252.989 59.5028C250.757 65.8713 245.775 69.7253 243.636 71.2058C244.482 71.2998 245.61 71.3468 246.926 71.1588C248.665 70.9003 250.028 70.2893 250.898 69.8193C251.626 71.2528 252.355 72.6863 253.083 74.0963C253.06 74.7778 253.13 75.6238 253.342 76.5403C253.835 78.6788 254.916 80.1593 255.621 80.9583C255.551 79.6658 255.527 77.8093 255.856 75.6238C256.044 74.4018 256.702 70.5008 259.217 66.0358C261.073 62.7223 261.849 62.8163 263.188 59.7143C264.692 56.2363 264.622 54.0273 264.575 53.3693C264.528 52.4058 264.387 50.2438 263.118 48.5518C261.214 45.9198 256.984 45.0503 252.59 46.2253Z" fill="#7A7A7A"/>
<path d="M237.244 51.9589C237.291 51.7474 237.973 49.0919 239.124 47.0239C241.286 43.2169 245.352 41.2429 246.691 40.6319C247.067 42.2064 248.125 45.6139 251.133 48.7864C254.282 52.0999 257.807 53.2984 259.381 53.7214C259.663 53.4864 260.533 52.8049 261.543 52.9929C263 53.2749 263.635 55.2019 263.658 56.4709C263.658 56.8704 263.635 58.1159 262.671 59.1969C261.379 60.6304 259.569 60.5129 259.334 60.4894C258.159 61.7819 256.561 63.8264 255.292 66.6464C253.882 69.7954 252.237 73.4849 253.647 77.5034C254.799 80.7464 257.877 84.0129 261.872 84.5299C267.677 85.2819 272.729 79.9004 273.904 75.2474C274.515 72.8269 273.646 72.2629 272.118 63.8734C270.967 57.5284 271.343 57.1994 270.262 52.1704C268.852 45.6139 268.1 42.3004 265.914 40.1384C262.93 37.2244 259.029 36.8719 254.94 36.5194C250.122 36.0964 243.824 35.5324 239.453 39.9034C236.915 42.4414 235.247 46.4364 235.576 50.4784C235.74 52.3584 236.281 53.8624 236.751 54.8494C236.798 54.1444 236.939 53.1339 237.244 51.9589Z" fill="#5B399B"/>
<path d="M239.359 67.2103C238.56 67.2338 237.268 71.2288 238.231 75.2473C238.631 76.8688 239.406 80.1588 242.391 81.4748C245.14 82.6733 249.135 81.9213 250.686 79.1483C251.72 77.2683 251.227 75.2473 251.062 74.6128C250.31 73.2733 249.535 71.9573 248.783 70.6178C248.266 70.8058 247.655 71.0173 246.95 71.1348C245.469 71.4168 244.177 71.3463 243.237 71.2053C242.72 70.9468 241.991 70.5238 241.31 69.8423C239.876 68.4558 239.806 67.1868 239.359 67.2103Z" fill="#5B399B"/>
<path d="M240.887 43.7572C237.62 47.8932 235.975 53.1572 236.328 58.4212C236.657 63.3327 238.701 68.9962 243.307 71.3932C243.707 71.6047 244.059 70.9937 243.66 70.7822C239.171 68.4322 237.244 62.8392 237.009 58.0452C236.774 53.0867 238.302 48.1282 241.404 44.2272C241.662 43.9217 241.169 43.4047 240.887 43.7572Z" fill="#212121"/>
<path d="M243.66 71.5584C248.219 71.8168 252.66 70.0074 255.786 66.6704C256.092 66.3414 255.598 65.8479 255.293 66.1769C252.308 69.3964 248.054 71.1119 243.683 70.8534C243.19 70.8299 243.213 71.5349 243.66 71.5584Z" fill="#212121"/>
<path d="M248.618 71.1821C249.37 72.7801 250.31 74.2606 251.438 75.6236C251.72 75.9761 252.214 75.4826 251.932 75.1301C250.827 73.8141 249.934 72.3806 249.229 70.8296C249.018 70.4066 248.43 70.7591 248.618 71.1821Z" fill="#212121"/>
<path d="M259.569 54.05C260.251 53.5565 261.167 53.157 262.013 53.4625C263.141 53.862 263.353 55.225 263.329 56.2355C263.282 58.3505 261.778 60.536 259.428 60.1835C258.982 60.113 258.794 60.7945 259.24 60.865C262.201 61.3115 264.128 58.609 264.011 55.8595C263.964 54.755 263.611 53.486 262.554 52.9455C261.449 52.358 260.133 52.781 259.193 53.4625C258.841 53.6975 259.193 54.3085 259.569 54.05Z" fill="#212121"/>
<path d="M241.756 49.2333C240.981 53.9803 240.417 58.7508 240.017 63.5448C239.994 63.8973 240.511 64.0148 240.675 63.7328C241.474 62.3228 242.273 60.8893 243.072 59.4793C243.284 59.0798 242.696 58.7273 242.461 59.1268C241.662 60.5368 240.863 61.9703 240.064 63.3803C240.276 63.4508 240.511 63.4978 240.722 63.5683C241.098 58.8448 241.662 54.1448 242.438 49.4448C242.508 48.9748 241.827 48.7868 241.756 49.2333Z" fill="#212121"/>
<path d="M241.427 65.5656C243.871 66.6701 246.292 65.4246 247.608 63.2626C247.843 62.8631 247.232 62.5106 246.997 62.9101C245.916 64.7196 243.871 65.9181 241.78 64.9546C241.357 64.7666 241.004 65.3776 241.427 65.5656Z" fill="#212121"/>
<path d="M246.644 62.7686C247.044 62.8391 247.396 63.0271 247.631 63.3796C247.89 63.7556 248.501 63.4031 248.242 63.0271C247.913 62.5336 247.42 62.1811 246.832 62.0871C246.386 62.0166 246.198 62.6981 246.644 62.7686Z" fill="#212121"/>
<path d="M239.336 55.3668C239.531 55.3668 239.688 54.6618 239.688 53.7923C239.688 52.9227 239.531 52.2178 239.336 52.2178C239.141 52.2178 238.983 52.9227 238.983 53.7923C238.983 54.6618 239.141 55.3668 239.336 55.3668Z" fill="#212121"/>
<path d="M245.916 54.6617C246.111 54.6617 246.268 53.9568 246.268 53.0872C246.268 52.2176 246.111 51.5127 245.916 51.5127C245.721 51.5127 245.563 52.2176 245.563 53.0872C245.563 53.9568 245.721 54.6617 245.916 54.6617Z" fill="#212121"/>
<path d="M238.184 49.9853C238.49 49.3038 239.359 48.4108 240.088 49.1863C240.393 49.5153 240.887 49.0218 240.581 48.6928C239.547 47.5648 238.09 48.5283 237.573 49.6328C237.385 50.0558 237.996 50.4083 238.184 49.9853Z" fill="#212121"/>
<path d="M244.858 48.6453C245.258 47.4468 246.644 47.7993 247.326 48.4808C247.631 48.8098 248.148 48.3163 247.819 47.9873C246.738 46.8828 244.717 46.7418 244.177 48.4573C244.036 48.9038 244.717 49.0918 244.858 48.6453Z" fill="#212121"/>
<path d="M247.138 57.1054C247.584 57.1054 247.584 56.4004 247.138 56.4004C246.691 56.4004 246.691 57.1054 247.138 57.1054Z" fill="#212121"/>
<path d="M249.488 56.2128C249.934 56.2128 249.934 55.5078 249.488 55.5078C249.018 55.5078 249.018 56.2128 249.488 56.2128Z" fill="#212121"/>
<path d="M248.971 57.9745C249.417 57.9745 249.417 57.2695 248.971 57.2695C248.501 57.2695 248.501 57.9745 248.971 57.9745Z" fill="#212121"/>
</svg>
