<svg viewBox="0 0 413 308" fill="none" xmlns="http://www.w3.org/2000/svg">
<path d="M122.723 278.406C119.581 275.224 116.877 271.682 114.663 267.806C112.474 263.956 109.899 259.182 110.414 254.613C110.285 254.742 110.157 254.87 110.028 254.998C110.131 255.05 110.234 255.075 110.337 255.127C110.62 255.537 111.29 255.152 111.006 254.742C110.749 254.357 110.491 254.203 110.028 254.228C109.796 254.228 109.667 254.408 109.642 254.613C109.127 259.182 111.624 263.93 113.787 267.806C116.053 271.887 118.886 275.634 122.182 278.945C122.517 279.305 123.057 278.766 122.723 278.406Z" fill="#E8E8E8"/>
<path d="M114.354 260.029C110.157 253.818 107.144 246.708 105.908 239.29C105.728 238.238 105.625 237.186 105.753 236.133C105.779 235.851 105.831 235.594 105.882 235.312C105.856 234.901 106.037 234.747 106.449 234.876C107.195 234.824 107.504 235.62 107.916 236.159C109.024 237.622 110.079 239.136 111.109 240.676C113.221 243.885 115.075 247.247 116.723 250.712C116.929 251.148 117.598 250.763 117.392 250.327C115.435 246.169 113.144 242.165 110.491 238.392C109.796 237.391 109.075 236.39 108.328 235.415C107.891 234.85 107.453 234.106 106.758 233.849C105.393 233.361 105.11 235.107 104.981 236.056C104.749 238.135 105.29 240.317 105.753 242.319C106.268 244.501 106.912 246.657 107.71 248.761C109.23 252.868 111.264 256.769 113.71 260.388C113.942 260.85 114.611 260.465 114.354 260.029Z" fill="#E8E8E8"/>
<path d="M128.027 273.607C122.8 265.855 117.521 257.385 117.367 247.76C117.161 247.863 116.98 247.991 116.774 248.094C117.676 248.659 118.371 249.352 118.963 250.25C119.195 250.609 119.813 250.378 119.658 249.942C118.525 246.682 117.47 243.371 116.517 240.035C116.053 238.443 115.641 236.852 115.229 235.261C114.843 233.721 113.968 231.513 115.255 230.179C115.075 230.179 114.895 230.179 114.714 230.179C117.65 233.926 119.53 238.289 121.409 242.627C123.469 247.427 125.555 252.252 127.615 257.052C127.795 257.437 128.491 257.154 128.31 256.744C128.053 256.307 128.13 255.871 128.542 255.409C128.336 255.383 128.13 255.358 127.924 255.332C131.169 259.695 133.744 264.521 135.495 269.68C135.649 270.142 136.396 269.936 136.241 269.474C134.439 264.264 131.89 259.362 128.594 254.947C128.439 254.767 128.182 254.665 127.976 254.87C127.409 255.46 127.229 256.179 127.538 256.949C127.77 256.846 128.001 256.744 128.233 256.641C126.096 251.687 123.984 246.759 121.847 241.806C120.019 237.545 118.088 233.31 115.204 229.614C115.075 229.46 114.792 229.486 114.663 229.614C113.787 230.538 113.684 231.667 113.839 232.874C114.096 234.696 114.689 236.544 115.178 238.315C116.259 242.293 117.495 246.22 118.86 250.122C119.092 250.019 119.324 249.916 119.555 249.814C118.912 248.813 118.113 248.017 117.083 247.375C116.826 247.221 116.491 247.427 116.491 247.709C116.646 257.488 121.924 266.086 127.255 273.94C127.641 274.402 128.31 274.017 128.027 273.607Z" fill="#E8E8E8"/>
<path d="M139.743 269.885C138.713 267.831 137.889 265.701 137.271 263.494C136.988 262.441 136.731 261.389 136.55 260.311C136.447 259.746 136.344 259.156 136.293 258.566C136.241 258.258 136.216 257.95 136.19 257.642C136.061 257.18 136.267 257.128 136.834 257.488C137.683 257.667 137.786 258.052 138.224 258.745C138.456 259.13 138.662 259.515 138.894 259.9C139.434 260.901 139.924 261.954 140.361 263.032C141.16 264.957 141.829 266.933 142.499 268.909C142.653 269.371 143.4 269.166 143.245 268.704C142.344 266.009 141.417 263.288 140.155 260.722C139.563 259.49 138.894 258.206 138.044 257.103C137.606 256.512 136.962 255.948 136.164 256.204C135.469 256.435 135.366 257.026 135.392 257.667C135.443 259.079 135.752 260.516 136.061 261.902C136.705 264.803 137.735 267.626 139.074 270.295C139.28 270.732 139.949 270.347 139.743 269.885Z" fill="#E8E8E8"/>
<path d="M145.202 268.704C142.473 260.927 141.572 252.611 141.314 244.397C141.263 242.395 141.288 240.368 141.52 238.366C141.572 237.929 141.52 236.928 141.829 236.595C141.932 236.466 142.808 236.081 143.039 236.21C143.168 236.287 143.245 236.723 143.297 236.851C143.606 237.852 143.812 238.93 144.044 239.957C145.048 244.141 146.001 248.35 146.928 252.559C148.009 257.436 149.039 262.287 150.018 267.189C150.121 267.677 150.867 267.472 150.764 266.984C148.756 256.974 146.644 246.964 144.147 237.057C143.915 236.133 143.323 234.593 142.035 235.106C140.696 235.645 140.773 237.955 140.67 239.084C140.207 243.884 140.773 248.735 141.211 253.509C141.675 258.771 142.679 263.904 144.456 268.909C144.636 269.371 145.383 269.166 145.202 268.704Z" fill="#E8E8E8"/>
<path d="M278.845 286.747C276.965 282.718 275.858 278.38 275.677 273.94C275.574 271.758 275.677 269.576 276.012 267.42C276.141 266.548 276.192 265.162 276.63 264.392C277.222 263.339 277.634 264.084 277.943 264.725C278.278 265.393 278.587 266.086 278.87 266.804C279.051 267.266 279.797 267.061 279.617 266.599C279.257 265.726 278.046 261.594 276.45 262.98C275.677 263.647 275.626 265.213 275.446 266.111C275.188 267.523 275.008 268.935 274.931 270.372C274.596 276.121 275.729 281.896 278.175 287.107C278.381 287.569 279.051 287.184 278.845 286.747Z" fill="#E8E8E8"/>
<path d="M280.853 273.068C280.544 268.165 280.673 263.263 281.265 258.386C281.806 253.92 282.604 249.326 285.179 245.527C284.948 245.527 284.742 245.527 284.51 245.527C285.154 246.734 285.488 247.94 285.54 249.326C285.54 249.737 286.235 249.865 286.287 249.429C287.007 244.141 288.656 239.085 291.23 234.414C291.076 234.465 290.947 234.542 290.793 234.593C292.621 235.03 292.286 238.751 292.338 240.137C292.415 242.139 292.415 244.167 292.338 246.195C292.209 250.327 291.874 254.459 291.591 258.592C291.024 266.933 290.458 275.275 289.891 283.617C289.866 284.104 290.638 284.104 290.664 283.617C291.282 274.428 291.926 265.239 292.544 256.025C292.853 251.482 293.187 246.939 293.162 242.396C293.136 240.445 293.162 238.392 292.853 236.441C292.672 235.312 292.235 234.131 290.999 233.849C290.844 233.823 290.638 233.875 290.561 234.029C287.986 238.751 286.286 243.885 285.54 249.223C285.797 249.249 286.055 249.3 286.287 249.326C286.235 247.837 285.875 246.451 285.154 245.142C284.999 244.886 284.639 244.911 284.484 245.142C282.012 248.787 281.162 253.125 280.596 257.411C279.901 262.596 279.746 267.857 280.081 273.093C280.132 273.581 280.905 273.581 280.853 273.068Z" fill="#E8E8E8"/>
<path d="M291.591 265.983C291.9 264.879 292.338 263.827 292.956 262.852C293.342 262.21 293.574 261.62 294.372 261.62C294.938 261.44 295.247 261.722 295.273 262.415C295.325 262.8 295.376 263.185 295.402 263.596C295.582 265.778 295.634 268.011 295.608 270.192C295.531 274.812 295.016 279.407 294.063 283.95C293.96 284.437 294.707 284.643 294.81 284.155C296.097 278.046 296.612 271.784 296.303 265.547C296.226 264.212 296.535 260.567 294.346 260.567C293.496 260.567 292.956 261.466 292.544 262.082C291.771 263.211 291.231 264.469 290.87 265.752C290.716 266.24 291.436 266.445 291.591 265.983Z" fill="#E8E8E8"/>
<path d="M280.235 105.747C284.587 100.28 292.183 97.8416 298.956 99.4842C302.767 100.408 305.522 102.872 308.766 104.926C312.011 107.005 315.539 107.621 319.324 106.825C327.615 105.028 334.542 97.1229 343.452 98.2266C347.366 98.7142 350.713 101.05 354.164 102.77C357.434 104.412 360.756 105.388 364.438 104.874C369.253 104.207 373.502 101.717 378.111 100.331C382.308 99.0736 387.278 98.5602 390.935 101.461C391.321 101.769 391.862 101.23 391.475 100.922C384.986 95.7882 376.618 100.152 370 102.59C365.545 104.233 361.142 104.926 356.636 103.103C353.082 101.64 349.941 99.3046 346.258 98.0982C337.529 95.2492 330.345 101.897 322.749 104.951C318.294 106.748 313.71 107.082 309.487 104.515C306.269 102.539 303.539 100.023 299.831 98.9452C292.647 96.8919 284.355 99.3559 279.669 105.208C279.36 105.593 279.926 106.132 280.235 105.747Z" fill="#E8E8E8"/>
<path d="M281.729 87.292C285.282 84.366 290.252 83.442 294.63 84.8794C298.981 86.291 301.84 90.3207 306.166 91.8351C310.517 93.3751 315.436 92.5024 319.762 91.2704C322.028 90.6031 324.242 89.7561 326.379 88.7294C328.568 87.677 330.602 86.3167 332.843 85.3414C337.761 83.1854 343.426 84.058 347.185 88.0107C347.52 88.37 348.087 87.831 347.726 87.4717C344.842 84.443 340.568 82.903 336.396 83.4677C334.207 83.7757 332.199 84.6997 330.293 85.752C327.847 87.061 325.478 88.4214 322.877 89.3967C317.985 91.2704 311.985 92.8617 306.809 91.2191C302.097 89.7304 299.11 85.29 294.295 83.9554C289.763 82.6977 284.819 83.7757 281.188 86.7274C280.802 87.061 281.343 87.6 281.729 87.292Z" fill="#E8E8E8"/>
<path d="M36.3056 115.192C36.5373 111.393 40.0136 109.006 43.4641 108.287C47.7128 107.389 51.8071 109.211 55.4121 111.316C59.1458 113.498 62.6478 115.936 66.6906 117.502C70.7076 119.042 75.0593 119.914 79.3853 119.581C83.4023 119.273 87.0588 117.835 90.3806 115.602C93.7281 113.369 96.7151 110.623 100.346 108.801C109.873 104.027 118.731 110.803 127.074 114.781C131.04 116.68 135.314 118.041 139.743 117.425C143.451 116.911 146.979 115.089 148.833 111.727C149.065 111.29 148.395 110.905 148.164 111.342C146.207 114.884 142.267 116.578 138.327 116.783C133.744 117.014 129.443 115.166 125.478 113.087C117.804 109.109 109.436 103.77 100.655 107.774C96.9726 109.442 93.9341 112.189 90.6638 114.473C86.9558 117.065 82.9131 118.708 78.3553 118.862C73.6173 119.016 68.9051 117.784 64.6306 115.756C60.5621 113.831 57.0343 111.034 52.9658 109.109C49.3351 107.389 45.3953 106.593 41.5328 108.031C38.3656 109.211 35.7391 111.675 35.5331 115.192C35.5073 115.705 36.2798 115.705 36.3056 115.192Z" fill="#E8E8E8"/>
<path d="M89.222 100.254C92.209 96.635 96.3805 93.401 101.222 92.9903C105.676 92.631 109.256 95.2233 112.629 97.7387C115.77 100.074 119.092 102.359 123.186 102.384C128.079 102.41 132.405 99.7663 136.164 96.9173C140.233 93.8373 145.486 88.55 151.099 90.6546C151.563 90.8343 151.769 90.09 151.305 89.9103C146.851 88.2676 142.473 91.091 139.074 93.709C134.722 97.0457 130.216 100.998 124.5 101.537C115.255 102.436 110.414 91.476 101.196 92.1946C96.1487 92.6053 91.7712 95.8906 88.6555 99.6637C88.3465 100.1 88.913 100.639 89.222 100.254Z" fill="#E8E8E8"/>
<path d="M45.4212 192.269C47.3525 190.215 50.3395 190.267 52.863 191.114C55.5667 192.038 57.7812 194.014 60.1502 195.503C64.7595 198.352 69.8065 198.377 74.7505 196.324C79.849 194.194 83.7115 190.369 88.1405 187.212C90.355 185.647 92.7755 184.209 95.4535 183.67C98.2087 183.106 100.938 183.645 103.462 184.774C108.328 186.981 112.423 190.857 117.907 191.473C118.397 191.524 118.397 190.754 117.907 190.703C112.603 190.113 108.534 186.263 103.848 184.107C99.1615 181.976 94.5265 182.438 90.1232 185.005C85.2307 187.88 81.3682 192.192 76.2955 194.784C73.669 196.119 70.7335 197.094 67.7465 197.094C64.4762 197.094 61.7467 195.708 59.1202 193.911C56.674 192.243 54.2792 190.446 51.2922 189.959C48.949 189.574 46.5285 189.984 44.8805 191.755C44.5457 192.063 45.0865 192.628 45.4212 192.269Z" fill="#E8E8E8"/>
<path d="M282.218 182.104C283.634 184.055 286.029 184.697 288.346 184.337C291.617 183.824 294.089 181.36 296.612 179.461C302.097 175.303 309.204 172.659 315.564 176.535C320.148 179.332 323.624 184.132 329.006 185.518C335.237 187.109 341.031 183.259 346.129 180.256C349.477 178.28 352.902 176.586 356.713 175.713C360.858 174.764 365.159 174.738 369.304 175.559C369.794 175.662 370 174.918 369.51 174.815C363.047 173.532 356.275 174.276 350.327 177.099C344.584 179.794 339.177 184.825 332.585 185.107C326.482 185.39 322.439 180.616 317.985 177.253C315.822 175.636 313.453 174.276 310.723 173.891C307.813 173.48 304.878 174.096 302.2 175.251C298.646 176.766 295.891 179.23 292.775 181.463C290.02 183.413 285.334 185.133 282.862 181.719C282.604 181.309 281.935 181.694 282.218 182.104Z" fill="#E8E8E8"/>
<path d="M111.032 73.2013C112.795 73.2013 114.225 71.7763 114.225 70.0186C114.225 68.2609 112.795 66.8359 111.032 66.8359C109.269 66.8359 107.839 68.2609 107.839 70.0186C107.839 71.7763 109.269 73.2013 111.032 73.2013Z" fill="#ED6A5A"/>
<path d="M283.248 130.952C285.069 130.952 286.544 129.481 286.544 127.666C286.544 125.852 285.069 124.381 283.248 124.381C281.428 124.381 279.952 125.852 279.952 127.666C279.952 129.481 281.428 130.952 283.248 130.952Z" fill="#FFBD00"/>
<path d="M127.976 164.138C129.583 164.138 130.885 162.84 130.885 161.238C130.885 159.636 129.583 158.338 127.976 158.338C126.369 158.338 125.066 159.636 125.066 161.238C125.066 162.84 126.369 164.138 127.976 164.138Z" fill="#FFBD00"/>
<path d="M133.409 155.848C134.788 155.848 135.906 154.733 135.906 153.358C135.906 151.983 134.788 150.868 133.409 150.868C132.029 150.868 130.911 151.983 130.911 153.358C130.911 154.733 132.029 155.848 133.409 155.848Z" fill="#2CA58D"/>
<path d="M85.6168 211.622C86.1856 211.622 86.6468 211.162 86.6468 210.595C86.6468 210.028 86.1856 209.568 85.6168 209.568C85.0479 209.568 84.5868 210.028 84.5868 210.595C84.5868 211.162 85.0479 211.622 85.6168 211.622Z" fill="#ED6A5A"/>
<path d="M95.7624 214.188C96.7579 214.188 97.5649 213.384 97.5649 212.391C97.5649 211.399 96.7579 210.595 95.7624 210.595C94.7669 210.595 93.9599 211.399 93.9599 212.391C93.9599 213.384 94.7669 214.188 95.7624 214.188Z" fill="#ED6A5A"/>
<path d="M279.36 32.4168C280.512 32.4168 281.446 31.486 281.446 30.3378C281.446 29.1896 280.512 28.2588 279.36 28.2588C278.208 28.2588 277.274 29.1896 277.274 30.3378C277.274 31.486 278.208 32.4168 279.36 32.4168Z" fill="#2CA58D"/>
<path d="M73.2567 130.951C74.1669 130.951 74.9047 130.216 74.9047 129.309C74.9047 128.401 74.1669 127.666 73.2567 127.666C72.3465 127.666 71.6087 128.401 71.6087 129.309C71.6087 130.216 72.3465 130.951 73.2567 130.951Z" fill="#2CA58D"/>
<path d="M324.191 223.017C325.186 223.017 325.993 222.213 325.993 221.221C325.993 220.228 325.186 219.424 324.191 219.424C323.195 219.424 322.388 220.228 322.388 221.221C322.388 222.213 323.195 223.017 324.191 223.017Z" fill="#2CA58D"/>
<path d="M325.092 124.586C325.59 124.586 325.993 124.184 325.993 123.687C325.993 123.191 325.59 122.789 325.092 122.789C324.594 122.789 324.191 123.191 324.191 123.687C324.191 124.184 324.594 124.586 325.092 124.586Z" fill="#2CA58D"/>
<path d="M310.775 57.6733C311.007 57.2883 311.367 56.6466 311.831 56.4669C313.247 55.8766 312.835 56.6979 313.299 57.1086C313.633 57.3909 313.839 57.6476 314.329 57.6989C315.668 57.8273 316.44 56.4669 317.47 55.9022C318.783 55.2092 319.067 57.5449 320.354 57.7246C321.333 57.8786 322.285 57.2626 323.032 56.6979C324.114 55.8766 325.169 55.0809 326.302 56.4669C326.56 56.8006 326.843 57.2113 327.255 57.3653C328.234 57.6989 328.285 56.7492 328.62 56.1846C329.753 54.2596 332.972 59.5213 334.414 56.7749C334.645 56.3386 333.976 55.9536 333.744 56.3899C332.817 58.1096 329.289 52.9249 327.95 55.6712C327.796 55.9792 327.822 56.5696 327.307 56.4669C327.101 56.4412 326.817 55.8766 326.714 55.7226C326.38 55.3376 326.045 54.9782 325.53 54.8499C324.268 54.5932 323.212 55.6199 322.285 56.2872C321.925 56.5439 321.539 56.7749 321.101 56.8776C320.097 57.0829 320.045 56.7492 319.633 55.9279C319.427 55.5172 319.324 55.2092 318.886 55.0039C317.985 54.5676 316.955 55.2349 316.286 55.8252C315.281 56.7236 314.869 57.1342 313.582 56.0819C313.247 55.7996 313.093 55.5172 312.578 55.4659C311.496 55.3376 310.621 56.4669 310.131 57.2883C309.848 57.7246 310.518 58.1096 310.775 57.6733Z" fill="#5B399B"/>
<path d="M55.1289 236.338C55.2061 235.825 55.7211 235.363 56.2619 235.389C56.6996 235.414 57.0086 235.928 57.2404 236.236C57.4464 236.544 57.6009 236.903 57.9356 237.108C58.6824 237.519 59.1974 236.903 59.6351 236.338C60.0214 235.851 60.4591 235.004 61.0771 234.721C62.2616 234.208 62.6479 235.44 63.2401 236.005C63.7809 236.518 64.7079 236.877 65.3259 236.287C65.6864 235.953 65.6864 235.414 66.0211 235.081C66.6134 234.465 67.7464 234.567 68.2356 235.235C68.6991 235.851 68.7764 236.877 69.7549 236.954C70.6819 237.031 70.9651 236.03 71.4029 235.44C72.9479 233.31 75.1109 235.902 75.9606 237.237C76.2181 237.647 76.8876 237.262 76.6301 236.852C75.8319 235.62 74.9049 234.234 73.3599 233.951C72.1239 233.746 71.2226 234.259 70.5789 235.312C70.3214 235.748 70.1411 236.467 69.2914 235.671C69.0596 235.466 69.0081 235.004 68.8021 234.747C68.5446 234.413 68.2356 234.182 67.8236 234.028C66.9224 233.72 65.7636 234.003 65.2229 234.824C65.1199 234.978 65.0684 235.286 64.9654 235.414C64.2186 236.287 63.7036 235.389 63.2401 234.824C62.8796 234.388 62.5191 233.977 61.9526 233.849C60.7939 233.592 59.9956 234.567 59.3519 235.363C59.2231 235.543 59.0686 235.748 58.9399 235.928C58.4764 236.492 58.1416 236.492 57.9614 235.953C57.7811 235.748 57.7039 235.44 57.5236 235.209C57.2404 234.875 56.9571 234.696 56.5194 234.619C55.5151 234.439 54.5366 235.106 54.3821 236.107C54.3049 236.621 55.0516 236.826 55.1289 236.338Z" fill="#ED6A5A"/>
<path d="M71.0423 231.385C71.377 230.41 72.4843 230.384 73.128 230.975C73.3855 231.231 73.54 231.616 73.9005 231.77C74.4928 232.053 74.8533 231.796 75.2138 231.334C75.6773 230.744 75.9863 229.922 76.9648 230.23C77.5571 230.41 77.8146 231.077 78.3038 231.385C78.8446 231.77 79.4626 231.719 79.9776 231.308C81.0076 230.461 81.5998 229.383 83.1706 229.948C83.9173 230.23 84.3293 231.308 85.1791 231.308C86.0031 231.308 86.2091 230.41 86.6211 229.897C87.4708 228.896 89.3248 229.204 89.7883 230.436C89.9686 230.898 90.7153 230.692 90.5351 230.23C89.8913 228.562 87.5481 227.92 86.2091 229.178C85.7456 229.614 85.5911 230.615 84.7413 230.205C84.2778 229.974 84.0203 229.46 83.5053 229.255C82.4753 228.844 81.2651 228.998 80.4153 229.691C80.2093 229.845 80.0806 230.102 79.9003 230.23C79.3853 230.641 78.8961 230.692 78.3553 230.333C77.9176 230.025 77.7373 229.64 77.1966 229.486C76.0893 229.178 75.4456 229.794 74.7761 230.513C73.9778 231.36 74.055 230.615 73.437 230.128C73.1538 229.897 72.7675 229.768 72.407 229.768C71.4543 229.717 70.656 230.282 70.347 231.18C70.141 231.642 70.8878 231.847 71.0423 231.385Z" fill="#ED6A5A"/>
<path d="M58.8625 169.297C58.8368 168.039 60.8195 169.605 61.1028 169.836C61.4118 170.067 61.7465 170.298 62.1585 170.375C62.9568 170.503 63.6005 170.067 64.167 169.528C64.476 169.246 64.8108 168.707 65.197 168.527C66.1498 168.039 66.33 168.809 66.7678 169.425C67.154 169.964 67.7205 170.247 68.39 170.067C69.111 169.862 69.6518 169.22 70.2183 168.758C70.3728 168.63 70.5788 168.373 70.7848 168.347C71.6088 168.219 71.5315 168.886 71.7118 169.297C71.8405 169.554 71.9693 169.81 72.2525 169.964C73.1538 170.503 73.8748 169.502 74.4928 169.015C75.806 167.937 77.7888 168.322 78.587 169.81C78.8188 170.247 79.4883 169.862 79.2565 169.425C78.69 168.399 77.66 167.731 76.4755 167.654C75.9348 167.603 75.3683 167.68 74.879 167.885C74.3125 168.116 73.9005 168.835 73.3855 169.015C72.098 169.477 72.2268 167.372 70.9393 167.5C69.9608 167.577 69.3428 168.655 68.5703 169.092C67.1798 169.887 67.1798 167.552 65.8408 167.475C64.9138 167.423 64.2958 168.347 63.7035 168.886C63.4975 169.092 63.2658 169.348 62.9825 169.477C62.1328 169.862 61.5405 169.169 60.9225 168.681C60.5363 168.399 60.2015 168.168 59.7123 168.116C58.8883 168.039 58.0385 168.399 58.0643 169.323C58.1158 169.785 58.8883 169.785 58.8625 169.297Z" fill="#5B399B"/>
<path d="M288.81 194.348C289.042 193.989 289.814 194.168 290.123 194.322C290.407 194.451 290.638 194.656 290.922 194.784C291.205 194.913 291.462 195.015 291.771 195.041C292.415 195.067 292.827 194.733 293.188 194.22C293.548 193.706 293.754 193.065 294.475 193.296C294.836 193.398 295.119 193.783 295.428 194.014C295.943 194.374 296.484 194.579 297.102 194.374C297.771 194.143 298.132 193.527 298.698 193.142C299.986 192.243 300.192 193.655 301.222 194.066C301.943 194.348 302.638 193.989 303.282 193.629C304.698 192.834 306.166 192.603 307.479 193.758C307.839 194.091 308.406 193.552 308.02 193.219C307.299 192.603 306.449 192.192 305.496 192.141C304.26 192.089 303.642 192.757 302.561 193.142C300.887 193.758 300.887 191.987 299.522 191.935C298.75 191.91 298.183 192.577 297.668 193.039C297.05 193.604 296.484 193.758 295.763 193.27C295.428 193.039 295.17 192.731 294.784 192.551C294.14 192.269 293.6 192.423 293.11 192.911C292.57 193.475 292.776 193.783 291.823 193.912C290.947 194.04 290.741 193.629 289.995 193.398C289.274 193.167 288.578 193.27 288.141 193.937C287.857 194.374 288.527 194.759 288.81 194.348Z" fill="#5B399B"/>
<path d="M160.807 31.0565L162.815 275.839L267.541 286.645V28.2588L160.807 31.0565Z" fill="white" stroke="black" stroke-width="2" stroke-miterlimit="10"/>
<path d="M162.686 261.056C162.738 265.984 162.764 270.912 162.815 275.84L267.54 286.645C267.669 281.409 267.772 276.199 267.901 270.963C232.829 267.678 197.758 264.367 162.686 261.056Z" fill="white" stroke="black" stroke-width="2" stroke-miterlimit="10"/>
<path d="M210.916 277.2C213.249 277.2 215.139 275.315 215.139 272.991C215.139 270.666 213.249 268.781 210.916 268.781C208.584 268.781 206.693 270.666 206.693 272.991C206.693 275.315 208.584 277.2 210.916 277.2Z" fill="white" stroke="black" stroke-width="2" stroke-miterlimit="10"/>
<path d="M199.432 85.5209C198.067 85.9573 197.603 87.2663 195.827 91.3472C193.483 96.7372 195.08 92.7076 193.2 97.2762C192.325 99.4322 191.14 102.333 189.801 105.823C188.179 108.775 186.248 112.445 184.136 116.706C183.518 117.938 181.638 121.762 179.089 127.255C176.772 132.311 173.836 138.959 170.617 146.916C169.896 147.429 168.866 148.276 167.939 149.559C167.141 150.663 167.244 150.971 166.137 153.076C164.643 155.899 163.974 156.335 164.077 157.619C164.103 157.824 164.257 159.595 165.545 160.083C166.626 160.493 167.733 159.723 167.862 159.621C168.3 159.749 168.738 159.903 169.175 160.031C169.484 159.98 169.922 159.903 170.463 159.852C170.926 159.8 171.673 159.723 172.6 159.723C173.785 159.723 173.965 159.826 174.531 159.672C174.943 159.544 175.51 159.39 175.793 158.902C176.025 158.466 175.793 158.158 175.639 156.797C175.587 156.233 175.51 155.719 175.561 155.052C175.639 154.128 175.845 153.923 175.973 153.05C176.025 152.588 176.076 151.921 175.896 151.048C177.441 148.738 179.578 145.478 182.076 141.526C185.269 136.469 187.509 132.927 190.239 128.076C192.299 124.406 194.951 119.709 197.784 113.215C199.432 109.494 198.505 111.188 201.44 104.001C201.44 104.001 204.35 96.9426 204.891 91.0906C204.942 90.4233 205.019 89.1399 204.376 87.8309C204.221 87.4973 203.912 86.9069 203.294 86.3936C202.264 85.4696 200.642 85.1103 199.432 85.5209Z" fill="white"/>
<path d="M142.318 185.493C142.267 186.827 142.164 188.932 141.829 191.447C140.722 199.609 138.147 205.846 136.293 210.261C135.649 211.801 134.696 213.957 133.383 216.524C133.872 216.755 134.619 217.165 135.34 217.884C135.881 218.423 136.215 218.962 136.447 219.398C137.426 219.424 138.507 219.398 139.666 219.296C141.571 219.142 143.271 218.834 144.739 218.474C145.588 219.655 146.438 220.836 147.288 222.042C147.88 222.838 148.447 223.659 149.039 224.455C151.202 224.48 154.266 224.455 157.923 224.172C161.09 223.941 163.613 223.736 166.497 223.094C169.201 222.478 173.244 221.246 177.827 218.526C177.802 217.653 177.776 216.447 177.776 215.009C177.776 213.906 177.802 210.107 178.291 204.845C178.626 201.303 179.218 196.683 180.325 191.191C179.063 190.472 177.827 189.779 176.566 189.06C176.643 188.932 177.57 187.674 177.209 187.187C176.9 186.776 175.716 186.981 174.3 187.828C173.733 187.52 173.167 187.187 172.574 186.879C172.291 186.006 172.034 185.133 171.75 184.261C170.669 184.389 169.072 184.569 167.115 184.774C163.098 185.21 161.064 185.441 160.395 185.493C157.33 185.672 154.858 185.493 151.562 185.262C149.554 185.133 147.803 184.928 145.176 185.133C143.992 185.236 142.988 185.39 142.318 185.493Z" fill="white"/>
<path d="M198.994 85.3929C194.153 92.0405 192.041 100.049 188.668 107.441C186.84 111.47 184.394 115.192 182.385 119.119C180.274 123.225 178.548 127.512 176.746 131.747C174.609 136.752 172.446 141.731 170.308 146.736C170.102 147.198 170.772 147.583 170.978 147.121C174.686 138.497 178.162 129.719 182.205 121.249C184.136 117.194 186.608 113.421 188.591 109.391C190.342 105.824 191.707 102.102 193.174 98.4058C194.925 93.9912 196.857 89.6279 199.663 85.7779C199.947 85.3929 199.277 85.0079 198.994 85.3929Z" fill="#212121"/>
<path d="M199.535 85.8802C202.213 84.7765 204.324 87.4972 204.53 89.8842C204.736 92.3995 203.809 95.0432 203.14 97.4302C201.827 102.102 200.179 106.67 198.273 111.111C194.462 120.094 189.647 128.615 184.497 136.906C181.587 141.603 178.549 146.197 175.51 150.791C175.227 151.202 175.896 151.587 176.18 151.176C187.896 133.518 199.921 114.961 204.814 94.0678C205.38 91.6808 205.818 88.8062 204.196 86.7015C203.063 85.2385 201.131 84.3658 199.329 85.0845C198.891 85.3412 199.071 86.0855 199.535 85.8802Z" fill="#212121"/>
<path d="M169.562 151.125C170.36 152.126 169.562 153.152 170.051 154.205C170.231 154.59 170.772 155.052 170.849 155.462C170.386 156.643 169.871 156.9 169.278 156.232C169.124 156.078 168.969 155.924 168.815 155.77C168.48 155.411 167.914 155.95 168.274 156.309C168.866 156.925 169.587 157.593 170.514 157.49C171.158 157.439 171.725 157.002 171.828 156.361C172.034 155.103 170.695 154.282 170.695 153.05C170.695 152.023 170.849 151.458 170.154 150.586C169.793 150.201 169.253 150.74 169.562 151.125Z" fill="#212121"/>
<path d="M170.411 146.736C169.253 146.941 168.532 147.788 167.939 148.764C166.909 150.483 166.085 152.357 165.158 154.128C164.54 155.334 163.485 156.772 163.716 158.209C163.897 159.338 164.695 160.134 165.725 160.493C166.188 160.647 166.394 159.903 165.931 159.749C162.764 158.645 165.854 154.487 166.755 152.716C167.579 151.125 168.583 147.865 170.592 147.48C171.107 147.403 170.901 146.659 170.411 146.736Z" fill="#212121"/>
<path d="M175.51 151.381C176.231 152.639 175.175 153.948 175.201 155.257C175.227 156.515 176.488 158.106 175.355 159.158C174.995 159.492 175.536 160.031 175.896 159.697C177.055 158.619 176.411 157.31 176.102 156.001C175.69 154.256 177.132 152.639 176.179 150.971C175.922 150.56 175.252 150.945 175.51 151.381Z" fill="#212121"/>
<path d="M165.467 160.442C167.399 160.878 168.789 159.441 169.768 157.952C170.051 157.542 169.381 157.157 169.098 157.567C168.326 158.722 167.244 160.057 165.673 159.698C165.184 159.595 164.978 160.339 165.467 160.442Z" fill="#212121"/>
<path d="M166.652 158.311C167.296 157.49 168.429 157.259 169.33 157.824C169.768 158.08 170.154 157.413 169.716 157.156C168.558 156.438 166.961 156.694 166.111 157.772C165.802 158.157 166.343 158.696 166.652 158.311Z" fill="#212121"/>
<path d="M167.605 159.877C169.381 161.314 171.184 159.595 172.24 158.183C172.549 157.798 171.879 157.413 171.57 157.798C170.849 158.748 169.484 160.39 168.171 159.338C167.759 159.03 167.218 159.569 167.605 159.877Z" fill="#212121"/>
<path d="M170.849 157.362C171.132 157.259 171.493 157.439 171.493 157.773C171.493 158.26 172.265 158.26 172.265 157.773C172.265 156.977 171.39 156.31 170.643 156.618C170.437 156.695 170.308 156.874 170.386 157.08C170.437 157.259 170.643 157.439 170.849 157.362Z" fill="#212121"/>
<path d="M170.283 160.185C171.828 160.853 173.579 160.057 173.913 158.363C174.016 157.875 173.27 157.67 173.167 158.158C172.935 159.313 171.802 160.006 170.669 159.518C170.205 159.338 169.819 159.98 170.283 160.185Z" fill="#212121"/>
<path d="M172.291 157.798C172.575 157.542 173.064 157.773 173.115 158.132C173.193 158.62 173.939 158.414 173.862 157.927C173.682 156.977 172.42 156.643 171.725 157.259C171.39 157.567 171.931 158.106 172.291 157.798Z" fill="#212121"/>
<path d="M172.729 159.98C173.656 160.647 175.098 160.288 175.587 159.261C175.793 158.825 175.124 158.414 174.918 158.876C174.583 159.544 173.733 159.775 173.115 159.338C172.703 159.004 172.317 159.672 172.729 159.98Z" fill="#212121"/>
<path d="M173.81 158.594C174.016 158.209 174.222 157.747 174.609 157.516C174.943 157.311 175.381 157.336 175.561 157.721C175.948 158.517 175.072 159.082 174.428 159.287C173.965 159.415 174.145 160.16 174.634 160.031C175.819 159.698 176.978 158.491 176.179 157.234C175.87 156.72 175.278 156.515 174.686 156.669C173.913 156.874 173.501 157.567 173.141 158.209C172.935 158.645 173.579 159.03 173.81 158.594Z" fill="#212121"/>
<path d="M167.939 156.36C163.021 158.901 160.935 164.574 158.721 169.271C155.682 175.662 152.67 182.078 149.631 188.469C149.425 188.906 150.095 189.316 150.301 188.854C153.185 182.771 156.069 176.663 158.953 170.58C161.219 165.78 163.304 159.62 168.326 157.028C168.763 156.797 168.377 156.129 167.939 156.36Z" fill="#212121"/>
<path d="M175.304 159.671C175.819 168.937 176.308 178.228 176.823 187.494C176.849 187.982 177.621 187.982 177.596 187.494C177.081 178.228 176.591 168.937 176.076 159.671C176.051 159.184 175.278 159.184 175.304 159.671Z" fill="#212121"/>
<path d="M149.709 189.163C150.404 190.061 150.867 191.062 151.125 192.166C151.176 192.397 151.485 192.525 151.691 192.397C152.567 191.832 153.468 191.242 154.344 190.677C154.756 190.395 154.369 189.727 153.957 190.01C153.082 190.574 152.181 191.165 151.305 191.729C151.485 191.806 151.691 191.883 151.872 191.96C151.588 190.728 151.048 189.625 150.275 188.624C149.966 188.213 149.4 188.778 149.709 189.163Z" fill="#212121"/>
<path d="M154.343 190.882C162.583 194.014 171.57 192.987 179.99 191.165C180.48 191.062 180.274 190.318 179.784 190.42C171.493 192.217 162.661 193.244 154.549 190.138C154.086 189.958 153.88 190.703 154.343 190.882Z" fill="#212121"/>
<path d="M149.837 189.163C158.669 190.601 167.708 190.19 176.385 187.906C176.875 187.777 176.669 187.033 176.179 187.161C167.656 189.42 158.747 189.856 150.043 188.419C149.554 188.342 149.348 189.086 149.837 189.163Z" fill="#212121"/>
<path d="M176.875 187.52C176.643 187.956 176.411 188.418 176.18 188.855C176.077 189.06 176.154 189.368 176.411 189.419C177.725 189.625 178.909 190.112 179.991 190.908C180.403 191.19 180.789 190.523 180.377 190.241C179.27 189.419 177.982 188.88 176.617 188.675C176.695 188.855 176.772 189.06 176.849 189.24C177.081 188.803 177.313 188.341 177.544 187.905C177.776 187.469 177.107 187.084 176.875 187.52Z" fill="#212121"/>
<path d="M149.657 189.24C149.425 199.301 147.571 209.26 144.198 218.756C144.044 219.218 144.79 219.424 144.945 218.962C148.344 209.414 150.198 199.378 150.43 189.24C150.455 188.752 149.683 188.752 149.657 189.24Z" fill="#212121"/>
<path d="M153.751 192.012C153.339 202.869 151.614 213.649 148.653 224.096C148.524 224.583 149.271 224.789 149.399 224.301C152.386 213.778 154.112 202.946 154.524 192.012C154.524 191.525 153.751 191.525 153.751 192.012Z" fill="#212121"/>
<path d="M144.224 219.167C145.872 220.861 147.365 222.683 148.704 224.634C148.987 225.045 149.657 224.66 149.374 224.249C148.009 222.247 146.49 220.373 144.79 218.628C144.404 218.269 143.863 218.833 144.224 219.167Z" fill="#212121"/>
<path d="M149.4 224.789C159.185 224.686 169.562 224.429 178.008 218.86C178.42 218.577 178.034 217.91 177.622 218.192C169.279 223.685 159.082 223.916 149.425 224.019C148.885 224.019 148.885 224.789 149.4 224.789Z" fill="#212121"/>
<path d="M179.913 191.087C178.111 199.942 177.261 208.926 177.338 217.961C177.338 218.448 178.111 218.448 178.111 217.961C178.008 209.003 178.857 200.071 180.634 191.293C180.763 190.805 180.016 190.6 179.913 191.087Z" fill="#212121"/>
<path d="M175.072 159.133C176.695 169.784 178.343 180.41 179.965 191.062C180.042 191.55 180.789 191.344 180.712 190.857C179.089 180.205 177.441 169.579 175.819 158.927C175.742 158.44 174.995 158.645 175.072 159.133Z" fill="#212121"/>
<path d="M165.596 158.543C160.755 168.553 156.97 179.05 154.24 189.83C154.112 190.318 154.858 190.523 154.987 190.036C157.691 179.307 161.45 168.886 166.266 158.928C166.497 158.491 165.828 158.106 165.596 158.543Z" fill="#212121"/>
<path d="M164.309 158.132C156.713 166.756 149.374 175.611 142.293 184.672C141.984 185.057 142.524 185.596 142.833 185.211C149.915 176.15 157.253 167.321 164.85 158.671C165.184 158.312 164.644 157.773 164.309 158.132Z" fill="#212121"/>
<path d="M142.344 185.467C143.709 185.929 145.074 186.263 146.49 186.468C146.438 186.263 146.387 186.032 146.31 185.827C145.511 186.725 144.713 187.598 143.941 188.496C143.606 188.855 144.147 189.42 144.481 189.035C145.28 188.137 146.078 187.264 146.85 186.366C147.031 186.16 146.979 185.775 146.67 185.724C145.254 185.493 143.889 185.159 142.524 184.723C142.087 184.569 141.881 185.313 142.344 185.467Z" fill="#212121"/>
<path d="M144.43 189.034C145.949 189.214 147.468 189.419 148.987 189.599C149.477 189.65 149.477 188.88 148.987 188.829C147.468 188.649 145.949 188.444 144.43 188.264C143.94 188.187 143.94 188.957 144.43 189.034Z" fill="#212121"/>
<path d="M142.421 185.261C141.057 195.913 137.992 206.282 133.331 215.984C133.125 216.421 133.795 216.831 134.001 216.369C138.713 206.565 141.829 196.067 143.194 185.261C143.245 184.774 142.473 184.774 142.421 185.261Z" fill="#212121"/>
<path d="M143.838 189.188C143.58 192.063 142.936 194.86 141.932 197.555C141.752 198.017 142.499 198.223 142.679 197.761C143.709 194.989 144.353 192.114 144.61 189.188C144.636 188.7 143.863 188.7 143.838 189.188Z" fill="#212121"/>
<path d="M133.589 217.114C134.619 217.679 135.263 218.346 135.932 219.27C136.344 219.861 136.344 219.809 137.194 219.809C139.28 219.809 141.34 219.578 143.374 219.142C143.863 219.039 143.657 218.295 143.168 218.398C142.086 218.629 140.979 218.808 139.872 218.911C139.048 218.988 137.709 219.296 136.936 219.039C136.37 218.834 136.035 218.038 135.597 217.628C135.108 217.166 134.567 216.781 133.975 216.473C133.537 216.19 133.151 216.858 133.589 217.114Z" fill="#212121"/>
<path d="M143.271 185.621C145.717 185.467 148.189 185.441 150.635 185.595C152.979 185.723 155.322 186.083 157.691 186.16C162.403 186.339 167.193 185.261 171.828 184.645C172.317 184.568 172.111 183.824 171.622 183.901C166.858 184.543 161.991 185.621 157.176 185.364C152.515 185.133 147.957 184.568 143.271 184.851C142.782 184.902 142.782 185.672 143.271 185.621Z" fill="#212121"/>
<path d="M171.364 184.26C171.313 184.645 170.823 184.953 170.643 185.287C170.463 185.595 170.463 185.98 170.643 186.262C170.875 186.622 171.364 186.776 171.75 186.93C172.446 187.212 173.141 187.494 173.862 187.751C174.325 187.931 174.531 187.186 174.068 187.007C173.579 186.827 173.089 186.647 172.626 186.468C172.368 186.365 171.261 186.108 171.313 185.672C171.338 185.467 171.699 185.21 171.828 185.03C172.008 184.774 172.111 184.568 172.137 184.26C172.188 183.773 171.416 183.773 171.364 184.26Z" fill="#212121"/>
<path d="M171.467 184.62C171.776 185.287 172.085 185.954 172.394 186.622C172.6 187.084 173.27 186.673 173.064 186.237C172.755 185.569 172.446 184.902 172.137 184.235C171.931 183.773 171.261 184.183 171.467 184.62Z" fill="#212121"/>
<path d="M173.862 159.723C173.115 163.933 172.291 168.142 171.673 172.377C171.39 174.276 171.21 176.176 171.236 178.075C171.287 180.205 171.648 182.284 171.004 184.363C170.849 184.825 171.596 185.031 171.751 184.569C172.317 182.746 172.137 180.898 172.034 179.025C171.931 176.869 172.085 174.713 172.394 172.582C173.012 168.347 173.836 164.138 174.583 159.929C174.686 159.441 173.939 159.236 173.862 159.723Z" fill="#212121"/>
<path d="M174.068 160.313C174.737 169.322 173.141 178.305 173.888 187.289C173.939 187.776 174.712 187.776 174.66 187.289C173.913 178.305 175.51 169.296 174.84 160.313C174.815 159.825 174.042 159.825 174.068 160.313Z" fill="#212121"/>
<path d="M187.896 271.784C187.844 273.093 187.793 274.402 187.741 275.711C184.239 277.636 181.33 279.433 179.012 280.973C177.184 282.179 174.583 283.899 171.313 286.491C169.407 288.005 167.862 289.366 166.704 290.392C167.09 290.726 167.708 291.188 168.532 291.393C170.18 291.804 171.648 291.008 172.137 290.752C174.635 289.494 173.038 291.188 182.308 287.62C185.759 286.286 190.548 284.284 196.316 281.435C196.187 279.972 196.059 278.534 195.93 277.071C195.698 274.53 195.466 271.989 195.26 269.448C192.788 270.244 190.342 271.014 187.896 271.784Z" fill="#212121"/>
<path d="M199.458 140.088C198.968 142.501 198.273 146.017 197.449 150.278C192.299 176.997 187.922 199.84 185.45 224.634C184.317 236.005 183.184 251.661 183.235 270.552C184.291 270.911 185.887 271.399 187.896 271.784C190.677 272.323 193.226 272.811 196.29 272.169C197.398 271.938 199.071 271.45 201.003 270.321C201.93 256.897 203.114 245.476 204.196 236.621C205.612 224.917 207.26 211.519 210.865 194.245C213.157 183.311 215.32 175.175 216.272 171.71C218.307 164.266 220.341 157.773 222.092 152.434C224.744 147.686 225.671 142.193 223.354 138.754C219.903 133.749 208.959 132.44 199.458 140.088Z" fill="white"/>
<path d="M199.097 139.986C195.776 156.875 192.454 173.763 189.699 190.729C186.969 207.54 184.755 224.455 183.622 241.446C182.978 251.122 182.695 260.824 182.849 270.552C182.849 271.04 183.622 271.04 183.622 270.552C183.338 253.484 184.446 236.415 186.403 219.475C188.385 202.433 191.218 185.493 194.334 168.63C196.085 159.133 197.964 149.662 199.818 140.191C199.921 139.704 199.175 139.498 199.097 139.986Z" fill="#212121"/>
<path d="M216.53 169.657C212.178 181.977 210.273 194.99 208.161 207.823C205.998 221.041 203.887 234.285 202.419 247.581C201.569 255.127 200.951 262.724 200.591 270.321C200.565 270.809 201.338 270.809 201.363 270.321C201.981 256.846 203.526 243.423 205.458 230.076C207.337 217.037 209.346 203.973 211.792 191.011C213.157 183.85 214.83 176.715 217.251 169.836C217.431 169.4 216.684 169.195 216.53 169.657Z" fill="#212121"/>
<path d="M183.647 271.039C186.582 272.092 189.724 272.477 192.814 272.759C195.878 273.041 198.427 271.963 201.105 270.603C201.543 270.372 201.157 269.705 200.719 269.936C197.964 271.347 195.466 272.271 192.325 271.938C189.441 271.63 186.582 271.27 183.853 270.295C183.389 270.115 183.183 270.86 183.647 271.039Z" fill="#212121"/>
<path d="M187.51 271.784C187.51 272.939 187.947 275.018 187.02 275.89C186.222 276.609 184.832 277.071 183.879 277.584C181.767 278.765 179.682 280.048 177.673 281.409C173.733 284.052 170 286.978 166.472 290.135C166.343 290.238 166.317 290.469 166.42 290.597C167.399 292.137 169.356 291.881 170.927 291.496C173.888 290.777 176.823 289.904 179.707 288.955C185.321 287.107 190.78 284.874 196.059 282.281C196.496 282.05 196.11 281.409 195.672 281.614C191.012 283.898 186.222 285.9 181.33 287.594C178.986 288.416 176.592 289.16 174.197 289.827C172.961 290.187 171.725 290.52 170.463 290.803C169.356 291.059 167.811 291.342 167.064 290.212C167.038 290.366 167.013 290.52 167.013 290.674C171.004 287.081 175.253 283.821 179.785 280.947C181.973 279.561 184.188 278.252 186.48 277.045C187.201 276.66 188.025 276.352 188.256 275.48C188.565 274.35 188.308 272.913 188.308 271.784C188.282 271.296 187.51 271.296 187.51 271.784Z" fill="#212121"/>
<path d="M195.157 272.99C195.415 275.813 195.672 278.636 195.93 281.46C195.981 281.947 196.754 281.947 196.702 281.46C196.445 278.636 196.187 275.813 195.93 272.99C195.878 272.502 195.106 272.476 195.157 272.99Z" fill="#212121"/>
<path d="M258.811 259.9C259.661 261.106 260.511 262.313 261.361 263.493C259.661 265.983 257.936 268.729 256.236 271.732C254.022 275.634 252.219 279.381 250.726 282.82C251.009 283.077 251.447 283.359 252.013 283.436C253.584 283.616 254.872 281.845 256.03 280.408C259.455 276.147 259.352 277.661 263.369 272.656C264.502 271.245 265.918 269.345 267.463 267.01C267.309 263.545 267.129 260.054 266.974 256.589C266.33 257.256 265.223 258.232 263.575 258.95C261.567 259.849 259.79 259.926 258.811 259.9Z" fill="#212121"/>
<path d="M210.942 140.499C208.908 142.758 207.826 145.992 207.775 146.12C205.792 152.203 207.955 157.516 208.676 159.082C210.092 159.236 212.229 159.723 213.774 161.366C215.088 162.752 215.319 164.292 215.937 166.782C216.633 169.554 217.766 172.172 218.487 174.944C219.053 177.125 220.984 183.131 224.821 195.118C224.821 195.118 228.787 207.54 232.829 218.551C236.486 228.536 242.305 242.832 251.472 260.516C252.889 260.85 254.794 261.107 257.009 260.85C262.751 260.183 266.382 256.512 267.566 255.229C267.489 250.712 267.412 246.169 267.334 241.651C266.382 239.264 265.017 235.851 263.446 231.77C259.609 221.811 254.022 207.258 248.202 188.547C244.597 176.92 242.331 169.554 240.168 158.902C238.546 150.894 237.593 144.118 237.027 139.241C226.237 134.724 215.68 135.263 210.942 140.499Z" fill="white"/>
<path d="M208.573 159.467C210.195 159.801 212.023 160.16 213.234 161.392C214.573 162.752 214.959 164.985 215.5 166.756C216.581 170.196 217.663 173.635 218.718 177.1C220.856 184.004 223.019 190.909 225.233 197.787C229.688 211.519 234.503 225.174 240.297 238.392C243.567 245.835 247.146 253.15 251.137 260.234C251.369 260.671 252.039 260.286 251.807 259.849C237.078 233.721 228.169 204.948 219.311 176.458C218.049 172.403 216.813 168.373 215.525 164.318C215.036 162.804 214.495 161.366 213.182 160.365C211.895 159.416 210.272 159.056 208.727 158.723C208.29 158.62 208.084 159.364 208.573 159.467Z" fill="#212121"/>
<path d="M236.254 140.704C238.752 154.461 241.61 168.065 245.627 181.488C249.541 194.604 253.945 207.566 258.708 220.373C261.361 227.534 264.142 234.67 266.974 241.779C267.154 242.241 267.901 242.036 267.721 241.574C262.7 229.023 257.91 216.369 253.533 203.562C249.052 190.446 244.752 177.176 241.61 163.676C239.834 156.001 238.392 148.25 237.001 140.499C236.898 140.011 236.151 140.216 236.254 140.704Z" fill="#212121"/>
<path d="M251.37 260.927C256.983 262.364 262.597 260.157 267.154 256.948C267.566 256.666 267.18 255.999 266.768 256.281C262.365 259.387 256.983 261.594 251.576 260.183C251.086 260.054 250.88 260.799 251.37 260.927Z" fill="#212121"/>
<path d="M259.069 261.004C259.738 261.902 260.382 262.801 261.051 263.699C261.335 264.084 262.004 263.699 261.721 263.314C261.051 262.416 260.408 261.517 259.738 260.619C259.429 260.208 258.76 260.593 259.069 261.004Z" fill="#212121"/>
<path d="M261.309 263.725C258.528 267.216 256.159 270.989 254.022 274.916C252.94 276.918 251.91 278.945 250.88 280.973C250.365 282 249.825 283.155 251.267 283.719C252.786 284.31 254.048 282.77 255.052 281.871C256.726 280.383 258.322 278.843 259.867 277.226C262.828 274.146 265.506 270.809 267.798 267.216C268.056 266.805 267.386 266.42 267.129 266.831C265.172 269.885 262.957 272.734 260.511 275.403C259.378 276.661 258.168 277.867 256.957 279.048C256.314 279.664 255.644 280.28 255 280.896C254.305 281.512 253.558 282.385 252.734 282.795C252.013 283.155 251.215 283.18 251.138 282.128C251.112 281.846 251.601 281.255 251.73 280.973C252.142 280.152 252.554 279.356 252.966 278.535C253.79 276.918 254.64 275.326 255.541 273.735C257.421 270.45 259.481 267.267 261.824 264.29C262.159 263.879 261.618 263.34 261.309 263.725Z" fill="#212121"/>
<path d="M205.071 80.0031C202.239 81.6971 200.333 83.7504 199.149 85.2134C196.857 93.1958 196.574 99.6124 196.728 103.95C196.986 111.265 198.531 114.807 199.303 123.739C199.921 130.849 199.612 136.649 199.303 140.345C202.084 141.475 205.329 142.527 209.011 143.22C221.191 145.53 231.491 142.758 237.284 140.653C235.791 132.979 235.379 126.742 235.276 122.558C234.993 112.112 236.332 106.517 235.224 94.7358C234.555 87.5234 234.169 83.8788 232.031 81.4404C226.315 74.8698 213.44 74.9468 205.071 80.0031Z" fill="#ED6A5A"/>
<path d="M229.508 83.083C228.246 84.7514 228.22 86.7277 228.272 88.1907C228.4 92.6054 229.044 95.48 229.044 95.48C230.898 103.745 230.151 101.999 231.259 106.209C233.937 116.373 238.829 128.436 240.091 131.516C244.88 143.323 248.666 152.46 251.035 158.209C250.52 159.082 249.85 160.391 249.258 162.008C248.434 164.344 248.022 165.55 248.588 166.551C249.412 167.963 251.627 168.04 252.193 168.065C252.734 168.835 253.249 169.605 253.79 170.375C253.944 170.504 254.717 171.068 255.824 170.94C257.137 170.786 257.807 169.734 257.884 169.605C258.657 169.066 259.429 168.502 260.202 167.963C260.639 167.68 261.129 167.347 261.644 166.936C262.313 166.397 262.854 165.832 263.266 165.345C263.523 164.831 263.858 163.984 263.781 162.932C263.729 162.162 263.472 161.161 262.159 159.621C260.33 157.465 258.064 156.156 256.313 155.36C253.069 146.095 250.906 138.446 249.541 133.159C242.305 105.336 241.61 102.076 241.61 102.076C239.138 90.8087 240.4 98.6113 238.031 91.3477C237.078 88.4474 236.151 85.4957 233.37 83.5194C232.289 82.7494 231.233 82.313 230.486 82.082C230.177 82.3387 229.842 82.6467 229.508 83.083Z" fill="white"/>
<path d="M257.215 184.467C252.966 187.598 247.816 190.883 241.688 193.784C239.19 194.964 236.744 195.991 234.426 196.864C233.834 199.61 233.19 202.664 232.624 205.385C230.177 216.909 227.68 228.434 225.182 239.958C226.186 240.677 227.396 241.421 228.813 242.037C234.04 244.296 239.01 243.705 241.507 243.192C242.821 243.551 244.572 243.885 246.657 243.911C248.125 243.911 249.387 243.757 250.443 243.551C252.142 242.833 253.945 241.96 255.799 240.908C260.871 238.007 264.657 234.619 267.386 231.719C267.412 218.27 267.438 204.846 267.489 191.397C266.948 191.063 266.433 190.704 265.893 190.37C265.712 190.036 265.455 189.523 265.172 188.907C264.734 187.957 264.657 187.649 264.425 187.598C263.807 187.495 263.266 189.446 262.725 189.369C262.442 189.343 262.107 188.727 261.901 185.981C260.356 185.493 258.786 184.98 257.215 184.467Z" fill="white"/>
<path d="M230.332 82.4931C232.701 82.8524 234.143 84.8031 235.25 86.7537C236.512 88.9354 237.567 91.2711 238.494 93.6067C240.348 98.3037 241.456 103.232 242.614 108.134C245.035 118.298 247.687 128.385 250.571 138.421C252.219 144.119 253.919 149.791 255.696 155.463C255.85 155.925 256.597 155.746 256.442 155.258C253.121 144.735 250.056 134.16 247.249 123.483C245.833 118.144 244.494 112.805 243.232 107.441C242.022 102.308 240.812 97.2001 238.778 92.3234C237.799 89.9621 236.718 87.5494 235.301 85.3934C234.168 83.6481 232.675 82.0824 230.512 81.7487C230.048 81.6717 229.842 82.4161 230.332 82.4931Z" fill="#212121"/>
<path d="M229.997 82.082C226.649 84.8283 227.963 90.5006 228.452 94.1453C229.147 99.3556 230.306 104.515 231.748 109.545C234.786 120.146 239.112 130.335 243.387 140.499C245.833 146.3 248.254 152.101 250.442 157.978C250.623 158.44 251.369 158.235 251.189 157.773C243.902 138.138 233.756 119.35 229.92 98.5599C229.379 95.5826 228.967 92.6053 228.709 89.6023C228.503 87.164 228.452 84.315 230.512 82.6466C230.924 82.313 230.357 81.774 229.997 82.082Z" fill="#212121"/>
<path d="M250.674 158.03C250.031 159.416 249.387 160.827 248.743 162.213C248.28 163.189 247.765 164.241 247.79 165.345C247.868 167.603 250.34 167.937 252.065 168.45C252.554 168.579 252.76 167.834 252.271 167.706C251.498 167.475 250.674 167.295 249.902 167.013C248.46 166.448 248.383 165.191 248.82 163.907C249.464 162.034 250.494 160.211 251.318 158.415C251.55 157.978 250.88 157.593 250.674 158.03Z" fill="#212121"/>
<path d="M256.365 155.695C259.095 157.697 264.141 160.263 263.266 164.37C263.163 164.858 263.91 165.063 264.013 164.575C264.965 160.007 259.841 157.286 256.751 155.028C256.365 154.72 255.979 155.387 256.365 155.695Z" fill="#212121"/>
<path d="M251.73 165.935C252.348 166.038 252.992 166.166 253.61 166.269C254.099 166.346 254.305 165.602 253.816 165.525C253.198 165.422 252.554 165.294 251.936 165.191C251.447 165.114 251.241 165.858 251.73 165.935Z" fill="#212121"/>
<path d="M252.863 166.115C253.095 167.476 253.79 168.682 254.846 169.606C255.232 169.94 255.773 169.375 255.387 169.067C254.434 168.246 253.816 167.168 253.61 165.936C253.533 165.422 252.786 165.628 252.863 166.115Z" fill="#212121"/>
<path d="M254.228 171.094C257.009 172.506 259.378 168.399 258.142 166.115C257.91 165.678 257.24 166.063 257.472 166.5C258.322 168.091 256.648 171.453 254.614 170.427C254.176 170.221 253.79 170.889 254.228 171.094Z" fill="#212121"/>
<path d="M257.936 169.991C259.97 169.606 261.129 167.553 260.382 165.602C260.202 165.14 259.455 165.346 259.635 165.808C260.253 167.373 259.403 168.939 257.73 169.247C257.266 169.35 257.472 170.068 257.936 169.991Z" fill="#212121"/>
<path d="M260.15 168.349C260.82 168.374 261.386 168.015 261.747 167.476C262.21 166.757 262.159 165.859 262.082 165.038C262.03 164.55 261.258 164.55 261.309 165.038C261.386 165.91 261.489 167.63 260.15 167.579C259.661 167.553 259.661 168.323 260.15 168.349Z" fill="#212121"/>
<path d="M262.133 166.885C263.137 166.346 263.832 165.37 264.038 164.241C264.116 163.753 263.369 163.548 263.292 164.036C263.137 164.985 262.597 165.755 261.747 166.217C261.309 166.448 261.695 167.116 262.133 166.885Z" fill="#212121"/>
<path d="M254.331 168.45C247.327 176.895 242.846 187.161 241.43 198.018C241.353 198.506 242.151 198.506 242.202 198.018C243.593 187.392 248.022 177.254 254.897 168.989C255.206 168.63 254.64 168.065 254.331 168.45Z" fill="#212121"/>
<path d="M253.738 168.015C245.498 176.074 238.881 185.673 234.297 196.248C234.091 196.71 234.761 197.095 234.967 196.633C239.524 186.135 246.091 176.587 254.279 168.554C254.64 168.22 254.073 167.655 253.738 168.015Z" fill="#212121"/>
<path d="M234.117 196.787C234.941 197.48 235.971 198.789 237.13 198.891C237.671 198.943 238.185 198.737 238.675 198.583C239.602 198.301 240.529 197.993 241.456 197.711C241.919 197.557 241.739 196.812 241.25 196.966C240.22 197.3 239.061 197.813 238.005 197.967C236.538 198.198 235.688 197.12 234.658 196.222C234.297 195.914 233.731 196.479 234.117 196.787Z" fill="#212121"/>
<path d="M234.04 196.761C231.001 211.058 227.963 225.354 224.924 239.65C224.821 240.138 225.568 240.343 225.671 239.856C228.71 225.559 231.748 211.263 234.787 196.967C234.89 196.479 234.143 196.274 234.04 196.761Z" fill="#212121"/>
<path d="M224.899 240.24C227.087 242.114 229.842 242.833 232.572 243.5C235.61 244.244 238.572 244.373 241.61 243.551C242.099 243.423 241.893 242.679 241.404 242.807C238.494 243.603 235.688 243.474 232.778 242.756C230.177 242.114 227.525 241.472 225.439 239.676C225.053 239.368 224.512 239.907 224.899 240.24Z" fill="#212121"/>
<path d="M241.275 198.044C240.426 212.957 240.348 227.895 241.044 242.833C241.069 243.32 241.842 243.32 241.816 242.833C241.121 227.92 241.224 212.957 242.048 198.044C242.099 197.557 241.327 197.557 241.275 198.044Z" fill="#212121"/>
<path d="M253.404 170.298C250.237 180.18 247.095 190.036 243.928 199.918C243.773 200.38 244.52 200.585 244.675 200.123C247.842 190.241 250.983 180.385 254.151 170.504C254.279 170.016 253.533 169.811 253.404 170.298Z" fill="#212121"/>
<path d="M243.696 200.791C244.211 201.432 244.958 202.972 245.911 202.972C246.374 202.972 246.889 202.639 247.275 202.459C248.074 202.1 248.872 201.74 249.67 201.355C250.134 201.15 249.722 200.483 249.284 200.688C248.434 201.073 247.404 201.766 246.503 201.971C245.627 202.177 245.602 201.946 245.19 201.407C244.881 201.022 244.572 200.637 244.263 200.252C243.954 199.867 243.413 200.406 243.696 200.791Z" fill="#212121"/>
<path d="M243.541 200.893C243.387 210.698 242.589 220.502 241.121 230.205C241.044 230.692 241.79 230.898 241.868 230.41C243.335 220.631 244.159 210.775 244.314 200.893C244.34 200.405 243.567 200.405 243.541 200.893Z" fill="#212121"/>
<path d="M241.559 242.858C244.211 244.167 247.069 244.578 249.979 244.039C250.468 243.962 250.262 243.218 249.773 243.295C247.095 243.782 244.391 243.397 241.945 242.191C241.507 241.986 241.121 242.653 241.559 242.858Z" fill="#212121"/>
<path d="M249.078 201.252C250.7 215.292 251.035 229.435 250.056 243.526C250.03 244.013 250.803 244.013 250.829 243.526C251.807 229.435 251.472 215.292 249.85 201.252C249.799 200.765 249.026 200.765 249.078 201.252Z" fill="#212121"/>
<path d="M244.958 201.407C252.065 197.685 258.657 193.142 264.682 187.855C265.068 187.521 264.502 186.982 264.141 187.316C258.167 192.552 251.601 197.044 244.571 200.74C244.134 200.971 244.52 201.638 244.958 201.407Z" fill="#212121"/>
<path d="M249.413 201.586C255.902 199.841 261.824 196.453 266.665 191.781C267.025 191.448 266.485 190.883 266.124 191.242C261.386 195.837 255.593 199.122 249.232 200.842C248.717 200.97 248.923 201.714 249.413 201.586Z" fill="#212121"/>
<path d="M260.742 167.809C261.669 174.354 262.596 180.925 263.549 187.47C263.626 187.958 264.373 187.752 264.296 187.265C263.369 180.72 262.442 174.149 261.489 167.604C261.412 167.116 260.665 167.322 260.742 167.809Z" fill="#212121"/>
<path d="M261.798 167.603C263.498 175.483 265.017 183.388 266.382 191.345C266.459 191.833 267.206 191.627 267.128 191.14C265.764 183.183 264.219 175.278 262.545 167.398C262.442 166.936 261.695 167.141 261.798 167.603Z" fill="#212121"/>
<path d="M250.623 244.399C256.906 241.165 262.313 236.57 267.643 231.976C268.03 231.642 267.463 231.103 267.103 231.437C261.824 235.98 256.468 240.523 250.236 243.757C249.799 243.962 250.185 244.63 250.623 244.399Z" fill="#212121"/>
<path d="M264.244 188.111C264.785 189.549 265.506 191.14 267.128 191.602C267.617 191.73 267.823 190.986 267.334 190.858C266.021 190.473 265.454 189.087 264.991 187.906C264.811 187.444 264.064 187.649 264.244 188.111Z" fill="#212121"/>
<path d="M241.481 198.326C249.335 196.222 256.494 192.064 262.184 186.263C262.519 185.904 261.978 185.365 261.644 185.724C256.056 191.448 249.026 195.529 241.275 197.608C240.786 197.736 240.992 198.455 241.481 198.326Z" fill="#212121"/>
<path d="M261.566 186.212C261.695 187.265 261.927 188.292 262.236 189.293C262.39 189.755 263.137 189.575 262.983 189.087C262.674 188.138 262.468 187.188 262.339 186.212C262.287 185.725 261.515 185.725 261.566 186.212Z" fill="#212121"/>
<path d="M234.529 196.992C236.537 196.71 238.417 195.709 240.245 194.862C242.28 193.912 244.288 192.911 246.245 191.833C250.108 189.728 253.816 187.367 257.395 184.775C257.781 184.492 257.42 183.825 257.008 184.107C253.558 186.597 249.979 188.881 246.271 190.935C244.443 191.936 242.589 192.885 240.709 193.784C238.7 194.733 236.563 195.914 234.349 196.222C233.834 196.325 234.065 197.069 234.529 196.992Z" fill="#212121"/>
<path d="M256.957 184.595C258.296 185.519 259.764 186.058 261.386 186.238C261.875 186.289 261.875 185.519 261.386 185.468C259.918 185.288 258.579 184.749 257.369 183.928C256.931 183.645 256.545 184.313 256.957 184.595Z" fill="#212121"/>
<path d="M257.395 184.184C258.348 179.461 258.116 174.61 258.116 169.836C258.116 169.349 257.343 169.349 257.343 169.836C257.343 174.533 257.575 179.333 256.648 183.979C256.545 184.466 257.292 184.672 257.395 184.184Z" fill="#212121"/>
<path d="M259.017 169.811C259.584 172.635 259.275 175.509 259.609 178.333C259.918 181.028 260.768 183.594 261.592 186.161C261.747 186.623 262.493 186.418 262.339 185.956C261.412 183.158 260.511 180.335 260.305 177.409C260.124 174.791 260.305 172.198 259.764 169.606C259.661 169.118 258.94 169.324 259.017 169.811Z" fill="#212121"/>
<path d="M267.103 191.371C266.356 204.846 266.485 218.372 267.463 231.847C267.489 232.335 268.261 232.335 268.236 231.847C267.257 218.372 267.154 204.846 267.875 191.371C267.901 190.883 267.128 190.883 267.103 191.371Z" fill="#212121"/>
<path d="M211.406 45.1223C207.131 44.994 204.015 47.8687 202.625 49.152C196.934 54.4136 196.728 61.9853 196.651 64.5263C196.574 67.1186 196.342 76.9233 201.775 79.4643C205.045 80.9786 208.985 79.259 212.59 77.719C214.521 76.8976 217.457 75.3063 220.289 72.4573C222.452 70.25 225.079 67.5806 225.826 63.2686C226.006 62.1906 226.521 58.4946 224.538 54.6446C223.405 52.4116 221.937 51.1283 220.444 49.845C217.972 47.6633 215.165 45.225 211.406 45.1223Z" fill="white"/>
<path d="M212.539 46.1487C210.633 46.0203 209.191 46.6363 207.698 47.2523C204.865 48.4587 203.243 50.358 202.136 51.6413C199.767 54.4133 198.84 57.1083 198.608 57.8783C198.093 59.4697 197.192 62.3957 197.964 65.9633C198.35 67.683 199.277 71.9693 203.14 73.843C206.23 75.3317 209.346 74.4077 210.298 74.0997C210.865 74.613 211.74 75.5627 212.23 76.9487C212.23 76.9487 213.157 79.5923 211.843 82.5953C209.912 87.01 202.548 89.9873 197.269 87.8057C190.522 85.008 189.982 74.844 190.883 69.5053C191.372 66.5537 192.454 64.218 193.381 62.6267C193.252 59.983 193.458 55.055 196.651 50.6917C201.749 43.7103 212.307 41.195 214.624 43.7617C215.217 44.4033 215.629 45.661 215.191 46.1743C214.83 46.6363 213.852 46.2513 212.539 46.1487Z" fill="#5B399B"/>
<path d="M212.77 45.1476C211.818 46.354 211.74 47.7656 211.715 48.8693C211.534 53.1556 214.315 57.8526 216.968 57.7756C217.431 57.75 218.178 57.596 219.079 56.672C219.337 56.595 220.727 56.21 221.989 57.0056C223.354 57.8526 223.688 59.5466 223.482 60.753C223.276 61.985 222.478 62.7293 222.221 62.9603C220.959 64.1153 219.388 64.1153 219.053 64.0896C218.77 65.296 218.152 67.1696 216.813 69.0946C215.809 70.5063 214.727 71.5073 213.903 72.1746C213.672 73.073 213.414 74.382 213.285 75.9476C213.054 79.002 212.796 82.621 214.83 85.2133C216.993 87.9596 221.01 88.5756 223.714 88.2163C229.817 87.4206 233.808 81.2606 235.018 76.3326C237.053 67.991 231.568 61.369 230.924 60.599C231.388 53.207 228.787 46.7903 223.972 44.4033C220.701 42.8633 215.062 42.2986 212.77 45.1476Z" fill="#5B399B"/>
<path d="M206.874 47.5094C200.874 50.076 197.526 57.699 197.449 63.936C197.398 67.3497 198.84 70.8403 201.44 73.1247C204.067 75.4347 207.62 75.6143 210.813 74.3823C214.161 73.099 216.813 70.481 218.255 67.247C218.461 66.8107 217.792 66.4 217.586 66.862C216.066 70.3013 213.079 73.0477 209.423 74.0487C207.234 74.639 204.865 74.5363 202.934 73.3043C201.08 72.1237 199.715 70.1473 198.968 68.1197C197.501 64.1413 198.556 59.5984 200.23 55.8254C201.672 52.5657 203.938 49.6654 207.286 48.228C207.698 47.9714 207.311 47.304 206.874 47.5094Z" fill="#212121"/>
<path d="M204.067 52.7447C202.419 56.1583 201.028 59.6747 199.844 63.2937C199.741 63.6017 200.127 63.9354 200.41 63.73C201.672 62.7804 202.959 61.805 204.221 60.8554C204.607 60.5474 204.221 59.88 203.835 60.188C202.573 61.1377 201.286 62.113 200.024 63.0627C200.204 63.2167 200.41 63.345 200.59 63.499C201.749 59.957 203.114 56.492 204.736 53.1297C204.942 52.6933 204.273 52.3083 204.067 52.7447Z" fill="#212121"/>
<path d="M202.238 64.9368C202.882 66.2458 204.504 66.4511 205.766 66.0404C207.337 65.5528 208.367 64.1924 208.702 62.6268C208.805 62.1391 208.058 61.9338 207.955 62.4214C207.723 63.5251 207.157 64.5004 206.127 65.0651C205.122 65.6041 203.474 65.7324 202.882 64.5518C202.702 64.1154 202.032 64.5004 202.238 64.9368Z" fill="#212121"/>
<path d="M207.955 52.5651C207.62 53.8741 208.47 55.3371 209.861 55.5168C211.277 55.7221 212.513 54.4131 212.461 53.0528C212.436 52.5651 211.663 52.5651 211.689 53.0528C211.74 54.0024 210.891 54.9521 209.886 54.7468C209.011 54.5671 208.496 53.5918 208.702 52.7704C208.831 52.3084 208.084 52.1031 207.955 52.5651Z" fill="#212121"/>
<path d="M200.127 54.4644C199.818 55.3114 200.642 56.1071 201.492 56.0301C202.625 55.9274 203.088 54.7981 203.346 53.8484C203.475 53.3608 202.728 53.1554 202.599 53.6431C202.47 54.1564 202.316 54.7468 201.852 55.0548C201.492 55.3114 200.642 55.2858 200.874 54.6441C201.028 54.2078 200.281 54.0024 200.127 54.4644Z" fill="#212121"/>
<path d="M210.092 57.8784C210.118 57.8784 210.17 57.8784 210.195 57.8784C210.401 57.8784 210.582 57.6987 210.582 57.4934C210.582 57.2881 210.401 57.1084 210.195 57.1084C210.17 57.1084 210.118 57.1084 210.092 57.1084C209.886 57.1084 209.706 57.2881 209.706 57.4934C209.706 57.6987 209.861 57.8784 210.092 57.8784Z" fill="#212121"/>
<path d="M213.208 56.6724C213.697 56.6724 213.697 55.9023 213.208 55.9023C212.719 55.9023 212.719 56.6724 213.208 56.6724Z" fill="#212121"/>
<path d="M212.899 59.2905C212.925 59.2905 212.976 59.2905 213.002 59.2905C213.208 59.2905 213.388 59.1108 213.388 58.9055C213.388 58.7002 213.208 58.5205 213.002 58.5205C212.976 58.5205 212.925 58.5205 212.899 58.5205C212.693 58.5205 212.513 58.7002 212.513 58.9055C212.538 59.1108 212.693 59.2905 212.899 59.2905Z" fill="#212121"/>
<path d="M210.067 48.8437C210.994 48.0994 212.281 48.5357 212.642 49.6394C212.796 50.1014 213.543 49.8961 213.388 49.434C212.822 47.74 210.891 47.201 209.526 48.3047C209.114 48.6127 209.68 49.1517 210.067 48.8437Z" fill="#212121"/>
<path d="M202.625 49.8189C203.166 48.7409 204.633 48.9206 204.865 50.1269C204.968 50.6146 205.715 50.4093 205.612 49.9216C205.226 48.0992 202.779 47.7912 201.955 49.4339C201.724 49.8703 202.393 50.2553 202.625 49.8189Z" fill="#212121"/>
<path d="M218.667 57.4416C221.628 54.6182 225.259 61.1376 221.319 63.0626C220.701 63.3706 220.135 63.2936 219.491 63.3962C219.285 63.4219 219.053 63.4476 218.873 63.5759C218.667 63.7556 218.564 64.1919 218.461 64.4486C218.178 65.2186 217.895 65.9629 217.637 66.7329C217.457 67.1949 218.204 67.4002 218.384 66.9382C218.616 66.3479 218.77 65.7062 219.053 65.1159C219.131 64.7566 219.311 64.4229 219.594 64.1662C219.723 64.1662 219.852 64.1662 219.98 64.1662C220.65 63.9352 221.345 63.9609 221.989 63.5502C223.276 62.7546 223.997 61.2659 223.869 59.7772C223.611 57.0566 220.444 54.6182 218.101 56.8769C217.766 57.2619 218.307 57.8009 218.667 57.4416Z" fill="#212121"/>
<path d="M209.964 74.5108C210.685 75.6144 211.483 76.6411 212.358 77.6421C212.693 78.0271 213.234 77.4625 212.899 77.1031C212.075 76.1534 211.328 75.1524 210.633 74.1258C210.35 73.7151 209.68 74.1001 209.964 74.5108Z" fill="#212121"/>
</svg>
