<svg viewBox="0 0 381 285" fill="none" xmlns="http://www.w3.org/2000/svg">
<path d="M324.073 230.161C322.458 228.142 321.247 225.862 320.226 223.511C319.727 222.347 319.252 221.136 318.801 219.948C318.587 219.378 318.35 218.832 318.183 218.262C317.993 217.668 317.922 217.36 318.207 216.79C318.207 216.386 318.373 216.22 318.682 216.267C318.943 216.196 319.11 216.315 319.205 216.623C319.442 216.6 319.68 216.552 319.893 216.528C318.468 212.23 317.542 207.788 317.138 203.3C316.948 201.115 316.877 198.906 316.925 196.697C316.948 195.676 316.996 194.655 317.091 193.61C317.115 193.206 317.067 192.066 317.305 191.733C317.566 191.662 317.804 191.591 318.065 191.543C318.492 191.187 318.825 191.187 319.038 191.567C319.3 191.781 319.466 192.161 319.632 192.446C323.978 199.666 326.876 207.812 328.277 216.101C329.085 220.875 329.393 225.696 329.18 230.541C329.156 230.992 329.868 230.992 329.892 230.541C330.272 220.922 328.681 211.256 325.19 202.278C324.311 200.046 323.337 197.861 322.245 195.723C321.746 194.726 321.2 193.752 320.653 192.802C320.202 192.018 319.751 191.068 318.991 190.546C317.518 189.548 316.663 190.973 316.497 192.28C316.188 194.75 316.141 197.267 316.212 199.761C316.378 205.532 317.376 211.232 319.181 216.695C319.3 217.075 319.893 217.027 319.87 216.6C319.87 215.65 318.801 215.246 317.993 215.65C316.568 216.338 317.376 218.31 317.756 219.355C319.228 223.345 320.82 227.287 323.503 230.636C323.86 231.04 324.358 230.517 324.073 230.161Z" fill="#E8E8E8"/>
<path d="M328.253 212.396C328.443 209.237 328.847 206.102 329.536 202.991C329.868 201.542 330.225 200.093 330.676 198.668C330.89 197.956 331.127 197.243 331.365 196.555C331.483 196.198 331.602 195.842 331.745 195.51C331.792 195.367 331.84 195.225 331.911 195.082C332.006 194.583 332.338 194.298 332.885 194.203C332.837 194.607 333.478 194.678 333.573 194.298C334.048 192.731 337.896 182.637 340.247 184.371C340.936 184.87 341.126 186.033 341.245 186.817C341.435 187.91 341.601 189.026 341.72 190.118C341.933 191.995 342.076 193.871 342.123 195.771C342.337 203.49 341.173 211.256 338.703 218.595C337.278 222.798 335.426 226.812 333.193 230.636C332.956 231.04 333.573 231.396 333.811 230.992C338.3 223.345 341.173 214.842 342.313 206.078C342.883 201.661 343.026 197.196 342.693 192.755C342.527 190.641 342.29 188.527 341.91 186.437C341.696 185.297 341.173 183.611 339.82 183.397C338.038 183.112 336.661 186.057 335.948 187.245C334.642 189.406 333.645 191.71 332.908 194.108C333.146 194.132 333.383 194.18 333.597 194.203C333.74 193.063 332.315 192.992 331.745 193.728C331.317 194.275 331.127 195.082 330.913 195.723C330.51 196.84 330.153 197.98 329.821 199.12C328.562 203.442 327.826 207.883 327.565 212.372C327.517 212.847 328.23 212.847 328.253 212.396Z" fill="#E8E8E8"/>
<path d="M317.091 191.472C322.269 203.561 325.522 216.41 326.71 229.496C326.757 229.947 327.47 229.947 327.422 229.496C326.211 216.267 322.934 203.323 317.709 191.092C317.519 190.688 316.901 191.068 317.091 191.472Z" fill="#E8E8E8"/>
<path d="M316.948 207.124C319.418 208.359 321.698 209.903 323.765 211.708C324.097 212.017 324.62 211.518 324.263 211.209C322.126 209.357 319.822 207.789 317.281 206.507C316.901 206.317 316.521 206.934 316.948 207.124Z" fill="#E8E8E8"/>
<path d="M323.551 200.165C322.886 201.471 322.387 202.849 322.078 204.297C321.983 204.749 322.672 204.939 322.767 204.487C323.076 203.11 323.527 201.78 324.168 200.521C324.382 200.117 323.765 199.761 323.551 200.165Z" fill="#E8E8E8"/>
<path d="M339.083 184.918C337.54 198.716 335.853 212.966 329.132 225.364C328.918 225.768 329.536 226.124 329.75 225.72C336.542 213.204 338.228 198.859 339.796 184.918C339.843 184.466 339.131 184.466 339.083 184.918Z" fill="#E8E8E8"/>
<path d="M330.201 198.431C332.101 202.896 333.502 207.527 334.428 212.277C334.523 212.729 335.212 212.539 335.117 212.087C334.167 207.266 332.718 202.587 330.818 198.075C330.628 197.647 330.035 198.004 330.201 198.431Z" fill="#E8E8E8"/>
<path d="M337.35 202.018C339.131 199.761 340.912 197.505 342.693 195.273C342.978 194.916 342.48 194.418 342.195 194.774C340.413 197.03 338.632 199.286 336.851 201.519C336.566 201.851 337.065 202.374 337.35 202.018Z" fill="#E8E8E8"/>
<path d="M42.2084 227.003C40.6646 225.34 39.0971 223.63 37.8384 221.73C37.2446 220.804 36.6984 219.854 36.2709 218.833C36.0334 218.263 34.9171 215.223 36.4609 215.84C36.8409 215.983 37.0071 215.484 36.8171 215.247C35.2496 213.252 34.2046 210.924 33.3021 208.573C32.4471 206.34 31.6159 204.084 30.8321 201.828C29.9771 199.358 29.2409 196.817 28.9559 194.228C28.7421 192.185 28.5284 189.383 30.0009 187.697C32.1621 185.25 34.3471 189.288 35.3684 190.808C36.7459 192.85 38.0996 194.94 39.4059 197.03C41.9946 201.282 44.3459 205.699 46.0797 210.402C48.0509 215.769 49.1434 221.445 48.8821 227.169C48.8584 227.62 49.5709 227.62 49.5946 227.169C50.1171 215.579 45.1534 204.773 39.0971 195.178C37.6009 192.827 36.1046 190.452 34.4659 188.195C33.5396 186.937 32.0671 185.63 30.4046 186.462C28.8846 187.198 28.3146 189.169 28.1721 190.713C27.9109 193.515 28.4571 196.365 29.2171 199.049C30.0721 202.089 31.2359 205.034 32.3284 207.979C33.3496 210.734 34.4896 213.418 36.3184 215.745C36.4371 215.555 36.5559 215.342 36.6746 215.152C36.0571 214.914 35.5109 214.985 34.9884 215.365C34.8934 215.437 34.7984 215.555 34.8221 215.674C35.3446 220.472 38.5984 224.153 41.7334 227.525C42.0184 227.858 42.5171 227.359 42.2084 227.003Z" fill="#E8E8E8"/>
<path d="M44.1559 204.416C43.4197 197.766 44.2984 191.092 46.7209 184.846C46.5309 184.894 46.3172 184.941 46.1272 185.012C46.8634 185.677 47.3622 186.437 47.6472 187.387C47.7422 187.72 48.2409 187.744 48.3359 187.387C49.951 181.782 52.3022 176.439 55.3897 171.475C55.176 171.451 54.9622 171.427 54.7485 171.38C56.601 176.106 57.7647 181.094 58.1447 186.176C58.4772 190.736 58.596 195.985 55.8172 199.856C55.6747 200.046 55.8172 200.331 56.031 200.379C58.1685 200.877 57.5272 204.25 57.3372 205.77C57.0522 208.287 56.6247 210.805 56.0785 213.275C55.0335 218.049 53.5135 222.727 51.5897 227.216C51.3997 227.644 52.0172 228 52.2072 227.572C54.4634 222.347 56.1497 216.885 57.2185 211.304C57.6935 208.739 58.2397 206.031 58.2872 203.419C58.311 201.922 57.931 200.046 56.2447 199.666C56.3159 199.832 56.3872 200.022 56.4585 200.189C59.2372 196.317 59.1897 191.14 58.9047 186.58C58.5722 181.284 57.3847 176.082 55.461 171.166C55.3422 170.881 54.9859 170.81 54.8197 171.071C51.7084 176.082 49.3334 181.474 47.6947 187.15C47.9322 187.15 48.1459 187.15 48.3834 187.15C48.0509 186.081 47.5047 185.226 46.6734 184.466C46.4597 184.276 46.1747 184.371 46.0797 184.632C43.6334 190.926 42.7547 197.695 43.4909 204.392C43.4909 204.867 44.2034 204.867 44.1559 204.416Z" fill="#E8E8E8"/>
<path d="M30.2621 187.578C33.5634 194.109 36.9358 200.617 40.0946 207.219C43.1821 213.727 45.9134 220.448 47.3859 227.525C47.4809 227.977 48.1696 227.787 48.0746 227.335C46.6021 220.329 43.9421 213.703 40.8783 207.243C37.6958 200.498 34.2284 193.872 30.8559 187.198C30.6659 186.818 30.0484 187.174 30.2621 187.578Z" fill="#E8E8E8"/>
<path d="M54.8909 172.378C54.3922 179.431 52.2072 186.176 50.5922 193.016C48.9772 199.856 47.8609 206.815 47.2434 213.821C47.1959 214.273 47.9084 214.273 47.9559 213.821C48.5972 206.578 49.7847 199.381 51.4947 192.328C53.1097 185.725 55.1047 179.194 55.6034 172.378C55.6272 171.903 54.9147 171.903 54.8909 172.378Z" fill="#E8E8E8"/>
<path d="M29.8821 201.186C33.4684 202.397 36.7459 204.25 39.6671 206.672C40.0234 206.957 40.5221 206.459 40.1659 206.174C37.1496 203.68 33.7771 201.78 30.0721 200.497C29.6209 200.331 29.4309 201.02 29.8821 201.186Z" fill="#E8E8E8"/>
<path d="M45.9133 185.416C46.7208 189.715 47.9083 193.942 49.4521 198.027C49.6183 198.455 50.3071 198.265 50.1408 197.837C48.5971 193.728 47.4333 189.525 46.6021 185.226C46.5071 184.775 45.8421 184.965 45.9133 185.416Z" fill="#E8E8E8"/>
<path d="M48.4785 215.389C51.0435 212.017 53.6797 208.62 57.4322 206.507C57.836 206.293 57.4797 205.675 57.076 205.889C53.2285 208.074 50.4972 211.565 47.861 215.033C47.5997 215.389 48.2172 215.745 48.4785 215.389Z" fill="#E8E8E8"/>
<path d="M295.478 231.444C315.452 231.444 335.45 231.444 355.423 231.444C356.35 231.444 356.35 230.019 355.423 230.019C335.45 230.019 315.452 230.019 295.478 230.019C294.552 230.019 294.552 231.444 295.478 231.444Z" fill="black"/>
<path d="M78.5222 226.693C62.8472 226.693 47.1722 226.693 31.4972 226.693C30.571 226.693 30.571 228.118 31.4972 228.118C47.1722 228.118 62.8472 228.118 78.5222 228.118C79.4247 228.118 79.4247 226.693 78.5222 226.693Z" fill="black"/>
<path d="M238.17 243.033C259.83 243.033 281.49 243.033 303.15 243.033C309.325 243.033 315.476 243.033 321.651 243.033C322.577 243.033 322.577 241.608 321.651 241.608C299.991 241.608 278.331 241.608 256.671 241.608C250.496 241.608 244.345 241.608 238.17 241.608C237.267 241.608 237.243 243.033 238.17 243.033Z" fill="black"/>
<path d="M289.446 231.824C220.333 230.446 151.221 229.069 82.1083 227.691C69.7346 227.454 61.0896 215.365 64.8421 203.585L107.521 69.3027C109.943 61.6789 117.021 56.454 125.025 56.4065C188.983 55.9552 252.942 55.4802 316.901 55.029C328.586 54.934 337.444 65.5977 335.188 77.069L307.947 216.861C306.261 225.696 298.447 232.014 289.446 231.824Z" fill="#ED6A5A" stroke="black" stroke-miterlimit="10"/>
<path d="M288.116 230.66C219.003 229.354 149.891 228.071 80.7784 226.765C68.4046 226.528 59.7596 215.128 63.5121 204.013L106.191 77.2589C108.613 70.0627 115.691 65.1464 123.695 65.0752C187.653 64.6477 251.612 64.1964 315.571 63.7689C327.256 63.6977 336.115 73.7439 333.858 84.5739L306.617 216.553C304.931 224.865 297.117 230.826 288.116 230.66Z" fill="white" stroke="black" stroke-miterlimit="10"/>
<path d="M305.833 220.091C303.553 225.103 299.16 228.879 293.863 230.351C293.412 230.47 293.602 231.159 294.053 231.04C299.516 229.52 304.1 225.601 306.451 220.448C306.617 220.044 306.023 219.664 305.833 220.091Z" fill="black"/>
<path d="M126.853 61.6553C126.141 61.5841 125.88 60.8241 126.07 60.2066C126.331 59.4228 127.091 59.2566 127.803 59.6128C128.302 59.8741 128.563 60.4916 128.35 61.0378C128.112 61.6316 127.423 61.8216 126.853 61.6078C126.426 61.4416 126.236 62.1303 126.663 62.2966C127.59 62.6528 128.73 62.1778 129.062 61.2041C129.395 60.1591 128.73 59.1378 127.732 58.8291C126.616 58.4966 125.642 59.0191 125.357 60.1828C125.12 61.2516 125.785 62.2491 126.853 62.3678C127.305 62.4153 127.305 61.7028 126.853 61.6553Z" fill="black"/>
<path d="M126.022 61.0855C126.307 61.8217 127.352 62.0592 127.97 61.608C128.373 61.2992 128.563 60.7055 128.373 60.183C128.16 59.613 127.542 59.2805 126.996 59.3755C126.236 59.518 125.737 60.3967 126.022 61.0855Z" fill="white"/>
<path d="M134.881 61.4415C134.168 61.3702 133.907 60.6102 134.097 59.9927C134.358 59.209 135.118 59.0427 135.831 59.399C136.329 59.6602 136.591 60.2777 136.377 60.824C136.139 61.4177 135.451 61.6077 134.881 61.394C134.453 61.2277 134.263 61.9165 134.691 62.0827C135.617 62.439 136.757 61.964 137.089 60.9902C137.422 59.9452 136.757 58.924 135.759 58.6152C134.643 58.2827 133.67 58.8052 133.385 59.969C133.147 61.0377 133.812 62.0352 134.881 62.154C135.332 62.2015 135.332 61.489 134.881 61.4415Z" fill="black"/>
<path d="M134.05 60.8716C134.335 61.6079 135.38 61.8454 135.997 61.3941C136.401 61.0854 136.591 60.4916 136.401 59.9691C136.187 59.3991 135.57 59.0666 135.023 59.1616C134.263 59.3041 133.765 60.1829 134.05 60.8716Z" stroke="black" stroke-width="0.5" stroke-miterlimit="10"/>
<path d="M126.378 59.613C126.711 60.3492 127.091 61.0617 127.542 61.7505C127.78 62.1305 128.397 61.7742 128.16 61.3942C127.732 60.7055 127.352 59.993 126.996 59.2567C126.806 58.853 126.188 59.2092 126.378 59.613Z" fill="black"/>
<path d="M126.45 61.7498C126.782 61.4648 127.091 61.156 127.423 60.871C127.708 60.6098 127.993 60.301 128.35 60.111C128.753 59.8973 128.397 59.2798 127.993 59.4935C127.637 59.6835 127.352 59.9923 127.043 60.2773C126.687 60.6098 126.307 60.9423 125.951 61.2748C125.618 61.5598 126.117 62.0585 126.45 61.7498Z" fill="black"/>
<path d="M214.657 77.7815C212.543 84.574 210.406 91.3903 208.292 98.1828C206.986 102.41 210.097 106.685 214.515 106.757C243.988 107.113 273.438 107.445 302.912 107.802C306.142 107.849 308.921 105.522 309.491 102.339C310.75 95.119 312.032 87.899 313.291 80.679C314.003 76.6415 310.892 72.9365 306.783 72.9365C278.165 73.0078 249.546 73.079 220.951 73.1503C218.077 73.1503 215.512 75.0265 214.657 77.7815Z" fill="white" stroke="black" stroke-miterlimit="10"/>
<path d="M101.56 172.473C97.4508 184.277 93.342 196.08 89.2333 207.884C86.692 215.199 92.7245 222.657 101.275 222.752C158.322 223.345 215.393 223.963 272.441 224.557C278.711 224.628 284.102 220.614 285.171 215.08C287.641 202.564 290.087 190.024 292.557 177.508C293.935 170.478 287.902 164.065 279.946 164.065C224.537 164.184 169.128 164.303 113.72 164.422C108.138 164.445 103.222 167.699 101.56 172.473Z" fill="white" stroke="black" stroke-miterlimit="10"/>
<path d="M223.587 118.465C219.763 129.913 215.94 141.36 212.116 152.808C211.973 153.235 212.662 153.425 212.805 152.998C216.628 141.55 220.452 130.103 224.276 118.655C224.418 118.204 223.73 118.014 223.587 118.465Z" fill="#E8E8E8"/>
<path d="M224.038 118.537C233.966 118.014 243.941 117.207 253.892 117.207C263.796 117.207 273.676 118.062 283.532 118.917C283.983 118.964 283.983 118.252 283.532 118.204C273.676 117.349 263.796 116.518 253.892 116.494C243.941 116.494 233.966 117.302 224.038 117.824C223.587 117.848 223.563 118.56 224.038 118.537Z" fill="#E8E8E8"/>
<path d="M283.413 118.892C280.753 130.245 278.07 141.574 275.41 152.926C275.315 153.377 276.003 153.567 276.098 153.116C278.758 141.764 281.442 130.435 284.102 119.082C284.197 118.655 283.508 118.465 283.413 118.892Z" fill="#E8E8E8"/>
<path d="M212.543 154.043C228.836 153.164 245.152 152.95 261.468 153.449C266.123 153.592 270.754 153.782 275.409 154.043C275.861 154.067 275.861 153.354 275.409 153.33C259.117 152.428 242.801 152.238 226.485 152.737C221.83 152.879 217.198 153.069 212.543 153.33C212.092 153.354 212.068 154.067 212.543 154.043Z" fill="#E8E8E8"/>
<path d="M244.178 152.831C254.343 147.535 265.957 146.751 277.191 146.063C277.642 146.039 277.642 145.326 277.191 145.35C265.838 146.063 254.106 146.87 243.822 152.214C243.395 152.428 243.751 153.045 244.178 152.831Z" fill="#E8E8E8"/>
<path d="M260.4 130.221C261.516 135.66 262.086 141.194 262.11 146.751C262.11 147.203 262.822 147.203 262.822 146.751C262.774 141.123 262.205 135.541 261.088 130.031C260.993 129.58 260.305 129.77 260.4 130.221Z" fill="#E8E8E8"/>
<path d="M260.138 130.102C258.69 132.216 257.265 134.353 255.816 136.467C256.03 136.538 256.267 136.586 256.481 136.657C256.362 134.52 256.908 132.525 258.12 130.767C258.381 130.387 257.763 130.031 257.502 130.411C256.22 132.263 255.626 134.425 255.745 136.657C255.768 137.013 256.196 137.132 256.41 136.847C257.858 134.733 259.283 132.596 260.732 130.482C261.017 130.078 260.4 129.722 260.138 130.102Z" fill="#E8E8E8"/>
<path d="M257.74 129.912C256.932 129.556 256.125 129.39 255.246 129.437C254.723 129.461 252.61 130.102 252.918 129.319C253.037 129.01 253.702 128.606 253.963 128.392C254.462 127.989 254.985 127.609 255.531 127.3C256.742 126.611 258.096 126.279 259.473 126.492C259.925 126.564 260.115 125.875 259.663 125.804C256.908 125.376 254.035 126.872 252.253 128.939C251.778 129.485 251.85 130.245 252.633 130.482C253.061 130.601 253.536 130.435 253.94 130.34C255.103 130.079 256.243 129.984 257.383 130.482C257.787 130.72 258.143 130.102 257.74 129.912Z" fill="#E8E8E8"/>
<path d="M260.115 125.756C261.017 123.619 262.798 122.051 265.007 121.386C264.888 121.196 264.77 120.982 264.651 120.792C263.843 121.837 263.368 122.977 263.202 124.284C263.155 124.735 263.867 124.735 263.915 124.284C264.057 123.167 264.485 122.17 265.15 121.291C265.34 121.03 265.173 120.579 264.793 120.697C262.323 121.434 260.4 123.191 259.402 125.566C259.26 125.994 259.948 126.184 260.115 125.756Z" fill="#E8E8E8"/>
<path d="M263.725 124.711C265.577 123.642 267.762 123.619 269.638 124.64C269.638 124.426 269.638 124.236 269.638 124.022C268.142 124.735 266.717 125.59 265.363 126.54C264.983 126.801 265.34 127.419 265.72 127.157C267.073 126.207 268.498 125.352 269.995 124.64C270.232 124.521 270.208 124.141 269.995 124.022C267.881 122.859 265.435 122.882 263.368 124.094C262.965 124.331 263.321 124.949 263.725 124.711Z" fill="#E8E8E8"/>
<path d="M265.102 127.205C266.646 128.06 268.142 129.462 267.715 131.409C267.928 131.385 268.142 131.362 268.356 131.314C267.358 129.723 265.648 128.82 263.772 128.892C263.321 128.915 263.321 129.628 263.772 129.604C265.411 129.533 266.883 130.293 267.738 131.67C267.881 131.908 268.332 131.908 268.38 131.575C268.855 129.319 267.287 127.585 265.435 126.564C265.055 126.374 264.698 126.992 265.102 127.205Z" fill="#E8E8E8"/>
<path d="M263.155 129.485C264.247 135.185 264.651 140.956 264.342 146.751C264.318 147.203 265.031 147.203 265.055 146.751C265.363 140.909 264.96 135.043 263.843 129.295C263.748 128.844 263.06 129.034 263.155 129.485Z" fill="#E8E8E8"/>
<path d="M262.371 140.672C263.154 140.767 263.891 140.624 264.603 140.315C265.031 140.125 264.651 139.508 264.247 139.698C263.653 139.983 263.012 140.054 262.371 139.959C261.919 139.888 261.919 140.6 262.371 140.672Z" fill="#E8E8E8"/>
<path d="M215.631 144.329C219.526 144.567 223.468 144.638 227.34 145.089C229.24 145.303 231.068 145.873 232.945 146.158C234.773 146.419 236.555 146.158 238.383 145.825C246.387 144.424 254.438 145.184 262.442 146.039C262.893 146.087 262.893 145.374 262.442 145.327C254.7 144.495 246.838 143.688 239.096 144.97C236.911 145.327 234.845 145.754 232.636 145.374C230.855 145.065 229.145 144.59 227.363 144.377C223.492 143.925 219.55 143.854 215.655 143.617C215.18 143.569 215.18 144.282 215.631 144.329Z" fill="#E8E8E8"/>
<path d="M261.54 135.755C261.635 136.159 262.038 136.254 262.418 136.183C263.155 136.064 263.915 135.803 264.627 135.589C265.078 135.47 264.888 134.782 264.437 134.9C264.01 135.019 263.582 135.138 263.155 135.233C262.965 135.28 262.751 135.328 262.561 135.399C262.466 135.423 262.371 135.447 262.276 135.47C262.11 135.447 262.11 135.47 262.228 135.542C262.133 135.114 261.445 135.304 261.54 135.755Z" fill="#E8E8E8"/>
<path d="M231.448 126.683C229.097 125.923 232.161 121.885 233.8 123.69C234.393 124.332 234.37 125.448 233.823 126.113C233.206 126.873 232.137 126.992 231.306 126.517C230.902 126.279 230.546 126.897 230.95 127.134C232.161 127.823 233.8 127.562 234.56 126.35C235.248 125.234 235.058 123.5 233.847 122.812C231.211 121.339 228.052 126.35 231.282 127.395C231.71 127.514 231.9 126.825 231.448 126.683Z" fill="#E8E8E8"/>
<path d="M286.358 120.959C294.029 121.363 301.63 122.265 309.182 123.69C309.633 123.785 309.823 123.096 309.372 123.001C301.772 121.553 294.101 120.626 286.358 120.223C285.907 120.223 285.907 120.935 286.358 120.959Z" fill="#E8E8E8"/>
<path d="M286.239 123.025C293.555 123.809 300.893 124.64 308.184 125.519C308.636 125.567 308.636 124.854 308.184 124.807C300.869 123.928 293.555 123.097 286.239 122.313C285.788 122.265 285.788 122.978 286.239 123.025Z" fill="#E8E8E8"/>
<path d="M286.002 125.163C290.42 125.899 294.861 126.374 299.326 126.516C299.777 126.54 299.777 125.828 299.326 125.804C294.932 125.638 290.538 125.21 286.192 124.474C285.741 124.403 285.551 125.091 286.002 125.163Z" fill="#E8E8E8"/>
<path d="M283.342 137.964C289.351 138.819 295.383 139.532 301.416 140.102C301.867 140.149 301.867 139.437 301.416 139.389C295.431 138.819 289.47 138.107 283.532 137.276C283.081 137.204 282.891 137.893 283.342 137.964Z" fill="#E8E8E8"/>
<path d="M282.891 140.006C287.665 140.838 292.438 141.526 297.236 142.096C297.687 142.144 297.687 141.431 297.236 141.384C292.486 140.838 287.783 140.149 283.081 139.318C282.63 139.223 282.44 139.911 282.891 140.006Z" fill="#E8E8E8"/>
<path d="M282.392 143.023C288.377 144.21 294.41 145.018 300.49 145.398C300.941 145.422 300.941 144.709 300.49 144.685C294.481 144.282 288.496 143.498 282.582 142.334C282.131 142.239 281.941 142.928 282.392 143.023Z" fill="#E8E8E8"/>
<path d="M111.843 173.589C122.768 174.135 133.741 173.565 144.666 173.399C155.591 173.233 166.492 173.185 177.417 173.209C199.338 173.257 221.236 173.66 243.157 174.159C255.507 174.444 267.833 174.777 280.183 175.085C280.634 175.109 280.634 174.397 280.183 174.373C258.286 173.803 236.364 173.209 214.443 172.853C192.522 172.497 170.624 172.33 148.703 172.615C136.424 172.758 124.098 173.494 111.843 172.853C111.368 172.853 111.368 173.565 111.843 173.589Z" fill="#E8E8E8"/>
<path d="M111.416 89.9414C112.841 90.1552 113.838 89.1814 116.665 87.0914C120.916 83.9327 121.818 83.8377 122.46 83.8852C122.768 83.9089 123.338 84.0039 126.022 86.0227C129.941 88.9677 130.178 89.8702 131.461 89.9414C133.788 90.0364 134.121 87.0914 136.9 86.8302C139.417 86.5927 140.201 88.8964 143.312 88.7777C145.711 88.7064 147.112 87.2339 147.326 87.5427C147.587 87.9464 145.331 91.0577 142.077 91.5564C139.678 91.9127 139.156 90.5114 136.828 90.8439C133.598 91.3189 132.981 94.2639 130.606 94.0502C129.205 93.9077 129.015 92.8627 126.592 91.2002C125.31 90.3214 123.077 88.8014 120.631 88.6114C116.142 88.2789 113.815 92.6252 111.107 91.3664C109.801 90.7727 109.065 89.1577 109.231 88.9677C109.35 88.7777 110.181 89.7514 111.416 89.9414Z" fill="#5B399B"/>
<path d="M222.685 77.758C221.236 84.3368 219.455 90.8443 217.365 97.2568C217.222 97.6843 217.911 97.8743 218.053 97.4468C220.143 91.0343 221.925 84.5268 223.373 77.948C223.468 77.4968 222.78 77.3068 222.685 77.758Z" fill="#E8E8E8"/>
<path d="M217.792 97.8024C220.238 98.0874 222.685 97.9687 225.155 97.9212C227.72 97.8499 230.285 97.8024 232.873 97.7312C238.003 97.6124 243.157 97.4699 248.287 97.3512C248.738 97.3512 248.738 96.6387 248.287 96.6387C243.157 96.7574 238.003 96.8999 232.873 97.0187C230.38 97.0899 227.886 97.1374 225.392 97.2087C222.851 97.2799 220.333 97.3987 217.792 97.1137C217.341 97.0424 217.341 97.7549 217.792 97.8024Z" fill="#E8E8E8"/>
<path d="M226.627 84.384C225.725 88.6115 224.965 92.8628 224.323 97.1378C224.252 97.589 224.941 97.779 225.012 97.3278C225.653 93.0528 226.413 88.8015 227.316 84.574C227.411 84.1228 226.722 83.9327 226.627 84.384Z" fill="#E8E8E8"/>
<path d="M227.173 84.7643C228.432 84.8355 229.667 84.9543 230.902 85.1918C230.831 85.0493 230.736 84.9068 230.665 84.7643C229.548 88.778 228.598 92.8393 227.815 96.9243C227.72 97.3755 228.408 97.5655 228.503 97.1143C229.287 93.0293 230.237 88.968 231.353 84.9543C231.401 84.788 231.306 84.5505 231.116 84.5268C229.81 84.2893 228.527 84.1468 227.197 84.0755C226.698 84.028 226.698 84.7405 227.173 84.7643Z" fill="#E8E8E8"/>
<path d="M233.301 88.4214C232.945 91.3189 232.47 94.1689 231.876 97.0189C231.781 97.4702 232.47 97.6602 232.565 97.2089C233.182 94.3114 233.657 91.3664 234.013 88.4214C234.061 87.9702 233.348 87.9702 233.301 88.4214Z" fill="#E8E8E8"/>
<path d="M233.657 88.4689C234.987 88.4214 236.341 88.4451 237.671 88.5401C237.552 88.3976 237.433 88.2314 237.338 88.0889C236.816 90.9151 236.365 93.7413 235.985 96.5913C235.913 97.0426 236.626 97.0426 236.697 96.5913C237.077 93.8126 237.505 91.0576 238.027 88.2789C238.075 88.0414 237.932 87.8514 237.695 87.8276C236.365 87.7326 235.011 87.7326 233.681 87.7564C233.182 87.7564 233.182 88.4689 233.657 88.4689Z" fill="#E8E8E8"/>
<path d="M241.97 81.9611C241.138 86.9249 240.165 91.8886 239.096 96.8049C239.001 97.2561 239.69 97.4461 239.785 96.9949C240.853 92.0786 241.827 87.1149 242.658 82.1511C242.753 81.6999 242.065 81.5099 241.97 81.9611Z" fill="#E8E8E8"/>
<path d="M242.54 81.6053C242.54 81.6528 242.54 81.6765 242.54 81.724C242.54 81.914 242.706 82.0803 242.896 82.0803C243.086 82.0803 243.252 81.914 243.252 81.724C243.252 81.6765 243.252 81.6528 243.252 81.6053C243.252 81.4153 243.086 81.249 242.896 81.249C242.706 81.2728 242.54 81.4153 242.54 81.6053Z" fill="#E8E8E8"/>
<path d="M242.706 82.199C243.798 82.4365 244.843 82.5552 245.96 82.5315C245.841 82.389 245.722 82.2227 245.627 82.0802C244.701 87.044 243.846 92.0315 243.038 97.019C242.967 97.4702 243.656 97.6602 243.727 97.209C244.535 92.2215 245.39 87.234 246.316 82.2702C246.363 82.0565 246.221 81.819 245.983 81.819C244.938 81.819 243.941 81.724 242.92 81.5102C242.445 81.4152 242.255 82.0802 242.706 82.199Z" fill="#E8E8E8"/>
<path d="M253.56 80.5838C261.635 80.4888 269.686 80.5363 277.761 80.7501C278.212 80.7501 278.212 80.0375 277.761 80.0375C269.686 79.8475 261.635 79.8 253.56 79.8713C253.108 79.8713 253.108 80.5838 253.56 80.5838Z" fill="#E8E8E8"/>
<path d="M254.106 83.4813C259.117 83.8138 264.152 83.7425 269.163 83.2675C269.615 83.22 269.615 82.5075 269.163 82.555C264.152 83.03 259.117 83.1013 254.106 82.7688C253.655 82.745 253.655 83.4575 254.106 83.4813Z" fill="#E8E8E8"/>
<path d="M253.013 87.0677C259.901 86.9489 266.788 87.0677 273.676 87.4239C274.127 87.4477 274.127 86.7352 273.676 86.7114C266.788 86.3314 259.901 86.2127 253.013 86.3552C252.562 86.3552 252.562 87.0677 253.013 87.0677Z" fill="#E8E8E8"/>
<path d="M289.969 98.088C287.546 97.7792 286.382 95.3567 285.694 93.2905C285.052 91.343 284.815 89.3005 285.551 87.353C286.834 83.933 290.325 81.178 293.84 80.3942C297.497 79.563 301.202 81.5105 302.96 84.7642C304.812 88.1842 304.171 92.578 302.01 95.6892C299.35 99.513 293.745 99.9405 289.85 97.9217C289.446 97.708 289.09 98.3255 289.494 98.5392C293.222 100.463 298.376 100.368 301.535 97.3517C304.622 94.4067 305.62 89.158 304.005 85.263C302.461 81.5817 298.566 79.0167 294.528 79.5392C290.538 80.0617 286.525 83.1017 285.005 86.8305C283.984 89.3717 284.411 92.0317 285.409 94.5017C286.264 96.5917 287.617 98.4917 289.992 98.8005C290.42 98.848 290.42 98.1355 289.969 98.088Z" fill="#E8E8E8"/>
<path d="M290.966 81.3435C292.082 84.2173 293.103 87.1385 294.077 90.0835C294.22 90.511 294.908 90.321 294.766 89.8935C293.792 86.9485 292.771 84.051 291.655 81.1535C291.488 80.7498 290.8 80.916 290.966 81.3435Z" fill="#E8E8E8"/>
<path d="M294.813 90.488C297.616 88.5405 300.395 86.5218 303.102 84.4555C303.458 84.1705 303.102 83.553 302.746 83.838C300.015 85.9043 297.26 87.923 294.457 89.8705C294.077 90.1318 294.433 90.7493 294.813 90.488Z" fill="#E8E8E8"/>
<path d="M294.695 90.5112C297.877 90.3687 301.012 89.8462 304.076 88.9437C304.503 88.8249 304.337 88.1362 303.886 88.2549C300.893 89.1337 297.83 89.6562 294.695 89.7749C294.243 89.8224 294.243 90.5349 294.695 90.5112Z" fill="#E8E8E8"/>
<path d="M294.125 90.2735C292.225 92.7198 290.348 95.166 288.448 97.6123C288.163 97.9685 288.781 98.3248 289.066 97.9685C290.966 95.5223 292.842 93.076 294.742 90.6298C295.027 90.2735 294.41 89.9173 294.125 90.2735Z" fill="#E8E8E8"/>
<path d="M112.318 172.378C111.725 172.212 112.081 171.428 112.342 171.167C112.627 170.882 113.34 170.906 113.72 170.906C114.408 170.882 115.097 170.906 115.81 170.882C117.235 170.882 118.66 170.858 120.085 170.858C122.935 170.834 125.785 170.834 128.635 170.811C134.263 170.787 139.868 170.739 145.497 170.716C156.826 170.644 168.131 170.597 179.459 170.573C202.022 170.502 224.561 170.502 247.123 170.621C253.298 170.668 259.497 170.668 265.672 170.929C268.736 171.048 271.799 171.238 274.863 171.523C276.383 171.666 277.927 171.832 279.447 172.022C279.946 172.093 280.444 172.141 280.943 172.236C281.347 172.307 281.584 172.236 281.727 172.616C282.107 173.518 280.896 174.444 280.159 174.492C279.708 174.516 279.708 175.228 280.159 175.204C281.751 175.086 282.867 173.471 282.273 171.951C282.226 171.832 282.154 171.713 282.036 171.713C270.707 170.027 259.236 170.027 247.812 169.956C236.008 169.884 224.228 169.861 212.424 169.837C188.769 169.837 165.091 169.932 141.436 170.051C134.786 170.098 128.136 170.122 121.486 170.169C119.895 170.169 118.327 170.193 116.736 170.193C115.406 170.193 113.838 169.979 112.556 170.359C111.321 170.716 110.513 172.663 112.128 173.114C112.556 173.186 112.746 172.497 112.318 172.378Z" fill="#E8E8E8"/>
<path d="M110.561 176.558C108.186 185.132 105.288 193.563 101.845 201.78C101.678 202.208 102.367 202.398 102.533 201.97C105.977 193.753 108.875 185.322 111.25 176.748C111.368 176.297 110.68 176.107 110.561 176.558Z" fill="#E8E8E8"/>
<path d="M110.798 177.27C116.902 178.007 123.196 177.508 129.323 177.437C129.775 177.437 129.775 176.724 129.323 176.724C123.196 176.819 116.902 177.294 110.798 176.558C110.323 176.51 110.347 177.223 110.798 177.27Z" fill="#E8E8E8"/>
<path d="M128.563 177.389C126.545 184.846 124.407 192.256 122.151 199.666C122.008 200.118 122.697 200.284 122.84 199.856C125.096 192.47 127.233 185.036 129.252 177.579C129.371 177.128 128.682 176.938 128.563 177.389Z" fill="#E8E8E8"/>
<path d="M102.177 202.136C105.526 202.113 108.851 202.089 112.2 202.065C113.838 202.065 115.453 202.041 117.092 202.041C118.541 202.041 119.99 202.089 121.415 201.756C121.866 201.661 121.676 200.973 121.225 201.068C119.728 201.424 118.161 201.329 116.617 201.329C114.978 201.329 113.363 201.353 111.725 201.353C108.542 201.376 105.36 201.4 102.177 201.4C101.726 201.424 101.726 202.136 102.177 202.136Z" fill="#E8E8E8"/>
<path d="M132.292 177.556C148.347 177.104 164.426 177.128 180.481 177.651C180.932 177.674 180.932 176.962 180.481 176.938C164.426 176.416 148.347 176.368 132.292 176.843C131.841 176.843 131.841 177.556 132.292 177.556Z" fill="#E8E8E8"/>
<path d="M131.627 181.736C140.937 181.712 150.247 181.712 159.581 181.688C160.032 181.688 160.032 180.976 159.581 180.976C150.271 180.999 140.961 180.999 131.627 181.023C131.152 181.023 131.152 181.736 131.627 181.736Z" fill="#E8E8E8"/>
<path d="M122.056 201.305C122.483 200.592 122.792 199.832 122.958 199.049C123.053 198.597 122.365 198.407 122.27 198.859C122.103 199.595 121.842 200.307 121.438 200.949C121.201 201.329 121.818 201.685 122.056 201.305Z" fill="#E8E8E8"/>
<path d="M211.166 179.646C209.266 188.718 207.437 197.791 205.656 206.863C205.561 207.314 206.25 207.504 206.345 207.053C208.126 197.981 209.955 188.908 211.855 179.836C211.95 179.384 211.261 179.194 211.166 179.646Z" fill="#E8E8E8"/>
<path d="M205.798 207.456C215.56 207.717 225.297 207.979 235.058 208.24C244.701 208.501 254.343 208.905 263.986 208.905C264.437 208.905 264.437 208.192 263.986 208.192C254.343 208.192 244.701 207.765 235.058 207.527C225.297 207.266 215.56 207.005 205.798 206.744C205.347 206.72 205.347 207.432 205.798 207.456Z" fill="#E8E8E8"/>
<path d="M206.511 207.385C209.456 204.202 212.401 200.996 215.346 197.814C215.18 197.814 215.013 197.814 214.847 197.814C215.821 199.025 216.961 200.022 218.291 200.83C218.695 201.067 219.051 200.45 218.647 200.212C217.365 199.452 216.272 198.479 215.346 197.315C215.227 197.172 214.966 197.196 214.847 197.315C211.902 200.497 208.957 203.704 206.012 206.886C205.703 207.219 206.202 207.717 206.511 207.385Z" fill="#E8E8E8"/>
<path d="M218.481 200.592C221.639 196.864 224.822 193.159 227.981 189.43C228.266 189.074 227.767 188.575 227.482 188.931C224.323 192.66 221.141 196.365 217.982 200.094C217.673 200.426 218.172 200.925 218.481 200.592Z" fill="#E8E8E8"/>
<path d="M227.482 189.074C228.123 189.929 228.765 190.761 229.406 191.616C229.548 191.806 229.762 191.853 229.976 191.687C232.873 189.312 235.7 186.818 238.431 184.253C238.763 183.944 238.265 183.446 237.932 183.754C235.201 186.319 232.375 188.813 229.477 191.188C229.667 191.212 229.857 191.236 230.047 191.259C229.406 190.404 228.765 189.573 228.123 188.718C227.815 188.338 227.197 188.694 227.482 189.074Z" fill="#E8E8E8"/>
<path d="M237.671 184.561C241.637 187.696 245.461 190.998 249.166 194.418C249.498 194.726 249.997 194.228 249.665 193.919C245.96 190.475 242.136 187.198 238.17 184.063C237.813 183.778 237.315 184.276 237.671 184.561Z" fill="#E8E8E8"/>
<path d="M249.593 194.323C254.486 191.212 258.001 186.414 262.775 183.137C263.155 182.875 262.798 182.258 262.418 182.519C257.645 185.797 254.13 190.594 249.237 193.705C248.857 193.943 249.213 194.56 249.593 194.323Z" fill="#E8E8E8"/>
<path d="M258.618 183.873C260.115 183.612 261.563 183.232 263.012 182.781C262.87 182.638 262.727 182.496 262.585 182.353C262.323 183.541 262.086 184.728 261.825 185.916C261.73 186.367 262.418 186.557 262.513 186.106C262.775 184.918 263.012 183.731 263.273 182.543C263.321 182.282 263.107 182.021 262.846 182.116C261.397 182.567 259.948 182.947 258.452 183.208C258.001 183.279 258.191 183.968 258.618 183.873Z" fill="#E8E8E8"/>
<path d="M219.906 181.521C219.075 190 218.22 198.479 217.388 206.957C217.341 207.409 218.053 207.409 218.101 206.957C218.932 198.479 219.787 190 220.618 181.521C220.642 181.07 219.93 181.07 219.906 181.521Z" fill="#E8E8E8"/>
<path d="M230.451 180.025C229.572 189.121 228.86 198.241 228.337 207.361C228.313 207.813 229.026 207.813 229.05 207.361C229.572 198.241 230.285 189.121 231.163 180.025C231.187 179.55 230.475 179.574 230.451 180.025Z" fill="#E8E8E8"/>
<path d="M250.353 179.764C249.427 189.264 248.762 198.764 248.358 208.312C248.335 208.763 249.047 208.763 249.071 208.312C249.475 198.788 250.14 189.264 251.066 179.764C251.113 179.313 250.401 179.313 250.353 179.764Z" fill="#E8E8E8"/>
<path d="M238.455 176.297C237.837 186.889 237.22 197.458 236.602 208.05C236.578 208.502 237.291 208.502 237.315 208.05C237.932 197.458 238.55 186.889 239.167 176.297C239.191 175.822 238.478 175.822 238.455 176.297Z" fill="#E8E8E8"/>
<path d="M164.426 181.616C169.247 182.044 174.068 180.975 178.889 181.569C179.341 181.616 179.341 180.904 178.889 180.856C174.068 180.262 169.247 181.331 164.426 180.904C163.951 180.88 163.974 181.592 164.426 181.616Z" fill="#E8E8E8"/>
<path d="M89.6371 138.771C98.0446 137.536 106.143 140.909 113.601 144.424C120.512 147.701 127.352 151.05 135.023 152.024C151.411 154.066 167.11 147.179 182.523 142.832C191.572 140.291 200.953 138.51 210.382 139.697C210.833 139.745 210.833 139.032 210.382 138.985C193.686 136.871 177.916 143.901 162.193 148.247C154.213 150.456 145.948 152.119 137.636 151.572C129.3 151.026 121.961 147.654 114.527 144.115C106.713 140.386 98.3059 136.8 89.4471 138.106C88.9959 138.154 89.2096 138.842 89.6371 138.771Z" fill="#E8E8E8"/>
<path d="M134.619 145.255C155.543 146.371 174.923 137.037 194.944 132.548C200.716 131.266 206.582 130.363 212.519 130.245C212.971 130.245 212.971 129.532 212.519 129.532C191.619 130.007 172.501 139.626 152.171 143.307C146.376 144.352 140.509 144.875 134.619 144.566C134.168 144.495 134.168 145.207 134.619 145.255Z" fill="#E8E8E8"/>
<path d="M94.3633 120.959C103.84 121.624 112.485 125.851 121.225 129.152C130.107 132.501 139.37 134.377 148.87 134.14C154.308 133.997 159.723 133.214 164.996 131.836C165.447 131.717 165.257 131.029 164.806 131.147C155.234 133.665 145.188 134.14 135.427 132.454C126.117 130.839 117.733 126.777 108.922 123.619C104.22 121.932 99.3745 120.602 94.3633 120.27C93.8883 120.222 93.912 120.935 94.3633 120.959Z" fill="#E8E8E8"/>
<path d="M158.797 75.2873C158.607 76.4748 158.298 77.6386 157.871 78.7786C157.776 79.0161 158.013 79.2298 158.203 79.2298C173.332 79.8948 188.461 80.0373 203.59 79.6336C204.041 79.6098 204.041 78.8973 203.59 78.9211C188.461 79.3248 173.308 79.2061 158.203 78.5173C158.322 78.6598 158.441 78.8261 158.536 78.9686C158.963 77.8286 159.272 76.6886 159.462 75.4773C159.557 75.0261 158.868 74.8361 158.797 75.2873Z" fill="#E8E8E8"/>
<path d="M159.272 75.549C174.496 75.739 189.696 75.929 204.92 76.119C205.371 76.119 205.371 75.4065 204.92 75.4065C189.696 75.2165 174.496 75.0265 159.272 74.8365C158.821 74.8128 158.821 75.5253 159.272 75.549Z" fill="#E8E8E8"/>
<path d="M204.848 75.691C204.373 76.8073 204.017 77.971 203.827 79.1823C203.756 79.6335 204.445 79.8235 204.516 79.3723C204.706 78.2323 205.015 77.116 205.466 76.0473C205.632 75.6198 205.015 75.2635 204.848 75.691Z" fill="#E8E8E8"/>
<path d="M36.6033 211.992C32.5421 212.966 28.4571 213.94 24.3958 214.913C26.5096 228.261 28.1721 234.911 29.3358 234.816C30.3333 234.745 30.9746 229.757 31.2596 219.853C33.5158 219.07 35.7721 218.31 38.0283 217.526C37.5533 215.697 37.0783 213.845 36.6033 211.992Z" fill="#212121" stroke="#212121" stroke-width="3" stroke-miterlimit="10"/>
<path d="M64.3671 162.236C63.8446 163.804 63.0609 166.297 62.2534 169.456C60.5671 176.035 60.4959 178.837 58.7859 187.197C56.7434 197.149 55.6984 198.859 55.0334 199.832C52.0171 204.155 47.8371 206.126 45.5571 207.195C40.0471 209.784 34.9171 210.021 31.8771 209.902C31.7584 211.304 31.6396 214.724 33.6821 218.167C34.7034 219.877 35.9146 221.041 36.8409 221.777C39.9046 221.944 45.1771 221.825 51.1146 219.521C53.6559 218.547 60.1396 215.935 65.0796 209.451C68.8796 204.464 69.9246 199.595 71.0884 194.132C73.3446 183.611 70.5421 182.02 73.3446 173.09C75.0309 167.675 76.9784 165.015 75.6009 163.02C73.9621 160.574 68.8084 161.215 64.3671 162.236Z" fill="#ED6A5A"/>
<path opacity="0.09" d="M64.6522 162.26C64.4147 164.801 64.0584 168.316 63.5597 172.496C63.1084 176.177 62.6097 180.167 61.8022 184.822C60.4009 192.802 59.6884 196.792 58.1684 200.117C56.8384 203.015 54.2734 208.382 48.3834 212.444C42.2559 216.647 35.9147 217.051 33.0884 217.075C32.7559 216.315 32.4234 215.341 32.2097 214.225C31.9009 212.61 31.9009 211.209 31.9959 210.164C33.8247 210.187 36.3422 210.045 39.2634 209.404C44.3459 208.264 47.7422 206.197 48.6209 205.651C50.7822 204.297 53.0384 202.896 54.8909 200.141C56.1497 198.289 56.6722 196.602 57.5272 193.087C58.7859 187.91 59.4272 185.345 59.9497 181.545C60.5197 177.151 61.7784 170.739 64.6522 162.26Z" fill="#3D3D3D"/>
<path opacity="0.12" d="M32.0434 210.093C31.9484 211.138 31.9009 212.563 32.2334 214.201C32.4709 215.413 32.8271 216.41 33.1596 217.194C36.4134 216.505 46.6496 213.893 52.9909 204.535C54.8671 201.756 55.9834 199.025 56.6721 196.674C56.0309 198.17 54.9146 200.355 52.9434 202.469C49.5471 206.103 45.6521 207.433 42.8496 208.383C40.4746 209.214 36.7696 210.164 32.0434 210.093Z" fill="#3D3D3D"/>
<path d="M62.6332 233.795C60.7807 238.901 58.9282 244.007 57.0757 249.137C70.0907 250.657 76.717 250.871 76.9545 249.731C77.1445 248.852 73.297 247.119 65.4595 244.577C66.5283 241.419 67.6207 238.26 68.6895 235.101C66.6707 234.674 64.652 234.222 62.6332 233.795Z" fill="#212121" stroke="#212121" stroke-width="3" stroke-miterlimit="10"/>
<path d="M81.9421 164.943C82.2033 168.458 82.4408 173.256 82.3933 178.908C82.2746 194.512 80.1608 206.221 79.5433 209.403C77.9521 217.74 75.1971 228.498 70.2333 240.516C68.6658 240.587 64.7946 240.54 60.9233 238.117C58.5483 236.621 57.0758 234.816 56.2683 233.605C57.7171 230.85 59.4983 227.216 61.2321 222.775C64.2958 214.937 65.6258 208.691 66.4808 204.582C68.4046 195.343 69.3783 190.736 68.5946 185.796C67.8346 181.117 66.5996 180.31 66.7896 176.32C66.8371 175.441 67.4308 165.205 73.8433 163.257C77.1446 162.283 80.4221 163.993 81.9421 164.943Z" fill="#ED6A5A"/>
<path opacity="0.14" d="M76.3124 163.162C78.4261 164.064 77.7374 170.002 77.5474 171.569C75.0061 193.942 78.4974 181.901 75.4336 195.699C71.2299 214.652 65.5536 232.868 63.5586 239.138C63.0836 239.138 62.4186 239.091 61.7061 238.758C61.0411 238.449 60.8986 238.046 60.0911 237.404C59.2124 236.716 58.9036 236.763 58.2386 236.288C57.6449 235.861 56.9086 235.101 56.3861 233.699C57.6211 231.277 59.0936 228.166 60.5899 224.413C62.4899 219.663 63.5349 216.053 64.6749 212.158C64.6749 212.158 68.2374 199.879 68.8786 190.498C68.9974 188.622 68.9024 187.339 68.7599 186.413C68.5461 184.941 68.2374 184.204 67.7624 182.447C67.6436 181.996 66.9786 179.431 66.7649 177.507C66.1711 171.831 69.1874 167.271 70.6124 165.632C71.1111 165.038 71.7761 164.397 72.7261 163.898C73.0824 163.732 75.1486 162.663 76.3124 163.162Z" fill="#3D3D3D"/>
<path opacity="0.11" d="M70.8745 201.803C70.4708 207.574 69.117 209.284 65.1745 223.463C63.4408 229.686 62.1583 234.792 61.327 238.069C60.662 237.808 59.8308 237.381 58.9758 236.716C57.6933 235.718 56.9333 234.626 56.5058 233.866C57.6933 231.419 59.2845 227.928 60.8283 223.582C61.4458 221.872 61.8495 220.566 62.2295 219.378C67.6445 202.017 68.4995 196.744 68.7608 193.134C68.9745 190.071 68.8083 187.601 68.7608 186.817C68.5233 183.539 67.9533 181.283 67.9533 181.283C67.9533 181.283 71.6583 190.593 70.8745 201.803Z" fill="#3D3D3D"/>
<path d="M40.8546 154.328C40.9021 154.257 41.1396 154.281 41.6146 154.328C42.4221 154.399 42.6833 154.518 43.2058 154.566C43.7046 154.589 44.3696 154.637 44.5596 154.328C44.8208 153.924 43.9896 153.141 42.8258 151.454C40.8308 148.604 40.9258 147.607 41.0921 147.156C41.1396 147.037 41.2821 146.586 41.5908 146.514C41.9946 146.419 42.4458 146.966 42.8733 147.512C43.5858 148.391 43.8708 149.079 43.9421 149.032C44.0846 148.984 43.2533 147.203 43.4433 145.018C43.4908 144.424 43.5858 143.569 44.0133 143.451C44.3933 143.332 44.9633 143.807 45.4146 144.567C45.4146 144.472 45.5333 143.166 45.9846 143.071C46.3408 142.999 46.7446 143.688 47.1483 144.353C47.4808 144.899 47.6946 145.398 47.8133 145.731C47.7896 145.066 48.1458 144.519 48.6446 144.353C49.1908 144.187 49.6896 144.614 49.7133 144.638C50.2596 145.137 50.2121 146.016 50.2121 146.324C50.1646 147.678 50.3071 149.958 50.6158 153.283C51.2333 153.046 52.1358 152.618 53.1333 151.953C54.1546 151.264 55.2233 150.362 57.8596 147.203C58.8808 145.968 59.4033 145.351 60.3058 144.139C63.5596 139.793 65.4833 137.228 67.4308 133.594C68.0483 132.431 69.0458 130.459 71.1121 128.702C71.7771 128.132 73.0833 127.063 73.8433 127.467C74.3896 127.752 74.4371 128.654 74.4133 129.984C74.3896 132.882 74.3658 134.307 73.8671 136.278C72.7271 140.838 70.6133 144.021 70.1383 144.733C68.2621 147.488 66.3858 149.079 63.9633 151.146C61.4458 153.283 59.3558 155.041 56.0546 156.371C53.8933 157.226 52.1833 157.534 50.3783 157.867C47.3858 158.389 45.8421 158.651 44.2983 157.986C42.0896 157.036 40.5933 154.684 40.8546 154.328Z" fill="white"/>
<path d="M73.7483 127.134C71.1833 127.491 69.6633 129.889 68.2858 131.861C66.5283 134.378 64.8658 136.967 63.1558 139.508C61.4458 142.073 59.6646 144.59 57.6458 146.942C56.6721 148.058 55.6746 149.15 54.5821 150.148C53.3708 151.288 52.0408 152.594 50.4496 153.14C50.0221 153.283 50.2121 153.972 50.6396 153.829C53.1333 152.998 55.2471 150.623 56.9808 148.747C58.9758 146.585 60.7571 144.234 62.4433 141.812C64.1533 139.342 65.7921 136.801 67.4546 134.307C69.0221 131.979 70.8746 128.251 73.9383 127.823C74.3896 127.752 74.1996 127.087 73.7483 127.134Z" fill="black"/>
<path d="M51.2808 158.247C54.3208 157.962 56.8858 156.561 59.4271 154.946C61.9446 153.355 64.3434 151.526 66.4809 149.436C69.2359 146.776 71.5634 143.617 73.1071 140.078C74.6271 136.54 75.3396 132.668 74.8409 128.821C74.7934 128.37 74.0809 128.37 74.1284 128.821C74.9359 135.257 72.3709 141.646 68.2384 146.538C66.3859 148.723 64.2246 150.647 61.9446 152.357C58.8096 154.685 55.2471 157.178 51.2571 157.558C50.8296 157.582 50.8296 158.295 51.2808 158.247Z" fill="black"/>
<path d="M51.2808 157.511C49.8796 157.487 48.5258 157.819 47.1483 157.914C45.5571 158.033 44.2271 157.558 42.9208 156.679C42.3983 156.323 41.8283 155.896 41.4958 155.326C40.8071 154.114 42.2321 154.827 42.7308 154.969C43.5383 155.207 44.2746 155.112 44.8921 154.566C45.2483 154.257 44.7258 153.758 44.3933 154.067C43.3246 155.017 41.3296 152.903 40.6171 154.114C40.0708 155.041 41.3296 156.371 41.9471 156.869C43.0158 157.748 44.3221 158.461 45.7233 158.627C47.5758 158.841 49.4283 158.199 51.2808 158.247C51.7321 158.223 51.7321 157.511 51.2808 157.511Z" fill="black"/>
<path d="M44.9396 154.162C44.4646 152.571 43.3959 151.336 42.5409 149.934C42.4221 149.744 40.9971 147.156 41.4721 146.942C42.3034 146.562 43.4909 148.961 43.6571 149.436C43.7996 149.863 44.4884 149.673 44.3459 149.246C43.9659 148.153 43.3009 147.132 42.3034 146.467C41.7809 146.111 41.0209 145.849 40.7834 146.657C40.4746 147.749 41.2821 149.222 41.8284 150.124C42.6834 151.526 43.7996 152.737 44.2746 154.352C44.3934 154.803 45.0821 154.613 44.9396 154.162Z" fill="black"/>
<path d="M44.5595 149.222C44.3458 148.343 44.0608 147.441 43.9183 146.538C43.8233 145.992 43.7995 145.446 43.847 144.9C43.9183 144.187 44.0608 143.475 44.6308 144.306C45.5095 145.612 45.7945 147.393 46.222 148.866C46.3408 149.317 47.0295 149.127 46.9108 148.676C46.5545 147.417 46.2695 146.087 45.747 144.876C45.4858 144.282 44.892 142.952 44.0608 142.952C43.2058 142.952 43.182 144.282 43.1345 144.876C43.0158 146.42 43.4908 147.892 43.8708 149.365C43.9658 149.863 44.6545 149.673 44.5595 149.222Z" fill="black"/>
<path d="M46.2221 145.85C46.1034 145.351 45.8659 144.52 46.0559 144.021C46.4121 143.095 46.9346 144.757 47.0771 145.113C47.5996 146.372 47.8846 147.702 47.9559 149.056C47.9796 149.507 48.6921 149.507 48.6684 149.056C48.5734 147.75 48.3596 146.491 47.9084 145.28C47.6471 144.543 47.2671 143.237 46.5546 142.833C44.9396 141.907 45.3909 145.47 45.5096 146.063C45.6284 146.491 46.3171 146.301 46.2221 145.85Z" fill="black"/>
<path d="M48.6209 146.68C48.5971 146.443 48.4309 145.16 48.7159 144.923C49.4996 144.234 49.7134 145.493 49.8084 145.873C49.9746 146.68 49.9509 147.583 50.0221 148.414C50.1409 150.124 50.2596 151.81 50.3784 153.52C50.4021 153.971 51.1146 153.971 51.0909 153.52C50.9721 151.81 50.8534 150.124 50.7346 148.414C50.6634 147.226 50.7584 145.659 50.1409 144.59C49.8084 144.02 49.2384 143.498 48.5734 143.925C47.7184 144.495 47.8371 146.015 47.9559 146.87C48.0034 147.321 48.6921 147.131 48.6209 146.68Z" fill="black"/>
<path opacity="0.09" d="M74.0097 127.966C73.8909 127.966 73.9859 129.842 73.2496 132.455C72.6797 134.45 71.7534 136.35 68.7609 140.292C66.0059 143.926 64.0109 146.562 60.5434 149.65C56.7434 153.046 54.8434 154.732 52.2309 155.373C46.5784 156.775 41.3772 153.521 40.8784 154.613C40.6172 155.207 42.0422 156.395 42.5884 156.798C43.2772 157.297 44.6072 158.081 47.7422 158.128C51.0909 158.176 53.6559 157.368 54.2259 157.178C60.2584 155.183 64.2247 151.241 66.3384 149.056C69.1409 146.206 71.4209 143.878 72.9172 139.983C75.3159 133.927 74.2472 127.966 74.0097 127.966Z" fill="#3D3D3D"/>
<path opacity="0.13" d="M73.5347 137.133C73.3684 137.038 72.3709 138.7 70.9459 140.672C70.9459 140.672 67.5259 145.422 63.1084 149.459C60.6859 151.668 56.2684 155.088 49.2621 157.772C50.7109 157.867 52.8721 157.819 55.2709 157.012C56.0309 156.75 57.9309 156.038 62.5146 152.048C66.1721 148.865 68.2147 147.108 70.2572 144.02C72.4659 140.719 73.7722 137.252 73.5347 137.133Z" fill="#3D3D3D"/>
<path d="M76.5033 124.521C75.007 125.044 74.0808 125.97 73.107 126.944C70.3995 129.675 69.4258 132.763 68.6658 135.256C66.3858 142.761 65.222 146.49 64.6995 149.768C64.082 153.496 63.5595 158.436 63.7258 164.279C64.9608 165.134 66.7183 166.226 68.9508 167.176C71.5158 168.269 73.8195 169.243 76.7883 169.005C77.9758 168.91 80.0183 168.578 82.2983 167.176C82.417 165.633 82.6783 163.234 83.367 160.408C84.5545 155.396 85.837 153.948 87.927 147.725C89.5658 142.809 90.3733 140.291 90.2545 137.275C90.1595 135.161 89.9695 131.029 86.8583 127.799C84.4833 125.353 80.232 123.215 76.5033 124.521Z" fill="white"/>
<path d="M75.4346 124.687C72.5846 126.397 70.8508 129.247 69.4258 132.168C67.9058 135.327 66.7658 138.652 65.9346 142.072C64.2008 149.197 63.7733 156.583 63.4883 163.898C63.4646 164.35 64.1771 164.35 64.2008 163.898C64.4621 156.916 64.8658 149.91 66.4333 143.07C67.1933 139.721 68.2383 136.42 69.6871 133.285C71.0883 130.221 72.8221 127.062 75.7908 125.305C76.1708 125.067 75.8146 124.45 75.4346 124.687Z" fill="black"/>
<path d="M84.6258 126.232C87.3095 128.322 89.162 131.267 89.7558 134.615C90.4208 138.439 89.4945 142.334 88.212 145.92C86.977 149.388 85.362 152.689 84.2458 156.204C83.1295 159.648 82.4408 163.234 82.1558 166.844C82.1083 167.295 82.8208 167.295 82.8683 166.844C83.2008 162.783 84.0558 158.769 85.4333 154.945C86.7395 151.288 88.4733 147.797 89.5895 144.068C90.587 140.719 91.1095 137.085 90.2783 133.618C89.542 130.483 87.6895 127.704 85.1483 125.757C84.7683 125.448 84.2695 125.947 84.6258 126.232Z" fill="black"/>
<path d="M63.6308 164.374C66.5045 166.939 70.067 168.625 73.8908 169.172C76.9308 169.599 80.8495 169.623 82.8445 166.892C83.1058 166.512 82.4883 166.155 82.227 166.535C80.232 169.243 75.8145 168.887 72.917 168.293C69.6395 167.628 66.6233 166.084 64.1295 163.875C63.797 163.567 63.2983 164.065 63.6308 164.374Z" fill="black"/>
<path opacity="0.11" d="M79.567 124.616C80.3745 126.017 77.382 128.606 75.0783 132.644C73.6058 135.209 73.0358 137.441 71.9195 141.906C69.307 152.356 69.8058 164.231 70.0195 167.675C67.977 166.583 65.9583 165.514 63.9158 164.421C64.0108 162.094 64.2008 158.769 64.5808 154.779C65.1983 148.461 65.5545 145.017 66.7658 140.552C67.8345 136.681 68.8795 133.071 71.7295 129.2C73.582 126.682 75.5533 124.949 76.9783 123.856C77.8808 123.809 79.1395 123.88 79.567 124.616Z" fill="#3D3D3D"/>
<path opacity="0.15" d="M70.4945 131.789C70.8032 131.884 69.5445 136.848 67.5257 147.82C66.1957 155.016 65.887 157.605 66.9557 160.811C68.3332 164.92 71.1119 167.414 70.5894 167.96C70.2569 168.293 68.832 167.818 63.9157 164.136C63.797 158.959 64.1295 151.81 66.1957 143.617C67.8345 137.133 70.162 131.67 70.4945 131.789Z" fill="#3D3D3D"/>
<path d="M92.6534 114.831C93.7697 115.852 93.6272 117.847 93.4134 120.744C93.2709 122.763 93.1997 123.784 92.5109 124.758C91.0859 126.777 87.8559 127.703 85.3147 126.563C85.0059 126.421 83.4384 125.684 82.5834 123.903C81.3484 121.338 82.6309 118.773 82.8922 118.298C84.8872 114.569 90.6584 112.978 92.6534 114.831Z" fill="#5B399B"/>
<path d="M92.7008 101.698C93.6033 101.888 94.1495 103.146 95.242 105.688C96.1683 107.849 96.5958 109.606 96.7858 110.438C97.0945 111.886 97.2608 113.121 97.332 114.048C96.6908 114.238 96.0495 114.404 95.4083 114.594C95.2658 115.425 94.957 116.66 94.3395 118.038C93.4845 119.938 92.772 121.576 91.1095 122.336C89.1858 123.215 87.1195 122.431 86.4308 122.099C86.1695 122.764 85.7896 123.524 85.2908 124.331C84.9346 124.901 84.5546 125.376 84.2221 125.78C82.0608 126.326 81.0633 125.756 80.6833 125.471C78.6883 123.999 78.8546 119.249 81.9183 113.881C81.7521 113.62 81.4908 113.24 81.1583 112.813C80.4695 111.958 80.2321 111.934 79.9233 111.435C79.8283 111.293 79.0921 110.034 79.6858 108.894C79.9708 108.348 80.5646 107.873 81.2296 107.825C82.0371 107.754 82.2983 108.395 82.9871 108.585C84.1745 108.941 85.4808 107.659 88.7345 104.595C91.4658 102.03 92.012 101.555 92.7008 101.698Z" fill="white"/>
<path d="M94.9809 105.592C96.0971 108.395 96.8096 111.316 97.0709 114.332C97.0946 114.665 97.6409 114.665 97.6171 114.332C97.3559 111.269 96.6434 108.3 95.5034 105.45C95.3846 105.117 94.8621 105.26 94.9809 105.592Z" fill="black"/>
<path d="M97.2135 114.095C96.5722 114.166 95.9309 114.261 95.2897 114.332C94.9572 114.38 94.9572 114.902 95.2897 114.879C95.9309 114.807 96.5722 114.712 97.2135 114.641C97.546 114.57 97.546 114.047 97.2135 114.095Z" fill="black"/>
<path d="M95.1471 114.57C94.7196 116.945 93.7458 119.249 92.1546 121.078C90.2546 123.31 87.2384 122.146 84.9109 121.196C84.6021 121.054 84.4596 121.576 84.7684 121.719C86.9534 122.621 90.0884 123.856 92.0596 121.956C94.0071 120.104 95.1708 117.325 95.6458 114.713C95.7171 114.38 95.2183 114.238 95.1471 114.57Z" fill="black"/>
<path d="M86.0746 122.218C85.5759 123.358 84.9584 124.426 84.2459 125.448C84.0559 125.733 84.5071 125.994 84.6971 125.709C85.4096 124.688 86.0271 123.595 86.5259 122.479C86.6684 122.17 86.2171 121.909 86.0746 122.218Z" fill="black"/>
<path d="M84.7208 121.79C85.0771 122.17 85.4808 122.503 85.9321 122.74C86.2408 122.906 86.5021 122.455 86.1933 122.289C85.7658 122.051 85.4096 121.766 85.0771 121.41C84.8633 121.149 84.4833 121.529 84.7208 121.79Z" fill="black"/>
<path d="M92.9858 109.464C92.8433 109.179 92.8671 108.822 93.0571 108.585C92.9146 108.537 92.7483 108.514 92.6058 108.466C92.6771 108.87 92.6771 109.25 92.6533 109.654C92.7483 109.559 92.8433 109.464 92.9146 109.392C92.9383 109.44 92.9621 109.487 93.0096 109.535C93.0808 109.202 92.5583 109.06 92.4871 109.392C92.4158 109.677 92.6058 109.939 92.9146 109.939C93.0808 109.939 93.1758 109.82 93.1758 109.677C93.2233 109.226 93.1996 108.799 93.1283 108.347C93.1046 108.157 92.7958 108.086 92.6771 108.229C92.3208 108.68 92.2496 109.25 92.5346 109.749C92.6771 110.034 93.1521 109.772 92.9858 109.464Z" fill="black"/>
<path d="M91.5609 106.258C91.8934 105.426 92.8434 105.189 93.5796 105.664C93.8646 105.854 94.1259 105.379 93.8409 105.213C92.7959 104.524 91.5134 104.975 91.0384 106.115C90.9196 106.448 91.4421 106.59 91.5609 106.258Z" fill="black"/>
<path d="M90.4683 110.533C90.3733 110.533 90.2546 110.533 90.1596 110.533C90.1358 110.485 90.1358 110.438 90.1121 110.39C90.1596 110.224 90.2308 110.176 90.3733 110.224C90.3971 110.248 90.4446 110.295 90.4683 110.319C90.4683 110.319 90.4683 110.319 90.4683 110.295C90.3971 110.176 90.2308 110.129 90.1121 110.2C89.9933 110.271 89.9458 110.438 90.0171 110.556C90.1121 110.675 90.2546 110.746 90.3971 110.723C90.5396 110.675 90.6583 110.556 90.6583 110.39C90.6583 110.034 90.1596 109.939 89.9933 110.224C89.9221 110.343 89.9696 110.509 90.0883 110.58C90.2308 110.699 90.3971 110.651 90.4683 110.533Z" fill="black"/>
<path d="M91.656 111.624C91.6085 111.672 91.5373 111.743 91.466 111.791C91.466 111.791 91.466 111.791 91.4898 111.791C91.4423 111.791 91.3948 111.791 91.3473 111.791C91.3473 111.791 91.3235 111.791 91.3235 111.767C91.2998 111.743 91.2523 111.696 91.2285 111.672V111.696C91.2285 111.624 91.2048 111.553 91.2048 111.482C91.2285 111.458 91.2523 111.434 91.276 111.411C91.1573 111.506 91.1098 111.648 91.181 111.767C91.2523 111.886 91.4423 111.957 91.5373 111.862C91.7035 111.743 91.8223 111.506 91.6323 111.339C91.561 111.268 91.4423 111.221 91.3235 111.268C91.2048 111.292 91.1573 111.363 91.1098 111.482C91.0623 111.624 91.1573 111.767 91.2998 111.814C91.466 111.862 91.6085 111.767 91.656 111.624Z" fill="black"/>
<path d="M89.7797 111.648C89.7559 111.648 89.7559 111.648 89.7322 111.648C89.3997 111.648 89.3759 112.195 89.7322 112.195C89.7559 112.195 89.7559 112.195 89.7797 112.195C90.1359 112.195 90.1359 111.648 89.7797 111.648Z" fill="black"/>
<path d="M91.9172 115.163C92.2972 116.327 92.8909 117.372 94.0784 117.823C94.3872 117.942 94.5297 117.443 94.2209 117.301C93.2472 116.921 92.7484 115.947 92.4397 114.997C92.3209 114.688 91.8222 114.831 91.9172 115.163Z" fill="black"/>
<path d="M91.8458 115.448C91.9883 115.235 92.2258 115.116 92.5108 115.068C92.6533 115.045 92.7246 114.855 92.7008 114.736C92.6533 114.57 92.5108 114.522 92.3683 114.546C91.9646 114.593 91.6321 114.831 91.3946 115.163C91.1808 115.448 91.6321 115.733 91.8458 115.448Z" fill="black"/>
<path d="M81.7522 112.361C80.3034 112.883 79.5197 110.651 79.7809 109.606C79.9234 109.06 80.3034 108.418 80.8734 108.252C81.6572 108.015 82.3697 108.632 82.8684 109.107C83.1059 109.345 83.4859 108.965 83.2484 108.727C82.6072 108.11 81.8234 107.516 80.8734 107.706C80.0184 107.872 79.4959 108.68 79.2822 109.463C78.9022 110.912 80.0659 113.525 81.8947 112.883C82.2272 112.765 82.0847 112.242 81.7522 112.361Z" fill="black"/>
<path d="M90.8246 102.22C90.5396 102.552 90.1121 103.099 89.6134 103.811C87.8084 106.447 87.9746 107.516 86.7159 108.276C85.7421 108.87 84.2459 109.06 83.1059 108.585C82.2509 108.229 82.0134 107.682 81.2771 107.706C80.4696 107.73 79.7096 108.395 79.4009 109.179C79.0209 110.105 79.4009 110.96 79.6621 111.506C79.8996 112.005 80.2321 112.741 80.9446 112.907C81.3959 113.002 81.7996 112.836 82.0134 112.717C81.9896 112.979 81.9421 113.382 81.9184 113.881C81.7996 115.947 82.0371 117.372 82.1321 118.299C82.3696 120.531 82.5834 122.312 81.9184 123.999C80.8971 126.516 78.3559 127.632 77.4296 128.036C73.4871 129.77 69.8296 128.321 69.3309 128.107C68.5471 127.775 64.7946 126.231 63.8684 122.716C63.2984 120.602 63.9396 118.465 64.2009 117.562C64.3196 117.182 64.6284 116.232 65.2459 115.14C66.5996 112.717 68.5471 111.245 69.9009 110.414C70.3521 108.775 71.1121 106.424 72.4421 103.74C73.9384 100.7 74.7696 99.0136 76.6696 97.4461C79.6859 94.9524 83.1059 94.6436 84.2221 94.5724C84.7921 94.5249 87.5946 94.3586 90.9196 95.7124C93.2709 96.6624 96.0259 97.8024 97.1659 100.629C98.4721 103.93 96.6196 107.207 96.2634 107.825C96.1684 107.421 95.9784 106.804 95.5746 106.21C94.9809 105.331 94.3159 104.975 93.3184 104.286C92.6771 103.787 91.8221 103.146 90.8246 102.22Z" fill="#5B399B"/>
<path d="M81.0397 125.685C82.0609 126.279 83.2484 126.422 84.3884 126.042C84.8159 125.899 84.6259 125.21 84.1984 125.353C83.2484 125.662 82.2746 125.567 81.3959 125.068C80.9922 124.854 80.6359 125.472 81.0397 125.685Z" fill="black"/>
<path opacity="0.14" d="M79.9235 111.482C80.1135 112.029 80.6122 112.409 81.1585 112.48C81.7522 112.551 82.346 112.266 82.6547 111.744C82.536 112.527 82.4172 114.119 83.1535 115.876C84.151 118.299 86.0985 119.439 86.9535 119.937C89.0435 121.125 91.0385 121.196 92.0122 121.172C91.7985 121.552 91.3235 122.17 90.516 122.574C88.5922 123.524 86.5735 122.241 86.4547 122.17C85.9322 123.31 85.386 124.141 84.9585 124.735C84.3647 125.542 84.1272 125.732 83.961 125.804C82.821 126.469 81.3247 125.78 80.8972 125.566C80.4222 126.017 79.7335 126.587 78.831 127.134C78.071 127.585 76.0285 128.772 73.2022 128.796C73.2022 128.796 69.4022 128.796 66.3385 126.231C65.151 125.234 64.6522 124.355 64.5097 124.07C64.391 123.832 63.8922 122.882 63.7735 121.339C63.5122 118.37 64.7947 115.852 65.5072 114.712C66.7897 112.67 68.4285 111.459 69.4735 110.817C69.4022 111.079 68.5235 114.76 70.471 116.541C72.9172 118.75 78.451 116.66 79.6622 113.477C79.971 112.694 79.971 111.957 79.9235 111.482Z" fill="#3D3D3D"/>
<path opacity="0.07" d="M82.821 118.061C82.631 118.156 83.0823 119.391 83.5098 120.27C84.1985 121.718 85.0535 122.787 85.671 123.428C85.8373 123.001 86.0035 122.573 86.1698 122.17C86.716 122.407 87.7373 122.74 89.0198 122.668C89.8748 122.621 90.5635 122.407 91.0385 122.217C87.381 122.146 85.5285 121.03 84.5073 120.008C83.676 119.177 83.011 117.966 82.821 118.061Z" fill="#3D3D3D"/>
<path d="M141.816 96.1397C141.483 95.9497 141.412 95.4984 141.365 95.1897C141.198 94.0734 142.03 93.1709 142.172 92.9809C143.051 92.0072 143.55 92.5059 144.381 91.6034C144.998 90.9384 144.951 90.3922 145.901 89.5134C146.518 88.9197 146.732 88.9909 146.78 89.0147C147.112 89.1572 146.827 89.8934 147.16 91.0334C147.445 91.9834 147.801 91.9834 147.92 92.7909C147.943 93.0047 148.11 94.0734 147.468 94.6909C147.183 94.9759 146.803 95.0472 146.02 95.1897C145.117 95.3559 144.998 95.2609 144.381 95.3797C142.885 95.6647 142.362 96.4484 141.816 96.1397Z" fill="white"/>
<path d="M141.745 95.1426C138.158 98.8476 134.572 102.576 130.986 106.281C130.535 106.804 130.511 107.588 130.915 108.11C131.366 108.68 132.173 108.823 132.815 108.419C136.496 104.144 140.153 99.8451 143.835 95.5701C143.146 95.4276 142.457 95.2851 141.745 95.1426Z" fill="black"/>
<path d="M128.777 115.425C128.896 115.734 128.516 116.375 126.45 117.753C125.856 117.634 125.357 117.302 125.262 116.874C125.12 116.162 126.141 115.568 126.592 115.354C127.423 114.974 128.611 114.998 128.777 115.425Z" fill="black"/>
<path d="M87.0009 125.21C85.7184 125.495 83.4621 126.041 82.4171 127.894C81.7284 129.105 81.8709 130.388 81.9184 130.839C82.1559 132.858 83.5571 134.544 85.1484 135.28C87.0959 136.159 89.1146 135.494 90.1359 135.138C99.0184 132.074 103.46 130.554 105.265 129.651C110.49 127.015 116.308 124.046 122.935 118.536C124.645 117.111 125.998 115.853 126.948 114.95C127.328 115.164 128.183 115.568 129.205 115.449C130.036 115.354 130.582 114.974 131.39 114.404C131.96 114 132.625 113.525 133.218 112.646C133.788 111.815 133.978 111.079 134.145 110.461C134.311 109.773 134.643 108.538 134.216 108.276C133.907 108.086 133.575 108.609 132.743 108.633C132.672 108.633 131.651 108.633 131.2 107.991C130.772 107.398 131.223 106.851 130.843 106.376C130.44 105.854 129.395 105.901 128.73 106.091C127.186 106.566 126.45 108.276 125.975 109.179C124.668 111.768 122.792 113.169 119.301 115.805C116.593 117.848 114.171 118.798 110.917 120.104C109.635 120.626 107.188 121.576 103.958 122.36C98.5196 123.643 94.2209 123.595 87.0009 125.21Z" fill="white"/>
<path d="M83.1057 127.657C85.552 125.21 89.3995 125.115 92.6295 124.664C96.4057 124.142 100.182 123.572 103.887 122.693C110.466 121.173 116.997 118.632 122.151 114.167C123.504 112.979 124.763 111.673 125.808 110.177C126.758 108.823 128.563 104.833 130.796 106.733C131.152 107.018 131.651 106.519 131.295 106.234C130.439 105.498 129.299 105.45 128.302 105.949C126.901 106.662 126.259 108.229 125.428 109.488C123.267 112.765 119.989 115.283 116.617 117.207C109.516 121.244 101.346 122.693 93.3657 123.857C89.7557 124.379 85.3857 124.427 82.6307 127.158C82.2745 127.467 82.7732 127.965 83.1057 127.657Z" fill="black"/>
<path d="M82.5833 126.802C80.992 129.509 81.3008 133.095 83.9608 135.019C87.1433 137.323 91.6083 135.138 94.8621 134.022C102.533 131.362 109.848 127.752 116.641 123.287C120.417 120.817 124.003 118.062 127.4 115.093C127.756 114.784 127.233 114.285 126.901 114.594C116.237 123.904 103.293 131.267 89.5658 134.948C87.2145 135.589 84.7683 135.447 83.2483 133.309C81.9183 131.48 82.0845 129.058 83.2008 127.182C83.4383 126.778 82.8208 126.422 82.5833 126.802Z" fill="black"/>
<path d="M133.764 107.778C133.883 108.324 134.002 108.918 133.954 109.488C133.859 110.272 133.479 110.533 133.194 111.174C133.076 111.459 133.052 111.744 132.957 112.029C132.767 112.67 132.506 112.813 132.054 113.193C131.556 113.597 131.271 114.072 130.843 114.523C130.154 115.259 129.751 115.022 128.896 114.927C128.278 114.855 127.637 114.76 127.019 114.689C126.568 114.642 126.568 115.354 127.019 115.402C128.041 115.544 129.774 116.138 130.724 115.639C131.104 115.449 131.318 115.093 131.556 114.76C131.864 114.333 132.149 113.977 132.624 113.739C132.862 113.62 132.981 113.715 133.194 113.525C133.456 113.312 133.527 112.955 133.598 112.647C133.764 111.887 134.002 111.388 134.334 110.723C134.833 109.749 134.667 108.657 134.453 107.635C134.358 107.137 133.669 107.327 133.764 107.778Z" fill="black"/>
<path d="M130.843 106.448C130.297 107.255 130.724 108.419 131.579 108.799C132.577 109.25 133.693 108.585 134.192 107.706C134.429 107.303 133.812 106.946 133.574 107.35C133.266 107.896 132.624 108.395 131.983 108.181C131.413 108.015 131.104 107.303 131.461 106.804C131.698 106.424 131.081 106.068 130.843 106.448Z" fill="black"/>
<path d="M131.294 106.78C134.881 103.051 138.419 99.275 141.911 95.4512C142.219 95.1187 141.721 94.5962 141.412 94.9525C137.921 98.7762 134.382 102.552 130.796 106.281C130.463 106.59 130.962 107.112 131.294 106.78Z" fill="black"/>
<path d="M134.168 107.54C137.588 103.597 140.985 99.6546 144.405 95.7121C144.713 95.3559 144.191 94.8571 143.906 95.2134C140.486 99.1559 137.09 103.098 133.67 107.041C133.361 107.397 133.86 107.896 134.168 107.54Z" fill="black"/>
<path d="M128.492 115.33C128.041 115.782 127.589 116.257 127.138 116.708C126.996 116.85 126.782 117.159 126.616 117.254C126.022 117.563 125.713 116.969 125.499 116.589C125.262 116.185 124.644 116.542 124.882 116.945C125.238 117.539 125.832 118.299 126.616 118.062C127.043 117.943 127.352 117.515 127.637 117.207C128.088 116.755 128.539 116.28 128.991 115.829C129.323 115.497 128.801 114.998 128.492 115.33Z" fill="black"/>
<path d="M144.214 95.6175C145.639 96.2587 147.373 95.8787 148.11 94.4062C148.466 93.6937 148.49 92.8387 148.228 92.1025C147.777 90.915 146.138 89.87 147.587 88.635C147.943 88.3262 147.421 87.8275 147.088 88.1362C146.257 88.8487 146.019 89.9412 146.566 90.8912C147.088 91.8175 147.92 92.34 147.658 93.5512C147.373 94.9762 145.853 95.57 144.594 95C144.143 94.81 143.787 95.4275 144.214 95.6175Z" fill="black"/>
<path d="M141.863 94.8337C142.006 93.7887 142.386 93.0999 143.312 92.5774C143.787 92.3162 144.286 92.1024 144.713 91.7699C145.592 91.0574 145.853 89.7512 146.898 89.2287C147.302 89.0149 146.946 88.4212 146.542 88.6112C145.948 88.8962 145.592 89.3474 145.26 89.9174C144.737 90.7487 144.262 91.2949 143.383 91.7462C141.958 92.4824 141.364 93.2187 141.151 94.8337C141.103 95.2849 141.816 95.2849 141.863 94.8337Z" fill="black"/>
<path d="M141.744 95.5221C142.409 95.2609 143.098 95.3559 143.668 95.7834C144.024 96.0684 144.381 95.4509 144.024 95.1659C143.312 94.6196 142.362 94.5009 141.531 94.8334C141.127 94.9996 141.317 95.6884 141.744 95.5221Z" fill="black"/>
<path d="M144.096 92.2453C145.022 91.9366 145.972 91.9128 146.922 92.1503C147.373 92.2691 147.563 91.5803 147.112 91.4616C146.043 91.2003 144.951 91.2241 143.906 91.5566C143.478 91.6991 143.668 92.3878 144.096 92.2453Z" fill="#5B399B"/>
<path d="M143.692 92.2448C145.426 91.5085 145.948 89.4897 147.563 88.5872C147.421 88.3972 147.278 88.2072 147.136 88.0172C145.901 89.1335 146.993 90.6535 147.302 91.8885C147.468 91.746 147.658 91.6273 147.824 91.4848C146.922 91.1048 146.02 90.9385 145.046 91.0098C145.141 91.1998 145.26 91.366 145.355 91.556C145.687 90.9147 146.091 90.3447 146.542 89.7747C146.352 89.656 146.138 89.5372 145.948 89.4185C145.758 89.9172 145.521 90.5347 145.616 91.0572C145.64 91.1997 145.806 91.3185 145.948 91.3185C146.518 91.2947 146.661 90.511 146.851 90.0835C146.637 90.0122 146.4 89.9647 146.186 89.8935C146.233 90.2497 146.352 90.6772 146.305 91.0572C146.352 90.9622 146.423 90.8435 146.471 90.7485C146.305 90.8435 145.663 90.7722 145.378 90.8435C144.903 90.9385 144.5 91.1047 144.072 91.3423C143.763 91.5085 143.906 92.031 144.262 92.0073C144.856 91.9598 145.45 91.8885 146.043 91.841C146.495 91.7935 146.495 91.081 146.043 91.1285C145.45 91.176 144.856 91.2472 144.262 91.2947C144.333 91.5085 144.381 91.746 144.452 91.9598C144.951 91.6985 145.497 91.5085 146.067 91.4848C146.281 91.461 146.613 91.556 146.803 91.4135C147.231 91.1047 146.946 90.3685 146.898 89.9172C146.851 89.6085 146.4 89.371 146.233 89.7272C146.21 89.7985 145.83 90.606 145.948 90.606C146.067 90.701 146.186 90.7722 146.281 90.8672C146.21 90.511 146.495 89.9172 146.613 89.6085C146.732 89.276 146.233 88.991 146.02 89.2522C145.521 89.846 145.093 90.4872 144.713 91.176C144.595 91.3897 144.737 91.746 145.022 91.7223C145.877 91.651 146.661 91.7697 147.445 92.1023C147.73 92.221 148.062 92.031 147.967 91.6985C147.729 90.7485 146.685 89.3472 147.611 88.516C147.919 88.231 147.516 87.756 147.183 87.946C145.592 88.8485 145.022 90.8672 143.312 91.6035C142.908 91.8173 143.288 92.411 143.692 92.2448Z" fill="#5B399B"/>
<path d="M147.159 87.8513C146.162 88.4688 145.544 89.3951 144.808 90.2738C144.357 90.8201 143.858 91.1526 143.359 91.6276C143.169 91.7938 143.003 91.8888 143.003 92.1501C143.003 92.1976 143.027 92.2688 143.098 92.2926C144.594 92.9338 146.257 91.2238 147.729 92.4351C147.824 92.5063 147.943 92.5063 148.014 92.3876C148.442 91.7701 147.492 91.1763 147.136 90.7963C147.017 90.6776 146.779 90.7963 146.827 90.9626C146.898 91.2001 146.874 91.1763 147.041 91.3663C147.183 91.5563 147.492 91.3663 147.349 91.1763C147.302 91.0576 147.231 90.9626 147.183 90.8438C147.088 90.8913 146.993 90.9626 146.874 91.0101C147.041 91.1763 147.919 91.8651 147.706 92.1738C147.801 92.1501 147.896 92.1501 147.991 92.1263C147.492 91.7226 146.922 91.5326 146.257 91.5563C145.877 91.5801 145.497 91.6513 145.117 91.7226C144.808 91.7938 144.523 91.8651 144.214 91.8888C143.882 91.9363 143.478 92.1263 143.739 91.6751C143.882 91.4376 144.309 91.2238 144.499 91.0338C144.784 90.7488 145.046 90.4401 145.283 90.1076C145.901 89.3476 146.471 88.5876 147.302 88.0651C147.539 88.0413 147.349 87.7326 147.159 87.8513Z" fill="#5B399B"/>
<path d="M143.502 92.4109C144.214 92.5059 144.903 92.2684 145.616 92.1734C146.209 92.1022 146.684 92.1972 147.231 92.3872C147.539 92.5059 147.729 92.5772 148.062 92.5297C148.181 92.5059 148.252 92.4347 148.228 92.3159C148.181 92.0072 148.109 91.8409 147.943 91.5797C147.824 91.3897 147.516 91.5797 147.634 91.7697C147.801 91.9597 147.872 92.1734 147.896 92.4109C147.943 92.3397 148.014 92.2684 148.062 92.1972C147.397 92.2684 146.732 91.7934 146.043 91.7934C145.236 91.8172 144.404 92.1972 143.597 92.0784C143.359 92.0309 143.264 92.3634 143.502 92.4109Z" fill="#5B399B"/>
<path d="M146.875 88.4688C146.993 88.3025 147.136 88.16 147.326 88.065C147.373 88.0413 147.54 87.9225 147.587 87.97C147.658 88.0175 147.468 88.16 147.421 88.1838C147.136 88.4213 146.946 88.73 146.803 89.0625C146.708 89.2763 147.065 89.3713 147.136 89.1575C147.278 88.825 147.516 88.6113 147.777 88.35C147.943 88.2075 148.038 87.9938 147.872 87.78C147.516 87.305 146.827 87.9225 146.59 88.2313C146.471 88.3975 146.732 88.6588 146.875 88.4688Z" fill="#5B399B"/>
<path d="M147.682 87.6851C147.278 87.9464 146.993 88.3501 146.875 88.8251C146.827 89.0389 147.16 89.1339 147.207 88.9201C147.302 88.5401 147.516 88.2314 147.848 87.9939C148.062 87.8514 147.872 87.5426 147.682 87.6851Z" fill="#5B399B"/>
<path d="M82.8683 127.608C83.6283 126.112 86.3833 125.542 87.9033 125.352C88.3546 125.281 88.1646 124.592 87.7133 124.663C86.0033 124.901 83.1296 125.566 82.2508 127.252C82.0608 127.656 82.6783 128.036 82.8683 127.608Z" fill="black"/>
<path opacity="0.13" d="M82.0608 131.053C84.1983 130.91 87.3096 130.625 90.9908 129.913C101.536 127.894 109.041 123.975 113.625 121.553C117.425 119.534 122.46 116.518 127.993 112.171C130.416 111.388 131.912 110.319 132.862 109.464C133.503 108.894 133.978 108.324 134.216 108.443C134.596 108.656 134.002 110.628 133.195 112.053C132.482 113.335 131.651 114.071 131.39 114.309C130.725 114.879 130.345 115.283 129.703 115.449C128.516 115.758 127.447 115.116 127.091 114.879C126.212 115.568 124.93 116.589 123.338 117.8C116.926 122.669 113.696 125.115 109.445 127.443C105.526 129.58 102.248 130.863 95.8596 133.333C95.2658 133.57 94.4821 133.831 92.9146 134.354C88.7346 135.755 87.7371 135.921 86.5733 135.708C86.0983 135.613 84.9346 135.399 83.8658 134.473C82.4646 133.214 82.1558 131.599 82.0608 131.053Z" fill="#3D3D3D"/>
<path opacity="0.19" d="M100.895 131.218C100.847 131.147 101.251 130.815 110.157 125.162C121.89 117.705 121.058 118.37 122.293 117.467C127.423 113.667 129.703 111.102 130.891 111.862C131.698 112.385 131.841 114.285 130.962 115.116C130.202 115.852 128.611 115.781 127.186 114.736C124.312 117.301 120.037 120.792 114.408 124.331C107.758 128.44 101.061 131.503 100.895 131.218Z" fill="#3D3D3D"/>
</svg>
