<svg viewBox="0 0 32 32" fill="none" xmlns="http://www.w3.org/2000/svg">
<path d="M3.98885 12.0005C3.81374 12.0005 3.64034 12.0349 3.47855 12.1019C3.31676 12.1689 3.16976 12.2671 3.04594 12.3909C2.92212 12.5147 2.8239 12.6617 2.75692 12.8235C2.68993 12.9853 2.65547 13.1587 2.65552 13.3338V18.6672C2.65552 19.0208 2.79599 19.3599 3.04604 19.61C3.29609 19.86 3.63523 20.0005 3.98885 20.0005C4.34247 20.0005 4.68161 19.86 4.93166 19.61C5.18171 19.3599 5.32218 19.0208 5.32218 18.6672V13.3338C5.32223 13.1587 5.28778 12.9853 5.22079 12.8235C5.1538 12.6617 5.05559 12.5147 4.93177 12.3909C4.80794 12.2671 4.66094 12.1689 4.49915 12.1019C4.33736 12.0349 4.16396 12.0005 3.98885 12.0005ZM27.9888 12.0005C27.8137 12.0005 27.6403 12.0349 27.4785 12.1019C27.3168 12.1689 27.1698 12.2671 27.0459 12.3909C26.9221 12.5147 26.8239 12.6617 26.7569 12.8235C26.6899 12.9853 26.6555 13.1587 26.6555 13.3338V18.6672C26.6555 19.0208 26.796 19.3599 27.046 19.61C27.2961 19.86 27.6352 20.0005 27.9888 20.0005C28.3425 20.0005 28.6816 19.86 28.9317 19.61C29.1817 19.3599 29.3222 19.0208 29.3222 18.6672V13.3338C29.3222 13.1587 29.2878 12.9853 29.2208 12.8235C29.1538 12.6617 29.0556 12.5147 28.9318 12.3909C28.8079 12.2671 28.6609 12.1689 28.4992 12.1019C28.3374 12.0349 28.164 12.0005 27.9888 12.0005ZM22.4765 4.66717C22.5646 4.51556 22.622 4.34804 22.6453 4.17421C22.6686 4.00038 22.6574 3.82366 22.6123 3.65417C22.5672 3.48469 22.4891 3.32577 22.3824 3.18653C22.2758 3.04729 22.1427 2.93047 21.9908 2.84275C21.839 2.75503 21.6713 2.69815 21.4974 2.67536C21.3235 2.65257 21.1468 2.66433 20.9774 2.70995C20.8081 2.75557 20.6494 2.83416 20.5105 2.94122C20.3716 3.04828 20.2552 3.1817 20.1679 3.33384L19.349 4.75034C18.2977 4.25652 17.1504 4.0005 15.9888 4.0005C14.8273 4.0005 13.68 4.25652 12.6287 4.75034L11.8098 3.33384C11.7225 3.1817 11.6061 3.04828 11.4672 2.94122C11.3283 2.83416 11.1696 2.75557 11.0003 2.70995C10.8309 2.66433 10.6542 2.65257 10.4803 2.67536C10.3064 2.69815 10.1387 2.75503 9.98685 2.84275C9.83498 2.93047 9.7019 3.04729 9.59526 3.18653C9.48862 3.32577 9.4105 3.48469 9.36539 3.65417C9.32027 3.82366 9.30905 4.00038 9.33236 4.17421C9.35567 4.34804 9.41305 4.51556 9.50122 4.66717L10.4246 6.26442C9.65417 7.00797 9.04146 7.89909 8.62298 8.8846C8.2045 9.87011 7.98884 10.9298 7.98885 12.0005V22.6672C7.9888 22.8423 8.02326 23.0157 8.09025 23.1775C8.15724 23.3393 8.25545 23.4863 8.37927 23.6101C8.50309 23.7339 8.6501 23.8321 8.81189 23.8991C8.97367 23.9661 9.14708 24.0005 9.32218 24.0005H11.9889V28.0005C11.9889 28.3541 12.1293 28.6933 12.3794 28.9433C12.6294 29.1934 12.9686 29.3338 13.3222 29.3338C13.6758 29.3338 14.0149 29.1934 14.265 28.9433C14.515 28.6933 14.6555 28.3541 14.6555 28.0005V24.0005H17.3222V28.0005C17.3222 28.3541 17.4627 28.6933 17.7127 28.9433C17.9628 29.1934 18.3019 29.3338 18.6555 29.3338C19.0091 29.3338 19.3483 29.1934 19.5983 28.9433C19.8484 28.6933 19.9888 28.3541 19.9888 28.0005V24.0005H22.6555C22.8306 24.0005 23.004 23.9661 23.1658 23.8991C23.3276 23.8321 23.4746 23.7339 23.5984 23.6101C23.7222 23.4863 23.8205 23.3393 23.8874 23.1775C23.9544 23.0157 23.9889 22.8423 23.9888 22.6672V12.0005C23.9889 10.9298 23.7732 9.87011 23.3547 8.8846C22.9362 7.89909 22.3235 7.00797 21.5531 6.26442L22.4765 4.66717ZM21.3222 21.3338H10.6555V14.6672H21.3222V21.3338ZM10.6555 12.0005C10.6555 10.586 11.2174 9.22946 12.2176 8.22927C13.2178 7.22907 14.5744 6.66717 15.9888 6.66717C17.4033 6.66717 18.7599 7.22907 19.7601 8.22927C20.7603 9.22946 21.3222 10.586 21.3222 12.0005H10.6555Z" fill="#5B399B"/>
</svg>
