<svg viewBox="0 0 32 32" fill="none" xmlns="http://www.w3.org/2000/svg">
<path d="M9.33342 21.3333C10.0667 21.3333 10.6667 21.9333 10.6667 22.6667C10.6667 24.1333 9.46675 25.3333 8.00008 25.3333C7.77342 25.3333 7.56008 25.3067 7.33342 25.2667C7.74675 24.5333 8.00008 23.6533 8.00008 22.6667C8.00008 21.9333 8.60008 21.3333 9.33342 21.3333ZM24.8934 4C24.5467 4 24.2134 4.13333 23.9467 4.38667L12.0001 16.3333L15.6667 20L27.6134 8.05333C28.1334 7.53333 28.1334 6.69333 27.6134 6.17333L25.8267 4.38667C25.5601 4.12 25.2267 4 24.8934 4ZM9.33342 18.6667C7.12008 18.6667 5.33341 20.4533 5.33341 22.6667C5.33341 24.4133 3.78675 25.3333 2.66675 25.3333C3.89341 26.96 5.98675 28 8.00008 28C10.9467 28 13.3334 25.6133 13.3334 22.6667C13.3334 20.4533 11.5467 18.6667 9.33342 18.6667Z" fill="#5B399B"/>
</svg>
