<svg viewBox="0 0 32 32" fill="none" xmlns="http://www.w3.org/2000/svg">
<path d="M10.6666 22.0003C10.4029 22.0003 10.1451 22.0785 9.92582 22.225C9.70656 22.3715 9.53566 22.5798 9.43475 22.8234C9.33383 23.0671 9.30742 23.3351 9.35887 23.5938C9.41032 23.8524 9.53731 24.09 9.72378 24.2765C9.91025 24.4629 10.1478 24.5899 10.4065 24.6414C10.6651 24.6928 10.9332 24.6664 11.1768 24.5655C11.4205 24.4646 11.6287 24.2937 11.7752 24.0744C11.9217 23.8552 11.9999 23.5974 11.9999 23.3337C11.9999 22.98 11.8594 22.6409 11.6094 22.3909C11.3593 22.1408 11.0202 22.0003 10.6666 22.0003ZM15.9999 2.66699C10.6666 2.66699 5.33325 4.49366 5.33325 8.00033V24.0003C5.33325 27.507 10.6666 29.3337 15.9999 29.3337C21.3333 29.3337 26.6666 27.507 26.6666 24.0003V8.00033C26.6666 4.49366 21.3333 2.66699 15.9999 2.66699ZM23.9999 24.0003C23.9999 24.947 20.9599 26.667 15.9999 26.667C11.0399 26.667 7.99992 24.947 7.99992 24.0003V19.6403C10.496 20.8269 13.2371 21.4071 15.9999 21.3337C18.7627 21.4071 21.5038 20.8269 23.9999 19.6403V24.0003ZM23.9999 16.0003C23.9999 16.947 20.9599 18.667 15.9999 18.667C11.0399 18.667 7.99992 16.947 7.99992 16.0003V11.6403C10.496 12.8269 13.2371 13.4071 15.9999 13.3337C18.7627 13.4071 21.5038 12.8269 23.9999 11.6403V16.0003ZM15.9999 10.667C11.0399 10.667 7.99992 8.94699 7.99992 8.00033C7.99992 7.05366 11.0399 5.33366 15.9999 5.33366C20.9599 5.33366 23.9999 7.05366 23.9999 8.00033C23.9999 8.94699 20.9599 10.667 15.9999 10.667ZM10.6666 14.0003C10.4029 14.0003 10.1451 14.0785 9.92582 14.225C9.70656 14.3715 9.53566 14.5798 9.43475 14.8234C9.33383 15.067 9.30742 15.3351 9.35887 15.5938C9.41032 15.8524 9.53731 16.09 9.72378 16.2765C9.91025 16.4629 10.1478 16.5899 10.4065 16.6414C10.6651 16.6928 10.9332 16.6664 11.1768 16.5655C11.4205 16.4646 11.6287 16.2937 11.7752 16.0744C11.9217 15.8552 11.9999 15.5974 11.9999 15.3337C11.9999 14.98 11.8594 14.6409 11.6094 14.3909C11.3593 14.1408 11.0202 14.0003 10.6666 14.0003Z" fill="#5B399B"/>
</svg>
