<svg viewBox="0 0 32 32" fill="none" xmlns="http://www.w3.org/2000/svg">
<path d="M7.99992 17.333H2.66659C2.31296 17.333 1.97382 17.4735 1.72378 17.7235C1.47373 17.9736 1.33325 18.3127 1.33325 18.6663V29.333C1.33325 29.6866 1.47373 30.0258 1.72378 30.2758C1.97382 30.5259 2.31296 30.6663 2.66659 30.6663H7.99992C8.35354 30.6663 8.69268 30.5259 8.94273 30.2758C9.19278 30.0258 9.33325 29.6866 9.33325 29.333V18.6663C9.33325 18.3127 9.19278 17.9736 8.94273 17.7235C8.69268 17.4735 8.35354 17.333 7.99992 17.333ZM6.66658 27.9997H3.99992V19.9997H6.66658V27.9997ZM29.3333 11.9997H23.9999C23.6463 11.9997 23.3072 12.1402 23.0571 12.3902C22.8071 12.6402 22.6666 12.9794 22.6666 13.333V29.333C22.6666 29.6866 22.8071 30.0258 23.0571 30.2758C23.3072 30.5259 23.6463 30.6663 23.9999 30.6663H29.3333C29.6869 30.6663 30.026 30.5259 30.2761 30.2758C30.5261 30.0258 30.6666 29.6866 30.6666 29.333V13.333C30.6666 12.9794 30.5261 12.6402 30.2761 12.3902C30.026 12.1402 29.6869 11.9997 29.3333 11.9997ZM27.9999 27.9997H25.3333V14.6663H27.9999V27.9997ZM18.6666 1.33301H13.3333C12.9796 1.33301 12.6405 1.47348 12.3904 1.72353C12.1404 1.97358 11.9999 2.31272 11.9999 2.66634V29.333C11.9999 29.6866 12.1404 30.0258 12.3904 30.2758C12.6405 30.5259 12.9796 30.6663 13.3333 30.6663H18.6666C19.0202 30.6663 19.3593 30.5259 19.6094 30.2758C19.8594 30.0258 19.9999 29.6866 19.9999 29.333V2.66634C19.9999 2.31272 19.8594 1.97358 19.6094 1.72353C19.3593 1.47348 19.0202 1.33301 18.6666 1.33301ZM17.3333 27.9997H14.6666V3.99967H17.3333V27.9997Z" fill="#5B399B"/>
</svg>
