<svg viewBox="0 0 32 32" fill="none" xmlns="http://www.w3.org/2000/svg">
<path d="M20.6667 1.33301H10.0001C8.16008 1.33301 6.66675 2.82634 6.66675 4.66634V27.333C6.66675 29.173 8.16008 30.6663 10.0001 30.6663H20.6667C22.5067 30.6663 24.0001 29.173 24.0001 27.333V4.66634C24.0001 2.82634 22.5067 1.33301 20.6667 1.33301ZM15.3334 29.333C14.2267 29.333 13.3334 28.4397 13.3334 27.333C13.3334 26.2263 14.2267 25.333 15.3334 25.333C16.4401 25.333 17.3334 26.2263 17.3334 27.333C17.3334 28.4397 16.4401 29.333 15.3334 29.333ZM21.3334 23.9997H9.33341V5.33301H21.3334V23.9997Z" fill="#5B399B"/>
</svg>
