<svg viewBox="0 0 32 32" fill="none" xmlns="http://www.w3.org/2000/svg">
<g clip-path="url(#clip0)">
<path d="M24.5033 27.1032C24.5319 27.0816 24.5601 27.06 24.5882 27.0378C25.0217 26.6961 25.65 26.7706 25.9916 27.2041C26.3332 27.6375 26.2588 28.2659 25.8252 28.6075C24.5836 29.5861 23.4841 27.8724 24.5033 27.1032Z" fill="#5B399B"/>
<path d="M0.145549 13.9416C1.27827 5.17781 9.28708 -0.998884 18.0521 0.133962C24.2936 0.94072 29.3198 5.27349 31.2028 11.02C32.8786 16.1296 31.8757 21.9041 28.3173 26.1921C27.9649 26.6169 27.3349 26.6755 26.9101 26.323C26.4854 25.9705 26.4269 25.3405 26.7793 24.9158C29.8911 21.166 30.7691 16.111 29.3036 11.6427C27.6326 6.54299 23.1156 2.80369 17.7959 2.11616C10.1451 1.12647 3.11651 6.54705 2.12769 14.1978C0.705414 25.2021 12.003 33.2473 21.8531 28.7018C22.3542 28.4705 22.9479 28.6893 23.1792 29.1904C23.4104 29.6915 23.1916 30.2852 22.6905 30.5164C11.3906 35.7314 -1.47527 26.4815 0.145549 13.9416Z" fill="#5B399B"/>
<path d="M15.8204 18.1197L14.3739 14.6275C13.6267 12.8237 11.5494 12.1303 9.95352 12.8799C9.45393 13.1147 8.85877 12.8999 8.62412 12.4003C8.38947 11.9008 8.60413 11.3056 9.10367 11.0709C11.7196 9.84198 15.0319 10.9934 16.2204 13.8627L17.6669 17.3548C18.4113 19.152 20.4925 19.862 22.102 19.0954C22.6004 18.8582 23.1966 19.0698 23.4339 19.568C23.6712 20.0663 23.4596 20.6625 22.9613 20.8998C20.3265 22.1547 17.0072 20.9848 15.8204 18.1197Z" fill="#5B399B"/>
<path d="M13.1419 19.0928C11.2614 20.0751 8.89443 19.1542 8.21196 17.1067C8.49664 17.4001 8.70974 17.6883 9.19909 17.6883C10.0754 17.6883 10.5314 16.6272 9.91629 15.9931L7.9482 13.9644C7.56447 13.5689 6.93121 13.5587 6.53511 13.9429L4.50638 15.911C4.11022 16.2953 4.10066 16.9279 4.48496 17.3241C4.86919 17.7203 5.50188 17.7298 5.89805 17.3456L6.14632 17.1047C6.88818 20.7142 10.8724 22.5333 14.0674 20.8643C14.5566 20.6088 14.746 20.0051 14.4905 19.516C14.2349 19.0267 13.6312 18.8373 13.1419 19.0928Z" fill="#5B399B"/>
<path d="M27.5753 14.6585C27.191 14.2623 26.5583 14.2528 26.1622 14.637L25.9139 14.8778C25.1725 11.2705 21.1923 9.44714 17.9929 11.1182C17.5037 11.3738 17.3143 11.9775 17.5698 12.4666C17.8253 12.9559 18.429 13.1452 18.9183 12.8897C20.7987 11.9075 23.1657 12.8283 23.8483 14.8758L23.5786 14.5978C23.1943 14.2017 22.5616 14.1921 22.1655 14.5763C21.7694 14.9606 21.7597 15.5932 22.144 15.9894L24.112 18.0181C24.4966 18.4146 25.1298 18.423 25.5251 18.0396L27.5538 16.0715C27.9499 15.6872 27.9595 15.0546 27.5753 14.6585Z" fill="#5B399B"/>
</g>
<defs>
<clipPath id="clip0">
<rect width="32" height="32" fill="white"/>
</clipPath>
</defs>
</svg>
