<svg viewBox="0 0 32 32" fill="none" xmlns="http://www.w3.org/2000/svg">
<path d="M25.3334 9.33333H24.0001V8C24.0001 6.93913 23.5787 5.92172 22.8285 5.17157C22.0784 4.42143 21.0609 4 20.0001 4H6.66675C5.60588 4 4.58847 4.42143 3.83832 5.17157C3.08818 5.92172 2.66675 6.93913 2.66675 8V24C2.66675 25.0609 3.08818 26.0783 3.83832 26.8284C4.58847 27.5786 5.60588 28 6.66675 28H25.3334C26.3943 28 27.4117 27.5786 28.1618 26.8284C28.912 26.0783 29.3334 25.0609 29.3334 24V13.3333C29.3334 12.2725 28.912 11.2551 28.1618 10.5049C27.4117 9.75476 26.3943 9.33333 25.3334 9.33333ZM6.66675 6.66667H20.0001C20.3537 6.66667 20.6928 6.80714 20.9429 7.05719C21.1929 7.30724 21.3334 7.64638 21.3334 8V9.33333H6.66675C6.31313 9.33333 5.97399 9.19286 5.72394 8.94281C5.47389 8.69276 5.33341 8.35362 5.33341 8C5.33341 7.64638 5.47389 7.30724 5.72394 7.05719C5.97399 6.80714 6.31313 6.66667 6.66675 6.66667ZM26.6667 20H25.3334C24.9798 20 24.6407 19.8595 24.3906 19.6095C24.1406 19.3594 24.0001 19.0203 24.0001 18.6667C24.0001 18.313 24.1406 17.9739 24.3906 17.7239C24.6407 17.4738 24.9798 17.3333 25.3334 17.3333H26.6667V20ZM26.6667 14.6667H25.3334C24.2725 14.6667 23.2551 15.0881 22.505 15.8382C21.7548 16.5884 21.3334 17.6058 21.3334 18.6667C21.3334 19.7275 21.7548 20.7449 22.505 21.4951C23.2551 22.2452 24.2725 22.6667 25.3334 22.6667H26.6667V24C26.6667 24.3536 26.5263 24.6928 26.2762 24.9428C26.0262 25.1929 25.687 25.3333 25.3334 25.3333H6.66675C6.31313 25.3333 5.97399 25.1929 5.72394 24.9428C5.47389 24.6928 5.33341 24.3536 5.33341 24V11.7733C5.76177 11.924 6.21266 12.0007 6.66675 12H25.3334C25.687 12 26.0262 12.1405 26.2762 12.3905C26.5263 12.6406 26.6667 12.9797 26.6667 13.3333V14.6667Z" fill="#5B399B"/>
</svg>
