<svg viewBox="0 0 40 40" fill="none" xmlns="http://www.w3.org/2000/svg">
<path d="M27.2741 25.085C27.1493 24.7388 26.7675 24.5593 26.4213 24.684C26.075 24.8088 25.8955 25.1907 26.0203 25.5369C26.0234 25.5454 26.0266 25.5538 26.03 25.5622C26.6378 27.1482 26.6818 28.3611 26.15 28.8942C25.5049 29.538 23.8982 29.3367 21.851 28.3571C19.1102 26.934 16.6189 25.0749 14.4745 22.8526C9.25456 17.632 7.10073 12.5093 8.43288 11.1771C8.85797 10.8414 9.4105 10.7125 9.94029 10.8253C10.3073 10.8523 10.6268 10.5765 10.6538 10.2095C10.6798 9.85473 10.4227 9.54202 10.0696 9.49912C9.14302 9.33518 8.19239 9.60533 7.49058 10.2322C5.04887 12.6732 8.78141 19.0407 13.5322 23.7922C15.7831 26.1215 18.3986 28.0683 21.2759 29.556C21.7969 29.8055 22.3339 30.0203 22.8833 30.1991L18.1484 31.9944C11.8259 29.5906 7.27442 23.9855 6.21974 17.3041C6.16268 16.9405 5.82165 16.6919 5.45804 16.749C5.09443 16.806 4.84586 17.1471 4.90292 17.5107C5.00755 18.1771 5.14749 18.8435 5.31876 19.4952C6.85333 25.3095 10.8952 30.1397 16.3478 32.6754L8.55483 35.6243C8.5191 35.5646 8.47411 35.5112 8.42155 35.4657C6.44099 33.8755 5.19831 31.5435 4.98289 29.0129L4.67368 25.2683C4.64935 24.9055 4.33548 24.6311 3.97262 24.6555C3.9657 24.656 3.95879 24.6565 3.95196 24.6572C3.5851 24.6864 3.31129 25.0075 3.34045 25.3744C3.34053 25.3759 3.3407 25.3774 3.34086 25.3789L3.65541 29.1221C3.88965 31.8272 5.15149 34.3395 7.18137 36.1427L1.6222 38.2473L2.62181 34.1449C2.70903 33.7871 2.48978 33.4264 2.132 33.3392C1.77423 33.252 1.41353 33.4712 1.32632 33.829L0.0261562 39.1602C-0.0614763 39.5177 0.157272 39.8785 0.514799 39.9661C0.645915 39.9982 0.783611 39.9897 0.909812 39.9419L25.5669 30.6122C25.6061 30.5931 25.6432 30.5698 25.6775 30.5429C26.2111 30.461 26.7058 30.2142 27.0923 29.8372C27.7526 29.1768 28.321 27.8153 27.2741 25.085Z" fill="#5B399B"/>
<path d="M33.5633 23.3667C29.9608 22.018 26.0671 21.6399 22.2724 22.2704L19.8913 22.6703C19.5299 22.7397 19.2932 23.089 19.3627 23.4505C19.4298 23.7997 19.7593 24.0346 20.1112 23.9844L22.4916 23.5879C26.0554 22.9954 29.7124 23.3507 33.0955 24.6182C33.1706 24.6447 33.2498 24.6581 33.3294 24.6575C33.6975 24.6581 33.9963 24.3603 33.9969 23.9922C33.9974 23.7135 33.8245 23.464 33.5633 23.3667Z" fill="#5B399B"/>
<path d="M35.932 13.0413C35.7737 12.7089 35.376 12.5678 35.0436 12.726L21.0491 19.3901C20.7168 19.5483 20.5756 19.9459 20.7338 20.2783C20.7338 20.2784 20.7339 20.2784 20.7339 20.2784C20.8921 20.6107 21.2897 20.7519 21.622 20.5937C21.6221 20.5937 21.6221 20.5937 21.6222 20.5937L35.6167 13.9296C35.9491 13.7713 36.0902 13.3736 35.932 13.0413Z" fill="#5B399B"/>
<path d="M16.1914 4.52312C16.1181 4.16243 15.7663 3.92943 15.4056 4.00274C15.0449 4.07604 14.812 4.42782 14.8853 4.78852C14.8868 4.79651 14.8887 4.80443 14.8906 4.81234C15.7341 8.58079 15.3865 12.5183 13.8956 16.0806L12.9267 18.4057C12.7867 18.7445 12.9465 19.1328 13.2845 19.2747C13.3655 19.3088 13.4526 19.3262 13.5404 19.326C13.8094 19.326 14.052 19.1644 14.1555 18.9162L15.1252 16.5938C16.7225 12.7778 17.0951 8.55996 16.1914 4.52312Z" fill="#5B399B"/>
<path d="M36.6613 23.9902C35.5572 23.9902 34.6621 24.8853 34.6621 25.9895C34.6621 27.0936 35.5572 27.9887 36.6613 27.9887C37.7655 27.9887 38.6606 27.0936 38.6606 25.9895C38.6606 24.8853 37.7655 23.9902 36.6613 23.9902ZM36.6613 26.6559C36.2933 26.6559 35.9949 26.3575 35.9949 25.9895C35.9949 25.6214 36.2933 25.323 36.6613 25.323C37.0294 25.323 37.3277 25.6214 37.3277 25.9895C37.3277 26.3575 37.0294 26.6559 36.6613 26.6559Z" fill="#5B399B"/>
<path d="M20.6672 5.33105C19.563 5.33105 18.668 6.22612 18.668 7.33028C18.668 8.43443 19.563 9.3295 20.6672 9.3295C21.7713 9.3295 22.6664 8.43443 22.6664 7.33028C22.6664 6.22612 21.7713 5.33105 20.6672 5.33105ZM20.6672 7.99668C20.2992 7.99668 20.0008 7.6983 20.0008 7.33028C20.0008 6.96225 20.2992 6.66387 20.6672 6.66387C21.0352 6.66387 21.3336 6.96225 21.3336 7.33028C21.3336 7.6983 21.0352 7.99668 20.6672 7.99668Z" fill="#5B399B"/>
<path d="M14.6697 2.66563C15.4058 2.66563 16.0025 2.06891 16.0025 1.33281C16.0025 0.596721 15.4058 0 14.6697 0C13.9336 0 13.3369 0.596721 13.3369 1.33281C13.3369 2.06891 13.9336 2.66563 14.6697 2.66563Z" fill="#5B399B"/>
<path d="M33.3295 3.33203C32.9615 3.33203 32.6631 3.63041 32.6631 3.99844V4.66485C32.6631 5.03287 32.9615 5.33125 33.3295 5.33125C33.6975 5.33125 33.9959 5.03287 33.9959 4.66485V3.99844C33.9959 3.63041 33.6975 3.33203 33.3295 3.33203Z" fill="#5B399B"/>
<path d="M33.3295 0C32.9615 0 32.6631 0.298384 32.6631 0.666407V1.33281C32.6631 1.70084 32.9615 1.99922 33.3295 1.99922C33.6975 1.99922 33.9959 1.70084 33.9959 1.33281V0.666407C33.9959 0.298384 33.6975 0 33.3295 0Z" fill="#5B399B"/>
<path d="M35.3279 1.99902H34.6615C34.2935 1.99902 33.9951 2.29741 33.9951 2.66543C33.9951 3.03345 34.2935 3.33184 34.6615 3.33184H35.3279C35.696 3.33184 35.9943 3.03345 35.9943 2.66543C35.9943 2.29741 35.696 1.99902 35.3279 1.99902Z" fill="#5B399B"/>
<path d="M31.9959 1.99902H31.3295C30.9615 1.99902 30.6631 2.29741 30.6631 2.66543C30.6631 3.03345 30.9615 3.33184 31.3295 3.33184H31.9959C32.3639 3.33184 32.6623 3.03345 32.6623 2.66543C32.6623 2.29741 32.3639 1.99902 31.9959 1.99902Z" fill="#5B399B"/>
<path d="M28.6638 7.31641H25.3178C24.9498 7.31641 24.6514 7.61479 24.6514 7.98281V11.3288C24.6514 11.6969 24.9498 11.9952 25.3178 11.9952H28.6638C29.0318 11.9952 29.3302 11.6969 29.3302 11.3288V7.98281C29.3302 7.61479 29.0318 7.31641 28.6638 7.31641ZM27.9974 10.6624H25.9842V8.64922H27.9974V10.6624Z" fill="#5B399B"/>
<path d="M23.8098 12.8817C23.5651 12.6206 23.158 12.5992 22.8874 12.8334L16.2233 18.8311C15.9499 19.0773 15.9279 19.4986 16.174 19.772C16.4203 20.0454 16.8415 20.0675 17.115 19.8213L23.779 13.8237C24.0477 13.572 24.0614 13.1504 23.8098 12.8817Z" fill="#5B399B"/>
<path d="M35.9945 15.3271C35.6265 15.3271 35.3281 15.6255 35.3281 15.9936V16.66C35.3281 17.028 35.6265 17.3264 35.9945 17.3264C36.3626 17.3264 36.6609 17.028 36.6609 16.66V15.9936C36.6609 15.6255 36.3626 15.3271 35.9945 15.3271Z" fill="#5B399B"/>
<path d="M38.8222 15.2129L38.351 14.7418C38.0863 14.4861 37.6645 14.4934 37.4087 14.7581C37.1593 15.0164 37.1593 15.4258 37.4087 15.6841L37.8799 16.1553C38.1446 16.411 38.5665 16.4037 38.8222 16.1389C39.0717 15.8806 39.0717 15.4712 38.8222 15.2129Z" fill="#5B399B"/>
<path d="M39.327 12.6621H38.6605C38.2925 12.6621 37.9941 12.9605 37.9941 13.3285C37.9941 13.6965 38.2925 13.9949 38.6605 13.9949H39.327C39.695 13.9949 39.9934 13.6965 39.9934 13.3285C39.9934 12.9605 39.695 12.6621 39.327 12.6621Z" fill="#5B399B"/>
<path d="M38.8061 10.5015C38.5479 10.2521 38.1385 10.2521 37.8801 10.5015L37.409 10.9727C37.1488 11.233 37.1488 11.6549 37.4092 11.9151C37.5341 12.04 37.7035 12.1102 37.8801 12.1102C38.0569 12.1102 38.2263 12.0399 38.3513 11.915L38.8224 11.4438C39.0782 11.1791 39.0708 10.7572 38.8061 10.5015Z" fill="#5B399B"/>
<path d="M35.9945 9.33008C35.6265 9.33008 35.3281 9.62846 35.3281 9.99648V10.6629C35.3281 11.0309 35.6265 11.3293 35.9945 11.3293C36.3626 11.3293 36.6609 11.0309 36.6609 10.6629V9.99648C36.6609 9.62846 36.3626 9.33008 35.9945 9.33008Z" fill="#5B399B"/>
<path d="M34.581 10.9727L34.1098 10.5015C33.8451 10.2459 33.4233 10.2531 33.1675 10.5179C32.9181 10.7761 32.9181 11.1855 33.1675 11.4438L33.6387 11.915C33.9034 12.1707 34.3252 12.1634 34.581 11.8987C34.8305 11.6403 34.8305 11.2309 34.581 10.9727Z" fill="#5B399B"/>
<path d="M7.97288 2.88176C7.89441 2.64069 7.68591 2.46509 7.43509 2.42861L5.47919 2.14405L4.60686 0.372074C4.41243 0.0419528 3.98718 -0.0680876 3.65706 0.126337C3.5556 0.186063 3.47105 0.270614 3.41132 0.372074L2.535 2.14405L0.579094 2.42861C0.214819 2.48117 -0.0378323 2.81912 0.0147306 3.1834C0.0356391 3.32842 0.103779 3.46245 0.208572 3.56483L1.62335 4.94429L1.29015 6.8922C1.22618 7.25464 1.46808 7.60034 1.83052 7.66432C1.97647 7.69006 2.12674 7.66648 2.25777 7.59726L4.00709 6.67495L5.75641 7.59459C6.0822 7.76586 6.48513 7.64066 6.65639 7.31487C6.72462 7.18517 6.74811 7.03664 6.72337 6.8922L6.39016 4.94429L7.80561 3.56483C7.98679 3.38748 8.0516 3.12275 7.97288 2.88176ZM5.20662 4.23457C5.04969 4.38743 4.97796 4.60767 5.0147 4.82367L5.17997 5.78663L4.31697 5.33148C4.12296 5.2296 3.89122 5.2296 3.69721 5.33148L2.83088 5.78596L2.99615 4.82301C3.03355 4.60784 2.96308 4.38793 2.80756 4.23457L2.10717 3.55283L3.07412 3.41222C3.2912 3.38074 3.47888 3.24437 3.57593 3.0477L4.00709 2.17271L4.43892 3.0477C4.53589 3.24421 4.72323 3.38049 4.94006 3.41222L5.90635 3.55283L5.20662 4.23457Z" fill="#5B399B"/>
<path d="M37.7419 33.4038H37.7393L37.4647 32.9919C35.9252 30.6898 33.5044 29.1244 30.7733 28.665C30.409 28.613 30.0714 28.8662 30.0195 29.2306C29.9692 29.5826 30.2042 29.9121 30.5534 29.9791C32.5233 30.3135 34.3185 31.3143 35.6388 32.814C34.5288 33.0137 33.558 33.6803 32.9731 34.6446C32.2554 35.9301 32.7157 37.5538 34.0011 38.2716C35.2865 38.9893 36.9103 38.529 37.628 37.2436C37.9021 36.7144 38.0502 36.1289 38.0605 35.533C38.7695 36.5628 38.8263 37.9077 38.2064 38.9936C38.0187 39.3102 38.123 39.719 38.4396 39.9068C38.7561 40.0945 39.165 39.9901 39.3527 39.6736C39.3587 39.6634 39.3645 39.6532 39.37 39.6427C40.5902 37.4632 39.8715 34.7092 37.7419 33.4038ZM36.4658 36.5932C36.1101 37.2377 35.2993 37.4718 34.6549 37.1161C34.0105 36.7604 33.7763 35.9496 34.132 35.3052C34.134 35.3016 34.136 35.298 34.138 35.2944C34.5313 34.6505 35.1946 34.2188 35.9426 34.1202C36.0585 34.117 36.1732 34.1437 36.2758 34.1975C36.8383 34.5114 36.8683 35.8722 36.4658 36.5932Z" fill="#5B399B"/>
</svg>
