<svg viewBox="0 0 40 40" fill="none" xmlns="http://www.w3.org/2000/svg">
<path d="M39.8235 27.3515L37.0644 24.5925C36.829 24.3572 36.4476 24.3572 36.2122 24.5925C35.9769 24.8278 35.9769 25.2094 36.2122 25.4447L36.5965 25.8289L27.3339 35.0916L24.0295 31.7873L33.2923 22.5246L34.2366 23.4689C34.472 23.7042 34.8534 23.7042 35.0888 23.4689C35.3241 23.2336 35.3241 22.852 35.0888 22.6168L33.7217 21.2497C32.6387 20.1391 31.927 18.8738 30.9244 17.6864C32.0698 16.1482 30.8577 13.896 28.9497 13.9896C29.0128 12.6498 27.868 11.4989 26.5239 11.5625C26.5869 10.2234 25.4378 9.07047 24.0962 9.13611C24.2003 6.9256 21.4374 5.93134 19.9998 7.52786L19.8579 7.38597C18.9539 6.48202 17.483 6.48202 16.579 7.38597C16.0987 7.86635 15.8735 8.50686 15.9037 9.13732C14.5619 9.07304 13.4125 10.2188 13.4761 11.564C12.9415 11.5386 12.4002 11.6974 11.9551 12.039C11.1359 11.7501 10.2402 11.8549 9.44695 12.3435C8.469 12.9458 7.85694 13.9936 7.84199 15.0858L7.15939 20.3687L0.176496 27.3515C-0.0588322 27.5869 -0.0588322 27.9684 0.176496 28.2037L10.2913 38.3185C10.4089 38.4363 10.5632 38.4951 10.7174 38.4951C10.8715 38.4951 11.0258 38.4363 11.1434 38.3185L17.2485 32.2134C17.4839 31.9781 17.4839 31.5965 17.2485 31.3613L16.2229 30.3356C17.3744 29.1842 18.5293 28.6009 19.9999 27.9365C21.4591 28.5958 22.6356 29.1944 23.7768 30.3356L22.7512 31.3613C22.6382 31.4743 22.5747 31.6276 22.5747 31.7874C22.5747 31.9472 22.6382 32.1005 22.7512 32.2134L28.8563 38.3185C28.974 38.4362 29.1283 38.4951 29.2824 38.4951C29.4366 38.4951 29.5909 38.4363 29.7086 38.3185L39.8235 28.2038C39.9364 28.0908 39.9999 27.9375 39.9999 27.7777C39.9999 27.6179 39.9365 27.4645 39.8235 27.3515ZM29.0607 15.192C29.8408 15.193 30.3959 16.0417 30.079 16.7565C29.5947 16.2623 29.102 15.7764 28.6128 15.2872C28.7621 15.2554 28.9114 15.2237 29.0607 15.192ZM26.6337 12.7649C27.421 12.7659 27.9682 13.6119 27.6522 14.3289C27.1341 13.8227 26.5486 13.3658 25.8938 13.0494C26.1053 12.8631 26.3519 12.7683 26.6337 12.7649ZM10.2931 17.2345L10.1512 17.0926C9.71715 16.6585 9.71715 15.9522 10.1512 15.5181C10.3683 15.3011 10.6534 15.1926 10.9385 15.1926C11.2235 15.1926 11.5087 15.3011 11.7257 15.5181L11.8675 15.6599L11.0803 16.4471L10.2931 17.2345ZM17.4313 8.23811C17.6483 8.0211 17.9334 7.91255 18.2185 7.91255C18.5035 7.91255 18.7887 8.0211 19.0057 8.23811L19.1476 8.37999L17.5731 9.9545L17.4312 9.81261C16.9972 9.37851 16.9972 8.67221 17.4313 8.23811ZM14.6785 11.452C14.6785 11.1547 14.7943 10.8751 15.0046 10.6648C15.2217 10.4478 15.5068 10.3393 15.7918 10.3393C16.0769 10.3393 16.362 10.4478 16.579 10.6648L16.7209 10.8067L15.9337 11.5939L15.1464 12.3811L15.0045 12.2393C14.7943 12.029 14.6785 11.7494 14.6785 11.452ZM13.3651 12.7659C13.6502 12.7659 13.9354 12.8745 14.1523 13.0915L14.2942 13.2334L12.7197 14.8079L12.5778 14.666C12.1437 14.2319 12.1437 13.5256 12.5778 13.0915C12.795 12.8744 13.08 12.7659 13.3651 12.7659ZM10.0789 13.3695C10.3092 13.2278 10.7091 13.0459 11.1843 13.0932C11.0808 13.3821 11.0358 13.6875 11.0504 13.9907C10.2763 13.9536 9.51002 14.3221 9.05672 14.9513C9.11906 14.3293 9.50576 13.7226 10.0789 13.3695ZM10.7174 37.0403L1.45478 27.7776L2.55131 26.6811L11.8139 35.9437L10.7174 37.0403ZM22.6854 27.8267C22.2604 27.5625 21.8095 27.3397 21.3413 27.1624C21.9414 26.7304 22.4483 26.1975 22.9689 25.6769C23.2042 25.4416 23.2042 25.06 22.9689 24.8248C22.7335 24.5895 22.352 24.5895 22.1167 24.8248C21.3858 25.5557 20.6718 26.263 19.7318 26.7302C18.085 27.5537 16.6962 28.158 15.3709 29.4833L10.2473 24.3598C10.012 24.1244 9.63046 24.1244 9.39521 24.3598C9.15988 24.5951 9.15988 24.9766 9.39521 25.2119L15.9705 31.7872L12.6663 35.0915L3.40345 25.8289L6.70769 22.5247L7.30433 23.1213C7.53966 23.3567 7.92121 23.3567 8.15646 23.1213C8.39179 22.886 8.39179 22.5044 8.15646 22.2692L7.55982 21.6726L8.1567 21.0757C8.25086 20.9815 8.31112 20.8588 8.32823 20.7268L8.78772 17.1708C9.00723 17.7186 9.45948 18.1054 9.86586 18.5117C10.1015 18.7474 10.4885 18.7436 10.7192 18.5129L20.9942 8.23778C21.9983 7.23372 23.5763 8.80534 22.569 9.81261C22.4513 9.93024 22.3925 10.0845 22.3925 10.2387C22.3925 10.3929 22.4513 10.5471 22.569 10.6647C22.8044 10.9001 23.1858 10.9001 23.4212 10.6647C24.4369 9.64903 26.011 11.2236 24.9954 12.239C24.8778 12.3566 24.819 12.5109 24.819 12.6651C24.819 12.5258 20.0321 12.5908 19.6449 12.5908C17.0216 12.5908 16.586 16.476 19.1784 16.9819L22.1663 17.8668C22.6329 18.0048 23.0617 18.26 23.4064 18.6048L25.8716 21.0699L24.1321 22.8094C23.8966 23.0448 23.8966 23.4262 24.132 23.6616C24.3673 23.8969 24.7489 23.8969 24.9841 23.6616L27.1498 21.496C27.2628 21.383 27.3263 21.2297 27.3263 21.0699C27.3263 20.9101 27.2628 20.7568 27.1499 20.6438L24.2587 17.7526C23.7723 17.2662 23.167 16.9061 22.5085 16.7113L19.4911 15.8176C18.3795 15.4886 18.2752 13.7961 19.645 13.7961H23.9264C25.0894 13.7961 26.0841 14.4626 26.8789 15.2575C26.8789 15.2575 29.4924 17.8817 29.6691 18.0795C30.6992 19.225 31.3581 20.5902 32.4402 21.6722L24.6291 29.4832C24.0221 28.8764 23.4202 28.2831 22.6854 27.8267ZM29.2826 37.0403L28.1861 35.9438L37.4487 26.6812L38.5453 27.7777L29.2826 37.0403Z" fill="#5B399B"/>
<path d="M20 3.94197C20.3329 3.94197 20.6026 3.67217 20.6026 3.33939V2.10747C20.6026 1.77468 20.3329 1.50488 20 1.50488C19.6673 1.50488 19.3975 1.77468 19.3975 2.10747V3.33939C19.3975 3.67217 19.6673 3.94197 20 3.94197Z" fill="#5B399B"/>
<path d="M16.602 4.16523C16.701 4.39156 16.9222 4.52654 17.1544 4.52654C17.2349 4.52654 17.3169 4.51023 17.3955 4.47592C17.7004 4.34255 17.8394 3.98727 17.7061 3.68236L17.2124 2.55368C17.0791 2.24878 16.7238 2.10962 16.4189 2.24307C16.114 2.37644 15.9749 2.73173 16.1083 3.03663L16.602 4.16523Z" fill="#5B399B"/>
<path d="M14.3714 6.04065C14.4874 6.14783 14.6341 6.20077 14.7804 6.20077C14.9425 6.20077 15.1042 6.1357 15.223 6.00731C15.4489 5.76298 15.434 5.38174 15.1897 5.15574L14.2851 4.31935C14.0407 4.09334 13.6596 4.10837 13.4336 4.35269C13.2076 4.59702 13.2226 4.97825 13.4669 5.20426L14.3714 6.04065Z" fill="#5B399B"/>
<path d="M22.6045 4.47484C22.683 4.50923 22.7649 4.52546 22.8456 4.52546C23.0778 4.52546 23.299 4.39048 23.398 4.16415L23.8917 3.03547C24.025 2.73057 23.8859 2.37528 23.581 2.24199C23.2763 2.10878 22.9208 2.2477 22.7874 2.55268L22.2938 3.68136C22.1605 3.98619 22.2996 4.34147 22.6045 4.47484Z" fill="#5B399B"/>
<path d="M25.22 6.20077C25.3663 6.20077 25.513 6.14783 25.6289 6.04065L26.5335 5.20426C26.7778 4.97833 26.7929 4.5971 26.5669 4.35269C26.3409 4.10837 25.9596 4.09334 25.7153 4.31935L24.8107 5.15574C24.5664 5.38166 24.5514 5.7629 24.7774 6.00731C24.8962 6.1357 25.0578 6.20077 25.22 6.20077Z" fill="#5B399B"/>
<path d="M12.8266 32.51C13.1915 32.4237 13.4174 32.058 13.3312 31.6931C13.2449 31.3282 12.8792 31.1023 12.5143 31.1885C12.1493 31.2748 11.9234 31.6405 12.0097 32.0055C12.096 32.3704 12.4617 32.5963 12.8266 32.51Z" fill="#5B399B"/>
</svg>
