<svg viewBox="0 0 40 40" fill="none" xmlns="http://www.w3.org/2000/svg">
<g clip-path="url(#clip0)">
<path d="M20.0777 20.7031C20.5098 20.7031 20.8605 20.3531 20.8605 19.9219C20.8605 19.4907 20.5098 19.1406 20.0777 19.1406C19.6456 19.1406 19.2949 19.4907 19.2949 19.9219C19.2949 20.3531 19.6456 20.7031 20.0777 20.7031Z" fill="#5B399B"/>
<path d="M20.8605 5.85939V0.703127C20.8605 0.271607 20.5101 -0.078125 20.0777 -0.078125C19.6453 -0.078125 19.2949 0.271607 19.2949 0.703127V5.85939C19.2949 6.29091 19.6453 6.64064 20.0777 6.64064C20.5101 6.64064 20.8605 6.29091 20.8605 5.85939Z" fill="#5B399B"/>
<path d="M10.6847 9.15192C11.0593 8.93646 11.1874 8.45856 10.9712 8.08472L8.6229 4.02556C8.40671 3.65172 7.92818 3.52385 7.55361 3.73961C7.17934 3.95537 7.05091 4.43297 7.2671 4.80682L9.61544 8.86597C9.83254 9.24164 10.3123 9.36676 10.6847 9.15192Z" fill="#5B399B"/>
<path d="M30.5399 8.86597L32.8882 4.80682C33.1044 4.43297 32.9763 3.95537 32.6017 3.73961C32.2271 3.52385 31.7486 3.65172 31.5324 4.02556L29.1841 8.08472C28.9679 8.45856 29.0963 8.93646 29.4706 9.15192C29.8436 9.36707 30.3231 9.24103 30.5399 8.86597Z" fill="#5B399B"/>
<path d="M3.81451 20.4148L3.81727 20.4181C3.81757 20.4184 3.81788 20.419 3.81818 20.4193L19.4701 39.6335C19.4719 39.636 19.4744 39.6378 19.4762 39.6403C19.6294 39.8237 19.8554 39.9219 20.0774 39.9219C20.3107 39.9219 20.5375 39.8142 20.6846 39.6335L36.3365 20.4193C36.3368 20.4187 36.3371 20.4184 36.3374 20.4181L36.3402 20.4148C36.5295 20.1825 36.5169 19.914 36.5157 19.9219C36.5157 19.7434 36.4506 19.567 36.3442 19.4339L30.0819 11.6214C29.9306 11.4325 29.6988 11.3281 29.4707 11.3281H10.684C10.6813 11.3281 10.6785 11.3287 10.6758 11.3287C10.4428 11.3312 10.2183 11.4395 10.0725 11.6214L3.81023 19.4339C3.57723 19.7254 3.58702 20.1355 3.81451 20.4148ZM6.06714 20.7031H12.8419L17.8819 35.207L6.06714 20.7031ZM22.2728 35.207L27.3129 20.7031H34.0879L22.2728 35.207ZM29.7456 13.7027L34.1044 19.1406H27.8559L29.7456 13.7027ZM28.3708 12.8906L26.4521 18.4116L21.7664 12.8906H28.3708ZM25.0193 19.1406H23.2085C22.7761 19.1406 22.4257 19.4904 22.4257 19.9219C22.4257 20.3534 22.7761 20.7031 23.2085 20.7031H25.6559L20.0774 36.7563L14.4988 20.7031H16.9462C17.3786 20.7031 17.729 20.3534 17.729 19.9219C17.729 19.4904 17.3786 19.1406 16.9462 19.1406H15.1355L20.0774 13.3182L25.0193 19.1406ZM18.3886 12.8906L13.7026 18.4116L11.7842 12.8906H18.3886ZM10.4091 13.7027L12.2988 19.1406H6.05033L10.4091 13.7027Z" fill="#5B399B"/>
</g>
<defs>
<clipPath id="clip0">
<rect width="40" height="40" fill="white"/>
</clipPath>
</defs>
</svg>
