<svg viewBox="0 0 32 32" fill="none" xmlns="http://www.w3.org/2000/svg">
<path d="M16.0003 25.3333C16.264 25.3333 16.5218 25.2551 16.7411 25.1085C16.9604 24.962 17.1312 24.7538 17.2322 24.5102C17.3331 24.2665 17.3595 23.9984 17.308 23.7398C17.2566 23.4812 17.1296 23.2436 16.9431 23.0571C16.7567 22.8706 16.5191 22.7437 16.2604 22.6922C16.0018 22.6408 15.7337 22.6672 15.4901 22.7681C15.2464 22.869 15.0382 23.0399 14.8917 23.2592C14.7452 23.4784 14.667 23.7362 14.667 23.9999C14.667 24.3535 14.8075 24.6927 15.0575 24.9427C15.3076 25.1928 15.6467 25.3333 16.0003 25.3333ZM22.667 25.3333C22.9307 25.3333 23.1885 25.2551 23.4078 25.1085C23.627 24.962 23.7979 24.7538 23.8988 24.5102C23.9997 24.2665 24.0262 23.9984 23.9747 23.7398C23.9233 23.4812 23.7963 23.2436 23.6098 23.0571C23.4233 22.8706 23.1858 22.7437 22.9271 22.6922C22.6685 22.6408 22.4004 22.6672 22.1567 22.7681C21.9131 22.869 21.7049 23.0399 21.5584 23.2592C21.4119 23.4784 21.3337 23.7362 21.3337 23.9999C21.3337 24.3535 21.4741 24.6927 21.7242 24.9427C21.9742 25.1928 22.3134 25.3333 22.667 25.3333ZM22.667 19.9999C22.9307 19.9999 23.1885 19.9217 23.4078 19.7752C23.627 19.6287 23.7979 19.4205 23.8988 19.1768C23.9997 18.9332 24.0262 18.6651 23.9747 18.4065C23.9233 18.1478 23.7963 17.9102 23.6098 17.7238C23.4233 17.5373 23.1858 17.4103 22.9271 17.3589C22.6685 17.3074 22.4004 17.3338 22.1567 17.4347C21.9131 17.5357 21.7049 17.7066 21.5584 17.9258C21.4119 18.1451 21.3337 18.4029 21.3337 18.6666C21.3337 19.0202 21.4741 19.3593 21.7242 19.6094C21.9742 19.8594 22.3134 19.9999 22.667 19.9999ZM16.0003 19.9999C16.264 19.9999 16.5218 19.9217 16.7411 19.7752C16.9604 19.6287 17.1312 19.4205 17.2322 19.1768C17.3331 18.9332 17.3595 18.6651 17.308 18.4065C17.2566 18.1478 17.1296 17.9102 16.9431 17.7238C16.7567 17.5373 16.5191 17.4103 16.2604 17.3589C16.0018 17.3074 15.7337 17.3338 15.4901 17.4347C15.2464 17.5357 15.0382 17.7066 14.8917 17.9258C14.7452 18.1451 14.667 18.4029 14.667 18.6666C14.667 19.0202 14.8075 19.3593 15.0575 19.6094C15.3076 19.8594 15.6467 19.9999 16.0003 19.9999ZM25.3337 3.99992H24.0003V2.66659C24.0003 2.31296 23.8598 1.97382 23.6098 1.72378C23.3598 1.47373 23.0206 1.33325 22.667 1.33325C22.3134 1.33325 21.9742 1.47373 21.7242 1.72378C21.4741 1.97382 21.3337 2.31296 21.3337 2.66659V3.99992H10.667V2.66659C10.667 2.31296 10.5265 1.97382 10.2765 1.72378C10.0264 1.47373 9.68728 1.33325 9.33366 1.33325C8.98004 1.33325 8.6409 1.47373 8.39085 1.72378C8.1408 1.97382 8.00033 2.31296 8.00033 2.66659V3.99992H6.66699C5.60613 3.99992 4.58871 4.42135 3.83857 5.17149C3.08842 5.92164 2.66699 6.93905 2.66699 7.99992V26.6666C2.66699 27.7274 3.08842 28.7449 3.83857 29.495C4.58871 30.2452 5.60613 30.6666 6.66699 30.6666H25.3337C26.3945 30.6666 27.4119 30.2452 28.1621 29.495C28.9122 28.7449 29.3337 27.7274 29.3337 26.6666V7.99992C29.3337 6.93905 28.9122 5.92164 28.1621 5.17149C27.4119 4.42135 26.3945 3.99992 25.3337 3.99992ZM26.667 26.6666C26.667 27.0202 26.5265 27.3593 26.2765 27.6094C26.0264 27.8594 25.6873 27.9999 25.3337 27.9999H6.66699C6.31337 27.9999 5.97423 27.8594 5.72418 27.6094C5.47413 27.3593 5.33366 27.0202 5.33366 26.6666V14.6666H26.667V26.6666ZM26.667 11.9999H5.33366V7.99992C5.33366 7.6463 5.47413 7.30716 5.72418 7.05711C5.97423 6.80706 6.31337 6.66658 6.66699 6.66658H8.00033V7.99992C8.00033 8.35354 8.1408 8.69268 8.39085 8.94273C8.6409 9.19278 8.98004 9.33325 9.33366 9.33325C9.68728 9.33325 10.0264 9.19278 10.2765 8.94273C10.5265 8.69268 10.667 8.35354 10.667 7.99992V6.66658H21.3337V7.99992C21.3337 8.35354 21.4741 8.69268 21.7242 8.94273C21.9742 9.19278 22.3134 9.33325 22.667 9.33325C23.0206 9.33325 23.3598 9.19278 23.6098 8.94273C23.8598 8.69268 24.0003 8.35354 24.0003 7.99992V6.66658H25.3337C25.6873 6.66658 26.0264 6.80706 26.2765 7.05711C26.5265 7.30716 26.667 7.6463 26.667 7.99992V11.9999ZM9.33366 19.9999C9.59737 19.9999 9.85515 19.9217 10.0744 19.7752C10.2937 19.6287 10.4646 19.4205 10.5655 19.1768C10.6664 18.9332 10.6928 18.6651 10.6414 18.4065C10.5899 18.1478 10.4629 17.9102 10.2765 17.7238C10.09 17.5373 9.85242 17.4103 9.59378 17.3589C9.33514 17.3074 9.06705 17.3338 8.82341 17.4347C8.57978 17.5357 8.37154 17.7066 8.22503 17.9258C8.07852 18.1451 8.00033 18.4029 8.00033 18.6666C8.00033 19.0202 8.1408 19.3593 8.39085 19.6094C8.6409 19.8594 8.98004 19.9999 9.33366 19.9999ZM9.33366 25.3333C9.59737 25.3333 9.85515 25.2551 10.0744 25.1085C10.2937 24.962 10.4646 24.7538 10.5655 24.5102C10.6664 24.2665 10.6928 23.9984 10.6414 23.7398C10.5899 23.4812 10.4629 23.2436 10.2765 23.0571C10.09 22.8706 9.85242 22.7437 9.59378 22.6922C9.33514 22.6408 9.06705 22.6672 8.82341 22.7681C8.57978 22.869 8.37154 23.0399 8.22503 23.2592C8.07852 23.4784 8.00033 23.7362 8.00033 23.9999C8.00033 24.3535 8.1408 24.6927 8.39085 24.9427C8.6409 25.1928 8.98004 25.3333 9.33366 25.3333Z" fill="#5B399B"/>
</svg>
