<svg viewBox="0 0 32 32" fill="none" xmlns="http://www.w3.org/2000/svg">
<path d="M25.3337 16.0001H16.0003V6.66675C16.0003 5.86675 15.467 5.33341 14.667 5.33341C8.00033 5.33341 2.66699 10.6667 2.66699 17.3334C2.66699 24.0001 8.00033 29.3334 14.667 29.3334C21.3337 29.3334 26.667 24.0001 26.667 17.3334C26.667 16.5334 26.1337 16.0001 25.3337 16.0001ZM16.0003 26.5334C10.9337 27.3334 6.13366 23.7334 5.46699 18.6667C4.66699 13.6001 8.26699 8.80008 13.3337 8.13341V17.3334C13.3337 18.1334 13.867 18.6667 14.667 18.6667H23.867C23.3337 22.8001 20.1337 26.0001 16.0003 26.5334ZM20.0003 2.66675C19.2003 2.66675 18.667 3.20008 18.667 4.00008V12.0001C18.667 12.8001 19.2003 13.3334 20.0003 13.3334H28.0003C28.8003 13.3334 29.3337 12.8001 29.3337 12.0001C29.3337 6.80008 25.2003 2.66675 20.0003 2.66675ZM21.3337 10.6667V5.46675C24.0003 6.00008 26.0003 8.00008 26.5337 10.6667H21.3337Z" fill="#5B399B"/>
</svg>
