<svg viewBox="0 0 32 32" fill="none" xmlns="http://www.w3.org/2000/svg">
<path d="M25.3337 4H6.66699C5.60613 4 4.58871 4.42143 3.83857 5.17157C3.08842 5.92172 2.66699 6.93913 2.66699 8V18.6667C2.66699 19.7275 3.08842 20.7449 3.83857 21.4951C4.58871 22.2452 5.60613 22.6667 6.66699 22.6667H14.667V25.3333H9.33366C8.98004 25.3333 8.6409 25.4738 8.39085 25.7239C8.1408 25.9739 8.00033 26.313 8.00033 26.6667C8.00033 27.0203 8.1408 27.3594 8.39085 27.6095C8.6409 27.8595 8.98004 28 9.33366 28H22.667C23.0206 28 23.3598 27.8595 23.6098 27.6095C23.8598 27.3594 24.0003 27.0203 24.0003 26.6667C24.0003 26.313 23.8598 25.9739 23.6098 25.7239C23.3598 25.4738 23.0206 25.3333 22.667 25.3333H17.3337V22.6667H25.3337C26.3945 22.6667 27.4119 22.2452 28.1621 21.4951C28.9122 20.7449 29.3337 19.7275 29.3337 18.6667V8C29.3337 6.93913 28.9122 5.92172 28.1621 5.17157C27.4119 4.42143 26.3945 4 25.3337 4ZM26.667 18.6667C26.667 19.0203 26.5265 19.3594 26.2765 19.6095C26.0264 19.8595 25.6873 20 25.3337 20H6.66699C6.31337 20 5.97423 19.8595 5.72418 19.6095C5.47413 19.3594 5.33366 19.0203 5.33366 18.6667V8C5.33366 7.64638 5.47413 7.30724 5.72418 7.05719C5.97423 6.80714 6.31337 6.66667 6.66699 6.66667H25.3337C25.6873 6.66667 26.0264 6.80714 26.2765 7.05719C26.5265 7.30724 26.667 7.64638 26.667 8V18.6667Z" fill="#5B399B"/>
</svg>
