<svg viewBox="0 0 32 32" fill="none" xmlns="http://www.w3.org/2000/svg">
<path d="M15.333 26.6667H7.33301C6.97939 26.6667 6.64025 26.5263 6.3902 26.2762C6.14015 26.0262 5.99967 25.687 5.99967 25.3334V6.66675C5.99967 6.31313 6.14015 5.97399 6.3902 5.72394C6.64025 5.47389 6.97939 5.33341 7.33301 5.33341H13.9997V9.33342C13.9997 10.3943 14.4211 11.4117 15.1712 12.1618C15.9214 12.912 16.9388 13.3334 17.9997 13.3334H21.9997V20.0001C21.9997 20.3537 22.1402 20.6928 22.3902 20.9429C22.6402 21.1929 22.9794 21.3334 23.333 21.3334C23.6866 21.3334 24.0258 21.1929 24.2758 20.9429C24.5259 20.6928 24.6663 20.3537 24.6663 20.0001V12.0001C24.6663 12.0001 24.6663 12.0001 24.6663 11.9201C24.6525 11.7976 24.6256 11.6769 24.5863 11.5601V11.4401C24.5222 11.303 24.4367 11.177 24.333 11.0667L16.333 3.06675C16.2228 2.96304 16.0968 2.87752 15.9597 2.81341C15.9156 2.80569 15.8705 2.80569 15.8263 2.81341C15.6967 2.74409 15.5574 2.69464 15.413 2.66675H7.33301C6.27214 2.66675 5.25473 3.08818 4.50458 3.83832C3.75444 4.58847 3.33301 5.60588 3.33301 6.66675V25.3334C3.33301 26.3943 3.75444 27.4117 4.50458 28.1618C5.25473 28.912 6.27214 29.3334 7.33301 29.3334H15.333C15.6866 29.3334 16.0258 29.1929 16.2758 28.9429C16.5259 28.6928 16.6663 28.3537 16.6663 28.0001C16.6663 27.6465 16.5259 27.3073 16.2758 27.0573C16.0258 26.8072 15.6866 26.6667 15.333 26.6667ZM16.6663 7.21341L20.1197 10.6667H17.9997C17.6461 10.6667 17.3069 10.5263 17.0569 10.2762C16.8068 10.0262 16.6663 9.68704 16.6663 9.33342V7.21341ZM9.99968 18.6667H17.9997C18.3533 18.6667 18.6924 18.5263 18.9425 18.2762C19.1925 18.0262 19.333 17.687 19.333 17.3334C19.333 16.9798 19.1925 16.6407 18.9425 16.3906C18.6924 16.1406 18.3533 16.0001 17.9997 16.0001H9.99968C9.64605 16.0001 9.30691 16.1406 9.05687 16.3906C8.80682 16.6407 8.66634 16.9798 8.66634 17.3334C8.66634 17.687 8.80682 18.0262 9.05687 18.2762C9.30691 18.5263 9.64605 18.6667 9.99968 18.6667ZM15.333 21.3334H9.99968C9.64605 21.3334 9.30691 21.4739 9.05687 21.7239C8.80682 21.974 8.66634 22.3131 8.66634 22.6667C8.66634 23.0204 8.80682 23.3595 9.05687 23.6096C9.30691 23.8596 9.64605 24.0001 9.99968 24.0001H15.333C15.6866 24.0001 16.0258 23.8596 16.2758 23.6096C16.5259 23.3595 16.6663 23.0204 16.6663 22.6667C16.6663 22.3131 16.5259 21.974 16.2758 21.7239C16.0258 21.4739 15.6866 21.3334 15.333 21.3334ZM9.99968 13.3334H11.333C11.6866 13.3334 12.0258 13.1929 12.2758 12.9429C12.5259 12.6928 12.6663 12.3537 12.6663 12.0001C12.6663 11.6465 12.5259 11.3073 12.2758 11.0573C12.0258 10.8072 11.6866 10.6667 11.333 10.6667H9.99968C9.64605 10.6667 9.30691 10.8072 9.05687 11.0573C8.80682 11.3073 8.66634 11.6465 8.66634 12.0001C8.66634 12.3537 8.80682 12.6928 9.05687 12.9429C9.30691 13.1929 9.64605 13.3334 9.99968 13.3334ZM28.2797 21.7201C28.1557 21.5951 28.0083 21.4959 27.8458 21.4282C27.6833 21.3605 27.509 21.3257 27.333 21.3257C27.157 21.3257 26.9827 21.3605 26.8202 21.4282C26.6578 21.4959 26.5103 21.5951 26.3863 21.7201L21.9997 26.1201L20.2797 24.3867C20.1554 24.2624 20.0078 24.1638 19.8453 24.0965C19.6829 24.0293 19.5088 23.9946 19.333 23.9946C19.1572 23.9946 18.9831 24.0293 18.8207 24.0965C18.6582 24.1638 18.5107 24.2624 18.3863 24.3867C18.262 24.5111 18.1634 24.6587 18.0961 24.8211C18.0288 24.9835 17.9942 25.1576 17.9942 25.3334C17.9942 25.5092 18.0288 25.6833 18.0961 25.8457C18.1634 26.0082 18.262 26.1558 18.3863 26.2801L21.053 28.9467C21.177 29.0717 21.3244 29.1709 21.4869 29.2386C21.6494 29.3063 21.8237 29.3411 21.9997 29.3411C22.1757 29.3411 22.35 29.3063 22.5124 29.2386C22.6749 29.1709 22.8224 29.0717 22.9463 28.9467L28.2797 23.6134C28.4046 23.4895 28.5038 23.342 28.5715 23.1795C28.6392 23.017 28.6741 22.8428 28.6741 22.6667C28.6741 22.4907 28.6392 22.3165 28.5715 22.154C28.5038 21.9915 28.4046 21.844 28.2797 21.7201Z" fill="#5B399B"/>
</svg>
