<svg viewBox="0 0 32 32" fill="none" xmlns="http://www.w3.org/2000/svg">
<path d="M12.0003 14.6667C12.264 14.6667 12.5218 14.5885 12.7411 14.442C12.9604 14.2955 13.1313 14.0873 13.2322 13.8437C13.3331 13.6 13.3595 13.3319 13.308 13.0733C13.2566 12.8147 13.1296 12.5771 12.9431 12.3906C12.7567 12.2041 12.5191 12.0771 12.2605 12.0257C12.0018 11.9743 11.7337 12.0007 11.4901 12.1016C11.2465 12.2025 11.0382 12.3734 10.8917 12.5927C10.7452 12.8119 10.667 13.0697 10.667 13.3334C10.667 13.687 10.8075 14.0262 11.0575 14.2762C11.3076 14.5263 11.6467 14.6667 12.0003 14.6667ZM16.0003 2.66675C13.3632 2.66675 10.7854 3.44873 8.59273 4.91382C6.40007 6.37891 4.69111 8.46129 3.68194 10.8976C2.67277 13.334 2.40872 16.0149 2.92319 18.6013C3.43766 21.1877 4.70754 23.5635 6.57224 25.4282C8.43694 27.2929 10.8127 28.5627 13.3991 29.0772C15.9855 29.5917 18.6664 29.3276 21.1028 28.3185C23.5391 27.3093 25.6215 25.6003 27.0866 23.4077C28.5517 21.215 29.3337 18.6372 29.3337 16.0001C29.3337 14.2491 28.9888 12.5153 28.3187 10.8976C27.6487 9.27996 26.6665 7.81011 25.4284 6.57199C24.1903 5.33388 22.7205 4.35175 21.1028 3.68169C19.4851 3.01162 17.7513 2.66675 16.0003 2.66675ZM16.0003 26.6667C13.8907 26.6667 11.8284 26.0412 10.0742 24.8691C8.32012 23.697 6.95295 22.0311 6.14562 20.082C5.33828 18.133 5.12705 15.9882 5.53862 13.9191C5.9502 11.85 6.9661 9.94937 8.45786 8.45761C9.94962 6.96585 11.8502 5.94995 13.9194 5.53837C15.9885 5.1268 18.1332 5.33803 20.0823 6.14537C22.0314 6.9527 23.6973 8.31987 24.8693 10.074C26.0414 11.8281 26.667 13.8904 26.667 16.0001C26.667 18.8291 25.5432 21.5422 23.5428 23.5426C21.5424 25.5429 18.8293 26.6667 16.0003 26.6667ZM20.0003 17.3334H12.0003C11.6467 17.3334 11.3076 17.4739 11.0575 17.7239C10.8075 17.974 10.667 18.3131 10.667 18.6667C10.667 20.0812 11.2289 21.4378 12.2291 22.438C13.2293 23.4382 14.5858 24.0001 16.0003 24.0001C17.4148 24.0001 18.7714 23.4382 19.7716 22.438C20.7718 21.4378 21.3337 20.0812 21.3337 18.6667C21.3337 18.3131 21.1932 17.974 20.9431 17.7239C20.6931 17.4739 20.354 17.3334 20.0003 17.3334ZM16.0003 21.3334C15.5327 21.3329 15.0734 21.2095 14.6685 20.9755C14.2637 20.7414 13.9275 20.4051 13.6937 20.0001H18.307C18.0732 20.4051 17.737 20.7414 17.3321 20.9755C16.9273 21.2095 16.468 21.3329 16.0003 21.3334ZM20.0003 12.0001C19.7366 12.0001 19.4788 12.0783 19.2596 12.2248C19.0403 12.3713 18.8694 12.5795 18.7685 12.8232C18.6676 13.0668 18.6412 13.3349 18.6926 13.5935C18.7441 13.8522 18.8711 14.0898 19.0575 14.2762C19.244 14.4627 19.4816 14.5897 19.7402 14.6411C19.9989 14.6926 20.2669 14.6662 20.5106 14.5653C20.7542 14.4643 20.9625 14.2934 21.109 14.0742C21.2555 13.8549 21.3337 13.5971 21.3337 13.3334C21.3337 12.9798 21.1932 12.6407 20.9431 12.3906C20.6931 12.1406 20.354 12.0001 20.0003 12.0001Z" fill="#FDFFFC"/>
</svg>
