<svg viewBox="0 0 32 32" fill="none" xmlns="http://www.w3.org/2000/svg">
<path d="M13.7203 15.6134C13.8443 15.7384 13.9917 15.8376 14.1542 15.9053C14.3167 15.973 14.491 16.0078 14.667 16.0078C14.843 16.0078 15.0173 15.973 15.1798 15.9053C15.3422 15.8376 15.4897 15.7384 15.6137 15.6134L20.947 10.2801C21.0713 10.1558 21.1699 10.0082 21.2372 9.84575C21.3045 9.68332 21.3391 9.50923 21.3391 9.33342C21.3391 9.1576 21.3045 8.98351 21.2372 8.82108C21.1699 8.65865 21.0713 8.51107 20.947 8.38675C20.8227 8.26243 20.6751 8.16382 20.5127 8.09654C20.3502 8.02925 20.1761 7.99463 20.0003 7.99463C19.8245 7.99463 19.6504 8.02925 19.488 8.09654C19.3256 8.16382 19.178 8.26243 19.0537 8.38675L14.667 12.7867L12.947 11.0534C12.6959 10.8023 12.3554 10.6613 12.0003 10.6613C11.6453 10.6613 11.3047 10.8023 11.0537 11.0534C10.8026 11.3045 10.6615 11.645 10.6615 12.0001C10.6615 12.3552 10.8026 12.6957 11.0537 12.9467L13.7203 15.6134ZM28.0003 18.6667H26.667V5.33341H28.0003C28.3539 5.33341 28.6931 5.19294 28.9431 4.94289C29.1932 4.69284 29.3337 4.3537 29.3337 4.00008C29.3337 3.64646 29.1932 3.30732 28.9431 3.05727C28.6931 2.80722 28.3539 2.66675 28.0003 2.66675H4.00033C3.6467 2.66675 3.30756 2.80722 3.05752 3.05727C2.80747 3.30732 2.66699 3.64646 2.66699 4.00008C2.66699 4.3537 2.80747 4.69284 3.05752 4.94289C3.30756 5.19294 3.6467 5.33341 4.00033 5.33341H5.33366V18.6667H4.00033C3.6467 18.6667 3.30756 18.8072 3.05752 19.0573C2.80747 19.3073 2.66699 19.6465 2.66699 20.0001C2.66699 20.3537 2.80747 20.6928 3.05752 20.9429C3.30756 21.1929 3.6467 21.3334 4.00033 21.3334H14.667V22.8667L8.60033 26.8667C8.35144 27.0208 8.16016 27.2525 8.05602 27.5261C7.95187 27.7996 7.94064 28.0998 8.02405 28.3804C8.10747 28.661 8.28089 28.9063 8.51757 29.0786C8.75425 29.2508 9.04103 29.3403 9.33366 29.3334C9.59579 29.3364 9.85227 29.2571 10.067 29.1067L14.667 26.0667V28.0001C14.667 28.3537 14.8075 28.6928 15.0575 28.9429C15.3076 29.1929 15.6467 29.3334 16.0003 29.3334C16.3539 29.3334 16.6931 29.1929 16.9431 28.9429C17.1932 28.6928 17.3337 28.3537 17.3337 28.0001V26.0667L21.9337 29.1067C22.1484 29.2571 22.4049 29.3364 22.667 29.3334C22.9519 29.3312 23.2285 29.2378 23.4565 29.067C23.6844 28.8961 23.8516 28.6567 23.9336 28.3839C24.0156 28.1111 24.0081 27.8192 23.9121 27.5509C23.8161 27.2827 23.6368 27.0523 23.4003 26.8934L17.3337 22.8934V21.3334H28.0003C28.3539 21.3334 28.6931 21.1929 28.9431 20.9429C29.1932 20.6928 29.3337 20.3537 29.3337 20.0001C29.3337 19.6465 29.1932 19.3073 28.9431 19.0573C28.6931 18.8072 28.3539 18.6667 28.0003 18.6667ZM24.0003 18.6667H8.00033V5.33341H24.0003V18.6667Z" fill="#5B399B"/>
</svg>
