<svg viewBox="0 0 32 32" fill="none" xmlns="http://www.w3.org/2000/svg">
<path d="M30.1347 2.74923C30.0745 2.52086 29.9548 2.31254 29.7879 2.14555C29.6209 1.97856 29.4125 1.85887 29.1842 1.79871C26.449 1.0883 23.5688 1.16481 20.8752 2.01945C18.1816 2.87408 15.7842 4.47209 13.9589 6.62946L12.4723 8.39457L8.99928 7.55659C8.15493 7.26223 7.23259 7.28333 6.40258 7.61599C5.57258 7.94865 4.89098 8.57041 4.48365 9.36643L1.55006 14.5663C1.44728 14.7484 1.38878 14.9522 1.3793 15.1611C1.36982 15.37 1.40963 15.5783 1.4955 15.769C1.58138 15.9597 1.71091 16.1275 1.87364 16.2589C2.03636 16.3902 2.22771 16.4815 2.43222 16.5252L6.52922 17.4035C6.18217 18.46 5.93435 19.5465 5.789 20.6489C5.76265 20.8515 5.78316 21.0574 5.84897 21.2507C5.91478 21.4441 6.02411 21.6197 6.16854 21.7642L10.302 25.8976C10.4258 26.0215 10.5727 26.1197 10.7345 26.1868C10.8962 26.2538 11.0696 26.2883 11.2447 26.2883C11.2831 26.2883 11.3215 26.2863 11.3606 26.2831C12.4877 26.1818 13.6011 25.9628 14.6827 25.6298L15.5409 29.634C15.5848 29.8384 15.6761 30.0297 15.8075 30.1924C15.9389 30.3551 16.1067 30.4845 16.2973 30.5704C16.488 30.6563 16.6962 30.6961 16.9051 30.6867C17.114 30.6772 17.3177 30.6188 17.4999 30.5162L22.7069 27.5793C23.4398 27.134 24.0123 26.4674 24.3418 25.6757C24.6713 24.884 24.7408 24.0081 24.5403 23.1744L23.6487 19.4957L25.2981 17.979C27.4635 16.1589 29.0676 13.7613 29.9239 11.0652C30.7801 8.36906 30.8532 5.48526 30.1347 2.74923ZM4.76296 14.2974L6.83782 10.6177C6.9667 10.3679 7.18626 10.1769 7.45149 10.0838C7.71672 9.99071 8.00752 10.0026 8.26425 10.1171L10.5541 10.672L9.68746 11.7011C8.86581 12.6858 8.15516 13.7581 7.56837 14.8986L4.76296 14.2974ZM21.3899 25.2603L17.7688 27.3026L17.1961 24.6297C18.357 24.0508 19.4385 23.3249 20.414 22.4699L21.4054 21.5583L21.9433 23.7778C22.0131 24.0519 21.9974 24.3407 21.8986 24.6057C21.7997 24.8706 21.6222 25.099 21.3899 25.2603ZM23.5423 15.9732L18.6295 20.4882C16.6849 22.1699 14.2863 23.2388 11.7356 23.5605L8.52988 20.3547C8.96044 17.7974 10.0655 15.4012 11.7311 13.4134L13.9688 10.7565C14.0061 10.7175 14.0409 10.6762 14.073 10.6328L15.9863 8.36123C17.4009 6.69043 19.2336 5.42497 21.2972 4.69409C23.3608 3.96321 25.5815 3.79308 27.7324 4.20107C28.1502 6.3587 27.9819 8.5889 27.245 10.6594C26.508 12.7298 25.2294 14.5648 23.5423 15.9732ZM22.3116 7.75489C21.916 7.75489 21.5293 7.87218 21.2004 8.09195C20.8715 8.31171 20.6152 8.62407 20.4638 8.98952C20.3125 9.35497 20.2728 9.7571 20.35 10.1451C20.4272 10.533 20.6177 10.8894 20.8974 11.1691C21.1771 11.4488 21.5334 11.6393 21.9214 11.7165C22.3094 11.7936 22.7115 11.754 23.077 11.6026C23.4424 11.4513 23.7548 11.1949 23.9745 10.866C24.1943 10.5371 24.3116 10.1504 24.3116 9.75489C24.3116 9.49223 24.2599 9.23215 24.1594 8.98948C24.0589 8.74682 23.9115 8.52633 23.7258 8.3406C23.5401 8.15488 23.3196 8.00756 23.0769 7.90706C22.8343 7.80656 22.5742 7.75484 22.3115 7.75486L22.3116 7.75489Z" fill="#5B399B"/>
</svg>
