<svg width="152" height="164" viewBox="0 0 152 164" fill="none" xmlns="http://www.w3.org/2000/svg">
<circle opacity="0.2" cx="9" cy="155" r="9" transform="rotate(-180 9 155)" fill="#5B399B"/>
<circle opacity="0.2" cx="114" cy="155" r="2" transform="rotate(-180 114 155)" fill="#5B399B"/>
<circle opacity="0.2" cx="100" cy="155" r="2" transform="rotate(-180 100 155)" fill="#5B399B"/>
<circle opacity="0.2" cx="86" cy="155" r="2" transform="rotate(-180 86 155)" fill="#5B399B"/>
<circle opacity="0.2" cx="72" cy="155" r="2" transform="rotate(-180 72 155)" fill="#5B399B"/>
<circle opacity="0.2" cx="58" cy="155" r="2" transform="rotate(-180 58 155)" fill="#5B399B"/>
<circle opacity="0.2" cx="44" cy="155" r="2" transform="rotate(-180 44 155)" fill="#5B399B"/>
<circle opacity="0.2" cx="30" cy="155" r="2" transform="rotate(-180 30 155)" fill="#5B399B"/>
<circle opacity="0.2" cx="148" cy="4" r="4" transform="rotate(-180 148 4)" fill="#5B399B"/>
<circle opacity="0.2" cx="142" cy="155" r="2" transform="rotate(-180 142 155)" fill="#5B399B"/>
<circle opacity="0.2" cx="128" cy="155" r="2" transform="rotate(-180 128 155)" fill="#5B399B"/>
<circle opacity="0.2" cx="148" cy="76" r="2" transform="rotate(90 148 76)" fill="#5B399B"/>
<circle opacity="0.2" cx="148" cy="90" r="2" transform="rotate(90 148 90)" fill="#5B399B"/>
<circle opacity="0.2" cx="148" cy="104" r="2" transform="rotate(90 148 104)" fill="#5B399B"/>
<circle opacity="0.2" cx="148" cy="118" r="2" transform="rotate(90 148 118)" fill="#5B399B"/>
<circle opacity="0.2" cx="148" cy="132" r="2" transform="rotate(90 148 132)" fill="#5B399B"/>
<circle opacity="0.2" cx="148" cy="146" r="2" transform="rotate(90 148 146)" fill="#5B399B"/>
<circle opacity="0.2" cx="148" cy="20" r="2" transform="rotate(90 148 20)" fill="#5B399B"/>
<circle opacity="0.2" cx="148" cy="34" r="2" transform="rotate(90 148 34)" fill="#5B399B"/>
<circle opacity="0.2" cx="148" cy="48" r="2" transform="rotate(90 148 48)" fill="#5B399B"/>
<circle opacity="0.2" cx="148" cy="62" r="2" transform="rotate(90 148 62)" fill="#5B399B"/>
</svg>
