<svg width="300" height="191" viewBox="0 0 300 191" fill="none" xmlns="http://www.w3.org/2000/svg">
<circle opacity="0.2" cx="291" cy="182" r="9" fill="#5B399B"/>
<circle opacity="0.2" cx="186" cy="182" r="2" fill="#5B399B"/>
<circle opacity="0.2" cx="200" cy="182" r="2" fill="#5B399B"/>
<circle opacity="0.2" cx="214" cy="182" r="2" fill="#5B399B"/>
<circle opacity="0.2" cx="228" cy="182" r="2" fill="#5B399B"/>
<circle opacity="0.2" cx="242" cy="182" r="2" fill="#5B399B"/>
<circle opacity="0.2" cx="256" cy="182" r="2" fill="#5B399B"/>
<circle opacity="0.2" cx="270" cy="182" r="2" fill="#5B399B"/>
<circle cx="291" cy="182" r="3" fill="#7C61AF"/>
<circle opacity="0.2" cx="88" cy="182" r="2" fill="#5B399B"/>
<circle opacity="0.2" cx="102" cy="182" r="2" fill="#5B399B"/>
<circle opacity="0.2" cx="116" cy="182" r="2" fill="#5B399B"/>
<circle opacity="0.2" cx="130" cy="182" r="2" fill="#5B399B"/>
<circle opacity="0.2" cx="144" cy="182" r="2" fill="#5B399B"/>
<circle opacity="0.2" cx="158" cy="182" r="2" fill="#5B399B"/>
<circle opacity="0.2" cx="172" cy="182" r="2" fill="#5B399B"/>
<circle opacity="0.2" cx="32" cy="182" r="2" fill="#5B399B"/>
<circle opacity="0.2" cx="46" cy="182" r="2" fill="#5B399B"/>
<circle opacity="0.2" cx="60" cy="182" r="2" fill="#5B399B"/>
<circle opacity="0.2" cx="74" cy="182" r="2" fill="#5B399B"/>
<circle opacity="0.2" cx="4" cy="182" r="2" fill="#5B399B"/>
<circle opacity="0.2" cx="18" cy="182" r="2" fill="#5B399B"/>
<circle opacity="0.2" cx="4" cy="4" r="4" transform="rotate(-180 4 4)" fill="#5B399B"/>
<circle opacity="0.2" cx="4" cy="76" r="2" transform="rotate(90 4 76)" fill="#5B399B"/>
<circle opacity="0.2" cx="4" cy="90" r="2" transform="rotate(90 4 90)" fill="#5B399B"/>
<circle opacity="0.2" cx="4" cy="104" r="2" transform="rotate(90 4 104)" fill="#5B399B"/>
<circle opacity="0.2" cx="4" cy="118" r="2" transform="rotate(90 4 118)" fill="#5B399B"/>
<circle opacity="0.2" cx="4" cy="132" r="2" transform="rotate(90 4 132)" fill="#5B399B"/>
<circle opacity="0.2" cx="4" cy="146" r="2" transform="rotate(90 4 146)" fill="#5B399B"/>
<circle opacity="0.2" cx="4" cy="160" r="2" transform="rotate(90 4 160)" fill="#5B399B"/>
<circle opacity="0.2" cx="4" cy="171" r="2" transform="rotate(90 4 171)" fill="#5B399B"/>
<circle opacity="0.2" cx="4" cy="20" r="2" transform="rotate(90 4 20)" fill="#5B399B"/>
<circle opacity="0.2" cx="4" cy="34" r="2" transform="rotate(90 4 34)" fill="#5B399B"/>
<circle opacity="0.2" cx="4" cy="48" r="2" transform="rotate(90 4 48)" fill="#5B399B"/>
<circle opacity="0.2" cx="4" cy="62" r="2" transform="rotate(90 4 62)" fill="#5B399B"/>
</svg>
