<svg width="134" height="18" viewBox="0 0 134 18" fill="none" xmlns="http://www.w3.org/2000/svg">
<circle opacity="0.2" cx="9" cy="9" r="9" transform="rotate(-180 9 9)" fill="#5B399B"/>
<circle opacity="0.2" cx="130" cy="9" r="4" transform="rotate(-180 130 9)" fill="#5B399B"/>
<circle opacity="0.2" cx="114" cy="9" r="2" transform="rotate(-180 114 9)" fill="#5B399B"/>
<circle opacity="0.2" cx="100" cy="9" r="2" transform="rotate(-180 100 9)" fill="#5B399B"/>
<circle opacity="0.2" cx="86" cy="9" r="2" transform="rotate(-180 86 9)" fill="#5B399B"/>
<circle opacity="0.2" cx="72" cy="9" r="2" transform="rotate(-180 72 9)" fill="#5B399B"/>
<circle opacity="0.2" cx="58" cy="9" r="2" transform="rotate(-180 58 9)" fill="#5B399B"/>
<circle opacity="0.2" cx="44" cy="9" r="2" transform="rotate(-180 44 9)" fill="#5B399B"/>
<circle opacity="0.2" cx="30" cy="9" r="2" transform="rotate(-180 30 9)" fill="#5B399B"/>
<circle cx="9" cy="9" r="3" transform="rotate(-180 9 9)" fill="#7C61AF"/>
</svg>
