<svg width="310" height="182" viewBox="0 0 310 182" fill="none" xmlns="http://www.w3.org/2000/svg">
<circle opacity="0.2" cx="9" cy="173" r="9" transform="rotate(-180 9 173)" fill="#5B399B"/>
<circle opacity="0.2" cx="114" cy="173" r="2" transform="rotate(-180 114 173)" fill="#5B399B"/>
<circle opacity="0.2" cx="100" cy="173" r="2" transform="rotate(-180 100 173)" fill="#5B399B"/>
<circle opacity="0.2" cx="86" cy="173" r="2" transform="rotate(-180 86 173)" fill="#5B399B"/>
<circle opacity="0.2" cx="72" cy="173" r="2" transform="rotate(-180 72 173)" fill="#5B399B"/>
<circle opacity="0.2" cx="58" cy="173" r="2" transform="rotate(-180 58 173)" fill="#5B399B"/>
<circle opacity="0.2" cx="44" cy="173" r="2" transform="rotate(-180 44 173)" fill="#5B399B"/>
<circle opacity="0.2" cx="30" cy="173" r="2" transform="rotate(-180 30 173)" fill="#5B399B"/>
<circle cx="9" cy="173" r="3" transform="rotate(-180 9 173)" fill="#7C61AF"/>
<circle opacity="0.2" cx="306" cy="4" r="4" transform="rotate(-180 306 4)" fill="#5B399B"/>
<circle opacity="0.2" cx="212" cy="173" r="2" transform="rotate(-180 212 173)" fill="#5B399B"/>
<circle opacity="0.2" cx="198" cy="173" r="2" transform="rotate(-180 198 173)" fill="#5B399B"/>
<circle opacity="0.2" cx="184" cy="173" r="2" transform="rotate(-180 184 173)" fill="#5B399B"/>
<circle opacity="0.2" cx="170" cy="173" r="2" transform="rotate(-180 170 173)" fill="#5B399B"/>
<circle opacity="0.2" cx="156" cy="173" r="2" transform="rotate(-180 156 173)" fill="#5B399B"/>
<circle opacity="0.2" cx="142" cy="173" r="2" transform="rotate(-180 142 173)" fill="#5B399B"/>
<circle opacity="0.2" cx="128" cy="173" r="2" transform="rotate(-180 128 173)" fill="#5B399B"/>
<circle opacity="0.2" cx="268" cy="173" r="2" transform="rotate(-180 268 173)" fill="#5B399B"/>
<circle opacity="0.2" cx="254" cy="173" r="2" transform="rotate(-180 254 173)" fill="#5B399B"/>
<circle opacity="0.2" cx="240" cy="173" r="2" transform="rotate(-180 240 173)" fill="#5B399B"/>
<circle opacity="0.2" cx="226" cy="173" r="2" transform="rotate(-180 226 173)" fill="#5B399B"/>
<circle opacity="0.2" cx="296" cy="173" r="2" transform="rotate(-180 296 173)" fill="#5B399B"/>
<circle opacity="0.2" cx="282" cy="173" r="2" transform="rotate(-180 282 173)" fill="#5B399B"/>
<circle opacity="0.2" cx="306" cy="76" r="2" transform="rotate(90 306 76)" fill="#5B399B"/>
<circle opacity="0.2" cx="306" cy="90" r="2" transform="rotate(90 306 90)" fill="#5B399B"/>
<circle opacity="0.2" cx="306" cy="104" r="2" transform="rotate(90 306 104)" fill="#5B399B"/>
<circle opacity="0.2" cx="306" cy="118" r="2" transform="rotate(90 306 118)" fill="#5B399B"/>
<circle opacity="0.2" cx="306" cy="132" r="2" transform="rotate(90 306 132)" fill="#5B399B"/>
<circle opacity="0.2" cx="306" cy="146" r="2" transform="rotate(90 306 146)" fill="#5B399B"/>
<circle opacity="0.2" cx="306" cy="160" r="2" transform="rotate(90 306 160)" fill="#5B399B"/>
<circle opacity="0.2" cx="306" cy="171" r="2" transform="rotate(90 306 171)" fill="#5B399B"/>
<circle opacity="0.2" cx="306" cy="20" r="2" transform="rotate(90 306 20)" fill="#5B399B"/>
<circle opacity="0.2" cx="306" cy="34" r="2" transform="rotate(90 306 34)" fill="#5B399B"/>
<circle opacity="0.2" cx="306" cy="48" r="2" transform="rotate(90 306 48)" fill="#5B399B"/>
<circle opacity="0.2" cx="306" cy="62" r="2" transform="rotate(90 306 62)" fill="#5B399B"/>
</svg>
