<svg width="122" height="36" viewBox="0 0 122 36" fill="none" xmlns="http://www.w3.org/2000/svg">
<path d="M116.483 9.63685L111.284 22.2149L105.833 9.63685H101.1H95.7526V3.66113H91.0784V9.63685H88.1201V13.6729L91.0784 13.7251C91.0784 13.7251 91.0784 13.7251 91.0784 23.1848C92.0917 30.9883 101.366 27.3775 101.366 27.3775C101.366 27.3775 101.477 27.3253 100.175 23.6026C96.433 25.0722 95.9893 22.5805 95.9893 22.5805V13.6207H102.505L108.954 27.5043L105.574 35.5242H110.404L121.364 9.64431H116.483V9.63685Z" fill="#FDFFFC"/>
<path d="M67.0569 12.0991V9.63721H62.1904V28.0791H66.9164L66.9755 17.6048C66.9977 16.5007 67.6116 15.404 68.4695 14.7251C68.8985 14.382 69.4531 14.0836 70.1853 13.8821C73.0919 13.0988 75.0666 14.2999 75.1701 16.9185C75.2737 19.537 75.1701 28.0791 75.1701 28.0791H79.8961V16.5156C79.8961 14.7028 79.3044 12.9272 78.1654 11.5247C76.3757 9.31641 70.5995 7.80197 67.0569 12.0991Z" fill="#FDFFFC"/>
<path d="M86.4789 9.63721H81.7529V28.0791H86.4789V9.63721Z" fill="#FDFFFC"/>
<path d="M85.3532 6.81367C86.7495 6.23025 87.4125 4.61551 86.8341 3.20704C86.2558 1.79857 84.655 1.12974 83.2587 1.71316C81.8624 2.29658 81.1993 3.91132 81.7777 5.31979C82.3561 6.72826 83.9569 7.39709 85.3532 6.81367Z" fill="#FDFFFC"/>
<path d="M29.6563 9.15967C24.3017 9.15967 19.9678 13.5389 19.9678 18.9327C19.9678 24.3265 24.3091 28.7057 29.6563 28.7057C35.0035 28.7057 39.3449 24.3265 39.3449 18.9327C39.3449 13.5389 35.0109 9.15967 29.6563 9.15967ZM29.6341 24.0803C26.7571 24.0803 24.4275 21.7303 24.4275 18.8282C24.4275 15.9262 26.7571 13.5762 29.6341 13.5762C32.5111 13.5762 34.8408 15.9262 34.8408 18.8282C34.8408 21.7303 32.5111 24.0803 29.6341 24.0803Z" fill="#FDFFFC"/>
<path d="M55.6524 12.1662C54.0401 10.4429 51.8214 9.38352 49.3659 9.38352C44.4551 9.38352 40.4688 13.6508 40.4688 18.9104C40.4688 24.1699 44.4551 28.4372 49.3659 28.4372C51.8214 28.4372 54.0475 27.3704 55.6524 25.6545V28.094H60.2008V1.47559H55.6524V12.1662ZM50.4753 24.3116C47.6131 24.3116 45.2908 21.8796 45.2908 18.8731C45.2908 15.8665 47.6131 13.427 50.4753 13.427C53.3375 13.427 55.6598 15.8591 55.6598 18.8656C55.6598 21.8721 53.3375 24.3116 50.4753 24.3116Z" fill="#FDFFFC"/>
<path d="M10.3311 13.4271C12.328 13.4271 14.0586 14.658 14.8944 16.4485L19.3097 15.1429C17.8675 11.5694 14.3914 9.04785 10.3311 9.04785C4.97654 9.04785 0.642578 13.4271 0.642578 18.8209C0.642578 24.2147 4.98393 28.5939 10.3311 28.5939C14.3692 28.5939 17.8305 26.1021 19.2875 22.5585L14.8204 21.4171C13.9625 23.1255 12.2688 24.2893 10.3311 24.2893C7.5207 24.2893 5.23539 21.8572 5.23539 18.8507C5.23539 15.8442 7.5207 13.4271 10.3311 13.4271Z" fill="#FDFFFC"/>
</svg>
