<svg viewBox="0 0 122 36" fill="none" xmlns="http://www.w3.org/2000/svg">
<path d="M116.484 9.63712L111.285 22.2152L105.834 9.63712H101.101H95.7536V3.66141H91.0794V9.63712H88.1211V13.6732L91.0794 13.7254C91.0794 13.7254 91.0794 13.7254 91.0794 23.1851C92.0927 30.9886 101.367 27.3778 101.367 27.3778C101.367 27.3778 101.478 27.3255 100.176 23.6028C96.434 25.0725 95.9903 22.5808 95.9903 22.5808V13.6209H102.506L108.955 27.5046L105.575 35.5244H110.405L121.365 9.64458H116.484V9.63712Z" fill="#5B399B"/>
<path d="M67.0579 12.099V9.63712H62.1914V28.079H66.9173L66.9765 17.6047C66.9987 16.5006 67.6126 15.4039 68.4705 14.7251C68.8994 14.3819 69.4541 14.0835 70.1863 13.882C73.0929 13.0987 75.0676 14.2998 75.1711 16.9184C75.2746 19.537 75.1711 28.079 75.1711 28.079H79.897V16.5155C79.897 14.7027 79.3054 12.9271 78.1664 11.5246C76.3766 9.31632 70.6005 7.80188 67.0579 12.099Z" fill="#5B399B"/>
<path d="M86.4779 9.63715H81.752V28.0791H86.4779V9.63715Z" fill="#5B399B"/>
<path d="M85.3532 6.81367C86.7495 6.23025 87.4125 4.61551 86.8341 3.20704C86.2558 1.79857 84.655 1.12974 83.2587 1.71316C81.8624 2.29658 81.1993 3.91132 81.7777 5.31979C82.3561 6.72826 83.9569 7.39709 85.3532 6.81367Z" fill="#5B399B"/>
<path d="M29.6573 9.15967C24.3027 9.15967 19.9688 13.5389 19.9688 18.9327C19.9688 24.3265 24.3101 28.7057 29.6573 28.7057C35.0045 28.7057 39.3458 24.3265 39.3458 18.9327C39.3458 13.5389 35.0119 9.15967 29.6573 9.15967ZM29.6351 24.0803C26.7581 24.0803 24.4284 21.7303 24.4284 18.8282C24.4284 15.9262 26.7581 13.5762 29.6351 13.5762C32.5121 13.5762 34.8418 15.9262 34.8418 18.8282C34.8418 21.7303 32.5121 24.0803 29.6351 24.0803Z" fill="#5B399B"/>
<path d="M55.6524 12.1662C54.0401 10.4429 51.8214 9.38349 49.3659 9.38349C44.4551 9.38349 40.4688 13.6508 40.4688 18.9103C40.4688 24.1698 44.4551 28.4372 49.3659 28.4372C51.8214 28.4372 54.0475 27.3703 55.6524 25.6545V28.094H60.2008V1.47556H55.6524V12.1662ZM50.4753 24.3116C47.6131 24.3116 45.2908 21.8795 45.2908 18.873C45.2908 15.8665 47.6131 13.427 50.4753 13.427C53.3375 13.427 55.6598 15.8591 55.6598 18.8656C55.6598 21.8721 53.3375 24.3116 50.4753 24.3116Z" fill="#5B399B"/>
<path d="M10.3311 13.427C12.328 13.427 14.0586 14.6579 14.8944 16.4484L19.3097 15.1428C17.8675 11.5693 14.3914 9.04776 10.3311 9.04776C4.97654 9.04776 0.642578 13.427 0.642578 18.8208C0.642578 24.2146 4.98393 28.5938 10.3311 28.5938C14.3692 28.5938 17.8305 26.102 19.2875 22.5584L14.8204 21.417C13.9625 23.1254 12.2688 24.2892 10.3311 24.2892C7.5207 24.2892 5.23539 21.8571 5.23539 18.8506C5.23539 15.8441 7.5207 13.427 10.3311 13.427Z" fill="#5B399B"/>
</svg>
