<svg viewBox="0 0 20 20" fill="none" xmlns="http://www.w3.org/2000/svg">
<g opacity="0.5">
<path d="M11.667 0C13.9682 0 15.8337 1.86548 15.8337 4.16667V14.1667C15.8337 17.3883 13.222 20 10.0003 20C6.77866 20 4.16699 17.3883 4.16699 14.1667V7.5H5.83366V14.1667C5.83366 16.4679 7.69914 18.3333 10.0003 18.3333C12.3015 18.3333 14.167 16.4679 14.167 14.1667V4.16667C14.167 2.78595 13.0477 1.66667 11.667 1.66667C10.2863 1.66667 9.16699 2.78595 9.16699 4.16667V14.1667C9.16699 14.6269 9.54009 15 10.0003 15C10.4606 15 10.8337 14.6269 10.8337 14.1667V5H12.5003V14.1667C12.5003 15.5474 11.381 16.6667 10.0003 16.6667C8.61961 16.6667 7.50033 15.5474 7.50033 14.1667V4.16667C7.50033 1.86548 9.36581 0 11.667 0Z" fill="#212121"/>
</g>
</svg>
