<svg viewBox="0 0 616 463" fill="none" xmlns="http://www.w3.org/2000/svg">
<path d="M417.648 109.731C417.725 110.928 417.764 112.124 417.841 113.281C417.841 113.513 417.995 113.821 418.264 113.821C450.681 118.297 483.368 114.516 515.9 114.593C525.102 114.593 534.265 114.94 543.428 115.828C543.659 115.866 543.928 115.635 543.967 115.403C544.275 113.821 544.621 112.239 544.929 110.657C545.083 109.924 543.967 109.616 543.813 110.349C543.505 111.931 543.158 113.513 542.85 115.095C543.043 114.94 543.235 114.824 543.389 114.67C511.165 111.506 478.825 115.48 446.523 114.786C437.168 114.593 427.812 113.976 418.534 112.702C418.688 112.895 418.803 113.088 418.957 113.243C418.88 112.046 418.842 110.85 418.765 109.693C418.765 108.998 417.61 108.998 417.648 109.731Z" fill="#E8E8E8"/>
<path d="M418.611 110.31C451.182 110.31 483.792 110.31 516.363 110.31C525.603 110.31 534.843 110.31 544.083 110.31C544.814 110.31 544.814 109.152 544.083 109.152C511.512 109.152 478.902 109.152 446.331 109.152C437.091 109.152 427.851 109.152 418.611 109.152C417.88 109.152 417.88 110.31 418.611 110.31Z" fill="#E8E8E8"/>
<path d="M425.618 109.384C426.581 95.5322 427.389 81.6422 428.583 67.8293C428.737 66.0159 428.929 64.2411 429.237 62.4662C429.353 61.8103 429.391 60.4599 429.776 59.9197C430.277 59.2252 431.355 59.2252 432.125 59.1095C433.896 58.8008 436.86 57.7205 438.092 59.5339C438.439 60.0741 438.516 61.193 438.631 61.8489C438.862 63.0064 439.016 64.1639 439.132 65.3214C439.748 72.1121 438.862 79.0185 438.362 85.8092C437.784 93.6802 437.207 101.551 436.629 109.422C436.591 110.155 437.746 110.155 437.784 109.422C438.631 98.1558 439.555 86.9281 440.248 75.6617C440.556 70.4916 440.71 65.2057 439.44 60.1127C439.093 58.6851 438.554 57.489 436.937 57.3347C434.473 57.1417 431.624 57.9906 429.237 58.4922C429.045 58.5307 428.891 58.7237 428.852 58.878C426.812 66.8647 426.889 75.4688 426.311 83.6485C425.695 92.214 425.118 100.818 424.502 109.384C424.425 110.117 425.58 110.117 425.618 109.384Z" fill="#E8E8E8"/>
<path d="M439.94 74.5429C444.637 86.388 449.604 98.1173 454.801 109.731C455.109 110.425 456.11 109.808 455.802 109.152C450.643 97.6158 445.715 85.9636 441.057 74.2342C440.787 73.5397 439.671 73.8484 439.94 74.5429Z" fill="#E8E8E8"/>
<path d="M440.941 68.3312C441.903 65.5918 444.868 64.0871 447.64 64.8587C448.371 65.0517 448.679 63.9327 447.948 63.7398C444.56 62.7752 440.979 64.7044 439.824 68.0226C439.593 68.7556 440.71 69.0257 440.941 68.3312Z" fill="#E8E8E8"/>
<path d="M447.64 65.0905C455.263 79.9065 462.848 94.7611 470.471 109.577C470.817 110.233 471.818 109.654 471.472 108.998C463.849 94.1823 456.264 79.3277 448.641 64.5118C448.295 63.8173 447.294 64.396 447.64 65.0905Z" fill="#E8E8E8"/>
<path d="M467.698 55.1358C468.93 73.077 470.162 91.0183 471.356 108.96C471.394 109.693 472.549 109.693 472.511 108.96C471.279 91.0183 470.047 73.077 468.853 55.1358C468.815 54.4027 467.66 54.4027 467.698 55.1358Z" fill="#E8E8E8"/>
<path d="M468.7 55.753C470.663 53.9782 473.32 53.9782 475.784 54.4026C476.785 54.5569 477.863 54.7499 478.825 55.0971C480.596 55.753 480.327 57.3735 480.404 58.9554C480.635 64.4729 480.827 69.9903 481.058 75.5077C481.482 86.6583 481.944 97.8475 482.367 108.998C482.406 109.731 483.561 109.731 483.522 108.998C482.983 95.6482 482.483 82.2984 481.944 68.9871C481.828 65.6689 481.674 62.3122 481.559 58.994C481.482 57.2964 481.713 55.2129 479.942 54.2869C478.094 53.3223 475.245 52.975 473.166 53.0136C471.164 53.0522 469.393 53.5924 467.93 54.9428C467.352 55.4058 468.161 56.2546 468.7 55.753Z" fill="#E8E8E8"/>
<path d="M448.564 64.4346C452.221 64.6661 455.802 65.7465 459.305 66.7496C462.539 67.6756 465.696 68.8331 468.43 70.8395C469.046 71.2639 469.623 70.2607 469.007 69.8363C466.158 67.7914 462.924 66.5953 459.575 65.6307C455.956 64.589 452.298 63.5472 448.525 63.2771C447.794 63.2 447.794 64.3575 448.564 64.4346Z" fill="#E8E8E8"/>
<path d="M481.751 62.3893C483.445 61.9649 485.332 61.5405 487.103 61.8877C489.721 62.4279 490.26 64.7429 490.375 67.0965C490.568 71.8423 490.645 76.5494 490.76 81.2952C490.991 90.6323 491.107 99.9695 491.145 109.307C491.145 110.04 492.3 110.04 492.3 109.307C492.262 98.1561 492.108 87.0441 491.8 75.9321C491.723 73.2313 491.646 70.569 491.569 67.8682C491.492 66.0933 491.53 64.1256 490.452 62.6208C488.45 59.8043 484.331 60.4987 481.482 61.2318C480.712 61.4633 481.02 62.5822 481.751 62.3893Z" fill="#E8E8E8"/>
<path d="M490.183 56.293C490.183 59.7655 490.183 63.1994 490.183 66.6719C490.183 67.405 491.338 67.405 491.338 66.6719C491.338 63.1994 491.338 59.7655 491.338 56.293C491.338 55.5599 490.183 55.5599 490.183 56.293Z" fill="#E8E8E8"/>
<path d="M491.876 56.7174C492.184 56.8331 492.531 56.9489 492.839 57.0646C492.877 57.3347 492.916 57.6048 492.954 57.9135C493.031 58.5308 493.031 59.1867 493.108 59.8426C493.185 60.8458 493.262 61.8875 493.339 62.8907C493.493 65.0514 493.609 67.2506 493.724 69.4113C493.994 73.887 494.186 78.3626 494.34 82.8383C494.687 91.6739 494.802 100.509 494.802 109.345C494.802 110.078 495.957 110.078 495.957 109.345C495.957 98.3488 495.726 87.314 495.226 76.3177C494.956 70.9546 494.648 65.5915 494.263 60.2285C494.186 58.9166 494.417 56.5245 493.224 55.5984C492.415 54.9811 491.299 55.2126 490.875 56.1386C490.606 56.8331 491.568 57.4119 491.876 56.7174Z" fill="#E8E8E8"/>
<path d="M435.128 115.403C436.321 117.409 437.476 120.419 439.401 121.846C441.288 123.274 443.598 122 445.677 122.734C446.37 122.965 446.678 121.846 445.985 121.615C444.137 120.959 441.981 122 440.325 120.959C438.439 119.801 437.245 116.676 436.129 114.785C435.744 114.168 434.743 114.747 435.128 115.403Z" fill="#E8E8E8"/>
<path d="M447.216 115.904C447.062 117.911 446.446 119.724 445.445 121.422C445.06 122.078 446.061 122.656 446.446 122C447.601 120.11 448.217 118.065 448.371 115.904C448.448 115.171 447.293 115.171 447.216 115.904Z" fill="#E8E8E8"/>
<path d="M443.944 116.869C444.291 118.644 444.637 120.419 445.022 122.194C445.176 122.927 446.293 122.618 446.139 121.885C445.792 120.11 445.446 118.336 445.061 116.561C444.907 115.828 443.79 116.136 443.944 116.869Z" fill="#E8E8E8"/>
<path d="M445.33 116.83C445.407 116.83 445.484 116.869 445.561 116.907C445.677 117.139 445.677 117.37 445.638 117.602C445.6 117.872 445.484 118.142 445.407 118.412C445.253 118.952 445.215 119.454 445.369 119.994C445.6 120.727 446.601 120.418 446.485 119.685C446.293 118.644 446.447 117.602 446.87 116.637C446.485 116.599 446.1 116.522 445.754 116.483C445.638 117.679 445.561 118.914 445.446 120.11C445.369 120.843 446.524 120.843 446.601 120.11C446.716 118.914 446.793 117.679 446.909 116.483C446.986 115.788 445.985 115.788 445.792 116.329C445.292 117.525 445.215 118.759 445.407 119.994C445.792 119.878 446.139 119.801 446.524 119.685C446.177 118.528 447.525 117.1 446.37 116.059C445.677 115.441 444.56 115.673 444.291 116.56C443.983 117.255 445.099 117.563 445.33 116.83Z" fill="#E8E8E8"/>
<path d="M505.659 108.381C505.312 106.954 505.158 105.565 505.274 104.098C505.081 104.291 504.889 104.484 504.696 104.677C511.511 104.33 518.325 103.905 525.14 103.751C528.566 103.674 531.993 103.674 535.419 103.751C536.189 103.751 536.959 103.79 537.691 103.79C538.461 103.828 540.039 103.558 540.732 103.905C542.272 104.639 541.618 107.609 541.618 108.96C541.618 109.693 542.773 109.693 542.773 108.96C542.773 107.146 543.697 103.288 541.233 102.787C539.539 102.439 537.537 102.632 535.804 102.594C533.648 102.555 531.492 102.516 529.336 102.555C521.136 102.594 512.935 103.095 504.696 103.52C504.388 103.52 504.119 103.79 504.119 104.098C504.042 105.68 504.157 107.185 504.581 108.69C504.696 109.423 505.813 109.114 505.659 108.381Z" fill="#E8E8E8"/>
<path d="M509.933 96.7675C510.394 98.8896 510.741 101.012 510.895 103.172C510.933 103.905 512.088 103.905 512.05 103.172C511.896 100.896 511.549 98.6581 511.049 96.4589C510.895 95.7644 509.779 96.073 509.933 96.7675Z" fill="#E8E8E8"/>
<path d="M510.703 97.5007C515.361 97.1148 520.02 96.6904 524.678 96.8833C529.067 97.0762 533.495 98.5038 537.884 98.0408C537.691 97.8479 537.499 97.655 537.306 97.4621C537.152 99.507 537.383 101.436 538.038 103.404C538.269 104.098 539.386 103.79 539.155 103.095C538.539 101.243 538.307 99.4298 538.461 97.4621C538.5 97.1534 538.192 96.8447 537.884 96.8833C533.495 97.3077 529.067 95.8802 524.678 95.7258C520.02 95.5329 515.323 95.9573 510.703 96.3432C509.971 96.3817 509.971 97.5392 510.703 97.5007Z" fill="#E8E8E8"/>
<path d="M471.51 217.225C471.51 218.845 471.51 220.427 471.51 222.048C471.51 222.781 472.665 222.781 472.665 222.048C472.665 220.427 472.665 218.845 472.665 217.225C472.665 216.492 471.51 216.492 471.51 217.225Z" fill="#E8E8E8"/>
<path d="M472.087 216.838C502.04 216.838 531.993 216.838 561.946 216.838C562.678 216.838 562.678 215.681 561.946 215.681C531.993 215.681 502.04 215.681 472.087 215.681C471.317 215.681 471.317 216.838 472.087 216.838Z" fill="#E8E8E8"/>
<path d="M473.012 222.162C502.503 222.162 531.955 222.162 561.446 222.162C562.178 222.162 562.178 221.005 561.446 221.005C531.955 221.005 502.503 221.005 473.012 221.005C472.28 221.005 472.28 222.162 473.012 222.162Z" fill="#E8E8E8"/>
<path d="M561.369 217.225C561.369 218.344 561.369 219.462 561.369 220.581C561.369 221.314 562.524 221.314 562.524 220.581C562.524 219.462 562.524 218.344 562.524 217.225C562.524 216.492 561.369 216.492 561.369 217.225Z" fill="#E8E8E8"/>
<path d="M480.403 204.222C481.404 208.196 482.328 212.209 483.098 216.221C483.252 216.954 484.369 216.646 484.215 215.913C483.445 211.9 482.559 207.887 481.52 203.913C481.327 203.18 480.211 203.489 480.403 204.222Z" fill="#E8E8E8"/>
<path d="M500.423 203.874C499.499 207.848 498.729 211.822 498.152 215.835C498.036 216.568 499.153 216.877 499.268 216.144C499.846 212.131 500.616 208.118 501.54 204.183C501.694 203.45 500.577 203.141 500.423 203.874Z" fill="#E8E8E8"/>
<path d="M477.246 202.061C477.323 204.067 480.326 203.913 481.789 203.99C485.1 204.144 488.45 203.643 491.761 203.45C493.416 203.334 495.072 203.295 496.727 203.45C498.075 203.565 499.538 204.028 500.847 203.758C502.31 203.45 503.234 202.061 502.387 200.71C502.002 200.093 501.001 200.672 501.386 201.289C502.464 203.102 498.806 202.524 498.46 202.485C497.651 202.369 496.804 202.292 495.996 202.254C494.109 202.138 492.184 202.254 490.298 202.408C489.066 202.485 478.44 203.758 478.401 202.061C478.401 201.289 477.246 201.289 477.246 202.061Z" fill="#E8E8E8"/>
<path d="M478.594 201.906C477.901 199.746 483.868 199.977 484.869 199.939C486.64 199.862 488.45 199.784 490.221 199.707C491.183 199.669 501.193 199.399 500.924 200.132C500.693 200.826 501.809 201.135 502.04 200.44C503.195 197.006 490.683 198.511 489.066 198.588C486.063 198.704 482.713 198.434 479.787 199.013C478.247 199.321 476.938 200.479 477.477 202.177C477.708 202.91 478.825 202.601 478.594 201.906Z" fill="#E8E8E8"/>
<path d="M483.715 198.704C481.944 197.894 480.365 196.737 479.133 195.27C478.633 194.653 475.091 189.522 477.17 189.213C477.516 189.174 477.709 188.634 477.516 188.364C476.4 186.744 475.938 184.66 475.36 182.808C474.706 180.802 474.09 178.795 473.435 176.828C473.32 176.403 473.127 176.017 473.05 175.593C472.858 174.783 472.742 174.783 473.705 174.706C474.744 174.628 475.283 175.439 475.976 176.133C477.285 177.445 478.44 178.873 479.48 180.377C483.368 186.01 485.524 192.647 487.141 199.245C487.334 199.978 488.45 199.669 488.258 198.936C486.179 190.525 483.137 181.882 476.977 175.516C476.13 174.628 474.513 172.584 473.089 172.815C472.011 173.008 471.703 174.165 471.78 175.13C471.934 177.291 473.089 179.644 473.782 181.728C474.552 184.12 475.052 186.898 476.515 188.981C476.631 188.711 476.746 188.403 476.862 188.133C474.321 188.518 475.784 192.068 476.477 193.457C477.94 196.274 480.288 198.434 483.137 199.785C483.792 200.016 484.369 199.013 483.715 198.704Z" fill="#E8E8E8"/>
<path d="M485.024 188.133C484.908 183.233 484.793 178.14 486.448 173.471C487.257 171.195 488.489 169.15 489.913 167.221C490.26 166.719 490.645 165.909 491.184 165.6C491.569 164.983 492.146 164.906 492.878 165.407C493.802 165.176 494.264 165.407 494.264 166.102C494.726 167.143 494.572 168.918 494.572 169.999C494.572 172.584 493.956 174.976 493.34 177.445C493.109 178.294 492.916 179.181 492.993 180.03C493.07 181.033 493.609 181.805 493.879 182.731C494.649 185.355 493.301 188.056 492.377 190.448C491.453 192.956 490.491 195.464 489.567 198.01C489.297 198.705 490.414 199.013 490.683 198.319C491.915 195.001 493.224 191.721 494.379 188.364C495.188 186.011 495.573 183.966 494.649 181.651C493.417 178.525 495.38 175.014 495.65 171.812C495.804 169.728 496.15 166.179 494.803 164.327C491.877 160.276 487.218 168.918 486.294 170.847C483.676 176.249 483.715 182.307 483.869 188.171C483.907 188.904 485.062 188.904 485.024 188.133Z" fill="#E8E8E8"/>
<path d="M475.321 178.641C479.133 184.004 481.404 190.447 484.06 196.427C484.368 197.122 485.369 196.505 485.061 195.849C482.443 189.83 480.133 183.425 476.322 178.062C475.899 177.444 474.898 178.023 475.321 178.641Z" fill="#E8E8E8"/>
<path d="M485.947 175.901C486.101 177.946 486.794 179.76 488.065 181.342C488.527 181.92 489.335 181.11 488.873 180.531C487.834 179.181 487.218 177.599 487.102 175.901C487.064 175.168 485.909 175.168 485.947 175.901Z" fill="#E8E8E8"/>
<path d="M491.183 175.632C492.107 174.243 493.07 172.854 493.994 171.465C494.417 170.847 493.416 170.269 492.993 170.886C492.069 172.275 491.106 173.664 490.182 175.053C489.797 175.67 490.798 176.249 491.183 175.632Z" fill="#E8E8E8"/>
<path d="M502.656 174.86C501.693 176.403 500.307 177.599 499.037 178.834C497.651 180.146 496.265 181.496 494.879 182.808C494.34 183.309 495.148 184.158 495.687 183.618C498.344 181.072 501.693 178.602 503.657 175.438C504.042 174.821 503.041 174.242 502.656 174.86Z" fill="#E8E8E8"/>
<path d="M502.156 176.403C502.233 178.448 505.621 182.229 503.003 183.464C502.656 183.656 502.656 184.119 502.887 184.39C503.773 185.47 503.195 187.09 503.08 188.364C502.964 189.791 503.08 191.219 502.695 192.608C502.002 195.27 499.538 196.852 497.343 198.241C496.727 198.627 497.305 199.63 497.921 199.244C500.577 197.547 503.311 195.617 503.927 192.299C504.235 190.524 504.235 188.672 504.389 186.897C504.543 185.624 504.504 184.621 503.657 183.618C503.619 183.927 503.58 184.235 503.542 184.544C507.199 182.808 503.349 178.872 503.272 176.48C503.272 175.67 502.117 175.67 502.156 176.403Z" fill="#E8E8E8"/>
<path d="M500.307 182.075C497.651 186.357 495.379 190.833 493.493 195.54C493.223 196.235 494.34 196.543 494.609 195.849C496.457 191.258 498.69 186.859 501.308 182.653C501.693 181.997 500.692 181.419 500.307 182.075Z" fill="#E8E8E8"/>
<path d="M482.444 212.131C483.984 214.214 486.102 215.642 488.643 216.182C489.374 216.337 489.682 215.218 488.951 215.063C486.718 214.6 484.793 213.404 483.445 211.552C483.022 210.973 482.021 211.552 482.444 212.131Z" fill="#E8E8E8"/>
<path d="M481.789 207.386C485.754 210.434 489.951 214.794 495.033 215.836C495.764 215.99 496.072 214.871 495.341 214.717C490.413 213.714 486.255 209.354 482.367 206.383C481.789 205.92 481.212 206.923 481.789 207.386Z" fill="#E8E8E8"/>
<path d="M484.831 204.453C487.218 206.421 489.528 208.427 491.953 210.318C492.993 211.128 494.071 211.9 495.341 212.402C496.535 212.903 497.805 213.135 498.883 213.906C499.499 214.331 500.077 213.328 499.461 212.903C498.614 212.324 497.767 212.054 496.843 211.707C495.264 211.167 493.994 210.434 492.685 209.392C490.298 207.54 487.988 205.572 485.678 203.643C485.062 203.18 484.253 203.99 484.831 204.453Z" fill="#E8E8E8"/>
<path d="M491.145 203.912C493.378 206.227 496.073 207.925 499.153 208.928C499.846 209.16 500.154 208.041 499.461 207.809C496.573 206.845 494.071 205.263 491.953 203.064C491.453 202.562 490.606 203.372 491.145 203.912Z" fill="#E8E8E8"/>
<path d="M519.48 215.14C519.249 214.523 518.903 213.713 518.941 213.057C519.095 211.359 520.25 211.205 521.367 211.012C522.984 210.703 524.678 210.665 526.333 210.665C529.144 210.626 531.993 210.857 534.803 210.973C537.614 211.05 540.386 210.896 543.196 210.665C544.351 210.549 546.392 210.086 547.508 210.472C548.663 210.896 548.971 211.475 549.01 212.555C549.048 213.404 549.048 214.253 549.087 215.14C549.125 215.873 550.28 215.873 550.242 215.14C550.203 213.828 550.588 211.513 549.934 210.279C549.318 209.198 547.893 209.314 546.815 209.314C542.426 209.314 538.153 209.97 533.725 209.777C529.644 209.623 525.525 209.276 521.482 209.893C518.171 210.394 517.324 212.439 518.441 215.526C518.595 216.143 519.711 215.835 519.48 215.14Z" fill="#E8E8E8"/>
<path d="M527.643 208.928C527.951 208.234 528.22 207.539 528.528 206.845C528.875 206.806 529.221 206.768 529.568 206.691C530.03 206.652 530.453 206.691 530.915 206.652C531.916 206.652 532.879 206.614 533.88 206.614C535.997 206.575 538.076 206.575 540.194 206.536C542.157 206.498 544.159 206.498 546.123 206.459C546.623 206.459 547.124 206.459 547.624 206.421C548.241 206.421 548.433 206.266 548.625 206.729C548.856 207.308 548.433 208.928 548.356 209.546C548.279 210.279 549.434 210.279 549.511 209.546C549.588 208.62 550.166 206.691 549.704 205.842C549.319 205.147 548.741 205.263 547.971 205.263C544.275 205.263 540.54 205.379 536.844 205.417C535.112 205.456 533.379 205.456 531.647 205.495C530.338 205.495 528.721 205.34 527.527 205.958C526.141 206.691 525.487 208.581 526.834 209.7C527.412 210.202 528.22 209.391 527.643 208.928Z" fill="#E8E8E8"/>
<path d="M535.573 204.221C534.572 202.871 538.769 203.025 539.038 202.987C539.962 202.91 543.119 202.331 542.503 204.414C542.272 205.148 543.389 205.418 543.62 204.723C543.889 203.797 543.581 202.948 542.85 202.331C541.579 201.289 540.001 201.791 538.499 201.868C537.306 201.906 535.881 201.521 534.919 202.447C534.226 203.064 534.033 204.029 534.572 204.8C535.034 205.379 536.035 204.8 535.573 204.221Z" fill="#E8E8E8"/>
<path d="M476.669 223.011C478.132 225.018 479.864 226.677 481.905 228.066C482.521 228.49 483.098 227.487 482.482 227.063C480.634 225.789 478.979 224.246 477.67 222.394C477.208 221.815 476.207 222.394 476.669 223.011Z" fill="#E8E8E8"/>
<path d="M481.751 227.68C483.021 227.68 484.292 227.68 485.562 227.68C486.294 227.68 487.487 227.873 488.142 227.526C488.642 227.256 488.796 226.639 489.027 226.176C489.643 224.941 490.375 223.784 491.222 222.665C491.684 222.086 490.875 221.276 490.413 221.854C489.99 222.356 489.605 222.896 489.22 223.436C488.758 224.169 488.45 225.211 487.911 225.867C486.833 227.14 483.329 226.562 481.751 226.523C481.019 226.523 481.019 227.68 481.751 227.68Z" fill="#E8E8E8"/>
<path d="M486.024 222.935C486.332 224.092 486.64 225.288 486.987 226.446C487.179 227.179 488.296 226.87 488.103 226.137C487.795 224.98 487.487 223.784 487.141 222.626C486.948 221.893 485.832 222.202 486.024 222.935Z" fill="#E8E8E8"/>
<path d="M532.956 222.742C533.572 224.015 534.226 225.25 535.035 226.407C535.458 227.024 535.997 227.989 536.729 228.336C537.499 228.722 538.577 228.413 539.347 228.336C540.733 228.182 542.118 228.066 543.504 227.912C544.236 227.835 544.236 226.677 543.504 226.754C542.58 226.831 541.657 226.947 540.733 227.024C539.924 227.102 538.731 227.449 537.961 227.294C535.959 226.909 534.727 223.745 533.957 222.124C533.61 221.468 532.609 222.047 532.956 222.742Z" fill="#E8E8E8"/>
<path d="M543.543 221.777C543.081 223.436 542.85 225.134 542.889 226.832C542.927 227.565 544.082 227.565 544.044 226.832C544.005 225.211 544.198 223.629 544.621 222.086C544.852 221.391 543.736 221.083 543.543 221.777Z" fill="#E8E8E8"/>
<path d="M544.044 227.41C545.584 225.944 547.047 224.401 548.471 222.819C548.972 222.279 548.163 221.43 547.663 222.009C546.238 223.59 544.775 225.134 543.235 226.6C542.696 227.102 543.505 227.912 544.044 227.41Z" fill="#E8E8E8"/>
<path d="M296.797 109.731C296.797 120.612 296.797 131.454 296.797 142.334C296.797 143.067 297.952 143.067 297.952 142.334C297.952 131.454 297.952 120.612 297.952 109.731C297.952 108.998 296.797 108.998 296.797 109.731Z" fill="#E8E8E8"/>
<path d="M297.721 143.222C311.466 143.222 325.249 143.222 338.993 143.222C339.725 143.222 339.725 142.064 338.993 142.064C325.249 142.064 311.466 142.064 297.721 142.064C296.951 142.064 296.951 143.222 297.721 143.222Z" fill="#E8E8E8"/>
<path d="M297.721 110.31C311.081 110.31 324.402 110.31 337.761 110.31C338.493 110.31 338.493 109.152 337.761 109.152C324.402 109.152 311.081 109.152 297.721 109.152C296.951 109.152 296.951 110.31 297.721 110.31Z" fill="#E8E8E8"/>
<path d="M337.761 109.731C337.761 120.612 337.761 131.454 337.761 142.334C337.761 143.067 338.916 143.067 338.916 142.334C338.916 131.454 338.916 120.612 338.916 109.731C338.916 108.998 337.761 108.998 337.761 109.731Z" fill="#E8E8E8"/>
<path d="M318.28 108.767C318.242 108.265 318.319 107.802 318.55 107.339C318.665 107.069 319.127 106.374 319.397 106.567C319.705 106.76 319.82 107.648 319.859 107.956C319.974 108.535 319.974 109.114 319.897 109.693C319.82 110.426 320.975 110.426 321.052 109.693C321.129 108.689 321.052 107.686 320.706 106.722C320.475 106.104 320.167 105.371 319.435 105.294C317.857 105.101 317.048 107.532 317.125 108.728C317.164 109.538 318.319 109.538 318.28 108.767Z" fill="#E8E8E8"/>
<path d="M298.991 113.474C298.991 122.155 298.991 130.798 298.991 139.479C298.991 140.212 300.146 140.212 300.146 139.479C300.146 130.798 300.146 122.155 300.146 113.474C300.146 112.741 298.991 112.741 298.991 113.474Z" fill="#E8E8E8"/>
<path d="M299.569 140.058C311.658 140.058 323.747 140.058 335.836 140.058C336.568 140.058 336.568 138.9 335.836 138.9C323.747 138.9 311.658 138.9 299.569 138.9C298.838 138.9 298.838 140.058 299.569 140.058Z" fill="#E8E8E8"/>
<path d="M336.759 139.17C336.759 130.489 336.759 121.846 336.759 113.165C336.759 112.432 335.604 112.432 335.604 113.165C335.604 121.846 335.604 130.489 335.604 139.17C335.604 139.942 336.759 139.942 336.759 139.17Z" fill="#E8E8E8"/>
<path d="M299.877 114.361C311.542 114.361 323.208 114.361 334.912 114.361C335.643 114.361 335.643 113.203 334.912 113.203C323.246 113.203 311.581 113.203 299.877 113.203C299.145 113.203 299.145 114.361 299.877 114.361Z" fill="#E8E8E8"/>
<path d="M300.07 133.923C304.574 132.573 309.156 131.377 313.622 133.46C316.817 134.965 319.589 137.241 323.17 137.897C323.901 138.013 324.209 136.933 323.478 136.778C319.397 136.007 316.317 133.036 312.428 131.724C308.232 130.335 303.843 131.57 299.762 132.804C299.069 133.036 299.377 134.155 300.07 133.923Z" fill="#E8E8E8"/>
<path d="M315.084 133.267C320.59 131.338 326.326 130.643 332.101 131.222C332.833 131.299 332.833 130.142 332.101 130.064C326.211 129.486 320.359 130.18 314.776 132.148C314.083 132.418 314.391 133.537 315.084 133.267Z" fill="#E8E8E8"/>
<path d="M316.278 124.316C315.855 123.583 315.97 122.503 316.702 122.001C317.356 121.538 318.396 121.731 318.858 122.348C319.32 123.004 319.05 124.046 318.319 124.432C317.472 124.856 316.509 124.046 316.509 123.197C316.509 122.464 315.354 122.464 315.354 123.197C315.316 124.741 316.894 126.052 318.434 125.628C319.859 125.242 320.629 123.429 320.013 122.117C319.397 120.728 317.549 120.226 316.24 120.921C314.815 121.692 314.469 123.583 315.239 124.933C315.662 125.551 316.625 124.972 316.278 124.316Z" fill="#E8E8E8"/>
<path d="M503.811 115.326C505.197 117.178 505.467 119.686 507.161 121.306C508.739 122.85 510.626 122.618 512.551 121.924C513.244 121.692 512.936 120.573 512.243 120.805C511.203 121.152 510.01 121.538 508.932 121.113C508.008 120.727 507.392 119.879 506.93 118.991C506.198 117.564 505.775 116.02 504.812 114.708C504.35 114.13 503.349 114.708 503.811 115.326Z" fill="#E8E8E8"/>
<path d="M512.397 121.46C514.245 119.878 515.862 118.065 517.248 116.058C517.671 115.441 516.67 114.862 516.247 115.48C514.938 117.409 513.359 119.145 511.588 120.65C511.011 121.113 511.819 121.962 512.397 121.46Z" fill="#E8E8E8"/>
<path d="M509.587 114.901C510.126 116.174 510.357 117.486 510.318 118.837C510.28 119.57 511.435 119.57 511.473 118.837C511.512 117.255 511.204 115.75 510.588 114.322C510.318 113.628 509.317 114.207 509.587 114.901Z" fill="#E8E8E8"/>
<path d="M478.748 265.839C478.748 270.97 478.748 276.141 478.748 281.272C478.748 282.005 479.903 282.005 479.903 281.272C479.903 276.141 479.903 270.97 479.903 265.839C479.903 265.106 478.748 265.106 478.748 265.839Z" fill="#E8E8E8"/>
<path d="M464.695 283.395C478.286 283.395 491.915 283.395 505.505 283.395C506.237 283.395 506.237 282.237 505.505 282.237C491.915 282.237 478.286 282.237 464.695 282.237C463.964 282.237 463.964 283.395 464.695 283.395Z" fill="#E8E8E8"/>
<path d="M486.833 284.359C486.833 287.562 486.833 290.803 486.833 294.005C486.833 294.738 487.988 294.738 487.988 294.005C487.988 290.803 487.988 287.562 487.988 284.359C487.988 283.626 486.833 283.626 486.833 284.359Z" fill="#E8E8E8"/>
<path d="M464.31 295.742C476.361 295.742 488.45 295.742 500.501 295.742C501.232 295.742 501.232 294.584 500.501 294.584C488.45 294.584 476.361 294.584 464.31 294.584C463.579 294.584 463.579 295.742 464.31 295.742Z" fill="#E8E8E8"/>
<path d="M473.357 296.706C473.357 299.137 473.357 301.606 473.357 304.037C473.357 304.77 474.512 304.77 474.512 304.037C474.512 301.606 474.512 299.137 474.512 296.706C474.512 295.973 473.357 295.973 473.357 296.706Z" fill="#E8E8E8"/>
<path d="M477.208 109.886C477.208 108.265 476.9 106.22 477.208 104.638C477.632 102.401 480.75 102.825 482.56 102.709C483.291 102.671 483.291 101.513 482.56 101.552C481.097 101.629 479.557 101.629 478.094 101.86C477.439 101.976 476.862 102.169 476.477 102.748C476.015 103.442 476.092 104.407 476.092 105.217C476.092 106.76 476.092 108.342 476.092 109.886C476.053 110.657 477.208 110.657 477.208 109.886Z" fill="#E8E8E8"/>
<path d="M470.432 66.7881C473.936 65.8236 477.439 66.0551 480.789 67.4055C481.482 67.6756 481.79 66.5566 481.097 66.2866C477.555 64.859 473.82 64.6661 470.124 65.6692C469.393 65.9007 469.701 67.0196 470.432 66.7881Z" fill="#E8E8E8"/>
<path d="M469.008 63.3157C472.088 61.1937 475.784 60.8078 479.249 62.1968C479.942 62.4669 480.25 61.348 479.557 61.0779C475.861 59.5732 471.703 60.0361 468.43 62.3126C467.814 62.737 468.392 63.7402 469.008 63.3157Z" fill="#E8E8E8"/>
<path d="M456.495 83.5332C455.263 84.382 452.915 85.501 452.568 87.1215C452.414 87.9703 452.799 88.742 453.107 89.5136C453.646 90.864 454.185 92.2144 454.763 93.5649C456.996 98.8508 459.498 104.021 462.27 109.037C462.617 109.693 463.618 109.114 463.271 108.458C461.154 104.6 459.19 100.664 457.381 96.6515C456.418 94.5294 455.494 92.3688 454.647 90.2081C454.147 88.9349 453.454 87.816 454.378 86.5041C454.917 85.7325 456.303 85.0765 457.111 84.5364C457.689 84.112 457.111 83.1088 456.495 83.5332Z" fill="#E8E8E8"/>
<path d="M294.602 272.63C291.445 274.983 287.634 278.765 286.248 284.166C285.247 288.179 286.209 290.533 285.863 295.703C285.632 299.291 284.708 304.345 281.743 310.364C275.006 308.975 263.687 307.625 250.327 310.712C242.358 312.564 235.967 315.457 231.27 318.081C232.001 318.544 233.002 319.084 234.273 319.431C241.472 321.399 249.057 315.342 249.288 315.766C249.519 316.152 240.818 320.242 241.28 323.791C241.588 326.184 245.861 327.457 250.289 328.807C254.023 329.926 257.565 331.006 262.301 330.466C268.807 329.733 273.312 326.454 275.313 324.756C277.238 325.721 280.088 326.994 283.668 328.113C290.251 330.119 299.338 332.897 305.382 329.116C309.309 326.647 310.502 320.859 312.735 309.361C315.43 295.355 316.701 288.333 313.082 282.584C308.346 274.906 298.606 273.131 294.602 272.63Z" fill="white" stroke="#212121" stroke-width="3" stroke-miterlimit="10"/>
<path d="M280.511 310.789C285.17 312.525 289.02 315.689 291.676 319.894C292.061 320.512 293.062 319.933 292.677 319.315C289.867 314.84 285.747 311.522 280.819 309.67C280.088 309.4 279.818 310.518 280.511 310.789Z" fill="#212121"/>
<path d="M255.717 318.39C251.135 319.162 247.439 322.249 245.784 326.57C245.514 327.264 246.631 327.573 246.9 326.879C248.402 322.943 251.867 320.204 256.025 319.509C256.756 319.393 256.448 318.274 255.717 318.39Z" fill="#212121"/>
<path d="M261.107 322.248C259.452 323.251 257.912 324.409 256.449 325.644C255.486 326.492 254.408 327.496 254.639 328.885C255.217 332.55 259.606 331.74 261.993 330.814C262.686 330.544 262.378 329.425 261.685 329.695C260.645 330.081 259.49 330.582 258.374 330.544C256.564 330.467 254.947 328.73 256.487 327.148C257.95 325.605 259.875 324.37 261.685 323.213C262.301 322.827 261.723 321.824 261.107 322.248Z" fill="#212121"/>
<path d="M330.523 225.134C328.559 225.79 326.057 226.793 323.246 228.182C322.438 228.568 320.397 229.609 318.203 231.037C314.815 233.198 312.351 235.474 309.54 238.329C305.96 241.995 302.341 245.66 298.029 251.525C294.41 256.463 288.789 264.219 284.746 275.601C283.129 280.115 282.205 284.012 281.666 286.79C283.784 285.555 285.709 284.938 287.21 284.591C295.873 282.623 304.189 287.021 312.081 291.15C315.046 292.693 317.394 294.198 319.011 295.24C319.858 291.073 320.705 286.867 321.552 282.7C322.284 279.189 322.977 275.639 323.708 272.128C324.825 271.164 326.326 269.736 327.982 267.884C331.1 264.334 337.299 257.274 338.146 247.474C339.185 236.169 332.486 227.526 330.523 225.134Z" fill="#ED6A5A"/>
<path d="M328.251 225.597C324.131 226.215 320.589 228.414 317.394 230.96C313.698 233.854 310.233 237.057 306.999 240.452C300.685 247.011 295.179 254.342 290.636 262.251C290.251 262.907 291.252 263.486 291.637 262.83C296.026 255.191 301.262 248.091 307.345 241.725C310.31 238.638 313.428 235.706 316.701 232.967C320.204 230.073 323.939 227.372 328.559 226.678C329.29 226.6 328.982 225.482 328.251 225.597Z" fill="#212121"/>
<path d="M326.634 267.73C323.785 270.624 320.859 273.44 317.895 276.18C317.356 276.681 318.164 277.491 318.703 276.99C321.668 274.25 324.594 271.434 327.443 268.54C327.943 268 327.135 267.19 326.634 267.73Z" fill="#212121"/>
<path d="M322.63 273.015C321.282 280.423 319.973 287.87 318.626 295.278C318.895 295.162 319.203 295.046 319.473 294.931C313.351 290.648 306.537 287.446 299.299 285.439C293.639 283.896 286.44 282.391 281.589 286.674C281.05 287.175 281.858 287.986 282.397 287.484C287.325 283.086 295.295 285.401 300.877 287.098C307.307 289.066 313.351 292.076 318.857 295.895C319.165 296.088 319.627 295.895 319.704 295.548C321.051 288.14 322.36 280.693 323.708 273.285C323.862 272.591 322.745 272.282 322.63 273.015Z" fill="#212121"/>
<path d="M290.906 261.71C286.902 269.543 281.897 277.607 281.551 286.674C281.512 287.407 282.667 287.407 282.706 286.674C283.052 277.838 287.98 269.967 291.907 262.289C292.215 261.633 291.214 261.054 290.906 261.71Z" fill="#212121"/>
<path opacity="0.4" d="M325.132 247.126C318.241 260.862 314.506 272.437 312.312 280.539C309.116 292.423 308 301.799 299.722 309.592C298.375 310.866 294.409 314.531 288.172 316.807C275.082 321.553 265.38 315.148 257.141 321.939C256.217 322.711 253.484 324.64 253.792 326.839C254.1 328.923 256.949 330.003 257.372 330.196C260.76 331.508 264.264 330.157 268.653 328.382C273.619 326.376 273.08 325.682 275.313 325.296C280.01 324.486 282.166 327.456 288.403 329.424C291.06 330.234 298.914 332.704 304.573 329.424C308.731 326.993 310.002 322.441 312.004 314.763C313.39 309.554 314.814 301.953 314.583 292.384C316.123 293.58 317.663 294.776 319.203 295.972C321.205 279.69 323.169 263.408 325.132 247.126Z" fill="#3D3D3D"/>
<path opacity="0.38" d="M322.823 263.833C317.548 273.826 314.969 282.276 313.583 287.986C310.811 299.445 311.696 304.847 307.923 312.911C303.881 321.669 297.336 327.225 292.793 330.389C295.334 330.968 301.455 332.048 305.883 328.576C309.001 326.145 309.81 322.673 311.003 317.001C312.505 310.017 314.083 302.069 315.623 293.349C316.817 294.121 318.01 294.893 319.204 295.664C320.436 285.092 321.629 274.443 322.823 263.833Z" fill="#3D3D3D"/>
<path d="M329.713 224.362C328.327 233.429 326.98 242.573 325.671 251.756C320.589 287.368 316.2 322.364 312.504 356.78C312.581 357.937 312.889 359.789 314.044 361.641C315.199 363.532 316.739 364.497 317.47 364.998C324.477 370.014 327.981 372.56 331.523 374.258C348.501 382.476 367.289 381.512 367.289 381.512C371.255 381.319 379.147 380.817 387.617 377.422C388.079 377.229 391.313 375.724 397.781 372.676C403.633 369.937 404.673 369.397 406.097 368.085C409.486 364.96 410.795 361.101 411.68 358.362C413.567 352.536 413.374 347.597 413.297 346.401C413.297 346.401 412.912 336.794 412.643 280.694C412.604 269.273 413.72 252.489 419.726 231.77C413.489 228.722 407.637 225.905 400.592 222.51C395.741 220.156 391.236 217.996 384.768 217.224C382.92 216.992 381.265 216.915 378.801 216.954C368.791 217.031 360.552 218.574 357.01 219.192C350.118 220.311 340.801 222.008 329.713 224.362Z" fill="#ED6A5A"/>
<path d="M329.406 225.712C341.341 223.166 353.391 221.121 365.48 219.616C366.019 219.539 366.327 218.844 365.788 218.536C365.634 218.458 365.48 218.343 365.288 218.265C364.633 217.88 364.056 218.883 364.71 219.269C364.864 219.346 365.018 219.462 365.211 219.539C365.326 219.191 365.403 218.806 365.519 218.458C353.314 219.963 341.148 222.008 329.136 224.593C328.366 224.748 328.674 225.866 329.406 225.712Z" fill="#212121"/>
<path d="M325.825 245.93C321.59 276.179 317.74 306.467 314.275 336.832C313.852 340.652 313.428 344.433 313.005 348.253C312.658 351.571 311.696 355.314 312.119 358.632C312.504 361.564 314.814 363.416 316.932 365.191C319.242 367.12 321.667 368.934 324.208 370.593C334.642 377.345 346.846 381.396 359.243 382.129C373.989 382.978 388.811 379.197 401.401 371.48C402.017 371.094 401.439 370.091 400.823 370.477C378.801 383.942 350.773 384.483 328.328 371.712C325.748 370.245 323.246 368.625 320.859 366.85C318.433 365.037 314.506 362.567 313.505 359.596C313.043 358.169 313.274 356.587 313.428 355.082C313.621 353.192 313.852 351.262 314.044 349.372C314.429 345.822 314.814 342.272 315.238 338.723C316.893 324.254 318.587 309.824 320.435 295.394C322.514 278.996 324.67 262.598 326.98 246.239C327.057 245.505 325.941 245.197 325.825 245.93Z" fill="#212121"/>
<path d="M382.535 216.877C389.311 218.227 395.664 221.352 401.978 224.015C408.177 226.638 415.068 228.76 420.535 232.773C421.151 233.197 421.729 232.194 421.113 231.77C415.761 227.834 409.024 225.751 402.979 223.204C396.434 220.465 389.85 217.185 382.843 215.758C382.112 215.603 381.804 216.722 382.535 216.877Z" fill="#212121"/>
<path d="M412.72 282.314C412.104 298.558 411.488 314.801 412.065 331.006C412.335 338.877 413.567 347.057 412.104 354.889C410.872 361.333 407.253 367.776 400.823 370.168C400.13 370.438 400.438 371.557 401.131 371.287C411.372 367.467 414.029 355.777 413.875 345.977C413.798 339.34 413.22 332.704 413.066 326.029C412.912 319.238 412.989 312.486 413.105 305.696C413.259 297.902 413.567 290.108 413.836 282.314C413.913 281.542 412.758 281.542 412.72 282.314Z" fill="#212121"/>
<path opacity="0.38" d="M407.176 273.17C405.136 280.192 401.94 287.87 397.012 295.509C374.952 329.501 334.565 336.292 324.247 337.72C338.107 339.186 352.121 340.768 366.289 342.465C381.92 344.317 397.359 346.285 412.566 348.291C411.604 331.045 411.604 316.846 411.835 306.699C412.258 285.709 413.76 268.733 411.026 268.192C410.372 268.038 409.217 268.771 407.176 273.17Z" fill="#3D3D3D"/>
<path opacity="0.42" d="M411.911 285.786C410.525 289.876 408.407 295.663 405.289 302.338C400.9 311.791 396.703 320.897 391.275 326.492C376.106 342.118 346.461 335.366 346.384 336.446C346.345 337.063 357.202 338.8 412.026 343.854C412.026 324.485 411.988 305.155 411.911 285.786Z" fill="#3D3D3D"/>
<path d="M480.98 444.866C339.685 425.96 198.352 407.054 57.0566 388.187C98.7521 363.957 140.486 339.726 182.182 315.496C309.655 328.074 437.167 340.691 564.641 353.269C536.728 383.788 508.854 414.346 480.98 444.866Z" fill="white" stroke="#212121" stroke-width="2" stroke-miterlimit="10"/>
<path d="M55.6709 391.467C197.312 410.295 338.954 429.124 480.557 447.953" stroke="#212121" stroke-width="8" stroke-miterlimit="10"/>
<path d="M477.861 448.802C507.545 417.356 537.228 385.872 566.873 354.427" stroke="#212121" stroke-width="8" stroke-miterlimit="10"/>
<path d="M430.584 366.156C416.147 377.461 402.017 389.113 388.118 401.074C387.541 401.575 388.388 402.385 388.927 401.884C402.825 389.923 416.994 378.271 431.393 366.966C431.97 366.542 431.162 365.693 430.584 366.156Z" fill="#212121"/>
<path d="M388.657 401.691C393.2 402.656 397.82 402.656 402.479 402.695C407.715 402.772 412.643 403.312 417.648 404.778C427.042 407.517 436.243 409.331 446.061 409.099C446.792 409.099 446.792 407.942 446.061 407.942C441.017 408.058 435.974 407.749 430.969 406.939C426.272 406.167 421.806 404.778 417.224 403.505C412.835 402.27 408.446 401.691 403.865 401.614C398.86 401.499 393.855 401.653 388.927 400.611C388.234 400.418 387.926 401.537 388.657 401.691Z" fill="#212121"/>
<path d="M431.431 367.005C446.677 368.24 461.808 370.67 476.669 374.297C477.4 374.49 477.708 373.371 476.977 373.178C462.039 369.513 446.793 367.082 431.431 365.847C430.7 365.77 430.7 366.928 431.431 367.005Z" fill="#212121"/>
<path d="M446.946 408.405C457.688 397.756 468.006 386.644 477.785 375.069C478.247 374.49 477.438 373.68 476.976 374.259C467.197 385.795 456.879 396.907 446.138 407.595C445.599 408.135 446.407 408.945 446.946 408.405Z" fill="#212121"/>
<path d="M402.094 397.1C415.338 395.479 428.736 397.139 441.171 402C441.864 402.27 442.172 401.151 441.479 400.881C428.966 396.02 415.415 394.322 402.094 395.943C401.362 396.02 401.362 397.177 402.094 397.1Z" fill="#212121"/>
<path d="M422.152 392.856C430.314 393.473 438.361 394.746 446.33 396.637C447.062 396.83 447.37 395.711 446.638 395.518C438.592 393.589 430.43 392.316 422.152 391.698C421.382 391.66 421.421 392.817 422.152 392.856Z" fill="#212121"/>
<path d="M416.031 384.328C428.313 384.598 440.479 386.373 452.337 389.653C453.068 389.846 453.376 388.727 452.645 388.534C440.71 385.254 428.428 383.441 416.031 383.171C415.3 383.171 415.3 384.328 416.031 384.328Z" fill="#212121"/>
<path d="M431.277 380.779C437.899 381.705 444.444 382.862 450.989 384.251C451.72 384.406 452.028 383.287 451.297 383.132C444.752 381.743 438.207 380.586 431.585 379.66C430.853 379.544 430.545 380.663 431.277 380.779Z" fill="#212121"/>
<path d="M422.846 406.668C420.497 410.295 418.149 413.922 415.762 417.51C415.531 417.857 415.839 418.436 416.262 418.398C435.243 416.237 454.493 417.472 473.05 422.024C473.781 422.217 474.089 421.098 473.358 420.905C454.685 416.314 435.358 415.079 416.262 417.201C416.416 417.51 416.609 417.78 416.763 418.089C419.111 414.462 421.46 410.835 423.847 407.247C424.27 406.63 423.269 406.051 422.846 406.668Z" fill="#212121"/>
<path d="M469.392 384.753C476.822 384.599 484.214 384.445 491.645 384.29C491.452 384.059 491.26 383.789 491.106 383.557C485.985 395.788 480.826 407.98 475.706 420.211C475.436 420.906 476.553 421.215 476.822 420.52C481.943 408.289 487.102 396.097 492.222 383.866C492.376 383.519 491.991 383.133 491.683 383.133C484.253 383.287 476.861 383.441 469.43 383.596C468.66 383.634 468.66 384.792 469.392 384.753Z" fill="#212121"/>
<path d="M441.249 413.498C443.212 413.112 445.176 413.035 447.178 413.19C447.909 413.228 447.909 412.071 447.178 412.032C445.06 411.878 443.02 411.993 440.941 412.379C440.209 412.495 440.517 413.614 441.249 413.498Z" fill="#212121"/>
<path d="M452.182 413.614C458.227 413.845 464.271 414.424 470.277 415.35C471.009 415.466 471.317 414.347 470.585 414.231C464.502 413.266 458.342 412.688 452.182 412.456C451.451 412.417 451.451 413.575 452.182 413.614Z" fill="#212121"/>
<path d="M452.529 406.36C453.954 406.36 455.378 406.36 456.841 406.36C457.572 406.36 457.572 405.202 456.841 405.202C455.416 405.202 453.992 405.202 452.529 405.202C451.798 405.202 451.798 406.36 452.529 406.36Z" fill="#212121"/>
<path d="M461.5 406.244C466.235 406.36 470.932 406.823 475.629 407.595C476.361 407.71 476.669 406.592 475.937 406.476C471.163 405.704 466.351 405.241 461.5 405.087C460.768 405.087 460.768 406.244 461.5 406.244Z" fill="#212121"/>
<path d="M460.768 399.647C466.158 399.724 471.51 400.033 476.861 400.65C477.593 400.727 477.593 399.57 476.861 399.492C471.51 398.875 466.158 398.528 460.768 398.489C460.037 398.451 460.037 399.608 460.768 399.647Z" fill="#212121"/>
<path d="M424.617 412.456C427.197 412.533 429.738 412.224 432.279 411.607C433.01 411.414 432.702 410.295 431.971 410.488C429.545 411.105 427.12 411.376 424.617 411.298C423.885 411.298 423.885 412.456 424.617 412.456Z" fill="#212121"/>
<path d="M442.904 351.996C441.903 353.23 440.748 355.738 441.941 357.243C442.673 358.169 444.059 357.976 445.098 358.015C446.985 358.092 448.871 358.208 450.758 358.285C458.419 358.632 466.042 359.018 473.704 359.365C474.435 359.404 474.435 358.246 473.704 358.208C468.044 357.937 462.423 357.667 456.764 357.397C453.992 357.282 451.258 357.127 448.486 357.011C447.139 356.934 445.714 357.011 444.367 356.819C443.366 356.664 442.634 356.626 442.673 355.391C442.711 354.426 443.135 353.539 443.712 352.806C444.174 352.227 443.366 351.378 442.904 351.996Z" fill="#212121"/>
<path d="M443.943 353.462C450.411 353.693 456.879 353.886 463.347 354.118C466.504 354.233 469.7 354.311 472.857 354.426C475.706 354.542 478.709 354.735 480.749 356.934C481.25 357.474 482.058 356.664 481.558 356.124C480.018 354.426 477.939 353.77 475.706 353.462C472.395 353.037 468.968 353.114 465.619 352.999C458.381 352.767 451.143 352.497 443.943 352.266C443.212 352.304 443.212 353.462 443.943 353.462Z" fill="#212121"/>
<path d="M473.319 359.404C476.283 359.442 479.094 358.516 481.481 356.741C482.058 356.317 481.481 355.314 480.903 355.738C478.67 357.397 476.129 358.285 473.319 358.246C472.549 358.246 472.549 359.404 473.319 359.404Z" fill="#212121"/>
<path d="M474.243 353.462C472.626 354.542 471.894 356.549 472.433 358.401C472.626 359.095 473.742 358.825 473.55 358.092C473.165 356.742 473.627 355.237 474.82 354.427C475.436 354.041 474.859 353.038 474.243 353.462Z" fill="#212121"/>
<path d="M317.047 393.472C270.27 385.447 223.492 377.422 176.715 369.396C205.128 357.898 233.541 346.439 261.954 334.941C306.383 344.857 350.812 354.773 395.202 364.689C369.176 374.296 343.112 383.865 317.047 393.472Z" fill="white" stroke="#212121" stroke-width="2" stroke-miterlimit="10"/>
<path d="M315.122 394.051C315.276 394.514 315.391 395.016 315.545 395.479C315.738 396.096 316.662 395.981 316.662 395.325C316.662 394.939 316.662 394.592 316.662 394.206C316.662 393.473 315.507 393.473 315.507 394.206C315.507 394.669 315.43 395.093 315.237 395.518C315.622 395.518 315.969 395.518 316.354 395.518C316.2 395.016 316.161 394.553 316.277 394.013C315.93 394.051 315.584 394.09 315.237 394.167C315.353 394.283 315.353 394.36 315.276 394.476C315.622 394.514 315.969 394.553 316.315 394.63C316.238 394.36 316.277 394.129 316.431 393.897C316.084 393.781 315.699 393.704 315.353 393.588C315.276 394.206 315.199 394.785 315.122 395.402C315.083 395.711 315.43 395.981 315.699 395.981C316.046 395.981 316.238 395.711 316.277 395.402C316.354 394.785 316.431 394.206 316.508 393.588C316.585 393.01 315.699 392.855 315.43 393.28C315.122 393.781 315.045 394.36 315.199 394.939C315.314 395.44 316.007 395.479 316.238 395.093C316.546 394.63 316.546 394.051 316.2 393.627C315.93 393.28 315.237 393.241 315.16 393.781C315.006 394.476 315.045 395.209 315.237 395.903C315.43 396.482 316.161 396.405 316.354 395.903C316.546 395.363 316.662 394.823 316.662 394.283C316.277 394.283 315.892 394.283 315.507 394.283C315.507 394.669 315.507 395.016 315.507 395.402C315.892 395.363 316.277 395.286 316.623 395.248C316.469 394.785 316.354 394.283 316.2 393.82C316.046 393.01 314.929 393.318 315.122 394.051Z" fill="#212121"/>
<path d="M316.008 396.829C322.207 393.627 328.983 391.929 335.643 390.038C338.916 389.112 342.15 388.109 345.268 386.797C348.271 385.563 351.159 384.019 354.123 382.63C360.707 379.544 367.829 377.537 374.721 375.261C381.882 372.869 389.004 370.476 396.165 368.123C396.858 367.891 396.55 366.773 395.857 367.004C388.696 369.396 381.574 371.788 374.413 374.142C367.637 376.38 360.668 378.386 354.162 381.357C350.774 382.9 347.463 384.714 343.998 386.064C340.841 387.299 337.607 388.263 334.334 389.189C327.905 391.041 321.398 392.739 315.392 395.826C314.776 396.173 315.354 397.176 316.008 396.829Z" fill="#212121"/>
<path d="M316.546 396.598C343.15 387.376 369.676 378.039 396.203 368.548C398.282 367.815 397.396 364.458 395.279 365.191C368.791 374.682 342.226 384.02 315.622 393.241C313.543 393.974 314.429 397.331 316.546 396.598Z" fill="#212121"/>
<path d="M313.544 359.326C318.549 359.828 322.822 362.876 327.75 363.841C328.482 363.995 328.79 362.876 328.058 362.722C323.053 361.719 318.703 358.67 313.544 358.169C312.812 358.13 312.812 359.288 313.544 359.326Z" fill="#212121"/>
<path d="M328.097 363.301C331.138 361.641 333.987 359.674 336.567 357.359C337.106 356.857 336.297 356.047 335.758 356.548C333.217 358.786 330.484 360.715 327.519 362.297C326.865 362.683 327.442 363.686 328.097 363.301Z" fill="#212121"/>
<path d="M314.737 357.127C317.163 355.391 319.665 353.732 322.245 352.189C322.899 351.803 322.283 350.8 321.667 351.185C319.088 352.729 316.585 354.349 314.16 356.124C313.544 356.587 314.121 357.59 314.737 357.127Z" fill="#212121"/>
<path d="M322.438 352.381C326.827 354.04 331.215 355.66 335.643 357.319C336.336 357.59 336.644 356.471 335.951 356.201C331.562 354.541 327.173 352.921 322.746 351.262C322.053 351.03 321.745 352.149 322.438 352.381Z" fill="#212121"/>
<path d="M310.078 363.724C321.667 367.313 333.101 371.441 344.305 376.11C344.998 376.38 345.306 375.261 344.613 374.991C333.409 370.322 321.975 366.194 310.386 362.606C309.655 362.374 309.347 363.493 310.078 363.724Z" fill="#212121"/>
<path d="M311.195 372.715C318.395 376.187 325.671 379.467 333.025 382.669C333.718 382.978 334.295 381.975 333.602 381.666C326.249 378.502 318.972 375.184 311.773 371.712C311.118 371.403 310.541 372.406 311.195 372.715Z" fill="#212121"/>
<path d="M312.234 382.631C316.161 384.637 320.088 386.682 324.015 388.688C324.67 389.036 325.247 388.032 324.593 387.685C320.666 385.679 316.739 383.634 312.812 381.628C312.157 381.28 311.58 382.284 312.234 382.631Z" fill="#212121"/>
<path d="M314.467 382.978C319.896 378.348 325.594 374.104 331.523 370.168C332.139 369.744 331.561 368.741 330.945 369.165C324.939 373.139 319.164 377.499 313.659 382.168C313.081 382.669 313.89 383.48 314.467 382.978Z" fill="#212121"/>
<path d="M313.043 375.068C316.123 372.907 319.203 370.746 322.283 368.547C322.899 368.123 322.322 367.12 321.706 367.544C318.626 369.705 315.546 371.865 312.466 374.065C311.888 374.489 312.466 375.492 313.043 375.068Z" fill="#212121"/>
<path d="M314.968 396.135C266.574 387.878 218.179 379.621 169.785 371.364C165.242 336.909 160.66 302.493 156.117 268.038C208.208 275.06 260.26 282.082 312.35 289.143C313.236 324.794 314.121 360.445 314.968 396.135Z" fill="white" stroke="#212121" stroke-width="2" stroke-miterlimit="10"/>
<path d="M228.729 336.524C224.532 335.212 222.261 331.662 221.914 327.379C221.568 323.02 222.415 318.814 226.457 316.538C230.038 314.531 234.311 315.11 237.507 317.541C240.702 319.971 243.551 324.949 240.972 328.768C240.548 329.386 241.549 329.965 241.973 329.347C244.745 325.257 242.127 319.856 238.739 317.039C235.235 314.145 230.5 313.258 226.38 315.303C221.606 317.656 220.374 322.441 220.759 327.418C221.144 332.241 223.685 336.215 228.421 337.681C229.114 337.874 229.422 336.755 228.729 336.524Z" fill="#212121"/>
<path d="M229.807 336.948C228.036 334.015 228.613 329.925 231.462 327.88C234.311 325.836 238.392 326.684 240.548 329.308C241.01 329.887 241.819 329.077 241.357 328.498C238.816 325.45 234.042 324.601 230.731 326.954C227.42 329.347 226.727 334.131 228.806 337.526C229.191 338.144 230.192 337.565 229.807 336.948Z" fill="#212121"/>
<path d="M233.772 338.569C231.963 336.64 232.232 333.051 234.658 331.662C237.045 330.273 240.279 331.855 241.049 334.402C241.28 335.096 242.396 334.826 242.165 334.093C241.164 330.852 237.122 328.923 234.08 330.698C231.039 332.473 230.654 336.948 232.964 339.418C233.464 339.919 234.273 339.109 233.772 338.569Z" fill="#212121"/>
<path d="M236.736 341.269C238.238 341.809 239.97 340.922 240.548 339.494C241.164 338.066 240.355 336.523 239.008 335.906C237.66 335.288 236.043 335.636 235.312 336.947C234.619 338.221 234.85 339.957 236.005 340.883C236.582 341.346 237.391 340.536 236.813 340.073C235.273 338.877 236.351 336.06 238.392 336.909C239.277 337.256 239.893 338.182 239.47 339.147C239.046 340.073 237.968 340.536 237.044 340.188C236.351 339.918 236.043 341.037 236.736 341.269Z" fill="#212121"/>
<path d="M312.35 289.104L315.738 395.402" stroke="#212121" stroke-width="3" stroke-miterlimit="10"/>
<path d="M312.581 289.027C313.621 323.984 314.66 358.94 315.7 393.897" stroke="#212121" stroke-width="2" stroke-miterlimit="10"/>
<path opacity="0.37" d="M245.937 281.928C248.44 283.24 269.923 294.969 271.424 315.804C272.271 327.302 266.65 336.022 263.108 341.346C244.012 370.129 206.244 375.222 196.003 376.303C210.902 386.219 262.954 418.899 319.857 416.969C332.524 416.545 352.159 415.658 373.449 403.928C389.427 395.131 399.783 383.826 405.712 376.303C402.055 374.026 398.436 371.788 394.778 369.512C367.905 378.733 340.994 387.955 314.121 397.138C312.735 361.487 311.349 325.874 309.963 290.223C288.595 287.522 267.266 284.744 245.937 281.928Z" fill="#3D3D3D"/>
<path opacity="0.5" d="M215.33 378.811C220.335 382.129 228.074 386.875 238.084 391.428C250.558 397.138 287.479 414.037 327.481 404.662C356.548 397.832 379.032 379.119 377.569 376.033C376.645 374.104 365.365 376.11 315.122 396.135C314.314 379.814 313.505 363.455 312.735 347.134C311.349 360.869 309.925 374.605 308.539 388.302C277.469 385.177 246.4 381.975 215.33 378.811Z" fill="#3D3D3D"/>
<path d="M225.687 334.826C222.877 331.739 221.953 327.418 223.339 323.637C224.763 319.817 228.536 316.537 233.041 316.692C237.006 316.846 240.202 319.624 241.357 322.248C242.204 324.254 242.011 326.106 242.011 326.106C241.896 327.148 241.549 327.958 241.28 328.46C239.316 326.183 236.313 325.142 233.503 325.797C230.038 326.608 228.536 329.579 228.382 329.849C226.804 333.09 228.19 336.099 228.382 336.446C227.458 335.868 226.573 335.328 225.687 334.826Z" fill="#5B399B"/>
<path d="M420.497 285.979C418.418 287.523 416.185 289.606 414.145 292.346C406.56 302.57 407.6 314.57 408.139 318.466C401.401 317.077 390.082 315.727 376.723 318.814C368.753 320.666 362.362 323.559 357.665 326.183C358.397 326.646 359.398 327.186 360.668 327.534C367.868 329.501 375.452 323.444 375.683 323.868C375.914 324.254 367.213 328.344 367.675 331.893C367.983 334.286 372.257 335.559 376.684 336.909C380.419 338.028 383.961 339.108 388.696 338.568C395.203 337.835 399.707 334.556 401.709 332.858C403.634 333.823 406.483 335.096 410.064 336.215C416.647 338.221 425.733 340.999 431.778 337.218C435.705 334.749 436.898 328.961 439.131 317.463C441.98 302.724 443.405 295.355 439.478 290.686C434.28 284.475 423.847 285.516 420.497 285.979Z" fill="white" stroke="#212121" stroke-miterlimit="10"/>
<path d="M406.83 318.852C411.489 320.589 415.339 323.753 417.995 327.958C418.38 328.575 419.381 327.997 418.996 327.379C416.186 322.904 412.066 319.585 407.138 317.733C406.445 317.502 406.137 318.621 406.83 318.852Z" fill="#212121"/>
<path d="M382.074 326.492C377.493 327.263 373.797 330.35 372.141 334.671C371.872 335.366 372.988 335.675 373.258 334.98C374.759 331.045 378.224 328.305 382.382 327.611C383.114 327.495 382.806 326.376 382.074 326.492Z" fill="#212121"/>
<path d="M372.68 335.404C375.067 337.681 378.378 338.452 381.496 337.449C382.189 337.218 381.881 336.099 381.188 336.33C378.455 337.218 375.567 336.6 373.488 334.594C372.949 334.054 372.141 334.864 372.68 335.404Z" fill="#212121"/>
<path d="M387.425 330.312C385.77 331.315 384.23 332.472 382.767 333.707C381.804 334.556 380.726 335.559 380.957 336.948C381.535 340.613 385.924 339.803 388.311 338.877C389.004 338.607 388.696 337.488 388.003 337.758C386.963 338.144 385.808 338.646 384.692 338.607C382.882 338.53 381.265 336.794 382.805 335.212C384.268 333.668 386.193 332.434 388.003 331.276C388.657 330.929 388.08 329.926 387.425 330.312Z" fill="#212121"/>
<path d="M418.572 230.921C420.15 232.156 422.191 233.853 424.347 236.052C424.963 236.67 426.541 238.29 428.12 240.297C430.584 243.383 432.162 246.316 433.895 249.904C436.128 254.495 438.361 259.087 440.594 265.955C442.48 271.742 445.368 280.848 445.714 292.963C445.868 297.747 445.56 301.76 445.252 304.576C443.674 302.763 442.095 301.567 440.786 300.795C433.433 296.281 424.501 297.902 416.069 299.445C412.912 300.024 410.294 300.718 408.485 301.22C408.947 296.976 409.37 292.731 409.832 288.487C410.217 284.938 410.564 281.349 410.949 277.761C410.217 276.488 409.216 274.674 408.292 272.398C406.483 268.038 402.864 259.473 404.943 249.865C407.407 238.83 416.069 232.58 418.572 230.921Z" fill="#ED6A5A"/>
<path d="M419.92 233.042C423.77 235.049 426.349 238.521 428.582 242.109C430.892 245.813 432.971 249.633 434.819 253.569C438.592 261.594 441.364 270.082 443.174 278.764C443.328 279.497 444.444 279.188 444.29 278.455C442.442 269.427 439.516 260.668 435.512 252.334C433.549 248.244 431.393 244.27 428.929 240.45C426.734 237.055 424.155 233.891 420.536 232.001C419.843 231.692 419.265 232.695 419.92 233.042Z" fill="#212121"/>
<path d="M407.908 272.282C409.679 275.909 411.527 279.458 413.452 283.008C413.798 283.664 414.799 283.085 414.453 282.429C412.528 278.88 410.68 275.33 408.909 271.703C408.562 271.009 407.561 271.587 407.908 272.282Z" fill="#212121"/>
<path d="M410.641 278.918C409.679 286.403 408.716 293.888 407.792 301.373C407.754 301.759 408.216 302.029 408.524 301.914C415.069 299.83 421.883 298.827 428.736 299.058C434.165 299.251 441.364 299.753 444.406 305.077C444.791 305.733 445.753 305.155 445.407 304.499C442.519 299.406 436.205 298.364 430.892 298.017C423.231 297.477 415.531 298.48 408.254 300.795C408.485 300.988 408.755 301.181 408.986 301.335C409.948 293.85 410.911 286.365 411.835 278.879C411.912 278.185 410.757 278.185 410.641 278.918Z" fill="#212121"/>
<path d="M443.096 278.185C444.444 286.673 446.638 295.663 444.367 304.19C444.174 304.923 445.291 305.232 445.483 304.499C447.793 295.779 445.599 286.596 444.213 277.876C444.097 277.143 442.981 277.452 443.096 278.185Z" fill="#212121"/>
<path opacity="0.32" d="M415.646 229.493C419.149 236.052 422.653 243.885 425.617 252.875C431.431 270.623 432.971 286.558 433.086 298.48C429.159 298.712 425.232 298.943 421.305 299.175C422.576 308.319 423.885 317.502 425.155 326.646C422.691 325.218 418.918 323.405 414.067 322.325C412.489 321.977 406.675 320.82 400.477 321.862C387.464 324.061 379.61 334.749 377.839 337.295C379.61 338.028 381.881 338.723 384.615 338.877C393.008 339.379 399.129 334.517 400.939 332.974C406.675 335.867 411.68 337.256 415.222 337.951C421.421 339.224 428.659 340.69 432.663 336.832C432.971 336.523 433.664 335.79 435.165 332.048C437.514 326.106 438.746 320.55 440.363 310.48C440.709 308.242 441.21 305.232 441.71 301.644C442.673 302.609 443.674 303.612 444.636 304.576C445.098 302.84 445.676 300.255 445.984 297.091C446.792 288.873 445.214 282.391 443.712 277.105C437.668 255.73 434.049 242.843 421.96 233.506C419.457 231.654 417.147 230.303 415.646 229.493Z" fill="#3D3D3D"/>
<path opacity="0.29" d="M436.012 255.923C438.592 268.501 438.938 279.189 438.746 286.905C438.553 294.082 437.822 299.329 437.052 304.615C434.78 320.55 433.625 328.498 429.236 332.202C420.92 339.224 406.098 333.9 402.556 332.549C405.905 334.787 417.956 342.388 429.737 338.183C430.969 337.72 432.316 337.141 433.625 336.292C435.011 333.938 436.859 330.312 438.053 325.566C438.746 322.749 438.938 320.704 439.208 318.312C439.631 314.454 440.363 308.821 441.595 301.76C442.711 302.724 443.866 303.689 444.983 304.654C445.368 302.686 445.868 299.676 445.984 295.972C446.33 287.021 444.367 280.23 442.095 272.475C440.863 268.231 438.938 262.521 436.012 255.923Z" fill="#3D3D3D"/>
<path d="M330.177 154.642C330.562 158.77 331.255 164.558 332.795 171.387C333.796 175.824 334.412 178.641 335.721 182.152C337.684 187.438 341.419 197.547 351.159 204.144C353.508 205.765 357.396 207.926 362.863 209.199C363.749 209.276 364.634 209.392 365.52 209.469C365.828 211.089 366.213 213.482 366.598 216.375C367.522 223.822 367.06 226.098 368.985 228.105C371.333 230.535 375.068 230.304 375.876 230.227C382.306 229.802 385.54 223.397 385.694 223.05C384.654 221.16 383.615 218.845 382.768 216.144C380.92 210.163 380.881 204.839 381.189 201.212C384.154 196.929 387.426 193.65 390.737 191.103C392.008 190.139 393.086 188.827 394.972 188.171C397.667 187.245 399.053 188.171 401.055 187.554C404.366 186.512 405.791 182.229 406.407 180.454C408.755 173.432 405.868 166.487 404.02 162.359C402.364 158.577 398.052 149.202 387.542 141.871C376.723 134.308 355.086 125.897 340.764 136.816C338.3 138.707 332.679 143.761 330.177 154.642Z" fill="white"/>
<path d="M331.793 170.538C329.329 170.114 323.093 168.648 319.05 163.285C312.89 155.144 316.201 143.762 319.628 137.743C325.018 128.29 334.835 125.01 347.155 120.882C354.47 118.451 361.439 116.136 370.91 116.522C376.146 116.753 393.894 117.525 404.52 130.759C410.834 138.591 411.527 147.003 412.913 163.593C413.567 171.194 413.067 175.323 411.758 179.258C410.795 182.113 407.677 191.258 398.706 194.923C394.009 196.852 389.659 196.466 387.272 196.081C389.428 192.878 391.584 189.714 393.778 186.512C395.01 186.589 399.399 186.666 402.749 183.618C407.33 179.413 408.139 171.04 404.79 168.802C402.326 167.143 397.436 168.764 393.201 172.583C392.816 170.153 392.2 167.49 391.16 164.751C386.309 151.671 375.76 144.495 370.601 141.524C368.561 144.147 362.093 151.826 350.62 154.874C341.534 157.266 333.988 155.568 330.638 154.565C331.023 159.889 331.408 165.214 331.793 170.538Z" fill="#5B399B"/>
<path d="M329.868 155.646C331.447 167.568 333.102 179.953 338.916 190.679C343.69 199.476 351.39 207 361.284 209.508C362.016 209.701 362.324 208.582 361.592 208.389C351.813 205.881 344.267 198.319 339.647 189.56C334.142 179.143 332.563 167.182 331.023 155.646C330.908 154.912 329.753 154.912 329.868 155.646Z" fill="#212121"/>
<path d="M361.285 209.662C368.253 209.662 375.568 205.92 381.035 201.907C386.54 197.856 391.045 192.647 394.279 186.628C394.625 185.972 393.624 185.393 393.278 186.049C390.159 191.914 385.809 197.007 380.457 200.904C375.106 204.839 368.022 208.505 361.285 208.505C360.515 208.505 360.515 209.662 361.285 209.662Z" fill="#212121"/>
<path d="M380.997 200.98C380.227 208.774 381.728 216.568 385.27 223.552C385.617 224.208 386.618 223.629 386.271 222.973C382.806 216.144 381.42 208.581 382.152 200.98C382.229 200.247 381.074 200.247 380.997 200.98Z" fill="#212121"/>
<path d="M364.249 209.469C365.519 213.867 366.559 218.343 367.329 222.857C367.829 225.867 368.022 229.262 371.371 230.381C376.376 232.079 383.768 229.069 385.693 224.092C385.963 223.397 384.846 223.089 384.577 223.783C383.499 226.6 380.804 228.143 378.032 228.953C375.722 229.609 372.218 230.304 370.255 228.413C369.1 227.294 368.946 225.519 368.715 224.015C368.445 222.433 368.176 220.851 367.868 219.269C367.175 215.874 366.366 212.478 365.404 209.16C365.173 208.466 364.056 208.774 364.249 209.469Z" fill="#212121"/>
<path d="M365.905 214.253C372.758 213.366 377.263 208.119 380.574 202.485C380.959 201.83 379.958 201.251 379.573 201.907C376.531 207.154 372.296 212.286 365.905 213.096C365.174 213.212 365.174 214.369 365.905 214.253Z" fill="#212121"/>
<path d="M365.635 210.317C370.986 209.7 375.799 207.192 379.379 203.141C379.88 202.601 379.071 201.752 378.571 202.331C375.221 206.151 370.678 208.581 365.635 209.16C364.942 209.237 364.903 210.395 365.635 210.317Z" fill="#212121"/>
<path d="M365.828 209.469C370.14 208.852 374.028 207.077 377.339 204.26C377.917 203.759 377.07 202.948 376.531 203.45C373.374 206.151 369.639 207.81 365.52 208.389C364.788 208.466 365.096 209.585 365.828 209.469Z" fill="#212121"/>
<path d="M365.597 210.433C365.789 211.359 365.751 213.211 366.906 213.52C368.022 213.829 369.716 212.517 370.602 211.977C373.643 210.125 376.184 207.617 378.186 204.684C378.61 204.067 377.609 203.488 377.185 204.106C375.761 206.228 374.028 208.118 371.988 209.662C371.025 210.395 370.024 211.012 368.985 211.591C368.561 211.822 367.599 212.478 367.175 212.208C366.906 212.054 366.79 210.395 366.752 210.125C366.559 209.392 365.443 209.7 365.597 210.433Z" fill="#212121"/>
<path d="M366.135 211.514C369.446 210.164 372.565 208.466 375.491 206.421C376.107 205.997 375.529 204.994 374.913 205.418C372.064 207.424 369.061 209.083 365.827 210.395C365.134 210.665 365.442 211.784 366.135 211.514Z" fill="#212121"/>
<path d="M366.713 212.671C370.409 211.359 373.643 209.314 376.338 206.459C376.839 205.919 376.03 205.109 375.53 205.649C372.95 208.311 369.909 210.317 366.405 211.552C365.712 211.822 366.02 212.941 366.713 212.671Z" fill="#212121"/>
<path d="M367.329 212.054C370.062 210.858 372.565 209.237 374.721 207.154C375.26 206.652 374.451 205.842 373.912 206.343C371.795 208.35 369.408 209.893 366.751 211.05C366.058 211.359 366.636 212.362 367.329 212.054Z" fill="#212121"/>
<path d="M335.874 184.968C329.599 182.73 327.52 174.512 328.136 168.57C328.79 162.05 334.642 154.95 341.803 157.999C345.23 159.465 346.5 163.246 347.424 166.603C348.387 170.152 348.81 174.088 347.886 177.715C347.078 180.917 345.114 183.965 342.034 185.354C338.954 186.743 335.297 185.971 333.218 183.309C332.756 182.73 331.947 183.541 332.409 184.119C335.913 188.634 342.496 187.746 346.038 183.772C350.543 178.718 350.081 171.04 348.156 164.982C347.27 162.166 346.115 159.233 343.536 157.613C341.303 156.185 338.454 155.838 335.951 156.494C330.099 158.076 327.058 164.288 326.942 169.959C326.827 176.171 329.252 183.849 335.643 186.087C336.259 186.319 336.567 185.2 335.874 184.968Z" fill="#212121"/>
<path d="M349.196 173.432C352.969 171.156 357.55 170.924 361.477 172.892C362.132 173.239 362.709 172.236 362.055 171.889C357.743 169.728 352.738 169.921 348.58 172.429C348.003 172.815 348.58 173.818 349.196 173.432Z" fill="#212121"/>
<path d="M367.599 181.65C363.248 177.445 361.439 170.924 363.133 165.059C364.904 158.963 370.987 153.716 377.532 155.877C384.77 158.269 385.155 168.648 383.268 174.744C382.152 178.332 379.919 181.92 376.223 183.232C372.527 184.544 369.331 182.576 366.367 180.493C365.751 180.068 365.173 181.071 365.789 181.496C368.215 183.232 370.833 184.968 373.913 184.853C376.839 184.737 379.495 183.116 381.305 180.917C385.386 175.978 386.194 168.455 384.5 162.436C382.96 156.957 378.417 153.407 372.604 154.372C367.06 155.259 362.979 160.275 361.747 165.522C360.322 171.58 362.247 178.139 366.713 182.46C367.329 183.001 368.138 182.152 367.599 181.65Z" fill="#212121"/>
<path d="M339.378 168.956C338.993 171.387 339.417 173.741 340.726 175.824C340.995 176.248 341.611 176.171 341.765 175.67C342.689 173.007 341.38 170.384 340.071 168.107C339.802 167.606 338.993 167.837 338.993 168.416C339.032 170.461 339.455 172.467 340.225 174.358C340.495 175.052 341.611 174.744 341.342 174.049C340.61 172.236 340.187 170.384 340.148 168.416C339.802 168.532 339.417 168.609 339.07 168.725C340.264 170.77 341.496 173.008 340.649 175.4C340.995 175.361 341.342 175.322 341.688 175.245C340.533 173.432 340.11 171.387 340.456 169.265C340.61 168.532 339.494 168.223 339.378 168.956Z" fill="#212121"/>
<path d="M373.45 167.876C373.45 167.375 373.412 167.259 373.181 166.835C372.911 166.333 372.103 166.564 372.103 167.143C372.141 169.535 372.334 172.12 374.182 173.818C374.567 174.165 375.106 173.895 375.183 173.394C375.491 170.539 374.644 167.876 372.873 165.638C372.488 165.175 371.795 165.677 371.91 166.217C372.372 168.108 372.95 169.96 373.643 171.735C373.912 172.429 375.029 172.12 374.759 171.426C374.028 169.613 373.45 167.799 373.027 165.909C372.719 166.101 372.372 166.294 372.064 166.487C373.643 168.494 374.297 170.886 374.028 173.432C374.374 173.278 374.682 173.162 375.029 173.008C373.373 171.503 373.296 169.227 373.258 167.143C372.911 167.259 372.526 167.336 372.18 167.452C372.218 167.606 372.257 167.761 372.295 167.915C372.295 168.609 373.45 168.609 373.45 167.876Z" fill="#212121"/>
<path d="M353.045 175.477C352.275 177.792 351.621 180.145 351.197 182.538C350.966 183.811 350.158 186.203 350.735 187.476C351.89 190.061 357.011 188.479 358.782 187.631C359.436 187.322 358.859 186.319 358.204 186.627C356.78 187.322 355.24 187.669 353.661 187.553C352.737 187.476 352.006 187.322 351.813 186.28C351.698 185.701 352.083 184.197 352.198 183.541C352.66 180.879 353.353 178.293 354.2 175.747C354.393 175.091 353.276 174.782 353.045 175.477Z" fill="#212121"/>
<path d="M358.859 197.74C361.746 197.354 364.249 195.502 365.519 192.839C365.827 192.184 364.826 191.566 364.518 192.261C363.363 194.691 361.207 196.273 358.551 196.621C357.819 196.736 358.166 197.855 358.859 197.74Z" fill="#212121"/>
<path d="M336.952 165.638C337.684 164.751 339.031 164.597 339.955 165.368C340.533 165.87 341.341 165.021 340.764 164.558C339.416 163.4 337.337 163.478 336.144 164.828C335.643 165.368 336.452 166.179 336.952 165.638Z" fill="#212121"/>
<path d="M369.985 163.478C371.179 162.436 372.988 162.436 374.182 163.44C374.759 163.903 375.568 163.092 374.99 162.629C373.296 161.163 370.832 161.202 369.138 162.668C368.599 163.17 369.446 163.98 369.985 163.478Z" fill="#212121"/>
<path d="M385.155 168.802C389.313 167.336 393.587 166.449 398.014 166.217C398.746 166.178 398.746 165.021 398.014 165.06C393.51 165.291 389.12 166.178 384.847 167.683C384.154 167.953 384.423 169.072 385.155 168.802Z" fill="#212121"/>
<path opacity="0.4" d="M390.891 120.728C393.201 123.698 402.095 135.891 400.439 152.636C399.515 161.973 395.665 168.841 393.24 172.468C394.626 171.387 395.819 170.654 396.705 170.153C399.053 168.841 400.555 168.031 402.48 168.146C403.057 168.185 404.443 168.301 405.444 169.111C408.37 171.58 407.369 180.339 402.172 184.429C399.323 186.666 395.973 186.898 394.279 186.859C392.085 189.985 389.852 193.11 387.657 196.274C389.12 196.505 391.353 196.698 393.933 196.312C395.049 196.158 399.515 195.348 403.75 191.952C407.908 188.596 409.602 184.506 410.719 181.728C413.799 174.011 413.183 167.22 412.105 154.99C411.643 149.549 411.373 146.771 410.295 143.106C409.14 139.132 407.331 133.267 402.172 128.02C398.476 124.161 394.318 122.001 390.891 120.728Z" fill="#3D3D3D"/>
<path opacity="0.48" d="M353.7 153.716C357.55 150.282 361.862 145.883 366.02 140.405C368.6 137.009 370.756 133.73 372.527 130.682C371.872 134.154 371.218 137.627 370.602 141.099C369.1 143.26 366.598 146.346 362.709 149.163C359.283 151.594 356.049 152.944 353.7 153.716Z" fill="#3D3D3D"/>
<path opacity="0.27" d="M381.073 149.317C383.999 159.079 384.23 167.259 383.961 172.66C383.768 176.673 382.69 197.701 371.641 204.955C370.563 205.649 367.829 207.27 367.945 207.501C368.099 207.771 373.219 205.495 376.03 203.951C380.457 201.559 387.272 196.736 393.586 186.55C394.626 186.666 399.708 187.013 403.365 183.502C407.793 179.297 408.563 171.04 405.059 168.609C402.557 166.873 397.783 168.339 393.586 171.811C393.163 170.037 392.624 168.185 391.892 166.217C389.005 158.577 384.654 153.021 381.073 149.317Z" fill="#3D3D3D"/>
<path opacity="0.36" d="M371.795 207.193C372.796 210.279 373.797 213.366 374.798 216.491C376.184 220.735 377.531 225.018 378.879 229.262C379.649 229.108 381.535 228.568 383.191 226.87C384.846 225.173 385.385 223.321 385.578 222.549C384.076 219.578 382.305 215.064 381.689 209.353C381.381 206.382 381.458 203.759 381.689 201.56C378.417 203.45 375.106 205.341 371.795 207.193Z" fill="#3D3D3D"/>
<path opacity="0.43" d="M352.584 176.827C350.659 180.956 348.734 185.045 346.809 189.174C349.966 189.097 353.084 189.058 356.241 188.981C354.393 188.402 352.507 187.823 350.659 187.245C351.275 183.772 351.929 180.3 352.584 176.827Z" fill="#3D3D3D"/>
<path d="M286.441 78.0696C289.289 78.0696 291.597 75.7523 291.597 72.8937C291.597 70.0351 289.289 67.7178 286.441 67.7178C283.594 67.7178 281.286 70.0351 281.286 72.8937C281.286 75.7523 283.594 78.0696 286.441 78.0696Z" fill="#2CA58D"/>
<path d="M119.92 200.994C121.058 200.994 121.982 200.067 121.982 198.924C121.982 197.78 121.058 196.854 119.92 196.854C118.781 196.854 117.857 197.78 117.857 198.924C117.857 200.067 118.781 200.994 119.92 200.994Z" fill="#ED6A5A"/>
<path d="M190.584 227.678C193.431 227.678 195.739 225.361 195.739 222.502C195.739 219.643 193.431 217.326 190.584 217.326C187.737 217.326 185.429 219.643 185.429 222.502C185.429 225.361 187.737 227.678 190.584 227.678Z" fill="#FFBD00"/>
<path d="M137.155 106.416C140.002 106.416 142.31 104.099 142.31 101.24C142.31 98.3818 140.002 96.0645 137.155 96.0645C134.308 96.0645 132 98.3818 132 101.24C132 104.099 134.308 106.416 137.155 106.416Z" fill="#ED6A5A"/>
<path d="M253.441 180.434C256.289 180.434 258.597 178.117 258.597 175.258C258.597 172.399 256.289 170.082 253.441 170.082C250.594 170.082 248.286 172.399 248.286 175.258C248.286 178.117 250.594 180.434 253.441 180.434Z" fill="#2CA58D"/>
</svg>
