<svg viewBox="0 0 690 518" fill="none" xmlns="http://www.w3.org/2000/svg">
<path d="M369.883 357.204C367.037 354.614 364.622 351.636 362.724 348.269C361.733 346.499 360.913 344.686 360.266 342.787C359.964 341.923 359.663 341.017 359.447 340.11C359.231 339.29 359.188 338.47 359.361 337.65C359.964 336.268 360.827 335.966 361.991 336.743C362.466 337.261 363.414 336.571 363.026 335.966C359.878 331.52 357.549 326.599 356.213 321.29C355.911 320.081 355.652 318.872 355.436 317.62C355.264 316.455 355.307 315.074 355.005 313.908C354.358 311.577 352.633 309.203 351.598 307.001C346.682 296.771 342.542 285.591 344.267 274.065C343.879 274.108 343.491 274.152 343.103 274.238C351.598 285.375 358.239 297.764 362.768 311.016C363.026 311.793 364.234 311.491 364.018 310.671C363.544 308.771 363.328 306.958 363.414 305.016C363.156 305.232 362.854 305.447 362.595 305.62C363.932 305.836 364.708 306.613 364.924 307.951C365.053 308.685 366.174 308.469 366.174 307.778C366.218 305.491 366.304 303.16 366.347 300.872C365.959 301.001 365.528 301.088 365.139 301.217C372.212 312.095 377.775 323.836 381.699 336.182C381.915 336.83 382.734 336.786 382.95 336.182C383.295 335.189 383.64 334.153 384.028 333.16C383.726 333.29 383.381 333.419 383.079 333.549C387.219 336.527 389.462 341.319 389.203 346.369C389.16 347.19 390.454 347.19 390.497 346.369C390.756 340.801 388.211 335.664 383.726 332.427C383.381 332.168 382.907 332.47 382.778 332.815C382.433 333.808 382.088 334.844 381.699 335.837C382.131 335.837 382.519 335.837 382.95 335.837C379.026 323.362 373.419 311.491 366.261 300.57C365.916 300.052 365.053 300.224 365.053 300.915C365.01 303.203 364.924 305.534 364.881 307.822C365.312 307.778 365.743 307.692 366.131 307.649C365.829 305.922 364.622 304.67 362.897 304.411C362.466 304.325 362.078 304.584 362.078 305.016C361.991 307.088 362.207 309.03 362.724 311.016C363.156 310.886 363.544 310.8 363.975 310.671C359.404 297.332 352.719 284.814 344.181 273.59C343.879 273.202 343.103 273.116 343.016 273.763C341.334 284.986 344.957 295.821 349.614 305.879C350.822 308.512 352.418 311.059 353.453 313.692C354.401 316.066 354.315 319.088 354.962 321.592C356.342 326.988 358.714 332.038 361.905 336.571C362.25 336.312 362.595 336.053 362.94 335.794C361.819 334.542 359.921 334.758 358.843 335.966C357.118 337.866 358.326 341.017 359.016 343.089C361.043 348.83 364.493 353.967 368.978 358.068C369.581 358.672 370.487 357.765 369.883 357.204Z" fill="#E8E8E8"/>
<path d="M246.071 340.715C243.958 339.117 242.061 337.261 240.508 335.103C239.904 334.283 239.344 333.376 238.826 332.513C238.567 331.995 238.266 331.52 238.05 331.002C237.834 330.57 235.98 325.563 238.524 326.685C239.085 326.944 239.732 326.426 239.43 325.779C238.869 324.743 234.082 317.318 236.584 316.714C237.015 316.628 237.144 316.11 236.972 315.764C233.004 308.555 230.201 300.829 228.519 292.756C228.39 293.015 228.217 293.274 228.088 293.533C231.495 292.929 233.177 298.282 234.298 300.656C235.678 303.591 237.058 306.527 238.481 309.419C241.327 315.419 244.131 321.376 246.977 327.376C247.322 328.067 248.314 327.549 248.141 326.858C247.839 325.477 247.882 324.268 248.271 322.887C247.926 322.973 247.537 323.059 247.192 323.189C249.392 324.959 251.16 326.988 252.626 329.448C252.928 329.966 253.618 329.793 253.791 329.275C255.171 328.93 256.076 329.232 256.551 330.225C256.766 330.614 256.982 331.045 257.197 331.434C257.715 332.383 258.189 333.333 258.707 334.24C259.699 336.139 260.691 337.995 261.682 339.894C262.071 340.628 263.192 339.981 262.804 339.247C261.812 337.348 260.82 335.491 259.828 333.592C258.966 331.952 258.189 329.923 256.939 328.498C255.645 327.031 253.359 326.858 252.54 328.887C252.928 328.844 253.316 328.801 253.704 328.714C252.195 326.211 250.341 324.052 248.055 322.196C247.667 321.894 247.106 321.98 246.977 322.498C246.546 324.095 246.502 325.563 246.847 327.16C247.236 326.988 247.624 326.815 248.012 326.642C244.605 319.39 241.155 312.095 237.705 304.843C236.152 301.606 234.859 297.936 232.832 294.958C231.581 293.145 229.986 291.764 227.657 292.195C227.312 292.238 227.139 292.67 227.226 292.972C228.907 301.131 231.797 308.987 235.807 316.282C235.937 315.98 236.066 315.635 236.196 315.333C231.581 316.498 237.317 324.527 238.266 326.297C238.567 325.995 238.869 325.693 239.171 325.39C238.05 324.916 236.886 325.175 236.196 326.254C235.204 327.808 236.109 329.75 236.799 331.175C238.74 335.362 241.759 338.902 245.424 341.707C246.071 342.355 246.718 341.233 246.071 340.715Z" fill="#E8E8E8"/>
<path d="M70.7249 156.652C75.8567 150.781 83.9211 154.623 89.6567 157.17C94.918 159.501 100.955 161.357 106.217 157.99C111.219 154.753 114.022 149.141 120.189 147.76C127.607 146.076 134.679 149.832 140.717 153.674C141.407 154.105 142.054 152.983 141.364 152.551C135.499 148.839 128.9 145.386 121.742 146.163C118.809 146.508 116.092 147.544 113.764 149.357C111.435 151.17 109.537 153.544 107.295 155.487C100.481 161.357 93.1067 157.084 86.0774 154.192C80.8161 151.99 74.0024 150.911 69.7761 155.746C69.2586 156.393 70.1642 157.3 70.7249 156.652Z" fill="#E8E8E8"/>
<path d="M52.5693 236.683C55.2862 233.791 59.34 236.985 61.41 239.014C63.2212 240.784 65.2912 242.899 67.965 243.158C70.3368 243.417 72.2343 242.122 73.8731 240.525C76.2018 238.28 78.315 236.294 81.5493 235.388C84.7837 234.525 88.3631 234.74 91.4249 236.251C93.84 237.46 96.0393 239.791 98.9287 239.532C101.473 239.316 102.982 237.071 104.578 235.388C107.166 232.625 110.961 231.201 114.756 231.676C121.095 232.453 126.658 237.935 133.299 235.949C134.076 235.733 133.774 234.481 132.954 234.697C126.615 236.553 121.052 231.114 114.928 230.381C112.082 230.035 109.149 230.64 106.691 232.064C105.484 232.755 104.406 233.661 103.457 234.697C102.336 235.906 101.257 237.546 99.6618 238.107C96.5137 239.187 93.0637 235.345 90.2174 234.395C87.63 233.532 84.8268 233.402 82.1531 233.963C79.5656 234.481 77.1937 235.69 75.21 237.417C72.4931 239.877 69.9918 243.417 65.9381 241.086C62.1862 238.971 56.4937 230.553 51.6637 235.776C51.06 236.381 51.9656 237.33 52.5693 236.683Z" fill="#E8E8E8"/>
<path d="M100.869 225.287C103.241 223.388 106.001 221.316 109.106 221.057C111.952 220.841 114.238 222.395 116.437 223.992C119.456 226.151 123.682 228.784 127.305 226.28C128.426 225.503 129.245 224.122 130.582 223.733C132.48 223.172 134.334 224.51 135.757 225.546C137.353 226.755 138.905 228.093 140.932 228.438C143.477 228.87 146.237 227.834 148.738 227.273C151.8 226.582 154.862 225.892 157.924 225.201C158.743 225.028 158.398 223.776 157.579 223.949C154.387 224.683 151.153 225.417 147.962 226.151C144.641 226.884 141.536 228.007 138.474 225.935C136.404 224.553 134.55 222.568 131.919 222.352C129.892 222.179 128.771 223.258 127.391 224.51C122.345 229.043 117.257 221.834 112.642 220.237C107.942 218.553 103.5 221.489 99.9636 224.338C99.3167 224.899 100.222 225.805 100.869 225.287Z" fill="#E8E8E8"/>
<path d="M577.961 191.617C579.126 187.862 583.697 189.027 586.198 190.409C588.57 191.704 590.813 193.517 593.616 193.819C595.945 194.078 597.842 193.042 599.826 191.919C602.888 190.15 606.295 189.416 609.745 190.495C611.987 191.185 613.885 193.042 616.3 193.214C618.628 193.43 620.353 191.876 622.208 190.711C627.081 187.646 632.342 191.919 637.56 190.624C638.38 190.409 638.035 189.157 637.215 189.373C631.825 190.711 626.779 186.308 621.561 189.588C620.397 190.322 619.275 191.315 617.938 191.747C615.912 192.394 614.23 191.142 612.505 190.236C610.133 189.027 607.588 188.423 604.915 188.725C602.111 189.027 600.085 190.408 597.627 191.66C593.53 193.732 590.382 191.186 586.888 189.286C583.568 187.473 578.177 186.696 576.754 191.272C576.495 192.049 577.746 192.394 577.961 191.617Z" fill="#E8E8E8"/>
<path d="M599.739 186.221C601.68 184.408 603.793 182.465 606.337 181.602C608.709 180.782 611.081 181.257 613.367 182.077C616.989 183.415 620.569 185.746 624.622 185.142C628.331 184.581 632.126 180.523 635.964 181.602C637.948 182.163 639.155 183.76 641.355 183.976C643.64 184.192 645.883 183.458 647.996 182.724C648.772 182.465 648.427 181.214 647.651 181.473C644.934 182.422 641.872 183.501 639.155 181.947C637.517 180.998 636.266 180.005 634.239 180.221C629.797 180.652 626.563 184.624 621.819 183.89C617.722 183.242 614.272 180.393 610.089 179.962C605.518 179.487 601.982 182.465 598.834 185.358C598.23 185.876 599.135 186.782 599.739 186.221Z" fill="#E8E8E8"/>
<path d="M181.082 54.4767C182.031 51.0233 186.516 51.5845 189.06 52.6637C191.604 53.786 194.019 55.4263 196.909 55.4695C202.343 55.599 206.569 49.9442 212.003 50.8938C214.547 51.3255 216.617 53.2248 219.204 53.527C222.094 53.8723 223.776 51.7572 225.975 50.2895C228.563 48.5628 231.797 47.9153 234.902 48.2607C236.498 48.4333 238.05 48.9082 239.43 49.642C240.724 50.2895 241.802 51.3255 243.139 51.9298C245.769 53.0953 247.494 51.4982 249.608 50.1168C253.748 47.4405 258.233 50.8938 261.338 53.6133C261.941 54.1745 262.89 53.268 262.243 52.7068C259.914 50.6348 257.241 48.5197 254.093 47.9585C250.988 47.3973 249.349 49.0377 246.848 50.4622C244.605 51.7572 243.009 50.3327 241.155 49.1672C239.948 48.3902 238.654 47.829 237.274 47.4405C234.643 46.7067 231.797 46.7067 229.166 47.4405C227.786 47.829 226.493 48.3902 225.285 49.1672C223.819 50.1168 222.525 51.714 220.757 52.1457C217.609 52.9227 214.676 49.8147 211.571 49.5125C205.318 48.9513 200.747 55.858 194.364 53.6565C191.216 52.5773 188.456 50.2463 184.92 50.4622C182.591 50.5917 180.435 51.714 179.831 54.0882C179.616 54.9515 180.823 55.2968 181.082 54.4767Z" fill="#E8E8E8"/>
<path d="M241.284 42.0012C243.527 40.0587 246.502 39.2817 249.392 39.9292C251.893 40.4904 253.359 42.3034 255.515 43.4689C258.922 45.2819 261.812 43.0372 264.572 41.1379C266.599 39.7566 268.625 38.7206 270.997 39.8429C272.938 40.7494 274.49 41.9149 276.733 41.8286C281.692 41.6559 286.954 35.4831 291.827 38.8932C292.517 39.3681 293.164 38.2457 292.474 37.7709C287.859 34.5334 283.029 38.9364 278.63 40.1882C276.69 40.7494 275.137 40.5336 273.326 39.6271C272.248 39.0659 271.299 38.4184 270.092 38.1594C268.367 37.7709 266.728 38.3321 265.219 39.1954C263.407 40.2314 261.812 41.8286 259.828 42.5624C256.68 43.7279 254.869 41.0516 252.454 39.7134C248.572 37.5119 243.699 38.2457 240.422 41.0947C239.732 41.6127 240.637 42.5192 241.284 42.0012Z" fill="#E8E8E8"/>
<path d="M312.484 191.79C316.223 191.79 319.254 188.755 319.254 185.013C319.254 181.27 316.223 178.235 312.484 178.235C308.744 178.235 305.713 181.27 305.713 185.013C305.713 188.755 308.744 191.79 312.484 191.79Z" stroke="#E8E8E8" stroke-miterlimit="10"/>
<path d="M98.1093 305.922C101.158 305.922 103.629 303.448 103.629 300.397C103.629 297.345 101.158 294.872 98.1093 294.872C95.0607 294.872 92.5893 297.345 92.5893 300.397C92.5893 303.448 95.0607 305.922 98.1093 305.922Z" stroke="#E8E8E8" stroke-miterlimit="10"/>
<path d="M418.571 35.6127C421.12 35.6127 423.186 33.5447 423.186 30.9938C423.186 28.4429 421.12 26.375 418.571 26.375C416.023 26.375 413.957 28.4429 413.957 30.9938C413.957 33.5447 416.023 35.6127 418.571 35.6127Z" stroke="#E8E8E8" stroke-miterlimit="10"/>
<path d="M197.383 98.7653C198.86 98.7653 200.057 97.567 200.057 96.0889C200.057 94.6108 198.86 93.4126 197.383 93.4126C195.906 93.4126 194.709 94.6108 194.709 96.0889C194.709 97.567 195.906 98.7653 197.383 98.7653Z" fill="#5B399B"/>
<path d="M312.829 263.144C316.068 263.144 318.694 260.516 318.694 257.273C318.694 254.031 316.068 251.403 312.829 251.403C309.59 251.403 306.964 254.031 306.964 257.273C306.964 260.516 309.59 263.144 312.829 263.144Z" fill="#2CA58D"/>
<path d="M569.422 73.9879C571.923 73.9879 573.951 71.9586 573.951 69.4554C573.951 66.9521 571.923 64.9229 569.422 64.9229C566.922 64.9229 564.894 66.9521 564.894 69.4554C564.894 71.9586 566.922 73.9879 569.422 73.9879Z" fill="#2CA58D"/>
<path d="M109.279 300.052C111.279 300.052 112.901 298.428 112.901 296.426C112.901 294.423 111.279 292.8 109.279 292.8C107.278 292.8 105.656 294.423 105.656 296.426C105.656 298.428 107.278 300.052 109.279 300.052Z" fill="#FFBD00"/>
<path d="M412.792 240.611C413.864 240.611 414.733 239.741 414.733 238.669C414.733 237.596 413.864 236.726 412.792 236.726C411.721 236.726 410.852 237.596 410.852 238.669C410.852 239.741 411.721 240.611 412.792 240.611Z" fill="#5B399B"/>
<path d="M347.76 148.234C350.285 148.234 352.331 146.186 352.331 143.659C352.331 141.132 350.285 139.083 347.76 139.083C345.236 139.083 343.189 141.132 343.189 143.659C343.189 146.186 345.236 148.234 347.76 148.234Z" fill="#FFBD00"/>
<path d="M374.886 61.9446C376.839 61.9446 378.422 60.3598 378.422 58.4049C378.422 56.45 376.839 54.8652 374.886 54.8652C372.933 54.8652 371.349 56.45 371.349 58.4049C371.349 60.3598 372.933 61.9446 374.886 61.9446Z" fill="#2CA58D"/>
<path d="M366.304 106.493C367.511 105.198 369.236 104.852 370.789 105.716C371.608 106.147 372.255 106.838 373.161 107.14C374.541 107.615 375.877 107.097 377.128 106.449C379.543 105.198 381.139 103.989 383.812 105.5C385.236 106.32 386.702 107.14 388.384 106.536C390.626 105.716 391.834 103.903 394.421 103.687C395.887 103.557 397.354 103.859 398.647 104.55C399.467 104.982 400.2 105.629 401.106 105.888C402.615 106.363 403.607 105.716 404.771 104.809C407.229 102.91 410.205 102.564 412.922 104.162C413.655 104.593 414.302 103.471 413.569 103.039C411.801 102.003 409.86 101.572 407.833 101.917C406.798 102.09 405.763 102.478 404.857 103.082C403.521 103.946 402.787 105.241 400.804 104.377C398.777 103.471 397.354 102.392 395.025 102.392C392.567 102.392 390.928 103.428 388.944 104.723C386.055 106.579 384.502 103.644 381.786 103.385C379.974 103.212 378.465 104.248 376.956 105.111C375.489 105.931 374.239 106.363 372.686 105.5C371.781 104.982 371.047 104.291 370.012 104.075C368.287 103.73 366.606 104.377 365.398 105.629C364.794 106.147 365.7 107.097 366.304 106.493Z" fill="#7C61AF"/>
<path d="M389.678 99.0246C391.23 97.8591 393.128 97.2979 395.068 97.7727C396.362 98.0749 397.268 98.9814 398.518 99.4562C400.674 100.233 402.227 98.8951 403.995 97.8159C405.849 96.6936 406.884 96.9094 408.739 97.9022C409.817 98.5066 410.766 98.8087 412.059 98.7224C414.474 98.5497 419.175 95.4849 420.684 98.8519C421.029 99.6289 422.151 98.9382 421.806 98.2044C420.857 96.1324 418.399 95.7871 416.372 96.2187C413.871 96.7799 411.973 98.1181 409.386 96.7799C408.135 96.1324 407.143 95.3554 405.677 95.6576C404.469 95.8734 403.478 96.6504 402.486 97.2979C401.796 97.7296 401.063 98.3339 400.243 98.3771C399.036 98.4634 398.13 97.6432 397.095 97.1252C394.508 95.8302 391.403 96.2187 389.117 97.9022C388.384 98.4202 389.031 99.5426 389.678 99.0246Z" fill="#ED6A5A"/>
<path d="M95.4788 128.421C98.2819 126.651 101.473 127.428 104.276 128.853C106.303 129.889 108.158 131.875 110.357 132.436C114.885 133.601 115.575 127.04 119.284 125.918C123.596 124.623 126.658 130.277 130.712 127.256C132.998 125.572 134.852 124.536 137.784 124.709C140.501 124.882 143.089 125.788 145.59 126.738C146.366 127.04 146.711 125.788 145.935 125.486C141.838 123.932 136.836 122.292 132.609 124.32C131.531 124.838 130.798 125.615 129.849 126.263C128.081 127.472 126.874 126.781 125.192 125.831C123.381 124.795 121.613 124.105 119.499 124.536C117.602 124.925 116.093 126.047 115.014 127.601C114.368 128.508 113.893 129.673 113.074 130.493C111.263 132.177 109.451 130.623 107.899 129.544C104.104 126.954 99.1013 124.579 94.7457 127.299C94.1419 127.774 94.7888 128.896 95.4788 128.421Z" fill="#FFBD00"/>
<path d="M102.767 425.666C105.786 429.465 110.788 435.336 117.645 441.681C133.817 456.746 155.164 469.74 238.481 495.381C245.899 497.668 256.076 500.733 268.281 504.273C275.957 498.661 287.989 490.157 303.298 480.747C327.578 465.811 337.971 462.056 351.598 453.164C365.01 444.401 383.252 429.508 400.804 403.349C371.867 397.176 340.558 388.845 307.568 377.579C291.525 372.097 276.259 366.312 261.812 360.398C208.811 382.154 155.811 403.91 102.767 425.666Z" fill="white" stroke="#212121" stroke-width="2" stroke-miterlimit="10"/>
<path d="M238.223 442.674C240.595 438.487 244.131 435.336 248.53 433.35C249.306 433.005 248.616 431.882 247.883 432.228C243.311 434.257 239.603 437.624 237.101 441.983C236.67 442.76 237.791 443.408 238.223 442.674Z" fill="#212121"/>
<path d="M237.533 443.063C238.999 444.746 241.242 444.142 242.708 442.804C243.958 441.682 244.907 440.214 246.028 439.005C247.365 437.581 248.832 436.286 250.384 435.034C251.031 434.516 250.125 433.609 249.478 434.127C247.753 435.509 246.115 436.976 244.648 438.617C243.355 440.041 240.595 444.487 238.482 442.113C237.878 441.509 236.972 442.459 237.533 443.063Z" fill="#212121"/>
<path d="M248.357 433.264C248.875 433.695 249.435 434.17 249.953 434.602C250.211 434.818 250.6 434.861 250.858 434.602C251.074 434.386 251.117 433.911 250.858 433.695C250.341 433.264 249.78 432.789 249.263 432.357C249.004 432.141 248.616 432.098 248.357 432.357C248.141 432.573 248.098 433.048 248.357 433.264Z" fill="#212121"/>
<path d="M239.128 438.487C238.395 437.753 238.395 437.106 239.128 436.588C239.473 436.242 239.861 435.94 240.25 435.681C240.767 435.293 241.285 434.904 241.759 434.516C242.535 433.955 245.036 431.624 245.64 433.393C245.899 434.17 247.15 433.825 246.891 433.048C245.64 429.465 241.673 433.005 240.077 434.214C238.956 435.077 237.274 436.027 237.145 437.624C237.058 438.703 237.705 439.609 238.74 439.825C239.603 439.868 239.948 438.617 239.128 438.487Z" fill="#212121"/>
<path d="M241.845 443.71C244.691 446.343 245.899 450.055 248.184 453.077C250.039 455.538 252.54 457.48 255.386 458.689C261.726 461.408 268.971 459.984 274.103 455.408C274.706 454.847 273.801 453.94 273.197 454.502C267.936 459.164 260.303 460.156 254.179 456.617C251.376 455.02 249.349 452.689 247.71 449.883C246.244 447.336 244.993 444.746 242.794 442.76C242.147 442.242 241.241 443.149 241.845 443.71Z" fill="#212121"/>
<path d="M249.823 436.069C252.972 436.156 256.12 436.242 259.268 436.328C262.588 436.415 265.823 436.717 268.669 438.616C273.671 441.983 277.596 449.106 273.197 454.545C272.68 455.192 273.585 456.099 274.103 455.451C278.286 450.314 276.087 443.494 271.645 439.307C265.737 433.825 257.327 434.947 249.867 434.774C248.961 434.774 249.004 436.069 249.823 436.069Z" fill="#212121"/>
<path d="M245.554 439.264C248.487 440.818 251.376 442.458 254.136 444.271C257.111 446.214 258.06 449.797 259.44 452.905C259.785 453.682 260.907 452.991 260.562 452.257C259.354 449.581 258.448 445.912 256.033 444.012C253.101 441.681 249.522 439.868 246.201 438.142C245.468 437.753 244.821 438.875 245.554 439.264Z" fill="#212121"/>
<path d="M256.421 445.005C259.397 444.703 262.373 444.401 265.348 444.098C266.168 444.012 266.168 442.717 265.348 442.803C262.373 443.106 259.397 443.408 256.421 443.71C255.602 443.796 255.602 445.091 256.421 445.005Z" fill="#212121"/>
<path d="M256.551 445.653C259.009 446.387 261.381 447.379 263.623 448.588C264.356 448.977 265.003 447.854 264.27 447.466C261.941 446.171 259.483 445.135 256.896 444.401C256.119 444.185 255.774 445.437 256.551 445.653Z" fill="#212121"/>
<path d="M176.64 430.674C179.918 432.746 184.877 435.465 191.346 437.192C197.771 438.919 212.261 442.761 222.87 434.429C231.193 427.911 232.875 417.163 232.444 416.947C232.099 416.774 230.374 423.81 224.207 427.566C218.299 431.192 212.305 429.293 203.68 428.602C197.254 428.084 188.068 428.084 176.64 430.674Z" fill="#ED6A5A"/>
<path d="M329.906 423.551C333.615 420.789 337.281 418.026 340.989 415.22C341.636 414.745 340.989 413.58 340.343 414.098C336.634 416.86 332.968 419.623 329.259 422.429C328.569 422.904 329.216 424.026 329.906 423.551Z" fill="#212121"/>
<path d="M332.278 433.437C342.628 424.933 353.021 416.386 363.371 407.882C364.018 407.364 363.113 406.457 362.466 406.975C352.116 415.479 341.723 424.026 331.373 432.53C330.726 433.048 331.674 433.955 332.278 433.437Z" fill="#212121"/>
<path d="M353.668 426.228C356.773 422.904 360.094 419.882 363.716 417.119C364.363 416.601 363.716 415.479 363.07 415.997C359.361 418.803 355.954 421.911 352.763 425.321C352.159 425.925 353.065 426.832 353.668 426.228Z" fill="#212121"/>
<path d="M269.273 410.86C282.038 403.349 294.371 395.148 306.145 386.255C306.791 385.78 306.145 384.615 305.498 385.133C293.681 394.025 281.348 402.27 268.626 409.738C267.893 410.17 268.54 411.292 269.273 410.86Z" fill="#212121"/>
<path d="M263.494 407.062C268.669 404.299 273.413 400.803 277.553 396.616C278.156 396.011 277.208 395.105 276.647 395.709C272.55 399.81 267.936 403.22 262.847 405.94C262.114 406.328 262.761 407.45 263.494 407.062Z" fill="#212121"/>
<path d="M249.09 401.536C257.715 394.673 266.556 388.068 275.569 381.723C276.259 381.248 275.612 380.126 274.922 380.601C265.823 386.989 256.896 393.68 248.184 400.63C247.494 401.148 248.443 402.054 249.09 401.536Z" fill="#212121"/>
<path d="M173.233 298.454C160.942 301.951 150.377 306.051 141.752 309.893C130.927 314.728 115.187 321.85 98.2386 335.664C91.3386 341.275 86.2068 347.362 75.9861 359.492C72.148 364.024 68.2236 368.945 67.8786 375.895C67.7924 377.751 67.5336 383.19 70.9836 387.248C76.7624 394.025 88.6218 391.91 94.4436 390.917C100.611 389.838 105.009 387.809 106.864 386.989C132.782 375.248 128.297 379.478 149.946 368.773C166.937 360.398 175.432 356.168 179.788 351.851C183.842 347.794 200.402 331.304 194.623 315.375C190.267 303.548 176.252 299.317 173.233 298.454Z" fill="white"/>
<path opacity="0.22" d="M184.316 302.642C181.815 305.534 177.675 310.066 172.069 315.117C144.426 339.981 122.992 339.29 102.637 358.672C96.2118 364.758 87.7161 374.989 81.3768 391.91C84.3524 391.953 88.9668 391.824 94.4868 390.917C105.958 389.018 113.936 384.874 118.292 382.673C148.522 367.478 155.466 370.068 173.966 356.255C182.462 349.909 186.774 346.628 189.577 340.24C196.391 324.657 187.076 307.433 184.316 302.642Z" fill="#969696"/>
<path d="M173.061 297.85C156.069 303.591 138.992 309.375 123.165 317.922C108.675 325.736 95.5649 335.923 84.5249 348.139C79.0912 354.139 73.4849 360.701 69.9056 368.039C66.9731 373.996 64.9031 382.629 70.5524 387.68C76.2881 392.817 84.9131 393.292 92.1581 392.083C101.171 390.529 109.969 386.687 118.464 383.363C137.655 375.809 156.328 366.96 174.311 356.859C175.044 356.47 174.397 355.348 173.664 355.736C158.614 364.154 143.089 371.751 127.132 378.442C119.154 381.809 111.047 384.96 102.853 387.809C94.7887 390.615 85.9049 392.946 77.4956 390.14C56.8387 383.277 76.2449 359.406 84.4387 350.168C94.8318 338.47 107.079 328.541 120.664 320.815C137.267 311.404 155.379 305.231 173.406 299.145C174.182 298.843 173.837 297.591 173.061 297.85Z" fill="#212121"/>
<path d="M196.046 363.765C197.254 362.6 199.151 360.916 201.782 359.362C205.62 357.074 207.604 357.031 215.194 354.441C221.706 352.196 224.422 350.772 226.751 349.218C228.692 347.923 232.357 345.462 231.883 344.081C231.322 342.441 225.069 343.218 218.169 344.081C212.434 344.772 212.218 345.203 207.259 345.721C199.927 346.455 199.41 345.592 196.736 346.671C192.079 348.527 186.645 353.837 188.111 358.412C189.405 362.47 195.486 363.636 196.046 363.765Z" fill="#212121"/>
<path d="M179.788 300.267C176.295 302.08 173.319 304.282 173.319 304.282C167.972 308.21 164.479 312.483 162.409 315.375C162.711 317.145 162.969 318.958 163.271 320.728C152.921 325.735 144.641 330.311 138.992 333.549C123.337 342.527 114.238 349.693 96.0393 364.024C90.1311 368.643 83.6624 373.953 81.4199 382.715C80.8593 384.96 79.5655 390.183 81.9374 395.838C84.6543 402.356 90.3468 405.162 92.0718 405.939C95.8237 407.623 99.403 407.752 105.139 407.191C117.688 405.982 127.305 402.702 130.927 401.45C143.692 396.917 152.964 392.342 155.207 391.219C165.643 385.996 179.831 378.14 196.132 366.701C196.219 366.226 196.736 363.506 194.968 361.089C193.459 359.017 190.828 357.938 188.197 358.326C190.957 356.945 194.796 354.743 198.763 351.29C206.181 344.815 209.717 337.779 211.959 333.203C213.253 330.57 216.876 322.714 218.299 311.706C219.161 304.886 218.902 299.145 218.428 295.001C216.832 294.958 192.553 293.663 179.788 300.267Z" fill="white"/>
<path opacity="0.21" d="M209.113 303.246C204.456 315.116 198.806 323.016 195.184 327.462C173.319 354.441 141.752 359.967 105.052 390.788C100.783 394.37 96.4275 398.299 97.3331 400.068C99.4462 404.256 129.936 392.946 146.108 386.169C167.541 377.19 184.101 367.607 194.925 360.744C193.071 359.535 191.173 358.326 189.319 357.161C192.251 355.779 196.434 353.448 200.574 349.607C206.051 344.556 208.725 339.506 211.226 334.585C214.159 328.843 218.213 320.814 218.428 309.893C218.514 305.318 217.911 301.562 217.393 299.102C214.676 300.44 211.916 301.821 209.113 303.246Z" fill="#9E9E9E"/>
<path d="M218.428 300.008C218.256 319.735 211.658 339.808 196.133 352.758C188.111 359.406 178.02 362.902 168.576 366.96C158.355 371.363 148.135 375.723 137.914 380.126C126.4 385.09 114.842 390.011 103.328 394.975C102.551 395.32 103.241 396.399 103.975 396.097C125.192 386.989 146.41 377.881 167.627 368.773C177.287 364.629 187.637 361.132 195.96 354.571C202.99 349.002 208.596 341.707 212.477 333.635C217.48 323.189 219.636 311.62 219.722 300.051C219.722 299.188 218.428 299.188 218.428 300.008Z" fill="#212121"/>
<path d="M161.762 315.419C161.762 317.361 162.021 319.131 162.624 320.944C162.711 320.685 162.84 320.469 162.926 320.21C147.574 327.764 132.48 335.966 118.335 345.679C111.521 350.341 104.923 355.391 98.67 360.787C92.805 365.881 86.4225 371.363 82.6275 378.27C79.4363 384.054 78.7032 390.702 81.5494 396.788C84.4819 403.09 90.3469 407.105 97.1606 407.925C105.268 408.918 113.979 406.846 121.785 404.86C129.763 402.831 137.526 400.026 145.073 396.702C162.84 388.975 179.271 378.572 195.572 368.255C196.262 367.823 195.615 366.701 194.925 367.133C168.274 384.054 140.372 401.666 108.503 406.198C100.395 407.364 91.6406 407.364 85.7325 400.846C80.5144 395.061 79.695 387.076 83.0588 380.126C86.3363 373.392 92.3306 368.125 97.8506 363.204C103.931 357.765 110.4 352.758 117.084 348.096C131.747 337.822 147.488 329.232 163.53 321.333C163.789 321.203 163.918 320.858 163.832 320.599C163.271 318.872 163.013 317.189 163.013 315.419C163.056 314.599 161.762 314.599 161.762 315.419Z" fill="#212121"/>
<path d="M189.448 358.715C193.631 358.801 196.478 362.557 195.443 366.571C195.227 367.391 196.478 367.737 196.693 366.917C197.944 362.039 194.494 357.506 189.448 357.42C188.629 357.42 188.629 358.715 189.448 358.715Z" fill="#212121"/>
<path d="M196.909 363.592C199.453 361.736 201.653 359.966 204.671 358.974C207.69 357.981 210.709 356.902 213.684 355.693C219.42 353.405 225.069 350.815 230.546 347.966C231.279 347.578 230.633 346.455 229.899 346.844C224.034 349.909 218.04 352.671 211.873 355.045C208.898 356.168 205.879 357.117 202.903 358.197C200.402 359.103 198.375 360.916 196.262 362.47C195.615 362.945 196.262 364.067 196.909 363.592Z" fill="#212121"/>
<path d="M204.413 345.981C209.07 346.801 213.555 345.808 218.083 344.729C220.671 344.125 223.258 343.477 225.889 343.261C227.096 343.175 228.563 342.959 229.727 343.261C232.875 344.081 230.46 346.628 228.864 347.707C228.174 348.182 228.821 349.305 229.511 348.83C231.236 347.664 233.479 345.765 232.314 343.391C231.323 341.405 228.045 341.794 226.234 341.923C218.989 342.441 212.089 346.024 204.758 344.729C203.938 344.599 203.593 345.851 204.413 345.981Z" fill="#212121"/>
<path d="M235.807 205.948C234.772 206.984 233.306 208.625 232.012 210.912C230.158 214.15 229.037 218.121 229.727 231.33C230.244 241.086 231.409 248.77 232.314 254.036C233.091 258.439 233.867 262.022 234.427 264.525C239.559 286.972 249.219 313.606 252.799 323.275C255.472 330.527 259.181 340.326 263.882 351.938C261.812 353.751 259.009 356.557 256.594 360.658C255.3 362.816 253.402 366.053 254.222 366.917C254.912 367.607 257.542 366.874 266.34 360.614C271.386 362.6 275.267 364.629 277.897 366.183C281.692 368.384 284.927 370.672 290.016 371.363C291.439 371.579 292.646 371.579 293.466 371.579C292.689 370.025 291.309 367.651 288.894 365.363C286.005 362.643 282.727 361.607 282.814 361.391C282.9 361.219 285.574 362.427 289.196 363.55C292.387 364.543 295.881 364.758 302.91 365.19C303.902 365.233 305.368 365.32 306.015 364.456C306.748 363.42 305.929 361.65 305.627 360.917C303.471 356.255 295.622 353.362 292.776 352.37C293.897 352.888 296.743 353.924 300.366 353.362C303.686 352.844 305.972 351.247 306.921 350.427C305.023 350.039 303.039 349.65 301.012 349.348C290.921 347.751 281.606 347.578 273.326 348.182C272.076 344.988 270.307 339.851 268.884 333.333C267.332 326.34 267.677 324.527 265.952 314.21C264.572 305.922 263.709 301.044 261.596 294.915C259.612 289.26 257.37 284.857 255.645 281.878C249.349 253.863 246.891 241.043 245.985 234.827C245.338 230.337 244.519 227.186 242.923 220.841C242.233 218.121 241.5 215.488 239.904 212.294C238.524 209.488 236.972 207.373 235.807 205.948Z" fill="white"/>
<path opacity="0.11" d="M235.808 205.948C237.274 206.034 237.619 213.847 238.524 223.733C238.524 223.733 239.775 237.416 245.813 270.568C252.152 305.49 265.693 342.139 270.48 354.657C277.768 360.269 285.099 365.924 292.388 371.535C290.576 371.578 287.687 371.492 284.409 370.413C281.348 369.42 279.709 368.125 275.051 365.406C273.24 364.326 270.437 362.772 266.901 360.959C259.44 365.967 255.214 367.952 254.222 366.916C253.101 365.708 256.378 360.398 264.098 351.031C262.804 348.268 261.036 344.34 259.009 339.592C255.473 331.39 246.848 310.498 237.403 275.619C229.641 246.956 229.425 238.582 229.77 232.021C230.46 219.416 233.824 205.775 235.808 205.948Z" fill="#686868"/>
<path d="M235.333 206.38C237.834 208.409 239.085 211.387 240.206 214.322C241.327 217.301 242.19 220.366 242.966 223.474C244.562 230.035 245.769 236.683 247.149 243.287C249.909 256.755 252.669 270.18 255.429 283.648C255.602 284.468 256.852 284.123 256.68 283.303C253.79 269.317 250.901 255.288 248.055 241.302C246.675 234.611 245.467 227.834 243.742 221.229C242.362 215.963 240.767 209.056 236.282 205.516C235.635 204.955 234.686 205.862 235.333 206.38Z" fill="#212121"/>
<path d="M231.538 255.504C239.43 288.31 250.082 320.383 263.364 351.42C263.709 352.197 264.787 351.506 264.485 350.772C251.246 319.865 240.637 287.879 232.789 255.158C232.573 254.381 231.365 254.727 231.538 255.504Z" fill="#212121"/>
<path d="M255.688 282.958C266.987 302.771 265.132 326.642 272.119 347.88C272.377 348.657 273.628 348.312 273.369 347.535C266.34 326.167 268.194 302.253 256.809 282.31C256.378 281.576 255.257 282.224 255.688 282.958Z" fill="#212121"/>
<path d="M263.451 351.463C260.993 354.398 258.405 357.29 256.033 360.355C254.826 361.909 252.928 364.24 253.359 366.399C253.791 368.427 255.386 367.866 256.68 367.089C260.001 365.147 263.321 363.118 266.642 361.132C267.375 360.701 266.728 359.578 265.995 360.01C263.968 361.219 261.941 362.427 259.957 363.636C258.879 364.283 257.801 364.888 256.766 365.535C256.551 365.665 255.559 366.442 255.343 366.399C255.127 366.01 254.912 365.578 254.739 365.19C254.912 364.715 255.127 364.24 255.343 363.765C256.378 361.78 257.974 360.096 259.397 358.37C261.079 356.384 262.717 354.398 264.399 352.413C264.917 351.722 263.968 350.815 263.451 351.463Z" fill="#212121"/>
<path d="M273.111 348.527C278.846 348.7 284.582 348.916 290.274 349.218C293.077 349.391 295.837 349.563 298.641 349.736C301.401 349.952 304.161 350.038 306.791 351.031C307.567 351.333 307.912 350.081 307.136 349.779C304.807 348.873 302.392 348.7 299.934 348.527C297.002 348.312 294.069 348.139 291.137 347.966C285.142 347.621 279.148 347.362 273.111 347.232C272.291 347.232 272.291 348.527 273.111 348.527Z" fill="#212121"/>
<path d="M266.728 361.564C276.086 364.154 283.331 372.485 293.509 372.183C293.94 372.183 294.242 371.794 294.112 371.363C292.689 365.794 286.824 363.808 283.245 359.923C282.684 359.319 281.779 360.226 282.339 360.83C285.746 364.499 291.525 366.442 292.862 371.708C293.077 371.449 293.293 371.147 293.466 370.888C283.504 371.19 276.216 362.859 267.03 360.312C266.254 360.096 265.909 361.348 266.728 361.564Z" fill="#212121"/>
<path d="M282.641 361.132C287.213 363.032 291.999 364.456 296.873 365.276C298.986 365.622 301.185 365.924 303.341 365.751C304.592 365.665 306.188 365.535 306.921 364.327C308.559 361.607 304.635 358.974 302.91 357.636C299.331 354.916 295.32 352.887 291.051 351.549C290.274 351.29 289.929 352.542 290.706 352.801C293.94 353.837 297.002 355.218 299.848 357.075C301.228 357.981 302.565 358.974 303.859 360.053C304.419 360.571 305.196 361.132 305.584 361.823C306.662 363.722 304.894 364.37 303.384 364.456C296.657 365.017 289.153 362.384 282.986 359.837C282.21 359.578 281.908 360.83 282.641 361.132Z" fill="#212121"/>
<path d="M290.835 352.974C295.794 353.578 302.91 355.78 306.877 351.636C307.438 351.031 306.532 350.125 305.972 350.729C303.988 352.801 301.271 352.844 298.597 352.585C296.01 352.326 293.422 351.981 290.835 351.679C290.016 351.592 290.016 352.887 290.835 352.974Z" fill="#212121"/>
<path d="M285.444 356.643C288.42 358.154 291.654 358.887 294.889 359.708C298.684 360.657 302.177 361.952 305.368 364.197C306.058 364.672 306.705 363.549 306.015 363.075C303.126 361.046 300.021 359.708 296.614 358.801C293.034 357.851 289.412 357.204 286.091 355.52C285.358 355.132 284.711 356.254 285.444 356.643Z" fill="#212121"/>
<path d="M181.815 203.66C192.683 199.646 201.868 198.826 207.906 198.783C218.256 198.653 230.072 198.524 236.153 206.121C238.481 209.056 239.171 214.15 240.508 224.337C241.888 234.74 242.535 239.92 241.069 246.093C239.301 253.475 237.015 252.352 232.099 263.489C228.476 271.691 228.908 274.195 224.207 287.447C222.137 293.274 220.283 297.893 219.032 300.785C216.444 301.649 213.641 302.383 210.623 302.944C194.796 305.922 181.039 302.426 172.284 299.145C175.476 267.331 178.667 235.517 181.815 203.66Z" fill="#ED6A5A"/>
<path d="M184.704 203.056C182.85 203.833 180.176 205.214 177.546 207.675C175.346 209.704 173.664 211.948 172.069 214.927C168.188 222.093 167.109 229.042 166.678 231.762C163.746 250.971 162.883 258.784 162.883 258.784C161.072 275.533 160.468 282.094 160.641 290.857C160.727 295.951 161.072 299.793 162.107 304.282C163.358 309.591 165.212 313.692 168.705 320.21C173.708 329.664 177.977 336.312 180.866 340.93C184.316 346.413 189.189 354.398 194.882 364.37C195.917 367.262 197.038 370.284 198.203 373.478C206.353 395.623 202.256 382.37 203.334 385.608C203.723 386.817 204.542 389.45 206.957 390.917C207.561 391.306 208.509 391.867 209.07 391.608C210.191 391.047 210.019 386.86 204.973 371.838C204.844 371.406 207.086 377.493 212.434 382.284C214.288 383.924 216.099 385.047 217.479 385.737C218.213 389.148 218.903 392.687 219.549 396.356C220.369 401.062 221.059 405.637 221.619 410.04C221.274 411.206 220.843 413.019 220.973 415.263C221.059 416.602 221.145 418.371 222.223 420.314C222.784 421.307 224.164 423.81 226.32 424.026C227.484 424.156 228.476 423.465 230.46 422.17C233.091 420.443 233.608 419.364 234.902 419.407C235.592 419.407 236.584 419.753 237.748 421.307C237.705 418.328 236.886 417.292 236.152 416.817C234.945 416.084 233.867 417.033 231.064 416.645C229.986 416.515 228.218 416.256 227.053 415.091C225.371 413.407 225.759 410.558 225.802 409.824C226.147 406.198 224.811 396.702 219.463 375.032C219.894 376.543 221.361 377.493 222.827 377.277C224.379 377.061 225.587 375.636 225.458 373.996C222.741 371.449 220.024 368.902 217.264 366.356C216.919 363.766 216.574 361.132 216.186 358.456C214.806 349.175 213.081 340.326 211.183 331.909C210.019 332.254 208.854 332.599 207.69 332.901C208.466 338.47 209.243 344.038 210.019 349.607C207.129 349.262 204.24 348.873 201.351 348.528C200.186 346.542 198.72 343.866 197.168 340.628C195.96 338.125 193.502 332.988 191.303 326.383C188.499 317.879 186.818 312.872 186.688 306.138C186.602 303.16 186.818 298.886 184.661 293.749C183.842 291.85 182.979 290.382 182.333 289.433C183.281 283.778 184.101 278.943 184.704 275.058C188.801 249.201 186.688 256.54 190.009 232.021C190.613 227.445 191.216 223.431 190.354 217.992C189.405 211.474 186.731 206.294 184.704 203.056Z" fill="white"/>
<path opacity="0.17" d="M181.815 203.66C180.133 207.113 177.891 212.25 175.95 218.725C172.414 230.596 171.983 240.266 171.81 247.086C171.034 275.705 170.603 290.037 173.363 302.728C180.478 335.577 197.987 357.679 205.059 366.442C211.011 373.78 216.617 379.392 220.757 383.277C220.196 384.14 219.075 385.564 217.479 385.737C215.668 385.91 214.202 384.27 212.434 382.284C210.321 379.867 207.647 376.629 204.628 372.701C205.793 375.766 207.302 380.039 208.466 385.392C209.717 391.09 209.243 391.522 209.07 391.608C207.949 392.126 204.154 386.126 202.343 382.931C199.928 378.744 196.995 372.615 194.925 364.327C189.146 354.226 184.23 346.197 180.909 340.887C171.293 325.433 167.972 321.419 164.781 312.095C163.703 308.857 161.331 301.26 160.641 291.288C160.382 287.274 160.511 284.943 162.193 267.374C163.875 249.892 164.436 244.884 165.514 238.021C167.627 224.553 169.136 220.495 171.077 216.826C174.441 210.524 178.753 206.25 181.815 203.66Z" fill="#8E8E8E"/>
<path d="M184.532 202.409C175.087 206.164 170.085 215.402 167.584 224.769C164.522 236.165 163.228 248.165 162.107 259.906C160.942 271.993 159.174 284.468 160.252 296.598C161.287 308.296 166.635 318.138 172.5 328.067C179.702 340.24 186.904 352.37 194.062 364.543C194.494 365.276 195.615 364.629 195.184 363.895C189.146 353.665 183.109 343.477 177.071 333.247C171.292 323.491 164.651 313.735 162.366 302.469C160.123 291.246 161.676 279.547 162.624 268.238C163.616 256.367 164.824 244.453 167.066 232.711C169.266 221.445 173.104 208.322 184.834 203.66C185.653 203.358 185.308 202.106 184.532 202.409Z" fill="#212121"/>
<path d="M184.704 204.222C193.071 215.056 189.707 230.467 188.154 242.942C186.214 258.612 184.273 274.238 182.332 289.907C182.246 290.728 183.54 290.728 183.626 289.907C185.653 273.418 187.723 256.885 189.75 240.395C191.259 228.136 193.761 213.848 185.61 203.315C185.092 202.668 184.187 203.574 184.704 204.222Z" fill="#212121"/>
<path d="M179.098 287.49C183.54 290.598 184.575 296.296 185.394 301.26C186.343 306.829 187.292 312.354 188.542 317.836C191.001 328.671 194.494 339.29 200.402 348.787C200.833 349.477 201.954 348.83 201.523 348.139C195.14 337.909 191.604 326.297 189.146 314.555C187.982 308.987 187.249 303.375 186.084 297.807C185.179 293.404 183.583 289.044 179.745 286.368C179.055 285.893 178.408 287.015 179.098 287.49Z" fill="#212121"/>
<path d="M201.566 349.564C204.283 349.564 206.957 349.607 209.544 350.47C210.321 350.729 210.666 349.477 209.889 349.218C207.172 348.312 204.369 348.269 201.566 348.269C200.747 348.269 200.747 349.564 201.566 349.564Z" fill="#212121"/>
<path d="M210.407 356.341C210.234 359.967 212.692 362.643 215.064 365.06C218.255 368.341 221.619 371.492 225.069 374.514C225.673 375.075 226.622 374.169 225.975 373.607C223.129 371.104 220.369 368.557 217.695 365.881C215.107 363.291 211.485 360.355 211.7 356.341C211.744 355.521 210.45 355.521 210.407 356.341Z" fill="#212121"/>
<path d="M194.278 364.499C195.96 369.291 197.642 374.082 199.669 378.744C200.704 381.075 201.782 383.406 202.989 385.651C204.067 387.637 205.189 390.14 206.784 391.737C207.474 392.428 208.423 392.903 209.329 392.212C210.407 391.349 210.062 389.665 209.803 388.5C208.768 383.061 207.172 377.708 205.275 372.485C204.973 371.708 203.722 372.053 204.024 372.83C205.404 376.543 206.569 380.341 207.517 384.183C207.776 385.219 207.992 386.255 208.251 387.291C208.423 388.025 209.242 390.227 208.725 390.831C207.819 391.824 205.189 386.86 204.887 386.298C200.876 379.305 198.202 371.665 195.529 364.111C195.27 363.377 194.019 363.722 194.278 364.499Z" fill="#212121"/>
<path d="M204.585 372.701C206.871 376.154 209.156 379.824 212.089 382.802C213.814 384.572 217.307 387.421 219.981 386.169C222.784 384.917 220.843 381.507 219.765 379.824C217.005 375.55 214.202 371.277 211.442 366.96C211.011 366.269 209.889 366.917 210.321 367.607C212.175 370.456 214.029 373.305 215.884 376.154C216.746 377.449 217.566 378.788 218.428 380.083C219.334 381.464 221.835 385.047 218.299 384.96C215.539 384.917 213.081 382.025 211.485 380.083C209.372 377.493 207.561 374.73 205.706 371.924C205.232 371.363 204.111 372.01 204.585 372.701Z" fill="#212121"/>
<path d="M210.407 367.348C213.167 371.104 216.574 374.557 220.541 377.018C221.835 377.838 223.56 378.529 224.94 377.493C225.932 376.716 226.147 375.593 225.63 374.514C225.242 373.78 224.12 374.428 224.509 375.162C223.775 376.586 222.956 376.975 222.05 376.327C221.749 376.198 221.49 376.068 221.231 375.895C220.714 375.593 220.239 375.248 219.765 374.903C218.687 374.126 217.609 373.262 216.617 372.313C214.719 370.586 213.037 368.687 211.528 366.658C211.01 366.01 209.889 366.658 210.407 367.348Z" fill="#212121"/>
<path d="M206.827 369.506C209.717 375.593 213.814 380.946 218.989 385.262C219.636 385.78 220.541 384.874 219.894 384.356C214.806 380.082 210.752 374.859 207.906 368.859C207.604 368.125 206.482 368.773 206.827 369.506Z" fill="#212121"/>
<path d="M207 334.197C208.25 342.01 209.501 349.78 210.752 357.593C210.881 358.413 212.132 358.068 212.002 357.248C210.752 349.434 209.501 341.664 208.25 333.851C208.121 333.031 206.87 333.42 207 334.197Z" fill="#212121"/>
<path d="M208.251 334.196C208.811 333.333 210.45 331.865 211.485 333.204C211.701 333.506 211.701 334.499 211.744 334.887C211.959 336.398 212.218 337.952 212.434 339.463C212.865 342.355 213.339 345.29 213.771 348.182C214.676 354.01 215.582 359.837 216.487 365.665C216.617 366.485 217.867 366.14 217.738 365.32C216.487 357.118 215.194 348.959 213.943 340.758C213.641 338.686 213.296 336.614 212.994 334.499C212.865 333.635 212.908 332.297 212.175 331.693C210.536 330.355 207.992 332.124 207.129 333.506C206.698 334.24 207.819 334.887 208.251 334.196Z" fill="#212121"/>
<path d="M219.247 376.111C221.576 387.982 223.517 399.896 225.112 411.896C225.242 412.717 226.536 412.717 226.406 411.896C224.811 399.81 222.827 387.766 220.455 375.766C220.326 374.946 219.075 375.291 219.247 376.111Z" fill="#212121"/>
<path d="M217.005 385.91C218.557 393.982 219.894 402.098 221.015 410.256C221.145 411.076 222.395 410.731 222.266 409.911C221.145 401.752 219.808 393.637 218.255 385.565C218.083 384.745 216.832 385.09 217.005 385.91Z" fill="#212121"/>
<path d="M221.188 410.256C221.921 412.069 223.689 413.278 225.673 413.062C226.492 412.975 226.492 411.68 225.673 411.767C224.336 411.939 222.956 411.249 222.439 409.911C222.137 409.134 220.886 409.479 221.188 410.256Z" fill="#212121"/>
<path d="M221.274 409.911C219.636 414.227 220.024 420.184 223.689 423.422C225.069 424.674 226.837 425.062 228.562 424.328C230.676 423.465 234.514 417.724 236.799 420.918C237.274 421.609 238.395 420.961 237.921 420.271C235.592 416.947 232.142 419.839 230.029 421.738C228.433 423.163 226.536 424.156 224.595 422.515C223.517 421.609 222.784 420.184 222.309 418.889C221.317 416.04 221.447 413.062 222.525 410.256C222.827 409.479 221.576 409.134 221.274 409.911Z" fill="#212121"/>
<path d="M225.544 411.853C225.889 414.055 227.096 416.342 229.252 417.206C232.012 418.285 238.352 415.781 237.187 421.134C237.015 421.954 238.266 422.299 238.438 421.479C238.956 419.191 238.093 416.774 235.635 416.213C233.867 415.781 232.099 416.601 230.331 416.213C228.174 415.695 227.139 413.58 226.794 411.551C226.622 410.688 225.414 411.076 225.544 411.853Z" fill="#212121"/>
<path d="M201.911 204.221C202.558 205.775 203.378 206.941 204.499 207.761C206.224 209.099 208.208 209.358 209.544 209.358C210.968 207.718 212.391 206.077 213.814 204.437C214.849 205.43 217.566 207.804 221.447 207.934C223.172 207.977 224.94 207.588 227.484 206.25C234.126 202.754 238.136 197.099 240.077 194.034C243.699 188.12 244.95 182.854 245.64 179.659C246.718 174.738 248.443 166.407 245.123 157.04C243.915 153.673 243.354 151.99 241.888 150.565C233.565 142.45 204.542 148.493 196.176 166.968C196.262 167.012 191.216 178.192 201.911 204.221Z" fill="white"/>
<path opacity="0.18" d="M237.36 155.098C238.007 157.731 227.441 159.112 219.118 170.983C213.253 179.401 212.347 187.559 212.175 189.372C211.571 195.933 212.822 201.286 213.857 204.48C211.873 203.272 209.889 202.02 207.949 200.811C206.008 202.149 204.111 203.444 202.17 204.783C199.669 201.89 193.847 194.336 192.769 183.156C192.424 179.444 191.518 170.292 196.736 162.781C207.604 147.155 236.325 150.911 237.36 155.098Z" fill="#8E8E8E"/>
<path d="M206.784 172.192C211.356 171.156 215.021 169.731 217.566 168.566C222.784 166.192 226.406 163.558 229.856 161.055C233.004 158.767 235.549 156.652 237.36 155.055C239.473 156.004 243.527 158.163 245.036 162.436C245.424 163.602 245.64 164.81 245.511 168.825C245.338 173.314 245.252 176.465 244.389 180.523C242.621 189.199 238.697 195.977 236.325 199.603C239.301 198.221 243.829 195.588 247.537 190.71C252.454 184.278 253.23 177.631 253.834 171.544C254.869 161.055 255.861 151.213 249.607 144.306C243.225 137.227 232.789 137.14 224.207 137.097C219.42 137.054 213.382 137.011 206.698 139.73C195.486 144.349 195.27 151.558 179.572 168.264C168.058 180.48 164.522 180.48 161.589 188.034C158.7 195.415 156.544 209.704 165.471 217.43C174.397 225.114 189.06 221.747 197.211 214.711C199.108 213.071 205.706 206.898 206.137 196.797C206.526 187.775 201.782 181.516 200.488 179.919C196.607 175.343 196.348 170.336 198.375 168.523C199.712 167.314 202.644 167.012 204.671 168.523C206.353 169.818 206.698 171.717 206.784 172.192Z" fill="#5B399B"/>
<path d="M205.706 197.315C207.949 199.905 210.493 202.236 213.253 204.265C215.539 205.948 218.601 208.322 221.533 208.668C224.509 209.013 228.045 206.984 230.46 205.473C233.263 203.747 235.721 201.502 237.791 198.955C242.147 193.43 244.087 186.48 245.209 179.616C246.459 172.019 246.632 164.249 244.432 156.824C244.217 156.047 242.966 156.35 243.182 157.17C245.209 163.99 245.209 171.113 244.174 178.062C243.225 184.494 241.672 191.056 238.007 196.495C234.816 201.286 228.994 206.337 223.129 207.243C219.937 207.718 216.444 204.912 213.986 203.142C211.312 201.2 208.897 198.912 206.698 196.408C206.051 195.761 205.146 196.667 205.706 197.315Z" fill="#212121"/>
<path d="M233.349 175.472C232.573 178.537 231.797 181.645 231.021 184.71C230.632 186.178 230.287 187.645 229.899 189.113C229.641 190.063 229.425 192.955 228.562 193.559C228.864 193.689 229.209 193.818 229.511 193.948C228.821 192.221 228.045 190.581 227.01 188.984C226.579 188.293 225.457 188.94 225.889 189.631C226.837 191.099 227.614 192.653 228.261 194.293C228.39 194.638 228.821 194.941 229.209 194.682C230.201 193.991 230.244 193.041 230.546 191.876C230.977 190.149 231.409 188.379 231.84 186.653C232.746 183.027 233.651 179.401 234.557 175.775C234.772 175.041 233.565 174.695 233.349 175.472Z" fill="#212121"/>
<path d="M217.566 189.804C218.04 193.602 221.361 196.538 225.242 196.322C226.061 196.279 226.061 194.984 225.242 195.027C222.137 195.199 219.247 192.912 218.859 189.804C218.73 188.983 217.436 188.983 217.566 189.804Z" fill="#212121"/>
<path d="M227.306 177.67C228.001 175.792 227.949 174.041 227.19 173.76C226.43 173.478 225.251 174.772 224.556 176.65C223.861 178.528 223.913 180.278 224.672 180.56C225.431 180.841 226.611 179.548 227.306 177.67Z" fill="#212121"/>
<path d="M239.758 179.61C240.453 177.732 240.401 175.982 239.642 175.7C238.883 175.418 237.704 176.712 237.008 178.59C236.313 180.468 236.365 182.219 237.124 182.5C237.884 182.782 239.063 181.488 239.758 179.61Z" fill="#212121"/>
<path d="M225.112 167.573C226.449 166.062 228.605 166.321 229.511 168.134C229.899 168.868 230.977 168.22 230.632 167.486C229.382 164.983 226.061 164.551 224.207 166.666C223.646 167.27 224.552 168.177 225.112 167.573Z" fill="#212121"/>
<path d="M237.964 169.17C239.171 167.918 241.802 167.098 242.578 169.342C242.837 170.119 244.087 169.774 243.829 168.997C242.751 165.846 239.042 166.234 237.058 168.263C236.497 168.824 237.403 169.774 237.964 169.17Z" fill="#212121"/>
<path d="M201.782 179.66C198.677 178.494 197.469 173.703 198.461 170.81C198.979 169.3 200.488 167.875 202.17 167.875C204.542 167.875 205.835 170.379 206.18 172.408C206.31 173.228 207.56 172.882 207.431 172.062C206.655 167.53 201.523 164.422 198.159 168.695C195.356 172.321 197.124 179.314 201.437 180.911C202.213 181.17 202.558 179.919 201.782 179.66Z" fill="#212121"/>
<path d="M220.972 180.782C220.929 180.782 220.886 180.782 220.843 180.782C220.498 180.782 220.196 181.084 220.196 181.429C220.196 181.775 220.498 182.077 220.843 182.077C220.886 182.077 220.929 182.077 220.972 182.077C221.317 182.077 221.619 181.775 221.619 181.429C221.619 181.084 221.317 180.782 220.972 180.782Z" fill="#212121"/>
<path d="M223.991 183.286C224.811 183.286 224.811 181.991 223.991 181.991C223.172 181.991 223.172 183.286 223.991 183.286Z" fill="#212121"/>
<path d="M221.274 185.4C222.094 185.4 222.094 184.105 221.274 184.105C220.455 184.105 220.455 185.4 221.274 185.4Z" fill="#212121"/>
<path d="M235.894 185.833C236.713 185.833 236.713 184.538 235.894 184.538C235.074 184.538 235.074 185.833 235.894 185.833Z" fill="#212121"/>
<path d="M239.689 185.53C240.508 185.53 240.508 184.235 239.689 184.235C238.826 184.235 238.826 185.53 239.689 185.53Z" fill="#212121"/>
<path d="M236.497 189.156C237.317 189.156 237.317 187.861 236.497 187.861C235.678 187.861 235.678 189.156 236.497 189.156Z" fill="#212121"/>
<path d="M213.382 204.005C211.959 205.646 210.536 207.286 209.113 208.926C208.552 209.574 209.501 210.48 210.019 209.833C211.442 208.193 212.865 206.552 214.288 204.912C214.849 204.308 213.943 203.401 213.382 204.005Z" fill="#212121"/>
<path d="M201.35 204.567C202.644 207.631 205.447 209.876 208.725 210.48C209.544 210.653 209.889 209.401 209.07 209.229C206.051 208.667 203.679 206.725 202.472 203.919C202.17 203.142 201.049 203.79 201.35 204.567Z" fill="#212121"/>
<path d="M490.116 375.55C492.315 376.888 494.817 378.183 497.533 379.435C503.743 382.241 509.522 383.752 514.309 384.572C515.172 386.126 516.422 388.371 517.888 391.047C521.856 398.299 524.918 404.04 525.737 405.508C532.335 417.897 541.564 437.063 542.944 439.955C541.866 440.516 540.055 441.207 537.855 440.948C535.268 440.646 533.543 439.092 532.163 437.753C525.392 431.451 523.408 428.818 523.408 428.818C518.837 422.775 514.395 417.379 505.468 406.673C503.183 403.954 501.328 401.796 500.207 400.501C495.377 400.069 490.547 399.637 485.76 399.162C487.227 391.306 488.693 383.407 490.116 375.55Z" fill="#212121"/>
<path d="M523.581 319.693C514.266 320.038 506.891 320.038 503.829 319.995C499.776 319.952 493.954 319.865 468.381 318.527C456.176 317.88 454.063 317.75 448.284 317.577C438.581 317.275 429.654 317.275 419.089 319.347C412.189 320.685 408.782 322.067 405.677 324.527C404.254 325.65 399.639 329.448 398.173 335.923C397.958 336.959 397.44 339.506 398.259 344.557C399.553 352.715 402.831 358.974 405.073 362.687C408.264 367.953 412.404 372.917 419.261 378.831C423.186 382.198 432.113 389.493 450.57 398.472C459.497 402.832 471.615 408.055 486.623 412.63C486.278 410.472 485.889 407.364 485.76 403.652C485.458 395.148 486.709 388.673 487.83 382.759C488.693 378.399 490.029 372.658 492.272 366.054C489.21 364.327 486.191 362.557 483.129 360.83C491.884 362.384 499.517 363.075 505.554 363.334C518.837 363.982 528.368 362.946 539.666 361.694C548.636 360.701 553.208 360.183 555.623 358.715C568.215 351.032 572.312 327.117 563.946 319.304C559.374 314.944 553.984 318.527 523.581 319.693Z" fill="white"/>
<path opacity="0.13" d="M487.615 384.097C482.483 381.766 475.238 378.011 467.26 372.313C449.923 359.881 434.528 341.794 437.158 338.384C438.582 336.571 444.49 339.938 453.675 343.348C476.833 351.895 496.8 351.636 510.773 351.42C523.926 351.247 543.85 349.434 567.18 341.19C566.663 344.254 565.197 350.168 560.28 354.787C557.132 357.766 553.768 359.017 551.483 359.751C536.389 364.715 518.492 364.154 513.145 363.938C504.951 363.593 494.385 362.946 482.138 361.607C485.76 362.816 489.383 364.025 493.005 365.233C491.237 371.493 489.426 377.795 487.615 384.097Z" fill="#898989"/>
<path d="M518.535 318.916C499.819 319.865 481.232 318.57 462.559 317.491C453.201 316.973 443.843 316.585 434.485 316.973C426.377 317.319 417.881 318.009 410.378 321.204C404.168 323.837 398.906 328.456 397.613 335.319C396.276 342.485 398.346 350.255 401.278 356.816C407.833 371.406 420.598 381.81 433.967 389.968C450.311 399.896 467.95 408.271 486.493 413.235C487.313 413.451 487.658 412.199 486.838 411.983C470.925 407.753 455.875 400.889 441.557 392.86C427.886 385.22 414.302 376.155 405.849 362.644C401.882 356.341 399.079 349.089 398.605 341.578C398.346 337.434 398.906 333.204 401.278 329.707C403.262 326.772 406.281 324.614 409.429 323.06C416.717 319.477 425.299 318.7 433.277 318.311C441.902 317.88 450.57 318.139 459.152 318.57C478.989 319.606 498.655 321.16 518.535 320.168C519.355 320.168 519.398 318.873 518.535 318.916Z" fill="#212121"/>
<path d="M436.9 338.945C454.538 349.909 473.297 358.931 492.833 365.838C493.609 366.097 493.954 364.845 493.178 364.586C473.728 357.679 455.055 348.701 437.547 337.823C436.813 337.391 436.167 338.513 436.9 338.945Z" fill="#212121"/>
<path d="M492.531 364.802C486.925 379.867 484.725 396.011 486.019 412.026C486.105 412.846 487.399 412.846 487.313 412.026C485.976 396.098 488.175 380.126 493.782 365.147C494.083 364.37 492.833 364.025 492.531 364.802Z" fill="#212121"/>
<path d="M489.685 375.982C492.358 378.615 496.93 379.954 500.423 381.162C504.822 382.716 509.35 383.882 513.964 384.659C514.783 384.788 515.128 383.536 514.309 383.407C510.212 382.716 506.158 381.767 502.234 380.428C500.078 379.695 497.922 378.874 495.852 377.968C494.04 377.191 492.013 376.457 490.633 375.033C489.987 374.471 489.081 375.378 489.685 375.982Z" fill="#212121"/>
<path d="M513.791 384.875C523.71 402.746 533.284 420.832 542.513 439.092C542.901 439.826 544.022 439.178 543.634 438.444C534.405 420.185 524.788 402.141 514.913 384.227C514.525 383.493 513.403 384.141 513.791 384.875Z" fill="#212121"/>
<path d="M486.364 398.946C489.814 399.421 493.307 399.853 496.757 400.328C498.223 400.544 499.647 400.63 500.811 401.709C501.415 402.27 501.932 403.004 502.407 403.652C503.312 404.86 504.261 406.069 505.167 407.278C509.091 412.501 513.015 417.681 517.198 422.731C521.425 427.782 525.867 432.617 530.826 436.933C534.147 439.825 539.106 444.185 543.462 440.473C544.108 439.912 543.16 439.005 542.556 439.566C539.322 442.329 535.44 439.135 532.896 437.02C530.481 434.991 528.195 432.832 525.996 430.545C521.64 426.098 517.673 421.35 513.835 416.472C510.04 411.637 506.503 406.501 502.579 401.752C500.983 399.81 499.215 399.378 496.8 399.076C493.35 398.601 489.857 398.169 486.407 397.695C485.545 397.565 485.545 398.86 486.364 398.946Z" fill="#212121"/>
<path d="M484.078 361.996C507.582 365.363 531.516 364.629 554.76 359.752C555.58 359.579 555.235 358.327 554.415 358.5C531.43 363.334 507.668 364.068 484.423 360.744C483.604 360.615 483.259 361.867 484.078 361.996Z" fill="#212121"/>
<path d="M473.513 178.754C473.685 176.25 473.815 173.056 473.728 169.387C473.642 165.027 473.383 165.588 472.995 158.768C472.607 151.99 472.693 149.271 471.011 148.451C470.235 148.062 469.2 148.192 468.51 148.623C468.036 148.926 467.389 149.573 466.785 154.408C466.44 157.214 466.613 157.559 466.138 158.12C464.931 159.588 463.077 158.422 460.791 159.976C459.454 160.883 459.885 161.401 457.988 163.3C456.004 165.286 455.4 164.854 454.107 166.408C453.891 166.667 451.778 169.257 452.252 172.408C452.338 173.013 452.597 174.869 453.761 175.344C454.883 175.818 455.832 174.61 456.608 175.041C457.47 175.473 457.125 177.2 456.996 180.48C456.866 184.15 456.78 186.092 457.557 187.991C458.247 189.718 459.454 190.97 460.532 191.79C460.791 193.258 461.136 195.502 461.438 198.265C462.43 207.848 461.481 212.553 461.438 219.115C461.438 229.734 463.939 237.978 465.578 243.374C467.82 250.756 470.623 256.583 472.736 260.555C475.238 260.727 478.903 260.684 483.086 259.475C487.744 258.094 490.59 255.979 496.326 251.533C506.848 243.417 512.153 239.273 514.309 237.072C522.891 228.309 524.141 223.518 524.53 221.273C524.831 219.546 525.866 213.848 522.805 211.517C520.26 209.575 516.25 210.956 514.568 211.517C511.333 212.596 509.651 214.323 506.762 216.74C501.328 221.273 501.07 220.41 495.895 224.554C492.617 227.187 488.175 231.201 483.518 236.942C483.216 235.345 482.698 232.842 482.008 229.777C480.671 223.777 479.593 220.064 478.99 217.604C477.049 210.093 476.316 203.963 474.85 191.747C474.418 188.38 473.944 183.977 473.513 178.754Z" fill="white"/>
<path opacity="0.18" d="M470.537 148.019C470.839 151.386 470.925 155.832 470.062 160.883C468.941 167.574 466.699 172.797 464.844 176.293C464.542 177.07 463.809 179.056 464.413 181.516C465.319 185.229 468.467 186.912 468.984 187.171C470.364 194.423 471.744 201.632 473.124 208.884C475.496 221.532 477.825 234.223 480.067 246.871C484.078 243.331 488.132 239.791 492.229 236.209C501.759 227.964 511.247 219.935 520.648 212.122C518.621 211.776 516.594 211.388 514.567 211.042C513.015 212.035 510.859 213.417 508.271 215.186C503.355 218.553 498.007 222.179 492.229 227.575C489.9 229.734 486.838 232.755 483.561 236.683C483.172 234.18 482.482 230.511 481.404 226.021C479.981 220.28 479.421 219.589 478.386 215.359C476.747 208.711 477.911 209.186 476.014 197.747C473.987 185.445 473.857 184.711 473.857 184.711C473.556 182.984 473.34 181.819 473.211 180.135C472.779 174.912 473.642 170.984 473.857 169.905C474.418 166.365 474.332 159.976 470.537 148.019Z" fill="#A5A4A4"/>
<path d="M517.414 208.841C504.778 216.265 493.178 225.287 483 235.863C482.439 236.468 483.345 237.374 483.906 236.77C493.997 226.28 505.511 217.345 518.061 209.963C518.794 209.575 518.147 208.452 517.414 208.841Z" fill="#212121"/>
<path d="M483.388 240.309C484.552 236.424 483.992 232.539 482.957 228.697C481.749 224.165 480.369 219.675 479.334 215.1C477.178 205.819 475.798 196.409 475.151 186.912C475.108 186.092 473.814 186.092 473.857 186.912C474.461 195.675 475.712 204.395 477.566 213.028C478.515 217.388 479.636 221.704 480.887 225.978C482.224 230.554 483.647 235.259 482.18 240.007C481.922 240.741 483.172 241.086 483.388 240.309Z" fill="#212121"/>
<path d="M475.151 186.265C474.418 182.725 472.65 174.437 467.303 175.603C465.534 175.991 463.809 177.631 463.939 179.574C464.111 182.25 466.785 181.387 468.208 182.811C468.812 183.416 469.718 182.466 469.114 181.905C468.381 181.171 467.648 181.171 466.785 180.783C463.464 179.358 467.087 175.689 469.674 177.243C472.434 178.883 473.297 183.718 473.901 186.61C474.073 187.43 475.324 187.085 475.151 186.265Z" fill="#212121"/>
<path d="M474.03 180.826C474.849 170.725 474.375 160.494 472.348 150.523C472.133 149.4 471.917 147.933 470.71 147.415C469.588 146.94 468.424 147.63 467.82 148.537C466.871 150.005 466.871 152.292 466.699 153.976C466.44 156.695 466.44 159.458 466.656 162.178C466.699 162.998 467.993 162.998 467.95 162.178C467.82 160.278 467.734 158.336 467.82 156.436C467.906 154.667 467.734 151.904 468.51 150.35C468.553 150.177 468.596 149.961 468.639 149.789C470.106 148.882 470.839 148.969 470.925 150.048C471.27 150.609 471.27 151.774 471.399 152.465C471.788 154.537 472.09 156.652 472.348 158.767C473.211 166.106 473.34 173.487 472.736 180.826C472.65 181.646 473.944 181.646 474.03 180.826Z" fill="#212121"/>
<path d="M466.699 157.775C465.707 155.616 463.033 158.465 462.387 159.458C460.662 162.048 460.618 165.329 461.697 168.178C462.343 169.775 463.853 171.933 465.75 170.681C468.251 169.084 467.95 163.861 467.648 161.401C467.561 160.58 466.268 160.58 466.354 161.401C466.57 163.17 466.57 164.897 466.225 166.667C466.095 167.271 466.052 168.135 465.664 168.653C464.629 170.12 463.378 168.955 462.904 167.789C462.214 166.106 461.955 164.206 462.43 162.437C462.645 161.616 462.99 160.839 463.465 160.149C463.68 159.847 465.319 157.947 465.535 158.465C465.923 159.199 467.044 158.552 466.699 157.775Z" fill="#212121"/>
<path d="M463.12 158.767C458.462 158.983 456.435 163.559 457.039 167.703C457.298 169.429 457.902 171.199 459.799 171.631C461.653 172.063 463.12 170.724 463.508 168.998C463.68 168.178 462.43 167.832 462.257 168.652C461.395 172.408 458.635 169.516 458.333 167.703C458.16 166.58 458.117 165.458 458.376 164.336C458.893 162.005 460.662 160.149 463.12 160.062C463.982 160.019 463.982 158.724 463.12 158.767Z" fill="#212121"/>
<path d="M457.815 162.696C454.883 163.602 452.166 166.624 452.899 169.905C453.589 173.099 457.556 173.487 459.152 170.811C459.583 170.077 458.462 169.43 458.031 170.164C457.211 171.502 455.314 171.847 454.408 170.336C453.891 169.473 454.063 168.264 454.365 167.401C454.969 165.674 456.435 164.466 458.16 163.948C458.936 163.689 458.635 162.437 457.815 162.696Z" fill="#212121"/>
<path d="M453.028 167.919C451.605 169.861 450.699 173.703 452.856 175.559C453.675 176.25 454.796 176.293 455.745 175.775C456.996 175.084 457.513 173.66 457.901 172.365C458.16 171.588 456.909 171.242 456.651 172.019C456.392 172.84 456.176 173.66 455.529 174.264C454.451 175.3 453.33 174.653 452.985 173.358C452.554 171.674 453.114 169.947 454.106 168.609C454.624 167.875 453.503 167.228 453.028 167.919Z" fill="#212121"/>
<path d="M455.443 174.696C457.944 180.135 453.502 189.07 460.661 192.092C461.437 192.394 461.782 191.142 461.006 190.84C457.254 189.243 457.427 184.667 457.599 181.257C457.685 178.71 457.642 176.336 456.564 174.005C456.219 173.271 455.098 173.919 455.443 174.696Z" fill="#212121"/>
<path d="M459.885 191.963C461.351 197.877 460.575 204.006 460.532 210.05C460.489 215.877 460.834 221.705 461.61 227.446C463.119 238.583 466.224 249.461 470.709 259.734C471.054 260.511 472.176 259.821 471.831 259.087C467.13 248.295 463.982 236.813 462.602 225.072C461.955 219.546 461.696 213.978 461.826 208.452C461.955 202.798 462.516 197.186 461.136 191.617C460.963 190.797 459.713 191.143 459.885 191.963Z" fill="#212121"/>
<path d="M471.572 260.986C483.82 263.749 494.601 253.864 503.441 246.914C508.66 242.813 513.748 238.583 518.665 234.136C523.02 230.165 527.117 225.892 530.006 220.712C530.395 219.978 529.316 219.33 528.885 220.064C526.168 224.942 522.373 229 518.276 232.712C513.835 236.77 509.177 240.655 504.476 244.453C499.733 248.252 494.946 252.137 489.814 255.374C484.466 258.785 478.3 261.202 471.917 259.734C471.098 259.562 470.753 260.813 471.572 260.986Z" fill="#212121"/>
<path d="M474.245 119.529C474.547 118.881 474.849 117.889 474.72 116.766C474.461 114.781 472.909 113.572 471.787 112.363C470.019 110.507 469.415 108.651 467.949 105.154C467.173 103.298 464.629 97.2118 467.302 91.2116C469.286 86.7654 473.124 84.7366 473.9 84.3481C475.065 83.7437 479.636 81.4991 484.078 83.4847C487.744 85.1682 489.124 88.7511 490.288 91.8591C490.676 92.8951 492.617 98.1614 491.107 104.507C490.719 106.147 490.202 108.435 488.563 110.809C487.399 112.493 486.493 113.054 485.587 114.781C484.466 116.853 484.251 118.925 484.207 120.263C485.027 120.263 485.846 120.306 486.665 120.306C486.579 121.471 486.45 122.594 486.364 123.759C484.509 123.328 483.819 123.543 483.561 123.889C483.129 124.536 484.121 125.572 483.69 126.479C483.56 126.738 483.172 127.299 480.844 127.644C478.687 127.946 475.41 128.421 474.461 126.867C473.944 126.004 474.59 125.227 473.944 124.364C473.34 123.543 472.176 123.414 471.27 123.414C470.451 121.126 470.58 120.349 470.925 120.133C471.227 119.917 471.658 120.176 472.564 120.09C473.297 120.047 473.857 119.788 474.245 119.529Z" fill="white"/>
<path d="M479.852 119.226C479.766 114.564 479.636 109.946 479.55 105.284C479.55 104.463 478.256 104.463 478.256 105.284C478.343 109.946 478.472 114.564 478.558 119.226C478.558 120.047 479.852 120.047 479.852 119.226Z" fill="#212121"/>
<path d="M473.254 100.017C474.85 101.917 476.575 103.773 478.343 105.543C478.601 105.802 479.033 105.802 479.248 105.543C480.499 104.205 481.75 102.866 483 101.528C483.69 100.794 484.855 99.931 485.243 98.9382C485.415 98.5065 484.984 98.1612 484.639 98.118C484.596 98.118 484.596 98.118 484.596 98.118C484.337 98.0749 484.035 98.3339 483.992 98.5929V98.636C483.82 99.4562 485.07 99.8015 485.243 98.9814V98.9382C485.027 99.1109 484.811 99.2404 484.639 99.413H484.682C484.466 99.154 484.251 98.8519 484.078 98.5929C483.733 99.4994 482.008 100.794 481.318 101.528C480.37 102.564 479.421 103.6 478.429 104.593C478.731 104.593 479.033 104.593 479.335 104.593C477.566 102.823 475.885 100.967 474.246 99.0677C473.642 98.4634 472.693 99.3699 473.254 100.017Z" fill="#212121"/>
<path d="M479.377 104.55C479.55 101.269 479.636 97.9886 479.722 94.7079C479.722 93.8877 478.429 93.8877 478.429 94.7079C478.342 97.9886 478.256 101.269 478.084 104.55C478.041 105.37 479.334 105.37 479.377 104.55Z" fill="#212121"/>
<path d="M447.206 86.765C451.174 87.801 454.882 90.2615 458.505 92.1177C459.238 92.5062 459.885 91.3838 459.152 90.9953C455.4 89.0529 451.648 86.5492 447.551 85.5132C446.775 85.2974 446.43 86.5492 447.206 86.765Z" fill="#212121"/>
<path d="M467.087 83.8732C465.362 81.8444 463.68 79.8587 461.955 77.8299C461.394 77.1824 460.488 78.1321 461.049 78.7364C462.774 80.7652 464.456 82.7509 466.181 84.7797C466.742 85.4272 467.647 84.4776 467.087 83.8732Z" fill="#212121"/>
<path d="M481.922 77.5276C482.181 73.3404 482.741 69.1964 483.561 65.0955C483.733 64.2754 482.483 63.93 482.31 64.7502C481.491 68.9805 480.93 73.2109 480.628 77.5276C480.542 78.3477 481.836 78.3477 481.922 77.5276Z" fill="#212121"/>
<path d="M496.886 85.2542C499.732 82.7074 502.665 80.2469 505.597 77.8727C506.244 77.3547 505.339 76.4482 504.692 76.9662C501.759 79.3835 498.827 81.844 495.98 84.3477C495.377 84.9089 496.282 85.8154 496.886 85.2542Z" fill="#212121"/>
<path d="M502.449 97.9454C505.986 96.6936 509.479 95.3986 512.972 94.0173C513.748 93.7151 513.403 92.4633 512.627 92.7654C509.134 94.1468 505.641 95.4418 502.104 96.6936C501.328 96.9526 501.63 98.2044 502.449 97.9454Z" fill="#212121"/>
<path d="M451.777 106.752C453.977 106.018 456.219 105.284 458.419 104.55C459.195 104.291 458.85 103.039 458.074 103.298C455.874 104.032 453.632 104.766 451.432 105.5C450.613 105.759 450.958 107.011 451.777 106.752Z" fill="#212121"/>
<path d="M470.364 120.522C471.14 121.601 470.062 123.069 471.011 124.191C471.615 124.925 472.564 125.054 473.426 125.097C477.652 125.313 482.094 124.666 486.364 124.493C487.183 124.45 487.183 123.155 486.364 123.198C482.914 123.371 479.464 123.543 476.014 123.716C474.418 123.802 472.175 124.45 471.83 122.292C471.658 121.299 472.132 120.824 471.485 119.917C471.011 119.184 469.89 119.831 470.364 120.522Z" fill="#212121"/>
<path d="M471.96 120.737C476.876 120.824 481.75 120.91 486.666 120.996C486.45 120.781 486.235 120.565 486.019 120.349C486.105 121.255 486.105 121.946 485.933 122.896C485.76 123.716 487.011 124.061 487.183 123.241C487.399 122.248 487.442 121.342 487.313 120.349C487.27 120.004 487.054 119.701 486.666 119.701C481.75 119.615 476.876 119.529 471.96 119.442C471.141 119.442 471.141 120.737 471.96 120.737Z" fill="#212121"/>
<path d="M473.728 124.32C473.038 125.27 473.21 126.522 473.987 127.385C475.194 128.68 477.307 128.464 478.903 128.421C480.412 128.378 482.482 128.508 483.733 127.428C484.638 126.651 484.854 125.356 484.207 124.364C483.733 123.673 482.612 124.32 483.086 125.011C484.466 127.083 479.55 127.083 478.903 127.126C477.911 127.169 473.21 127.299 474.849 124.968C475.324 124.32 474.202 123.673 473.728 124.32Z" fill="#212121"/>
<path d="M474.849 119.701C475.626 116.162 473.038 113.356 471.356 110.507C469.286 107.01 467.432 103.212 466.958 99.1108C466.526 95.5279 467.216 91.6429 469.373 88.6644C471.917 85.1679 476.359 83.7866 480.542 83.7434C489.124 83.6139 490.763 94.1898 490.719 100.837C490.719 105.456 489.21 108.953 486.407 112.536C484.509 114.953 482.957 117.543 483.604 120.694C483.776 121.514 485.027 121.169 484.854 120.349C483.992 116.205 487.744 113.442 489.684 110.248C491.237 107.744 491.884 104.809 492.013 101.873C492.229 96.6503 491.453 89.9163 488.046 85.7291C484.509 81.3261 477.998 81.8441 473.297 83.9593C468.079 86.2471 465.534 91.6861 465.534 97.2114C465.534 100.535 466.526 103.816 467.906 106.838C468.726 108.651 469.718 110.42 470.796 112.147C472.133 114.305 474.159 116.68 473.599 119.399C473.426 120.176 474.677 120.521 474.849 119.701Z" fill="#212121"/>
<path d="M514.87 209.574C520.174 205.905 531.99 198.783 548.593 197.574C570.415 195.934 586.328 205.517 591.416 208.884C592.02 214.927 592.71 224.165 592.495 235.474C592.063 256.453 588.872 266.079 587.751 284.598C587.19 293.922 587.018 307.476 589.217 324.182C581.886 326.642 569.25 329.837 553.51 328.628C539.537 327.549 528.67 323.448 521.985 320.297C521.64 313.994 520.993 304.455 519.613 292.886C517.975 279.245 516.293 270.267 515.43 265.216C513.446 252.957 511.937 234.654 514.87 209.574Z" fill="#ED6A5A"/>
<path d="M494.687 387.076C491.409 388.371 488.692 389.277 486.795 389.882C478.601 392.472 475.237 392.558 471.442 395.666C470.58 396.357 469.415 397.479 467.173 400.76C463.809 405.767 461.524 410.602 458.16 419.451C455.055 427.652 452.597 434.214 450.311 443.624C449.233 448.027 448.5 451.783 448.025 454.588C449.923 453.725 452.942 452.214 456.219 449.711C465.319 442.804 467.69 435.163 477.092 421.35C479.032 418.501 482.008 414.271 486.062 409.307C488.175 407.796 491.754 405.637 496.584 404.472C499.819 403.738 502.622 403.652 504.735 403.738C504.39 402.27 504.002 400.803 503.657 399.335C500.681 395.234 497.705 391.177 494.687 387.076Z" fill="#212121"/>
<path d="M487.873 379.047C488.434 379.349 489.296 379.781 490.245 380.428C494.342 383.277 496.196 386.989 497.533 389.536C503.614 401.191 504.821 400.242 508.659 409.393C510.255 413.192 511.333 416.429 512.023 418.674C514.697 417.638 518.621 416.041 523.322 413.839C534.276 408.702 542.168 403.695 566.49 386.299C586.845 371.708 570.069 383.277 601.421 359.579C602.543 358.758 610.348 352.845 617.636 342.873C622.466 336.312 623.933 332.254 624.364 328.412C624.666 325.952 625.442 319.649 621.388 314.426C618.715 310.973 615.221 309.592 613.755 309.074C610.176 307.735 605.303 307.217 596.893 309.851C588.311 312.57 582.317 316.628 571.45 324.743C563.04 331.045 557.908 335.146 553.553 338.513C539.321 349.607 527.333 358.974 511.937 367.608C506.331 370.672 498.223 374.903 487.873 379.047Z" fill="white"/>
<path opacity="0.18" d="M621.56 314.599C619.663 319.002 616.558 325.52 611.814 332.902C594.176 360.442 570.285 374.169 555.234 382.587C544.151 388.803 527.289 396.788 505.166 402.227C506.33 404.386 507.495 406.76 508.616 409.393C510.039 412.674 511.117 415.825 511.98 418.674C516.939 416.645 524.055 413.537 532.249 409.177C544.108 402.832 547.774 399.465 574.425 380.256C574.425 380.256 590.424 368.773 609.356 352.327C610.434 351.377 616.472 346.068 621.086 337.391C624.062 331.779 624.493 328.456 624.579 326.427C624.838 320.988 622.768 316.714 621.56 314.599Z" fill="#969696"/>
<path d="M489.038 379.392C508.099 370.759 526.082 359.967 542.771 347.363C551.051 341.147 559.073 334.585 567.396 328.456C575.417 322.542 583.74 316.628 592.753 312.268C601.292 308.167 613.626 305.923 620.526 314.297C627.426 322.671 623.027 334.197 617.507 341.924C611.642 350.168 603.966 356.859 596.074 363.032C587.665 369.637 579.04 376.025 570.458 382.457C552.173 396.227 533.413 409.868 511.851 418.026C511.075 418.329 511.42 419.58 512.196 419.278C532.163 411.724 549.801 399.508 566.835 386.817C575.892 380.04 584.948 373.219 593.918 366.313C601.982 360.14 609.96 353.622 616.3 345.636C621.949 338.557 626.995 329.578 624.752 320.168C622.639 311.405 614.402 306.915 605.777 307.261C595.643 307.649 586.285 313.908 578.091 319.304C569.207 325.175 560.798 331.736 552.388 338.298C542.427 346.068 532.378 353.665 521.64 360.399C510.945 367.133 499.819 373.09 488.305 378.27C487.615 378.615 488.261 379.738 489.038 379.392Z" fill="#212121"/>
<path d="M487.571 379.608C491.15 381.119 493.479 384.961 495.679 388.026C497.835 391.004 499.819 394.069 501.673 397.177C505.554 403.738 508.788 410.645 511.376 417.811C511.678 418.588 512.928 418.242 512.627 417.465C509.91 409.954 506.503 402.702 502.406 395.839C500.336 392.385 498.094 389.018 495.679 385.781C493.609 383.018 491.538 379.824 488.261 378.443C487.442 378.184 486.795 379.263 487.571 379.608Z" fill="#212121"/>
<path d="M494.514 386.428C490.59 387.81 486.709 389.191 482.784 390.615C479.248 391.867 475.41 392.903 472.046 394.587C469.243 395.968 467.691 398.429 466.224 401.105C464.327 404.515 462.602 407.968 460.92 411.465C454.538 425.106 450.009 439.566 447.379 454.372C447.293 454.804 447.681 455.365 448.155 455.15C453.977 453.121 458.419 448.89 462.171 444.142C466.742 438.358 470.796 432.142 474.806 425.969C478.472 420.357 481.663 413.796 486.838 409.35C489.426 407.148 492.401 405.939 495.722 405.249C498.784 404.601 501.803 404.083 504.39 402.184C505.08 401.709 504.433 400.587 503.743 401.062C500.983 403.047 497.663 403.436 494.428 404.213C491.668 404.86 489.167 405.94 486.924 407.666C482.138 411.335 479.119 416.818 475.971 421.825C471.917 428.214 467.691 434.559 463.206 440.689C459.152 446.214 454.494 451.61 447.853 453.898C448.112 454.157 448.371 454.416 448.629 454.675C451.174 440.473 455.4 426.616 461.394 413.494C462.861 410.299 464.413 407.191 466.052 404.083C467.734 400.889 469.329 397.306 472.693 395.623C476.229 393.896 480.24 392.817 483.906 391.522C487.528 390.227 491.194 388.932 494.816 387.637C495.636 387.421 495.334 386.169 494.514 386.428Z" fill="#212121"/>
<path d="M463.551 260.425C469.071 288.267 474.634 316.11 480.154 343.952C502.018 345.118 523.84 346.283 545.704 347.449C541.348 318.355 537.036 289.26 532.68 260.209C509.652 260.295 486.623 260.338 463.551 260.425Z" fill="white" stroke="#212121" stroke-width="2" stroke-miterlimit="10"/>
<path opacity="0.22" d="M512.972 260.252C514.309 268.109 515.344 276.612 515.905 285.764C517.328 308.815 515.258 329.146 512.196 345.679C523.365 346.283 534.535 346.888 545.747 347.449C541.392 318.355 537.079 289.26 532.724 260.209C526.125 260.252 519.527 260.252 512.972 260.252Z" fill="#898989"/>
<path d="M578.263 210.912C576.581 212.553 576.236 214.754 576.021 218.38C575.546 227.618 576.84 234.697 576.84 234.697C578.393 243.028 578.824 251.532 579.902 259.907C581.153 269.49 581.713 274.367 579.255 278.641C577.228 282.181 573.908 284.684 572.916 285.418C569.336 288.051 566.016 289.087 563.17 289.864C557.995 291.332 550.793 293.231 541.693 295.001C539.278 291.807 536.734 289.907 535.052 288.871C532.68 287.404 528.842 284.943 526.513 286.411C525.435 287.102 524.702 288.699 525.047 289.778C525.521 291.202 527.548 290.987 528.756 292.713C529.532 293.836 529.532 295.217 529.446 296.08C527.764 296.426 525.22 296.857 522.071 297.073C516.12 297.462 514.481 296.685 509.479 297.073C504.476 297.462 498.051 298.886 498.008 300.44C498.008 301.562 501.371 302.426 502.32 302.685C504.951 303.375 506.331 303.03 509.953 303.246C512.843 303.419 516.206 303.893 516.206 304.239C516.206 305.016 499.431 303.85 498.568 307.865C498.31 309.03 499.431 310.196 500.207 311.016C501.07 311.966 502.967 313.563 511.376 314.383C513.101 314.556 515.473 314.728 518.276 314.728C515.775 315.98 513.317 317.232 510.816 318.484C510.816 318.786 510.816 319.218 511.075 319.649C512.498 322.153 519.656 320.513 522.977 319.779C527.29 318.786 533.543 316.887 540.831 312.743C547.343 312.484 552.69 311.966 556.399 311.534C571.924 309.678 579.859 306.699 584.732 304.498C590.08 302.08 592.753 300.052 594.737 297.289C595.341 296.426 596.85 294.138 598.489 287.145C600.128 280.109 600.43 274.54 600.516 272.813C600.688 269.446 600.818 263.705 599.826 250.324C598.316 230.294 597.583 237.546 596.419 224.294C596.29 222.74 595.901 218.035 592.84 213.589C591.934 212.251 590.77 210.61 588.613 209.574C585.293 208.063 580.765 208.409 578.263 210.912Z" fill="white"/>
<path opacity="0.24" d="M586.5 208.927C587.362 211.992 588.527 216.481 589.562 221.963C590.209 225.416 592.063 236.208 591.416 264.137C590.985 281.749 590.079 284.166 588.656 286.497C584.818 292.713 578.565 295.39 566.102 300.785C555.752 305.232 548.895 308.21 538.933 309.764C534.362 310.498 527.332 311.189 518.319 314.815C516.982 315.333 509.996 318.182 510.298 319.52C510.557 320.556 515.128 320.34 519.139 320.124C523.796 319.865 526.211 319.736 529.316 318.829C531.817 318.095 536.173 316.412 540.658 312.397C547.644 312.44 553.466 311.966 557.779 311.448C564.679 310.627 572.484 309.678 581.627 305.879C587.449 303.462 591.546 301.692 594.737 297.332C595.599 296.167 597.238 293.577 598.877 285.332C600.127 279.073 600.645 272.9 600.645 265.216C600.645 261.331 600.084 254.727 599.006 241.518C598.101 230.769 598.963 242.726 595.987 222.136C595.686 220.021 595.211 216.697 592.753 213.589C590.769 210.999 588.225 209.617 586.5 208.927Z" fill="#898989"/>
<path d="M577.487 213.589C579.125 208.495 585.465 208.064 589.26 210.869C593.529 213.977 594.866 219.373 595.685 224.294C597.453 235 598.92 245.834 599.653 256.626C600.386 267.59 600.127 278.771 597.238 289.433C595.815 294.699 593.658 298.886 588.872 301.735C584.559 304.282 579.772 306.095 574.985 307.52C563.859 310.8 552.215 311.62 540.658 311.75C539.838 311.75 539.838 313.045 540.658 313.045C552.172 312.872 563.859 312.052 574.985 308.858C580.29 307.347 585.767 305.318 590.424 302.296C594.78 299.491 596.893 295.433 598.273 290.555C601.593 278.771 601.766 266.339 600.774 254.209C600.3 248.165 599.523 242.165 598.704 236.165C597.885 230.208 597.497 223.906 595.642 218.165C594.133 213.589 590.898 208.97 585.896 207.977C581.842 207.157 577.53 209.315 576.236 213.287C575.977 214.021 577.228 214.366 577.487 213.589Z" fill="#212121"/>
<path d="M576.624 211.862C574.511 218.467 575.288 225.676 575.978 232.453C576.711 239.575 577.832 246.611 578.651 253.734C579.083 257.274 579.428 260.813 579.6 264.396C579.816 268.065 580.074 271.993 579.471 275.663C578.263 282.569 571.751 285.764 565.886 288.181C558.296 291.289 550.275 293.318 542.124 294.311C541.305 294.397 541.305 295.692 542.124 295.606C549.326 294.742 556.442 293.102 563.256 290.598C568.646 288.613 574.899 286.282 578.436 281.447C582.317 276.137 581.196 268.065 580.721 261.936C580.161 254.122 578.91 246.396 577.961 238.626C576.883 230.165 575.158 220.539 577.832 212.208C578.091 211.431 576.84 211.085 576.624 211.862Z" fill="#212121"/>
<path d="M542.167 294.613C538.2 290.339 533.284 285.289 526.901 285.807C525.176 285.936 523.192 286.843 523.796 288.915C524.098 289.951 524.96 290.598 525.823 291.159C527.634 292.325 528.928 293.534 529.489 295.692C529.704 296.512 530.955 296.167 530.739 295.347C530.308 293.749 529.532 292.282 528.238 291.203C527.677 290.728 525.78 289.951 525.564 289.39C525.737 288.656 525.952 287.922 526.125 287.188C526.513 287.145 526.858 287.102 527.246 287.059C527.893 287.015 528.583 287.102 529.23 287.188C534.275 288.008 537.941 291.936 541.262 295.519C541.822 296.124 542.728 295.217 542.167 294.613Z" fill="#212121"/>
<path d="M529.316 295.476C523.969 297.375 518.017 296.037 512.454 296.253C509.91 296.339 507.366 296.598 504.821 296.987C502.837 297.289 499.948 297.332 498.309 298.713C495.765 300.829 498.956 302.987 501.069 303.246C506.719 304.023 512.584 303.893 518.276 304.196C519.096 304.239 519.096 302.944 518.276 302.901C514.093 302.685 509.867 302.469 505.684 302.253C504.562 302.21 503.441 302.167 502.32 302.08C501.759 302.037 497.145 301.649 499.344 299.577C499.948 299.016 501.5 298.929 502.277 298.757C503.225 298.584 504.174 298.411 505.123 298.239C509.436 297.591 513.834 297.375 518.19 297.548C522.028 297.721 525.866 298.023 529.575 296.728C530.437 296.469 530.092 295.217 529.316 295.476Z" fill="#212121"/>
<path d="M518.017 303.505C513.705 303.764 509.09 303.591 504.864 304.584C502.924 305.059 501.026 305.836 499.258 306.786C498.439 307.217 497.231 307.735 497.447 308.858C497.878 311.448 504.002 311.404 505.856 311.448C510.514 311.491 515.085 310.627 519.742 310.973C520.562 311.016 520.562 309.721 519.742 309.678C516.508 309.462 513.317 309.764 510.082 309.98C507.107 310.196 502.794 310.757 500.034 309.332C498.18 308.383 499.172 308.253 500.207 307.735C501.026 307.304 501.845 306.915 502.708 306.613C504.304 306.009 505.942 305.62 507.624 305.447C511.031 305.102 514.524 305.016 517.931 304.8C518.837 304.757 518.837 303.462 518.017 303.505Z" fill="#212121"/>
<path d="M499.905 311.577C505.511 314.469 511.721 315.678 517.974 314.987C518.794 314.901 518.794 313.606 517.974 313.692C511.937 314.34 505.942 313.261 500.552 310.455C499.819 310.11 499.172 311.189 499.905 311.577Z" fill="#212121"/>
<path d="M518.147 314.167C514.912 314.901 511.333 315.98 509.737 319.174C509.608 319.477 509.651 319.908 509.953 320.081C512.239 321.117 514.567 320.987 517.025 320.901C520.217 320.728 523.451 320.556 526.642 320.038C532.076 319.174 537.294 317.189 541.305 313.304C541.909 312.742 541.003 311.793 540.399 312.397C536.777 315.937 532.033 317.75 527.117 318.656C524.314 319.174 521.511 319.39 518.707 319.52C516.077 319.649 513.144 320.081 510.643 318.959C510.729 319.261 510.815 319.563 510.859 319.865C512.282 316.973 515.559 316.109 518.492 315.462C519.268 315.203 518.923 313.951 518.147 314.167Z" fill="#212121"/>
<path d="M516.206 153.76C514.912 156.824 514.74 159.846 514.481 163.515C514.352 165.371 514.093 171.199 516.034 178.537C517.241 183.113 518.535 188.077 522.546 193.041C526.039 197.358 530.049 199.775 532.594 201.027C534.362 200.509 536.259 199.905 538.286 199.085C540.27 198.308 542.081 197.444 543.72 196.624C543.806 198.221 544.108 201.07 545.747 204.135C547.127 206.768 548.895 208.495 550.016 209.445C551.31 208.883 552.776 208.15 554.329 207.027C557.994 204.394 560.021 201.157 561.099 199.128C560.496 196.624 559.935 193.775 559.59 190.624C558.986 185.012 559.159 180.048 559.59 175.99C560.539 175.99 562.048 175.861 563.601 175.084C567.094 173.314 568.258 169.645 568.776 167.918C570.026 163.861 569.336 160.407 568.862 158.206C568.431 156.263 566.964 149.486 561.142 144.436C553.854 138.176 544.755 138.953 540.831 139.256C532.464 139.989 520.26 144.133 516.206 153.76Z" fill="white"/>
<path opacity="0.29" d="M552.992 146.853C553.553 149.486 554.07 153.026 554.156 157.17C554.156 158.379 554.243 165.415 552.043 173.401C548.378 186.61 540.227 195.804 536.389 199.775C539.02 198.783 542.513 197.185 546.178 194.466C550.706 191.099 553.596 187.343 555.364 184.753C555.968 191.315 556.571 197.833 557.175 204.394C558.469 202.927 559.763 201.459 561.056 199.991C560.28 196.106 559.59 191.487 559.461 186.221C559.331 182.25 559.547 178.624 559.892 175.429C560.539 175.602 561.703 175.775 563.04 175.343C563.385 175.257 564.679 174.825 566.188 173.098C568.603 170.379 569.121 167.185 569.336 165.846C569.552 164.422 569.724 162.307 569.121 159.069C568.172 153.846 566.921 147.026 562.091 145.213C558.512 143.961 554.803 145.774 552.992 146.853Z" fill="#898989"/>
<path d="M514.568 159.933C513.317 157.084 512.066 153.069 513.015 148.709C514.438 142.277 519.699 138.91 525.047 134.421C530.049 130.277 536.691 123.888 543.461 114.262C542.814 117.931 542.124 121.557 541.478 125.227C544.238 122.766 547.299 120.219 550.62 117.672C552.776 116.032 554.933 114.521 557.003 113.097C556.399 113.917 554.889 116.205 554.803 119.485C554.717 123.111 556.356 125.615 556.916 126.435C557.52 125.615 558.512 124.406 559.763 122.896C561.531 120.824 562.048 120.392 562.954 119.097C564.808 116.464 565.067 114.737 565.412 114.78C565.973 114.867 566.188 118.752 565.153 134.248C567.18 131.961 569.207 129.63 571.191 127.342C571.536 132.392 571.924 137.443 572.269 142.493C572.7 144.911 573.045 148.45 572.528 152.594C571.924 157.213 570.501 160.796 569.336 163.17C568.431 162.35 567.094 161.4 565.369 161.314C563.299 161.228 562.609 162.393 561.272 162.307C558.383 162.091 557.951 156.35 554.372 151.817C550.879 147.371 545.833 145.947 542.642 145.04C539.666 144.22 530.567 141.673 522.718 147.155C516.767 151.299 515.042 157.817 514.568 159.933Z" fill="#5B399B"/>
<path d="M515.646 153.414C513.489 157.602 513.748 162.436 513.921 167.012C514.136 172.149 514.826 177.329 516.379 182.25C518.966 190.408 524.184 197.876 532.076 201.545C532.809 201.891 533.499 200.768 532.723 200.423C525.133 196.883 520.088 189.761 517.629 181.904C516.206 177.458 515.559 172.796 515.301 168.177C515.042 163.515 514.568 158.292 516.767 154.019C517.155 153.328 516.034 152.681 515.646 153.414Z" fill="#212121"/>
<path d="M532.766 201.631C545.488 198.308 555.924 188.595 560.194 176.206C560.452 175.429 559.202 175.084 558.943 175.861C554.803 187.861 544.669 197.228 532.421 200.38C531.602 200.595 531.947 201.847 532.766 201.631Z" fill="#212121"/>
<path d="M559.288 176.293C562.307 176.25 565.11 175.861 566.835 173.142C568.43 170.638 570.544 166.839 570.199 163.774C569.94 161.443 567.568 160.235 565.455 160.148C562.954 160.062 560.668 161.4 559.417 163.515C558.986 164.249 560.107 164.897 560.539 164.163C561.574 162.436 563.428 161.357 565.455 161.443C566.231 161.487 567.18 161.702 567.827 162.177C569.595 163.515 568.819 165.631 568.301 167.228C567.697 168.998 566.792 170.897 565.714 172.494C564.161 174.782 561.789 174.955 559.288 174.998C558.425 174.998 558.425 176.293 559.288 176.293Z" fill="#212121"/>
<path d="M559.159 175.43C558.641 183.415 558.253 191.488 560.453 199.301C560.668 200.121 561.919 199.776 561.703 198.955C559.547 191.272 559.978 183.329 560.453 175.43C560.496 174.609 559.202 174.609 559.159 175.43Z" fill="#212121"/>
<path d="M543.073 196.797C543.461 199.775 544.281 202.667 545.574 205.387C546.264 206.898 547.429 210.222 549.456 210.222C551.655 210.222 554.113 208.106 555.666 206.725C557.951 204.61 559.935 202.149 562.005 199.775C562.566 199.171 561.66 198.221 561.099 198.869C559.59 200.595 558.081 202.365 556.485 204.092C554.889 205.775 552.819 208.02 550.491 208.624C549.024 209.013 548.593 208.193 547.903 207.027C547.343 206.078 546.825 205.085 546.394 204.092C545.316 201.675 544.669 199.085 544.324 196.451C544.194 195.631 542.944 195.977 543.073 196.797Z" fill="#212121"/>
<path d="M528.023 151.515C527.376 160.148 527.16 168.825 527.462 177.458C527.462 178.063 528.368 178.408 528.67 177.804C529.877 175.257 531.085 172.71 532.292 170.163C532.637 169.429 531.516 168.739 531.171 169.516C529.963 172.062 528.756 174.609 527.548 177.156C527.937 177.286 528.368 177.372 528.756 177.501C528.454 168.825 528.626 160.192 529.316 151.558C529.403 150.695 528.109 150.695 528.023 151.515Z" fill="#212121"/>
<path d="M531.99 184.84C530.955 184.192 530.351 182.811 530.955 181.646C531.386 180.869 532.249 180.394 532.982 179.919C533.758 179.401 534.491 178.926 535.095 178.235C535.828 177.415 536.216 176.379 536.734 175.43C537.726 173.53 539.753 171.07 541.952 173.142C544.583 175.645 542.254 181.3 540.098 183.459C537.898 185.617 534.534 186.092 531.817 184.754C531.084 184.408 530.394 185.487 531.171 185.876C534.621 187.559 538.933 186.912 541.478 183.89C543.979 180.912 546.264 174.48 542.297 171.717C540.788 170.681 539.062 170.854 537.639 171.976C535.742 173.53 535.44 176.207 533.715 177.847C532.206 179.271 529.834 179.833 529.489 182.164C529.23 183.761 530.049 185.142 531.343 186.005C532.033 186.394 532.68 185.272 531.99 184.84Z" fill="#212121"/>
<path d="M522.502 162.824C523.026 162.824 523.451 161.452 523.451 159.76C523.451 158.067 523.026 156.695 522.502 156.695C521.978 156.695 521.554 158.067 521.554 159.76C521.554 161.452 521.978 162.824 522.502 162.824Z" fill="#212121"/>
<path d="M537.898 160.839C538.422 160.839 538.847 159.467 538.847 157.774C538.847 156.082 538.422 154.709 537.898 154.709C537.374 154.709 536.95 156.082 536.95 157.774C536.95 159.467 537.374 160.839 537.898 160.839Z" fill="#212121"/>
</svg>
