<svg viewBox="0 0 796 604" fill="none" xmlns="http://www.w3.org/2000/svg">
<path d="M39.1534 473.284C73.7297 457.681 112.982 459.694 149.25 467.446C187.607 475.65 224.522 489.945 263.227 496.589C284.67 500.263 306.56 501.572 328.151 498.149C329.096 497.998 328.698 496.538 327.753 496.689C287.655 502.981 247.556 492.914 209.199 481.942C172.483 471.422 135.32 459.745 96.7142 460.047C76.7147 460.198 56.7649 463.721 38.4072 471.976C37.5117 472.378 38.2579 473.687 39.1534 473.284Z" fill="#E8E8E8"/>
<path d="M232.78 486.27C279.645 487.227 325.017 474.09 370.836 466.288C384.219 464.023 397.701 462.211 411.283 461.305C412.228 461.255 412.228 459.745 411.283 459.795C364.369 462.916 319.146 477.11 272.58 482.646C259.396 484.207 246.113 485.062 232.83 484.811C231.785 484.76 231.785 486.27 232.78 486.27Z" fill="#E8E8E8"/>
<path d="M451.829 469.358C468.496 465.734 485.759 465.13 502.624 467.748C518.146 470.164 533.021 475.348 547.698 480.885C562.175 486.321 576.553 492.109 591.577 495.985C607.099 499.961 622.87 500.968 638.889 500.968C657.794 500.968 676.849 500.213 695.405 504.441C696.351 504.642 696.749 503.182 695.803 502.981C663.018 495.532 629.039 503.082 596.254 495.532C565.657 488.485 537.698 472.63 506.753 466.942C488.445 463.57 469.64 463.973 451.481 467.899C450.486 468.1 450.884 469.56 451.829 469.358Z" fill="#E8E8E8"/>
<path d="M180.095 275.827C175.817 274.518 167.409 270.944 170.543 264.904C172.782 260.576 179.448 260.223 183.578 260.374C197.508 260.777 211.438 261.985 225.368 260.827C238.452 259.72 250.939 255.945 263.675 252.925C276.61 249.804 290.291 247.539 303.326 251.365C309.047 253.026 314.37 255.794 319.992 257.707C322.679 258.613 325.465 259.317 328.3 259.619C331.683 259.972 335.066 259.468 338.4 259.317C341.832 259.166 345.365 259.267 348.3 261.331C350.986 263.193 353.225 266.716 351.484 269.988C348.996 274.719 341.733 273.411 337.554 272.505C325.166 269.887 312.679 269.082 300.092 270.793C293.426 271.699 286.908 273.36 280.54 275.424C273.675 277.639 267.008 279.602 259.695 278.595C252.879 277.639 246.362 275.424 239.447 275.172C232.532 274.87 225.666 275.776 218.85 276.682C205.617 278.494 191.488 280.81 179.1 274.317C178.254 273.864 177.508 275.172 178.354 275.625C189.946 281.716 203.03 280.306 215.567 278.645C222.134 277.739 228.751 276.783 235.417 276.632C242.73 276.481 249.546 278.192 256.66 279.602C263.924 281.011 270.491 280.256 277.555 278.041C284.57 275.827 291.485 273.662 298.749 272.555C306.261 271.397 313.873 271.095 321.435 271.649C328.151 272.102 334.569 273.914 341.186 274.669C345.116 275.122 350.141 274.971 352.578 271.246C355.364 266.968 352.379 261.985 348.549 259.619C342.728 256.046 335.514 258.562 329.196 258.16C322.231 257.707 315.813 254.435 309.395 251.918C296.062 246.684 282.431 247.338 268.65 250.308C254.073 253.428 239.895 258.21 224.97 259.418C216.363 260.123 207.657 259.972 199.05 259.619C194.572 259.418 190.045 259.217 185.568 259.015C182.782 258.915 180.045 258.864 177.309 259.418C173.08 260.274 168.255 262.79 168.553 267.874C168.901 273.461 175.269 276.028 179.747 277.387C180.593 277.588 180.991 276.129 180.095 275.827Z" fill="#E8E8E8"/>
<path d="M547.25 90.1469C542.972 89.5429 535.957 87.9826 534.713 83.0499C532.922 76.2046 542.574 74.0402 547.25 73.1846C560.931 70.8189 574.961 72.9832 588.742 72.9832C616.054 72.9329 642.969 67.6983 670.133 65.7352C683.714 64.7286 697.395 64.5776 710.927 66.3392C714.012 66.7419 717.246 67.0439 720.231 67.9499C721.474 68.3022 722.867 68.9062 723.813 69.8122C726.101 72.0772 723.863 74.1409 721.773 75.2483C716.4 78.1173 710.281 79.2749 704.261 79.5266C692.221 80.0803 680.232 77.5636 668.192 78.0166C662.57 78.2179 657.048 79.1743 651.725 81.1373C645.506 83.4526 639.735 86.7243 633.467 88.8886C626.203 91.4053 618.542 92.6636 610.831 92.6636C603.02 92.6636 595.309 91.4556 587.597 90.5496C571.976 88.7376 556.305 88.7879 540.733 90.9019C539.788 91.0529 539.788 92.5629 540.733 92.4119C555.956 90.3483 571.379 90.1973 586.652 91.9589C594.214 92.8146 601.776 94.0226 609.438 94.1736C616.502 94.3246 623.616 93.4186 630.432 91.4556C637.397 89.4423 643.765 85.9693 650.481 83.2513C656.999 80.6339 663.715 79.4762 670.68 79.4762C683.515 79.3756 696.4 82.2949 709.236 80.5836C712.37 80.1809 715.405 79.4763 718.39 78.3689C720.678 77.5133 723.763 76.4563 725.405 74.4933C728.489 70.7182 724.012 67.3962 720.678 66.4399C714.111 64.4769 706.699 64.1246 699.883 63.7219C692.47 63.2689 685.057 63.3192 677.645 63.6716C647.646 65.1312 617.995 71.4733 587.896 71.3726C579.339 71.3726 570.782 70.5673 562.225 70.5169C554.961 70.4666 546.653 70.6176 539.837 73.4866C535.559 75.2986 531.38 79.5266 533.768 84.5096C536.007 89.1906 542.325 90.8013 546.902 91.4556C547.797 91.7576 548.195 90.2979 547.25 90.1469Z" fill="#E8E8E8"/>
<path d="M66.1183 158.852C107.61 140.631 153.081 157.644 191.339 175.915C210.841 185.227 230.045 195.193 250.392 202.541C270.342 209.739 291.088 214.722 312.132 217.591C354.37 223.379 397.603 220.812 439.144 211.4C482.675 201.535 523.918 183.616 567.101 172.392C612.025 160.714 658.989 158.198 704.809 165.697C710.381 166.603 715.903 167.66 721.425 168.868C722.37 169.07 722.769 167.61 721.823 167.409C677.347 157.845 631.129 157.392 586.553 166.352C541.977 175.311 500.038 193.632 456.308 205.561C413.871 217.138 369.544 221.819 325.714 217.641C303.923 215.578 282.332 211.299 261.437 204.655C239.845 197.81 219.597 187.844 199.249 177.979C162.484 160.11 120.993 141.99 79.4015 152.611C74.5758 153.819 69.949 155.48 65.372 157.493C64.5263 157.946 65.2725 159.255 66.1183 158.852Z" fill="#E8E8E8"/>
<path d="M236.363 140.833C284.969 168.264 342.828 170.328 396.757 162.677C457.8 154.02 516.605 133.635 577.747 125.682C611.776 121.253 646.502 120.699 680.182 128.249C681.128 128.451 681.526 126.991 680.581 126.79C621.03 113.502 559.937 125.229 501.63 138.97C444.169 152.51 386.061 168.315 326.51 164.439C295.416 162.426 264.472 154.926 237.109 139.524C236.313 139.021 235.567 140.329 236.363 140.833Z" fill="#E8E8E8"/>
<path d="M91.2412 46.8603C133.031 36.7936 177.607 40.77 217.009 58.135C236.362 66.6413 254.521 77.7146 273.525 86.9256C292.679 96.187 312.678 102.579 333.772 105.448C357.901 108.72 382.328 108.166 406.507 106.556C407.452 106.505 407.452 104.995 406.507 105.046C384.667 106.505 362.627 107.109 340.837 104.794C318.748 102.428 297.654 96.5896 277.505 87.1773C258.351 78.1676 240.242 67.0943 220.989 58.3363C202.084 49.5783 182.035 43.79 161.389 41.3236C137.857 38.4546 113.877 39.864 90.8432 45.4006C89.898 45.602 90.296 47.0616 91.2412 46.8603Z" fill="#E8E8E8"/>
<path d="M515.112 351.931C510.734 351.025 503.569 348.76 503.221 343.273C503.022 339.901 505.808 337.435 508.743 336.529C512.276 335.371 516.007 336.428 519.44 337.435C525.708 339.297 532.026 340.807 538.593 341.059C544.713 341.31 550.782 340.404 556.702 338.794C563.07 337.082 569.289 334.767 575.607 332.955C582.274 331.042 589.09 330.036 596.055 329.935C609.338 329.734 622.472 332.15 635.706 332.703C642.322 332.955 648.84 332.603 655.357 331.596C662.421 330.489 669.635 328.828 676.849 329.683C682.023 330.287 690.331 333.811 688.639 340.555C687.147 346.444 678.889 349.766 673.814 351.427C648.342 359.783 622.074 345.891 596.254 349.565C581.379 351.679 567.349 358.021 552.324 359.229C545.459 359.783 538.394 359.33 531.877 356.863C525.907 354.548 520.534 349.515 513.718 350.723C512.773 350.874 513.171 352.333 514.117 352.182C518.196 351.478 521.778 353.441 525.211 355.353C527.997 356.863 530.783 358.273 533.817 359.179C540.036 361.091 546.703 361.343 553.17 360.739C567.399 359.38 580.781 353.692 594.861 351.377C610.383 348.86 625.656 352.484 640.979 354.548C653.466 356.209 666.849 356.612 678.59 351.327C683.068 349.313 689.038 346.092 690.182 340.757C691.227 335.975 687.595 332.15 683.664 330.187C677.844 327.318 670.829 327.871 664.66 328.727C657.148 329.734 649.835 331.344 642.223 331.445C627.397 331.697 612.771 328.626 597.995 328.576C590.931 328.576 583.916 329.381 577.05 331.193C570.235 333.005 563.618 335.522 556.852 337.384C548.494 339.649 540.086 340.354 531.529 338.995C527.251 338.29 523.221 337.082 519.092 335.874C516.007 334.968 512.674 334.213 509.44 334.918C504.614 335.975 500.236 340.606 502.375 345.79C504.316 350.521 510.236 352.585 514.813 353.541C515.609 353.592 516.007 352.132 515.112 351.931Z" fill="#E8E8E8"/>
<path d="M291.884 550.697C310.49 546.167 328.699 539.976 346.261 532.275C355.365 528.248 364.27 523.668 373.971 521.252C383.275 518.886 392.926 518.182 402.528 518.433C413.622 518.685 424.617 520.195 435.562 521.957C436.507 522.108 436.905 520.648 435.96 520.497C417.303 517.527 398.1 515.111 379.344 518.534C369.693 520.296 360.837 524.02 351.982 528.097C342.679 532.376 333.276 536.251 323.624 539.674C313.077 543.399 302.381 546.62 291.486 549.237C290.541 549.439 290.939 550.898 291.884 550.697Z" fill="#161616"/>
<path d="M409.442 518.987C417.8 518.786 426.059 517.578 434.118 515.212C442.327 512.846 450.436 509.524 459.142 510.38C463.57 510.783 467.898 512.041 472.177 513.148C476.654 514.306 481.082 515.464 485.56 516.621C494.166 518.836 502.723 521.051 511.33 523.265C512.275 523.517 512.673 522.057 511.728 521.806C502.823 519.49 493.918 517.225 485.012 514.91C476.853 512.796 468.495 509.977 460.137 508.971C451.929 508.014 444.168 510.581 436.407 512.997C427.601 515.715 418.646 517.276 409.492 517.527C408.497 517.477 408.497 518.987 409.442 518.987Z" fill="#161616"/>
<path d="M496.555 526.789C516.107 522.41 536.653 518.635 556.504 523.265C566.354 525.581 575.608 530.01 584.812 534.087C594.463 538.416 604.164 542.694 613.816 547.023C614.711 547.425 615.458 546.117 614.562 545.714C599.438 538.969 584.463 531.671 569.041 525.681C554.116 519.893 538.594 518.735 522.773 520.547C513.818 521.604 504.913 523.366 496.107 525.379C495.212 525.53 495.61 526.99 496.555 526.789Z" fill="#161616"/>
<path d="M319.793 568.163C324.917 567.257 330.091 566.351 335.215 565.445C340.34 564.539 345.514 563.381 350.688 562.827C355.464 562.324 360.339 563.18 365.065 563.633C370.289 564.186 375.563 564.69 380.786 565.243C381.732 565.344 381.732 563.834 380.786 563.733C375.563 563.18 370.289 562.676 365.065 562.123C359.991 561.619 354.867 560.764 349.742 561.418C339.593 562.676 329.494 564.941 319.395 566.703C318.45 566.904 318.848 568.364 319.793 568.163Z" fill="#161616"/>
<path d="M182.384 341.159C185.791 341.159 188.553 338.365 188.553 334.918C188.553 331.471 185.791 328.677 182.384 328.677C178.977 328.677 176.215 331.471 176.215 334.918C176.215 338.365 178.977 341.159 182.384 341.159Z" fill="#ED6A5A"/>
<path d="M199.05 354.85C200.836 354.85 202.284 353.385 202.284 351.578C202.284 349.771 200.836 348.307 199.05 348.307C197.264 348.307 195.816 349.771 195.816 351.578C195.816 353.385 197.264 354.85 199.05 354.85Z" fill="#ED6A5A"/>
<path d="M546.006 35.2837C550.21 35.2837 553.618 31.8358 553.618 27.5827C553.618 23.3295 550.21 19.8817 546.006 19.8817C541.802 19.8817 538.395 23.3295 538.395 27.5827C538.395 31.8358 541.802 35.2837 546.006 35.2837Z" fill="#2CA58D"/>
<path d="M560.832 42.1793C564.816 42.1793 568.046 38.9117 568.046 34.881C568.046 30.8502 564.816 27.5826 560.832 27.5826C556.848 27.5826 553.618 30.8502 553.618 34.881C553.618 38.9117 556.848 42.1793 560.832 42.1793Z" fill="#FFBD00"/>
<path d="M543.568 417.767C548.954 417.767 553.319 413.35 553.319 407.901C553.319 402.453 548.954 398.036 543.568 398.036C538.183 398.036 533.817 402.453 533.817 407.901C533.817 413.35 538.183 417.767 543.568 417.767Z" fill="#ED6A5A"/>
<path d="M189.548 40.166C192.982 40.166 195.767 37.3491 195.767 33.8743C195.767 30.3995 192.982 27.5826 189.548 27.5826C186.113 27.5826 183.329 30.3995 183.329 33.8743C183.329 37.3491 186.113 40.166 189.548 40.166Z" fill="#2CA58D"/>
<path d="M287.954 470.415C292.157 470.415 295.565 466.967 295.565 462.714C295.565 458.461 292.157 455.013 287.954 455.013C283.75 455.013 280.342 458.461 280.342 462.714C280.342 466.967 283.75 470.415 287.954 470.415Z" fill="#7C61AF"/>
<path d="M342.877 325.556C341.832 325.103 343.026 323.241 343.574 322.989C344.22 322.687 345.514 323.09 346.21 323.291C347.305 323.643 348.25 324.247 349.345 324.549C350.539 324.902 351.981 325.002 353.126 324.449C357.106 322.385 352.379 315.439 358.2 315.439C361.384 315.439 364.071 320.221 366.707 316.647C367.653 315.389 368.051 313.778 368.548 312.268C368.946 310.959 369.294 309.6 370.19 308.543C371.235 307.335 374.419 306.127 374.767 308.745C374.866 309.701 376.409 309.701 376.259 308.745C376.011 306.933 374.717 305.725 372.876 305.624C370.687 305.473 369.095 307.134 368.2 308.946C367.553 310.204 367.255 311.614 366.807 312.973C366.508 313.929 366.11 315.59 365.265 316.194C364.369 316.798 363.673 316.144 362.926 315.691C360.986 314.382 358.648 313.375 356.31 314.231C354.17 315.036 353.325 316.899 353.424 319.113C353.424 319.768 353.623 320.573 353.573 321.227C353.225 323.543 351.683 323.643 350.091 323.291C348.499 322.939 347.156 321.932 345.514 321.63C343.773 321.278 342.031 321.731 341.235 323.492C340.589 325.002 340.987 326.512 342.479 327.116C343.375 327.368 343.773 325.908 342.877 325.556Z" fill="#5B399B"/>
<path d="M368.548 327.972C367.802 326.814 367.802 325.355 368.598 324.197C369.742 322.536 371.334 322.788 373.075 323.039C374.369 323.241 375.961 323.492 376.906 322.335C377.553 321.58 377.453 320.674 377.702 319.818C378.05 318.56 378.846 317.452 379.891 316.697C382.08 315.087 385.165 314.835 387.354 316.546C387.901 316.949 388.548 316.697 388.647 315.993C389.244 311.11 394.02 307.486 398.796 308.342C399.741 308.493 400.139 307.033 399.194 306.882C393.373 305.876 387.851 310.104 387.155 315.993C387.602 315.791 388 315.64 388.448 315.439C386.408 313.828 383.821 313.426 381.384 314.281C378.598 315.238 377.304 317.1 376.259 319.717C375.762 321.026 375.165 321.831 373.722 321.63C372.926 321.529 372.18 321.328 371.384 321.278C370.24 321.227 369.245 321.529 368.349 322.284C366.459 323.895 365.961 326.663 367.304 328.777C367.802 329.583 369.095 328.828 368.548 327.972Z" fill="#5B399B"/>
<path d="M393.722 52.4976C392.876 51.6923 393.124 51.189 394.418 50.9373C394.965 50.1823 395.562 50.0313 396.209 50.5346C397.105 50.736 397.702 51.5413 398.348 52.1453C399.144 52.85 399.841 53.6553 400.736 54.209C401.98 54.9136 403.522 55.2156 404.816 54.5613C406.408 53.756 406.458 52.1453 407.005 50.6353C408.497 46.6086 413.572 46.206 415.96 49.6286C416.258 50.0313 417.005 50.1823 417.253 49.6286C418.199 47.3636 419.393 44.7966 421.532 43.4376C423.671 42.0786 427.253 42.2296 428.198 45.0483C428.497 45.9543 429.94 45.5516 429.641 44.6456C428.696 41.9276 425.96 40.7196 423.223 41.1726C419.442 41.827 417.353 45.6523 415.96 48.8736C416.408 48.8736 416.806 48.8736 417.253 48.8736C415.512 46.357 412.527 44.998 409.542 46.1053C408.298 46.5583 407.154 47.4643 406.408 48.622C406.01 49.226 405.761 49.8803 405.512 50.585C405.363 51.038 405.363 51.5916 405.114 51.9943C404.468 53.1016 402.677 53.5546 401.532 52.9003C399.094 51.5413 396.706 47.2126 393.323 48.9743C391.433 49.9306 391.184 52.6486 392.975 53.8063C393.821 54.3096 394.567 53.001 393.722 52.4976Z" fill="#FFBD00"/>
<path d="M425.661 52.095C425.313 47.0617 431.681 48.7227 434.218 49.981C435.511 50.6354 437.103 51.8434 438.496 50.736C438.944 50.3837 439.143 49.8804 439.342 49.377C440.088 47.716 440.586 46.508 442.576 45.904C445.66 44.998 448.645 46.961 451.133 48.5717C451.929 49.075 452.675 47.7664 451.879 47.263C449.242 45.602 446.257 43.7397 443.024 44.2934C441.979 44.4444 440.934 44.847 440.088 45.5014C438.795 46.4577 438.546 48.1187 437.253 48.924C436.009 49.679 435.511 48.924 434.268 48.32C433.621 48.018 432.974 47.716 432.278 47.4644C430.984 47.0114 429.591 46.81 428.248 47.112C425.91 47.6657 424.019 49.5784 424.168 52.095C424.218 53.0514 425.711 53.0514 425.661 52.095Z" fill="#FFBD00"/>
<path d="M569.638 260.576C566.354 253.277 578.792 250.056 579.637 257.707C579.936 260.274 578.543 262.992 575.956 263.696C573.07 264.451 569.986 262.488 569.19 259.67C568.941 258.713 567.498 259.116 567.747 260.072C568.742 263.696 572.672 266.112 576.354 265.156C579.986 264.2 581.777 260.123 580.931 256.599C580.035 252.875 576.205 251.063 572.672 252.019C568.543 253.126 566.603 257.505 568.344 261.431C568.742 262.237 570.036 261.431 569.638 260.576Z" fill="#ED6A5A"/>
<path d="M578.891 266.364C576.204 266.112 575.209 262.488 577.05 260.676C578.592 259.116 581.229 259.217 582.871 260.525C584.562 261.884 586.204 265.861 584.314 267.773C581.826 270.29 578.791 266.213 577.597 264.401C577.05 263.596 575.757 264.351 576.304 265.156C578.045 267.874 582.025 272.152 585.358 268.83C587.995 266.213 586.105 260.928 583.518 259.066C580.881 257.153 576.553 257.807 575.06 260.928C573.568 263.948 575.757 267.572 578.941 267.874C579.836 267.975 579.836 266.465 578.891 266.364Z" fill="#2CA58D"/>
<path d="M126.962 203.095C128.952 202.994 129.997 201.635 131.39 200.377C134.674 197.407 138.455 200.226 140.544 203.145C142.534 205.914 145.42 207.877 147.957 204.555C149.151 202.994 149.748 200.679 151.39 199.572C154.723 197.307 157.559 201.786 159.648 203.749C162.036 205.964 166.961 206.971 168.056 202.843C168.305 201.887 166.862 201.484 166.613 202.441C166.066 204.605 163.479 204.555 161.937 203.649C160.743 202.944 159.897 201.837 158.952 200.88C157.559 199.37 156.016 197.911 153.927 197.508C150.494 196.904 148.952 200.025 147.41 202.541C147.012 203.246 146.514 204.202 145.768 204.605C143.977 205.561 142.683 203.649 141.738 202.39C140.544 200.679 139.201 199.219 137.261 198.313C135.669 197.558 133.778 197.307 132.136 198.011C130.246 198.817 129.052 201.535 126.913 201.635C126.017 201.635 126.017 203.145 126.962 203.095Z" fill="#2CA58D"/>
<path d="M161.737 192.726C163.827 195.243 167.558 198.615 170.842 195.847C171.638 195.142 172.085 194.136 172.931 193.431C174.175 192.475 175.817 192.273 177.259 192.726C180.394 193.582 182.234 196.602 183.876 199.169C184.175 199.622 184.921 199.723 185.17 199.169C187.309 194.438 193.03 193.28 197.508 195.092C198.403 195.444 198.801 193.985 197.906 193.632C192.881 191.569 186.264 193.079 183.876 198.364C184.324 198.364 184.722 198.364 185.17 198.364C182.931 194.84 180.095 190.814 175.419 190.965C173.777 191.015 172.284 191.72 171.19 192.928C169.896 194.438 168.802 195.646 166.663 194.991C165.021 194.488 163.827 192.928 162.732 191.619C162.185 190.914 161.14 191.971 161.737 192.726Z" fill="#2CA58D"/>
<path d="M251.337 245.375C250.691 244.066 249.944 242.707 249.347 241.348C248.701 239.939 248.999 239.385 249.845 238.177C250.939 236.617 252.631 235.208 254.571 236.265C255.964 237.02 256.86 238.731 257.258 240.191C257.954 242.657 257.357 246.18 254.521 246.986C252.183 247.64 249.148 246.18 249.248 243.462C249.248 242.506 247.755 242.506 247.755 243.462C247.656 246.835 250.989 248.949 254.074 248.596C257.855 248.143 259.447 244.117 258.899 240.694C258.352 237.372 255.317 233.144 251.536 234.704C249.696 235.459 248.303 237.422 247.457 239.184C246.959 240.241 247.059 240.291 247.556 241.348C248.352 242.959 249.148 244.57 249.944 246.13C250.492 246.986 251.785 246.231 251.337 245.375Z" fill="#5B399B"/>
<path d="M256.859 255.24C254.969 252.975 251.735 248.546 254.521 245.727C256.511 243.714 260.093 244.469 261.735 246.482C263.426 248.546 263.775 252.573 261.138 254.083C258.899 255.391 255.665 254.133 255.267 251.516C255.118 250.559 253.675 250.962 253.825 251.918C254.422 255.341 258.551 256.952 261.536 255.593C265.168 253.881 265.317 248.798 263.178 245.828C261.138 242.959 256.66 241.952 253.874 244.318C249.845 247.69 253.327 253.227 255.864 256.247C256.412 257.052 257.456 255.995 256.859 255.24Z" fill="#2CA58D"/>
<path d="M551.031 153.366C551.081 148.936 557.1 150.245 559.687 150.547C561.926 150.799 563.966 150.497 565.956 149.389C568.145 148.232 569.936 146.42 572.075 145.161C573.468 144.306 575.16 143.551 576.801 143.551C578.543 143.601 579.637 144.658 581.179 145.312C584.761 146.772 587.05 143.4 589.289 141.185C593.716 136.806 600.035 138.618 605.209 140.43C606.104 140.732 606.502 139.272 605.607 138.97C600.98 137.36 595.109 135.598 590.532 138.266C588.343 139.524 587.05 141.839 585.06 143.299C582.224 145.363 579.836 142.091 576.851 142.041C570.433 141.94 567.05 149.44 560.583 149.087C557.797 148.936 555.11 147.879 552.424 149.138C550.683 149.943 549.588 151.352 549.538 153.315C549.489 154.322 550.981 154.322 551.031 153.366Z" fill="#5B399B"/>
<path d="M588.244 151.654C591.428 147.074 597.398 144.859 602.771 146.42C605.109 147.124 607.298 149.037 609.885 148.886C612.025 148.735 613.169 146.973 614.612 145.614C616.95 143.45 619.985 141.688 623.268 141.789C625.258 141.839 626.8 142.594 628.343 143.903C628.84 144.356 629.238 144.759 629.935 144.96C630.93 145.212 631.825 144.759 632.721 144.356C634.263 143.651 635.855 143.047 637.497 142.594C640.88 141.739 644.312 141.588 647.745 142.041C648.69 142.141 648.69 140.631 647.745 140.531C644.462 140.078 641.178 140.178 637.944 140.933C636.502 141.286 635.059 141.739 633.666 142.292C632.571 142.745 632.024 143.047 630.78 143.047C629.437 143.047 629.537 142.846 628.641 142.141C624.412 138.87 618.741 140.38 614.91 143.45C613.865 144.255 613.02 145.363 612.025 146.168C609.637 148.081 607.746 146.873 605.308 145.765C603.219 144.809 601.03 144.356 598.741 144.457C594.015 144.658 589.737 147.024 587.05 150.899C586.403 151.705 587.697 152.46 588.244 151.654Z" fill="#5B399B"/>
<path d="M480.037 489.24C480.982 495.28 481.927 501.37 482.823 507.41C463.172 513.853 453.52 517.93 453.918 519.641C454.416 521.755 470.137 520.195 501.081 515.111C499.29 505.548 497.549 495.985 495.758 486.421C490.484 487.327 485.261 488.284 480.037 489.24Z" fill="black"/>
<path d="M437.75 287.001C437.402 293.846 436.904 303.611 436.457 315.439C436.009 327.972 435.76 334.515 435.81 342.569C435.81 346.042 435.959 360.185 437.75 378.406C439.243 393.758 441.581 416.71 449.889 444.947C453.173 456.121 458.247 471.12 466.157 488.233C469.789 488.787 474.068 489.089 478.943 488.888C488.097 488.435 495.51 486.17 500.634 484.056C499.142 479.123 497.052 472.127 494.863 463.721C491.928 452.346 483.471 418.069 480.187 372.014C478.545 348.86 477.948 319.969 480.834 286.749C466.506 286.799 452.128 286.9 437.75 287.001Z" fill="white"/>
<path opacity="0.09" d="M479.589 290.876C478.644 294.5 477.4 299.735 476.057 306.077C472.575 322.838 468.993 346.746 469.341 387.164C469.54 412.029 471.281 446.406 477.649 487.931C480.137 487.68 482.674 487.378 485.311 486.975C490.833 486.119 495.957 485.012 500.634 483.754C498.544 476.908 495.659 466.741 492.674 454.359C482.077 410.217 479.092 372.769 478.296 348.055C477.848 333.358 477.848 313.879 479.589 290.876Z" fill="#606060"/>
<path d="M479.739 288.309C474.764 339.247 477.849 390.939 488.843 440.92C491.978 455.114 495.709 469.107 500.087 482.948C500.385 483.854 501.828 483.452 501.53 482.546C486.207 433.873 478.545 382.835 478.943 331.747C479.043 317.251 479.839 302.705 481.232 288.259C481.331 287.353 479.839 287.353 479.739 288.309Z" fill="#161616"/>
<path d="M435.71 333.458C433.869 374.732 439.59 416.257 452.426 455.466C456.008 466.439 460.187 477.21 464.913 487.73C465.311 488.636 466.605 487.831 466.207 486.975C449.54 449.477 439.74 408.958 437.401 367.937C436.755 356.461 436.705 344.985 437.202 333.458C437.252 332.452 435.76 332.502 435.71 333.458Z" fill="#161616"/>
<path d="M465.511 488.183C467.202 490.096 471.083 489.643 473.371 489.693C476.854 489.743 480.386 489.391 483.819 488.888C487.55 488.334 491.281 487.529 494.963 486.623C496.803 486.17 500.634 486.069 501.579 484.005C501.977 483.15 500.684 482.344 500.286 483.25C499.838 484.307 497.351 484.509 496.405 484.71C495.012 485.062 493.669 485.364 492.276 485.717C489.639 486.321 487.052 486.874 484.416 487.277C481.679 487.73 478.943 488.032 476.207 488.133C474.117 488.233 468.147 488.888 466.605 487.126C465.909 486.371 464.864 487.478 465.511 488.183Z" fill="#161616"/>
<path d="M423.073 286.699C421.631 289.87 419.69 295.91 418.297 301.245C416.556 308.04 416.108 312.117 415.113 318.056C413.273 329.029 412.029 330.891 409.342 342.921C406.507 355.806 405.213 365.722 404.218 373.624C403.422 379.765 401.979 392.298 401.333 408.505C401.034 415.502 400.885 419.629 401.034 425.317C401.432 443.185 404.268 457.027 405.512 462.463C408.845 477.412 413.72 490.196 418.596 500.565C420.835 501.723 424.218 503.182 428.496 504.139C433.77 505.296 440.536 506.806 447.003 503.484C448.794 502.578 452.874 500.062 455.958 494.122C453.57 487.529 450.635 478.167 448.297 466.691C442.526 438.202 444.615 415.653 446.058 401.459C448.744 374.631 454.913 354.498 465.51 319.768C469.092 308.09 472.276 298.628 474.465 292.336C475.211 287.353 476.953 272.404 469.042 266.163C457.451 256.901 430.436 270.642 423.073 286.699Z" fill="white"/>
<path opacity="0.08" d="M467.45 313.476C464.217 318.66 459.739 326.361 455.311 336.076C449.839 348.055 441.779 369.094 437.451 411.022C435.063 433.924 433.471 465.986 437.153 504.692C438.695 504.843 445.262 505.397 450.884 500.817C453.769 498.451 455.262 495.733 456.008 494.022C453.57 487.227 450.436 477.261 448.048 464.929C440.983 428.991 445.411 400.1 448.695 379.966C451.381 363.155 456.605 339.951 467.45 313.476Z" fill="#606060"/>
<path d="M430.885 504.038C432.576 510.179 434.268 516.37 435.959 522.51C409.293 530.715 396.209 535.849 396.657 537.862C397.154 540.177 415.313 538.466 451.133 532.728C450.188 522.863 449.242 513.048 448.347 503.182C442.476 503.434 436.656 503.736 430.885 504.038Z" fill="black"/>
<path d="M422.526 287.303C417.253 300.792 414.566 315.087 411.731 329.281C408.746 344.129 405.86 358.977 403.771 373.977C399.89 401.761 398.696 430.199 404.019 457.882C406.855 472.781 411.631 487.277 418.646 500.666C419.094 501.521 420.387 500.766 419.939 499.911C393.323 448.722 401.383 388.825 412.228 334.515C415.362 318.761 418.148 302.705 424.019 287.705C424.317 286.799 422.875 286.397 422.526 287.303Z" fill="#161616"/>
<path d="M466.804 313.375C450.137 358.323 438.993 406.643 445.461 454.812C447.252 468.1 450.386 481.136 454.963 493.72C455.311 494.626 456.754 494.223 456.406 493.317C439.839 448.067 443.222 398.439 455.66 352.585C459.242 339.448 463.52 326.512 468.247 313.728C468.595 312.822 467.152 312.469 466.804 313.375Z" fill="#161616"/>
<path d="M418.795 500.615C425.81 504.541 433.87 506.202 441.83 505.145C448.347 504.239 455.909 501.219 456.556 493.619C456.655 492.663 455.163 492.663 455.063 493.619C454.367 501.521 444.914 503.635 438.496 503.937C431.88 504.239 425.362 502.578 419.591 499.307C418.696 498.854 417.95 500.162 418.795 500.615Z" fill="#161616"/>
<path d="M433.322 155.53C431.979 157.141 430.088 159.607 428.297 162.879C422.178 173.751 421.78 184.421 421.681 193.783C421.581 207.424 421.482 214.269 422.924 229.117C424.268 243.009 424.616 262.941 419.79 288.36C424.118 291.581 430.437 295.306 438.695 297.269C462.476 302.906 482.177 288.863 485.908 286.145C481.182 258.109 478.595 235.661 477.102 219.906C476.157 209.94 472.674 195.444 465.759 166.402C463.67 157.543 461.53 149.087 455.063 146.671C446.108 143.249 435.113 153.768 433.322 155.53Z" fill="#ED6A5A"/>
<path opacity="0.1" d="M454.814 147.376C455.61 150.648 456.755 155.58 457.899 161.671C459.391 169.523 461.381 181.401 462.774 199.068C464.217 217.289 465.859 251.465 466.356 295.658C469.739 294.651 473.819 293.141 478.147 290.725C481.033 289.115 483.52 287.403 485.61 285.793C485.261 281.917 484.615 276.028 483.57 268.931C482.227 260.022 480.883 253.831 480.237 250.761C478.645 242.808 476.854 230.929 476.655 214.42C474.615 205.662 473.073 198.615 472.028 193.934C469.142 180.646 468.297 175.764 466.108 167.711C463.919 159.607 461.63 153.164 460.187 149.289C458.396 148.584 456.605 147.98 454.814 147.376Z" fill="#606060"/>
<path d="M433.273 160.362C433.721 161.268 434.467 161.57 436.109 162.375C437.502 163.08 438.845 163.936 440.238 164.54C444.517 166.402 449.542 174.657 450.338 175.965C453.372 180.948 456.905 186.787 458.944 195.243C459.492 197.458 460.735 203.196 459.293 222.574C457.75 242.456 455.76 245.224 457.303 255.14C458.447 262.337 459.89 270.944 466.904 275.625C473.422 279.954 480.934 278.444 482.476 278.142C491.929 276.28 497.302 268.881 502.525 261.683C510.485 250.761 513.52 239.838 514.814 233.496C515.411 230.527 515.311 221.819 515.162 204.454C514.963 186.535 514.664 180.344 510.037 175.11C506.903 171.586 503.073 169.925 500.436 169.07C500.635 167.962 500.685 166.301 499.789 164.892C498.098 162.275 494.068 162.325 491.481 162.375C480.387 162.677 472.128 170.227 471.73 170.58C464.815 177.073 462.775 185.025 462.128 188.347C460.735 182.106 458.447 177.324 456.656 174.254C455.114 171.586 452.825 168.868 448.198 163.332C444.567 159.003 442.825 157.342 440.089 156.436C439.492 156.235 434.965 154.876 433.472 156.939C432.776 157.896 432.776 159.355 433.273 160.362Z" fill="white"/>
<path opacity="0.11" d="M432.924 158.5C433.223 157.946 436.556 159.204 436.904 159.355C441.83 161.268 446.208 165.244 451.829 174.455C454.715 179.187 458.347 185.881 461.431 194.589C463.62 192.324 465.461 190.461 466.904 189.052C466.904 189.052 472.227 183.868 480.834 178.834C481.679 178.331 482.724 177.727 483.47 178.18C485.013 179.036 483.371 183.213 483.819 187.089C484.167 190.008 485.858 194.035 492.276 198.515C492.426 199.37 492.475 200.578 491.779 201.384C490.386 202.944 486.804 201.686 484.963 201.031C481.978 199.974 476.207 197.206 469.391 189.102C468.744 191.72 467.899 195.444 467.252 200.025C466.655 204.001 465.013 217.239 467.749 234.251C468.844 240.996 470.884 250.006 475.063 260.274C476.904 261.079 479.242 261.834 482.028 262.287C487.849 263.193 492.674 262.035 495.46 261.129C493.819 261.935 491.58 263.294 489.64 265.659C487.301 268.528 487.251 270.693 485.311 273.36C484.018 275.172 481.679 277.437 477.351 279.048C476.008 278.897 473.968 278.545 471.729 277.538C464.914 274.468 461.829 267.975 460.436 264.955C458.595 260.878 455.76 252.623 458.446 224.688C459.988 208.732 461.68 203.749 459.093 194.639C457.103 187.643 453.67 181.854 452.476 179.891C450.337 176.368 446.506 170.076 439.541 164.288C436.258 161.469 432.626 159.154 432.924 158.5Z" fill="#606060"/>
<path d="M488.396 169.774C487.501 170.982 486.356 172.744 485.461 175.059C484.963 176.418 483.769 179.589 484.068 183.616C484.615 191.619 490.286 196.501 491.331 197.357C492.028 197.911 492.625 198.364 493.023 198.615C492.426 200.679 491.729 203.749 491.481 207.524C491.083 212.86 490.685 218.849 493.769 220.611C495.759 221.718 498.744 220.963 500.386 219.353C500.784 218.95 501.928 217.692 502.226 212.004C502.575 205.259 501.182 202.441 503.172 200.478C504.018 199.572 505.46 199.018 506.704 198.464C508.097 197.86 509.341 197.558 510.236 197.357C509.689 201.484 509.291 205.159 508.992 208.128C508.644 211.803 508.495 213.665 509.739 214.823C510.883 215.88 512.773 216.081 514.216 215.427C516.107 214.571 516.704 212.205 517.748 207.474C518.594 203.749 519.291 200.629 518.843 196.401C518.594 194.236 518.146 192.475 517.748 191.267C517.649 190.411 517.4 189.153 517.002 187.693C516.156 184.774 515.36 183.918 514.863 182.056C514.117 179.388 514.962 178.079 515.161 175.059C515.36 172.694 515.161 169.321 513.47 165.093C512.823 165.144 511.48 165.244 510.087 166.201C508.396 167.308 507.699 168.919 507.45 169.472C506.157 169.17 503.818 168.868 501.132 169.623C496.505 170.882 494.067 174.355 493.421 175.412C494.714 172.543 493.62 169.724 491.879 169.019C490.386 168.365 488.595 169.674 488.396 169.774Z" fill="black"/>
<path d="M494.017 185.378C494.515 184.421 497.002 182.307 497.848 184.069C498.246 184.925 499.539 184.17 499.141 183.314C498.594 182.156 497.251 181.804 496.057 182.056C494.614 182.307 493.42 183.314 492.724 184.623C492.276 185.478 493.569 186.233 494.017 185.378Z" fill="white"/>
<path d="M508.594 181.502C508.893 180.848 509.191 180.093 509.689 179.589C510.186 179.086 511.679 178.532 511.729 179.69C511.778 180.646 513.271 180.646 513.221 179.69C513.122 178.23 511.878 177.274 510.435 177.475C508.793 177.777 507.947 179.287 507.301 180.697C506.903 181.603 508.196 182.408 508.594 181.502Z" fill="white"/>
<path d="M508.993 186.284C508.993 186.334 508.993 186.384 508.993 186.435C508.893 186.535 508.794 186.636 508.744 186.686C508.495 186.837 508.097 186.686 508.147 186.384C508.147 186.384 508.147 186.233 508.197 186.284L508.047 186.435C508.396 186.435 508.744 186.435 509.092 186.435C509.042 186.384 509.042 186.384 508.993 186.334C509.042 186.384 509.042 186.384 509.042 186.384C508.993 186.334 509.042 186.334 509.042 186.435C509.092 186.737 508.943 186.938 508.545 187.089C508.396 187.039 508.296 187.039 508.147 186.988C507.948 186.888 507.998 186.586 508.047 186.435C508.097 186.384 508.047 186.384 507.998 186.485C508.047 186.435 508.047 186.435 507.998 186.485C507.649 186.737 507.5 187.139 507.749 187.542C507.948 187.844 508.445 188.045 508.794 187.794C509.142 187.542 509.49 187.19 509.54 186.686C509.54 186.133 509.142 185.629 508.595 185.629C508.047 185.629 507.649 185.982 507.6 186.535C507.55 186.938 507.799 187.29 508.047 187.542C508.346 187.844 508.794 187.794 509.092 187.542C509.739 187.039 509.888 185.982 509.142 185.478C508.794 185.277 508.346 185.227 507.998 185.428C507.55 185.68 507.5 186.284 507.6 186.737C507.649 187.139 508.147 187.341 508.495 187.24C508.893 187.089 509.042 186.686 508.993 186.284Z" fill="white"/>
<path d="M501.032 187.844C499.59 188.7 497.649 188.297 496.704 186.888C496.157 186.082 494.863 186.837 495.411 187.643C496.853 189.706 499.59 190.411 501.828 189.153C502.624 188.649 501.878 187.341 501.032 187.844Z" fill="white"/>
<path d="M499.938 191.116C498.843 191.971 497.898 193.079 497.251 194.337C496.803 195.193 498.097 195.948 498.545 195.092C499.142 193.934 499.987 192.978 501.032 192.173C501.33 191.921 501.281 191.367 501.032 191.116C500.684 190.814 500.236 190.864 499.938 191.116Z" fill="white"/>
<path d="M512.027 185.579C513.022 184.421 513.768 183.113 514.265 181.653C514.564 180.747 513.121 180.344 512.823 181.25C512.425 182.458 511.778 183.566 510.982 184.522C510.385 185.277 511.43 186.334 512.027 185.579Z" fill="white"/>
<path d="M512.126 187.492C513.32 187.24 514.713 186.938 515.659 187.945C516.305 188.649 517.35 187.592 516.703 186.888C515.36 185.428 513.42 185.68 511.679 186.082C510.783 186.233 511.181 187.693 512.126 187.492Z" fill="white"/>
<path d="M432.676 159.204C434.964 155.58 440.387 157.745 443.123 159.557C446.407 161.671 448.894 164.842 451.133 168.013C455.66 174.405 459.69 181.351 461.183 189.153C461.382 190.109 462.824 189.706 462.625 188.75C460.884 179.438 455.511 170.479 449.442 163.332C445.909 159.204 435.91 151.403 431.382 158.5C430.885 159.255 432.178 160.06 432.676 159.204Z" fill="#161616"/>
<path d="M435.761 162.627C447.701 169.422 454.417 182.156 457.8 195.142C458.049 196.099 459.491 195.696 459.243 194.74C455.76 181.401 448.745 168.264 436.507 161.318C435.661 160.815 434.915 162.124 435.761 162.627Z" fill="#161616"/>
<path d="M462.626 188.498C463.869 179.589 469.491 172.14 477.202 167.862C481.182 165.647 485.61 164.288 490.137 163.634C492.277 163.332 494.764 163.03 496.854 163.835C499.142 164.691 501.331 168.365 498.446 170.026C497.6 170.479 498.346 171.788 499.192 171.335C502.376 169.523 501.58 164.892 498.794 163.13C494.466 160.362 487.302 162.325 482.874 163.835C471.929 167.409 462.874 176.368 461.233 188.196C461.034 189.052 462.476 189.455 462.626 188.498Z" fill="#161616"/>
<path d="M465.959 190.763C468.397 187.894 471.481 185.478 474.466 183.213C477.352 180.999 480.436 179.187 484.018 178.381C484.964 178.18 484.566 176.72 483.62 176.922C479.939 177.777 476.705 179.64 473.72 181.905C470.636 184.27 467.452 186.737 464.914 189.706C464.268 190.411 465.312 191.518 465.959 190.763Z" fill="#161616"/>
<path d="M484.217 178.532C485.262 176.116 486.605 173.801 488.247 171.737C488.546 171.385 488.894 170.781 489.292 170.529C489.64 169.875 490.088 169.825 490.735 170.429C491.531 170.429 491.879 170.731 491.879 171.435C492.426 172.492 492.476 174.304 492.675 175.512C492.874 176.469 494.317 176.066 494.118 175.11C493.72 173.197 493.222 166.352 489.64 168.214C488.247 168.919 487.202 170.68 486.307 171.888C484.964 173.751 483.869 175.714 482.924 177.777C482.526 178.633 483.819 179.438 484.217 178.532Z" fill="#161616"/>
<path d="M493.818 175.965C496.356 172.643 501.53 168.063 505.957 170.529C506.803 170.982 507.549 169.674 506.704 169.221C501.579 166.452 495.808 170.982 492.724 174.908C492.177 175.663 493.221 176.72 493.818 175.965Z" fill="#161616"/>
<path d="M507.401 170.278C508.097 169.17 511.331 165.194 512.724 166.251C513.47 166.805 513.619 168.768 513.818 169.674C514.117 171.083 514.216 172.492 514.266 173.952C514.316 174.908 515.808 174.908 515.759 173.952C515.709 171.939 515.46 169.976 514.963 168.013C514.664 166.905 514.415 164.791 513.122 164.439C511.928 164.137 510.286 165.295 509.391 165.949C508.047 166.905 507.003 168.113 506.157 169.523C505.61 170.328 506.903 171.083 507.401 170.278Z" fill="#161616"/>
<path d="M467.899 188.297C471.332 191.669 474.964 194.79 478.844 197.609C482.675 200.377 486.406 202.34 491.232 202.088C492.177 202.038 492.177 200.528 491.232 200.578C486.307 200.83 482.675 198.615 478.844 195.797C475.312 193.179 472.029 190.31 468.894 187.24C468.248 186.586 467.203 187.643 467.899 188.297Z" fill="#161616"/>
<path d="M457.849 193.481C463.272 217.843 449.143 244.469 460.834 267.773C463.023 272.152 466.357 276.129 470.934 278.092C475.411 280.004 480.585 279.853 485.212 278.343C495.46 275.021 502.077 265.408 507.152 256.348C510.385 250.66 513.072 244.57 514.664 238.177C515.46 235.006 515.957 231.684 516.107 228.413C516.256 224.638 515.758 220.863 515.908 217.088C515.957 216.131 514.465 216.131 514.415 217.088C514.216 223.228 515.012 229.067 513.818 235.157C512.773 240.593 510.833 245.878 508.395 250.811C503.868 260.072 497.749 270.491 488.346 275.374C483.471 277.89 477.451 278.847 472.227 276.884C467.103 274.971 463.72 270.391 461.531 265.508C456.854 254.888 457.402 242.808 458.645 231.533C460.038 218.749 462.227 205.813 459.392 193.028C459.043 192.173 457.601 192.525 457.849 193.481Z" fill="#161616"/>
<path d="M479.988 243.865C477.202 248.798 475.362 254.133 474.565 259.77C474.416 260.727 475.859 261.129 476.008 260.173C476.804 254.636 478.546 249.452 481.282 244.62C481.779 243.815 480.486 243.06 479.988 243.865Z" fill="#161616"/>
<path d="M480.934 244.419C488.297 243.764 496.058 242.355 503.421 243.16C504.366 243.261 504.366 241.751 503.421 241.65C496.058 240.795 488.297 242.254 480.934 242.909C479.988 243.009 479.988 244.519 480.934 244.419Z" fill="#161616"/>
<path d="M475.312 261.129C478.944 263.294 483.172 263.092 487.252 262.992C491.53 262.841 495.809 262.337 499.54 260.072C500.386 259.569 499.59 258.26 498.794 258.764C495.262 260.928 491.282 261.331 487.252 261.482C483.471 261.633 479.491 261.884 476.058 259.871C475.262 259.368 474.516 260.676 475.312 261.129Z" fill="#161616"/>
<path d="M502.724 242.808C501.779 248.345 500.336 253.68 498.396 258.915C498.047 259.821 499.49 260.223 499.838 259.317C501.828 254.083 503.271 248.697 504.167 243.211C504.316 242.254 502.873 241.852 502.724 242.808Z" fill="#161616"/>
<path d="M479.591 246.482C482.029 251.918 488.944 253.277 494.267 253.328C495.212 253.328 495.212 251.818 494.267 251.818C489.491 251.717 483.073 250.61 480.884 245.677C480.486 244.821 479.193 245.627 479.591 246.482Z" fill="#161616"/>
<path d="M490.336 251.365C490.187 252.623 490.038 253.881 489.889 255.089C489.789 256.046 491.282 256.046 491.381 255.089C491.53 253.831 491.68 252.573 491.829 251.365C491.928 250.408 490.436 250.408 490.336 251.365Z" fill="#161616"/>
<path d="M493.172 251.365C493.023 252.623 492.874 253.881 492.774 255.14C492.675 256.096 494.167 256.096 494.267 255.14C494.416 253.881 494.565 252.623 494.665 251.365C494.764 250.408 493.272 250.408 493.172 251.365Z" fill="#161616"/>
<path d="M494.466 253.479C497.998 252.673 500.933 250.459 502.774 247.338C503.272 246.482 501.978 245.727 501.481 246.583C499.789 249.402 497.202 251.264 494.068 252.019C493.123 252.271 493.521 253.73 494.466 253.479Z" fill="#161616"/>
<path d="M483.57 175.814C482.078 184.723 483.72 195.344 492.725 199.421C493.57 199.823 494.366 198.515 493.471 198.112C485.063 194.287 483.62 184.472 485.013 176.217C485.162 175.261 483.72 174.858 483.57 175.814Z" fill="#161616"/>
<path d="M514.166 173.398C514.266 176.267 514.216 179.187 514.614 182.005C515.012 185.076 517.748 188.498 516.306 191.569C515.908 192.424 517.201 193.23 517.599 192.324C518.892 189.555 517.748 187.24 516.803 184.522C515.559 181.049 515.858 177.022 515.708 173.348C515.609 172.392 514.117 172.392 514.166 173.398Z" fill="#161616"/>
<path d="M496.804 198.364C498.993 197.206 501.48 198.414 501.978 200.83C502.028 201.082 502.376 200.981 502.326 200.729C501.729 198.062 498.993 196.753 496.605 198.011C496.406 198.162 496.605 198.515 496.804 198.364Z" fill="white"/>
<path d="M500.585 200.931C500.933 201.333 501.182 201.786 501.331 202.29C501.431 202.541 501.779 202.441 501.679 202.189C501.48 201.635 501.182 201.132 500.834 200.679C500.684 200.478 500.386 200.78 500.585 200.931Z" fill="white"/>
<path d="M510.585 197.407C511.032 195.344 512.326 193.632 514.216 192.676C514.415 192.575 514.266 192.223 514.017 192.374C512.027 193.33 510.684 195.142 510.236 197.307C510.187 197.558 510.535 197.659 510.585 197.407Z" fill="white"/>
<path d="M422.973 90.7006C419.541 92.4622 416.655 95.7842 415.362 97.2439C412.178 100.918 410.536 104.341 408.745 108.166C407.252 111.287 405.511 115.716 404.118 121.253C406.058 121.605 407.999 121.907 409.939 122.26C409.839 124.172 409.839 126.991 410.586 130.313C411.282 133.333 412.426 138.165 416.406 141.537C421.879 146.269 429.142 145.111 430.486 144.91C430.585 147.275 431.083 150.648 432.973 154.121C433.471 154.976 433.968 155.782 434.466 156.486C437.202 155.681 441.431 154.02 445.56 150.597C456.107 141.99 457.55 129.155 457.997 125.431C458.644 119.693 459.888 108.871 452.873 99.9116C445.56 90.6502 431.68 86.2712 422.973 90.7006Z" fill="white"/>
<path d="M412.775 101.17C414.168 99.0559 416.854 95.9353 419.889 93.7709C424.765 90.2979 426.954 91.7576 429.441 88.6873C431.232 86.4726 432.376 82.8486 431.033 81.1373C428.894 78.4193 421.282 81.6909 420.287 82.1439C418.098 83.1003 410.884 86.1706 407.999 93.9219C405.611 100.415 407.203 107.512 408.297 107.663C408.596 107.713 408.795 107.21 410.387 104.744C411.133 103.485 411.979 102.328 412.775 101.17Z" fill="#5B399B"/>
<path d="M423.62 86.0196C423.222 87.3283 422.625 89.9456 424.615 95.0796C428.148 104.291 436.406 112.545 440.535 111.035C441.431 110.683 442.376 109.777 444.167 109.676C444.615 109.676 446.406 109.576 447.799 110.683C449.988 112.445 450.087 116.27 448.645 118.736C448.396 119.189 447.053 121.253 445.013 121.404C443.222 121.555 442.625 120.146 441.182 120.045C437.65 119.844 434.615 127.696 434.217 128.753C433.421 130.766 431.481 136.001 432.874 142.695C433.172 144.155 433.869 147.225 436.008 150.396C440.635 157.191 448.396 158.852 451.281 159.456C454.117 160.06 464.913 162.325 473.321 155.278C474.664 154.171 479.092 150.346 480.286 143.853C482.325 132.88 473.221 124.676 472.674 124.223C472.276 118.535 470.933 109.475 466.206 99.5593C463.221 93.2676 460.435 87.4793 454.117 83.1003C445.809 77.4126 433.72 75.8019 427.401 80.7346C426.754 81.3386 424.615 83.0499 423.62 86.0196Z" fill="#5B399B"/>
<path d="M414.168 140.027C413.422 140.782 411.233 143.098 410.835 146.722C410.288 151.755 413.621 155.228 414.317 155.933C417.949 159.708 424.019 161.218 428.397 158.953C428.745 158.802 432.576 156.738 432.725 153.768C432.775 152.46 432.078 151.805 431.083 148.886C430.436 146.973 430.038 145.413 429.74 144.356C428.397 144.809 426.108 145.413 423.272 145.01C418.198 144.356 415.064 141.034 414.168 140.027Z" fill="#5B399B"/>
<path opacity="0.12" d="M424.118 90.4489C424.168 92.0092 424.367 94.3246 425.412 96.7909C426.108 98.4519 426.805 99.4586 427.352 100.264C429.441 103.485 430.138 106.505 431.232 109.878C432.974 115.112 432.675 119.491 432.327 124.927C432.028 129.457 431.033 136.353 427.8 144.356C429.143 144.759 431.083 145.564 433.173 146.973C437.003 149.591 438.745 152.711 439.839 154.171C442.078 157.141 447.053 160.261 459.043 160.06C457.849 158.852 456.157 157.04 454.316 154.825C449.988 149.691 446.207 145.212 443.968 139.776C442.675 136.655 440.685 130.263 442.227 121.001C443.62 121.706 445.262 121.656 446.555 120.8C447.899 119.894 448.744 118.082 448.297 116.421C447.749 114.508 445.461 113.2 443.123 113.804C442.625 112.545 441.829 110.733 440.536 108.77C438.496 105.7 436.357 103.787 435.561 103.083C433.023 100.868 429.342 97.0929 424.118 90.4489Z" fill="#606060"/>
<path opacity="0.14" d="M404.666 120.347C404.716 119.542 407.253 118.887 409.392 119.038C411.283 119.189 413.522 120.045 413.472 120.8C413.422 121.505 411.333 122.058 409.79 122.109C407.402 122.209 404.666 121.152 404.666 120.347Z" fill="#606060"/>
<path d="M410.835 101.623C407.999 107.915 405.462 114.307 403.273 120.85C403.124 121.253 403.422 121.656 403.77 121.756C405.711 122.511 407.651 122.864 409.691 122.813C410.636 122.813 410.636 121.303 409.691 121.303C407.75 121.303 405.959 120.951 404.168 120.297C404.318 120.599 404.517 120.901 404.666 121.203C406.805 114.76 409.243 108.468 412.079 102.328C412.526 101.522 411.233 100.717 410.835 101.623Z" fill="#161616"/>
<path d="M409.491 123.115C409.889 129.608 410.486 136.806 415.262 141.688C419.839 146.42 426.456 146.017 432.476 145.312C433.421 145.212 433.421 143.702 432.476 143.802C426.904 144.457 420.586 145.01 416.307 140.631C411.83 136.051 411.382 129.206 410.984 123.115C410.934 122.159 409.442 122.159 409.491 123.115Z" fill="#161616"/>
<path d="M429.541 145.463C430.188 148.987 431.382 152.359 433.073 155.48C433.521 156.335 434.815 155.58 434.367 154.725C432.725 151.654 431.631 148.483 430.984 145.061C430.835 144.104 429.392 144.507 429.541 145.463Z" fill="#161616"/>
<path d="M410.487 130.816C412.925 132.981 416.556 131.974 417.502 128.803C417.8 127.847 416.357 127.494 416.059 128.4C415.462 130.414 413.124 131.169 411.581 129.709C410.835 129.105 409.79 130.162 410.487 130.816Z" fill="#161616"/>
<path d="M415.063 128.753C415.859 128.954 416.456 129.407 416.954 130.011C417.203 130.313 417.75 130.263 417.999 130.011C418.297 129.709 418.247 129.256 417.999 128.954C417.352 128.149 416.456 127.545 415.461 127.293C414.566 127.041 414.168 128.501 415.063 128.753Z" fill="#161616"/>
<path d="M417.302 109.928C417.7 107.814 420.287 108.217 421.68 108.972C422.874 109.626 423.72 110.683 424.218 111.941C424.566 112.847 426.009 112.445 425.66 111.539C424.864 109.374 423.223 107.663 420.934 107.059C418.845 106.505 416.357 107.16 415.909 109.525C415.71 110.482 417.153 110.884 417.302 109.928Z" fill="#161616"/>
<path d="M417.253 101.019C419.492 97.2439 423.87 100.163 424.765 103.334C425.014 104.291 426.457 103.888 426.208 102.932C425.561 100.616 423.969 98.4519 421.532 97.8479C419.343 97.3446 417.104 98.3009 415.96 100.214C415.462 101.12 416.756 101.875 417.253 101.019Z" fill="#161616"/>
<path d="M418.745 118.485C419.69 118.485 419.69 116.975 418.745 116.975C417.8 116.975 417.75 118.485 418.745 118.485Z" fill="#161616"/>
<path d="M421.581 116.22C421.631 116.22 421.73 116.22 421.78 116.22C422.178 116.22 422.526 115.867 422.526 115.465C422.526 115.062 422.178 114.71 421.78 114.71C421.73 114.71 421.631 114.71 421.581 114.71C421.183 114.71 420.835 115.062 420.835 115.465C420.835 115.918 421.183 116.22 421.581 116.22Z" fill="#161616"/>
<path d="M421.631 118.787C421.631 118.837 421.631 118.887 421.631 118.938C421.631 119.894 423.123 119.894 423.123 118.938C423.123 118.887 423.123 118.837 423.123 118.787C423.123 117.83 421.631 117.83 421.631 118.787C421.631 118.837 421.631 118.887 421.631 118.938C421.631 119.894 423.123 119.894 423.123 118.938C423.123 118.887 423.123 118.837 423.123 118.787C423.123 117.83 421.631 117.83 421.631 118.787Z" fill="#161616"/>
<path d="M443.321 111.086C444.665 109.123 446.953 110.381 447.749 111.992C448.396 113.25 448.396 114.76 448.346 116.119C448.147 119.542 445.311 121.958 442.028 119.844C441.232 119.29 440.486 120.599 441.282 121.152C443.222 122.461 445.709 122.612 447.65 121.102C449.64 119.542 449.988 116.975 449.839 114.559C449.689 112.243 448.794 109.676 446.406 108.821C444.714 108.217 443.023 108.871 442.028 110.331C441.53 111.086 442.824 111.841 443.321 111.086Z" fill="#161616"/>
<path d="M309.495 82.3454C308.45 82.3454 307.405 82.3957 306.41 82.3957C304.719 85.7177 303.774 88.7377 303.226 90.9524C301.634 97.4454 302.032 102.831 302.331 105.448C302.53 107.21 302.828 108.67 303.077 109.676C303.973 109.676 304.868 109.676 305.764 109.676C306.112 110.884 306.46 112.092 306.808 113.3C315.216 113.25 322.131 113.25 326.957 113.3C356.21 113.552 376.608 114.71 381.334 114.961C387.254 115.314 392.08 115.666 395.065 115.867C395.164 114.005 395.662 113.351 396.11 113.149C396.906 112.797 397.602 113.653 398.647 113.451C399.741 113.25 400.438 112.092 400.886 111.035C401.781 111.488 403.423 112.092 405.363 111.79C405.811 111.74 406.209 111.589 406.557 111.488C407.403 109.777 408.249 108.066 409.094 106.354C407.9 105.952 406.209 105.599 404.169 105.599C403.025 105.599 402.03 105.75 401.184 105.901C401.085 105.65 400.289 103.385 398.199 102.881C397.552 102.73 397.005 102.781 396.557 102.881C396.259 102.328 395.96 101.774 395.662 101.22C394.468 101.019 392.627 100.717 390.438 100.314C372.677 97.0427 360.29 93.0664 350.837 90.1974C341.783 87.429 328.599 83.654 311.684 79.4763C310.987 80.4327 310.241 81.389 309.495 82.3454Z" fill="white"/>
<path opacity="0.07" d="M302.479 101.875C302.927 101.774 303.425 102.932 303.972 102.781C304.867 102.579 304.668 99.4084 304.867 97.0427C305.017 94.7777 305.663 91.506 307.852 87.5297C309.295 88.1337 311.484 89.09 314.121 90.2477C323.623 94.4254 330.19 97.6467 332.18 98.5527C345.314 104.744 359.742 107.512 363.373 108.217C371.632 109.827 383.074 111.237 396.805 110.633C396.208 112.294 395.611 113.955 395.014 115.616C392.726 115.565 389.393 115.565 385.313 115.465C367.801 115.112 355.563 114.559 348.548 114.257C338.648 113.854 324.469 113.451 306.559 113.502C306.36 112.143 306.161 110.784 305.962 109.425C304.818 109.626 303.673 109.827 302.529 110.029C301.783 103.737 301.982 101.975 302.479 101.875Z" fill="#606060"/>
<path d="M310.539 79.5267C304.321 89.241 302.579 101.321 305.763 112.445C306.012 113.401 307.455 112.998 307.206 112.042C304.122 101.271 305.813 89.694 311.833 80.2817C312.38 79.426 311.087 78.671 310.539 79.5267Z" fill="#161616"/>
<path d="M311.833 80.9863C339.842 88.1336 367.802 95.281 395.811 102.378C396.756 102.63 397.154 101.17 396.209 100.918C368.2 93.771 340.24 86.6236 312.231 79.5266C311.335 79.275 310.937 80.7346 311.833 80.9863Z" fill="#161616"/>
<path d="M306.809 114.106C336.012 113.854 365.215 114.559 394.369 116.169C395.314 116.22 395.314 114.71 394.369 114.659C365.215 113.049 336.012 112.344 306.809 112.596C305.863 112.596 305.863 114.106 306.809 114.106Z" fill="#161616"/>
<path d="M395.363 101.824C397.353 106.304 396.906 111.388 394.169 115.465C393.622 116.27 394.916 117.025 395.463 116.22C398.498 111.69 398.896 106.052 396.657 101.069C396.259 100.214 394.965 100.969 395.363 101.824Z" fill="#161616"/>
<path d="M396.856 103.787C397.403 104.19 397.801 104.039 398.448 104.19C399.692 104.542 400.189 105.7 400.438 106.908C400.836 109.123 400.289 113.804 397.055 112.495C396.16 112.143 395.762 113.602 396.657 113.955C399.941 115.263 402.08 111.79 402.08 108.871C402.08 107.26 401.881 105.448 400.985 104.089C400.687 103.636 400.289 103.183 399.791 102.932C399.145 102.63 398.249 102.831 397.702 102.428C396.806 101.925 396.06 103.234 396.856 103.787Z" fill="#161616"/>
<path d="M401.233 106.556C403.771 106.405 406.308 106.455 408.795 106.807C409.741 106.908 409.741 105.398 408.795 105.297C406.258 104.995 403.771 104.895 401.233 105.046C400.288 105.146 400.288 106.656 401.233 106.556Z" fill="#161616"/>
<path d="M401.035 112.092C403.074 112.445 405.114 112.596 407.154 112.394C408.099 112.294 408.099 110.784 407.154 110.884C405.214 111.035 403.323 110.985 401.433 110.633C400.487 110.482 400.089 111.891 401.035 112.092Z" fill="#161616"/>
<path d="M309.694 81.9426C304.868 79.1239 303.525 87.9323 302.878 90.7006C301.385 97.0929 300.689 103.687 302.53 110.079C302.629 110.381 302.928 110.633 303.226 110.633C303.873 110.633 304.569 110.633 305.216 110.633C306.161 110.633 306.161 109.123 305.216 109.123C304.569 109.123 303.873 109.123 303.226 109.123C303.475 109.324 303.724 109.475 303.923 109.676C302.629 105.046 302.629 100.365 303.375 95.6333C303.724 93.5193 304.171 91.4053 304.719 89.3416C305.067 87.9826 306.161 81.5903 308.898 83.2513C309.793 83.7546 310.539 82.4459 309.694 81.9426Z" fill="#161616"/>
<path d="M363.473 92.7643C362.577 91.657 361.085 91.808 360.886 91.808C359.244 91.9087 357.652 93.4187 355.911 97.093C352.528 104.089 352.378 111.086 352.378 112.193C352.329 117.025 352.776 124.877 356.159 134.239C356.458 138.165 357.105 143.651 358.547 150.044C361.085 161.52 363.771 173.6 373.025 184.321C376.507 188.398 383.373 196.3 395.313 199.169C407.8 202.189 417.949 197.709 420.436 196.552C422.625 195.495 428.745 192.374 433.919 185.78C437.053 181.804 440.685 177.475 440.088 172.14C439.839 169.825 438.844 167.862 437.351 164.741C435.859 161.62 435.063 160.06 433.471 159.456C431.282 158.6 428.944 160.11 426.357 161.62C421.979 164.137 421.581 166.553 416.854 169.07C415.611 169.724 414.367 170.177 411.88 170.982C407.949 172.291 404.069 173.6 400.487 173.851C392.676 174.405 386.407 169.875 384.616 168.566C378 163.785 375.413 157.392 373.721 153.215C369.94 143.853 370.239 135.246 370.885 130.212C373.224 129.81 374.666 128.853 375.363 128.3C378 126.236 378.646 123.367 379.641 118.938C380.288 116.169 380.587 114.71 379.89 114.156C378.447 113.049 374.02 116.673 373.025 117.528C373.224 114.106 373.721 111.337 374.219 109.374C374.865 106.757 375.214 105.398 376.109 104.341C377.85 102.277 379.89 102.479 380.587 100.516C380.985 99.4587 380.935 97.999 380.089 97.1433C379.094 96.1367 376.955 96.187 375.114 97.6467C374.517 96.338 373.323 95.5327 372.03 95.4823C370.736 95.432 369.89 96.2373 369.642 96.4387C369.791 95.0797 369.194 93.8213 368.199 93.318C366.856 92.6133 364.716 93.4187 363.92 95.4823C363.97 95.2307 364.318 93.8213 363.473 92.7643Z" fill="white"/>
<path opacity="0.12" d="M360.886 91.8079C359.692 93.9219 358.199 97.0426 357.204 101.12C355.015 109.978 356.806 117.377 357.602 120.951C366.159 157.845 362.428 158.751 368.398 167.409C370.587 170.529 385.611 191.468 407.999 188.7C426.755 186.384 436.705 169.12 437.998 166.805C438.744 168.818 439.64 172.241 439.043 176.318C438.147 182.307 434.466 186.082 433.123 187.492C431.829 188.8 430.237 189.958 427.003 192.223C424.118 194.287 421.282 196.099 420.038 196.753C414.118 200.125 404.964 200.931 398.596 200.075C381.283 197.76 370.885 181.15 366.557 174.254C356.657 158.5 355.662 142.544 355.761 134.591C354.816 131.37 353.871 128.098 352.926 124.877C352.279 119.894 352.229 115.767 352.329 112.898C352.577 105.7 352.776 100.314 356.408 95.7339C358 93.7206 359.741 92.5126 360.886 91.8079Z" fill="#606060"/>
<path d="M428.247 191.468C436.107 187.693 441.381 179.791 440.087 170.831C439.341 165.395 435.013 156.033 428.098 159.355C425.013 160.865 422.476 163.634 419.64 165.597C415.71 168.315 411.183 170.429 406.655 171.888C400.884 173.751 394.467 174.153 388.895 171.335C384.815 169.271 381.631 165.899 379.193 162.073C373.82 153.668 371.034 143.752 371.681 133.736C371.731 132.779 370.238 132.779 370.189 133.736C369.641 142.192 371.482 150.245 375.164 157.795C378.397 164.54 383.124 170.882 390.288 173.6C398.994 176.871 408.496 173.549 416.357 169.372C419.889 167.459 422.924 164.993 426.108 162.526C428.993 160.261 431.879 159.154 434.814 162.174C438.446 165.899 439.54 172.392 438.446 177.324C437.102 183.213 432.774 187.643 427.501 190.159C426.655 190.562 427.401 191.871 428.247 191.468Z" fill="#161616"/>
<path d="M371.582 134.39C370.935 131.622 372.875 130.917 374.666 129.608C375.711 128.853 376.507 127.796 377.253 126.739C379.144 123.971 380.636 120.75 381.034 117.377C381.233 115.716 381.582 113.099 379.343 112.998C376.706 112.898 375.612 116.27 373.124 116.522C372.179 116.622 372.179 118.132 373.124 118.032C375.015 117.83 375.96 116.622 377.402 115.515C378.248 114.861 379.193 114.106 379.641 115.565C379.89 116.371 379.492 117.881 379.293 118.686C378.945 120.397 378.198 122.058 377.402 123.619C376.656 125.028 375.81 126.488 374.666 127.645C373.621 128.753 372.179 129.004 371.035 129.91C369.492 131.118 369.741 133.182 370.139 134.843C370.388 135.749 371.831 135.346 371.582 134.39Z" fill="#161616"/>
<path d="M354.219 126.437C353.224 119.944 353.125 113.3 354.12 106.807C354.518 104.19 355.015 101.522 355.911 99.0056C356.458 97.4453 357.204 95.6333 358.299 94.375C359.791 92.714 362.727 91.8583 363.523 94.677C363.771 95.6333 365.214 95.2306 364.965 94.2743C364.269 91.8583 361.98 90.5496 359.592 91.506C356.558 92.7643 355.115 96.5393 354.17 99.4083C351.384 108.116 351.384 117.881 352.727 126.84C352.926 127.796 354.369 127.394 354.219 126.437Z" fill="#161616"/>
<path d="M361.433 100.465C362.627 97.4956 366.01 91.5059 369.692 95.5829C370.338 96.2876 371.383 95.2306 370.736 94.5259C369.045 92.6636 366.607 92.3616 364.468 93.6199C362.08 94.9789 360.985 97.6466 359.99 100.113C359.642 100.969 361.085 101.371 361.433 100.465Z" fill="#161616"/>
<path d="M367.702 101.724C367.751 99.8109 368.498 97.6969 370.338 96.7909C371.881 96.0359 373.721 96.3882 374.766 97.7472C375.363 98.5022 376.408 97.4452 375.811 96.6902C374.368 94.8782 371.781 94.4252 369.741 95.3816C367.353 96.5392 366.259 99.1566 366.209 101.724C366.159 102.68 367.652 102.68 367.702 101.724Z" fill="#161616"/>
<path d="M372.03 102.227C372.926 98.8546 376.657 95.7843 379.891 98.5023C380.637 99.1063 381.682 98.0493 380.935 97.4453C376.806 94.0226 371.831 97.244 370.587 101.824C370.339 102.781 371.781 103.183 372.03 102.227Z" fill="#161616"/>
<path d="M379.592 98.2507C381.184 100.516 377.652 101.925 376.408 102.982C375.364 103.838 374.767 104.945 374.319 106.203C373.125 109.676 372.578 113.451 372.279 117.075C372.18 118.032 373.672 118.032 373.772 117.075C374.02 114.408 374.418 111.74 375.065 109.123C375.264 108.267 375.463 107.411 375.762 106.556C376.408 104.794 377.354 104.14 378.796 103.083C380.587 101.774 382.478 99.66 380.886 97.395C380.339 96.6903 379.045 97.4453 379.592 98.2507Z" fill="#161616"/>
<path d="M352.378 124.927C353.174 128.35 354.169 131.722 355.413 135.044C355.761 135.95 357.204 135.548 356.856 134.642C355.612 131.32 354.617 127.947 353.821 124.525C353.622 123.568 352.179 123.971 352.378 124.927Z" fill="#161616"/>
<path d="M355.165 136.001C357.055 153.315 361.284 171.083 372.776 184.572C381.93 195.293 396.457 203.447 410.785 200.78C417.551 199.521 423.72 196.099 428.646 191.317C429.342 190.663 428.297 189.555 427.601 190.26C417.75 199.823 403.721 202.34 391.234 196.652C377.801 190.461 368.398 178.834 363.075 165.093C359.493 155.782 357.702 145.916 356.608 136.051C356.558 135.044 355.065 135.044 355.165 136.001Z" fill="#161616"/>
</svg>
