<svg viewBox="0 0 716 538" fill="none" xmlns="http://www.w3.org/2000/svg">
<path d="M440.698 85.6317C443.965 79.7586 451.751 83.4797 455.6 86.4836C459.538 89.5322 463.252 92.7602 468.443 93.1189C477.527 93.7914 485.582 87.0664 493.369 83.4797C498.202 81.2381 503.348 79.8482 508.629 81.1484C513.999 82.4486 518.653 85.4972 523.844 87.2906C528.319 88.8149 532.883 88.9046 537.09 86.5732C542.773 83.4349 546.845 78.3687 554.005 79.4896C560.852 80.5656 566.401 85.2731 573.113 86.7974C577.946 87.8734 583.361 87.5596 586.762 83.5694C587.299 82.8969 586.359 81.9554 585.822 82.6279C581.974 87.1561 575.53 86.4387 570.473 84.6454C564.7 82.6279 559.644 78.7722 553.423 78.0549C547.382 77.3824 543.31 80.7449 538.656 83.9729C536.239 85.6317 533.644 86.9767 530.646 87.1112C527.782 87.2457 525.007 86.3939 522.367 85.3179C517.31 83.3004 512.522 80.2966 507.062 79.4896C502.632 78.8171 498.336 79.8931 494.264 81.6416C485.851 85.2282 476.767 93.4327 467.011 91.6394C460.657 90.4737 457.032 84.5557 451.259 82.2244C447.232 80.6104 441.862 80.7897 439.535 84.9592C439.132 85.6766 440.295 86.3939 440.698 85.6317Z" fill="#E8E8E8"/>
<path d="M506.972 70.4783C511.134 61.7358 522.724 65.7259 529.302 68.4608C533.285 70.1196 537.447 71.7336 541.832 71.5543C545.457 71.4198 548.903 70.2541 552.17 68.8643C559.732 65.5914 567.474 60.2563 576.111 62.5876C583.718 64.6948 590.341 71.0163 598.71 69.2229C603.543 68.1918 607.57 65.0086 612.269 63.6636C618.489 61.9151 624.486 64.6948 629.99 67.3848C630.751 67.7434 631.467 66.6226 630.661 66.2191C626.231 64.0671 621.577 61.8254 616.52 61.7358C611.956 61.6909 608.018 63.8878 604.035 65.7708C599.292 68.0573 594.906 68.9091 589.849 67.0709C585.687 65.5914 581.928 63.0808 577.722 61.6461C569.488 58.8664 562.059 62.6324 554.72 66.1743C550.738 68.0573 546.576 69.9403 542.101 70.1644C537.044 70.4334 532.435 68.2814 527.87 66.3984C520.979 63.5739 509.836 61.2426 505.764 69.7609C505.451 70.5679 506.614 71.2853 506.972 70.4783Z" fill="#E8E8E8"/>
<path d="M113.307 386.105C113.799 383.594 116.216 382.339 118.632 382.294C121.407 382.249 123.823 384.042 125.837 385.746C129.059 388.526 132.37 392.202 136.98 392.337C140.783 392.471 143.468 389.781 145.974 387.315C149.017 384.267 152.195 382.204 156.625 382.922C163.83 384.042 169.647 389.422 176.852 390.454C180.432 390.947 183.52 389.96 186.384 387.808C188.218 386.419 189.829 384.76 191.933 383.818C194.662 382.563 197.75 382.563 200.659 383.056C209.877 384.625 220.931 392.471 229.791 385.701C230.462 385.163 229.791 383.998 229.12 384.536C220.394 391.171 209.206 382.877 200.077 381.621C195.334 380.994 191.351 382.07 187.637 385.074C185.757 386.598 183.922 388.257 181.551 388.974C179.582 389.512 177.523 389.378 175.509 388.929C168.528 387.27 162.621 381.935 155.282 381.532C151.747 381.352 148.794 382.877 146.243 385.208C142.35 388.795 138.859 393.009 133.131 389.96C128.611 387.539 125.658 382.384 120.422 381.218C116.976 380.456 112.725 382.07 111.964 385.836C111.875 386.598 113.173 386.957 113.307 386.105Z" fill="#E8E8E8"/>
<path d="M187.234 372.879C188.263 369.696 191.888 368.978 194.841 369.292C198.287 369.651 201.285 371.713 204.552 372.744C207.55 373.686 210.325 373.641 213.233 372.43C216.187 371.22 219.319 368.754 222.676 369.337C225.674 369.875 227.553 372.699 230.417 373.641C232.968 374.448 235.474 373.596 237.801 372.386C241.292 370.592 244.245 368.664 248.317 368.754C252.658 368.844 256.82 370.637 260.713 372.386C261.519 372.744 262.19 371.579 261.384 371.22C257.804 369.651 254.18 368.082 250.286 367.588C246.483 367.095 243.216 367.947 239.86 369.74C236.011 371.803 232.565 373.91 228.493 371.085C226.032 369.382 223.973 367.588 220.796 367.947C217.44 368.306 214.71 370.592 211.578 371.623C207.147 373.058 203.165 370.772 199.137 369.113C194.752 367.364 187.681 366.916 185.891 372.52C185.667 373.327 186.965 373.686 187.234 372.879Z" fill="#E8E8E8"/>
<path d="M180.655 70.7024C181.192 73.8856 184.235 76.2169 187.457 76.1721C190.858 76.1273 193.14 73.2579 193.23 70.0299C193.319 66.8468 191.261 63.9326 187.994 63.6188C184.727 63.3049 181.461 65.4121 180.7 68.6849C180.521 69.5368 181.819 69.8954 181.998 69.0436C182.579 66.6226 184.862 64.9638 187.323 64.9638C190.142 64.9638 191.977 67.3848 191.887 70.0748C191.664 76.3066 182.937 76.1721 181.953 70.4334C181.819 69.4919 180.521 69.8506 180.655 70.7024Z" fill="#E8E8E8"/>
<path d="M180.029 281.419C182.254 281.419 184.057 279.612 184.057 277.384C184.057 275.155 182.254 273.349 180.029 273.349C177.805 273.349 176.002 275.155 176.002 277.384C176.002 279.612 177.805 281.419 180.029 281.419Z" stroke="#E8E8E8" stroke-miterlimit="10"/>
<path d="M300.496 491.105C308.059 491.105 314.19 484.962 314.19 477.386C314.19 469.809 308.059 463.667 300.496 463.667C292.934 463.667 286.803 469.809 286.803 477.386C286.803 484.962 292.934 491.105 300.496 491.105Z" stroke="#E8E8E8" stroke-miterlimit="10"/>
<path d="M583.674 181.844C587.9 181.844 591.326 178.412 591.326 174.178C591.326 169.944 587.9 166.511 583.674 166.511C579.448 166.511 576.021 169.944 576.021 174.178C576.021 178.412 579.448 181.844 583.674 181.844Z" stroke="#E8E8E8" stroke-miterlimit="10"/>
<path d="M256.462 34.2527C261.295 28.1554 269.932 33.3112 275.839 34.2527C282.104 35.2391 286.4 31.5179 291.367 28.3347C294.455 26.3621 297.409 25.3757 301.123 25.8241C304.3 26.1827 307.477 27.1691 310.699 26.4966C312.355 26.1379 313.877 25.3309 315.443 24.7032C317.636 23.8514 319.784 23.5824 322.111 24.0307C326.093 24.7929 329.673 27.0794 332.985 29.3211C333.701 29.8142 334.372 28.6486 333.656 28.1554C330.345 25.9586 326.809 23.6721 322.827 22.8202C319.426 22.0581 316.562 22.7754 313.429 24.1204C309.178 25.9586 305.598 24.9722 301.212 24.4791C297.99 24.1204 295.126 24.6584 292.307 26.2276C289.488 27.7967 287.027 29.9039 284.163 31.4731C280.314 33.5354 276.51 33.2664 272.393 32.0559C267.023 30.4867 259.774 28.0209 255.523 33.3112C254.986 33.9837 255.925 34.9252 256.462 34.2527Z" fill="#E8E8E8"/>
<path d="M290.92 48.4647C294.724 41.5603 303.405 40.843 310.386 42.0983C314.235 42.7708 317.994 44.0262 321.842 44.7435C324.751 45.2815 327.078 44.9677 329.45 43.1743C332.358 40.9327 334.73 39.0945 338.579 39.0945C342.114 39.0945 345.56 40.2602 348.782 41.5603C355.047 44.1158 361.849 47.6128 368.606 44.8332C369.411 44.5193 369.053 43.2192 368.248 43.533C360.461 46.7162 352.943 41.3362 345.739 39.0048C342.74 38.0633 339.518 37.3908 336.386 37.884C332.94 38.422 330.971 40.4395 328.286 42.3673C324.572 45.0125 319.694 42.8605 315.711 41.8742C311.908 40.9327 308.014 40.0808 304.076 40.1705C298.438 40.305 292.62 42.6363 289.756 47.7922C289.354 48.5543 290.517 49.2268 290.92 48.4647Z" fill="#E8E8E8"/>
<path d="M145.035 457.883C149.83 457.883 153.717 453.989 153.717 449.185C153.717 444.382 149.83 440.488 145.035 440.488C140.24 440.488 136.354 444.382 136.354 449.185C136.354 453.989 140.24 457.883 145.035 457.883Z" stroke="#E8E8E8" stroke-miterlimit="10"/>
<path d="M169.513 302.311C171.885 302.311 173.809 300.384 173.809 298.007C173.809 295.63 171.885 293.703 169.513 293.703C167.14 293.703 165.217 295.63 165.217 298.007C165.217 300.384 167.14 302.311 169.513 302.311Z" fill="#2CA58D"/>
<path d="M562.821 386.688C564.452 386.688 565.774 385.363 565.774 383.729C565.774 382.094 564.452 380.77 562.821 380.77C561.19 380.77 559.867 382.094 559.867 383.729C559.867 385.363 561.19 386.688 562.821 386.688Z" fill="#FFBD00"/>
<path d="M424.633 44.1159C427.475 44.1159 429.779 41.8075 429.779 38.96C429.779 36.1125 427.475 33.8042 424.633 33.8042C421.79 33.8042 419.486 36.1125 419.486 38.96C419.486 41.8075 421.79 44.1159 424.633 44.1159Z" fill="#2CA58D"/>
<path d="M208.669 334.143C212.03 334.143 214.755 331.413 214.755 328.046C214.755 324.678 212.03 321.948 208.669 321.948C205.308 321.948 202.583 324.678 202.583 328.046C202.583 331.413 205.308 334.143 208.669 334.143Z" fill="#ED6A5A"/>
<path d="M531.63 144.184C534.571 144.184 536.955 141.795 536.955 138.849C536.955 135.902 534.571 133.514 531.63 133.514C528.689 133.514 526.305 135.902 526.305 138.849C526.305 141.795 528.689 144.184 531.63 144.184Z" fill="#ED6A5A"/>
<path d="M208.669 465.37C212.03 465.37 214.755 462.64 214.755 459.273C214.755 455.905 212.03 453.175 208.669 453.175C205.308 453.175 202.583 455.905 202.583 459.273C202.583 462.64 205.308 465.37 208.669 465.37Z" fill="#ED6A5A"/>
<path d="M470.233 437.349C471.575 434.57 474.887 433.09 477.885 433.987C480.48 434.749 481.554 437.574 483.926 438.694C488.133 440.712 490.683 435.466 493.682 433.628C498.291 430.804 501.871 437.708 506.614 436.632C509.389 436.004 510.821 433.045 513.64 432.238C515.162 431.79 516.817 431.835 518.339 432.283C520.039 432.821 521.382 434.076 522.993 434.749C524.067 435.242 525.186 435.466 526.304 435.063C527.871 434.525 528.766 433 530.377 432.462C534.136 431.252 538.342 433.807 541.385 435.78C542.101 436.273 542.773 435.108 542.057 434.615C539.506 432.956 536.731 431.386 533.688 430.938C532.48 430.759 531.182 430.759 530.019 431.162C528.497 431.611 527.692 432.911 526.349 433.494C523.977 434.525 522.232 432.642 520.308 431.655C519.144 431.073 517.936 430.669 516.594 430.579C513.909 430.355 511.403 431.297 509.344 433.09C507.912 434.345 506.749 435.69 504.645 435.242C503.258 434.973 502.005 434.032 500.797 433.314C498.962 432.238 496.859 431.117 494.666 431.7C492.518 432.283 491.041 434.076 489.52 435.556C488.625 436.453 487.596 437.484 486.298 437.708C484.374 438.067 483.121 436.453 481.957 435.197C478.288 431.297 471.665 431.476 469.114 436.677C468.711 437.439 469.875 438.112 470.233 437.349Z" fill="#E8E8E8"/>
<path d="M513.283 427.979C514.178 425.738 516.147 424.124 518.518 423.63C521.114 423.048 523.217 424.303 525.499 425.424C526.976 426.186 528.632 426.948 530.332 426.769C532.257 426.545 533.331 425.065 534.807 423.989C536.866 422.42 539.775 422.196 542.057 423.496C543.31 424.213 544.294 425.738 545.95 425.334C546.666 425.155 547.203 424.617 547.83 424.303C549.306 423.586 550.917 423.63 552.484 424.034C554.99 424.662 557.272 426.186 559.33 427.665C560.046 428.159 560.718 426.993 560.002 426.5C556.511 423.989 551.499 420.896 547.158 423.137C546.353 423.541 545.861 424.258 544.742 423.855C544.25 423.675 543.713 422.958 543.265 422.689C542.46 422.151 541.565 421.747 540.625 421.568C538.79 421.165 536.776 421.344 535.121 422.241C532.525 423.63 531.317 426.32 527.916 425.11C525.544 424.258 523.53 422.51 520.935 422.241C517.086 421.792 513.462 424.168 512.03 427.665C511.672 428.428 512.969 428.786 513.283 427.979Z" fill="#E8E8E8"/>
<path d="M521.785 335.174C523.486 332.484 527.513 332.036 529.661 334.367C530.78 335.577 531.586 337.505 533.555 337.371C534.852 337.281 535.792 336.295 536.777 335.577C538.298 334.457 539.998 333.246 541.967 333.515C544.115 333.829 545.861 336.205 548.188 335.308C549.396 334.86 550.202 333.694 551.276 333.022C552.439 332.26 553.781 331.767 555.124 331.498C558.346 330.825 561.344 331.542 564.119 333.201C566.446 334.636 567.206 332.932 569.265 331.856C572.353 330.242 576.246 330.87 578.752 333.156C579.379 333.739 580.363 332.798 579.692 332.215C577.678 330.422 575.127 329.48 572.442 329.659C571.279 329.749 570.16 329.973 569.131 330.466C567.296 331.273 566.535 332.663 564.253 331.722C561.479 330.601 559.241 329.659 556.153 329.973C553.692 330.242 551.365 331.139 549.441 332.708C548.277 333.605 547.337 334.412 545.592 333.694C544.876 333.425 544.295 332.887 543.623 332.618C542.639 332.17 541.654 332.036 540.536 332.17C538.969 332.394 537.582 333.291 536.329 334.188C535.703 334.636 535.031 335.398 534.315 335.667C532.391 336.429 531.988 335.174 531.004 334.008C528.229 330.646 522.949 330.646 520.532 334.501C520.174 335.219 521.338 335.891 521.785 335.174Z" fill="#E8E8E8"/>
<path d="M564.342 324.818C565.371 323.069 567.251 322.083 569.264 322.128C571.591 322.217 572.263 323.921 574.142 324.728C575.082 325.132 575.887 324.952 576.648 324.325C578.572 322.845 579.87 321.59 582.466 321.635C583.584 321.635 584.658 321.948 585.643 322.486C586.314 322.845 586.851 323.428 587.567 323.607C588.865 323.921 589.715 323.114 590.655 322.352C594.369 319.483 599.65 319.662 603.051 322.935C603.677 323.518 604.617 322.576 603.99 321.993C601.171 319.348 597.144 318.317 593.429 319.393C592.49 319.662 591.595 320.065 590.789 320.559C589.67 321.276 588.775 322.576 587.254 321.993C586.359 321.635 585.643 320.962 584.703 320.648C583.763 320.334 582.779 320.245 581.794 320.29C580.094 320.379 578.393 320.962 577.051 322.038C576.693 322.307 576.38 322.8 575.977 323.024C574.411 324.011 574.232 323.204 573.247 322.397C572.755 321.993 572.263 321.635 571.636 321.366C568.548 319.976 564.745 321.276 563.089 324.19C562.731 324.863 563.894 325.58 564.342 324.818Z" fill="#E8E8E8"/>
<path d="M237.041 331.049C226.48 341.451 215.74 353.107 205.045 366.064C173.452 404.397 152.33 442.774 137.965 475.323C138.815 477.52 142.35 485.949 151.703 490.835C163.114 496.798 174.212 492.718 175.913 492.046C187.951 468.284 204.463 440.757 227.017 412.467C240.219 395.878 253.509 381.576 266.129 369.337C256.463 356.604 246.752 343.827 237.041 331.049Z" fill="white" stroke="black" stroke-width="2.5" stroke-miterlimit="10"/>
<path opacity="0.14" d="M254.896 357.456C248.184 363.957 241.427 370.772 234.714 377.99C199.272 416.098 173.228 455.507 153.94 491.866C156.267 492.808 160.205 494.018 165.217 494.018C169.916 494.018 173.675 492.898 175.957 492.046C183.699 475.233 193.947 456.134 207.64 436.183C227.375 407.4 248.363 385.432 266.173 369.337C262.37 365.436 258.655 361.446 254.896 357.456Z" fill="#939393"/>
<path d="M369.457 410.808C452.226 410.808 519.324 343.585 519.324 260.661C519.324 177.737 452.226 110.514 369.457 110.514C286.687 110.514 219.589 177.737 219.589 260.661C219.589 343.585 286.687 410.808 369.457 410.808Z" fill="white" stroke="black" stroke-width="2.5" stroke-miterlimit="10"/>
<path d="M367.801 401.482C444.886 401.482 507.376 338.876 507.376 261.647C507.376 184.418 444.886 121.812 367.801 121.812C290.716 121.812 228.226 184.418 228.226 261.647C228.226 338.876 290.716 401.482 367.801 401.482Z" fill="white" stroke="black" stroke-width="2.5" stroke-miterlimit="10"/>
<path d="M208.803 203.184C207.013 203.901 202.941 205.74 199.63 210.044C196.676 213.854 195.781 217.71 195.468 219.638C202.046 224.794 207.819 228.739 212.204 231.564C225.182 239.992 232.118 242.682 233.998 243.4C242.411 246.583 247.423 246.986 248.855 247.076C252.032 247.255 257.133 247.569 262.906 245.596C267.336 244.072 270.379 241.83 278.3 234.523C287.698 225.87 292.665 220.714 292.665 220.714C312.086 200.539 311.952 202.736 318.575 194.531C325.959 185.34 336.744 171.98 332.671 165.21C330.613 161.803 325.153 160.727 316.159 158.978C310.117 157.813 307.746 158.306 306.985 158.485C301.794 159.741 298.661 163.686 295.842 167.407C286.4 179.736 281.701 185.878 278.524 190.765C276.063 194.531 271.856 201.032 265.502 209.237C261.25 214.751 258.968 217.217 255.209 218.472C251.137 219.817 247.602 219.01 240.844 217.396C238.383 216.813 233.684 215.558 225.674 211.971C221.289 209.999 215.471 207.129 208.803 203.184Z" fill="white"/>
<path opacity="0.13" d="M316.561 170.994C314.503 173.863 311.505 178.078 307.835 183.144C299.422 194.711 294.902 200.943 288.906 208.251C279.732 219.459 275.168 225.108 268.679 229.457C263.712 232.819 256.954 237.392 247.512 238.379C239.099 239.23 232.252 236.54 218.917 231.071C213.055 228.695 204.91 225.018 195.513 219.593C199.048 222.418 204.239 226.274 210.728 230.533C223.571 238.917 231.536 244.028 243.127 246.18C248.452 247.166 256.775 248.601 265.278 244.655C267.873 243.445 270.021 241.696 274.228 238.199C285.147 229.143 292.62 220.849 295.305 217.845C302.197 210.044 305.642 206.143 308.104 201.929C311.415 196.37 316.069 186.237 316.561 170.994Z" fill="#939393"/>
<path d="M306.806 157.858C299.736 159.875 294.948 166.107 290.696 171.711C285.774 178.167 281.523 185.072 277.092 191.886C272.662 198.701 268.098 205.516 262.638 211.568C259.461 215.065 256.463 218.741 251.316 218.293C246.797 217.934 242.143 217.307 237.757 216.051C232.879 214.662 228.404 212.285 223.885 209.999C218.962 207.533 214.04 205.022 209.117 202.557C208.356 202.153 207.685 203.319 208.446 203.722C216.725 207.892 224.959 212.689 233.64 216.051C237.623 217.621 241.785 218.428 246.036 218.966C250.063 219.504 254.404 220.535 257.939 217.979C261.027 215.782 263.623 212.554 266.039 209.64C268.545 206.636 270.872 203.498 273.065 200.27C277.764 193.5 282.015 186.417 286.624 179.602C289.399 175.522 292.263 171.532 295.485 167.766C298.707 164 302.287 160.458 307.164 159.068C308.015 158.889 307.657 157.589 306.806 157.858Z" fill="#212121"/>
<path d="M195.155 220.176C204.508 226.856 213.726 234.343 223.974 239.679C232.745 244.296 243.038 247.928 253.062 248.018C258.029 248.062 262.728 246.897 266.934 244.252C271.141 241.606 274.944 238.289 278.703 235.061C286.356 228.47 293.426 221.252 299.915 213.541C307.254 204.798 313.787 195.383 319.426 185.475C319.873 184.713 318.71 184.04 318.262 184.803C308.596 201.75 296.335 217.172 281.97 230.353C278.435 233.581 274.765 236.675 271.006 239.634C266.531 243.131 261.922 246 256.149 246.538C245.991 247.48 234.983 243.714 226.033 239.23C215.203 233.85 205.582 226.004 195.826 218.966C195.155 218.517 194.484 219.683 195.155 220.176Z" fill="#212121"/>
<path d="M58.5332 122.529C60.0995 127.371 62.337 134.007 65.201 141.763C75.0012 168.17 85.9202 190.586 95.8995 208.564C109.772 233.626 124.539 254.967 138.501 272.766C140.963 271.824 144.587 270.21 148.525 267.565C153.09 264.472 155.864 261.468 159.4 257.702C164.009 252.815 168.887 248.152 173.496 243.221C193.768 221.476 192.336 223.359 195.513 219.638C199.988 214.393 206.163 206.726 212.921 196.773C210.325 194.711 206.745 191.662 202.807 187.717C196.99 181.889 192.112 175.836 185.981 166.645C183.475 162.879 178.15 154.764 168.394 136.652C152.866 107.734 149.913 97.8261 148.704 93.4324C146.78 86.3936 145.796 80.4307 145.214 76.2612C134.474 80.8342 123.376 85.9901 111.92 91.7736C92.1405 101.771 74.33 112.218 58.5332 122.529Z" fill="white"/>
<path d="M57.8616 122.709C71.6446 165.3 91.2898 205.919 116.171 243.131C123.062 253.443 130.357 263.485 138.009 273.259C138.546 273.932 139.486 272.99 138.949 272.318C111.472 237.258 88.8286 198.387 71.9131 157.186C67.2143 145.753 62.9631 134.141 59.1593 122.395C58.8908 121.498 57.5931 121.857 57.8616 122.709Z" fill="#212121"/>
<path d="M58.7569 122.216C86.3229 105.089 115.187 90.0252 144.99 77.2029C145.796 76.8442 145.08 75.7234 144.319 76.0372C114.515 88.8596 85.6516 103.924 58.0856 121.05C57.3249 121.498 57.9961 122.664 58.7569 122.216Z" fill="#212121"/>
<path d="M144.542 76.2614C146.467 95.0914 154.835 112.218 163.472 128.761C171.75 144.587 180.163 160.503 190.948 174.805C196.81 182.606 203.433 189.869 210.907 196.191C211.578 196.729 212.518 195.787 211.846 195.249C198.466 183.951 188.129 169.694 179.268 154.72C174.883 147.367 170.855 139.835 166.873 132.258C162.621 124.143 158.325 116.073 154.701 107.645C150.405 97.6469 147.048 87.1559 145.93 76.2614C145.795 75.4096 144.453 75.4096 144.542 76.2614Z" fill="#212121"/>
<path d="M139.262 272.9C145.214 271.286 150.092 267.52 154.522 263.351C159.668 258.509 164.636 253.443 169.513 248.332C179.627 237.841 189.338 226.946 198.646 215.738C203.747 209.596 208.714 203.364 213.547 197.042C213.726 196.818 213.637 196.415 213.458 196.235C212.966 195.742 212.473 195.249 212.026 194.756C211.399 194.128 210.46 195.07 211.086 195.697C211.578 196.19 212.071 196.684 212.518 197.177C212.473 196.908 212.429 196.639 212.429 196.37C201.51 210.627 189.919 224.435 177.747 237.661C171.751 244.207 165.575 250.618 159.266 256.85C153.359 262.723 147.273 269.269 138.949 271.555C138.054 271.824 138.412 273.125 139.262 272.9Z" fill="#212121"/>
<path d="M96.3096 160.262C103.657 157.073 106.365 146.973 102.356 137.703C98.3481 128.433 89.1423 123.504 81.7945 126.693C74.4468 129.882 71.7396 139.982 75.7478 149.252C79.756 158.521 88.9619 163.451 96.3096 160.262Z" stroke="#212121" stroke-width="1.5" stroke-miterlimit="10"/>
<path d="M81.4009 138.938C82.7434 141.494 86.0549 146.47 89.6349 144.453C92.9911 142.525 90.3956 136.652 88.7846 134.41C88.2924 133.693 87.1289 134.365 87.6211 135.083C88.6951 136.562 91.6039 142.211 88.6504 143.422C86.0549 144.498 83.5041 140.014 82.5644 138.266C82.1616 137.504 80.9981 138.176 81.4009 138.938Z" fill="#212121"/>
<path d="M87.8893 145.17C88.471 145.798 85.5623 148.398 85.2043 148.892C84.533 149.833 84.175 150.909 83.996 152.03C83.6828 154.541 84.6225 156.962 85.5623 159.293C85.8755 160.1 87.1733 159.741 86.86 158.934C85.3385 155.168 84.3988 151.806 87.3523 148.533C88.4263 147.367 90.261 145.798 88.829 144.229C88.2473 143.601 87.3075 144.543 87.8893 145.17Z" fill="#212121"/>
<path d="M90.7535 142.839C91.917 143.87 93.0357 144.587 94.6467 144.318C95.8997 144.139 97.0185 143.466 98.2715 143.646C99.972 143.87 101.135 145.394 102.165 146.65C102.702 147.322 103.641 146.381 103.104 145.708C101.896 144.229 100.554 142.659 98.54 142.301C95.8997 141.852 94.1097 144.049 91.6932 141.897C91.0667 141.314 90.127 142.256 90.7535 142.839Z" fill="#212121"/>
<path d="M88.5153 146.425C90.4396 147.546 92.0506 145.708 92.7666 144.094C93.1246 143.332 91.9611 142.615 91.6031 143.422C91.2003 144.273 90.3501 145.977 89.1866 145.26C88.4258 144.811 87.7546 145.977 88.5153 146.425Z" fill="#212121"/>
<path d="M85.2038 151.223C87.9336 152.881 89.1866 157.454 89.8578 160.369C90.0368 161.22 91.3346 160.862 91.1556 160.01C90.3948 156.692 89.0076 151.94 85.875 150.057C85.159 149.609 84.443 150.774 85.2038 151.223Z" fill="#212121"/>
<path d="M96.929 143.242C98.0925 146.56 99.972 149.474 102.523 151.895C103.149 152.478 104.089 151.536 103.462 150.954C101.046 148.712 99.256 146.022 98.182 142.884C97.9582 142.077 96.6605 142.435 96.929 143.242Z" fill="#212121"/>
<path d="M81.9826 134.5C82.9671 134.859 83.9516 135.128 84.9808 135.217C86.3233 135.352 87.8001 134.948 88.9188 135.979C89.6796 136.697 90.2613 138.087 90.8431 138.983C91.6486 140.239 92.4541 141.494 93.2596 142.749C93.7071 143.467 94.8706 142.794 94.4231 142.077C93.4833 140.597 92.4988 139.073 91.5591 137.593C90.9326 136.652 90.3956 135.352 89.5453 134.59C88.8741 134.007 88.1133 133.962 87.2631 133.962C85.5178 133.917 84.0411 133.872 82.3854 133.245C81.5351 132.886 81.1771 134.186 81.9826 134.5Z" fill="#212121"/>
<path d="M81.3108 133.379C81.0423 134.993 80.9529 136.607 81.0424 138.266C81.0871 139.118 82.4296 139.118 82.3849 138.266C82.2954 136.742 82.3401 135.262 82.6086 133.738C82.7429 132.886 81.4451 132.527 81.3108 133.379Z" fill="#212121"/>
<path d="M85.0701 149.654C81.8928 145.036 74.1958 134.052 82.5193 130.465C89.3661 127.506 95.0046 138.042 97.2868 142.973C97.6448 143.78 98.8083 143.063 98.4503 142.301C95.8548 136.607 89.4556 125.533 81.6691 129.389C72.8086 133.738 80.2818 145.036 83.9513 150.326C84.3988 151.043 85.5623 150.371 85.0701 149.654Z" fill="#212121"/>
<path d="M103.551 123.695C108.653 121.095 113.754 118.494 118.856 115.894C119.617 115.49 118.945 114.325 118.185 114.728C113.083 117.329 107.982 119.929 102.88 122.529C102.075 122.933 102.746 124.098 103.551 123.695Z" fill="#212121"/>
<path d="M104.715 130.689C116.663 124.637 128.432 118.27 140.023 111.635C140.783 111.187 140.112 110.021 139.351 110.469C127.761 117.15 115.992 123.471 104.044 129.524C103.283 129.882 103.954 131.048 104.715 130.689Z" fill="#212121"/>
<path d="M109.279 137.952C115.186 135.173 121.049 132.393 126.553 128.896C127.269 128.448 126.598 127.282 125.882 127.73C120.377 131.227 114.515 134.052 108.608 136.787C107.847 137.145 108.519 138.311 109.279 137.952Z" fill="#212121"/>
<path d="M112.189 145.933C122.705 140.508 133.132 134.814 143.379 128.941C144.14 128.492 143.469 127.327 142.708 127.775C132.416 133.693 122.034 139.342 111.517 144.767C110.757 145.17 111.428 146.336 112.189 145.933Z" fill="#212121"/>
<path d="M95.5411 186.596C113.754 176.15 132.012 165.794 150.36 155.572C151.121 155.168 150.449 154.002 149.689 154.406C131.341 164.628 113.083 174.984 94.8698 185.431C94.1091 185.879 94.8251 187.045 95.5411 186.596Z" fill="#212121"/>
<path d="M99.8377 195.877C107.803 190.497 116.037 185.476 124.495 180.903C125.256 180.499 124.584 179.333 123.824 179.737C115.366 184.355 107.132 189.331 99.1665 194.711C98.4505 195.204 99.1217 196.37 99.8377 195.877Z" fill="#212121"/>
<path d="M109.369 205.202C122.57 195.966 136.085 187.179 149.912 178.885C150.673 178.436 149.957 177.271 149.241 177.719C135.458 186.013 121.944 194.801 108.698 204.036C107.982 204.529 108.653 205.695 109.369 205.202Z" fill="#212121"/>
<path d="M115.903 217.845C128.836 208.43 142.037 199.418 155.507 190.81C156.223 190.362 155.552 189.196 154.836 189.645C141.366 198.253 128.165 207.264 115.232 216.679C114.516 217.172 115.187 218.338 115.903 217.845Z" fill="#212121"/>
<path d="M124.539 236.003C140.962 223.584 157.341 211.21 173.764 198.791C174.435 198.298 173.764 197.087 173.093 197.625C156.669 210.044 140.291 222.418 123.868 234.837C123.152 235.375 123.823 236.541 124.539 236.003Z" fill="#212121"/>
<path d="M136.845 244.252C148.078 234.747 159.623 225.646 171.482 216.903C172.153 216.41 171.482 215.245 170.811 215.738C158.862 224.525 147.227 233.716 135.906 243.265C135.234 243.893 136.174 244.835 136.845 244.252Z" fill="#212121"/>
<path d="M180.164 155.796C180.567 155.123 181.104 154.137 181.596 152.882C181.999 151.806 182.446 150.057 182.357 144.453C182.267 139.073 181.685 137.1 181.014 135.621C180.03 133.29 179.179 132.931 178.821 132.796C177.3 132.258 175.644 133.469 173.049 135.442C167.947 139.342 166.381 142.749 165.844 144.184C165.307 145.574 164.904 146.605 165.396 147.233C166.426 148.578 170.632 147.009 174.078 145.439C176.136 148.936 178.15 152.344 180.164 155.796Z" fill="white"/>
<path d="M181.819 154.854C183.341 148.757 183.654 141.897 181.774 135.8C181.237 134.052 180.119 132.124 178.105 131.944C175.823 131.72 173.585 134.186 171.974 135.531C169.916 137.235 167.947 139.163 166.515 141.449C165.62 142.884 163.964 145.663 164.769 147.457C166.559 151.537 174.793 145.663 176.673 144.363C177.389 143.87 176.718 142.704 176.002 143.198C174.435 144.318 172.78 145.305 171.034 146.112C170.139 146.56 169.155 147.008 168.17 147.277C165.754 147.86 166.112 145.305 166.738 143.915C168.126 140.821 170.632 138.356 173.227 136.248C174.928 134.859 178.239 131.675 179.984 134.903C181.014 136.742 181.282 139.521 181.506 141.628C181.953 145.977 181.595 150.326 180.521 154.54C180.298 155.347 181.595 155.706 181.819 154.854Z" fill="#212121"/>
<path d="M351.198 312.174C351.064 312.802 351.243 312.129 350.616 322.531C349.498 341.899 348.245 356.828 347.171 369.964C346.723 375.255 346.097 382.563 345.291 391.26C360.417 395.25 378.854 397.582 399.17 394.668C401.721 394.309 404.182 393.861 406.599 393.368C406.509 383.952 406.375 374.537 406.285 365.122C410.76 373.327 415.28 381.531 419.755 389.736C426.423 387.718 435.552 384.177 445.263 377.721C455.779 370.727 462.939 362.926 467.414 357.232C459.135 341.63 454.123 328.404 451.035 318.899C446.874 306.122 443.696 292.358 432.196 277.877C429.018 273.887 427.452 271.914 425.304 270.524C404.809 257.343 356.926 282.046 351.198 312.174Z" fill="white"/>
<path opacity="0.19" d="M419.352 279.67C420.828 284.198 422.35 288.771 423.827 293.344C433.045 321.858 441.503 350.103 449.245 377.945C452.601 375.345 456.584 371.803 460.477 367.14C463.386 363.643 465.623 360.236 467.368 357.232C464.37 351 460.253 342.078 455.689 331.139C449.558 316.478 443.517 301.235 443.517 301.235C436.894 285.364 434.656 280.701 430.584 274.828C427.854 270.928 425.348 267.969 423.558 265.996C422.171 270.569 420.784 275.097 419.352 279.67Z" fill="#939393"/>
<path d="M350.526 312.175C349.139 338.133 347.17 364.047 344.62 389.915C344.53 390.767 345.873 390.767 345.962 389.915C348.513 364.047 350.482 338.133 351.869 312.175C351.914 311.323 350.571 311.323 350.526 312.175Z" fill="#212121"/>
<path d="M429.196 273.662C441.727 301.638 454.257 329.57 466.787 357.546C467.145 358.353 468.308 357.635 467.95 356.873C455.42 328.897 442.89 300.966 430.36 272.99C430.002 272.183 428.838 272.9 429.196 273.662Z" fill="#212121"/>
<path d="M380.374 334.815C386.416 334.681 390.846 339.119 393.844 343.917C396.753 348.579 399.214 353.601 401.854 358.443C407.448 368.754 413.087 379.066 418.68 389.422C419.083 390.185 420.247 389.512 419.844 388.75C413.668 377.362 407.493 366.019 401.317 354.632C396.798 346.338 391.741 333.246 380.374 333.515C379.479 333.47 379.479 334.815 380.374 334.815Z" fill="#212121"/>
<path d="M405.613 364.988C405.703 374.448 405.837 383.908 405.927 393.368C405.927 394.219 407.269 394.219 407.269 393.368C407.18 383.908 407.045 374.448 406.956 364.988C406.911 364.091 405.569 364.091 405.613 364.988Z" fill="#212121"/>
<path d="M326.631 144.274C318.576 149.609 307.343 157.051 302.51 171.039C299.154 180.723 300.362 189.197 302.063 201.257C302.689 205.561 304.703 218.114 312.4 235.375C318.531 249.139 323.095 254.25 330.076 266.041C336.252 276.442 344.128 291.731 350.751 312.264C359.164 313.43 365.742 312.668 370.128 311.816C375.677 310.74 386.238 307.826 419.711 281.598C424.275 278.012 427.989 275.008 430.495 272.945C423.335 242.548 414.52 206.637 403.78 165.435C400.155 151.582 396.441 137.997 384.671 131.541C363.46 119.884 332.582 140.328 326.631 144.274Z" fill="#ED6A5A"/>
<path d="M389.459 144.991C388.788 145.529 387.356 146.874 385.342 154.809C381.315 170.456 383.731 177.495 384.671 179.871C387.087 194.98 387.087 210.403 388.698 225.601C390.354 241.607 389.817 257.119 388.654 288.188C388.117 303.028 387.58 307.422 385.924 343.602C385.521 352.345 385.208 359.563 385.029 364.315C380.644 367.05 376.929 368.754 374.244 369.83C371.425 370.996 369.501 371.489 367.532 373.282C364.981 375.569 363.862 378.528 363.325 380.724C362.028 381.442 360.058 382.473 357.597 383.639C351.064 386.822 350.482 386.598 348.692 387.988C345.112 390.722 343.814 394.488 342.248 398.613C341.04 401.841 339.339 407.849 340.816 408.656C342.024 409.328 344.888 406.279 346.678 404.396C349.721 401.168 350.661 399.061 352.362 396.864C354.152 394.578 357.195 391.664 362.565 389.422C360.685 390.408 355.449 393.547 353.57 399.599C352.406 403.276 352.943 406.638 353.391 409.508C354.062 413.677 355.449 416.905 356.568 418.967C357.418 418.878 358.671 418.654 359.969 417.936C362.52 416.501 363.325 414.215 365.115 410.673C366.771 407.4 368.606 403.724 371.291 400.81C373.394 398.523 375.81 396.954 378.272 395.833C377.69 398.703 377.332 401.168 377.063 403.007C376.974 403.679 376.168 409.238 376.705 415.874C376.84 417.353 377.019 419.012 377.958 419.371C379.032 419.774 380.42 418.429 380.643 418.205C382.791 416.188 382.478 413.543 383.06 410.09C384.089 403.948 387.177 399.599 388.296 398.03C389.773 395.968 389.772 396.551 393.8 391.933C396.888 388.346 398.454 386.508 399.394 384.849C400.602 382.697 402.392 378.348 401.184 371.04C402.929 363.239 405.166 352.973 407.449 340.823C409.373 330.466 412.461 313.743 415.056 291.506C416.891 275.545 417.697 263.44 418.144 256.402C419.173 240.351 419.8 230.578 419.487 216.769C419.084 200.225 417.965 204.709 417.025 183.458C417.025 183.458 416.533 172.563 413.087 159.427C412.684 157.903 411.655 154.137 408.836 150.147C407.046 147.591 405.122 144.856 401.497 143.466C397.738 142.077 392.771 142.256 389.459 144.991Z" fill="white"/>
<path opacity="0.25" d="M401.363 143.466C402.258 149.205 403.466 157.185 404.629 166.78C406.598 183.009 409.731 214.034 409.194 254.743C408.791 284.602 408.523 308.139 402.302 339.657C399.215 355.483 395.59 368.44 392.771 377.541C389.638 381.755 385.834 387.763 382.836 395.519C379.167 405.024 378.093 413.497 377.824 419.371C378.451 419.146 379.346 418.743 380.241 417.981C383.06 415.515 382.791 411.659 383.507 408.252C384.044 405.517 385.969 402.782 389.728 397.357C396.709 387.36 400.691 386.508 402.079 380.59C402.974 376.779 402.258 373.237 401.363 370.637C401.944 367.857 402.75 363.777 403.734 358.89C406.509 344.768 411.566 318.809 414.922 291.506C418.323 263.575 418.591 244.969 419.039 209.102C419.084 206.681 417.652 193.366 414.743 166.824C414.474 164.493 413.937 159.965 411.342 154.899C408.388 149.16 404.182 145.529 401.363 143.466Z" fill="#939393"/>
<path d="M388.877 145.08C382.523 155.84 383.06 168.752 384.044 180.768C385.297 195.428 387.132 209.999 387.937 224.704C389.593 254.339 388.251 284.064 386.729 313.699C385.879 330.287 385.029 346.83 384.178 363.419C384.134 364.271 385.476 364.271 385.521 363.419C387.042 334.098 388.877 304.777 389.727 275.456C390.13 260.93 390.22 246.359 389.638 231.833C389.056 217.397 387.535 203.05 386.103 188.658C384.715 174.536 382.433 158.62 389.996 145.753C390.443 144.991 389.28 144.318 388.877 145.08Z" fill="#212121"/>
<path d="M389.906 145.484C396.082 139.88 404.405 144.766 408.164 150.595C412.192 156.737 413.803 164.224 414.832 171.397C417.114 187.313 417.92 203.543 418.144 219.638C418.636 252.142 415.772 284.646 410.76 316.747C407.985 334.636 404.495 352.434 400.602 370.144C400.423 370.995 401.72 371.354 401.899 370.502C409.328 337.057 415.056 303.207 417.786 269.044C419.173 251.918 419.755 234.702 419.441 217.486C419.262 208.968 418.904 200.449 418.233 191.931C417.607 183.771 416.98 175.522 415.503 167.452C414.161 159.965 411.789 151.581 406.195 146.111C401.586 141.583 394.023 139.88 388.922 144.542C388.34 145.08 389.28 146.067 389.906 145.484Z" fill="#212121"/>
<path d="M384.626 363.732C382.075 365.526 379.39 367.095 376.481 368.261C374.512 369.068 372.409 369.471 370.485 370.368C366.323 372.251 363.951 376.375 362.609 380.59C362.34 381.397 363.638 381.755 363.906 380.948C365.473 376.241 368.113 372.43 373.035 370.906C377.466 369.561 381.493 367.543 385.297 364.898C386.013 364.405 385.342 363.239 384.626 363.732Z" fill="#212121"/>
<path d="M375.631 374.313C367.531 377.99 359.387 381.621 351.466 385.656C348.289 387.27 345.559 389.198 343.859 392.381C342.158 395.519 341.308 399.196 340.547 402.648C340.144 404.441 338.757 408.297 340.771 409.687C343.008 411.256 345.201 407.445 346.23 406.1C351.198 399.644 355.628 391.933 363.862 389.332C364.667 389.063 364.354 387.763 363.504 388.032C357.91 389.781 353.748 393.861 350.258 398.434C348.02 401.303 346.051 404.352 343.68 407.131C343.366 407.49 343.098 407.849 342.74 408.207C342.203 408.118 341.666 408.073 341.174 407.983C340.726 407.445 341.263 405.697 341.397 405.114C341.755 403.276 342.158 401.482 342.65 399.689C343.501 396.416 344.53 392.874 346.946 390.364C349.318 387.853 352.764 386.553 355.807 385.073C362.609 381.8 369.456 378.617 376.347 375.524C377.108 375.12 376.437 373.955 375.631 374.313Z" fill="#212121"/>
<path d="M364.489 387.315C359.387 390.722 353.57 394.847 352.406 401.348C351.78 404.934 352.496 408.79 353.077 412.332C353.525 415.156 353.928 418.115 356.299 419.954C356.702 420.267 357.15 419.909 357.284 419.55C359.074 415.156 359.208 410.404 360.595 405.921C362.206 400.81 366.055 397.537 370.172 394.399C370.843 393.905 370.172 392.695 369.501 393.233C365.742 396.057 361.938 399.061 360.058 403.5C357.91 408.521 358.045 414.17 355.986 419.191C356.299 419.057 356.657 418.922 356.971 418.788C354.688 417.039 354.554 413.363 354.151 410.763C353.659 407.4 352.988 403.679 353.972 400.317C355.539 394.892 360.685 391.44 365.115 388.481C365.876 387.987 365.205 386.822 364.489 387.315Z" fill="#212121"/>
<path d="M356.344 419.639C358.536 420.312 360.192 418.832 361.535 417.218C363.414 414.932 364.891 412.376 366.323 409.821C369.411 404.396 372.543 398.613 378.45 395.833C379.211 395.474 378.54 394.309 377.779 394.667C373.393 396.774 370.306 400.54 367.844 404.62C366.457 406.862 365.249 409.193 363.906 411.48C362.653 413.542 359.789 419.326 356.746 418.384C355.851 418.07 355.493 419.37 356.344 419.639Z" fill="#212121"/>
<path d="M400.378 370.233C400.601 373.596 400.825 377.048 400.154 380.365C399.527 383.549 397.961 386.239 395.858 388.704C392.188 392.964 387.892 396.416 385.386 401.572C384.178 404.082 383.283 406.772 382.478 409.462C382.075 410.897 381.672 412.376 381.269 413.856C380.822 415.425 380.643 418.429 378.405 418.115C376.302 417.846 377.197 408.835 377.287 407.4C377.51 403.544 378.047 399.778 378.898 396.012C379.077 395.16 377.779 394.802 377.6 395.654C376.705 399.778 376.123 403.993 375.899 408.252C375.81 410.18 375.81 412.152 375.855 414.08C375.899 415.47 375.899 417.084 376.705 418.294C377.734 419.774 379.793 420.267 381.001 418.788C381.985 417.622 382.164 415.649 382.567 414.215C383.059 412.376 383.552 410.538 384.089 408.745C385.297 404.71 386.908 400.765 389.548 397.447C391.696 394.757 394.336 392.47 396.574 389.915C398.677 387.539 400.378 384.938 401.183 381.845C402.212 378.079 401.944 374.089 401.72 370.233C401.675 369.381 400.333 369.381 400.378 370.233Z" fill="#212121"/>
<path d="M309.983 53.3516C301.302 59.1351 298.975 68.9536 296.156 81.1034C294.545 87.9181 288.951 111.949 302.197 130.779C304.971 134.724 312.042 144.767 321.216 143.78C326.899 143.198 330.792 138.625 332.448 136.428C336.028 140.283 339.608 144.184 343.188 148.04C346.455 147.412 351.198 146.022 356.076 142.929C368.606 134.903 372.32 121.453 374.244 114.325C376.079 107.6 380.241 92.4014 372.499 77.3374C368.74 70.0296 363.773 65.8153 360.954 63.4839C348.826 53.3068 325.288 43.2193 309.983 53.3516Z" fill="white"/>
<path opacity="0.27" d="M339.653 70.9708C341.756 74.7817 344.665 81.1928 345.112 89.4422C345.828 101.951 340.637 111.455 335.894 120.063C333.074 125.219 328.376 132.527 320.902 140.059C324.035 139.476 328.018 138.4 332.403 136.383C338.489 133.513 342.83 129.837 345.56 127.147C346.141 128.896 349.811 139.476 354.912 139.431C356.747 139.387 358.134 137.997 358.94 137.1C377.243 117.239 376.885 99.8435 376.885 99.8435C376.795 95.2257 375.9 86.7522 370.754 78.458C368.964 75.5438 366.95 72.3607 363.236 70.0742C353.704 64.2458 341.443 70.119 339.653 70.9708Z" fill="#AAAAAA"/>
<path d="M314.637 54.024C316.427 53.217 319.023 52.4548 321.216 53.486C325.288 55.4138 325.198 62.1837 326.228 66.4428C327.66 72.5402 333.969 79.9377 354.957 85.9453C355.763 82.807 358.09 80.4308 360.864 79.9377C365.071 79.2652 368.695 83.3002 369.367 86.8868C369.769 89.1733 368.919 91.0115 368.069 92.9393C367.308 94.643 365.429 98.7228 361.804 99.2608C360.327 99.485 359.074 99.0367 358.358 98.678C358.358 101.234 358.224 105 357.508 109.528C355.852 119.75 352.406 125.757 350.527 130.868C348.647 135.979 343.814 150.909 350.258 161.22C357.105 172.205 376.303 177.047 388.206 169.156C397.604 162.924 399.081 151.043 399.797 145.125C400.468 139.566 400.199 133.783 392.681 110.559C387.043 93.0738 384.224 84.3762 378.451 72.5402C367.621 50.3028 359.924 44.609 357.642 42.995C354.599 40.843 347.931 36.27 338.4 35.0595C322.558 33.042 306.359 41.2465 297.811 53.2618C293.157 59.8523 291.904 69.9847 289.398 90.2045C288.593 96.795 288.145 106.838 287.295 126.878C286.669 141.359 286.669 146.112 288.101 152.747C289.801 160.682 291.725 169.784 299.691 175.971C301.033 177.002 310.341 184.265 320.768 180.992C331.24 177.719 334.775 166.376 335.804 163.059C339.787 150.147 333.969 138.938 332.537 136.383C328.689 137.593 324.885 138.849 321.037 140.059C318.575 139.207 314.995 137.638 311.281 134.769C304.748 129.703 301.884 123.561 300.72 121.05C299.512 118.405 298.169 114.639 297.274 107.331C295.977 96.6605 294.768 86.304 299.378 74.6025C303.181 64.9185 309.536 58.1935 314.637 54.024Z" fill="#5B399B"/>
<path d="M297.856 74.3782C295.753 87.9627 294.321 102.354 298.662 115.715C302.063 126.206 309.089 135.845 319.381 140.373C320.187 140.732 320.858 139.566 320.052 139.207C309.849 134.724 303.003 125.174 299.736 114.728C295.708 101.816 297.096 87.9179 299.109 74.7369C299.288 73.885 297.991 73.5264 297.856 74.3782Z" fill="#212121"/>
<path d="M320.231 140.552C330.613 138.894 340.279 133.469 347.708 126.071C354.733 119.122 360.059 109.707 359.029 99.53C358.94 98.6782 357.597 98.6782 357.687 99.53C358.716 109.617 353.301 118.853 346.231 125.623C338.981 132.572 329.808 137.683 319.828 139.252C319.023 139.387 319.381 140.687 320.231 140.552Z" fill="#212121"/>
<path d="M357.955 99.2158C361.222 101.323 364.757 98.8123 366.816 96.1671C369.232 93.0736 370.485 88.9041 369.814 85.0036C369.187 81.4169 366.592 78.7718 362.833 78.9063C358.805 79.0408 355.986 82.2239 354.33 85.5864C353.972 86.3486 355.136 87.0659 355.494 86.2589C356.792 83.6138 358.716 81.0583 361.759 80.3858C365.428 79.5788 368.069 82.1343 368.516 85.6313C368.874 88.4558 368.203 91.37 366.771 93.8358C365.249 96.4361 361.848 100.202 358.582 98.095C357.91 97.6018 357.239 98.7675 357.955 99.2158Z" fill="#212121"/>
<path d="M331.955 136.876C334.64 140.328 337.549 143.556 340.681 146.605C341.531 147.412 342.695 149.026 343.993 149.071C345.335 149.115 347.08 147.77 348.244 147.188C349.005 146.784 348.333 145.663 347.573 146.022C345.783 146.919 344.306 147.86 342.471 146.47C341.218 145.529 340.189 144.229 339.115 143.108C336.922 140.821 334.864 138.4 332.895 135.89C332.402 135.262 331.463 136.203 331.955 136.876Z" fill="#212121"/>
<path d="M312.981 116.073C321.036 116.253 325.869 109.303 329.673 103.206C330.121 102.489 328.957 101.771 328.51 102.534C324.974 108.227 320.499 114.908 312.937 114.728C312.131 114.728 312.131 116.073 312.981 116.073Z" fill="#212121"/>
<path d="M327.301 90.7875C328.599 90.7875 328.599 88.77 327.301 88.77C326.004 88.77 326.004 90.7875 327.301 90.7875Z" fill="#212121"/>
<path d="M333.746 87.8285C335.043 87.8285 335.043 85.811 333.746 85.811C332.448 85.811 332.448 87.8285 333.746 87.8285Z" fill="#212121"/>
<path d="M333.209 94.2841C334.506 94.2841 334.506 92.2666 333.209 92.2666C331.911 92.2666 331.911 94.2841 333.209 94.2841Z" fill="#212121"/>
<path d="M300.765 96.3917C300.765 96.3468 300.765 96.2572 300.765 96.2123C300.765 95.6743 300.317 95.1812 299.735 95.1812C299.198 95.226 298.706 95.6295 298.706 96.2123C298.706 96.2572 298.706 96.3468 298.706 96.3917C298.706 96.9297 299.154 97.4228 299.735 97.4228C300.317 97.378 300.765 96.9745 300.765 96.3917Z" fill="#212121"/>
<path d="M303.808 95.9433C305.106 95.9433 305.106 93.9258 303.808 93.9258C302.511 93.9258 302.511 95.9433 303.808 95.9433Z" fill="#212121"/>
<path d="M303.629 104.058C304.926 104.058 304.926 102.041 303.629 102.041C302.331 102.041 302.331 104.058 303.629 104.058Z" fill="#212121"/>
<path d="M309.67 72.4508C308.82 84.6006 308.462 96.7504 308.596 108.9C308.596 109.618 309.491 109.752 309.849 109.259C311.505 107.017 313.116 104.776 314.771 102.534C315.264 101.817 314.1 101.144 313.608 101.861C311.952 104.103 310.341 106.345 308.685 108.586C309.088 108.721 309.536 108.811 309.938 108.945C309.804 96.7952 310.162 84.6454 311.012 72.4956C311.102 71.5989 309.759 71.5989 309.67 72.4508Z" fill="#212121"/>
<path d="M303.808 89.4424C304.623 89.4424 305.285 87.4553 305.285 85.0039C305.285 82.5526 304.623 80.5654 303.808 80.5654C302.992 80.5654 302.331 82.5526 302.331 85.0039C302.331 87.4553 302.992 89.4424 303.808 89.4424Z" fill="#212121"/>
<path d="M325.512 84.0626C326.327 84.0626 326.989 82.0754 326.989 79.6241C326.989 77.1727 326.327 75.1855 325.512 75.1855C324.696 75.1855 324.035 77.1727 324.035 79.6241C324.035 82.0754 324.696 84.0626 325.512 84.0626Z" fill="#212121"/>
<path d="M300.988 76.127C301.838 74.4234 303.628 71.5989 305.866 73.0784C306.582 73.5715 307.253 72.4059 306.537 71.9127C303.584 69.9849 300.988 73.0335 299.825 75.4545C299.422 76.2167 300.585 76.8892 300.988 76.127Z" fill="#212121"/>
<path d="M320.947 68.281C322.468 63.8425 327.794 62.901 330.881 66.3532C331.463 66.9809 332.403 66.0394 331.821 65.4117C328.017 61.1525 321.484 62.5872 319.649 67.9224C319.336 68.7294 320.633 69.088 320.947 68.281Z" fill="#212121"/>
</svg>
