<svg viewBox="0 0 40 40" fill="none" xmlns="http://www.w3.org/2000/svg">
<path d="M38.1818 21.8184C37.6364 21.8184 37.2728 22.182 37.2728 22.7274V34.5456C37.2728 35.0911 36.9091 35.4547 36.3637 35.4547H3.63637C3.0909 35.4547 2.7273 35.091 2.7273 34.5456V22.7274C2.7273 22.182 2.36363 21.8184 1.81824 21.8184C1.27285 21.8184 0.90918 22.182 0.90918 22.7274V34.5456C0.90918 36.0911 2.09098 37.2729 3.63645 37.2729H36.3637C37.9092 37.2729 39.091 36.0911 39.091 34.5456V22.7274C39.091 22.182 38.7273 21.8184 38.1818 21.8184Z" fill="#5B399B"/>
<path d="M37.2727 9.09082H2.72727C1.1818 9.09082 0 10.2726 0 11.8181V17.6363C0 18.9089 0.909063 19.9999 2.09094 20.2726L16.3637 23.4544V26.3635C16.3637 26.9089 16.7273 27.2725 17.2727 27.2725H22.7273C23.2727 27.2725 23.6363 26.9089 23.6363 26.3635V23.4544L37.9091 20.2726C39.0909 19.9999 40 18.9089 40 17.6362V11.818C40 10.2726 38.8182 9.09082 37.2727 9.09082ZM21.8182 25.4544H18.1819V21.8181H21.8182V25.4544ZM38.1818 17.6362C38.1818 18.0907 37.9091 18.4544 37.4545 18.5453L23.6363 21.6362V20.9089C23.6363 20.3635 23.2727 19.9999 22.7273 19.9999H17.2727C16.7273 19.9999 16.3637 20.3636 16.3637 20.9089V21.6362L2.54547 18.5454C2.09094 18.4544 1.8182 18.0908 1.8182 17.6363V11.8181C1.8182 11.2726 2.18187 10.909 2.72727 10.909H37.2727C37.8182 10.909 38.1818 11.2727 38.1818 11.8181V17.6362Z" fill="#5B399B"/>
<path d="M24.5453 2.72754H15.4543C13.9088 2.72754 12.7271 3.90934 12.7271 5.4548V6.36387C12.7271 6.90934 13.0907 7.27293 13.6361 7.27293C14.1815 7.27293 14.5452 6.90926 14.5452 6.36387V5.4548C14.5452 4.90934 14.9088 4.54574 15.4542 4.54574H24.5452C25.0906 4.54574 25.4542 4.90941 25.4542 5.4548V6.36387C25.4542 6.90934 25.8179 7.27293 26.3633 7.27293C26.9088 7.27293 27.2724 6.90926 27.2724 6.36387V5.4548C27.2725 3.90934 26.0907 2.72754 24.5453 2.72754Z" fill="#5B399B"/>
</svg>
