<svg viewBox="0 0 40 40" fill="none" xmlns="http://www.w3.org/2000/svg">
<g clip-path="url(#clip0)">
<path d="M20.9892 19.0118C20.6838 18.7063 20.1893 18.7063 19.8838 19.0118C19.5791 19.3165 19.5791 19.811 19.8838 20.1165C20.1893 20.4212 20.6838 20.4212 20.9892 20.1165C21.2939 19.811 21.2939 19.3165 20.9892 19.0118Z" fill="#5B399B"/>
<path d="M30.932 9.06774C29.4054 7.54126 26.9342 7.54118 25.4076 9.06774C23.885 10.5903 23.8849 13.0684 25.4078 14.5923C26.9309 16.1144 29.409 16.1151 30.932 14.5921C32.4584 13.0657 32.4587 10.5944 30.932 9.06774ZM29.8272 13.4872C28.9136 14.4008 27.4266 14.4008 26.5126 13.4873C25.599 12.5731 25.5989 11.0861 26.5125 10.1726C27.4283 9.25673 28.9111 9.25657 29.8272 10.1726C30.743 11.0884 30.7432 12.5712 29.8272 13.4872Z" fill="#5B399B"/>
<path d="M39.7711 0.228835C39.6177 0.0754763 39.4083 -0.00764858 39.1906 0.00055453C39.014 0.00688264 34.8081 0.175945 29.8085 1.94305C25.8023 3.35758 22.463 5.38281 19.8834 7.96249C19.3053 8.54054 18.7429 9.15351 18.2046 9.7903C15.654 8.2889 13.6101 8.75968 12.318 9.45116C9.34295 11.0433 7.50146 15.3665 7.50146 18.4586C7.5017 18.7746 7.69209 19.0595 7.98396 19.1804C8.0806 19.2204 8.18217 19.2399 8.28279 19.2399C8.48615 19.2399 8.68592 19.1604 8.83537 19.0111C10.4044 17.4421 12.3396 17.5402 12.9718 17.6233L13.2454 17.8969C12.7069 19.1782 12.2732 20.4522 11.9551 21.6914C11.8402 22.1398 11.879 22.6143 12.0497 23.0484C11.2975 23.395 10.5718 23.904 9.9399 24.5359C7.92889 26.547 7.52053 31.4481 7.50412 31.6557C7.48615 31.8836 7.56881 32.108 7.73045 32.2696C7.87756 32.4167 8.07654 32.4985 8.28279 32.4985C8.30326 32.4985 8.32381 32.4977 8.34435 32.496C8.55201 32.4797 13.4533 32.0714 15.4643 30.0603C16.0959 29.4287 16.6048 28.7031 16.9514 27.951C17.411 28.1318 17.8839 28.154 18.3093 28.045C19.5478 27.727 20.8218 27.2934 22.1032 26.7549L22.3767 27.0285C22.4598 27.6607 22.5579 29.596 20.989 31.1648C20.7657 31.3882 20.6988 31.7242 20.8197 32.0161C20.9406 32.3081 21.2254 32.4984 21.5414 32.4984C24.6336 32.4984 28.9567 30.6569 30.5488 27.6818C31.2403 26.3899 31.7111 24.346 30.2097 21.7953C30.8462 21.2573 31.4592 20.6948 32.0375 20.1165C34.6172 17.5368 36.6423 14.1976 38.0569 10.1916C39.8241 5.19179 39.993 0.985865 39.9994 0.809303C40.0072 0.592507 39.9244 0.382273 39.7711 0.228835ZM9.24818 16.7783C9.73349 14.4296 11.1431 11.8523 13.0556 10.8287C14.3336 10.1448 15.7306 10.2119 17.2159 11.0249C15.9505 12.6891 14.8504 14.4821 13.9335 16.3754C13.9218 16.3683 13.7812 16.1915 13.52 16.1326C13.4125 16.1083 11.3454 15.6637 9.24818 16.7783ZM14.3594 28.9554C13.2852 30.0296 10.7653 30.5962 9.17256 30.8275C9.40396 29.2347 9.9706 26.7149 11.0447 25.6407C11.6463 25.0392 12.3438 24.5831 13.0449 24.3262L15.674 26.9553C15.4171 27.6564 14.9611 28.3539 14.3594 28.9554ZM17.9211 26.5314C17.695 26.5893 17.4332 26.5043 17.2385 26.31C16.2278 25.2993 15.8324 24.9039 15.7083 24.7799C15.4808 24.5524 14.9229 23.9945 13.6907 22.7622C13.4958 22.5669 13.4108 22.3051 13.4686 22.0794C13.7188 21.1049 14.0461 20.105 14.444 19.0956L20.9046 25.5561C19.895 25.9542 18.8953 26.2814 17.9211 26.5314ZM29.1714 26.9446C28.1478 28.857 25.5706 30.2667 23.2221 30.7519C23.9709 29.3428 24.136 27.5489 23.8624 26.4612C23.7989 26.2086 23.634 26.0815 23.6248 26.0666C25.518 25.1497 27.3109 24.0496 28.9753 22.7842C29.7883 24.2697 29.8553 25.6668 29.1714 26.9446ZM30.9328 19.0117C30.2288 19.7156 29.4708 20.3957 28.6797 21.0329C26.778 22.5642 24.6849 23.8612 22.4517 24.8937L15.1065 17.5486C16.1389 15.3153 17.436 13.2222 18.9671 11.3207C19.6049 10.5291 20.2849 9.77093 20.9885 9.06734C23.303 6.75281 26.29 4.91078 29.8691 3.58485L36.4153 10.1311C35.0895 13.7101 33.2475 16.6971 30.9328 19.0117ZM36.9774 8.48335L31.5168 3.02274C34.4919 2.09868 37.0801 1.75266 38.372 1.62829C38.2475 2.92039 37.9014 5.50859 36.9774 8.48335Z" fill="#5B399B"/>
<path d="M18.7788 32.2697C18.4736 31.9647 17.9789 31.9648 17.6739 32.2699L15.4645 34.4801C15.1595 34.7852 15.1596 35.2799 15.4647 35.5849C15.7699 35.8899 16.2646 35.8899 16.5696 35.5847L18.779 33.3746C19.084 33.0694 19.0839 32.5747 18.7788 32.2697Z" fill="#5B399B"/>
<path d="M7.73093 21.2211C7.42593 20.9159 6.93133 20.9159 6.62609 21.2209L4.41594 23.4303C4.11078 23.7353 4.1107 24.23 4.4157 24.5351C4.72062 24.8401 5.21523 24.8404 5.52055 24.5353L7.7307 22.3259C8.03586 22.0209 8.03593 21.5262 7.73093 21.2211Z" fill="#5B399B"/>
<path d="M13.2548 33.3753C12.9499 33.0702 12.4551 33.0702 12.15 33.3752L6.85778 38.6666C6.55263 38.9717 6.55263 39.4664 6.8577 39.7715C7.16263 40.0765 7.65739 40.0767 7.96255 39.7715L13.2547 34.4801C13.5599 34.1751 13.5599 33.6804 13.2548 33.3753Z" fill="#5B399B"/>
<path d="M7.0048 33.3753C6.6998 33.0702 6.20504 33.0702 5.89996 33.3752L0.607783 38.6666C0.302627 38.9717 0.302627 39.4664 0.607705 39.7715C0.912626 40.0765 1.40739 40.0767 1.71255 39.7715L7.00472 34.4801C7.30988 34.1751 7.30988 33.6804 7.0048 33.3753Z" fill="#5B399B"/>
<path d="M6.62504 26.7453C6.32004 26.4403 5.82527 26.4403 5.52019 26.7454L0.228798 32.0376C-0.0762791 32.3427 -0.0762791 32.8373 0.228877 33.1425C0.533954 33.4476 1.02864 33.4476 1.33372 33.1424L6.62511 27.8503C6.93019 27.5451 6.93019 27.0505 6.62504 26.7453Z" fill="#5B399B"/>
<path d="M24.3032 15.6966C23.998 15.3915 23.5035 15.3915 23.1982 15.6966L22.0936 16.8013C21.7885 17.1063 21.7885 17.601 22.0936 17.9062C22.3987 18.2113 22.8933 18.2113 23.1985 17.9062L24.3032 16.8015C24.6082 16.4964 24.6082 16.0017 24.3032 15.6966Z" fill="#5B399B"/>
</g>
<defs>
<clipPath id="clip0">
<rect width="40" height="40" fill="white"/>
</clipPath>
</defs>
</svg>
