<svg width="16" height="16" viewBox="0 0 16 16" fill="none" xmlns="http://www.w3.org/2000/svg">
<path fill-rule="evenodd" clip-rule="evenodd" d="M8 4.36364C5.99169 4.36364 4.36364 5.99169 4.36364 8C4.36364 10.0083 5.99169 11.6364 8 11.6364C10.0083 11.6364 11.6364 10.0083 11.6364 8C11.6364 5.99169 10.0083 4.36364 8 4.36364ZM5.81818 8C5.81818 9.20499 6.79501 10.1818 8 10.1818C9.20499 10.1818 10.1818 9.20499 10.1818 8C10.1818 6.79501 9.20499 5.81818 8 5.81818C6.79501 5.81818 5.81818 6.79501 5.81818 8Z" fill="#FDFFFC"/>
<path d="M12.3636 2.90909C11.962 2.90909 11.6364 3.2347 11.6364 3.63636C11.6364 4.03803 11.962 4.36364 12.3636 4.36364C12.7653 4.36364 13.0909 4.03803 13.0909 3.63636C13.0909 3.2347 12.7653 2.90909 12.3636 2.90909Z" fill="#FDFFFC"/>
<path fill-rule="evenodd" clip-rule="evenodd" d="M2.90909 0C1.30244 0 0 1.30244 0 2.90909V13.0909C0 14.6976 1.30244 16 2.90909 16H13.0909C14.6976 16 16 14.6976 16 13.0909V2.90909C16 1.30244 14.6976 0 13.0909 0H2.90909ZM13.0909 1.45455H2.90909C2.10577 1.45455 1.45455 2.10577 1.45455 2.90909V13.0909C1.45455 13.8942 2.10577 14.5455 2.90909 14.5455H13.0909C13.8942 14.5455 14.5455 13.8942 14.5455 13.0909V2.90909C14.5455 2.10577 13.8942 1.45455 13.0909 1.45455Z" fill="#FDFFFC"/>
</svg>
