<svg viewBox="0 0 16 16" fill="none" xmlns="http://www.w3.org/2000/svg">
<path d="M8.88889 16H5.33333V5.33333H8.88889V7.11111C9.64679 6.14689 10.7961 5.57206 12.0222 5.544C14.2272 5.55624 16.0064 7.35056 16 9.55556V16H12.4444V10C12.3023 9.00678 11.4505 8.26985 10.4471 8.272C10.0082 8.28587 9.59399 8.47802 9.29995 8.80411C9.0059 9.13019 8.85746 9.56204 8.88889 10V16ZM3.55556 16H0V5.33333H3.55556V16ZM1.77778 3.55556C0.795938 3.55556 0 2.75962 0 1.77778C0 0.795938 0.795938 0 1.77778 0C2.75962 0 3.55556 0.795938 3.55556 1.77778C3.55556 2.24927 3.36825 2.70146 3.03486 3.03486C2.70146 3.36825 2.24927 3.55556 1.77778 3.55556Z" fill="#FDFFFC"/>
</svg>
