<svg viewBox="0 0 28 28" fill="none" xmlns="http://www.w3.org/2000/svg">
<path d="M0 24.3897C0 26.3838 1.6164 28 3.61033 28H24.3897C26.3838 28 28 26.3836 28 24.3897V3.61033C28 1.61618 26.3836 0 24.3897 0H3.61033C1.61618 0 0 1.6164 0 3.61033V24.3897Z" fill="#563D7C"/>
<path d="M11.6111 12.3854V8.42019H15.1015C15.4339 8.42019 15.7544 8.44789 16.0631 8.50329C16.3718 8.5587 16.6448 8.65763 16.8823 8.80009C17.1197 8.94256 17.3096 9.14042 17.4521 9.39369C17.5946 9.64696 17.6658 9.97145 17.6658 10.3672C17.6658 11.0795 17.4521 11.594 17.0247 11.9105C16.5973 12.2271 16.0512 12.3854 15.3864 12.3854H11.6111ZM7.88333 5.52344V22.4766H16.0987C16.8585 22.4766 17.5985 22.3816 18.3188 22.1916C19.039 22.0017 19.6801 21.7088 20.242 21.3131C20.804 20.9174 21.2511 20.4069 21.5835 19.7816C21.916 19.1564 22.0822 18.4164 22.0822 17.5616C22.0822 16.501 21.8249 15.5948 21.3105 14.8429C20.796 14.091 20.0165 13.5647 18.9717 13.2639C19.7315 12.8999 20.3053 12.4329 20.6932 11.8631C21.081 11.2932 21.2749 10.5809 21.2749 9.7261C21.2749 8.93464 21.1443 8.26982 20.8831 7.73162C20.6219 7.19342 20.2539 6.76208 19.779 6.43758C19.3041 6.11308 18.7343 5.8796 18.0695 5.73713C17.4046 5.59467 16.6686 5.52344 15.8613 5.52344H7.88333ZM11.6111 19.5798V14.926H15.6713C16.4786 14.926 17.1276 15.112 17.6183 15.484C18.109 15.856 18.3544 16.4773 18.3544 17.3479C18.3544 17.7911 18.2792 18.1552 18.1288 18.4401C17.9784 18.725 17.7766 18.9506 17.5233 19.1168C17.2701 19.283 16.9772 19.4017 16.6448 19.473C16.3124 19.5442 15.9642 19.5798 15.6001 19.5798H11.6111Z" fill="white"/>
</svg>
