<svg viewBox="0 0 36 31" fill="none" xmlns="http://www.w3.org/2000/svg">
<path d="M1.16833 9.17249e-05C0.827582 -0.00410227 0.50233 0.13571 0.279824 0.382023C0.0573168 0.628337 -0.0396683 0.955939 0.0148843 1.27695L4.91127 29.643C5.03719 30.3595 5.68405 30.8863 6.44535 30.8924H29.9353C30.5067 30.8994 30.9974 30.5061 31.0887 29.9677L35.9851 1.28245C36.0397 0.961443 35.9427 0.633841 35.7202 0.387527C35.4977 0.141213 35.1724 0.00140143 34.8317 0.00559542L1.16833 9.17249e-05ZM21.7862 20.5014H14.2888L12.2587 10.3801H23.6029L21.7862 20.5014Z" fill="#2684FF"/>
<path d="M34.3984 10.3662H23.582L21.7667 20.4794H14.2753L5.42969 30.4992C5.71006 30.7305 6.06751 30.8592 6.43815 30.8621H29.9151C30.4861 30.8691 30.9763 30.4761 31.0676 29.9382L34.3984 10.3662Z" fill="url(#paint0_linear)"/>
<defs>
<linearGradient id="paint0_linear" x1="36.8994" y1="13.1984" x2="25.1732" y2="30.6453" gradientUnits="userSpaceOnUse">
<stop offset="0.18" stop-color="#0052CC"/>
<stop offset="1" stop-color="#2684FF"/>
</linearGradient>
</defs>
</svg>
