<svg viewBox="0 0 31 31" fill="none" xmlns="http://www.w3.org/2000/svg">
<g clip-path="url(#clip0)">
<path d="M31 15.922C31 7.12845 24.06 0 15.4997 0C6.93936 0 0 7.12845 0 15.922C0 22.9014 4.37201 28.8314 10.4565 30.9812C10.8273 30.7061 11.2544 30.367 11.2544 29.7959C11.2544 28.9205 11.2361 26.6676 11.2361 26.6676C11.2361 26.6676 10.5636 26.7853 9.60297 26.7853C7.18341 26.7853 6.4187 25.208 6.05465 24.3256C5.58077 23.1758 4.96656 22.6361 4.31371 22.2043C3.91305 21.939 3.82085 21.627 4.28456 21.5372C6.42616 21.1249 6.97325 24.0185 8.4037 24.4795C9.42467 24.8082 10.7372 24.6661 11.39 24.2344C11.4761 23.3506 12.0998 22.5867 12.6191 22.1841C8.9813 21.8269 6.82479 20.5364 5.70619 18.4618L5.5862 18.2292L5.30485 17.5704L5.22214 17.3343C4.87165 16.2814 4.71708 15.0752 4.71708 13.7283C4.71708 11.3369 5.44654 10.4343 6.42616 9.15918C5.67704 6.43274 6.6953 4.56915 6.6953 4.56915C6.6953 4.56915 8.27015 4.23557 11.2463 6.41324C12.8591 5.70708 17.1606 5.64788 19.1958 6.25655C20.4439 5.41319 22.7292 4.21607 23.6505 4.55174C23.9 4.96192 24.4376 6.15905 23.9773 8.7873C24.2898 9.36393 25.9168 10.5917 25.9229 14.064C25.8965 15.3447 25.7663 16.4255 25.5243 17.3399L25.3901 17.8079C25.3901 17.8079 25.3135 18.0287 25.2294 18.239L25.1311 18.4716C24.0518 20.893 21.8384 21.7969 18.2616 22.173C19.4208 22.9182 19.753 23.8534 19.753 26.3842C19.753 28.9149 19.7198 29.2548 19.728 29.837C19.7347 30.3516 20.1354 30.7214 20.4954 31.0014C26.6036 28.8648 31 22.9209 31 15.922Z" fill="#21B0F4"/>
</g>
<defs>
<clipPath id="clip0">
<rect width="31" height="31" fill="white"/>
</clipPath>
</defs>
</svg>
