<svg viewBox="0 0 63 47" fill="none" xmlns="http://www.w3.org/2000/svg">
<g clip-path="url(#clip0)">
<path d="M33.8789 0H27.356V6.63962H33.8789V0Z" fill="#009DDB"/>
<path d="M33.8789 8.34668H27.356V14.9863H33.8789V8.34668Z" fill="#009DDB"/>
<path d="M33.8789 16.6943H27.356V23.334H33.8789V16.6943Z" fill="#009DDB"/>
<path d="M25.9585 8.34668H19.4357V14.9863H25.9585V8.34668Z" fill="#009DDB"/>
<path d="M25.9585 16.6943H19.4357V23.334H25.9585V16.6943Z" fill="#009DDB"/>
<path d="M18.0378 8.34668H11.5149V14.9863H18.0378V8.34668Z" fill="#009DDB"/>
<path d="M18.0378 16.6943H11.5149V23.334H18.0378V16.6943Z" fill="#009DDB"/>
<path d="M10.2103 16.6943H3.68744V23.334H10.2103V16.6943Z" fill="#009DDB"/>
<path d="M41.7999 16.6943H35.277V23.334H41.7999V16.6943Z" fill="#009DDB"/>
<path d="M21.3284 47.0001C-2.69605 47.0001 0.09982 25.4682 0.09982 25.4682C0.09982 25.4682 33.444 25.4682 40.2082 25.4682C46.9725 25.4682 49.2086 23.2865 49.2086 23.2865C49.2086 23.2865 45.3879 18.2593 49.8611 12.1885C54.893 15.1288 54.7066 19.4923 54.7066 19.4923C54.7066 19.4923 59.8318 17.7849 63 20.7252C61.2295 26.6063 53.4021 26.2268 53.4021 26.2268C53.4021 26.2268 46.1331 47.0001 21.3284 47.0001Z" fill="#009DDB"/>
</g>
<defs>
<clipPath id="clip0">
<rect width="63" height="47" fill="white"/>
</clipPath>
</defs>
</svg>
