<svg viewBox="0 0 26 34" fill="none" xmlns="http://www.w3.org/2000/svg">
<g clip-path="url(#clip0)">
<path d="M11.7079 0.477783H16.8077V24.9512C14.1954 25.4686 12.2724 25.6722 10.1917 25.6722C3.96304 25.6653 0.720703 22.7518 0.720703 17.156C0.720703 11.7645 4.15994 8.26551 9.48946 8.26551C10.3165 8.26551 10.9465 8.33358 11.7079 8.5378V0.477783ZM11.8866 12.9481C11.2894 12.7439 10.7971 12.6758 10.167 12.6758C7.58757 12.6758 6.09767 14.3232 6.09767 17.2103C6.09767 20.0211 7.52194 21.5732 10.1342 21.5732C10.6986 21.5732 11.1581 21.5398 11.8866 21.4377V12.9481Z" fill="#2BA977"/>
<path d="M25.1471 8.92261V21.176C25.1471 25.396 24.8452 27.4253 23.9591 29.1748C23.1321 30.8569 22.0426 31.9175 19.7913 33.0891L15.0591 30.7541C17.3103 29.6588 18.3999 28.6908 19.0956 27.2135C19.8241 25.703 20.0539 23.9535 20.0539 19.3516V8.92261H25.1471Z" fill="#2BA977"/>
<path d="M19.54 0.477783H24.6398V5.90332H19.54V0.477783Z" fill="#2BA977"/>
</g>
<defs>
<clipPath id="clip0">
<rect width="24.5044" height="32.6726" fill="white" transform="translate(0.720703 0.477783)"/>
</clipPath>
</defs>
</svg>
