<svg viewBox="0 0 42 42" fill="none" xmlns="http://www.w3.org/2000/svg">
<g clip-path="url(#clip0)">
<path d="M41.2083 19.1286L22.8705 0.792168C21.8152 -0.264056 20.1023 -0.264056 19.0456 0.792168L15.2377 4.60001L20.0682 9.43044C21.1908 9.05118 22.4779 9.30555 23.3728 10.2005C24.2719 11.101 24.5244 12.3991 24.1359 13.5254L28.7912 18.1807C29.9175 17.7927 31.2171 18.0438 32.1166 18.9448C33.3737 20.2014 33.3737 22.2383 32.1166 23.4959C30.859 24.7535 28.8221 24.7535 27.564 23.4959C26.6184 22.5494 26.3848 21.1604 26.8636 19.9954L22.5221 15.654L22.5216 27.0789C22.8281 27.2309 23.1175 27.4333 23.3728 27.6876C24.6299 28.9443 24.6299 30.9812 23.3728 32.2397C22.1152 33.4969 20.0774 33.4969 18.8216 32.2397C17.5645 30.9812 17.5645 28.9443 18.8216 27.6876C19.1322 27.3775 19.4917 27.1429 19.8751 26.9853V15.454C19.4917 15.2973 19.1327 15.0641 18.8216 14.7517C17.8691 13.8005 17.6401 12.4028 18.1281 11.2332L13.3668 6.47098L0.793002 19.0438C-0.263683 20.101 -0.263683 21.8139 0.793002 22.8701L19.1308 41.207C20.1866 42.2632 21.8991 42.2632 22.9562 41.207L41.2083 22.9554C42.2645 21.8987 42.2645 20.1848 41.2083 19.1286Z" fill="#DE4C36"/>
</g>
<defs>
<clipPath id="clip0">
<rect width="42" height="42" fill="white"/>
</clipPath>
</defs>
</svg>
