<svg viewBox="0 0 28 36" fill="none" xmlns="http://www.w3.org/2000/svg">
<g clip-path="url(#clip0)">
<path d="M1.22324 19.4058C1.27442 20.4239 2.32892 19.9494 2.79985 19.6331C3.25032 19.3267 3.38341 19.5837 3.42436 18.9906C3.45507 18.5952 3.49602 18.2097 3.47555 17.8143C2.78962 17.755 2.0525 17.9132 1.48942 18.3086C1.19252 18.5063 0.660157 19.1587 1.22324 19.4058Z" fill="#F6D2A2"/>
<path d="M22.2414 31.9197C23.0501 32.404 24.5346 33.867 23.3163 34.5787C22.1492 35.6067 21.494 33.4419 20.4702 33.1454C20.9104 32.5622 21.4633 32.0284 22.2414 31.9197Z" fill="#F6D2A2"/>
<path d="M7.76525 33.5706C6.81314 33.709 6.28077 34.5394 5.48222 34.9644C4.73487 35.3894 4.44821 34.826 4.38678 34.7074C4.27416 34.658 4.2844 34.7568 4.10012 34.5789C3.40395 33.5212 4.81677 32.7502 5.55389 32.2263C6.57767 32.0286 7.22265 32.8886 7.76525 33.5706Z" fill="#F6D2A2"/>
<path d="M26.7359 19.2771C26.6847 20.2952 25.6302 19.8208 25.1592 19.5045C24.7088 19.198 24.5757 19.455 24.5347 18.862C24.504 18.4666 24.4631 18.0811 24.4835 17.6857C25.1695 17.6264 25.9066 17.7845 26.4697 18.1799C26.7563 18.3776 27.2989 19.03 26.7359 19.2771Z" fill="#F6D2A2"/>
<path d="M23.9405 6.86199C27.5954 5.61651 24.7391 0.782863 21.5551 2.91797C19.4666 1.18814 16.5898 0.871826 13.5697 0.871826C10.6109 1.09918 7.79554 1.62307 5.82988 3.28371C2.65617 1.30676 -0.271837 6.05144 3.45472 7.2475C2.41046 11.1619 3.59805 15.1553 3.43424 19.1389C3.28068 22.7171 2.30809 27.5113 4.36588 30.7238C6.11654 33.4718 9.88405 34.4504 12.9861 34.5591C16.9481 34.6975 21.7496 33.7584 23.6743 30.0516C25.5171 26.5228 25.0053 22.1241 24.7698 18.3184C24.5343 14.4733 24.9745 10.5688 23.9405 6.86199Z" fill="#69D7E2"/>
<path d="M27.0121 18.6742C26.9097 18.4667 26.7152 18.2294 26.5309 18.1009C26.06 17.7747 25.456 17.5968 24.8315 17.577C24.811 16.9642 24.7905 16.292 24.7905 15.4419V14.6709C24.7803 12.2393 24.7496 11.1717 24.6062 9.83727C24.4936 8.78948 24.3196 7.82078 24.0739 6.91138C24.9031 6.60495 25.4457 6.10083 25.6607 5.44843C25.8655 4.84546 25.7631 4.16342 25.415 3.56045C25.0567 2.96736 24.4834 2.52255 23.8179 2.34462C23.1013 2.15681 22.3232 2.2952 21.5758 2.77955C20.9104 2.23589 20.1425 1.82073 19.2826 1.50442C17.7571 0.960754 15.986 0.753174 13.5801 0.753174V0.852021L13.5699 0.753174C11.0002 0.950869 9.09598 1.33637 7.51936 2.07773C6.88461 2.37427 6.32154 2.73013 5.83012 3.14529C5.07253 2.69059 4.28422 2.58185 3.55733 2.79932C2.88164 2.99701 2.29809 3.4616 1.95 4.06457C1.60192 4.66754 1.52002 5.35947 1.75548 5.95256C1.99095 6.54564 2.53356 7.01023 3.34234 7.29688C3.0864 8.29525 2.95331 9.35291 2.93283 10.5193C2.91235 11.6561 2.96354 12.5655 3.14782 14.6215C3.28091 16.1536 3.3321 16.8554 3.35258 17.7055C2.65641 17.6759 1.96024 17.8538 1.43811 18.2195C1.25383 18.348 1.04908 18.5754 0.956937 18.7929C0.823846 19.0696 0.875035 19.3168 1.14122 19.465C1.18217 19.9395 1.45859 20.157 1.87834 20.1174C2.18547 20.0878 2.55403 19.9296 2.8714 19.7121C2.94307 19.6627 3.01473 19.6232 3.0864 19.5935C3.11711 19.5836 3.13759 19.5738 3.1683 19.5639C3.1683 19.5639 3.22973 19.5441 3.2502 19.5342C3.28091 19.5243 3.31163 19.5144 3.3321 19.4947C3.31163 19.9593 3.27068 20.4436 3.17854 21.5507C3.07616 22.7962 3.02497 23.4782 3.00449 24.2394C2.91235 27.0664 3.26044 29.1224 4.30469 30.7534C4.6323 31.2674 5.03158 31.7221 5.50251 32.1373C5.41037 32.1966 5.02134 32.4734 4.89848 32.5623C4.4685 32.8786 4.1716 33.1455 3.99756 33.4421C3.77233 33.8276 3.77233 34.2131 4.02827 34.6184L4.03851 34.6282L4.04875 34.6381C4.16136 34.7469 4.22279 34.7765 4.30469 34.7765H4.31493H4.33541C4.34564 34.7963 4.35588 34.8062 4.36612 34.8259C4.39683 34.8754 4.42755 34.9149 4.45826 34.9544C4.7142 35.2411 5.07253 35.3103 5.5537 35.0335C5.80965 34.905 5.99393 34.7567 6.38296 34.4404C6.3932 34.4305 6.3932 34.4305 6.40344 34.4207C7.02794 33.9067 7.33508 33.7188 7.79578 33.6497L7.95958 33.62C8.02101 33.6497 8.08244 33.6694 8.1541 33.6991C9.60787 34.2625 11.2971 34.5689 13.0068 34.6282C15.2182 34.7073 17.3476 34.4404 19.1495 33.8078C19.6307 33.6398 20.0811 33.4421 20.5111 33.2246C20.7773 33.3235 21.0025 33.531 21.4325 34.0154C21.453 34.0352 21.453 34.0352 21.4632 34.0549C21.4837 34.0747 21.4837 34.0846 21.4939 34.0945C21.5144 34.1241 21.5451 34.1439 21.5656 34.1735C21.9034 34.5591 22.1287 34.7469 22.3846 34.8556C22.7225 34.994 23.0501 34.9248 23.3879 34.6282C23.9817 34.2724 24.0227 33.7188 23.6336 33.0862C23.3572 32.6414 22.876 32.1768 22.4256 31.8803C22.9579 31.3762 23.4186 30.7732 23.777 30.0911C24.7598 28.1933 25.1386 25.9791 25.1181 23.1323C25.1079 22.124 25.0669 21.2443 24.9543 19.5639V19.5144C25.0055 19.5342 25.0567 19.5639 25.1079 19.6034C25.4252 19.811 25.7938 19.979 26.1009 20.0087C26.5207 20.0482 26.7971 19.8308 26.8381 19.3563C27.094 19.1981 27.1452 18.951 27.0121 18.6742ZM23.7565 2.5522C24.3708 2.71036 24.9031 3.12552 25.2307 3.67906C25.5583 4.23261 25.6505 4.85535 25.4662 5.4089C25.2717 5.9921 24.7803 6.45668 24.0124 6.73345C23.8589 6.19968 23.6746 5.67578 23.4698 5.17166C23.7667 4.92454 23.9101 4.61811 23.6746 4.18319C23.4391 3.74826 23.0296 3.69883 22.6099 3.82733C22.3437 3.49125 22.0468 3.19471 21.7396 2.91794C22.4153 2.50278 23.1115 2.38416 23.7565 2.5522ZM1.92953 5.89325C1.71453 5.35947 1.7862 4.72685 2.11381 4.1733C2.44142 3.61975 2.97378 3.18482 3.60852 3.0069C4.26374 2.81909 4.97015 2.90805 5.66632 3.30344C5.26705 3.64941 4.90872 4.0448 4.60159 4.47973C4.06922 4.21284 3.52662 4.16342 3.21949 4.70708C2.90212 5.29028 3.27068 5.65601 3.7928 5.93279C3.72114 6.10083 3.64947 6.27875 3.58805 6.45668C3.51638 6.67414 3.44472 6.90149 3.38329 7.12884C2.63593 6.85207 2.14452 6.42703 1.92953 5.89325ZM3.1683 19.3662C3.15806 19.3662 3.09663 19.3859 3.09663 19.3958C3.06592 19.4057 3.03521 19.4156 3.00449 19.4354C2.92259 19.465 2.84069 19.5144 2.75879 19.5738C2.47213 19.7715 2.12404 19.9197 1.85786 19.9395C1.55073 19.9691 1.37669 19.8406 1.34597 19.4848C1.56097 19.4156 1.65311 19.3662 1.73501 19.2476L1.5712 19.1289C1.50978 19.208 1.44835 19.2377 1.26407 19.297C1.25383 19.297 1.25383 19.297 1.24359 19.3069C1.07979 19.2179 1.04908 19.0795 1.14122 18.8818C1.22312 18.7039 1.4074 18.4963 1.56097 18.3876C2.05238 18.0416 2.7076 17.8736 3.36282 17.9131C3.36282 18.1602 3.37305 18.4074 3.36282 18.6446C3.36282 18.6742 3.36282 18.694 3.35258 18.7237C3.34234 18.8621 3.34234 18.9214 3.3321 18.9906C3.30139 19.2772 3.28091 19.3168 3.1683 19.3662ZM6.26011 34.2823C6.24987 34.2922 6.24987 34.2922 6.23963 34.302C5.86084 34.6184 5.67656 34.7469 5.44109 34.8754C5.05205 35.1027 4.78587 35.0533 4.60159 34.8358C4.57088 34.8062 4.5504 34.7666 4.52992 34.737C4.51969 34.7271 4.50945 34.7073 4.49921 34.6974C4.49921 34.6974 4.49921 34.6974 4.49921 34.6876C4.51969 34.5096 4.59135 34.3811 4.77563 34.1044C4.78587 34.0945 4.78587 34.0945 4.78587 34.0846C4.89848 33.9264 4.94967 33.8375 5.00086 33.7287L4.81658 33.6497C4.77563 33.7386 4.72444 33.8177 4.62206 33.9759C4.61183 33.9857 4.61183 33.9857 4.61183 33.9956C4.42755 34.2526 4.34564 34.4108 4.30469 34.5887H4.29446C4.29446 34.5887 4.29446 34.5887 4.28422 34.5887H4.26374C4.24327 34.5788 4.21255 34.5591 4.1716 34.5195C3.77233 33.9067 4.0897 33.3828 4.99062 32.7304C5.10324 32.6513 5.48204 32.3943 5.58442 32.3152C5.60489 32.3152 5.62537 32.3053 5.64584 32.2954C6.19868 32.7501 6.84366 33.1455 7.56031 33.4717C7.56031 33.4816 7.57055 33.4915 7.58078 33.5014C7.16103 33.6002 6.83343 33.8078 6.26011 34.2823ZM23.4494 33.2048C23.7667 33.7188 23.7565 34.134 23.3572 34.4207C23.3265 34.3614 23.306 34.2922 23.2651 34.1933C23.2651 34.1834 23.2651 34.1834 23.2548 34.1735C23.1115 33.7979 23.0194 33.6398 22.8453 33.4618L22.702 33.6002C22.8556 33.7386 22.9272 33.8869 23.0706 34.2329C23.0706 34.2427 23.0706 34.2427 23.0808 34.2526C23.132 34.3811 23.1627 34.4602 23.1934 34.5294C22.9272 34.7469 22.6918 34.7864 22.446 34.6777C22.2311 34.5887 22.0263 34.4009 21.6987 34.045C21.6782 34.0253 21.6577 33.9956 21.6373 33.966C21.627 33.9561 21.6168 33.9462 21.6066 33.9264C21.5861 33.9067 21.5861 33.9067 21.5758 33.8869C21.197 33.4618 20.9718 33.2345 20.7261 33.106C21.2994 32.7897 21.8113 32.4338 22.272 32.0187C22.702 32.3251 23.1832 32.7798 23.4494 33.2048ZM23.5927 30.0022C22.7122 31.7122 21.1561 32.9182 19.0676 33.6497C17.2862 34.2724 15.1772 34.5294 12.9966 34.4503C9.23931 34.3218 5.98369 33.0566 4.45826 30.6645C3.43448 29.073 3.09663 27.0466 3.18877 24.2591C3.21949 23.498 3.26044 22.816 3.36282 21.5705C3.47543 20.1668 3.50615 19.7616 3.53686 19.1289C3.55733 18.6742 3.55733 18.2097 3.5471 17.7154C3.52662 16.8456 3.47543 16.1536 3.34234 14.6017C3.15806 12.5457 3.10687 11.6462 3.12735 10.5193C3.15806 9.0366 3.36282 7.73181 3.7928 6.49622C4.48897 4.48961 5.7687 3.1354 7.6115 2.25566C9.1574 1.52419 11.0309 1.14856 13.5801 0.950869C15.9655 0.950869 17.706 1.15845 19.2109 1.69223C21.0128 2.33474 22.3539 3.4616 23.2753 5.19143C23.8691 6.59507 24.2172 8.10744 24.4015 9.84715C24.5448 11.1717 24.5755 12.2393 24.5857 14.661V15.432C24.596 16.6281 24.6165 17.4683 24.6677 18.3085C24.6881 18.6347 24.6984 18.7731 24.7496 19.554C24.8622 21.2344 24.9031 22.1043 24.9134 23.1125C24.9338 25.9494 24.5653 28.134 23.5927 30.0022ZM26.7254 19.1784C26.7152 19.1784 26.705 19.1685 26.6947 19.1685C26.5105 19.1092 26.449 19.0696 26.3876 19.0004L26.2238 19.1191C26.3159 19.2377 26.4081 19.2871 26.6128 19.3563C26.5719 19.7121 26.3978 19.8406 26.1009 19.811C25.8348 19.7912 25.4867 19.6331 25.2 19.4453C25.1181 19.3859 25.0362 19.3464 24.9543 19.3069C24.9441 19.3069 24.9338 19.297 24.9236 19.297C24.8826 18.7533 24.8826 18.6149 24.8622 18.3283C24.8519 18.1504 24.8417 17.9724 24.8315 17.7945C25.4048 17.8044 25.9678 17.9724 26.3978 18.2789C26.5514 18.3876 26.7357 18.5952 26.8176 18.7731C26.92 18.9411 26.8995 19.0894 26.7254 19.1784Z" fill="black"/>
<path d="M15.1217 11.066C15.132 11.5701 15.2343 12.1237 15.1422 12.6574C14.9989 12.9144 14.7327 12.9441 14.4972 13.0429C14.1696 12.9935 13.8932 12.7859 13.7601 12.4894C13.6782 11.8864 13.7806 11.3131 13.8113 10.7101C13.8113 10.6904 14.2003 10.72 14.5484 10.8189C14.8453 10.9078 15.1217 11.0561 15.1217 11.066Z" fill="white"/>
<path d="M12.2243 11.1057C11.9377 12.1534 12.6031 13.8635 13.6986 12.4599C13.6167 11.8668 13.7088 11.2935 13.7395 10.7103C13.7498 10.6609 12.2346 11.0365 12.2243 11.1057Z" fill="white"/>
<path d="M15.2446 11.5307C15.2241 11.2341 15.2139 11.1155 15.2139 10.9672V10.8981L15.1422 10.8783L13.8523 10.4928V10.4236L13.7192 10.4532H13.7089V10.4631L12.2552 10.819L12.204 10.8289L12.1835 10.8783C11.9583 11.4022 12.0095 12.193 12.2961 12.6773C12.6237 13.2309 13.1561 13.2407 13.6987 12.6081C13.8523 12.8948 14.1389 13.0925 14.4665 13.1419H14.4972L14.528 13.132C14.5689 13.1122 14.6099 13.1024 14.6815 13.0727C14.6918 13.0727 14.6918 13.0727 14.702 13.0628C14.9989 12.964 15.1218 12.8849 15.2241 12.6971L15.2344 12.6872V12.6674C15.2651 12.4895 15.2753 12.3017 15.2753 12.0941C15.2753 11.9458 15.2651 11.8075 15.2446 11.5307ZM13.6066 11.1649C13.5963 11.3429 13.5861 11.4121 13.5759 11.5109C13.5554 11.8766 13.5554 12.1534 13.5861 12.4302C13.1049 13.0233 12.7261 13.0233 12.4702 12.5785C12.2245 12.1633 12.1733 11.4615 12.3576 10.9969L13.6475 10.6806C13.6373 10.8091 13.627 10.9376 13.6066 11.1649ZM15.0399 12.6279C14.9682 12.7465 14.876 12.8058 14.6303 12.8849C14.6201 12.8849 14.6201 12.8849 14.6099 12.8948C14.5484 12.9145 14.5075 12.9343 14.4768 12.9442C14.2004 12.8948 13.9649 12.7169 13.8523 12.4697C13.8216 12.2028 13.8216 11.9261 13.842 11.5603C13.8523 11.4615 13.8523 11.3923 13.8727 11.2144C13.8932 10.987 13.9035 10.8486 13.9035 10.7201L15.0194 11.0463C15.0194 11.1748 15.0296 11.2934 15.0501 11.5504C15.0706 11.8173 15.0808 11.9557 15.0808 12.1139C15.0808 12.3017 15.0706 12.4697 15.0399 12.6279Z" fill="black"/>
<path d="M6.06215 6.75909C7.00403 10.2978 12.8703 9.38844 12.6451 5.83981C12.3789 1.58936 5.16123 2.4098 6.06215 6.75909Z" fill="white"/>
<path d="M12.7475 5.83008C12.686 4.80206 12.2151 4.0014 11.437 3.49728C10.7409 3.04258 9.81946 2.86465 8.9083 2.97338C7.99713 3.092 7.15763 3.48739 6.60479 4.11013C5.99053 4.80206 5.75506 5.71146 5.97005 6.75925L6.06219 6.73948L5.97005 6.75925C6.9324 10.3968 12.9727 9.51709 12.7475 5.83008ZM6.15433 6.73948C5.94957 5.74112 6.17481 4.89103 6.74812 4.24852C7.27025 3.66532 8.05856 3.27981 8.92877 3.17108C9.79898 3.06235 10.6692 3.23039 11.3244 3.66532C12.0513 4.13978 12.4915 4.88114 12.5529 5.85973C12.7679 9.30951 7.06549 10.1398 6.15433 6.73948Z" fill="black"/>
<path d="M7.67959 7.21398C8.22804 7.21398 8.67265 6.7493 8.67265 6.17608C8.67265 5.60287 8.22804 5.13818 7.67959 5.13818C7.13113 5.13818 6.68652 5.60287 6.68652 6.17608C6.68652 6.7493 7.13113 7.21398 7.67959 7.21398Z" fill="black"/>
<path d="M8.13049 6.68002C8.26053 6.68002 8.36596 6.56053 8.36596 6.41313C8.36596 6.26573 8.26053 6.14624 8.13049 6.14624C8.00044 6.14624 7.89502 6.26573 7.89502 6.41313C7.89502 6.56053 8.00044 6.68002 8.13049 6.68002Z" fill="white"/>
<path d="M14.2886 6.09773C15.0155 10.1604 21.8953 9.08293 20.9022 4.99064C20.0116 1.31351 14.0429 2.33164 14.2886 6.09773Z" fill="white"/>
<path d="M20.9945 4.97092C20.0833 1.18506 13.9407 2.22295 14.1864 6.10767V6.11755C14.5242 8.03519 16.2954 9.01379 18.2508 8.69747C19.1415 8.5492 19.94 8.13404 20.4621 7.52119C21.0355 6.83914 21.2402 5.95939 20.9945 4.97092ZM20.3086 7.40257C19.8172 7.97589 19.0698 8.37128 18.2201 8.50966C16.367 8.80621 14.7085 7.88692 14.3809 6.0879C14.1557 2.43054 19.9502 1.45194 20.8102 5.01046C21.0355 5.94951 20.8512 6.76994 20.3086 7.40257Z" fill="black"/>
<path d="M15.978 6.95764C16.5151 6.95764 16.9506 6.49295 16.9506 5.91974C16.9506 5.34652 16.5151 4.88184 15.978 4.88184C15.4408 4.88184 15.0054 5.34652 15.0054 5.91974C15.0054 6.49295 15.4408 6.95764 15.978 6.95764Z" fill="black"/>
<path d="M16.4284 6.42416C16.5528 6.42416 16.6536 6.30467 16.6536 6.15727C16.6536 6.00987 16.5528 5.89038 16.4284 5.89038C16.304 5.89038 16.2031 6.00987 16.2031 6.15727C16.2031 6.30467 16.304 6.42416 16.4284 6.42416Z" fill="white"/>
<path d="M12.4358 8.96982C11.627 9.03901 10.9718 9.95829 11.3916 10.6898C11.9444 11.6585 13.1832 10.6008 13.951 10.6996C14.8417 10.7194 15.5686 11.609 16.275 10.8578C17.0633 10.0275 15.9371 9.21694 15.0465 8.86108L12.4358 8.96982Z" fill="#F6D2A2"/>
<path d="M16.3776 9.63219C16.1011 9.29611 15.62 8.98968 15.0978 8.7821L15.0774 8.77222H15.0569L12.436 8.87106C11.5249 8.95014 10.8696 9.96827 11.3099 10.7393C11.4839 11.0358 11.7194 11.1841 12.0367 11.2039C12.2722 11.2138 12.5179 11.1643 12.8967 11.0358C12.9274 11.0259 12.9684 11.0161 13.0196 10.9963C13.5315 10.8282 13.7362 10.7788 13.941 10.8085H13.9512C14.1969 10.8085 14.4017 10.8777 14.7907 11.0259C15.2207 11.194 15.3538 11.2434 15.5688 11.2632C15.8657 11.2829 16.1216 11.1841 16.3571 10.937C16.7564 10.5119 16.7359 10.0572 16.3776 9.63219ZM16.2035 10.7986C16.009 11.0062 15.8145 11.0754 15.579 11.0655C15.3947 11.0556 15.2719 11.0062 14.8624 10.848C14.4529 10.68 14.2276 10.6207 13.9615 10.6108C13.7055 10.5811 13.4905 10.6306 12.9479 10.8085C12.8967 10.8282 12.8558 10.8381 12.8251 10.848C12.0777 11.0951 11.7194 11.0754 11.4737 10.6404C11.1051 9.99793 11.6682 9.12807 12.436 9.05888L15.0262 8.96003C15.5176 9.15772 15.9578 9.44438 16.2138 9.75081C16.5209 10.1067 16.5311 10.4625 16.2035 10.7986Z" fill="#231F20"/>
<path d="M15.2513 8.54486C14.934 7.418 12.2721 7.58604 12.3336 8.93037C12.4667 9.92873 15.5585 9.66184 15.2513 8.54486Z" fill="black"/>
</g>
<defs>
<clipPath id="clip0">
<rect width="26.3111" height="34.5333" fill="white" transform="translate(0.844238 0.733398)"/>
</clipPath>
</defs>
</svg>
