<svg viewBox="0 0 50 46" fill="none" xmlns="http://www.w3.org/2000/svg">
<g clip-path="url(#clip0)">
<path d="M25.0148 46.0147L34.2148 17.7578H15.8148L25.0148 46.0147Z" fill="#E24329"/>
<path d="M25.0148 46.0147L15.8148 17.7578H2.9212L25.0148 46.0147Z" fill="#FC6D26"/>
<path d="M2.92125 17.7578L0.125531 26.3448C-0.129469 27.128 0.149817 27.986 0.817436 28.47L25.0148 46.0147L2.92125 17.7578Z" fill="#FCA326"/>
<path d="M2.92133 17.7577H15.8149L10.2737 0.738818C9.98871 -0.137016 8.74728 -0.136779 8.46228 0.738818L2.92133 17.7577Z" fill="#E24329"/>
<path d="M25.0148 46.0147L34.2148 17.7578H47.1084L25.0148 46.0147Z" fill="#FC6D26"/>
<path d="M47.1084 17.7578L49.9041 26.3448C50.1591 27.128 49.8798 27.986 49.2122 28.47L25.0148 46.0147L47.1084 17.7578Z" fill="#FCA326"/>
<path d="M47.1083 17.7577H34.2147L39.7559 0.738818C40.0409 -0.137016 41.2823 -0.136779 41.5673 0.738818L47.1083 17.7577Z" fill="#E24329"/>
</g>
<defs>
<clipPath id="clip0">
<rect width="50" height="46" fill="white"/>
</clipPath>
</defs>
</svg>
