<svg viewBox="0 0 43 43" fill="none" xmlns="http://www.w3.org/2000/svg">
<path d="M7.54368 36.9818L4.43816 2.15039H38.5619L35.4532 36.9763L21.4792 40.8504L7.54368 36.9818Z" fill="#010101"/>
<path d="M21.5001 37.8888L32.7917 34.7583L35.4483 4.99805H21.5001V37.8888Z" fill="#010101"/>
<path d="M21.5 17.917H15.8471L15.4567 13.5425H21.5V9.27051H21.4852H10.788L10.8903 10.4166L11.9403 22.1889H21.5V17.917Z" fill="#EBEBEB"/>
<path d="M21.5 29.012L21.4813 29.0169L16.7236 27.7323L16.4195 24.3252H14.1076H12.1311L12.7296 31.0327L21.4802 33.4619L21.5 33.4566V29.012Z" fill="#EBEBEB"/>
<path d="M21.4853 17.917V22.1889H26.7458L26.2499 27.7293L21.4853 29.0153V33.4596L30.2431 31.0323L30.3073 30.3107L31.3112 19.0642L31.4154 17.917H30.2642H21.4853Z" fill="white"/>
<path d="M21.4853 9.27051V11.9238V13.5321V13.5425H31.7904H31.8042L31.8898 12.5823L32.0845 10.4166L32.1866 9.27051H21.4853Z" fill="white"/>
</svg>
