<svg viewBox="0 0 43 46" fill="none" xmlns="http://www.w3.org/2000/svg">
<g clip-path="url(#clip0)">
<path d="M42.4738 21.7277L23.1139 2.16867L21.238 0.273438L6.66438 14.997L0.000202596 21.7277C-0.332669 22.0657 -0.519531 22.5232 -0.519531 23C-0.519531 23.4768 -0.332669 23.9342 0.000202596 24.2723L13.3145 37.7235L21.238 45.7265L35.8096 31.003L36.0365 30.7757L42.4738 24.2824C42.6406 24.1151 42.773 23.9161 42.8633 23.6969C42.9537 23.4776 43.0002 23.2425 43.0002 23.0051C43.0002 22.7676 42.9537 22.5325 42.8633 22.3132C42.773 22.094 42.6406 21.895 42.4738 21.7277ZM21.238 29.7205L14.5859 23L21.238 16.2794L27.8881 23L21.238 29.7205Z" fill="#2684FF"/>
<path d="M21.238 16.2793C19.1459 14.1662 17.9666 11.3025 17.9575 8.31377C17.9485 5.32503 19.1105 2.45412 21.1898 0.328125L6.63428 15.0273L14.5558 23.0303L21.238 16.2793Z" fill="url(#paint0_linear)"/>
<path d="M27.906 22.9817L21.2378 29.7205C23.3378 31.8427 24.5175 34.7207 24.5175 37.7215C24.5175 40.7223 23.3378 43.6003 21.2378 45.7224L35.8335 30.9847L27.906 22.9817Z" fill="url(#paint1_linear)"/>
</g>
<defs>
<linearGradient id="paint0_linear" x1="20.047" y1="9.47962" x2="10.6627" y2="18.7664" gradientUnits="userSpaceOnUse">
<stop offset="0.18" stop-color="#0052CC"/>
<stop offset="1" stop-color="#2684FF"/>
</linearGradient>
<linearGradient id="paint1_linear" x1="1694.63" y1="1973.46" x2="2648.89" y2="2585.79" gradientUnits="userSpaceOnUse">
<stop offset="0.18" stop-color="#0052CC"/>
<stop offset="1" stop-color="#2684FF"/>
</linearGradient>
<clipPath id="clip0">
<rect width="43" height="46" fill="white"/>
</clipPath>
</defs>
</svg>
