<svg viewBox="0 0 26 26" fill="none" xmlns="http://www.w3.org/2000/svg">
<path d="M0 0H26V26H0V0Z" fill="#F7DF1E"/>
<path d="M6.83628 21.7275L8.82599 20.5234C9.20984 21.204 9.55902 21.7798 10.3966 21.7798C11.1995 21.7798 11.7056 21.4657 11.7056 20.2441V11.9365H14.149V20.2787C14.149 22.8094 12.6656 23.9612 10.5013 23.9612C8.54675 23.9612 7.41216 22.9489 6.83624 21.7273" fill="black"/>
<path d="M15.4763 21.4657L17.4657 20.3139C17.9894 21.1691 18.6701 21.7974 19.8743 21.7974C20.8867 21.7974 21.5322 21.2912 21.5322 20.5931C21.5322 19.7554 20.8691 19.4586 19.7521 18.9701L19.1414 18.7081C17.3785 17.9578 16.2092 17.0154 16.2092 15.0257C16.2092 13.1932 17.6054 11.7969 19.7871 11.7969C21.3404 11.7969 22.4573 12.338 23.2601 13.7517L21.3577 14.9733C20.9388 14.2229 20.4852 13.9262 19.7871 13.9262C19.0715 13.9262 18.6177 14.38 18.6177 14.9733C18.6177 15.7063 19.0715 16.0031 20.1186 16.4569L20.7294 16.7187C22.8063 17.6088 23.9757 18.5163 23.9757 20.5582C23.9757 22.7574 22.2479 23.9615 19.9267 23.9615C17.6578 23.9615 16.1918 22.8795 15.4763 21.4657" fill="black"/>
</svg>
