<svg width="48" height="47" viewBox="0 0 48 47" fill="none" xmlns="http://www.w3.org/2000/svg">
<path d="M15.3909 46.2323C14.276 46.2323 13.2231 45.7335 12.5109 44.8295L1.67216 31.2683C0.9599 30.3642 0.68119 29.2108 0.9599 28.0885L4.83087 11.1604C5.07861 10.0381 5.82184 9.13405 6.84377 8.63525L22.5135 1.0909C23.0089 0.841497 23.5664 0.716797 24.1238 0.716797C24.6812 0.716797 25.2386 0.841497 25.7341 1.0909L41.4038 8.60408C42.4257 9.10288 43.1689 10.007 43.4167 11.1293L47.2877 28.0573C47.5354 29.1796 47.2877 30.3331 46.5754 31.2371L35.7367 44.7983C35.0244 45.6712 33.9715 46.2012 32.8567 46.2012L15.3909 46.2323Z" fill="#326DE6"/>
<path d="M24.0929 1.49648C24.5264 1.49648 24.96 1.59 25.3626 1.77705L41.0322 9.29023C41.8374 9.69551 42.4568 10.4437 42.6426 11.3166L46.5135 28.2446C46.7303 29.1487 46.5135 30.084 45.9251 30.801L35.0864 44.3621C34.529 45.0792 33.6619 45.4844 32.7639 45.4844H15.3909C14.4929 45.4844 13.6258 45.0792 13.0684 44.3621L2.22966 30.801C1.67224 30.084 1.45547 29.1487 1.64127 28.2446L5.51224 11.3166C5.72901 10.4125 6.3174 9.66433 7.12256 9.29023L22.7922 1.74588C23.1948 1.59 23.6593 1.49648 24.0929 1.49648ZM24.0929 0.03125C23.4426 0.03125 22.7922 0.187125 22.1729 0.4677L6.50321 8.01206C5.2645 8.60438 4.3974 9.69551 4.08772 11.036L0.216755 27.9641C-0.0929222 29.3046 0.216755 30.6763 1.08385 31.7674L11.9226 45.3286C12.7587 46.3885 14.0284 46.9808 15.36 46.9808H32.7329C34.0645 46.9808 35.3342 46.3885 36.1703 45.3286L47.009 31.7674C47.8761 30.7075 48.1858 29.3046 47.8761 27.9641L44.0051 11.036C43.6955 9.69551 42.8284 8.60438 41.5897 8.01206L25.9819 0.4677C25.3935 0.187125 24.7432 0.03125 24.0929 0.03125Z" fill="white"/>
<path d="M39.7935 26.9039C39.7625 26.9039 39.7625 26.9039 39.7935 26.9039H39.7625C39.7315 26.9039 39.7006 26.9039 39.7006 26.8727C39.6386 26.8727 39.5767 26.8415 39.5148 26.8415C39.298 26.8103 39.1122 26.7792 38.9264 26.7792C38.8335 26.7792 38.7406 26.7792 38.6167 26.748H38.5857C37.9354 26.6856 37.409 26.6233 36.9135 26.4674C36.6967 26.3739 36.6348 26.2492 36.5728 26.1245C36.5728 26.0933 36.5419 26.0933 36.5419 26.0621L36.1393 25.9374C36.3251 24.5034 36.2631 23.007 35.9225 21.5418C35.5819 20.0765 34.9935 18.7048 34.1883 17.4578L34.498 17.1773V17.1149C34.498 16.959 34.529 16.8032 34.6528 16.6473C35.0244 16.3044 35.489 16.0238 36.0464 15.6809C36.1393 15.6185 36.2322 15.5873 36.3251 15.525C36.5109 15.4315 36.6657 15.3379 36.8515 15.2132C36.8825 15.1821 36.9444 15.1509 37.0064 15.0885C37.0373 15.0574 37.0683 15.0574 37.0683 15.0262C37.5019 14.6521 37.5948 14.0286 37.2851 13.6233C37.1302 13.4051 36.8515 13.2804 36.5728 13.2804C36.3251 13.2804 36.1083 13.3739 35.8915 13.5298C35.8606 13.561 35.8606 13.561 35.8296 13.5921C35.7677 13.6233 35.7367 13.6857 35.6748 13.7168C35.5199 13.8727 35.3961 13.9974 35.2722 14.1533C35.2102 14.2156 35.1483 14.3092 35.0554 14.3715C34.6219 14.8391 34.2193 15.2132 33.8167 15.4938C33.7238 15.5562 33.6309 15.5873 33.538 15.5873C33.476 15.5873 33.4141 15.5873 33.3522 15.5562H33.2902L32.9186 15.8056C32.5161 15.3691 32.0825 14.995 31.649 14.6209C29.7909 13.1557 27.5302 12.2516 25.1767 12.0334L25.1457 11.6281C25.1148 11.5969 25.1148 11.5969 25.0838 11.5657C24.9909 11.4722 24.867 11.3787 24.8361 11.1605C24.8051 10.6617 24.867 10.1005 24.929 9.47702V9.44585C24.929 9.35232 24.9599 9.22762 24.9909 9.1341C25.0219 8.94705 25.0528 8.76 25.0838 8.54177V8.35472V8.2612C25.0838 7.70005 24.6502 7.23242 24.1238 7.23242C23.8761 7.23242 23.6283 7.35712 23.4425 7.54417C23.2567 7.73122 23.1638 7.98062 23.1638 8.2612V8.32355V8.5106C23.1638 8.72882 23.1948 8.91587 23.2567 9.10292C23.2877 9.19645 23.2877 9.28997 23.3186 9.41467V9.44585C23.3806 10.0693 23.4735 10.6305 23.4115 11.1293C23.3806 11.3475 23.2567 11.441 23.1638 11.5346C23.1328 11.5657 23.1328 11.5657 23.1019 11.5969L23.0709 12.0022C22.5135 12.0646 21.956 12.1269 21.3986 12.2516C19.0141 12.7816 16.9083 13.9974 15.267 15.7432L14.9573 15.525H14.8954C14.8335 15.525 14.7715 15.5562 14.7096 15.5562C14.6167 15.5562 14.5238 15.525 14.4309 15.4626C14.0283 15.1821 13.6257 14.7768 13.1922 14.3092C13.1302 14.2468 13.0683 14.1533 12.9754 14.0909C12.8515 13.9351 12.7277 13.8104 12.5728 13.6545C12.5419 13.6233 12.4799 13.5921 12.418 13.5298C12.387 13.4986 12.356 13.4986 12.356 13.4674C12.1702 13.3116 11.9225 13.218 11.6748 13.218C11.396 13.218 11.1173 13.3427 10.9625 13.561C10.6528 13.9662 10.7457 14.5897 11.1793 14.9638C11.2102 14.9638 11.2102 14.995 11.2412 14.995C11.3031 15.0262 11.3341 15.0885 11.396 15.1197C11.5819 15.2444 11.7367 15.3379 11.9225 15.4315C12.0154 15.4626 12.1083 15.525 12.2012 15.5873C12.7586 15.9303 13.2231 16.2108 13.5948 16.5538C13.7496 16.7096 13.7496 16.8655 13.7496 17.0214V17.0837L14.0593 17.3643C13.9973 17.4578 13.9354 17.5202 13.9044 17.6137C12.356 20.0765 11.7677 22.9758 12.1702 25.8439L11.7677 25.9686C11.7677 25.9998 11.7367 25.9998 11.7367 26.031C11.6748 26.1557 11.5819 26.2804 11.396 26.3739C10.9315 26.5298 10.3741 26.5921 9.72379 26.6545H9.69282C9.59992 26.6545 9.47605 26.6545 9.38315 26.6856C9.19734 26.6856 9.01153 26.7168 8.79476 26.748C8.73282 26.748 8.67089 26.7792 8.60895 26.7792C8.57798 26.7792 8.54702 26.7792 8.51605 26.8103C7.95863 26.935 7.61798 27.465 7.71089 27.9638C7.80379 28.4003 8.20637 28.6808 8.70186 28.6808C8.79476 28.6808 8.85669 28.6808 8.9496 28.6497C8.98057 28.6497 9.01153 28.6497 9.01153 28.6185C9.07347 28.6185 9.1354 28.5873 9.19734 28.5873C9.41411 28.525 9.56895 28.4626 9.75476 28.3691C9.84766 28.3379 9.94057 28.2756 10.0335 28.2444H10.0644C10.6528 28.0262 11.1793 27.8391 11.6748 27.7768H11.7367C11.9225 27.7768 12.0464 27.8703 12.1393 27.9326C12.1702 27.9326 12.1702 27.9638 12.2012 27.9638L12.6348 27.9015C13.378 30.2084 14.8025 32.266 16.6915 33.7624C17.1251 34.1053 17.5586 34.3859 18.0231 34.6664L17.8373 35.0717C17.8373 35.1029 17.8683 35.1029 17.8683 35.1341C17.9302 35.2588 17.9922 35.4146 17.9302 35.6329C17.7444 36.1005 17.4657 36.5681 17.1251 37.0981V37.1293C17.0631 37.2228 17.0012 37.2851 16.9393 37.3787C16.8154 37.5345 16.7225 37.6904 16.5986 37.8775C16.5677 37.9086 16.5367 37.971 16.5057 38.0333C16.5057 38.0645 16.4748 38.0957 16.4748 38.0957C16.227 38.6257 16.4128 39.218 16.8773 39.4362C17.0012 39.4986 17.1251 39.5297 17.249 39.5297C17.6206 39.5297 17.9922 39.2803 18.178 38.9374C18.178 38.9062 18.209 38.8751 18.209 38.8751C18.2399 38.8127 18.2709 38.7504 18.3019 38.7192C18.3948 38.501 18.4257 38.3451 18.4877 38.158C18.5186 38.0645 18.5496 37.971 18.5806 37.8775C18.7973 37.254 18.9522 36.7552 19.2309 36.3187C19.3548 36.1317 19.5096 36.1005 19.6335 36.0381C19.6644 36.0381 19.6644 36.0381 19.6954 36.007L19.9122 35.6017C21.2748 36.1317 22.7612 36.4122 24.2477 36.4122C25.1457 36.4122 26.0748 36.3187 26.9419 36.1005C27.4993 35.9758 28.0257 35.8199 28.5522 35.6329L28.738 35.9758C28.769 35.9758 28.769 35.9758 28.7999 36.007C28.9548 36.0381 29.0786 36.1005 29.2025 36.2875C29.4502 36.724 29.6361 37.254 29.8528 37.8463V37.8775C29.8838 37.971 29.9148 38.0645 29.9457 38.158C30.0077 38.3451 30.0386 38.5321 30.1315 38.7192C30.1625 38.7815 30.1935 38.8127 30.2244 38.8751C30.2244 38.9062 30.2554 38.9374 30.2554 38.9374C30.4412 39.3115 30.8128 39.5297 31.1844 39.5297C31.3083 39.5297 31.4322 39.4986 31.5561 39.4362C31.7728 39.3115 31.9586 39.1245 32.0206 38.8751C32.0825 38.6257 32.0825 38.3451 31.9586 38.0957C31.9586 38.0645 31.9277 38.0645 31.9277 38.0333C31.8967 37.971 31.8657 37.9086 31.8348 37.8775C31.7419 37.6904 31.618 37.5345 31.4941 37.3787C31.4322 37.2851 31.3702 37.2228 31.3083 37.1293V37.0981C30.9677 36.5681 30.658 36.1005 30.5031 35.6329C30.4412 35.4146 30.5031 35.2899 30.5341 35.1341C30.5341 35.1029 30.5651 35.1029 30.5651 35.0717L30.4102 34.6976C32.0515 33.7312 33.4451 32.3595 34.498 30.676C35.0554 29.8031 35.489 28.8367 35.7986 27.8703L36.1702 27.9326C36.2012 27.9326 36.2012 27.9015 36.2322 27.9015C36.3561 27.8391 36.449 27.7456 36.6348 27.7456H36.6967C37.1922 27.8079 37.7186 27.995 38.307 28.2132H38.338C38.4309 28.2444 38.5238 28.3067 38.6167 28.3379C38.8025 28.4314 38.9573 28.4938 39.1741 28.5561C39.236 28.5561 39.298 28.5873 39.3599 28.5873C39.3909 28.5873 39.4219 28.5873 39.4528 28.6185C39.5457 28.6497 39.6077 28.6497 39.7006 28.6497C40.1651 28.6497 40.5677 28.3379 40.6915 27.9326C40.6915 27.5585 40.3509 27.0597 39.7935 26.9039ZM25.4554 25.3763L24.0928 26.031L22.7302 25.3763L22.3896 23.9111L23.3186 22.7264H24.8361L25.7651 23.9111L25.4554 25.3763ZM33.538 22.1341C33.7857 23.194 33.8477 24.254 33.7548 25.2828L29.0167 23.9111C28.5831 23.7864 28.3354 23.3499 28.4283 22.9135C28.4593 22.7888 28.5212 22.6641 28.6141 22.5705L32.3612 19.1725C32.8877 20.0454 33.2902 21.043 33.538 22.1341ZM30.8748 17.302L26.818 20.2012C26.4773 20.4195 26.0128 20.3571 25.7341 20.0142C25.6412 19.9207 25.6102 19.796 25.5793 19.6713L25.3006 14.5897C27.4373 14.8391 29.3883 15.8056 30.8748 17.302ZM21.8941 14.7456C22.2348 14.6833 22.5444 14.6209 22.8851 14.5586L22.6064 19.5466C22.5754 19.983 22.2348 20.3571 21.7702 20.3571C21.6464 20.3571 21.4915 20.3259 21.3986 20.2636L17.2799 17.302C18.5496 16.0238 20.129 15.1509 21.8941 14.7456ZM15.7935 19.1725L19.4786 22.477C19.8193 22.7576 19.8502 23.2876 19.5715 23.6305C19.4786 23.7552 19.3548 23.8487 19.1999 23.8799L14.3999 25.2828C14.2141 23.1629 14.6786 21.0118 15.7935 19.1725ZM14.9573 27.6209L19.8812 26.7792C20.2838 26.748 20.6554 27.0286 20.7483 27.4338C20.7793 27.6209 20.7793 27.7768 20.7173 27.9326L18.8283 32.5154C17.0941 31.3931 15.7006 29.6784 14.9573 27.6209ZM26.2606 33.8247C25.5483 33.9806 24.8361 34.0741 24.0928 34.0741C23.009 34.0741 21.9561 33.8871 20.9651 33.5753L23.4115 29.1173C23.6593 28.8367 24.0619 28.712 24.4025 28.8991C24.5573 28.9926 24.6812 29.1173 24.7741 29.242L27.1586 33.5753C26.8799 33.6688 26.5702 33.7312 26.2606 33.8247ZM32.2993 29.4914C31.5251 30.7384 30.5031 31.736 29.3264 32.5154L27.3754 27.8079C27.2825 27.4338 27.4373 27.0286 27.809 26.8415C27.9328 26.7792 28.0877 26.748 28.2425 26.748L33.1973 27.5897C33.0115 28.2756 32.7019 28.8991 32.2993 29.4914Z" fill="white"/>
</svg>
