<svg viewBox="0 0 52 54" fill="none" xmlns="http://www.w3.org/2000/svg">
<path d="M51.9707 12.1949C51.99 12.2668 52 12.3409 52 12.4153V23.9861C52 24.2884 51.8394 24.5675 51.579 24.7179L41.9349 30.3093V41.3918C41.9349 41.6934 41.7757 41.9718 41.516 42.1236L21.3848 53.7935C21.3387 53.8199 21.2884 53.8367 21.2382 53.8547C21.2193 53.861 21.2015 53.8726 21.1816 53.8779C21.0409 53.9152 20.893 53.9152 20.7522 53.8779C20.7292 53.8715 20.7083 53.8589 20.6863 53.8504C20.6402 53.8336 20.592 53.8188 20.548 53.7935L0.420993 42.1236C0.160747 41.9731 0 41.694 0 41.3918V6.67951C0 6.60358 0.0104725 6.52976 0.0293229 6.45805C0.0356064 6.4338 0.0502679 6.41165 0.0586458 6.3874C0.0743545 6.3431 0.089016 6.29776 0.112055 6.25663C0.127764 6.22921 0.150804 6.20707 0.169654 6.18176C0.193741 6.14801 0.215733 6.11321 0.244009 6.08368C0.268095 6.05943 0.299513 6.0415 0.326741 6.02041C0.357111 5.9951 0.38434 5.96768 0.418899 5.94764H0.419946L10.484 0.112703C10.7433 -0.0375677 11.0625 -0.0375677 11.3218 0.112703L21.3858 5.94764H21.3879C21.4214 5.96873 21.4497 5.9951 21.4801 6.01935C21.5073 6.04044 21.5377 6.05943 21.5618 6.08263C21.5911 6.11321 21.612 6.14801 21.6372 6.18176C21.655 6.20707 21.6791 6.22921 21.6937 6.25663C21.7178 6.29881 21.7314 6.3431 21.7482 6.3874C21.7566 6.41165 21.7712 6.4338 21.7775 6.45911C21.7968 6.53097 21.8066 6.60507 21.8068 6.67951V28.3604L30.1932 23.4978V12.4143C30.1932 12.3404 30.2036 12.2656 30.2225 12.1949C30.2298 12.1696 30.2434 12.1475 30.2518 12.1232C30.2686 12.0789 30.2832 12.0336 30.3063 11.9924C30.322 11.965 30.345 11.9429 30.3628 11.9176C30.388 11.8838 30.4089 11.849 30.4382 11.8195C30.4623 11.7952 30.4927 11.7773 30.5199 11.7562C30.5513 11.7309 30.5786 11.7035 30.6121 11.6834H30.6131L40.6782 5.84851C40.9375 5.69802 41.2567 5.69802 41.516 5.84851L51.5801 11.6834C51.6157 11.7045 51.6429 11.7309 51.6743 11.7552C51.7005 11.7763 51.7309 11.7952 51.7549 11.8184C51.7843 11.849 51.8052 11.8838 51.8303 11.9176C51.8492 11.9429 51.8722 11.965 51.8869 11.9924C51.911 12.0336 51.9246 12.0789 51.9414 12.1232C51.9508 12.1475 51.9644 12.1696 51.9707 12.1949ZM50.3223 23.4978V13.8759L46.8004 15.9175L41.9349 18.7385V28.3604L50.3234 23.4978H50.3223ZM40.2583 40.9035V31.2753L35.4723 34.0277L21.8058 41.8821V51.601L40.2583 40.9035ZM1.67769 8.14009V40.9035L20.1281 51.6V41.8832L10.4892 36.3899L10.4861 36.3878L10.4819 36.3857C10.4494 36.3667 10.4222 36.3393 10.3918 36.3161C10.3657 36.295 10.3353 36.2781 10.3122 36.2549L10.3101 36.2518C10.2829 36.2254 10.2641 36.1927 10.241 36.1632C10.2201 36.1347 10.1949 36.1105 10.1782 36.0809L10.1771 36.0778C10.1583 36.0461 10.1468 36.0082 10.1332 35.9723C10.1195 35.9407 10.1017 35.9111 10.0934 35.8774V35.8763C10.0829 35.8363 10.0808 35.7941 10.0766 35.753C10.0724 35.7213 10.064 35.6897 10.064 35.6581V35.6559V13.0027L5.19958 10.1807L1.67769 8.14115V8.14009ZM10.9039 1.819L2.51863 6.67951L10.9018 11.54L19.2861 6.67846L10.9018 1.819H10.9039ZM15.2647 32.1527L20.1291 29.3327V8.14009L16.6072 10.1817L11.7417 13.0027V34.1954L15.2647 32.1527ZM41.0971 7.55481L32.7129 12.4153L41.0971 17.2758L49.4803 12.4143L41.0971 7.55481ZM40.2583 18.7385L35.3928 15.9175L31.8709 13.8759V23.4978L36.7353 26.3177L40.2583 28.3604V18.7385ZM20.9659 40.4215L33.2637 33.3517L39.411 29.8189L31.0331 24.9615L21.3869 30.5539L12.5952 35.6507L20.9659 40.4215Z" fill="#FF2D20"/>
</svg>
