<svg viewBox="0 0 44 37" fill="none" xmlns="http://www.w3.org/2000/svg">
<g clip-path="url(#clip0)">
<path d="M42.3461 0.377291C41.7232 0.674093 41.1001 0.814727 39.8694 0.924126C36.3747 1.25216 34.992 2.3146 32.5458 6.59558C29.5677 11.7828 28.4433 12.642 21.6819 14.892C15.9081 16.8293 15.1637 17.1418 13.8417 18.2042C12.7781 19.0791 12.231 19.6729 11.2587 21.0009C10.0888 22.5946 9.8305 22.782 8.78203 22.782C8.31099 22.7663 7.38417 22.6726 6.71561 22.5477C4.78596 22.1884 3.63126 22.2352 2.94743 22.7038C2.64353 22.9226 2.38527 23.157 2.40038 23.2194C2.40038 23.3132 4.11725 24.6569 4.66431 24.9694C4.84671 25.0943 4.83144 25.1882 4.54281 25.5944C3.72238 26.7193 3.44885 27.2193 3.44885 27.5631C3.44885 27.9068 3.5096 27.938 4.17816 27.938C4.57318 27.938 5.28738 27.8443 5.74315 27.7192C6.83711 27.4224 9.73922 25.985 11.2738 24.9694C14.7229 22.6883 15.8624 22.4695 20.9221 23.0945C22.3047 23.2664 23.9153 23.407 24.5231 23.407C25.5867 23.407 25.6171 23.3913 26.0425 22.8602C26.2856 22.5634 26.5743 22.0633 26.6654 21.7353C26.9997 20.7353 27.3492 19.9698 27.4707 19.9698C27.7594 19.9698 27.0757 23.1259 26.5286 24.2351C26.0576 25.1726 24.9788 26.8444 24.5079 27.3443L24.0976 27.7817H24.675C25.4651 27.7817 27.1821 27.1255 28.124 26.4849C29.7347 25.36 31.0412 23.6726 31.9529 21.4852C32.1808 20.9072 32.4391 20.4385 32.5151 20.4385C32.5759 20.4385 32.5759 20.9072 32.5304 21.4697L32.424 22.5164L32.9254 22.2196C33.8826 21.6571 35.0982 20.2197 35.8426 18.7823C36.9215 16.6574 37.3012 15.4231 38.6991 9.18913C39.2309 6.84545 39.4891 6.48618 42.0419 4.53318C43.303 3.56444 43.8651 2.65833 43.9715 1.3928C44.1088 -0.107077 43.7743 -0.310178 42.3461 0.377291ZM0.774945 33.719L0 36.8437H0.577432C1.23072 36.8437 1.15486 37.0156 1.79289 34.1877C1.97529 33.3753 2.1728 32.6566 2.21829 32.5941C2.27904 32.516 2.73497 33.4378 3.2515 34.6253L4.17831 36.7659H5.34828L6.25999 34.6253C6.76141 33.4379 7.20208 32.4849 7.24756 32.4692C7.2932 32.4692 7.56657 33.4535 7.82499 34.641L8.32641 36.8128L8.91895 36.8753C9.25323 36.9065 9.52676 36.9065 9.52676 36.8596C9.52676 36.8284 9.17737 35.3909 8.7367 33.688L7.96176 30.5788L7.4147 30.6258C6.88291 30.6727 6.88291 30.6727 5.86497 32.985C5.3028 34.2505 4.81665 35.3285 4.78612 35.3599C4.75574 35.4068 4.25433 34.3444 3.6769 33.0164L2.62842 30.5947H1.54973L0.774945 33.719ZM30.1907 33.719V36.8439H32.0748C34.4602 36.8439 34.7641 36.7814 35.5541 36.047C37.3014 34.469 36.6785 31.3911 34.4753 30.7505C34.1714 30.6724 33.0774 30.5944 32.0595 30.5944H30.1906V33.719H30.1907ZM34.4452 31.4066C35.3417 31.8753 35.7063 32.5627 35.7063 33.7189C35.7063 34.8283 35.3417 35.5313 34.506 36.0312C33.9895 36.328 33.731 36.3749 32.4699 36.3437L31.0264 36.2967L30.9808 33.875C30.9657 32.547 30.9808 31.3752 31.0112 31.2658C31.0719 31.1252 31.4822 31.0627 32.4394 31.0627C33.5183 31.0629 33.8982 31.1253 34.4452 31.4066ZM37.7879 33.7033V36.8437H40.0063C42.4374 36.8437 43.0755 36.6874 43.3946 35.9687C43.7592 35.1251 43.4097 33.9532 42.726 33.7813C42.331 33.6876 42.1942 33.4064 42.5438 33.4064C42.9388 33.4064 43.3338 32.7814 43.3338 32.1408C43.3338 31.6877 43.2274 31.4221 42.9084 31.1096C42.4981 30.6722 42.4677 30.6722 40.1431 30.6253L37.788 30.5783V33.7033H37.7879ZM42.0574 31.2347C42.4981 31.4691 42.6956 32.1253 42.4981 32.6409C42.255 33.219 42.0727 33.2814 40.1885 33.3753L38.5475 33.4535V31.063H40.1582C41.0395 31.0629 41.8903 31.141 42.0574 31.2347ZM42.1942 34.1095C42.9843 34.5314 42.9235 35.9064 42.1182 36.2187C41.8903 36.3124 41.009 36.3749 40.1278 36.3749H38.5477V33.875H40.1431C41.2674 33.8752 41.8903 33.9377 42.1942 34.1095ZM11.1221 32.469C10.3017 32.8752 9.98253 33.469 9.98253 34.547C9.98253 35.5625 10.4079 36.3124 11.198 36.7188C11.9122 37.0938 12.9758 37.0782 13.5987 36.6876C13.9937 36.4375 14.0848 36.422 14.0848 36.6094C14.0848 36.7813 14.252 36.8437 14.6926 36.8437H15.3004V32.3127H14.6926C14.252 32.3127 14.0848 32.3752 14.0848 32.547C14.0848 32.8438 14.1152 32.8439 13.401 32.4689C12.6415 32.0785 11.8971 32.0785 11.1221 32.469ZM13.766 33.4846C14.0395 33.7658 14.1306 34.0314 14.1459 34.547C14.1763 35.7813 13.1734 36.4843 12.0642 36.0001C11.4413 35.7345 11.1678 35.2971 11.1678 34.547C11.1678 33.141 12.7631 32.4847 13.766 33.4846ZM18.6889 32.469C18.4153 32.6409 18.1874 32.844 18.1874 32.9377C18.1874 33.0159 18.1267 33.094 18.0356 33.094C17.9596 33.094 17.8837 32.9222 17.8837 32.7034C17.8837 32.3596 17.8229 32.3127 17.3519 32.3127H16.8201V36.8437H17.8837V35.6876C17.8837 33.7815 18.3091 33.094 19.5247 33.094C20.0412 33.094 20.1325 33.0471 20.1933 32.7034C20.2389 32.5003 20.2389 32.2815 20.1933 32.2347C20.0107 32.0473 19.1446 32.1878 18.6889 32.469ZM24.3107 32.391C23.5357 32.7503 23.1256 33.4847 23.1256 34.5314C23.1256 35.5002 23.3839 36.0001 24.1741 36.5939C24.7362 37.0313 26.362 37.0625 26.8026 36.6408C27.1673 36.3128 27.3041 36.2971 27.3041 36.6096C27.3041 36.7814 27.4712 36.8439 27.9119 36.8439H28.5197V32.3129H27.9119C27.3953 32.3129 27.3041 32.3598 27.3041 32.6254C27.3041 32.9379 27.3041 32.9379 26.8483 32.6097C26.286 32.1722 25.0096 32.0628 24.3107 32.391ZM26.3314 33.094C26.4529 33.094 26.7265 33.2659 26.924 33.4846C27.2126 33.7658 27.3037 34.0314 27.3037 34.5314C27.3037 35.3751 27.0151 35.8282 26.3162 36.0626C25.2526 36.422 24.1283 35.422 24.3258 34.2814C24.4625 33.5002 25.2982 32.8595 25.906 33.0314C26.0277 33.0628 26.2099 33.094 26.3314 33.094ZM20.9224 34.3126C20.9224 36.6719 21.0439 37.0001 21.9707 37.0001C22.2897 37.0001 22.5785 36.9688 22.624 36.9219C22.776 36.7657 22.548 36.0626 22.3505 36.0626C22.1833 36.0626 22.1377 35.6876 22.1377 34.1877V32.3129H20.9223V34.3126H20.9224Z" fill="black"/>
</g>
<defs>
<clipPath id="clip0">
<rect width="44" height="37" fill="white"/>
</clipPath>
</defs>
</svg>
