<svg width="59" height="31" viewBox="0 0 59 31" fill="none" xmlns="http://www.w3.org/2000/svg">
<path fill-rule="evenodd" clip-rule="evenodd" d="M0.777991 27.9065H2.67361V20.3959L5.6347 26.9423C5.97134 27.73 6.45178 28.0209 7.38325 28.0209C8.31799 28.0209 8.76902 27.73 9.11873 26.9423L12.0635 20.3959V27.9065H13.9722V20.3959C13.9722 19.6671 13.6813 19.3173 13.0668 19.1278C11.6223 18.6898 10.6614 19.069 10.2234 20.0462L7.32115 26.5207L4.52021 20.0462C4.0986 19.069 3.12137 18.6898 1.66044 19.1278C1.06233 19.3173 0.771454 19.6671 0.771454 20.3959V27.9065H0.777991Z" fill="#00678F"/>
<path fill-rule="evenodd" clip-rule="evenodd" d="M15.5508 21.7941H17.4595V25.9219C17.4464 26.154 17.5314 26.6802 18.5674 26.6933C19.1067 26.7063 22.679 26.6933 22.7084 26.6933V21.7646H24.6203C24.6203 21.7646 24.6203 28.4876 24.6203 28.517C24.6203 30.1806 22.5646 30.5433 21.6004 30.5597H15.5965V29.2916C15.6096 29.2916 21.6037 29.2916 21.62 29.2916C22.8457 29.1608 22.6986 28.5464 22.6986 28.3438V27.847H18.6557C16.7731 27.8339 15.5639 27.0005 15.5508 26.0527C15.5508 25.9644 15.5965 21.8235 15.5508 21.7941Z" fill="#00678F"/>
<path fill-rule="evenodd" clip-rule="evenodd" d="M56.529 17.0127C55.3622 16.9833 54.4569 17.101 53.6986 17.4212C53.4796 17.5095 53.1299 17.5095 53.1005 17.7873C53.2182 17.905 53.2312 18.0945 53.3326 18.2547C53.5091 18.5456 53.813 18.941 54.0908 19.1437C54.398 19.3757 54.702 19.611 55.0255 19.8137C55.5942 20.1634 56.2348 20.3693 56.7904 20.719C57.1107 20.9216 57.431 21.1863 57.7513 21.4053C57.9115 21.523 58.0128 21.7125 58.2187 21.7844C58.2187 21.7714 58.2187 21.755 58.2187 21.742C58.1174 21.6112 58.088 21.4217 57.9866 21.2746C57.8396 21.1275 57.6958 20.9968 57.5487 20.853C57.1271 20.2843 56.6009 19.7875 56.0322 19.379C55.5648 19.0587 54.5451 18.6207 54.3555 18.0814C54.3555 18.0814 54.3425 18.0684 54.3261 18.052C54.6464 18.0226 55.0255 17.905 55.3328 17.82C55.8295 17.6893 56.2806 17.7187 56.7904 17.5879C57.0225 17.5291 57.2578 17.4572 57.4899 17.3853C57.4899 17.3428 57.4899 17.2971 57.4899 17.2546C57.2284 16.9931 57.0388 16.6434 56.761 16.395C56.0158 15.7544 55.202 15.1269 54.3555 14.6007C53.9045 14.3098 53.3195 14.1203 52.839 13.8719C52.6626 13.7836 52.3717 13.7411 52.2704 13.5941C52.0089 13.2738 51.8618 12.8489 51.6723 12.4698C51.2506 11.669 50.8421 10.7768 50.4761 9.93354C50.2146 9.36486 50.0544 8.79617 49.7309 8.26997C48.2275 5.79259 46.5966 4.28917 44.0865 2.81516C43.5472 2.50794 42.9066 2.3772 42.2203 2.21706C41.8543 2.20398 41.4915 2.17457 41.1254 2.15823C40.8934 2.05691 40.658 1.7791 40.4554 1.64837C39.6253 1.12217 37.4812 -0.0152028 36.8668 1.48822C36.4746 2.43603 37.4486 3.37077 37.7852 3.85121C38.0336 4.18785 38.3539 4.56697 38.5304 4.9461C38.6317 5.19449 38.6611 5.45595 38.7624 5.71742C38.9945 6.35801 39.2135 7.07377 39.5207 7.67187C39.6808 7.97909 39.8573 8.29939 40.0599 8.57719C40.1776 8.73734 40.3802 8.80924 40.426 9.07398C40.2234 9.36486 40.207 9.80281 40.0894 10.1689C39.5632 11.8161 39.7691 13.8588 40.511 15.0681C40.743 15.4341 41.2986 16.2349 42.0405 15.9276C42.6975 15.6662 42.5504 14.8327 42.74 14.1039C42.7825 13.9274 42.753 13.813 42.8413 13.6954C42.8413 13.7084 42.8413 13.7248 42.8413 13.7248C43.0439 14.1333 43.2498 14.5255 43.4394 14.9341C43.8904 15.6498 44.6781 16.3917 45.335 16.8885C45.6847 17.15 45.9625 17.6043 46.4005 17.7644C46.4005 17.7514 46.4005 17.735 46.4005 17.7219C46.3874 17.7219 46.3874 17.7219 46.3711 17.7219C46.2828 17.5912 46.1521 17.5324 46.0344 17.4311C45.773 17.1696 45.4788 16.8493 45.2762 16.5551C44.665 15.7381 44.1257 14.836 43.642 13.9013C43.41 13.4502 43.2041 12.9535 43.0145 12.5024C42.9263 12.3259 42.9263 12.0645 42.7825 11.9762C42.5635 12.2965 42.2432 12.5743 42.083 12.9665C41.8052 13.5941 41.7758 14.3654 41.6745 15.1694C41.6157 15.1825 41.6451 15.1694 41.6157 15.1988C41.1483 15.0811 40.9881 14.6007 40.8149 14.1922C40.377 13.1561 40.3051 11.4958 40.6842 10.2996C40.7855 9.99237 41.2235 9.03149 41.0502 8.74061C40.962 8.4628 40.6711 8.30265 40.511 8.08368C40.3214 7.80587 40.1188 7.45616 39.9848 7.14894C39.6351 6.33186 39.4586 5.42981 39.0795 4.61273C38.903 4.23361 38.599 3.84141 38.3506 3.48843C38.0728 3.09623 37.7689 2.81842 37.5499 2.35106C37.478 2.19091 37.3734 1.92944 37.4911 1.75296C37.5205 1.6353 37.5793 1.59281 37.6937 1.56339C37.8833 1.40325 38.4225 1.60588 38.6121 1.69413C39.1514 1.9131 39.6024 2.11574 40.0567 2.42296C40.2593 2.57003 40.4783 2.84457 40.743 2.91974C40.8443 2.91974 40.9457 2.91974 41.0502 2.91974C41.5176 3.02106 42.0405 2.94916 42.4785 3.07989C43.2498 3.32828 43.9525 3.69106 44.58 4.08653C46.4887 5.29581 48.064 7.01821 49.1295 9.07398C49.306 9.41061 49.3779 9.71457 49.5381 10.0643C49.8453 10.78 50.2244 11.5089 50.5283 12.2083C50.8356 12.8946 51.1265 13.5941 51.5644 14.1627C51.7834 14.47 52.6593 14.6301 53.0515 14.7903C53.3424 14.921 53.7967 15.0386 54.0581 15.1988C54.5549 15.506 55.0484 15.8557 55.5158 16.1891C55.7544 16.3558 56.4832 16.7186 56.529 17.0127Z" fill="#00678F"/>
<path fill-rule="evenodd" clip-rule="evenodd" d="M41.6547 4.33789C41.4064 4.33789 41.2331 4.36731 41.0566 4.40979C41.0566 4.40979 41.0566 4.42287 41.0566 4.43921C41.0697 4.43921 41.0697 4.43921 41.0861 4.43921C41.2037 4.67126 41.4063 4.83141 41.5534 5.03731C41.6711 5.26936 41.7724 5.50468 41.8901 5.73673C41.9031 5.72366 41.9195 5.70731 41.9195 5.70731C42.1221 5.56024 42.2267 5.32819 42.2267 4.97848C42.1385 4.87716 42.1254 4.77584 42.0502 4.67126C41.9587 4.52745 41.7691 4.45555 41.6547 4.33789Z" fill="#00678F"/>
<path fill-rule="evenodd" clip-rule="evenodd" d="M26.0813 27.9056H31.5655C32.2061 27.9056 32.8206 27.7749 33.3141 27.5396C34.1442 27.1605 34.5397 26.6506 34.5397 25.9806V24.5818C34.5397 24.0425 34.0887 23.5326 33.1833 23.1829C32.716 23.0064 32.1342 22.9051 31.5655 22.9051H29.2614C28.49 22.9051 28.124 22.6731 28.0227 22.1599C28.0096 22.1011 28.0096 22.0423 28.0096 21.9835V21.1239C28.0096 21.0814 28.0096 21.0226 28.0227 20.9637C28.124 20.5715 28.3299 20.467 28.9999 20.3951C29.0587 20.3951 29.1306 20.3951 29.1764 20.3951H34.6149V19.127H29.2744C28.5031 19.127 28.0946 19.1694 27.7285 19.2871C26.6042 19.6368 26.1107 20.1924 26.1107 21.1696V22.2776C26.1107 23.1372 27.0716 23.866 28.7058 24.0425C28.8822 24.0556 29.0718 24.0556 29.2614 24.0556H31.2289C31.3008 24.0556 31.376 24.0556 31.4315 24.0686C32.0296 24.1275 32.2911 24.2288 32.4676 24.4478C32.5852 24.5654 32.6147 24.6667 32.6147 24.7975V25.9054C32.6147 26.0362 32.5264 26.2127 32.3532 26.3565C32.18 26.5003 31.9022 26.6049 31.5361 26.6179C31.4642 26.6179 31.4184 26.631 31.3465 26.631H26.0813V27.9056Z" fill="#E38D1A"/>
<path fill-rule="evenodd" clip-rule="evenodd" d="M46.407 25.7028C46.407 27.0003 47.3842 27.7292 49.3387 27.8762C49.5282 27.8893 49.7047 27.9056 49.8943 27.9056H54.8523V26.6375H49.8518C48.7438 26.6375 48.3222 26.3597 48.3222 25.6897V19.127H46.4135V25.7028H46.407Z" fill="#E38D1A"/>
<path fill-rule="evenodd" clip-rule="evenodd" d="M35.7489 25.7622V21.2422C35.7489 20.0917 36.566 19.389 38.1544 19.17C38.3309 19.157 38.5041 19.1406 38.6643 19.1406H42.2823C42.4719 19.1406 42.632 19.1537 42.8216 19.17C44.41 19.389 45.214 20.0884 45.214 21.2422V25.7622C45.214 26.697 44.8773 27.1905 44.0897 27.5271L45.9559 29.2201H43.753L42.2365 27.8507L40.707 27.9389H38.6643C38.3276 27.9389 37.9485 27.8964 37.5563 27.7919C36.347 27.452 35.7489 26.8114 35.7489 25.7622ZM37.8047 25.6576C37.8047 25.7165 37.8341 25.7753 37.8472 25.8472C37.9485 26.3734 38.4453 26.6643 39.2035 26.6643H40.9227L39.3473 25.236H41.5502L42.936 26.4911C43.1974 26.344 43.3576 26.1414 43.4164 25.8799C43.4295 25.8211 43.4295 25.7492 43.4295 25.6903V21.3598C43.4295 21.301 43.4295 21.2422 43.4164 21.1833C43.3151 20.6865 42.8183 20.412 42.0764 20.412H39.2035C38.357 20.412 37.8047 20.7781 37.8047 21.3598V25.6576Z" fill="#E38D1A"/>
<path fill-rule="evenodd" clip-rule="evenodd" d="M55.7248 27.9192H56.0026V26.8537H56.3687V26.6348H55.349V26.8537H55.7281V27.9192H55.7248ZM57.8394 27.9192H58.1009V26.6348H57.7087L57.3884 27.5107L57.0387 26.6348H56.6596V27.9192H56.908V26.942H56.921L57.2871 27.9192H57.4766L57.8427 26.942V27.9192H57.8394Z" fill="#E38D1A"/>
</svg>
