<svg viewBox="0 0 55 57" fill="none" xmlns="http://www.w3.org/2000/svg">
<path fill-rule="evenodd" clip-rule="evenodd" d="M54.9571 34.0361C52.4013 45.9425 41.7825 54.9141 29.1309 54.9141C14.5804 54.9141 2.71639 43.0468 2.71639 28.4996C2.71639 13.9523 14.5836 2.08505 29.1309 2.08505C41.7008 2.08505 52.264 10.9422 54.9081 22.7342C52.2411 10.2101 41.0766 0.764648 27.7778 0.764648C12.5017 0.764648 0.0429077 13.2235 0.0429077 28.4996C0.0429077 43.7757 12.5017 56.2345 27.7778 56.2345C41.1583 56.2345 52.3784 46.6746 54.9571 34.0361Z" fill="black"/>
<path fill-rule="evenodd" clip-rule="evenodd" d="M24.6927 42.2888C26.2223 42.1319 26.4217 40.5141 25.7026 39.8082C25.1111 39.2264 21.8395 36.798 20.9832 35.8437C20.5877 35.3992 20.0485 35.1835 19.8229 34.6834C19.3 33.5363 18.934 31.9021 19.5974 30.7288C19.7184 30.5163 19.7935 30.6111 19.702 31.0524C19.1824 33.5591 20.8132 35.6051 21.1728 34.556C21.4212 33.8304 21.1924 32.5329 21.3231 31.5034C21.5584 29.6797 23.2187 26.1793 23.9476 25.9799C22.8233 23.898 25.2647 22.2671 25.2353 20.4401C25.2157 19.2505 26.2779 21.9011 27.3466 22.4632C28.5395 23.0907 29.8534 21.2801 31.7131 20.3617C32.2393 20.1035 32.9158 19.8028 32.8701 19.5806C32.6511 18.5118 30.4254 20.8977 28.435 20.9794C27.5264 21.0154 27.1897 20.7997 26.84 20.463C25.7811 19.4368 26.9479 20.2931 28.5232 20.0087C29.2226 19.8813 29.4579 19.7636 30.2031 19.4662C30.945 19.1655 31.7948 18.721 32.638 18.4922C33.223 18.3321 33.174 17.8941 32.9485 17.7601C32.8178 17.685 32.6217 17.6915 32.4681 17.9562C32.1085 18.5805 30.409 18.94 29.8795 19.1034C29.1997 19.3126 28.448 19.5054 27.4479 19.4662C25.9282 19.4041 26.2844 18.7079 25.1961 18.087C24.879 17.9039 24.964 17.4235 25.3856 17.0019C25.6079 16.7796 26.2158 16.6554 26.5165 16.1488C26.5589 16.0769 26.9479 15.6717 27.2518 15.4625C27.3564 15.3906 27.3662 13.5342 26.4151 13.4982C25.6079 13.4656 25.3758 14.0931 25.4118 14.7173C25.4444 15.3416 25.7778 15.8547 25.9968 15.8547C26.4217 15.8514 26.0229 16.3188 25.7909 16.394C25.4379 16.5084 24.9542 15.0049 25.0098 14.2826C25.0686 13.5309 25.4608 12.1975 26.4119 12.2236C27.2682 12.2465 27.8891 13.3218 27.8597 15.1749C27.8532 15.4886 29.2488 15.0245 29.7161 15.5181C30.0495 15.871 28.5755 12.2334 31.8569 11.9817C32.723 12.1484 33.5531 12.436 33.8963 14.4232C33.7688 14.6291 34.112 16.0181 33.5793 16.1815C32.9289 16.3809 32.5269 16.1521 32.9027 15.5311C33.1609 14.9069 32.9093 13.3218 31.5889 13.4165C30.2717 13.5113 30.445 15.8514 30.8077 15.8972C31.1705 15.9429 32.0791 16.5901 32.7164 16.7143C34.8016 17.1195 33.2688 18.3157 33.5401 19.7636C33.8473 21.3978 34.9226 20.9663 35.89 25.2969C36.0926 25.5616 36.8933 25.81 37.6745 29.1371C38.3772 32.1309 37.3836 34.3043 39.07 34.1278C39.4492 34.0886 40.0081 33.9808 40.2499 33.1343C40.8807 30.9183 39.9329 28.2776 38.9753 26.4963C38.4164 25.457 37.8902 24.751 37.6156 24.5059C38.7138 25.1563 40.1159 27.2284 40.4427 28.7678C40.8676 30.7909 41.1716 31.6439 40.5277 33.7814C40.9003 33.9677 41.8252 34.3599 41.8252 34.8011C40.8611 34.0102 37.9131 33.8696 37.8379 35.762C37.3346 35.7718 36.9554 35.8143 36.6319 36.1967C35.4455 37.602 36.5469 40.4259 36.426 41.9424C36.3214 43.2758 35.9521 44.5962 35.7429 45.9362C35.0369 45.9101 35.1056 45.3937 35.3311 44.6681C35.5305 44.0276 35.854 43.2268 35.8736 42.4588C35.8932 41.7626 35.8181 41.3279 35.6416 41.2201C35.4651 41.1122 35.1906 41.3312 34.8114 41.9424C34.0009 43.2464 32.2491 43.8184 30.6117 44.0243C28.9742 44.2302 27.4512 44.0668 26.6472 43.1647C26.3726 42.8575 25.9151 43.2497 25.8595 43.3314C25.7876 43.4425 26.1275 43.655 26.3825 44.1256C26.755 44.8119 27.1113 45.8513 26.2256 46.3252C26.2354 43.9066 25.4739 43.7661 24.6927 42.2888ZM24.1077 42.2267C24.696 43.1516 26.7616 47.0377 23.137 47.5443C21.9245 47.7142 19.9733 46.8383 18.0809 46.3775C16.3814 45.9624 14.6557 45.7173 13.6916 45.446C13.1098 45.2826 12.868 45.0734 12.8157 44.8316C12.6817 44.1877 13.5216 43.2791 13.5641 42.5176C13.6066 41.7528 13.2863 41.3573 13.0216 40.7331C12.7569 40.1088 12.6882 39.6415 12.9007 39.3735C13.0641 39.1643 13.3974 39.0793 13.94 39.1316C14.6263 39.2003 15.4565 39.0597 15.9042 38.7852C16.656 38.3276 17.0089 37.3863 16.6723 36.2555C16.6723 37.3635 16.3095 37.7818 15.3977 38.2884C14.5414 38.7656 13.2144 38.3799 12.6065 38.9061C11.8744 39.5402 12.868 41.1809 12.7863 42.3869C12.7242 43.3118 11.7568 44.3544 12.1882 45.2826C12.6229 46.2173 14.6427 46.3186 16.7475 46.7599C19.7412 47.3874 21.4865 48.4757 22.8723 48.528C24.8921 48.6032 25.1993 46.5311 28.3696 46.5017C29.2945 46.4526 30.1966 46.4232 31.1019 46.4134C32.1249 46.4003 33.1479 46.4102 34.197 46.433C36.3051 46.4853 35.5795 47.5835 36.9489 48.2862C38.1026 48.8777 40.178 48.6457 40.6748 48.1718C41.3481 47.5312 43.1522 45.9885 44.5314 45.2924C46.2538 44.423 50.3 42.9294 47.3618 41.1057C46.6787 40.6808 45.0576 40.233 44.9236 37.1249C44.3124 37.6707 44.3811 40.5631 46.0904 41.1384C48.0023 41.779 49.1953 42.8542 45.6426 44.07C43.2927 44.874 42.8907 45.1224 41.031 46.6716C39.1485 48.2404 36.3541 47.6162 36.8411 44.3152C37.096 42.596 37.2431 41.1743 36.8149 39.6807C36.6057 38.9519 36.5012 38.0139 36.645 37.3569C36.9228 36.079 37.6156 35.6966 38.2922 36.9222C38.7171 37.6936 38.8674 38.5924 40.3904 38.6643C42.7829 38.7786 43.2568 36.3536 44.0215 36.2424C44.5314 36.1673 45.0413 34.7259 44.6523 32.3891C44.2372 29.8888 42.7665 25.9407 40.8774 23.9405C39.3086 22.2769 38.3216 20.8193 37.7006 18.7373C37.1777 16.9888 36.8868 15.286 36.9947 13.6584C37.1352 11.5503 35.9651 8.61538 34.1022 7.23289C32.9354 6.37005 31.1084 5.90595 29.4547 5.92229C28.5265 5.9321 27.6538 6.06937 26.9838 6.43215C24.2221 7.93231 23.8364 10.073 23.8789 12.5177C23.9181 14.8121 23.9966 17.4333 24.258 19.927C23.9508 21.0709 22.3428 23.2411 21.3133 24.5615C19.9275 25.9276 19.2314 28.5717 18.3359 30.8791C17.8587 32.1113 17.0547 32.6669 16.9861 34.2488C16.9664 34.69 16.9828 35.8372 17.4044 35.5103C19.0189 34.252 21.0453 37.4092 24.1077 42.2267ZM32.5073 9.13504C32.419 9.39651 32.0595 9.61222 32.2883 9.79524C32.5171 9.97827 32.6478 9.54031 33.1054 9.3769C33.223 9.33441 33.7754 9.39324 33.8767 9.13178C33.9225 9.01738 33.5924 8.88665 33.3963 8.70036C33.2002 8.51406 33.0073 8.34738 32.8243 8.35719C32.3537 8.3866 32.5857 8.90299 32.5073 9.13504ZM35.3213 18.6524C35.4912 18.4726 35.5795 18.9629 36.0403 19.2505C36.4031 19.4793 36.7593 19.3093 36.8509 19.7767C36.9162 20.11 36.7071 20.4728 36.4292 20.4271C35.9423 20.3454 34.818 19.1851 35.3213 18.6524ZM27.729 15.7174C26.9707 15.6619 26.9185 16.2077 27.1701 16.1979C27.4283 16.1881 27.2682 15.7632 27.729 15.7174ZM26.4315 14.3186C26.5197 14.299 26.6472 14.4526 26.608 14.665C26.5524 14.9624 26.5753 15.1487 26.7812 15.1487C26.8139 15.1487 26.8531 15.1422 26.8662 15.0638C26.9642 14.4722 26.657 14.0375 26.5328 14.0081C26.2419 13.9329 26.2779 14.3513 26.4315 14.3186ZM31.9419 14.0669C32.1347 14.1225 32.3177 14.4559 32.3602 14.8154C32.3635 14.8481 32.6119 14.7631 32.6119 14.6846C32.6282 14.1061 32.1347 13.8349 32.004 13.848C31.7065 13.8741 31.7915 14.0244 31.9419 14.0669ZM29.118 15.7861C29.8076 15.4658 30.0462 15.9625 29.8109 16.041C29.5658 16.1227 29.5625 15.6717 29.118 15.7861ZM20.8002 27.516C20.4733 27.4768 20.895 27.2317 21.0714 26.9245C21.2675 26.5846 21.2283 26.163 21.4342 26.2251C21.6401 26.2871 21.5257 26.5225 21.3852 26.9114C21.2675 27.2448 20.9211 27.5324 20.8002 27.516Z" fill="black"/>
</svg>
