<svg viewBox="0 0 30 33" fill="none" xmlns="http://www.w3.org/2000/svg">
<g clip-path="url(#clip0)">
<path d="M14.7867 32.7647C14.342 32.7647 13.9269 32.6449 13.5414 32.4354L9.59815 30.0701C9.00517 29.7407 9.30166 29.621 9.47956 29.5611C10.2801 29.2916 10.4283 29.2318 11.2585 28.7527C11.3474 28.6928 11.466 28.7228 11.555 28.7827L14.5792 30.609C14.6978 30.6689 14.846 30.6689 14.9349 30.609L26.7648 23.6928C26.8834 23.6329 26.9427 23.5132 26.9427 23.3635V9.56106C26.9427 9.41136 26.8834 9.29159 26.7648 9.23171L14.9349 2.34547C14.8163 2.28559 14.6681 2.28559 14.5792 2.34547L2.74927 9.23171C2.63067 9.29159 2.57138 9.4413 2.57138 9.56106V23.3635C2.57138 23.4832 2.63067 23.6329 2.74927 23.6928L5.98099 25.5791C7.73027 26.4773 8.82728 25.4294 8.82728 24.3815V10.7587C8.82728 10.579 8.97552 10.3994 9.18307 10.3994H10.6952C10.8731 10.3994 11.0509 10.5491 11.0509 10.7587V24.3815C11.0509 26.7467 9.77604 28.124 7.55238 28.124C6.87046 28.124 6.33678 28.124 4.82469 27.3755L1.71156 25.5791C0.94069 25.13 0.466309 24.2916 0.466309 23.3934V9.591C0.466309 8.69279 0.94069 7.85447 1.71156 7.40536L13.5414 0.489177C14.2827 0.0700141 15.2907 0.0700141 16.0319 0.489177L27.8618 7.40536C28.6327 7.85447 29.1071 8.69279 29.1071 9.591V23.3934C29.1071 24.2916 28.6327 25.13 27.8618 25.5791L16.0319 32.4952C15.6465 32.6749 15.2018 32.7647 14.7867 32.7647ZM18.4335 23.2737C13.245 23.2737 12.1776 20.8785 12.1776 18.8425C12.1776 18.6629 12.3258 18.4832 12.5334 18.4832H14.0751C14.253 18.4832 14.4013 18.603 14.4013 18.7826C14.6385 20.3695 15.3204 21.1479 18.4632 21.1479C20.9537 21.1479 22.021 20.579 22.021 19.2317C22.021 18.4533 21.7245 17.8844 17.8405 17.4952C14.6088 17.1659 12.5927 16.4473 12.5927 13.8425C12.5927 11.4173 14.6088 9.98022 17.9888 9.98022C21.7838 9.98022 23.6517 11.2976 23.8889 14.1718C23.8889 14.2617 23.8592 14.3515 23.7999 14.4413C23.7406 14.5012 23.6517 14.5611 23.5628 14.5611H22.021C21.8728 14.5611 21.7245 14.4413 21.6949 14.2916C21.3391 12.6449 20.42 12.106 17.9888 12.106C15.2611 12.106 14.9349 13.0641 14.9349 13.7826C14.9349 14.6509 15.3204 14.9204 18.9968 15.3994C22.6436 15.8784 24.3633 16.5671 24.3633 19.1419C24.3336 21.7767 22.1989 23.2737 18.4335 23.2737Z" fill="#539E43"/>
</g>
<defs>
<clipPath id="clip0">
<rect width="28.6408" height="32.6505" fill="white" transform="translate(0.466309 0.174805)"/>
</clipPath>
</defs>
</svg>
