<svg viewBox="0 0 84 12" fill="none" xmlns="http://www.w3.org/2000/svg">
<path fill-rule="evenodd" clip-rule="evenodd" d="M60.4171 0.833984H58.7083V11.2918H66.739L67.8277 9.583H60.4171V0.833984Z" fill="#EF3E28"/>
<path fill-rule="evenodd" clip-rule="evenodd" d="M36.9853 1.35046L30.7169 11.2952H32.787L34.6787 8.29256H38.7164L39.7782 6.58381H35.7406L37.9401 3.13952L43.0931 11.2952H45.1633L38.8502 1.32369C38.4621 0.676772 37.427 0.676771 36.9853 1.35046Z" fill="#EF3E28"/>
<path fill-rule="evenodd" clip-rule="evenodd" d="M49.1295 2.53786H56.317L57.3788 0.829102L49.0804 0.833564C46.1938 0.833564 44.2932 3.17585 44.2932 6.06244C44.2932 8.94904 46.1938 11.2913 49.0804 11.2913L56.0984 11.2824L57.1959 9.58703H49.1295C47.1843 9.58703 46.0466 8.00766 46.0466 6.06244C46.0466 4.11723 47.1843 2.53786 49.1295 2.53786Z" fill="#EF3E28"/>
<path fill-rule="evenodd" clip-rule="evenodd" d="M12.4604 0.833984H5.05432C2.16772 0.833984 0.26712 3.17627 0.26712 6.06287C0.26712 8.94947 2.16772 11.2918 5.05432 11.2918H12.4604C15.347 11.2918 17.2476 8.94947 17.2476 6.06287C17.2476 3.17627 15.347 0.833984 12.4604 0.833984ZM12.4604 9.58746H5.05432C3.1091 9.58746 1.97142 8.00809 1.97142 6.06287C1.97142 4.11765 3.1091 2.53828 5.05432 2.53828H12.4604C14.4056 2.53828 15.5433 4.11765 15.5433 6.06287C15.5433 8.00809 14.4056 9.58746 12.4604 9.58746Z" fill="#EF3E28"/>
<path fill-rule="evenodd" clip-rule="evenodd" d="M72.713 2.53786H79.9005L80.9624 0.829102L72.6639 0.833564C69.7774 0.833564 67.8768 3.17585 67.8768 6.06244C67.8768 8.94904 69.7774 11.2913 72.6639 11.2913L79.6819 11.2824L80.7794 9.58703H72.713C71.0533 9.58703 69.987 8.43597 69.7104 6.89228H78.7628L79.8514 5.18353H69.7149C70.0049 3.66662 71.0712 2.53786 72.713 2.53786Z" fill="#EF3E28"/>
<path fill-rule="evenodd" clip-rule="evenodd" d="M26.9871 7.0444C28.7003 7.0444 30.0923 5.65687 30.0923 3.93919C30.0923 2.22597 28.7048 0.833984 26.9871 0.833984H18.2738V11.2962H20.1922V2.53828H26.9915C27.7634 2.53828 28.3925 3.16735 28.3925 3.93919C28.3925 4.71103 27.7634 5.34011 26.9915 5.34011H21.5351L27.6831 11.2828H30.1592L25.7557 7.04886L26.9871 7.0444Z" fill="#EF3E28"/>
<path fill-rule="evenodd" clip-rule="evenodd" d="M82.7917 0.704102C82.2786 0.704102 81.8414 1.10117 81.8414 1.63656C81.8414 2.1764 82.2742 2.57347 82.7917 2.57347C83.3003 2.57347 83.7331 2.1764 83.7331 1.63656C83.7331 1.10117 83.3003 0.704102 82.7917 0.704102ZM82.7917 2.41732C82.3634 2.41732 82.0288 2.08717 82.0288 1.63656C82.0288 1.19487 82.3634 0.860254 82.7917 0.860254C83.2155 0.860254 83.5457 1.19487 83.5457 1.63656C83.5457 2.08717 83.2111 2.41732 82.7917 2.41732Z" fill="#EF3E28"/>
<path fill-rule="evenodd" clip-rule="evenodd" d="M82.9388 1.70387C83.0949 1.68602 83.2198 1.60125 83.2198 1.4094C83.2198 1.19525 83.0949 1.10156 82.8406 1.10156H82.4301V2.17678H82.5952V1.70833H82.7826L83.0681 2.17678H83.2511L82.9388 1.70387ZM82.5908 1.57002V1.23541H82.8138C82.9254 1.23541 83.0503 1.26218 83.0503 1.39156C83.0503 1.55664 82.9254 1.56556 82.7871 1.56556H82.5908V1.57002Z" fill="#EF3E28"/>
</svg>
