<svg viewBox="0 0 54 54" fill="none" xmlns="http://www.w3.org/2000/svg">
<path d="M53.7909 32.3322C53.4671 31.3814 52.6189 30.7191 51.522 30.5602C51.0048 30.4854 50.4125 30.5173 49.7116 30.6574C48.4898 30.9018 47.5834 30.9948 46.9219 31.0128C49.4188 26.9254 51.4491 22.2643 52.6179 17.8766C54.5079 10.7818 53.4979 7.54972 52.3177 6.08777C49.1943 2.21816 44.6375 0.139366 39.14 0.0757588C36.2073 0.0409895 33.6329 0.602411 32.2898 1.00614C31.0394 0.79221 29.6949 0.672767 28.2841 0.650679C25.6396 0.609774 23.303 1.16874 21.3065 2.31756C20.2012 1.95514 18.4272 1.44424 16.3786 1.11822C11.5604 0.351254 7.677 0.948876 4.83652 2.89452C1.39697 5.25024 -0.197507 9.3432 0.0973841 15.0597C0.19104 16.8746 1.23813 22.3968 2.88682 27.6339C3.83435 30.6441 4.84474 33.1438 5.88994 35.0643C7.3722 37.7875 8.95823 39.3912 10.7388 39.9671C11.7367 40.2895 13.5499 40.5153 15.457 38.9752C15.6987 39.2591 16.0213 39.5411 16.4493 39.8031C16.9928 40.1355 17.6575 40.4071 18.3213 40.568C20.7136 41.1479 22.9544 41.0028 24.8661 40.1901C24.8779 40.5198 24.887 40.8347 24.8946 41.1067C24.9072 41.5479 24.9199 41.9805 24.9365 42.385C25.0498 45.1203 25.2418 47.2472 25.8105 48.7353C25.8417 48.8171 25.8836 48.9419 25.9279 49.0742C26.2117 49.9165 26.6861 51.3265 27.893 52.4307C29.1428 53.5746 30.6546 53.9253 32.0392 53.9253C32.7336 53.9253 33.3962 53.837 33.9773 53.7163C36.0487 53.2858 38.4013 52.6301 40.1032 50.2805C41.7122 48.0594 42.4943 44.714 42.6359 39.4427C42.6542 39.2936 42.6711 39.1513 42.6874 39.0157L42.7211 38.7371L43.1002 38.7694L43.1978 38.7758C45.3076 38.869 47.8874 38.4352 49.4717 37.7216C50.7236 37.1584 54.7355 35.1048 53.7909 32.3322Z" fill="black"/>
<path d="M50.1831 32.8722C43.9098 34.127 43.4785 32.0676 43.4785 32.0676C50.1019 22.5382 52.8709 10.442 50.4816 7.48145C43.9628 -0.594217 32.6787 3.22508 32.4903 3.32407L32.4298 3.33471C31.1903 3.08519 29.8034 2.9367 28.2444 2.91196C25.406 2.86696 23.2527 3.63352 21.6188 4.8349C21.6188 4.8349 1.48905 -3.2058 2.4254 14.9474C2.62452 18.8093 8.13421 44.1685 14.7058 36.5089C17.1077 33.7079 19.4286 31.3397 19.4286 31.3397C20.5812 32.0821 21.9612 32.4609 23.4078 32.3249L23.5202 32.2325C23.4852 32.5802 23.5012 32.9203 23.5651 33.323C21.8721 35.157 22.3697 35.4789 18.9855 36.1544C15.5609 36.8388 17.5726 38.0569 18.8861 38.3756C20.4785 38.7615 24.1623 39.3084 26.6514 35.9299L26.5522 36.3154C27.2154 36.8306 27.6812 39.6661 27.6031 42.2368C27.5251 44.8073 27.473 46.5721 27.9955 47.9506C28.5184 49.3291 29.0392 52.4307 33.4883 51.5065C37.2056 50.734 39.1321 48.7323 39.4002 45.3932C39.5903 43.0195 40.0208 43.3705 40.0478 41.2481L40.3931 40.2435C40.7911 37.0257 40.4564 35.9875 42.7465 36.4704L43.3034 36.5179C44.9888 36.5921 47.1952 36.2549 48.4901 35.6713C51.2783 34.4168 52.9321 32.3218 50.1827 32.8722H50.1831Z" fill="#336791"/>
<path d="M22.797 16.6738C22.2317 16.5975 21.7198 16.668 21.4607 16.8583C21.3152 16.9652 21.2701 17.0892 21.2578 17.1744C21.2253 17.4004 21.3886 17.6504 21.489 17.7792C21.7729 18.1441 22.1876 18.3948 22.5981 18.4501C22.6576 18.4583 22.7169 18.4619 22.7757 18.4619C23.4602 18.4619 24.0827 17.9451 24.1375 17.5637C24.2061 17.0859 23.4908 16.7674 22.797 16.674V16.6738ZM41.5249 16.6889C41.4709 16.3144 40.7837 16.2077 40.1315 16.2956C39.4801 16.3835 38.8485 16.6687 38.9013 17.044C38.9435 17.3358 39.487 17.834 40.1304 17.834C40.1848 17.834 40.2397 17.8306 40.2949 17.823C40.7244 17.7653 41.0395 17.5009 41.1893 17.3485C41.4171 17.1162 41.5492 16.8572 41.5249 16.6889Z" fill="white"/>
<path d="M52.2708 32.7292C52.0316 32.0279 51.2617 31.8023 49.9825 32.0583C46.1846 32.8184 44.8245 32.2919 44.3779 31.9731C47.33 27.6126 49.7585 22.3416 51.0687 17.4238C51.6892 15.0942 52.032 12.9308 52.0601 11.1673C52.0911 9.23192 51.751 7.80966 51.0499 6.94084C48.2229 3.43835 44.0738 1.55958 39.0513 1.50804C35.5985 1.47041 32.6812 2.32716 32.1157 2.56809C30.9248 2.28094 29.6264 2.10464 28.2129 2.08214C25.6209 2.04144 23.3804 2.64315 21.5254 3.86969C20.7196 3.57885 18.6372 2.88572 16.0906 2.48792C11.6879 1.80071 8.18928 2.32143 5.69262 4.03638C2.71355 6.08285 1.33824 9.74099 1.60465 14.9089C1.6943 16.6476 2.71608 21.9963 4.32849 27.1187C6.45094 33.8606 8.75818 37.6773 11.1856 38.4624C11.4698 38.5543 11.7974 38.6185 12.1587 38.6185C13.0442 38.6185 14.1299 38.2315 15.2595 36.9148C16.6372 35.3122 18.0624 33.7486 19.5333 32.2258C20.4876 32.7224 21.5359 32.9998 22.6081 33.0276C22.6102 33.0548 22.613 33.082 22.6155 33.109C22.4309 33.3224 22.2502 33.5389 22.0734 33.7584C21.3305 34.6728 21.1759 34.8632 18.7845 35.3406C18.1042 35.4768 16.2975 35.8378 16.2709 37.0657C16.2422 38.4074 18.4067 38.9709 18.6533 39.0306C19.5126 39.2392 20.3405 39.3421 21.1301 39.3421C23.0502 39.3421 24.7401 38.7302 26.0905 37.5462C26.0489 42.3292 26.2546 47.0423 26.8469 48.4782C27.3321 49.6538 28.5171 52.5268 32.2604 52.5266C32.8097 52.5266 33.4142 52.4646 34.0793 52.3264C37.9861 51.5144 39.6827 49.8402 40.3389 46.1491C40.6901 44.1764 41.2928 39.466 41.5763 36.9393C42.1745 37.1203 42.9446 37.2032 43.7772 37.203C45.5136 37.203 47.5173 36.8452 48.7739 36.2797C50.1855 35.6441 52.7327 34.0844 52.2708 32.7292ZM42.9672 15.6554C42.9543 16.4013 42.8484 17.0785 42.7362 17.7854C42.6153 18.5456 42.4905 19.3316 42.459 20.2857C42.428 21.2142 42.5476 22.1796 42.6632 23.1132C42.8969 24.999 43.1368 26.9403 42.2084 28.8559C42.0542 28.591 41.9169 28.3171 41.7971 28.036C41.6817 27.7648 41.4311 27.3291 41.0841 26.7262C39.7344 24.379 36.5735 18.8826 38.1916 16.6398C38.6735 15.9722 39.8968 15.2859 42.9672 15.6554ZM39.2454 3.01846C43.7455 3.11479 47.3053 4.7471 49.8256 7.86979C51.7586 10.265 49.6301 21.1635 43.4679 30.5657C43.406 30.4893 43.3437 30.4132 43.2811 30.3373L43.203 30.2428C44.7954 27.693 44.484 25.1701 44.2069 22.9335C44.093 22.0156 43.9854 21.1486 44.0128 20.3342C44.0411 19.4711 44.1588 18.7307 44.2727 18.0148C44.4125 17.1327 44.5549 16.2199 44.5157 15.1439C44.545 15.031 44.5568 14.8977 44.5414 14.7394C44.4412 13.7075 43.2262 10.6194 40.7498 7.82438C39.3952 6.29556 37.4197 4.58471 34.7225 3.43078C35.8826 3.19762 37.4691 2.98021 39.2454 3.01846ZM14.0641 35.9511C12.8196 37.402 11.9602 37.1238 11.6776 37.0326C9.83607 36.437 7.69927 32.6631 5.81539 26.6787C4.18526 21.5006 3.23267 16.2936 3.15715 14.8335C2.91922 10.2157 4.07368 6.99749 6.58869 5.26803C10.6817 2.45376 17.411 4.13823 20.1151 4.99253C20.0762 5.02975 20.0357 5.06452 19.9974 5.10236C15.5601 9.44729 15.6653 16.8707 15.6763 17.3246C15.6759 17.4996 15.6911 17.7475 15.7117 18.0885C15.7881 19.3371 15.9303 21.6609 15.5506 24.2925C15.1979 26.738 15.9754 29.1316 17.6834 30.8596C17.8587 31.0366 18.0429 31.2051 18.2354 31.3644C17.4752 32.1539 15.8229 33.8997 14.0641 35.9511ZM18.8058 29.8168C17.4292 28.4239 16.804 26.4867 17.0902 24.5011C17.491 21.7212 17.3431 19.3001 17.2636 17.9993C17.2524 17.8173 17.2425 17.6577 17.2368 17.532C17.885 16.9746 20.889 15.4141 23.0313 15.89C24.0087 16.107 24.6044 16.7525 24.8521 17.8627C26.1337 23.6104 25.0217 26.006 24.1281 27.9312C23.944 28.3278 23.77 28.7027 23.6215 29.0905L23.5063 29.3903C23.2148 30.1483 22.9435 30.8531 22.7754 31.5223C21.3119 31.5182 19.8883 30.912 18.8058 29.8165V29.8168ZM19.0304 37.5682C18.6031 37.4648 18.2187 37.285 17.9932 37.1359C18.1816 37.05 18.5168 36.933 19.0981 36.8168C21.9114 36.2554 22.3459 35.859 23.2947 34.691C23.5122 34.4231 23.7588 34.1195 24.1003 33.7498L24.1007 33.7494C24.6093 33.1971 24.842 33.2908 25.2638 33.4606C25.6058 33.5976 25.9388 34.0132 26.0738 34.4705C26.1377 34.6865 26.2095 35.0964 25.9747 35.4154C23.9927 38.1061 21.1046 38.0716 19.0304 37.5682ZM33.7536 50.8526C30.312 51.5676 29.0934 49.8649 28.2904 47.9184C27.7721 46.6618 27.5173 40.9953 27.698 34.7374C27.7004 34.6542 27.6881 34.5738 27.6645 34.4981C27.6434 34.3487 27.6112 34.2009 27.5683 34.0559C27.2996 33.1454 26.6446 32.3837 25.8589 32.068C25.5467 31.9426 24.9738 31.7125 24.2853 31.8833C24.4321 31.2967 24.6867 30.6342 24.9628 29.917L25.0786 29.6153C25.209 29.2752 25.3727 28.9228 25.5456 28.5497C26.4807 26.5356 27.7613 23.7767 26.3715 17.5442C25.8509 15.2098 24.1123 14.0698 21.4769 14.3346C19.8969 14.4931 18.4514 15.1112 17.7304 15.4656C17.5754 15.5417 17.4336 15.6154 17.3011 15.6869C17.5024 13.3349 18.2626 8.93925 21.1065 6.15812C22.8971 4.40738 25.2818 3.54265 28.1872 3.58928C33.9121 3.68009 37.5832 6.52872 39.655 8.90264C41.4404 10.9481 42.4071 13.0087 42.7929 14.1201C39.8915 13.8339 37.9182 14.3892 36.9179 15.7759C34.7417 18.7922 38.1084 24.6466 39.7265 27.4602C40.0233 27.9758 40.2794 28.4215 40.36 28.6109C40.8869 29.8491 41.5691 30.6758 42.0671 31.2791C42.2198 31.464 42.3679 31.6434 42.4806 31.8C41.6018 32.0457 40.0233 32.6132 40.1672 35.4502C40.0512 36.8737 39.2262 43.5383 38.8071 45.893C38.2538 49.0039 37.0732 50.1625 33.7536 50.8528V50.8526ZM48.1193 34.9127C47.2207 35.317 45.717 35.6203 44.2885 35.6856C42.7107 35.7572 41.9074 35.5142 41.7184 35.3647C41.6298 33.5968 42.3084 33.4121 43.0267 33.2166C43.1395 33.1859 43.2496 33.1558 43.3559 33.1198C43.422 33.172 43.4943 33.2237 43.5736 33.2744C44.8418 34.086 47.1037 34.1735 50.2971 33.5344L50.3321 33.5277C49.9013 33.9181 49.1643 34.4421 48.1193 34.9127Z" fill="white"/>
</svg>
