<svg viewBox="0 0 46 46" fill="none" xmlns="http://www.w3.org/2000/svg">
<g clip-path="url(#clip0)">
<path d="M22.8069 0.133057C11.2181 0.133057 11.9418 5.17835 11.9418 5.17835L11.9547 10.4052H23.0136V11.9746H7.56214C7.56214 11.9746 0.146484 11.1303 0.146484 22.8693C0.146484 34.6083 6.61903 34.1921 6.61903 34.1921H10.4819V28.7447C10.4819 28.7447 10.2737 22.2468 16.8511 22.2468H27.8195C27.8195 22.2468 33.982 22.3468 33.982 16.2676V6.21595C33.982 6.21595 34.9176 0.133057 22.8069 0.133057ZM16.709 3.6479C17.8092 3.6479 18.6985 4.54068 18.6985 5.64527C18.6985 6.74986 17.8092 7.64264 16.709 7.64264C15.6087 7.64264 14.7194 6.74986 14.7194 5.64527C14.7194 4.54068 15.6087 3.6479 16.709 3.6479Z" fill="url(#paint0_linear)"/>
<path d="M23.1353 45.7232C34.724 45.7232 34.0004 40.6779 34.0004 40.6779L33.9875 35.451H22.9286V33.8817H38.38C38.38 33.8817 45.7957 34.726 45.7957 22.9869C45.7957 11.2479 39.3231 11.6642 39.3231 11.6642H35.4602V17.1115C35.4602 17.1115 35.6685 23.6095 29.0911 23.6095H18.1226C18.1226 23.6095 11.9601 23.5095 11.9601 29.5886V39.6403C11.9601 39.6403 11.0245 45.7232 23.1353 45.7232ZM29.2332 42.2083C28.1329 42.2083 27.2436 41.3156 27.2436 40.211C27.2436 39.1064 28.1329 38.2136 29.2332 38.2136C30.3334 38.2136 31.2227 39.1064 31.2227 40.211C31.2227 41.3156 30.3334 42.2083 29.2332 42.2083Z" fill="url(#paint1_linear)"/>
</g>
<defs>
<linearGradient id="paint0_linear" x1="4.53352" y1="4.23377" x2="27.2436" y2="26.6294" gradientUnits="userSpaceOnUse">
<stop stop-color="#387EB8"/>
<stop offset="1" stop-color="#366994"/>
</linearGradient>
<linearGradient id="paint1_linear" x1="18.4185" y1="18.6718" x2="42.8023" y2="41.6325" gradientUnits="userSpaceOnUse">
<stop stop-color="#FFE052"/>
<stop offset="1" stop-color="#FFC331"/>
</linearGradient>
<clipPath id="clip0">
<rect width="45.76" height="45.76" fill="white" transform="translate(0.120117 0.120117)"/>
</clipPath>
</defs>
</svg>
