<svg viewBox="0 0 55 48" fill="none" xmlns="http://www.w3.org/2000/svg">
<g clip-path="url(#clip0)">
<path d="M0.902832 24.1016C0.902832 28.0266 4.82452 31.6907 11.0074 33.756C9.77272 39.8307 10.7861 44.7268 14.1709 46.6346C17.6502 48.5954 22.8334 47.2381 27.753 43.0354C32.5484 47.0685 37.3951 48.6557 40.7768 46.7424C44.2526 44.7759 45.3099 39.5477 44.0411 33.2834C50.4809 31.2026 54.0831 28.0782 54.0831 24.1016C54.0831 20.2676 50.1541 16.9506 44.0547 14.8985C45.4206 8.37539 44.2632 3.59808 40.7383 1.61147C37.3399 -0.303736 32.4369 1.36556 27.571 5.50422C22.5087 1.11136 17.6542 -0.229833 14.1326 1.76256C10.7375 3.68322 9.76872 8.66831 11.0074 14.8554C5.03329 16.8911 0.902832 20.2829 0.902832 24.1016Z" fill="white"/>
<path d="M42.7637 16.9365C42.2738 16.7716 41.7661 16.6157 41.2434 16.4682C41.3293 16.1255 41.4082 15.7873 41.4783 15.4548C42.6291 9.99509 41.8767 5.59671 39.3072 4.14858C36.8433 2.76001 32.8139 4.20781 28.7444 7.66901C28.3531 8.00183 27.9607 8.35421 27.5684 8.72352C27.3071 8.47918 27.0461 8.24305 26.7858 8.0172C22.5209 4.31626 18.2459 2.75664 15.6789 4.20896C13.2175 5.60156 12.4885 9.73646 13.5245 14.9107C13.6245 15.4104 13.7415 15.9208 13.8737 16.4397C13.2687 16.6076 12.6846 16.7865 12.1257 16.9769C7.12549 18.6806 3.93213 21.3508 3.93213 24.1204C3.93213 26.981 7.3602 29.8501 12.5683 31.5898C12.9793 31.7271 13.4058 31.8569 13.8453 31.9802C13.7026 32.5414 13.5785 33.0914 13.4744 33.6278C12.4866 38.7122 13.258 42.7494 15.7129 44.1332C18.2486 45.5623 22.5042 44.0934 26.6481 40.5533C26.9757 40.2735 27.3044 39.9767 27.6337 39.6656C28.0605 40.0673 28.4866 40.4475 28.9105 40.804C32.9243 44.1797 36.8886 45.5428 39.3413 44.1551C41.8745 42.722 42.6977 38.385 41.6289 33.1085C41.5473 32.7055 41.4523 32.2938 41.3456 31.8748C41.6445 31.7884 41.9379 31.6993 42.2239 31.6066C47.6383 29.8534 51.161 27.0192 51.161 24.1204C51.161 21.3408 47.8647 18.6526 42.7637 16.9365Z" fill="#53C1DE"/>
<path d="M41.589 29.7349C41.3307 29.8185 41.0657 29.8992 40.7957 29.9775C40.198 28.1282 39.3913 26.1617 38.4041 24.13C39.3462 22.1467 40.1217 20.2054 40.7027 18.3681C41.1858 18.5047 41.6547 18.6488 42.1066 18.8009C46.477 20.2713 49.143 22.4453 49.143 24.1204C49.143 25.9047 46.2638 28.2211 41.589 29.7349ZM39.6492 33.4914C40.1218 35.8246 40.1893 37.9341 39.8763 39.5832C39.595 41.065 39.0293 42.053 38.3299 42.4487C36.8415 43.2906 33.6585 42.1962 30.2258 39.3093C29.8323 38.9784 29.4359 38.625 29.0383 38.251C30.3691 36.8286 31.6991 35.175 32.9972 33.3385C35.2804 33.1405 37.4374 32.8168 39.3936 32.3748C39.4899 32.7547 39.5755 33.1272 39.6492 33.4914ZM20.0331 42.3032C18.5789 42.8051 17.4207 42.8195 16.7206 42.4249C15.2309 41.5852 14.6115 38.3437 15.4563 33.9955C15.5531 33.4975 15.6683 32.986 15.801 32.4632C17.7357 32.8813 19.877 33.1821 22.1656 33.3635C23.4724 35.1605 24.8409 36.8123 26.2199 38.2587C25.9186 38.5429 25.6185 38.8136 25.32 39.0686C23.4876 40.634 21.6514 41.7446 20.0331 42.3032ZM13.2204 29.724C10.9175 28.9547 9.01564 27.9549 7.71201 26.8639C6.54063 25.8835 5.94922 24.9102 5.94922 24.1204C5.94922 22.4397 8.51317 20.2959 12.7894 18.8388C13.3083 18.662 13.8514 18.4954 14.4151 18.3389C15.0061 20.2177 15.7813 22.182 16.7169 24.1684C15.7692 26.1842 14.9829 28.1799 14.3862 30.0807C13.9843 29.9678 13.595 29.849 13.2204 29.724ZM15.5041 14.532C14.6165 10.0988 15.206 6.75464 16.6893 5.91547C18.2694 5.02149 21.7633 6.29611 25.4457 9.49168C25.6811 9.69593 25.9174 9.90971 26.1544 10.1309C24.7822 11.5709 23.4263 13.2103 22.1311 14.9967C19.9098 15.1979 17.7836 15.5212 15.8287 15.954C15.7058 15.4708 15.597 14.9961 15.5041 14.532ZM35.8765 19.4483C35.4091 18.6594 34.9294 17.8891 34.4403 17.1399C35.9472 17.3261 37.3909 17.5732 38.7468 17.8757C38.3397 19.1506 37.8324 20.4836 37.2352 21.8502C36.8067 21.0553 36.3536 20.2538 35.8765 19.4483ZM27.5687 11.5401C28.4993 12.5254 29.4312 13.6255 30.3479 14.8191C29.4242 14.7765 28.489 14.7543 27.5461 14.7543C26.6121 14.7543 25.6839 14.776 24.7659 14.8179C25.6835 13.6354 26.6235 12.5367 27.5687 11.5401ZM19.2076 19.4619C18.7408 20.253 18.2961 21.0501 17.8744 21.8487C17.2869 20.4869 16.7842 19.1478 16.3737 17.8548C17.7212 17.5601 19.1581 17.3191 20.6554 17.1365C20.1594 17.8926 19.6757 18.6685 19.2076 19.4618V19.4619ZM20.6986 31.245C19.1516 31.0763 17.693 30.8478 16.3458 30.5612C16.763 29.2451 17.2767 27.8774 17.8767 26.4863C18.2995 27.2843 18.7459 28.0817 19.2156 28.8745H19.2157C19.6941 29.6822 20.1898 30.4734 20.6986 31.245ZM27.6245 36.8398C26.6682 35.8314 25.7144 34.716 24.7829 33.5163C25.6872 33.5509 26.6091 33.5687 27.5461 33.5687C28.5088 33.5687 29.4604 33.5475 30.3971 33.5067C29.4774 34.7281 28.5488 35.8452 27.6245 36.8398ZM37.2544 26.4154C37.8857 27.8215 38.4178 29.1821 38.8403 30.4757C37.471 30.781 35.9925 31.0269 34.4347 31.2097C34.925 30.4504 35.409 29.6669 35.8845 28.861C36.3657 28.0456 36.8225 27.2291 37.2544 26.4154ZM34.1369 27.8759C33.3986 29.1269 32.6407 30.3212 31.8712 31.4485C30.4697 31.5464 29.0218 31.5969 27.5461 31.5969C26.0764 31.5969 24.6467 31.5523 23.2701 31.4649C22.4696 30.3228 21.6952 29.125 20.9616 27.8867H20.9618C20.2301 26.6516 19.5568 25.4062 18.9466 24.1677C19.5566 22.9264 20.2282 21.6796 20.9556 20.4468L20.9555 20.447C21.6848 19.2109 22.4524 18.019 23.2455 16.884C24.6501 16.7802 26.0904 16.7261 27.546 16.7261H27.5461C29.0083 16.7261 30.4505 16.7807 31.8546 16.8853C32.6356 18.012 33.398 19.2001 34.1302 20.4363C34.8708 21.6865 35.551 22.925 36.1662 24.1397C35.5529 25.3753 34.8741 26.6263 34.1369 27.8759ZM38.2989 5.8568C39.8805 6.74815 40.4955 10.3429 39.5018 15.0568C39.4385 15.3576 39.3671 15.664 39.2896 15.9744C37.3302 15.5326 35.2024 15.2038 32.9747 14.9995C31.677 13.1934 30.3322 11.5515 28.9823 10.13C29.3452 9.78877 29.7076 9.46342 30.0685 9.15639C33.5553 6.19086 36.8141 5.02002 38.2989 5.8568Z" fill="white"/>
<path d="M27.5465 19.9988C29.8756 19.9988 31.7639 21.8441 31.7639 24.1205C31.7639 26.3967 29.8756 28.2421 27.5465 28.2421C25.2173 28.2421 23.3291 26.3967 23.3291 24.1205C23.3291 21.8441 25.2173 19.9988 27.5465 19.9988Z" fill="#53C1DE"/>
</g>
<defs>
<clipPath id="clip0">
<rect width="53.5085" height="46.9831" fill="white" transform="translate(0.745605 0.661133)"/>
</clipPath>
</defs>
</svg>
