<svg viewBox="0 0 30 30" fill="none" xmlns="http://www.w3.org/2000/svg">
<path d="M27.8906 3.28125H2.10938C1.6744 3.28173 1.25738 3.45474 0.949809 3.76231C0.642236 4.06988 0.469231 4.4869 0.46875 4.92188V25.0781C0.469231 25.5131 0.642236 25.9301 0.949809 26.2377C1.25738 26.5453 1.6744 26.7183 2.10938 26.7188H27.8906C28.3256 26.7183 28.7426 26.5453 29.0502 26.2377C29.3578 25.9301 29.5308 25.5131 29.5312 25.0781V4.92188C29.5308 4.4869 29.3578 4.06988 29.0502 3.76231C28.7426 3.45474 28.3256 3.28173 27.8906 3.28125ZM28.5938 25.0781C28.5936 25.2646 28.5195 25.4433 28.3876 25.5751C28.2558 25.707 28.0771 25.7811 27.8906 25.7812H2.10938C1.92294 25.7811 1.74419 25.707 1.61236 25.5751C1.48053 25.4433 1.40641 25.2646 1.40625 25.0781V7.03125H28.5938V25.0781ZM28.5938 6.09375H1.40625V4.92188C1.40641 4.73544 1.48053 4.55669 1.61236 4.42486C1.74419 4.29303 1.92294 4.21891 2.10938 4.21875H27.8906C28.0771 4.21891 28.2558 4.29303 28.3876 4.42486C28.5195 4.55669 28.5936 4.73544 28.5938 4.92188V6.09375Z" fill="#5B399B"/>
<path d="M2.34375 5.625H2.8125C2.93682 5.625 3.05605 5.57561 3.14396 5.48771C3.23186 5.3998 3.28125 5.28057 3.28125 5.15625C3.28125 5.03193 3.23186 4.9127 3.14396 4.82479C3.05605 4.73689 2.93682 4.6875 2.8125 4.6875H2.34375C2.21943 4.6875 2.1002 4.73689 2.01229 4.82479C1.92439 4.9127 1.875 5.03193 1.875 5.15625C1.875 5.28057 1.92439 5.3998 2.01229 5.48771C2.1002 5.57561 2.21943 5.625 2.34375 5.625Z" fill="#5B399B"/>
<path d="M4.21875 5.625H4.6875C4.81182 5.625 4.93105 5.57561 5.01896 5.48771C5.10686 5.3998 5.15625 5.28057 5.15625 5.15625C5.15625 5.03193 5.10686 4.9127 5.01896 4.82479C4.93105 4.73689 4.81182 4.6875 4.6875 4.6875H4.21875C4.09443 4.6875 3.9752 4.73689 3.88729 4.82479C3.79939 4.9127 3.75 5.03193 3.75 5.15625C3.75 5.28057 3.79939 5.3998 3.88729 5.48771C3.9752 5.57561 4.09443 5.625 4.21875 5.625Z" fill="#5B399B"/>
<path d="M6.09375 5.625H6.5625C6.68682 5.625 6.80605 5.57561 6.89396 5.48771C6.98186 5.3998 7.03125 5.28057 7.03125 5.15625C7.03125 5.03193 6.98186 4.9127 6.89396 4.82479C6.80605 4.73689 6.68682 4.6875 6.5625 4.6875H6.09375C5.96943 4.6875 5.8502 4.73689 5.76229 4.82479C5.67439 4.9127 5.625 5.03193 5.625 5.15625C5.625 5.28057 5.67439 5.3998 5.76229 5.48771C5.8502 5.57561 5.96943 5.625 6.09375 5.625Z" fill="#5B399B"/>
<path d="M15 10.3125C13.7948 10.3125 12.6166 10.6699 11.6145 11.3395C10.6124 12.0091 9.83133 12.9608 9.37011 14.0743C8.90889 15.1878 8.78821 16.413 9.02334 17.5951C9.25847 18.7771 9.83884 19.8629 10.6911 20.7152C11.5433 21.5674 12.6291 22.1478 13.8112 22.3829C14.9932 22.618 16.2185 22.4974 17.332 22.0361C18.4455 21.5749 19.3972 20.7939 20.0668 19.7917C20.7364 18.7896 21.0937 17.6115 21.0937 16.4062C21.0919 14.7906 20.4493 13.2417 19.3069 12.0993C18.1645 10.9569 16.6156 10.3143 15 10.3125ZM15 21.5625C13.9802 21.5625 12.9833 21.2601 12.1353 20.6935C11.2874 20.1269 10.6265 19.3216 10.2362 18.3795C9.84598 17.4373 9.74387 16.4005 9.94283 15.4003C10.1418 14.4001 10.6329 13.4813 11.354 12.7602C12.0751 12.0391 12.9939 11.548 13.9941 11.3491C14.9943 11.1501 16.031 11.2522 16.9732 11.6425C17.9154 12.0328 18.7207 12.6936 19.2873 13.5416C19.8538 14.3895 20.1562 15.3864 20.1562 16.4062C20.1547 17.7733 19.611 19.0839 18.6443 20.0505C17.6777 21.0172 16.367 21.5609 15 21.5625Z" fill="#5B399B"/>
<path d="M16.1526 14.1733C16.0422 14.1163 15.9136 14.1055 15.7951 14.1433C15.6767 14.1811 15.5781 14.2644 15.5211 14.3749L13.6461 18.0077C13.6177 18.0624 13.6003 18.1222 13.595 18.1836C13.5897 18.2451 13.5966 18.307 13.6152 18.3658C13.6339 18.4245 13.664 18.4791 13.7038 18.5262C13.7435 18.5733 13.7922 18.6122 13.847 18.6404C13.9018 18.6687 13.9617 18.6859 14.0231 18.691C14.0846 18.6961 14.1465 18.6891 14.2052 18.6702C14.2639 18.6514 14.3184 18.6212 14.3654 18.5812C14.4124 18.5413 14.4511 18.4925 14.4792 18.4376L16.3542 14.8048C16.4112 14.6943 16.422 14.5657 16.3842 14.4473C16.3464 14.3289 16.2631 14.2303 16.1526 14.1733Z" fill="#5B399B"/>
<path d="M12.9375 14.1563C12.8883 14.1193 12.8322 14.0924 12.7726 14.0772C12.713 14.0619 12.6509 14.0585 12.59 14.0672C12.529 14.0759 12.4704 14.0965 12.4174 14.1279C12.3645 14.1593 12.3182 14.2008 12.2813 14.25L10.875 16.125C10.8141 16.2061 10.7812 16.3048 10.7812 16.4063C10.7812 16.5077 10.8141 16.6064 10.875 16.6875L12.2813 18.5625C12.3558 18.662 12.4669 18.7277 12.59 18.7453C12.713 18.7629 12.838 18.7308 12.9375 18.6562C13.037 18.5817 13.1027 18.4706 13.1203 18.3475C13.1379 18.2245 13.1058 18.0995 13.0313 18L11.8359 16.4063L13.0313 14.8125C13.1058 14.713 13.1379 14.588 13.1203 14.465C13.1027 14.3419 13.037 14.2308 12.9375 14.1563Z" fill="#5B399B"/>
<path d="M17.0625 14.1563C16.963 14.2308 16.8973 14.3419 16.8797 14.465C16.8621 14.588 16.8942 14.713 16.9688 14.8125L18.1641 16.4062L16.9688 18C16.9318 18.0492 16.9049 18.1053 16.8897 18.1649C16.8744 18.2245 16.871 18.2866 16.8797 18.3475C16.8884 18.4085 16.909 18.4671 16.9404 18.5201C16.9718 18.573 17.0133 18.6193 17.0625 18.6562C17.1117 18.6932 17.1678 18.7201 17.2274 18.7353C17.287 18.7506 17.3491 18.754 17.41 18.7453C17.471 18.7366 17.5296 18.716 17.5826 18.6846C17.6355 18.6532 17.6818 18.6117 17.7187 18.5625L19.125 16.6875C19.1858 16.6064 19.2187 16.5077 19.2187 16.4062C19.2187 16.3048 19.1858 16.2061 19.125 16.125L17.7187 14.25C17.6818 14.2008 17.6355 14.1593 17.5826 14.1279C17.5296 14.0965 17.471 14.0759 17.41 14.0672C17.3491 14.0585 17.287 14.0619 17.2274 14.0772C17.1678 14.0924 17.1117 14.1193 17.0625 14.1563Z" fill="#5B399B"/>
</svg>
