<svg viewBox="0 0 30 30" fill="none" xmlns="http://www.w3.org/2000/svg">
<path d="M21.0938 0.46875H8.90625C8.40917 0.469401 7.93263 0.667154 7.58114 1.01864C7.22965 1.37013 7.0319 1.84667 7.03125 2.34375V27.6562C7.0319 28.1533 7.22965 28.6299 7.58114 28.9814C7.93263 29.3328 8.40917 29.5306 8.90625 29.5312H21.0938C21.5908 29.5306 22.0674 29.3328 22.4189 28.9814C22.7703 28.6299 22.9681 28.1533 22.9688 27.6562V2.34375C22.9681 1.84667 22.7703 1.37013 22.4189 1.01864C22.0674 0.667154 21.5908 0.469401 21.0938 0.46875ZM17.1938 1.40625L16.9301 2.34375H13.0225L12.7881 1.40625H17.1938ZM22.0312 27.6562C22.0309 27.9048 21.932 28.1431 21.7563 28.3188C21.5806 28.4945 21.3423 28.5934 21.0938 28.5938H8.90625C8.65771 28.5934 8.41944 28.4945 8.2437 28.3188C8.06795 28.1431 7.96908 27.9048 7.96875 27.6562V2.34375C7.96908 2.09521 8.06795 1.85694 8.2437 1.6812C8.41944 1.50545 8.65771 1.40658 8.90625 1.40625H11.8213L12.2016 2.92617C12.2269 3.02758 12.2854 3.11761 12.3678 3.18194C12.4502 3.24628 12.5517 3.28123 12.6562 3.28125H17.2852C17.3873 3.28125 17.4867 3.24788 17.5681 3.18621C17.6496 3.12455 17.7086 3.03797 17.7363 2.93965L18.1676 1.40625H21.0938C21.3423 1.40658 21.5806 1.50545 21.7563 1.6812C21.932 1.85694 22.0309 2.09521 22.0312 2.34375V27.6562Z" fill="#5B399B"/>
<path d="M12.6562 26.7188H9.375C9.25068 26.7188 9.13145 26.7681 9.04354 26.856C8.95564 26.944 8.90625 27.0632 8.90625 27.1875C8.90625 27.3118 8.95564 27.431 9.04354 27.519C9.13145 27.6069 9.25068 27.6562 9.375 27.6562H12.6562C12.7806 27.6562 12.8998 27.6069 12.9877 27.519C13.0756 27.431 13.125 27.3118 13.125 27.1875C13.125 27.0632 13.0756 26.944 12.9877 26.856C12.8998 26.7681 12.7806 26.7188 12.6562 26.7188Z" fill="#5B399B"/>
<path d="M14.5312 26.7188H14.0625C13.9382 26.7188 13.819 26.7681 13.731 26.856C13.6431 26.944 13.5938 27.0632 13.5938 27.1875C13.5938 27.3118 13.6431 27.431 13.731 27.519C13.819 27.6069 13.9382 27.6562 14.0625 27.6562H14.5312C14.6556 27.6562 14.7748 27.6069 14.8627 27.519C14.9506 27.431 15 27.3118 15 27.1875C15 27.0632 14.9506 26.944 14.8627 26.856C14.7748 26.7681 14.6556 26.7188 14.5312 26.7188Z" fill="#5B399B"/>
<path d="M16.6474 12.2543C16.5946 12.2226 16.5361 12.2017 16.4752 12.1926C16.4144 12.1835 16.3523 12.1866 16.2926 12.2015C16.2328 12.2164 16.1767 12.243 16.1272 12.2796C16.0777 12.3163 16.036 12.3623 16.0043 12.4151L13.1918 17.1026C13.1278 17.2092 13.1088 17.3368 13.139 17.4574C13.1691 17.5781 13.246 17.6817 13.3526 17.7457C13.4592 17.8097 13.5868 17.8287 13.7074 17.7985C13.8281 17.7684 13.9317 17.6915 13.9957 17.5849L16.8082 12.8974C16.8399 12.8446 16.8608 12.7861 16.8699 12.7252C16.879 12.6644 16.8759 12.6023 16.861 12.5426C16.8461 12.4828 16.8195 12.4267 16.7829 12.3772C16.7462 12.3277 16.7002 12.286 16.6474 12.2543Z" fill="#5B399B"/>
<path d="M18.1786 12.3633C18.1402 12.3152 18.0926 12.2752 18.0387 12.2455C17.9847 12.2158 17.9255 12.197 17.8643 12.1902C17.7407 12.1765 17.6167 12.2125 17.5196 12.2902C17.4225 12.3679 17.3603 12.481 17.3466 12.6046C17.3329 12.7281 17.3689 12.8521 17.4466 12.9492L19.0872 15L17.4466 17.0508C17.3689 17.1478 17.3329 17.2718 17.3466 17.3954C17.3603 17.519 17.4225 17.6321 17.5196 17.7098C17.6167 17.7875 17.7407 17.8234 17.8643 17.8097C17.9878 17.796 18.1009 17.7338 18.1786 17.6367L20.0536 15.2929C20.1202 15.2098 20.1565 15.1065 20.1565 15C20.1565 14.8935 20.1202 14.7901 20.0536 14.707L18.1786 12.3633Z" fill="#5B399B"/>
<path d="M11.8216 17.6367C11.8993 17.7338 12.0124 17.796 12.1359 17.8097C12.2595 17.8234 12.3835 17.7875 12.4806 17.7098C12.5777 17.6321 12.6399 17.519 12.6536 17.3954C12.6673 17.2718 12.6313 17.1478 12.5536 17.0508L10.913 15L12.5536 12.9492C12.5921 12.9011 12.6208 12.8459 12.6379 12.7868C12.6551 12.7277 12.6604 12.6657 12.6536 12.6046C12.6468 12.5434 12.628 12.4841 12.5984 12.4302C12.5687 12.3762 12.5287 12.3287 12.4806 12.2902C12.4325 12.2517 12.3773 12.2231 12.3182 12.2059C12.2591 12.1888 12.1971 12.1834 12.1359 12.1902C12.0748 12.197 12.0155 12.2158 11.9616 12.2455C11.9076 12.2752 11.8601 12.3152 11.8216 12.3633L9.94658 14.707C9.88002 14.7901 9.84375 14.8935 9.84375 15C9.84375 15.1065 9.88002 15.2098 9.94658 15.2929L11.8216 17.6367Z" fill="#5B399B"/>
</svg>
