<svg viewBox="0 0 30 30" fill="none" xmlns="http://www.w3.org/2000/svg">
<path d="M28.594 26.3308V20.625C28.594 20.5006 28.5446 20.3814 28.4567 20.2935C28.3688 20.2056 28.2495 20.1562 28.1252 20.1562H20.6252V17.363H22.8125C24.5745 17.3635 26.2662 16.6718 27.5231 15.4369C28.7799 14.202 29.5014 12.5228 29.532 10.7611C29.5626 8.99933 28.8998 7.29609 27.6866 6.01831C26.4733 4.74054 24.8067 3.99052 23.0457 3.92985C22.3073 3.00293 21.3799 2.24391 20.3252 1.70328C19.1612 1.10641 17.8711 0.797002 16.5629 0.80094C15.2817 0.801137 14.0179 1.09858 12.871 1.66987C11.7242 2.24116 10.7255 3.07072 9.95355 4.09332C9.39506 3.93423 8.81052 3.88778 8.23391 3.95667C7.65731 4.02557 7.10016 4.20843 6.59488 4.49463C6.0896 4.78083 5.64628 5.16465 5.2907 5.62376C4.93512 6.08287 4.67439 6.6081 4.52366 7.16891C3.28135 7.4406 2.18325 8.16176 1.44031 9.19384C0.697363 10.2259 0.361987 11.4961 0.498607 12.7604C0.635226 14.0247 1.23421 15.194 2.18047 16.0435C3.12674 16.8931 4.35355 17.363 5.62523 17.363H9.37523V20.1562H1.87523C1.75091 20.1562 1.63168 20.2056 1.54377 20.2935C1.45586 20.3814 1.40648 20.5006 1.40648 20.625V26.3308C1.09372 26.4414 0.830124 26.659 0.662275 26.9451C0.494427 27.2312 0.433134 27.5675 0.489229 27.8944C0.545325 28.2214 0.715198 28.518 0.968824 28.7318C1.22245 28.9456 1.5435 29.0629 1.87523 29.0629C2.20696 29.0629 2.528 28.9456 2.78163 28.7318C3.03526 28.518 3.20513 28.2214 3.26123 27.8944C3.31732 27.5675 3.25603 27.2312 3.08818 26.9451C2.92033 26.659 2.65673 26.4414 2.34398 26.3308V21.0937H9.37523C9.37523 21.9146 10.0092 22.6546 11.16 23.1779C12.0811 23.5963 13.2641 23.8464 14.5315 23.8962V24.9246C14.2187 25.0351 13.9551 25.2527 13.7873 25.5389C13.6194 25.825 13.5581 26.1612 13.6142 26.4882C13.6703 26.8151 13.8402 27.1117 14.0938 27.3256C14.3475 27.5394 14.6685 27.6566 15.0002 27.6566C15.332 27.6566 15.653 27.5394 15.9066 27.3256C16.1603 27.1117 16.3301 26.8151 16.3862 26.4882C16.4423 26.1612 16.381 25.825 16.2132 25.5389C16.0453 25.2527 15.7817 25.0351 15.469 24.9246V23.8962C16.7364 23.8464 17.9194 23.5963 18.8405 23.1779C19.9912 22.6546 20.6252 21.9146 20.6252 21.0937H27.6565V26.3308C27.3437 26.4414 27.0801 26.659 26.9123 26.9451C26.7444 27.2312 26.6831 27.5675 26.7392 27.8944C26.7953 28.2214 26.9652 28.518 27.2188 28.7318C27.4725 28.9456 27.7935 29.0629 28.1252 29.0629C28.457 29.0629 28.778 28.9456 29.0316 28.7318C29.2853 28.518 29.4551 28.2214 29.5112 27.8944C29.5673 27.5675 29.506 27.2312 29.3382 26.9451C29.1703 26.659 28.9067 26.4414 28.594 26.3308ZM1.87523 28.125C1.78252 28.125 1.69189 28.0975 1.6148 28.046C1.53772 27.9945 1.47764 27.9212 1.44216 27.8356C1.40668 27.7499 1.3974 27.6557 1.41548 27.5648C1.43357 27.4738 1.47822 27.3903 1.54377 27.3248C1.60933 27.2592 1.69285 27.2146 1.78378 27.1965C1.87471 27.1784 1.96896 27.1877 2.05461 27.2231C2.14026 27.2586 2.21347 27.3187 2.26498 27.3958C2.31649 27.4729 2.34398 27.5635 2.34398 27.6562C2.34381 27.7805 2.29437 27.8996 2.2065 27.9875C2.11862 28.0753 1.9995 28.1248 1.87523 28.125ZM15.0002 26.7187C14.9075 26.7187 14.8169 26.6912 14.7398 26.6397C14.6627 26.5882 14.6026 26.515 14.5672 26.4293C14.5317 26.3437 14.5224 26.2494 14.5405 26.1585C14.5586 26.0676 14.6032 25.9841 14.6688 25.9185C14.7343 25.8529 14.8179 25.8083 14.9088 25.7902C14.9997 25.7721 15.094 25.7814 15.1796 25.8169C15.2653 25.8524 15.3385 25.9125 15.39 25.9895C15.4415 26.0666 15.469 26.1572 15.469 26.25C15.4688 26.3742 15.4194 26.4934 15.3315 26.5812C15.2436 26.6691 15.1245 26.7185 15.0002 26.7187ZM19.6877 21.0937C19.6877 21.5127 19.226 21.9726 18.452 22.3242C17.5379 22.7396 16.3121 22.9687 15.0002 22.9687C13.6883 22.9687 12.4625 22.7396 11.5485 22.3242C10.7744 21.9726 10.3127 21.5127 10.3127 21.0937V19.8744C10.577 20.0676 10.861 20.2322 11.16 20.3654C12.1936 20.8347 13.5576 21.0937 15.0002 21.0937C16.4428 21.0937 17.8069 20.8347 18.8405 20.3654C19.1395 20.2322 19.4235 20.0676 19.6877 19.8744V21.0937ZM19.6877 18.2812C19.6877 18.7002 19.226 19.1601 18.4526 19.5117C17.5379 19.9271 16.3121 20.1562 15.0002 20.1562C13.6883 20.1562 12.4625 19.9271 11.5479 19.5117C10.7744 19.1601 10.3127 18.7002 10.3127 18.2812V17.0619C10.577 17.2551 10.861 17.4197 11.16 17.5529C12.1936 18.0222 13.5576 18.2812 15.0002 18.2812C16.4428 18.2812 17.8069 18.0222 18.8405 17.5529C19.1395 17.4197 19.4235 17.2551 19.6877 17.0619V18.2812ZM19.6877 15.4687C19.6877 15.8877 19.226 16.3476 18.4526 16.6992C17.5379 17.1146 16.3121 17.3437 15.0002 17.3437C13.6883 17.3437 12.4625 17.1146 11.5479 16.6992C10.7744 16.3476 10.3127 15.8877 10.3127 15.4687V14.2494C10.577 14.4426 10.861 14.6072 11.16 14.7404C12.1936 15.2097 13.5576 15.4687 15.0002 15.4687C16.4428 15.4687 17.8069 15.2097 18.8405 14.7404C19.1395 14.6072 19.4235 14.4426 19.6877 14.2494V15.4687ZM18.4526 13.8867C17.5379 14.3021 16.3121 14.5312 15.0002 14.5312C13.6883 14.5312 12.4625 14.3021 11.5479 13.8867C10.7744 13.5351 10.3127 13.0752 10.3127 12.6562C10.3127 12.2373 10.7744 11.7773 11.5479 11.4257C12.4625 11.0103 13.6883 10.7812 15.0002 10.7812C16.3121 10.7812 17.5379 11.0103 18.4526 11.4257C19.226 11.7773 19.6877 12.2373 19.6877 12.6562C19.6877 13.0752 19.226 13.5351 18.4526 13.8867ZM18.8405 10.572C17.8069 10.1027 16.4428 9.84371 15.0002 9.84371C13.5576 9.84371 12.1936 10.1027 11.16 10.572C10.0092 11.0953 9.37523 11.8353 9.37523 12.6562V16.4255H5.62523C4.56208 16.4255 3.53816 16.024 2.75827 15.3015C1.97838 14.5789 1.50002 13.5886 1.41887 12.5285C1.33772 11.4685 1.65977 10.4169 2.32059 9.58406C2.98141 8.75124 3.93229 8.1986 4.98304 8.03668C5.07904 8.02204 5.16811 7.97792 5.23792 7.91042C5.30773 7.84291 5.35483 7.75538 5.37269 7.65992C5.46653 7.16699 5.66708 6.70056 5.96027 6.29333C6.25345 5.8861 6.63217 5.54795 7.06988 5.30258C7.50758 5.05721 7.99366 4.91056 8.49404 4.87293C8.99441 4.8353 9.49696 4.90759 9.96644 5.08473C10.0644 5.12178 10.1719 5.12495 10.2718 5.09373C10.3718 5.0625 10.4584 4.99868 10.5178 4.91246C11.1791 3.95373 12.0589 3.16603 13.0846 2.61439C14.1104 2.06275 15.2526 1.76299 16.417 1.73987C17.5814 1.71674 18.7347 1.97091 19.7815 2.48139C20.8283 2.99187 21.7387 3.74402 22.4375 4.67575C22.4811 4.73403 22.5377 4.78133 22.6028 4.81388C22.6679 4.84643 22.7397 4.86334 22.8125 4.86324C23.5717 4.86324 24.3235 5.01278 25.0249 5.30331C25.7263 5.59384 26.3636 6.01968 26.9004 6.5565C27.4373 7.09333 27.8631 7.73064 28.1536 8.43204C28.4442 9.13345 28.5937 9.8852 28.5937 10.6444C28.5937 11.4036 28.4442 12.1553 28.1536 12.8567C27.8631 13.5581 27.4373 14.1955 26.9004 14.7323C26.3636 15.2691 25.7263 15.695 25.0249 15.9855C24.3235 16.276 23.5717 16.4255 22.8125 16.4255H20.6252V12.6562C20.6252 11.8353 19.9912 11.0953 18.8405 10.572ZM28.1252 28.125C28.0325 28.125 27.9419 28.0975 27.8648 28.046C27.7877 27.9945 27.7276 27.9212 27.6922 27.8356C27.6567 27.7499 27.6474 27.6557 27.6655 27.5648C27.6836 27.4738 27.7282 27.3903 27.7938 27.3248C27.8593 27.2592 27.9429 27.2146 28.0338 27.1965C28.1247 27.1784 28.219 27.1877 28.3046 27.2231C28.3903 27.2586 28.4635 27.3187 28.515 27.3958C28.5665 27.4729 28.594 27.5635 28.594 27.6562C28.5938 27.7805 28.5444 27.8996 28.4565 27.9875C28.3686 28.0753 28.2495 28.1248 28.1252 28.125Z" fill="#5B399B"/>
</svg>
