<svg viewBox="0 0 30 30" fill="none" xmlns="http://www.w3.org/2000/svg">
<g clip-path="url(#clip0)">
<path d="M12.0968 27.0968H18.871V28.0645H12.0968V27.0968ZM28.7787 13.391L30 13.6356V16.3644L28.7787 16.609C28.6873 16.8982 28.5706 17.1784 28.4312 17.447L29.1227 18.4835L27.1936 20.4126L26.1567 19.7215C25.888 19.8609 25.6078 19.9767 25.3191 20.0686L25.0736 21.2903H24.1935V27.5806C24.1935 28.9146 23.1081 30 21.7742 30H9.19355C7.8596 30 6.77419 28.9146 6.77419 27.5806V17.4194H1.45161C0.651383 17.4194 0 16.768 0 15.9677V7.25806C0 6.45783 0.651383 5.80645 1.45161 5.80645H6.77419V2.41935C6.77419 1.0854 7.8596 0 9.19355 0H21.7742C23.1081 0 24.1935 1.0854 24.1935 2.41935V8.70968H25.0736L25.3186 9.93093C25.6078 10.0228 25.888 10.1391 26.1562 10.278L27.1932 9.58693L29.1223 11.516L28.4307 12.5525C28.5706 12.8216 28.6868 13.1023 28.7787 13.391ZM23.2258 8.70968V4.83871H22.2581V9.14606L22.3457 8.70968H23.2258ZM18.2966 11.5165L20.2257 9.5874L21.2627 10.2785C21.2714 10.2735 21.2811 10.2702 21.2903 10.2657V4.83871H9.67742V5.80645H12.0968C12.7267 5.80645 13.259 6.21236 13.4593 6.77419H20.3226V7.74194H13.5484V8.70968H18.871V9.67742H13.5484V10.6452H16.4516V11.6129H13.5484V12.5806H16.4516V13.5484H13.5484V14.5161H16.4516V15.4839H13.5484V16.4516H16.4516V17.4194H13.5484V19.1869L10.1738 17.4194H9.67742V25.1613H21.2903V19.7348C21.2811 19.7303 21.2719 19.7265 21.2627 19.722L20.2257 20.4131L18.2966 18.484L18.9882 17.4475C18.8488 17.1788 18.7325 16.8986 18.6406 16.6094L17.4194 16.3644V13.6356L18.6406 13.391C18.732 13.1018 18.8488 12.8216 18.9882 12.553L18.2966 11.5165ZM7.74194 2.41935V3.87097H23.2258V2.41935C23.2258 1.61912 22.5744 0.967742 21.7742 0.967742H9.19355C8.39332 0.967742 7.74194 1.61912 7.74194 2.41935ZM7.74194 5.80645H8.70968V4.83871H7.74194V5.80645ZM1.45161 16.4516H10.4124L12.5806 17.5873V7.25806C12.5806 6.99156 12.3638 6.77419 12.0968 6.77419H1.45161C1.18463 6.77419 0.967742 6.99156 0.967742 7.25806V15.9677C0.967742 16.2342 1.18463 16.4516 1.45161 16.4516ZM7.74194 17.4194V25.1613H8.70968V17.4194H7.74194ZM23.2258 27.5806V26.129H7.74194V27.5806C7.74194 28.3809 8.39332 29.0323 9.19355 29.0323H21.7742C22.5744 29.0323 23.2258 28.3809 23.2258 27.5806ZM23.2258 21.2903H22.3457L22.2581 20.8539V25.1613H23.2258V21.2903ZM29.0323 14.4289L28.0007 14.2225L27.9256 13.9274C27.8221 13.5217 27.6624 13.1352 27.4495 12.7782L27.2938 12.5159L27.8772 11.6401L27.0696 10.8325L26.1933 11.4166L25.9315 11.2602C25.575 11.0478 25.1885 10.8876 24.7828 10.7846L24.4872 10.7094L24.2812 9.67742H23.1386L22.9326 10.709L22.637 10.7841C22.2314 10.8871 21.8448 11.0473 21.4883 11.2597L21.2265 11.4159L20.3502 10.832L19.5427 11.6396L20.1262 12.5154L19.9703 12.7777C19.7574 13.1347 19.5972 13.5212 19.4942 13.9269L19.4191 14.222L18.3871 14.4289V15.5711L19.4186 15.7775L19.4938 16.0726C19.5972 16.4783 19.757 16.8648 19.9698 17.2218L20.1255 17.4841L19.5422 18.3599L20.3498 19.1675L21.2261 18.5834L21.4878 18.7398C21.8444 18.9522 22.2309 19.1124 22.6366 19.2154L22.9321 19.2906L23.1382 20.3226H24.2807L24.4868 19.291L24.7823 19.2159C25.188 19.1129 25.5745 18.9527 25.931 18.7403L26.1928 18.5841L27.0691 19.168L27.8767 18.3604L27.2931 17.4846L27.449 17.2223C27.6619 16.8653 27.8221 16.4788 27.9251 16.0731L28.0003 15.778L29.0323 15.5711V14.4289ZM23.7097 16.4516C22.9094 16.4516 22.2581 15.8002 22.2581 15C22.2581 14.1998 22.9094 13.5484 23.7097 13.5484C24.5099 13.5484 25.1613 14.1998 25.1613 15C25.1613 15.8002 24.5099 16.4516 23.7097 16.4516ZM23.7097 15.4839C23.9767 15.4839 24.1935 15.2665 24.1935 15C24.1935 14.7335 23.9767 14.5161 23.7097 14.5161C23.4427 14.5161 23.2258 14.7335 23.2258 15C23.2258 15.2665 23.4427 15.4839 23.7097 15.4839ZM6.04839 9.67742H7.5C7.90023 9.67742 8.22581 10.003 8.22581 10.4032H9.19355C9.19355 9.46927 8.43396 8.70968 7.5 8.70968H7.25806V7.74194H6.29032V8.70968H6.04839C5.11443 8.70968 4.35484 9.46927 4.35484 10.4032C4.35484 11.3372 5.11443 12.0968 6.04839 12.0968H7.5C7.90023 12.0968 8.22581 12.4223 8.22581 12.8226C8.22581 13.2228 7.90023 13.5484 7.5 13.5484H6.04839C5.64815 13.5484 5.32258 13.2228 5.32258 12.8226H4.35484C4.35484 13.7565 5.11443 14.5161 6.04839 14.5161H6.29032V15.4839H7.25806V14.5161H7.5C8.43396 14.5161 9.19355 13.7565 9.19355 12.8226C9.19355 11.8886 8.43396 11.129 7.5 11.129H6.04839C5.64815 11.129 5.32258 10.8035 5.32258 10.4032C5.32258 10.003 5.64815 9.67742 6.04839 9.67742ZM17.4194 21.2903H18.3871V23.2258H13.5484V24.1935H19.3548V20.3226H17.4194V21.2903ZM11.6129 21.2903H16.4516V20.3226H10.6452V24.1935H12.5806V23.2258H11.6129V21.2903ZM1.93548 8.70968H2.90323V7.74194H1.93548V8.70968ZM11.6129 7.74194H10.6452V8.70968H11.6129V7.74194ZM1.93548 15.4839H2.90323V14.5161H1.93548V15.4839ZM11.6129 14.5161H10.6452V15.4839H11.6129V14.5161ZM23.7097 17.4194C22.3757 17.4194 21.2903 16.334 21.2903 15C21.2903 14.4968 21.4455 14.0129 21.7395 13.6001L20.951 13.0388C20.5399 13.6162 20.3226 14.2945 20.3226 15C20.3226 16.8677 21.8425 18.3871 23.7097 18.3871C24.4152 18.3871 25.093 18.1697 25.6709 17.7586L25.1095 16.9702C24.6968 17.2641 24.2129 17.4194 23.7097 17.4194ZM23.7097 11.6129C23.0042 11.6129 22.3263 11.8303 21.7484 12.2414L22.3098 13.0298C22.7226 12.7359 23.2064 12.5806 23.7097 12.5806C25.0436 12.5806 26.129 13.666 26.129 15C26.129 15.5032 25.9738 15.9871 25.6799 16.3999L26.4683 16.9612C26.8794 16.3838 27.0968 15.7055 27.0968 15C27.0968 13.1323 25.5769 11.6129 23.7097 11.6129Z" fill="#5B399B"/>
</g>
<defs>
<clipPath id="clip0">
<rect width="30" height="30" fill="white"/>
</clipPath>
</defs>
</svg>
