<svg viewBox="0 0 30 30" fill="none" xmlns="http://www.w3.org/2000/svg">
<g clip-path="url(#clip0)">
<path d="M20.9112 7.29662C19.3295 5.72601 17.2349 4.86316 15.0073 4.86316C14.9871 4.86316 14.9667 4.86328 14.9463 4.86339C12.5369 4.88039 10.2457 5.94421 8.66035 7.78201C8.449 8.02705 8.47624 8.39701 8.72128 8.60841C8.96638 8.81982 9.33634 8.7924 9.54769 8.54748C10.9123 6.96556 12.8831 6.04986 14.9546 6.03527C14.9722 6.03515 14.9896 6.03503 15.0071 6.03503C16.9232 6.03503 18.725 6.7773 20.0856 8.12824C21.4588 9.49171 22.2151 11.3084 22.2151 13.2435C22.2151 15.0915 21.5165 16.8488 20.2481 18.1917C18.9164 19.6015 18.1348 21.3861 18.0175 23.2619H16.8751V17.0511H17.2461C18.097 17.0511 18.7891 16.3589 18.7891 15.5082V15.43C18.7891 14.5792 18.0969 13.8871 17.2461 13.8871C16.3953 13.8871 15.7033 14.5793 15.7033 15.43V15.8793H14.2971V15.43C14.2971 14.5792 13.6049 13.8871 12.7542 13.8871H12.6549C11.8041 13.8871 11.112 14.5793 11.112 15.43V15.5082C11.112 16.359 11.8042 17.0511 12.6549 17.0511H13.1252V23.2618H11.9968C11.8831 21.3652 11.117 19.5971 9.81077 18.2392C8.46189 16.8367 7.74816 14.991 7.80113 13.042C7.80992 12.7185 7.55486 12.4492 7.2313 12.4404C6.9064 12.4294 6.63851 12.6867 6.62966 13.0102C6.56808 15.2755 7.39783 17.421 8.96615 19.0516C10.1743 20.3076 10.8396 21.9785 10.8396 23.7567V23.8478V25.4522C10.8396 26.7054 11.7901 27.7404 13.0079 27.8753V28.0078C13.0079 29.1063 13.9016 30 15 30C16.0985 30 16.9921 29.1063 16.9921 28.0079V27.8771C18.2165 27.7483 19.1737 26.7101 19.1737 25.4522V23.8478V23.7569C19.1737 22.0021 19.8578 20.3113 21.0999 18.9963C22.5746 17.4351 23.3868 15.3919 23.3868 13.2434C23.3868 10.9937 22.5076 8.88181 20.9112 7.29662ZM16.8751 15.43C16.8751 15.2254 17.0415 15.0589 17.2461 15.0589C17.4508 15.0589 17.6173 15.2254 17.6173 15.43V15.5082C17.6173 15.7128 17.4508 15.8793 17.2461 15.8793H16.8751V15.43ZM14.297 17.0511H15.7032V23.2618H14.297V17.0511ZM12.6548 15.8793C12.4502 15.8793 12.2837 15.7128 12.2837 15.5082V15.43C12.2837 15.2254 12.4502 15.0589 12.6548 15.0589H12.7541C12.9587 15.0589 13.1251 15.2254 13.1251 15.43V15.8793H12.6548ZM15.8204 28.0079C15.8204 28.4602 15.4524 28.8282 15.0001 28.8282C14.5477 28.8282 14.1798 28.4602 14.1798 28.0079V27.8907H15.8204V28.0079ZM18.0019 25.4522C18.0019 26.1507 17.4338 26.7189 16.7353 26.7189H16.4063H13.5939H13.2781C12.5796 26.7189 12.0114 26.1507 12.0114 25.4522V24.4337H18.0019V25.4522Z" fill="#5B399B"/>
<path d="M15 0C14.6764 0 14.4141 0.262383 14.4141 0.585938V2.77406C14.4141 3.09762 14.6764 3.36 15 3.36C15.3236 3.36 15.5859 3.09762 15.5859 2.77406V0.585938C15.5859 0.262383 15.3236 0 15 0Z" fill="#5B399B"/>
<path d="M27.6574 12.6575H25.4692C25.1457 12.6575 24.8833 12.9199 24.8833 13.2434C24.8833 13.567 25.1457 13.8293 25.4692 13.8293H27.6574C27.9809 13.8293 28.2433 13.567 28.2433 13.2434C28.2433 12.9199 27.981 12.6575 27.6574 12.6575Z" fill="#5B399B"/>
<path d="M4.5309 12.6575H2.34277C2.01922 12.6575 1.75684 12.9199 1.75684 13.2434C1.75684 13.567 2.01922 13.8293 2.34277 13.8293H4.5309C4.85446 13.8293 5.11684 13.567 5.11684 13.2434C5.11684 12.9199 4.85451 12.6575 4.5309 12.6575Z" fill="#5B399B"/>
<path d="M8.01133 5.42613L6.46416 3.8789C6.23536 3.65021 5.86446 3.65009 5.63547 3.8789C5.40667 4.10771 5.40667 4.47872 5.63547 4.70759L7.18264 6.25482C7.29713 6.36919 7.44708 6.42644 7.59702 6.42644C7.74696 6.42644 7.8969 6.36919 8.01133 6.25482C8.24014 6.02601 8.24014 5.65499 8.01133 5.42613Z" fill="#5B399B"/>
<path d="M24.3648 3.87884C24.1359 3.65009 23.765 3.65009 23.5362 3.87884L21.989 5.42606C21.7602 5.65487 21.7602 6.02589 21.989 6.25476C22.1034 6.36913 22.2534 6.42638 22.4033 6.42638C22.5532 6.42638 22.7032 6.36913 22.8176 6.25476L24.3648 4.70753C24.5936 4.47872 24.5936 4.10771 24.3648 3.87884Z" fill="#5B399B"/>
<path d="M20.4849 11.031C20.0458 9.9412 19.2992 9.01378 18.3258 8.34885C17.3395 7.67532 16.1868 7.32001 14.9889 7.32001C14.9747 7.32001 14.9603 7.32007 14.9461 7.32012C14.6225 7.32241 14.362 7.58661 14.3643 7.91016C14.3666 8.23237 14.6285 8.492 14.9502 8.492C14.9515 8.492 14.953 8.492 14.9543 8.492C14.966 8.49188 14.9774 8.49188 14.989 8.49188C16.94 8.49188 18.6682 9.65743 19.3979 11.4689C19.4899 11.6973 19.7095 11.8361 19.9416 11.8361C20.0145 11.8361 20.0886 11.8223 20.1603 11.7934C20.4605 11.6725 20.6058 11.331 20.4849 11.031Z" fill="#5B399B"/>
<path d="M20.7409 12.8291C20.6319 12.7202 20.4808 12.6574 20.3267 12.6574C20.1719 12.6574 20.0207 12.7202 19.9118 12.8291C19.8028 12.9381 19.7407 13.0892 19.7407 13.2433C19.7407 13.3974 19.8028 13.5486 19.9118 13.6576C20.0207 13.7666 20.1719 13.8293 20.3267 13.8293C20.4808 13.8293 20.6319 13.7666 20.7409 13.6576C20.8498 13.5486 20.912 13.3974 20.912 13.2433C20.912 13.0892 20.8498 12.9381 20.7409 12.8291Z" fill="#5B399B"/>
<path d="M8.23647 9.8105C8.12754 9.70151 7.97637 9.6394 7.82227 9.6394C7.66817 9.6394 7.51699 9.70146 7.40801 9.8105C7.29902 9.92007 7.23633 10.0707 7.23633 10.2253C7.23633 10.3794 7.29897 10.53 7.40801 10.6396C7.51699 10.7485 7.66817 10.8113 7.82227 10.8113C7.97637 10.8113 8.12754 10.7486 8.23647 10.6396C8.34545 10.53 8.40821 10.3794 8.40821 10.2253C8.40821 10.0707 8.34551 9.92007 8.23647 9.8105Z" fill="#5B399B"/>
</g>
<defs>
<clipPath id="clip0">
<rect width="30" height="30" fill="white"/>
</clipPath>
</defs>
</svg>
