<svg viewBox="0 0 30 30" fill="none" xmlns="http://www.w3.org/2000/svg">
<path d="M27.8906 3.28125H2.10938C1.6744 3.28173 1.25738 3.45474 0.949809 3.76231C0.642236 4.06988 0.469231 4.4869 0.46875 4.92188V25.0781C0.469231 25.5131 0.642236 25.9301 0.949809 26.2377C1.25738 26.5453 1.6744 26.7183 2.10938 26.7188H10.3125V29.0625C10.3125 29.1868 10.3619 29.306 10.4498 29.394C10.5377 29.4819 10.6569 29.5312 10.7812 29.5312H13.5938C13.7181 29.5312 13.8373 29.4819 13.9252 29.394C14.0131 29.306 14.0625 29.1868 14.0625 29.0625V26.7188H17.8125V29.0625C17.8125 29.1868 17.8619 29.306 17.9498 29.394C18.0377 29.4819 18.1569 29.5312 18.2812 29.5312H21.0938C21.2181 29.5312 21.3373 29.4819 21.4252 29.394C21.5131 29.306 21.5625 29.1868 21.5625 29.0625V26.7188H27.8906C28.3256 26.7183 28.7426 26.5453 29.0502 26.2377C29.3578 25.9301 29.5308 25.5131 29.5312 25.0781V4.92188C29.5308 4.4869 29.3578 4.06988 29.0502 3.76231C28.7426 3.45474 28.3256 3.28173 27.8906 3.28125ZM13.125 28.5938H11.25V21.5625H13.125V28.5938ZM11.7188 20.625V18.75H12.6562V20.625H11.7188ZM12.1875 17.6953C11.1933 17.6942 10.2401 17.2987 9.53708 16.5957C8.83406 15.8927 8.43862 14.9395 8.4375 13.9453C8.43397 13.0875 8.72802 12.2551 9.26953 11.5898C9.67075 11.0945 10.1908 10.7087 10.7812 10.4684V13.9453C10.7812 14.3183 10.9294 14.676 11.1931 14.9397C11.4569 15.2034 11.8145 15.3516 12.1875 15.3516C12.5605 15.3516 12.9181 15.2034 13.1819 14.9397C13.4456 14.676 13.5938 14.3183 13.5938 13.9453V10.4684C14.1842 10.7087 14.7043 11.0945 15.1055 11.5898C15.647 12.2551 15.941 13.0875 15.9375 13.9453C15.9364 14.9395 15.5409 15.8927 14.8379 16.5957C14.1349 17.2987 13.1817 17.6942 12.1875 17.6953ZM20.625 28.5938H18.75V21.5625H20.625V28.5938ZM19.2188 20.625V18.2812H20.1562V20.625H19.2188ZM28.5938 25.0781C28.5936 25.2646 28.5195 25.4433 28.3876 25.5751C28.2558 25.707 28.0771 25.7811 27.8906 25.7812H21.5625V21.0938C21.5625 20.9694 21.5131 20.8502 21.4252 20.7623C21.3373 20.6744 21.2181 20.625 21.0938 20.625V17.8125C21.0938 17.6882 21.0444 17.569 20.9565 17.481C20.8685 17.3931 20.7493 17.3438 20.625 17.3438H20.1562V15H21.0938C21.1626 15.0001 21.2307 14.985 21.293 14.9557C21.3554 14.9265 21.4105 14.8839 21.4545 14.8309C21.4985 14.7779 21.5303 14.7158 21.5475 14.6491C21.5648 14.5825 21.5671 14.5128 21.5543 14.4451L21.027 11.6326C21.0069 11.5251 20.9498 11.4281 20.8657 11.3582C20.7816 11.2883 20.6757 11.2501 20.5664 11.25H18.75C18.6391 11.25 18.5318 11.2893 18.4471 11.361C18.3625 11.4327 18.306 11.532 18.2877 11.6414L17.8189 14.4539C17.8078 14.5211 17.8114 14.5898 17.8295 14.6555C17.8475 14.7211 17.8797 14.782 17.9237 14.834C17.9677 14.8859 18.0224 14.9277 18.0842 14.9564C18.1459 14.985 18.2132 14.9999 18.2812 15H19.2188V17.3438H18.75C18.6257 17.3438 18.5065 17.3931 18.4185 17.481C18.3306 17.569 18.2812 17.6882 18.2812 17.8125V20.625C18.1569 20.625 18.0377 20.6744 17.9498 20.7623C17.8619 20.8502 17.8125 20.9694 17.8125 21.0938V25.7812H14.0625V21.0938C14.0625 20.9694 14.0131 20.8502 13.9252 20.7623C13.8373 20.6744 13.7181 20.625 13.5938 20.625V18.4172C14.576 18.1079 15.4292 17.4839 16.0215 16.6414C16.6137 15.7989 16.9121 14.7849 16.8706 13.7559C16.829 12.7269 16.4499 11.7402 15.7916 10.9482C15.1334 10.1562 14.2327 9.6029 13.2287 9.37383C13.1601 9.35826 13.0889 9.35834 13.0203 9.37406C12.9517 9.38978 12.8875 9.42074 12.8325 9.46464C12.7776 9.50854 12.7332 9.56425 12.7026 9.62765C12.6721 9.69104 12.6563 9.7605 12.6562 9.83086V13.9453C12.6562 14.0696 12.6069 14.1889 12.519 14.2768C12.431 14.3647 12.3118 14.4141 12.1875 14.4141C12.0632 14.4141 11.944 14.3647 11.856 14.2768C11.7681 14.1889 11.7188 14.0696 11.7188 13.9453V9.83086C11.7187 9.7605 11.7029 9.69104 11.6724 9.62765C11.6418 9.56425 11.5974 9.50854 11.5425 9.46464C11.4875 9.42074 11.4233 9.38978 11.3547 9.37406C11.2861 9.35834 11.2149 9.35826 11.1463 9.37383C10.1421 9.60274 9.24128 10.1559 8.58292 10.948C7.92455 11.74 7.54531 12.7268 7.50377 13.7558C7.46223 14.7849 7.76071 15.7991 8.35309 16.6416C8.94548 17.4841 9.7988 18.1081 10.7812 18.4172V20.625C10.6569 20.625 10.5377 20.6744 10.4498 20.7623C10.3619 20.8502 10.3125 20.9694 10.3125 21.0938V25.7812H2.10938C1.92294 25.7811 1.74419 25.707 1.61236 25.5751C1.48053 25.4433 1.40641 25.2646 1.40625 25.0781V7.03125H28.5938V25.0781ZM18.8344 14.0625L19.1473 12.1875H20.1773L20.5289 14.0625H18.8344ZM28.5938 6.09375H1.40625V4.92188C1.40641 4.73544 1.48053 4.55669 1.61236 4.42486C1.74419 4.29303 1.92294 4.21891 2.10938 4.21875H27.8906C28.0771 4.21891 28.2558 4.29303 28.3876 4.42486C28.5195 4.55669 28.5936 4.73544 28.5938 4.92188V6.09375Z" fill="#5B399B"/>
<path d="M2.34375 5.625H2.8125C2.93682 5.625 3.05605 5.57561 3.14396 5.48771C3.23186 5.3998 3.28125 5.28057 3.28125 5.15625C3.28125 5.03193 3.23186 4.9127 3.14396 4.82479C3.05605 4.73689 2.93682 4.6875 2.8125 4.6875H2.34375C2.21943 4.6875 2.1002 4.73689 2.01229 4.82479C1.92439 4.9127 1.875 5.03193 1.875 5.15625C1.875 5.28057 1.92439 5.3998 2.01229 5.48771C2.1002 5.57561 2.21943 5.625 2.34375 5.625Z" fill="#5B399B"/>
<path d="M4.21875 5.625H4.6875C4.81182 5.625 4.93105 5.57561 5.01896 5.48771C5.10686 5.3998 5.15625 5.28057 5.15625 5.15625C5.15625 5.03193 5.10686 4.9127 5.01896 4.82479C4.93105 4.73689 4.81182 4.6875 4.6875 4.6875H4.21875C4.09443 4.6875 3.9752 4.73689 3.88729 4.82479C3.79939 4.9127 3.75 5.03193 3.75 5.15625C3.75 5.28057 3.79939 5.3998 3.88729 5.48771C3.9752 5.57561 4.09443 5.625 4.21875 5.625Z" fill="#5B399B"/>
<path d="M6.09375 5.625H6.5625C6.68682 5.625 6.80605 5.57561 6.89396 5.48771C6.98186 5.3998 7.03125 5.28057 7.03125 5.15625C7.03125 5.03193 6.98186 4.9127 6.89396 4.82479C6.80605 4.73689 6.68682 4.6875 6.5625 4.6875H6.09375C5.96943 4.6875 5.8502 4.73689 5.76229 4.82479C5.67439 4.9127 5.625 5.03193 5.625 5.15625C5.625 5.28057 5.67439 5.3998 5.76229 5.48771C5.8502 5.57561 5.96943 5.625 6.09375 5.625Z" fill="#5B399B"/>
</svg>
