<svg viewBox="0 0 30 30" fill="none" xmlns="http://www.w3.org/2000/svg">
<g clip-path="url(#clip0)">
<path d="M16.3095 28.2737C16.0657 28.2737 15.868 28.076 15.868 27.8322V26.6582C15.868 26.4901 15.7312 26.3533 15.5631 26.3533H14.3779C14.2097 26.3533 14.0729 26.4901 14.0729 26.6582V27.8322C14.0729 28.076 13.8753 28.2737 13.6314 28.2737C13.3876 28.2737 13.1899 28.076 13.1899 27.8322V26.6582C13.1899 26.0032 13.7229 25.4703 14.3779 25.4703H15.5631C16.2181 25.4703 16.751 26.0032 16.751 26.6582V27.8322C16.751 28.076 16.5534 28.2737 16.3095 28.2737Z" fill="#5B399B"/>
<path d="M19.2152 12.135C19.0702 11.9391 18.7937 11.8979 18.5977 12.0429C18.4017 12.188 18.3605 12.4645 18.5056 12.6605L20.6979 15.6215C20.9418 15.9508 20.9241 16.4469 20.6578 16.7509L18.2958 19.4464H11.6451L9.28308 16.7509C9.01671 16.4469 8.99905 15.9508 9.24293 15.6215L13.5955 9.74277V13.0925C13.0438 13.5166 12.7213 14.1651 12.7213 14.8731C12.7213 16.1133 13.7302 17.1222 14.9704 17.1222C16.2106 17.1222 17.2196 16.1133 17.2196 14.8731C17.2196 14.197 16.9187 13.5656 16.4042 13.1403V9.8223L17.3736 11.1317C17.5187 11.3277 17.7952 11.3688 17.9912 11.2238C18.1871 11.0787 18.2283 10.8022 18.0833 10.6062L16.1896 8.04849C15.8915 7.64585 15.4471 7.41492 14.9705 7.41492C14.4938 7.41492 14.0495 7.64585 13.7514 8.04849L8.5333 15.0961C8.04395 15.7571 8.0808 16.7186 8.61907 17.3329L10.5889 19.5808C10.097 19.8102 9.75512 20.309 9.75512 20.8866V22.9929C9.75512 23.6377 10.1811 24.1848 10.7665 24.3678L10.8869 27.8476C10.8952 28.0861 11.0911 28.2739 11.3279 28.2739C11.3331 28.2739 11.3383 28.2738 11.3434 28.2736C11.5871 28.2651 11.7778 28.0608 11.7694 27.8171L11.6523 24.433H18.3476L18.2304 27.8171C18.222 28.0608 18.4127 28.2651 18.6564 28.2736C18.6615 28.2738 18.6667 28.2739 18.6719 28.2739C18.9087 28.2739 19.1046 28.0861 19.1129 27.8476L19.234 24.3476C19.7885 24.1472 20.1858 23.6156 20.1858 22.9929V20.8866C20.1858 20.309 19.8439 19.8102 19.352 19.5808L21.3219 17.3329C21.8601 16.7187 21.897 15.7571 21.4076 15.0961L19.2152 12.135ZM14.9704 8.29785C15.1671 8.29785 15.3481 8.39586 15.4798 8.57381L15.5212 8.62962V13.3622C15.5212 13.5107 15.5959 13.6494 15.72 13.731C16.1061 13.9851 16.3366 14.412 16.3366 14.8729C16.3366 15.6263 15.7237 16.2391 14.9704 16.2391C14.2171 16.2391 13.6043 15.6263 13.6043 14.8729C13.6043 14.3902 13.8514 13.9527 14.2653 13.7026C14.3976 13.6226 14.4785 13.4793 14.4785 13.3247V8.55244C14.6086 8.38856 14.782 8.29785 14.9704 8.29785ZM19.3028 22.9927C19.3028 23.2999 19.0529 23.5499 18.7457 23.5499H11.1952C10.8879 23.5499 10.6381 23.2999 10.6381 22.9927V20.8865C10.6381 20.5793 10.888 20.3294 11.1952 20.3294H18.7457C19.0529 20.3294 19.3028 20.5793 19.3028 20.8865V22.9927Z" fill="#5B399B"/>
<path d="M6.18495 12.2705C6.24294 10.8717 6.63198 9.50219 7.32054 8.2886C7.44086 8.07651 7.36651 7.80708 7.15442 7.68676C6.94232 7.56638 6.67289 7.64078 6.55257 7.85288C5.78943 9.19779 5.36036 10.7163 5.30126 12.2662C4.53935 12.4599 3.97412 13.1515 3.97412 13.9729C3.97412 14.9438 4.76404 15.7337 5.73498 15.7337C6.70592 15.7337 7.49584 14.9438 7.49584 13.9729C7.49584 13.1574 6.93861 12.4699 6.18495 12.2705ZM5.73498 14.8508C5.25093 14.8508 4.85711 14.4569 4.85711 13.9729C4.85711 13.4888 5.25093 13.095 5.73498 13.095C6.21904 13.095 6.61285 13.4888 6.61285 13.9729C6.61285 14.4569 6.21904 14.8508 5.73498 14.8508Z" fill="#5B399B"/>
<path d="M29.0652 1.72638H27.6464C27.131 1.72638 26.7116 2.14574 26.7116 2.66117V2.92907H16.6442V2.66117C16.6442 2.14574 16.2248 1.72638 15.7094 1.72638H14.2906C13.7752 1.72638 13.3558 2.14574 13.3558 2.66117V2.92907H3.28837V2.66117C3.28837 2.14574 2.86901 1.72638 2.35358 1.72638H0.934792C0.419361 1.72638 0 2.14574 0 2.66117V4.07996C0 4.59539 0.419361 5.01475 0.934792 5.01475H2.35358C2.86901 5.01475 3.28837 4.59539 3.28837 4.07996V3.81206H10.9526C9.72684 4.37505 8.6204 5.19288 7.7118 6.22504C7.55068 6.40805 7.5684 6.68702 7.75148 6.84813C7.83536 6.92195 7.93938 6.95827 8.04304 6.95827C8.16548 6.95827 8.28733 6.90765 8.37457 6.80852C9.6801 5.3255 11.434 4.32855 13.3558 3.96588V4.08002C13.3558 4.59545 13.7752 5.01481 14.2906 5.01481H15.7094C16.2248 5.01481 16.6442 4.59545 16.6442 4.08002V3.96582C20.6522 4.72101 23.6467 8.17733 23.8159 12.2704C23.062 12.4696 22.5045 13.1573 22.5045 13.9729C22.5045 14.9439 23.2944 15.7338 24.2653 15.7338C25.2363 15.7338 26.0262 14.9439 26.0262 13.9729C26.0262 13.1517 25.461 12.4601 24.6992 12.2663C24.5581 8.55248 22.3024 5.31043 19.0477 3.81218H26.7116V4.08008C26.7116 4.59551 27.131 5.01487 27.6464 5.01487H29.0652C29.5806 5.01487 30 4.59551 30 4.08008V2.66117C30 2.14574 29.5806 1.72638 29.0652 1.72638ZM2.40538 4.07996C2.40538 4.10851 2.38213 4.13176 2.35358 4.13176H0.934792C0.906242 4.13176 0.88299 4.10851 0.88299 4.07996V2.66117C0.88299 2.63262 0.906242 2.60937 0.934792 2.60937H2.35358C2.38213 2.60937 2.40538 2.63262 2.40538 2.66117V4.07996ZM25.1432 13.9728C25.1432 14.4569 24.7494 14.8507 24.2653 14.8507C23.7813 14.8507 23.3875 14.4569 23.3875 13.9728C23.3875 13.4887 23.7813 13.0949 24.2653 13.0949C24.7494 13.0949 25.1432 13.4887 25.1432 13.9728ZM15.7612 4.07996C15.7612 4.10851 15.7379 4.13176 15.7094 4.13176H14.2906C14.2621 4.13176 14.2388 4.10851 14.2388 4.07996V2.66117C14.2388 2.63262 14.2621 2.60937 14.2906 2.60937H15.7094C15.7379 2.60937 15.7612 2.63262 15.7612 2.66117V4.07996ZM29.117 4.07996C29.117 4.10851 29.0938 4.13176 29.0652 4.13176H27.6464C27.6179 4.13176 27.5946 4.10851 27.5946 4.07996V2.66117C27.5946 2.63262 27.6179 2.60937 27.6464 2.60937H29.0652C29.0938 2.60937 29.117 2.63262 29.117 2.66117V4.07996Z" fill="#5B399B"/>
</g>
<defs>
<clipPath id="clip0">
<rect width="30" height="30" fill="white"/>
</clipPath>
</defs>
</svg>
