<svg viewBox="0 0 30 30" fill="none" xmlns="http://www.w3.org/2000/svg">
<path d="M27.8906 24.8438C28.3256 24.8433 28.7426 24.6703 29.0502 24.3627C29.3578 24.0551 29.5308 23.6381 29.5312 23.2031V3.04688C29.5308 2.6119 29.3578 2.19488 29.0502 1.88731C28.7426 1.57974 28.3256 1.40673 27.8906 1.40625H2.10938C1.6744 1.40673 1.25738 1.57974 0.949809 1.88731C0.642236 2.19488 0.469231 2.6119 0.46875 3.04688V23.2031C0.469231 23.6381 0.642236 24.0551 0.949809 24.3627C1.25738 24.6703 1.6744 24.8433 2.10938 24.8438H14.5312V25.8621C14.3338 25.9323 14.1544 26.0456 14.0063 26.1938C13.8581 26.3419 13.7448 26.5213 13.6746 26.7188H0.9375C0.81318 26.7188 0.693951 26.7681 0.606044 26.856C0.518136 26.944 0.46875 27.0632 0.46875 27.1875C0.46875 27.3118 0.518136 27.431 0.606044 27.519C0.693951 27.6069 0.81318 27.6562 0.9375 27.6562H13.6746C13.7715 27.9304 13.9509 28.1678 14.1883 28.3356C14.4257 28.5035 14.7093 28.5937 15 28.5937C15.2907 28.5937 15.5743 28.5035 15.8117 28.3356C16.0491 28.1678 16.2285 27.9304 16.3254 27.6562H29.0625C29.1868 27.6562 29.306 27.6069 29.394 27.519C29.4819 27.431 29.5312 27.3118 29.5312 27.1875C29.5312 27.0632 29.4819 26.944 29.394 26.856C29.306 26.7681 29.1868 26.7188 29.0625 26.7188H16.3254C16.2552 26.5213 16.1419 26.3419 15.9937 26.1938C15.8456 26.0456 15.6662 25.9323 15.4688 25.8621V24.8438H27.8906ZM1.40625 3.04688C1.40641 2.86044 1.48053 2.68169 1.61236 2.54986C1.74419 2.41803 1.92294 2.34391 2.10938 2.34375H27.8906C28.0771 2.34391 28.2558 2.41803 28.3876 2.54986C28.5195 2.68169 28.5936 2.86044 28.5938 3.04688V4.21875H1.40625V3.04688ZM2.10938 23.9062C1.92294 23.9061 1.74419 23.832 1.61236 23.7001C1.48053 23.5683 1.40641 23.3896 1.40625 23.2031V5.15625H28.5938V23.2031C28.5936 23.3896 28.5195 23.5683 28.3876 23.7001C28.2558 23.832 28.0771 23.9061 27.8906 23.9062H15.4688V23.424C19.9043 23.1803 23.4375 19.4953 23.4375 15C23.4375 10.3477 19.6523 6.5625 15 6.5625C10.3477 6.5625 6.5625 10.3477 6.5625 15C6.5625 19.4953 10.0957 23.1803 14.5312 23.424V23.9062H2.10938ZM18.2379 13.5938H22.367C22.5443 14.5229 22.5443 15.4771 22.367 16.4062H18.2379C18.266 15.9457 18.2805 15.477 18.2812 15C18.2812 14.5236 18.2668 14.0549 18.2379 13.5938ZM18.1605 12.6562C18.0246 11.3707 17.7768 10.19 17.4311 9.20918C17.2037 8.56641 16.9594 8.07363 16.7098 7.69688C17.9606 7.99252 19.1149 8.60351 20.0627 9.47164C21.0106 10.3398 21.7203 11.4361 22.1244 12.6562H18.1605ZM17.2195 12.6562H12.7805C13.1385 9.41309 14.1984 7.5 15 7.5C15.8016 7.5 16.8615 9.41309 17.2195 12.6562ZM12.5689 9.20918C12.2232 10.19 11.9754 11.3707 11.8395 12.6562H7.87559C8.27967 11.4361 8.98944 10.3398 9.93726 9.47164C10.8851 8.60351 12.0394 7.99252 13.2902 7.69688C13.0406 8.07363 12.7963 8.56641 12.5689 9.20918ZM11.7621 13.5938C11.734 14.0543 11.7195 14.523 11.7188 15C11.7188 15.4764 11.7332 15.9451 11.7621 16.4062H7.63301C7.45566 15.4771 7.45566 14.5229 7.63301 13.5938H11.7621ZM11.8395 17.3438C11.9754 18.6293 12.2232 19.81 12.5689 20.7908C12.7963 21.4336 13.0406 21.9264 13.2902 22.3031C12.0394 22.0075 10.8851 21.3965 9.93726 20.5284C8.98944 19.6602 8.27967 18.5639 7.87559 17.3438H11.8395ZM12.6562 15C12.6562 14.5107 12.6707 14.042 12.6996 13.5938H17.3004C17.3285 14.042 17.343 14.5107 17.3438 15C17.3438 15.4893 17.3293 15.958 17.3004 16.4062H12.6996C12.6715 15.958 12.657 15.4893 12.6562 15ZM17.4311 20.7908C17.7768 19.81 18.0246 18.6293 18.1605 17.3438H22.1244C21.7203 18.5639 21.0106 19.6602 20.0627 20.5284C19.1149 21.3965 17.9606 22.0075 16.7098 22.3031C16.9594 21.9264 17.2037 21.4336 17.4311 20.7908ZM15 27.6562C14.9073 27.6562 14.8167 27.6288 14.7396 27.5773C14.6625 27.5257 14.6024 27.4525 14.5669 27.3669C14.5315 27.2812 14.5222 27.187 14.5403 27.0961C14.5583 27.0051 14.603 26.9216 14.6685 26.856C14.7341 26.7905 14.8176 26.7458 14.9086 26.7278C14.9995 26.7097 15.0937 26.719 15.1794 26.7544C15.265 26.7899 15.3382 26.85 15.3898 26.9271C15.4413 27.0042 15.4688 27.0948 15.4688 27.1875C15.4686 27.3118 15.4191 27.4309 15.3313 27.5188C15.2434 27.6066 15.1243 27.6561 15 27.6562ZM15 22.5C14.1984 22.5 13.1385 20.5869 12.7805 17.3438H17.2195C16.8615 20.5869 15.8016 22.5 15 22.5Z" fill="#5B399B"/>
<path d="M2.34375 3.75H2.8125C2.93682 3.75 3.05605 3.70061 3.14396 3.61271C3.23186 3.5248 3.28125 3.40557 3.28125 3.28125C3.28125 3.15693 3.23186 3.0377 3.14396 2.94979C3.05605 2.86189 2.93682 2.8125 2.8125 2.8125H2.34375C2.21943 2.8125 2.1002 2.86189 2.01229 2.94979C1.92439 3.0377 1.875 3.15693 1.875 3.28125C1.875 3.40557 1.92439 3.5248 2.01229 3.61271C2.1002 3.70061 2.21943 3.75 2.34375 3.75Z" fill="#5B399B"/>
<path d="M4.21875 3.75H4.6875C4.81182 3.75 4.93105 3.70061 5.01896 3.61271C5.10686 3.5248 5.15625 3.40557 5.15625 3.28125C5.15625 3.15693 5.10686 3.0377 5.01896 2.94979C4.93105 2.86189 4.81182 2.8125 4.6875 2.8125H4.21875C4.09443 2.8125 3.9752 2.86189 3.88729 2.94979C3.79939 3.0377 3.75 3.15693 3.75 3.28125C3.75 3.40557 3.79939 3.5248 3.88729 3.61271C3.9752 3.70061 4.09443 3.75 4.21875 3.75Z" fill="#5B399B"/>
<path d="M6.09375 3.75H6.5625C6.68682 3.75 6.80605 3.70061 6.89396 3.61271C6.98186 3.5248 7.03125 3.40557 7.03125 3.28125C7.03125 3.15693 6.98186 3.0377 6.89396 2.94979C6.80605 2.86189 6.68682 2.8125 6.5625 2.8125H6.09375C5.96943 2.8125 5.8502 2.86189 5.76229 2.94979C5.67439 3.0377 5.625 3.15693 5.625 3.28125C5.625 3.40557 5.67439 3.5248 5.76229 3.61271C5.8502 3.70061 5.96943 3.75 6.09375 3.75Z" fill="#5B399B"/>
</svg>
